<?xml version="1.0" encoding="UTF-8" standalone="no"?>
<svg
   id="Logo"
   width="770"
   height="770"
   version="1.1"
   viewBox="0 0 770 770"
   sodipodi:docname="webgpu-light.svg"
   inkscape:export-filename="webgpu-dark.png"
   inkscape:export-xdpi="127.66753"
   inkscape:export-ydpi="127.66753"
   inkscape:version="1.2 (dc2aedaf03, 2022-05-15)"
   xmlns:inkscape="http://www.inkscape.org/namespaces/inkscape"
   xmlns:sodipodi="http://sodipodi.sourceforge.net/DTD/sodipodi-0.dtd"
   xmlns="http://www.w3.org/2000/svg"
   xmlns:svg="http://www.w3.org/2000/svg">
  <sodipodi:namedview
     id="namedview43"
     pagecolor="#ffffff"
     bordercolor="#666666"
     borderopacity="1.0"
     inkscape:showpageshadow="2"
     inkscape:pageopacity="1"
     inkscape:pagecheckerboard="0"
     inkscape:deskcolor="#d1d1d1"
     showgrid="false"
     inkscape:zoom="0.72646804"
     inkscape:cx="231.25587"
     inkscape:cy="501.05439"
     inkscape:window-width="1920"
     inkscape:window-height="1017"
     inkscape:window-x="-8"
     inkscape:window-y="-8"
     inkscape:window-maximized="1"
     inkscape:current-layer="Logo" />
  <defs
     id="defs4">
    <style
       id="style2">.cls-1, .cls-2, .cls-3, .cls-4, .cls-5 {
        fill-rule: evenodd;
        stroke-linejoin: round;
      }

      .cls-6 {
        fill-rule: evenodd;
      }

      .cls-1 {
        fill: #005a9c;
        stroke: #005a9c;
      }

      .cls-2 {
        fill: #0066b0;
        stroke: #0066b0;
      }

      .cls-3 {
        fill: #0076cc;
        stroke: #0076cc;
      }

      .cls-4 {
        fill: #0086e8;
        stroke: #0086e8;
      }

      .cls-5 {
        fill: #0093ff;
        stroke: #0093ff;
      }
    </style>
  </defs>
  <path
     class="cls-4"
     d="M 596.3101,246.7521 543.98509,156.12253 H 648.78464 Z"
     data-name="Triangle 4"
     id="path6"
     style="stroke-width:1" />
  <path
     class="cls-5"
     d="M 596.3101,65.496445 543.98509,156.12601 H 648.78464 Z"
     data-name="Triangle 5"
     id="path8"
     style="stroke-width:1" />
  <path
     class="cls-3"
     d="M 491.66704,428.01124 387.01528,246.7521 596.3188,246.7501 Z"
     data-name="Triangle 3"
     id="path10"
     style="stroke-width:1" />
  <path
     class="cls-2"
     d="M 491.66704,65.494707 387.01528,246.75384 596.3188,246.7521 Z"
     data-name="Triangle 2"
     id="path12"
     style="stroke-width:1" />
  <path
     class="cls-1"
     d="M 282.36353,428.01124 73.06001,65.492968 h 418.59834 z"
     data-name="Triangle 1"
     id="path14"
     style="stroke-width:1" />
  <path
     class="cls-6"
     d="m 198.15007,465.80182 -22.34216,86.01593 -23.36539,-86.01593 H 137.54455 L 113.01076,552.10986 90.812905,465.80182 H 76.647796 l 28.477134,101.9311 14.74931,-0.14605 24.53379,-81.92653 23.65836,81.92653 h 14.89536 l 29.49948,-101.78331 z m 101.93071,58.70796 a 40.312399,40.312554 0 0 0 -4.74576,-19.64205 34.401722,34.401854 0 0 0 -13.50875,-13.65399 40.175042,40.175197 0 0 0 -20.15229,-4.96485 41.516442,41.516602 0 0 0 -20.66433,5.04222 34.854651,34.854785 0 0 0 -13.9469,14.38511 q -4.9657,9.34723 -4.96483,21.75892 0,12.41169 5.11088,21.83282 a 36.164754,36.164893 0 0 0 14.09295,14.53028 40.42976,40.429916 0 0 0 20.37223,5.11177 q 14.31029,0 23.94959,-7.22863 a 34.409546,34.409679 0 0 0 12.85153,-18.76575 h -14.31203 a 21.26331,21.263392 0 0 1 -8.1049,10.73384 q -5.76985,4.01726 -14.38419,4.01552 a 25.769995,25.770094 0 0 1 -17.89025,-6.64443 q -7.37552,-6.64443 -8.1049,-18.47365 h 63.96467 a 78.414923,78.415225 0 0 0 0.43467,-8.03191 z m -13.72696,-2.77496 h -50.52894 q 1.02061,-11.38846 8.1049,-17.81642 a 24.632022,24.632117 0 0 1 17.16,-6.42536 28.468442,28.468552 0 0 1 12.77938,2.84712 21.856204,21.856288 0 0 1 9.12812,8.32401 24.525093,24.525187 0 0 1 3.35915,13.07065 z m 44.54002,-19.27693 v -42.93538 h -13.2888 v 108.0687 h 13.2888 v -14.74936 a 30.774814,30.774933 0 0 0 11.75616,11.53625 35.594463,35.5946 0 0 0 18.18148,4.52757 36.406432,36.406572 0 0 0 33.00468,-20.00719 45.944885,45.945062 0 0 0 4.96483,-21.61374 q 0,-12.26737 -4.96483,-21.53984 a 36.213437,36.213577 0 0 0 -13.58351,-14.38511 37.349671,37.349815 0 0 0 -19.42291,-5.1109 35.442328,35.442465 0 0 0 -17.96241,4.5267 31.429431,31.429552 0 0 0 -11.97522,11.68317 z m 54.32625,24.82598 a 33.306347,33.306476 0 0 1 -3.65125,15.99167 25.678714,25.678813 0 0 1 -9.85751,10.36872 26.846244,26.846348 0 0 1 -13.6548,3.57736 26.561968,26.562071 0 0 1 -13.50788,-3.57736 26.150768,26.150869 0 0 1 -9.93053,-10.36872 35.258027,35.258163 0 0 1 0,-31.54431 26.167286,26.167387 0 0 1 9.93053,-10.36872 26.579355,26.579458 0 0 1 13.50788,-3.57737 27.290479,27.290585 0 0 1 13.6548,3.50435 25.297941,25.298038 0 0 1 9.85751,10.22267 32.556102,32.556228 0 0 1 3.65125,15.77171 z m 124.13377,-31.98419 a 45.96488,45.965057 0 0 0 -18.18148,-22.6361 q -12.4864,-8.0293 -28.69534,-8.03191 a 51.378292,51.37849 0 0 0 -25.8491,6.64443 48.653765,48.653952 0 0 0 -18.47359,18.54668 56.129263,56.129479 0 0 0 0,53.52317 48.776342,48.77653 0 0 0 18.47359,18.47366 51.350473,51.350671 0 0 0 25.8491,6.64443 49.514416,49.514607 0 0 0 24.38774,-6.06023 48.717227,48.717414 0 0 0 17.6703,-16.50284 50.548937,50.549131 0 0 0 7.88583,-23.00035 v -10.22093 h -54.76439 v 10.80687 h 40.59842 q -1.60916,15.1936 -11.24324,24.09573 -9.63409,8.90213 -24.53379,8.90821 a 37.93561,37.935756 0 0 1 -19.2047,-4.89182 34.658179,34.658312 0 0 1 -13.43486,-13.94696 q -4.89354,-9.05252 -4.8918,-21.02867 0,-11.97614 4.8918,-21.10256 a 34.578199,34.578332 0 0 1 13.43486,-14.01998 37.952996,37.953143 0 0 1 19.2047,-4.89182 35.224992,35.225127 0 0 1 18.69092,4.89182 31.678064,31.678186 0 0 1 12.26646,13.79917 z m 88.64712,0.2921 q 0,-13.14368 -8.98121,-21.46769 -8.9812,-8.32401 -26.21336,-8.32401 h -32.86124 v 101.792 h 13.28968 v -42.49636 h 19.56896 q 17.81548,0 26.50546,-8.39703 8.68997,-8.39704 8.69345,-21.10257 z m -35.19457,18.54668 h -19.56895 v -37.38198 h 19.56895 q 21.61018,0 21.61279,18.83878 0,8.90908 -5.25693,13.72701 -5.25693,4.81793 -16.35586,4.81966 z m 51.40351,-48.33577 v 64.25614 q 0,12.70553 5.0422,21.39467 a 31.629381,31.629502 0 0 0 13.72696,12.92373 46.988099,46.98828 0 0 0 38.99186,0 32.090133,32.090257 0 0 0 13.80085,-12.92373 q 5.10393,-8.6874 5.10393,-21.39554 v -64.25614 h -13.2862 v 64.40219 q 0,13.58183 -6.64528,20.15324 -6.64527,6.5714 -18.32753,6.5714 -11.82831,0 -18.47358,-6.5714 -6.64527,-6.57141 -6.64267,-20.15324 v -64.40219 h -13.29141 z"
     fill="#eeeeee"
     id="path16"
     style="stroke-width:1;fill:#232323;fill-opacity:1" />
  <g
     transform="matrix(0.86934504,0,0,0.86934839,84.588395,59.518806)"
     id="g40"
     style="stroke-width:1.15029">
    <rect
       x="91.932999"
       y="621.70001"
       width="230.91"
       height="122.68"
       rx="21.974001"
       ry="21.974001"
       fill="#0093ff"
       id="rect18"
       style="stroke-width:1.32316" />
    <g
       fill="#eeeeee"
       stroke-width="1.74867"
       aria-label="C++"
       id="g26">
      <path
         d="m 181.95,654.12 q 0,1.1795 -0.39317,2.9206 -0.39316,1.7412 -1.0672,2.7522 -0.61783,1.011 -1.348,1.011 -0.78633,0 -1.8535,-1.011 -1.0672,-1.0672 -2.8645,-2.2467 -1.7973,-1.2357 -4.6618,-2.2467 -2.8083,-1.0672 -7.077,-1.0672 -4.718,0 -8.5935,1.7973 -3.8755,1.7412 -7.0208,4.7742 -3.0892,2.9768 -5.4482,6.9085 -2.359,3.9317 -3.9317,8.2565 -1.5165,4.2686 -2.3028,8.6496 -0.7863,4.381 -0.78633,8.3126 0,4.4933 1.1233,8.0318 1.1233,3.4823 3.2576,5.8975 2.1343,2.4152 5.2235,3.6508 3.0892,1.2357 7.0208,1.2357 4.381,0 7.5263,-0.95483 3.2015,-1.011 5.4482,-2.1905 2.3028,-1.2357 3.8193,-2.1905 1.5165,-1.011 2.4713,-1.011 0.61783,0 0.89867,0.44934 0.28083,0.44933 0.28083,1.348 0,0.28084 -0.11233,0.8425 -0.0562,0.5055 -0.1685,1.1233 -0.11234,0.61783 -0.28084,1.348 -0.11233,0.73016 -0.337,1.4042 -0.22466,0.61783 -0.50549,1.1795 -0.22467,0.50549 -0.8425,1.0672 -0.56167,0.56166 -2.4713,1.685 -1.8535,1.0672 -4.6056,2.0782 -2.696,0.95484 -6.1222,1.6288 -3.37,0.73017 -7.1893,0.73017 -5.729,0 -10.335,-1.685 -4.6056,-1.7412 -7.8633,-5.055 -3.2015,-3.37 -4.9988,-8.3126 -1.7412,-4.9988 -1.7412,-11.458 0,-5.3358 1.1233,-10.952 1.1233,-5.6728 3.3138,-11.009 2.1905,-5.3358 5.4482,-10.054 3.3138,-4.718 7.6386,-8.2565 4.381,-3.5947 9.8291,-5.6167 5.4482,-2.0782 11.963,-2.0782 4.1002,0 7.6386,0.95483 3.5946,0.89867 6.1222,2.3028 2.5275,1.4042 3.6508,2.5275 1.1233,1.0672 1.1233,2.5275 z"
         id="path20"
         style="stroke-width:1.74867" />
      <path
         d="m 232.55,685.18 q 0,0.337 -0.11233,0.89867 -0.0562,0.56166 -0.22467,1.2357 -0.11233,0.674 -0.39317,1.348 -0.22466,0.67399 -0.56166,1.2357 -0.337,0.5055 -0.8425,0.8425 -0.44933,0.337 -1.011,0.337 h -18.423 l -4.1563,20.445 q -0.0562,0.44934 -0.337,0.78633 -0.28083,0.28084 -0.8425,0.5055 -0.50549,0.22467 -1.348,0.39317 -0.78633,0.11233 -1.9658,0.11233 -1.1233,0 -1.9097,-0.11233 -0.78633,-0.1685 -1.2357,-0.39317 -0.39317,-0.22466 -0.56167,-0.5055 -0.1685,-0.33699 -0.11233,-0.78633 l 4.1563,-20.445 h -18.423 q -0.674,0 -1.1233,-0.44934 -0.39317,-0.50549 -0.39317,-1.685 0,-0.337 0.0562,-0.89867 0.0562,-0.61783 0.1685,-1.2918 0.1685,-0.674 0.39316,-1.2918 0.28083,-0.674 0.56167,-1.1795 0.337,-0.56167 0.78633,-0.89866 0.5055,-0.337 1.0672,-0.337 h 18.479 l 4.1002,-20.445 q 0.11233,-0.44933 0.39316,-0.78633 0.28083,-0.39317 0.78633,-0.61783 0.56167,-0.28084 1.4042,-0.39317 0.84249,-0.1685 1.9658,-0.1685 1.1795,0 1.9097,0.1685 0.78634,0.11233 1.2357,0.39317 0.44933,0.22466 0.56166,0.61783 0.1685,0.337 0.0562,0.78633 l -4.1002,20.445 h 18.479 q 0.73017,0 1.1233,0.56166 0.39317,0.5055 0.39317,1.5727 z"
         id="path22"
         style="stroke-width:1.74867" />
      <path
         d="m 290.69,685.18 q 0,0.337 -0.11233,0.89867 -0.0562,0.56166 -0.22467,1.2357 -0.11233,0.674 -0.39316,1.348 -0.22467,0.67399 -0.56167,1.2357 -0.337,0.5055 -0.8425,0.8425 -0.44933,0.337 -1.011,0.337 h -18.423 l -4.1563,20.445 q -0.0562,0.44934 -0.337,0.78633 -0.28083,0.28084 -0.84249,0.5055 -0.5055,0.22467 -1.348,0.39317 -0.78633,0.11233 -1.9658,0.11233 -1.1233,0 -1.9097,-0.11233 -0.78633,-0.1685 -1.2357,-0.39317 -0.39317,-0.22466 -0.56167,-0.5055 -0.1685,-0.33699 -0.11233,-0.78633 l 4.1563,-20.445 h -18.423 q -0.674,0 -1.1233,-0.44934 -0.39317,-0.50549 -0.39317,-1.685 0,-0.337 0.0562,-0.89867 0.0562,-0.61783 0.1685,-1.2918 0.1685,-0.674 0.39316,-1.2918 0.28084,-0.674 0.56167,-1.1795 0.337,-0.56167 0.78633,-0.89866 0.5055,-0.337 1.0672,-0.337 h 18.479 l 4.1002,-20.445 q 0.11233,-0.44933 0.39316,-0.78633 0.28084,-0.39317 0.78633,-0.61783 0.56167,-0.28084 1.4042,-0.39317 0.8425,-0.1685 1.9658,-0.1685 1.1795,0 1.9097,0.1685 0.78633,0.11233 1.2357,0.39317 0.44933,0.22466 0.56166,0.61783 0.1685,0.337 0.0562,0.78633 l -4.1002,20.445 h 18.479 q 0.73016,0 1.1233,0.56166 0.39316,0.5055 0.39316,1.5727 z"
         id="path24"
         style="stroke-width:1.74867" />
    </g>
    <g
       fill="#eeeeee"
       stroke-width="1.74867"
       aria-label="guide"
       id="g38">
      <path
         d="m 394.96,714.64 q -0.89866,4.4933 -2.9207,7.8633 -1.9658,3.37 -5.055,5.5605 -3.0892,2.2467 -7.3578,3.37 -4.2125,1.1233 -9.6045,1.1233 -4.6618,0 -8.5373,-0.95483 -3.8193,-0.89867 -6.1221,-2.1905 -0.8425,-0.56166 -1.1795,-1.1233 -0.28083,-0.50549 -0.28083,-1.348 0,-0.337 0,-0.95483 0.0562,-0.61783 0.1685,-1.2357 0.1685,-0.61783 0.337,-1.2918 0.22466,-0.67399 0.50549,-1.2357 0.337,-0.5055 0.78634,-0.8425 0.44933,-0.28083 0.95483,-0.28083 0.67399,0 1.685,0.56167 1.011,0.61783 2.696,1.348 1.685,0.73017 4.1563,1.348 2.5275,0.61783 6.1783,0.61783 3.033,0 5.4482,-0.61783 2.4713,-0.61783 4.2686,-1.8535 1.8535,-1.2357 2.9768,-3.1453 1.1795,-1.9097 1.7412,-4.5495 0.95483,-5.1112 1.9097,-8.4811 0.95487,-3.3699 1.5727,-5.2235 -0.89866,2.0782 -2.8645,4.2125 -1.9658,2.0782 -4.5495,3.8755 -2.5837,1.7412 -5.6728,2.8645 -3.0892,1.0672 -6.2906,1.0672 -4.2125,0 -7.1332,-1.4042 -2.9206,-1.4042 -4.718,-3.8193 -1.7412,-2.4713 -2.5275,-5.7852 -0.78634,-3.37 -0.78634,-7.2455 0,-3.2576 0.61784,-7.3016 0.61783,-4.1002 1.9658,-8.2003 1.348,-4.1563 3.4262,-8.0318 2.1343,-3.9317 5.1112,-6.9646 2.9768,-3.0892 6.8523,-4.9426 3.9316,-1.8535 8.8743,-1.8535 4.9988,0 8.5373,2.022 3.5947,2.022 6.403,5.5605 l 1.0672,-5.1112 q 0.22466,-0.89866 1.2918,-1.2918 1.0672,-0.39316 3.3138,-0.39316 1.1233,0 1.8535,0.11233 0.78634,0.0562 1.2357,0.28083 0.44933,0.22467 0.56166,0.56167 0.11234,0.337 0.0562,0.73016 z m -0.89866,-41.339 q -2.6398,-3.8755 -5.729,-5.7852 -3.033,-1.9658 -6.8523,-1.9658 -3.033,0 -5.4482,1.4042 -2.4152,1.4042 -4.3248,3.7632 -1.8535,2.3028 -3.2577,5.3358 -1.4042,3.033 -2.3028,6.2345 -0.84249,3.1453 -1.2918,6.2906 -0.39317,3.0892 -0.39317,5.6166 0,2.4152 0.39317,4.4372 0.44933,2.022 1.348,3.4823 0.95483,1.4042 2.4152,2.2467 1.5165,0.8425 3.6508,0.8425 3.0892,0 6.1783,-1.685 3.1453,-1.7412 5.8413,-4.7742 2.696,-3.033 4.7742,-7.1331 2.0782,-4.1563 3.0892,-9.0428 z"
         id="path28"
         style="stroke-width:1.74867;fill:#232323;fill-opacity:1" />
      <path
         d="m 454.95,710.65 q -0.0562,0.44933 -0.337,0.78633 -0.28083,0.337 -0.78633,0.56167 -0.5055,0.1685 -1.348,0.28083 -0.78633,0.11233 -1.9658,0.11233 -1.1233,0 -1.9097,-0.11233 -0.73016,-0.11233 -1.1795,-0.28083 -0.39317,-0.22467 -0.56167,-0.56167 -0.11233,-0.337 0,-0.78633 l 1.8535,-9.4921 q -0.89867,1.9097 -2.8645,4.044 -1.9097,2.0782 -4.5495,3.8755 -2.5837,1.7973 -5.729,2.9207 -3.0892,1.1233 -6.2906,1.1233 -3.8193,0 -6.4592,-1.0672 -2.5837,-1.011 -4.2125,-2.8083 -1.5727,-1.8535 -2.3028,-4.3248 -0.67399,-2.5275 -0.67399,-5.5043 0,-1.8535 0.22466,-3.7632 0.28083,-1.9658 0.674,-3.9317 l 6.2345,-31.678 q 0.11233,-0.39316 0.39317,-0.73016 0.28083,-0.337 0.84249,-0.56167 0.61784,-0.22466 1.5165,-0.28083 0.95483,-0.11233 2.3028,-0.11233 1.348,0 2.1905,0.11233 0.89866,0.0562 1.348,0.28083 0.5055,0.22467 0.61783,0.56167 0.1685,0.337 0.11233,0.73016 l -6.1783,31.341 q -0.337,1.4603 -0.5055,3.033 -0.1685,1.5727 -0.1685,3.2015 0,1.685 0.28083,3.0892 0.337,1.348 1.0672,2.359 0.78633,1.011 1.9658,1.5727 1.2357,0.56166 2.9768,0.56166 2.9768,0 6.066,-1.685 3.1453,-1.7412 5.8413,-4.7742 2.696,-3.033 4.7742,-7.1893 2.1343,-4.2125 3.1453,-9.1551 l 4.4372,-22.354 q 0.0562,-0.39316 0.33699,-0.73016 0.337,-0.337 0.89867,-0.56167 0.61783,-0.22466 1.5165,-0.28083 0.95484,-0.11233 2.3028,-0.11233 1.348,0 2.1905,0.11233 0.89867,0.0562 1.348,0.28083 0.5055,0.22467 0.61783,0.56167 0.1685,0.337 0.11234,0.73016 z"
         id="path30"
         style="stroke-width:1.74867;fill:#232323;fill-opacity:1" />
      <path
         d="m 495.95,643.08 q -0.28084,1.5727 -0.78633,2.6398 -0.44934,1.0672 -1.2357,1.7412 -0.78633,0.61783 -1.9658,0.89866 -1.1795,0.28083 -2.8645,0.28083 -1.6288,0 -2.696,-0.28083 -1.0672,-0.28083 -1.5727,-0.89866 -0.5055,-0.674 -0.56167,-1.7412 -0.0562,-1.0672 0.22467,-2.6398 0.337,-1.5727 0.8425,-2.5837 0.5055,-1.0672 1.2357,-1.7412 0.78633,-0.73017 1.9658,-0.95483 1.1795,-0.28084 2.8645,-0.28084 1.6288,0 2.6398,0.28084 1.0672,0.22466 1.5727,0.95483 0.56166,0.674 0.61783,1.7412 0.0562,1.011 -0.28083,2.5837 z m -14.547,67.568 q -0.11233,0.44933 -0.39316,0.78633 -0.28084,0.28084 -0.8425,0.5055 -0.56167,0.22467 -1.5165,0.337 -0.89866,0.11233 -2.2467,0.11233 -1.4042,0 -2.3028,-0.11233 -0.8425,-0.11233 -1.348,-0.337 -0.44933,-0.22466 -0.61783,-0.5055 -0.11233,-0.337 0,-0.78633 l 10.054,-50.55 q 0.0562,-0.39317 0.337,-0.73017 0.28084,-0.33699 0.8425,-0.56166 0.56167,-0.22467 1.4603,-0.337 0.95483,-0.11233 2.359,-0.11233 1.348,0 2.1905,0.11233 0.89866,0.11233 1.348,0.337 0.5055,0.22467 0.61783,0.56166 0.1685,0.337 0.11234,0.73017 z"
         id="path32"
         style="stroke-width:1.74867;fill:#232323;fill-opacity:1" />
      <path
         d="m 540.55,710.65 q -0.1685,0.95483 -1.1795,1.348 -1.011,0.39316 -3.37,0.39316 -1.1795,0 -1.9097,-0.11233 -0.73017,-0.11233 -1.1795,-0.28083 -0.44933,-0.22467 -0.61783,-0.5055 -0.11233,-0.337 0,-0.8425 l 1.7973,-9.436 q -0.73017,1.8535 -2.6398,3.9878 -1.9097,2.0782 -4.5495,3.8755 -2.5837,1.7412 -5.7852,2.9207 -3.2015,1.1233 -6.5153,1.1233 -3.3138,0 -5.7852,-0.89867 -2.4152,-0.84249 -4.1002,-2.3028 -1.6288,-1.4603 -2.696,-3.37 -1.011,-1.9658 -1.6288,-3.9878 -0.56167,-2.0782 -0.78633,-4.1563 -0.1685,-2.0782 -0.1685,-3.8193 0,-3.2577 0.61783,-7.3016 0.61783,-4.044 1.9658,-8.088 1.348,-4.1002 3.4262,-7.9756 2.1343,-3.9317 5.1112,-6.9085 2.9768,-3.033 6.8523,-4.8865 3.9316,-1.8535 8.8743,-1.8535 2.4152,0 4.5495,0.56166 2.1343,0.5055 3.8755,1.4603 1.7412,0.89866 3.2015,2.1905 1.4603,1.29184 2.6398,2.696 l 5.729,-28.645 q 0.0562,-0.39317 0.337,-0.73017 0.28083,-0.39316 0.8425,-0.56166 0.56166,-0.22467 1.4603,-0.337 0.89866,-0.1685 2.3028,-0.1685 1.348,0 2.1905,0.1685 0.89866,0.11233 1.4042,0.337 0.5055,0.1685 0.61783,0.56166 0.1685,0.337 0.0562,0.73017 z m -1.7973,-37.182 q -2.6398,-3.8755 -5.729,-5.8975 -3.033,-2.022 -6.8523,-2.022 -2.9768,0 -5.392,1.4042 -2.359,1.348 -4.2687,3.6508 -1.9097,2.3028 -3.3138,5.2796 -1.348,2.9768 -2.2467,6.1783 -0.89867,3.1453 -1.348,6.2345 -0.44933,3.0892 -0.44933,5.6728 0,5.4482 1.8535,8.3688 1.8535,2.8645 5.9536,2.8645 3.0892,0 6.1783,-1.685 3.1453,-1.685 5.8413,-4.6618 2.696,-2.9768 4.7742,-7.077 2.0782,-4.1002 3.0892,-8.9866 z"
         id="path34"
         style="stroke-width:1.74867;fill:#232323;fill-opacity:1" />
      <path
         d="m 605.98,670.44 q 0,3.8755 -1.7973,6.9646 -1.7973,3.0891 -5.6166,5.2796 -3.8193,2.1905 -9.773,3.37 -5.9536,1.1795 -14.266,1.1795 h -5.9536 q -0.39317,1.8535 -0.56167,3.5947 -0.11233,1.7412 -0.11233,3.2576 0,5.6166 2.7522,8.5935 2.8083,2.9768 9.0428,2.9768 3.5946,0 6.4591,-0.5055 2.8645,-0.56166 4.9427,-1.1795 2.1343,-0.61783 3.4823,-1.1233 1.348,-0.56167 1.8535,-0.56167 0.5055,0 0.73017,0.39317 0.28083,0.337 0.28083,1.011 0,0.56166 -0.11233,1.348 -0.11233,0.78634 -0.337,1.6288 -0.22467,0.78633 -0.61783,1.5165 -0.337,0.73016 -0.78633,1.2357 -0.674,0.674 -2.4152,1.348 -1.685,0.61783 -4.044,1.1795 -2.359,0.5055 -5.1673,0.8425 -2.8083,0.337 -5.6166,0.337 -4.9988,0 -8.762,-1.1233 -3.7632,-1.1233 -6.2906,-3.4262 -2.4713,-2.359 -3.707,-5.8413 -1.2357,-3.4823 -1.2357,-8.2003 0,-3.6508 0.67399,-7.8072 0.73017,-4.2125 2.2467,-8.3126 1.5165,-4.1002 3.9317,-7.8633 2.4152,-3.7632 5.729,-6.6276 3.37,-2.8645 7.751,-4.6056 4.381,-1.7411 9.8853,-1.7412 4.718,0 7.9756,1.1795 3.3138,1.1795 5.392,3.033 2.1343,1.8535 3.0892,4.1563 0.95483,2.2467 0.95483,4.4933 z m -9.4921,0.84249 q 0,-2.8645 -2.2467,-4.6056 -2.2467,-1.7973 -6.403,-1.7973 -3.6508,0 -6.4592,1.2918 -2.8083,1.2357 -4.9988,3.37 -2.1343,2.1343 -3.707,4.9988 -1.5165,2.8083 -2.4713,5.9536 h 5.729 q 5.8975,0 9.8291,-0.73016 3.9878,-0.73017 6.3468,-1.9658 2.4152,-1.2918 3.37,-2.9768 1.011,-1.685 1.011,-3.5385 z"
         id="path36"
         style="stroke-width:1.74867;fill:#232323;fill-opacity:1" />
    </g>
  </g>
</svg>
