<?xml version="1.0" encoding="UTF-8" standalone="no"?>
<!-- Created with Inkscape (http://www.inkscape.org/) -->

<svg
   version="1.1"
   id="svg761"
   width="763.15424"
   height="104.58406"
   viewBox="0 0 763.15423 104.58406"
   xml:space="preserve"
   xmlns="http://www.w3.org/2000/svg"
   xmlns:svg="http://www.w3.org/2000/svg"><defs
     id="defs765" /><g
     id="layer2"
     transform="translate(111.70191,34.960139)"><path
       id="rect732"
       style="fill:#ffc26d;stroke-width:1.51181;stroke-linejoin:round"
       d="M -26.784443,8.9137192 H 5.4285507 V 41.126713 H -26.784443 Z" /><path
       id="rect2317"
       style="fill:#ff9b54;stroke-width:1.51181;stroke-linejoin:round"
       d="M 8.6327496,8.9137192 H 40.845743 V 41.126713 H 8.6327496 Z" /><path
       id="rect2321"
       style="fill:#ce4257;stroke-width:1.51181;stroke-linejoin:round"
       d="M 44.049953,8.9137192 H 76.262947 V 41.126713 H 44.049953 Z" /><path
       id="rect2323"
       style="fill:#720026;stroke-width:1.51181;stroke-linejoin:round"
       d="M 79.467155,8.9137192 H 111.68015 V 41.126713 H 79.467155 Z" /><path
       id="rect2325"
       style="fill:#4f000b;stroke-width:1.51181;stroke-linejoin:round"
       d="m 114.88436,8.9137192 h 32.21299 V 41.126713 h -32.21299 z" /><path
       id="rect3224"
       style="fill:#aaaaaa;stroke-width:1.51181;stroke-linejoin:round"
       d="m 150.30156,8.9137192 h 32.21299 V 41.126713 h -32.21299 z" /><path
       id="rect3226"
       style="fill:#aaaaaa;stroke-width:1.51181;stroke-linejoin:round"
       d="m 185.71877,8.9137192 h 32.21299 V 41.126713 h -32.21299 z" /><path
       id="rect3230"
       style="fill:#aaaaaa;stroke-width:1.51181;stroke-linejoin:round"
       d="m 221.13597,8.9137192 h 32.21299 V 41.126713 h -32.21299 z" /><g
       id="g2047"
       transform="matrix(5.0393688,0,0,5.0393688,-124.55654,-98.685711)"
       style="stroke:#000000;stroke-opacity:1"><path
         style="opacity:1;fill:none;fill-opacity:1;stroke:#000000;stroke-width:0.45;stroke-linejoin:round;stroke-dasharray:none;stroke-opacity:1"
         d="M 145.46869,28.471916 H 18.673774 l -1e-6,-7.848028 H 145.46869"
         id="path1936" /><path
         style="opacity:1;fill:none;fill-opacity:1;stroke:#000000;stroke-width:0.45;stroke-linejoin:round;stroke-dasharray:none;stroke-opacity:1"
         d="m 149.72899,28.471916 h -2.2983 m 0,-7.848028 h 2.2983"
         id="path2036" /><path
         style="opacity:1;fill:none;fill-opacity:1;stroke:#000000;stroke-width:0.45;stroke-linejoin:round;stroke-dasharray:none;stroke-opacity:1"
         d="m 153.9893,28.471916 h -2.2983 m 0,-7.848028 h 2.2983"
         id="path2042" /></g><path
       style="fill:none;stroke:#000000;stroke-width:1.51181;stroke-linejoin:round;stroke-dasharray:none;stroke-opacity:1"
       d="m -10.842536,54.726126 v 7.994571 H 325.62198 v -7.994571"
       id="path1632" /><path
       style="font-style:italic;font-size:22.8114px;line-height:1.25;font-family:'Segoe UI';-inkscape-font-specification:'Segoe UI Italic';letter-spacing:0px;word-spacing:0px;fill:#090909;stroke-width:1.28609"
       d="m -98.139097,24.509902 q 0,0.75741 -0.155937,1.626204 -0.155937,0.857655 -0.501227,1.71531 -0.34529,0.846517 -0.879932,1.637342 -0.534647,0.790824 -1.292047,1.392297 -0.74628,0.601472 -1.73759,0.969039 -0.98018,0.356428 -2.22768,0.356428 -0.51236,0 -1.05814,-0.07797 -0.54578,-0.06683 -1.06929,-0.200491 -0.5235,-0.13366 -1.00245,-0.323013 -0.47895,-0.189352 -0.8688,-0.434396 l 3.43062,-16.128373 h 1.84898 l -1.14726,5.457806 q -0.12252,0.545781 -0.25618,1.147253 -0.12252,0.601472 -0.24504,1.069284 h 0.0223 q 0.35643,-0.568057 0.75741,-1.024731 0.40098,-0.456673 0.85766,-0.779686 0.46781,-0.323013 0.99131,-0.490089 0.53465,-0.178214 1.15839,-0.178214 1.626208,0 2.495001,1.113838 0.879932,1.113838 0.879932,3.152161 z m -1.871243,0.04455 q 0,-0.634888 -0.12253,-1.147253 -0.11138,-0.512366 -0.36756,-0.868794 -0.24505,-0.356428 -0.63489,-0.54578 -0.38984,-0.189353 -0.94676,-0.189353 -0.70172,0 -1.34775,0.41212 -0.64602,0.41212 -1.18066,1.091561 -0.53465,0.679441 -0.92449,1.537097 -0.38984,0.857655 -0.56806,1.748725 l -0.74627,3.553143 q 0.37871,0.211629 0.94676,0.356428 0.5792,0.144799 1.19181,0.144799 0.79082,0 1.44799,-0.256183 0.65716,-0.267321 1.18067,-0.723994 0.5235,-0.456674 0.91334,-1.058146 0.38985,-0.601473 0.64603,-1.269776 0.25618,-0.679441 0.37871,-1.392297 0.13366,-0.723995 0.13366,-1.392297 z m 13.098729,4.132338 q -0.100245,0.434397 -0.189352,0.902209 -0.07797,0.467812 -0.155937,0.902209 -0.07797,0.434396 -0.133661,0.813101 -0.05569,0.378705 -0.08911,0.623749 h -1.782141 q 0.05569,-0.434396 0.122523,-0.902208 0.07797,-0.478951 0.144799,-0.879932 0.07797,-0.467812 0.144798,-0.913347 h -0.04455 q -0.389843,0.612611 -0.868794,1.158391 -0.467811,0.534642 -1.02473,0.946762 -0.545781,0.400982 -1.16953,0.634888 -0.612611,0.233906 -1.280914,0.233906 -0.735133,0 -1.292052,-0.233906 -0.54578,-0.222768 -0.913347,-0.634888 -0.367566,-0.41212 -0.556919,-0.991315 -0.178214,-0.579196 -0.178214,-1.292052 0,-0.144799 0.04455,-0.434397 0.04455,-0.289598 0.100245,-0.623749 0.05569,-0.334152 0.122522,-0.657165 0.07797,-0.334151 0.122523,-0.568057 l 1.325467,-6.24863 h 1.848971 l -1.414575,6.683027 q -0.04455,0.178214 -0.08911,0.41212 -0.04455,0.233906 -0.08911,0.467812 -0.03341,0.233906 -0.05569,0.434397 -0.02228,0.189352 -0.02228,0.300736 0,0.835378 0.400981,1.336605 0.41212,0.490089 1.225222,0.490089 0.490089,0 0.980177,-0.200491 0.490089,-0.200491 0.946762,-0.534642 0.467812,-0.34529 0.879932,-0.790825 0.41212,-0.456674 0.746272,-0.957901 0.334151,-0.512365 0.568057,-1.047007 0.233906,-0.534642 0.34529,-1.024731 l 1.191806,-5.569189 h 1.837833 z m 11.539362,-12.06286 q -0.111384,-0.05569 -0.267321,-0.100245 -0.155938,-0.05569 -0.334152,-0.100246 -0.178214,-0.04455 -0.378705,-0.06683 -0.189352,-0.03341 -0.367566,-0.03341 -0.913347,0 -1.414574,0.601472 -0.490089,0.590334 -0.746272,1.771003 l -0.41212,1.826694 h 2.695488 l -0.367567,1.548234 h -2.695487 l -2.918255,13.644514 h -1.848971 l 2.940532,-13.644514 h -1.960355 l 0.34529,-1.548234 h 1.960355 l 0.456673,-2.116292 q 0.211629,-0.980178 0.590334,-1.670757 0.378705,-0.69058 0.902209,-1.124976 0.523504,-0.434397 1.180668,-0.634888 0.668303,-0.200491 1.459128,-0.200491 0.41212,0 0.801963,0.06683 0.400981,0.06683 0.679441,0.155937 z m 7.184253,0 q -0.111383,-0.05569 -0.267321,-0.100245 -0.155937,-0.05569 -0.334151,-0.100246 -0.178214,-0.04455 -0.378705,-0.06683 -0.189352,-0.03341 -0.367566,-0.03341 -0.913348,0 -1.414575,0.601472 -0.490088,0.590334 -0.746271,1.771003 l -0.41212,1.826694 h 2.695488 l -0.367567,1.548234 h -2.695487 l -2.918256,13.644514 h -1.848971 l 2.940532,-13.644514 h -1.960354 l 0.34529,-1.548234 h 1.960354 l 0.456674,-2.116292 q 0.211629,-0.980178 0.590334,-1.670757 0.378705,-0.69058 0.902208,-1.124976 0.523504,-0.434397 1.180669,-0.634888 0.668302,-0.200491 1.459127,-0.200491 0.41212,0 0.801963,0.06683 0.400982,0.06683 0.679442,0.155937 z m 8.231262,6.571644 q 0,0.902208 -0.400981,1.64848 -0.400982,0.735133 -1.325467,1.269775 -0.924486,0.523504 -2.439305,0.813101 -1.51482,0.289598 -3.742495,0.300737 -0.02228,0.122522 -0.02228,0.256182 0,0.122523 0,0.222768 0,0.601472 0.167076,1.136115 0.167075,0.534642 0.512365,0.935623 0.356428,0.400982 0.902209,0.634888 0.556919,0.233906 1.314328,0.233906 0.768548,0 1.681896,-0.289598 0.924485,-0.300736 1.759863,-0.846517 l -0.345289,1.804418 q -0.612611,0.356428 -1.459128,0.623749 -0.846517,0.267321 -1.893524,0.267321 -1.258637,0 -2.127431,-0.389843 -0.857655,-0.389844 -1.392297,-1.03587 -0.523504,-0.657164 -0.75741,-1.503681 -0.233906,-0.857655 -0.233906,-1.793279 0,-1.002454 0.222768,-1.926939 0.222767,-0.935624 0.623749,-1.737587 0.41212,-0.801963 0.980177,-1.459128 0.568058,-0.668303 1.258637,-1.136114 0.69058,-0.467812 1.481405,-0.723995 0.790824,-0.256183 1.637341,-0.256183 0.879932,0 1.548235,0.233906 0.679441,0.233906 1.124976,0.646026 0.456674,0.400982 0.69058,0.935624 0.233905,0.534642 0.233905,1.136115 z m -1.860109,0.08911 q 0,-0.701718 -0.523504,-1.091561 -0.512365,-0.389844 -1.37002,-0.389844 -0.679441,0 -1.314329,0.300736 -0.634887,0.289598 -1.16953,0.813102 -0.534642,0.512366 -0.924485,1.23636 -0.389843,0.712856 -0.568057,1.548235 1.592788,0 2.706626,-0.155938 1.113838,-0.167075 1.815555,-0.47895 0.701718,-0.311874 1.024731,-0.75741 0.323013,-0.456673 0.323013,-1.02473 z m 10.826502,-0.82424 h -0.04455 q -0.222768,-0.133661 -0.590334,-0.256183 -0.356429,-0.133661 -0.712857,-0.133661 -0.646026,0 -1.23636,0.423259 -0.590334,0.41212 -1.080422,1.102699 -0.478951,0.679441 -0.846517,1.559373 -0.356428,0.879932 -0.556919,1.804418 l -1.069284,4.967716 h -1.826695 l 1.603927,-7.574097 q 0.100245,-0.467812 0.200491,-0.980177 0.100245,-0.512366 0.178214,-1.024731 0.08911,-0.512366 0.155937,-0.980178 0.06683,-0.467811 0.100246,-0.846516 h 1.804417 q -0.03341,0.334151 -0.07797,0.712856 -0.04455,0.367566 -0.08911,0.723995 -0.04455,0.345289 -0.08911,0.634887 -0.04455,0.27846 -0.06683,0.434397 h 0.04455 q 0.356429,-0.634888 0.723995,-1.147253 0.367567,-0.512366 0.768548,-0.868794 0.41212,-0.367566 0.868794,-0.568057 0.456673,-0.200491 0.991315,-0.200491 0.311875,0 0.612611,0.06683 0.311875,0.05569 0.556919,0.122522 z"
       id="text4998"
       transform="scale(1.0000531,0.9999469)"
       aria-label="buffer" /><path
       style="font-style:italic;font-size:22.8114px;line-height:1.25;font-family:'Charter ITC TT';-inkscape-font-specification:'Charter ITC TT Italic';letter-spacing:0px;word-spacing:0px;fill:#090909;stroke-width:1.28609"
       d="m -6.4458643,20.744408 q 0,0.661531 -0.4334166,1.072136 -0.4334166,0.387794 -1.14057,0.387794 h -0.114057 l -0.5930964,-1.231816 q -1.5739867,0.638719 -2.3039517,1.551175 -0.729964,0.912456 -1.026513,2.646123 l -0.935267,5.360679 h -1.916158 l 1.893347,-9.329863 -1.870535,-0.342171 V 20.28818 l 3.376087,-0.752776 h 0.456228 l -0.729965,3.125162 q 2.3267629,-3.147973 4.1288635,-3.147973 0.5246622,0 0.8668332,0.364982 0.342171,0.342171 0.342171,0.866833 z"
       id="text5002"
       transform="scale(1.0000531,0.9999469)"
       aria-label="r" /><path
       style="font-size:14.964px;line-height:1.25;font-family:'Segoe UI';-inkscape-font-specification:'Segoe UI';text-align:end;letter-spacing:0px;word-spacing:0px;text-anchor:end;fill:#090909;stroke-width:1.28609"
       d="m 337.70675,62.815138 v -1.285969 q 0.97909,0.723358 2.15546,0.723358 1.57823,0 1.57823,-1.052157 0,-0.299572 -0.13882,-0.504158 -0.13152,-0.211892 -0.36534,-0.372639 -0.2265,-0.160746 -0.54069,-0.284959 -0.30688,-0.131519 -0.6649,-0.270345 -0.49685,-0.19728 -0.8768,-0.394559 -0.37264,-0.204586 -0.62837,-0.453012 -0.24842,-0.255732 -0.37994,-0.577224 -0.12422,-0.321492 -0.12422,-0.752584 0,-0.526078 0.24112,-0.927943 0.24112,-0.409172 0.64299,-0.679518 0.40186,-0.277652 0.91333,-0.416479 0.51877,-0.138826 1.06677,-0.138826 0.97178,0 1.73898,0.336106 v 1.212902 q -0.82565,-0.540691 -1.89973,-0.540691 -0.33611,0 -0.60645,0.08037 -0.27035,0.07307 -0.46763,0.211892 -0.18997,0.138826 -0.29957,0.336106 -0.10229,0.189972 -0.10229,0.423785 0,0.292266 0.10229,0.489545 0.1096,0.197279 0.31419,0.350719 0.20458,0.153439 0.49685,0.277652 0.29226,0.124213 0.6649,0.270346 0.49685,0.189972 0.89141,0.394558 0.39456,0.19728 0.67221,0.453012 0.27766,0.248426 0.42379,0.577225 0.15344,0.328798 0.15344,0.78181 0,0.555305 -0.24843,0.964477 -0.24112,0.409171 -0.65029,0.679517 -0.40917,0.270346 -0.94256,0.401865 -0.53338,0.13152 -1.11791,0.13152 -1.15445,0 -2.00202,-0.445705 z m 10.27314,0.197279 q -0.42379,0.233813 -1.11792,0.233813 -1.96549,0 -1.96549,-2.191993 v -4.427824 h -1.28597 v -1.022929 h 1.28597 v -1.82666 l 1.19829,-0.387252 v 2.213912 h 1.88512 v 1.022929 h -1.88512 v 4.215932 q 0,0.752584 0.25574,1.074076 0.25573,0.321492 0.84757,0.321492 0.45301,0 0.78181,-0.248426 z m 5.5019,-6.196031 q -0.31419,-0.241119 -0.90603,-0.241119 -0.76719,0 -1.28597,0.723357 -0.51146,0.723358 -0.51146,1.972793 v 3.814067 h -1.19829 v -7.482 h 1.19829 v 1.541701 h 0.0292 q 0.25573,-0.789117 0.78181,-1.227516 0.52607,-0.445705 1.17636,-0.445705 0.46763,0 0.71606,0.102293 z m 1.91434,-3.112629 q -0.3215,0 -0.548,-0.219199 -0.22651,-0.219199 -0.22651,-0.555305 0,-0.336105 0.22651,-0.555304 0.2265,-0.226506 0.548,-0.226506 0.3288,0 0.5553,0.226506 0.23381,0.219199 0.23381,0.555304 0,0.321492 -0.23381,0.547998 -0.2265,0.226506 -0.5553,0.226506 z m 0.58453,9.381727 h -1.19829 v -7.482 h 1.19829 z m 8.81181,0 h -1.19829 v -1.271356 h -0.0292 q -0.83296,1.446715 -2.57194,1.446715 -1.41018,0 -2.25775,-1.00101 -0.84026,-1.008316 -0.84026,-2.73999 0,-1.855887 0.93525,-2.973803 0.93525,-1.117916 2.49156,-1.117916 1.5417,0 2.24314,1.212903 h 0.0292 v -4.63241 h 1.19829 z m -1.19829,-3.382975 v -1.103303 q 0,-0.906023 -0.59915,-1.534394 -0.59914,-0.628371 -1.51978,-0.628371 -1.096,0 -1.72437,0.80373 -0.62837,0.803731 -0.62837,2.221219 0,1.293275 0.59915,2.045859 0.60645,0.745278 1.62207,0.745278 1.00101,0 1.62208,-0.723358 0.62837,-0.723357 0.62837,-1.82666 z m 9.63746,-0.05845 h -5.28271 q 0.0292,1.249435 0.67222,1.928953 0.64298,0.679518 1.7682,0.679518 1.26405,0 2.32351,-0.832957 v 1.125222 q -0.98639,0.716051 -2.60847,0.716051 -1.58554,0 -2.49156,-1.015623 -0.90602,-1.02293 -0.90602,-2.87151 0,-1.746287 0.98639,-2.842283 0.99371,-1.103303 2.46234,-1.103303 1.46864,0 2.27237,0.949864 0.80373,0.949863 0.80373,2.637697 z m -1.22752,-1.015623 q -0.007,-1.037543 -0.50416,-1.614768 -0.48954,-0.577224 -1.36634,-0.577224 -0.84757,0 -1.43941,0.606451 -0.59184,0.606451 -0.73066,1.585541 z"
       id="text2812"
       transform="scale(1.0000531,0.9999469)"
       aria-label="stride" /><path
       style="font-style:italic;font-size:22.8114px;line-height:1.25;font-family:'Charter ITC TT';-inkscape-font-specification:'Charter ITC TT Italic';letter-spacing:0px;word-spacing:0px;fill:#090909;stroke-width:1.28609"
       d="m 30.566246,18.577325 h -2.349574 q 0.296548,0.821211 0.296548,1.551175 0,1.345873 -0.729964,2.395197 -0.729965,1.049325 -1.984592,1.528364 -0.866833,0.31936 -2.189895,0.31936 -0.296548,0.524662 -0.296548,1.345872 l 3.627013,1.642421 q 1.779289,0.798399 1.779289,2.212706 0,1.391495 -1.642421,2.418008 -1.642421,1.026513 -3.877938,1.026513 -1.96178,0 -3.125161,-0.82121 -1.163382,-0.821211 -1.163382,-2.212706 0,-2.007403 3.033916,-3.170785 -0.02281,-0.182491 -0.02281,-0.387793 0,-1.049325 0.912456,-2.212706 -2.098649,-0.889645 -2.098649,-2.828614 0,-1.8021 1.30025,-3.079539 1.30025,-1.277438 3.125162,-1.277438 0.958078,0 2.144271,0.570285 h 3.26203 z m -3.855126,1.391496 q 0,-2.098649 -1.551175,-2.098649 -1.049325,0 -1.847724,1.163381 -0.775587,1.14057 -0.775587,2.623311 0,1.96178 1.505552,1.96178 1.072136,0 1.870535,-1.094947 0.798399,-1.094947 0.798399,-2.554876 z m 0.273737,10.105449 q 0,-0.866833 -1.30025,-1.459929 l -2.897048,-1.345873 q -2.075837,0.547474 -2.075837,2.258329 0,1.14057 0.866833,1.824912 0.866833,0.707153 2.258328,0.707153 1.323062,0 2.235518,-0.570285 0.912456,-0.570285 0.912456,-1.414307 z"
       id="text960"
       transform="scale(1.0000531,0.9999469)"
       aria-label="g" /><path
       style="font-style:italic;font-size:22.8114px;line-height:1.25;font-family:'Charter ITC TT';-inkscape-font-specification:'Charter ITC TT Italic';letter-spacing:0px;word-spacing:0px;fill:#ffffff;stroke-width:1.28609"
       d="m 65.023487,26.241954 q 0,3.056728 -1.847724,5.178188 -1.824912,2.098649 -4.493845,2.098649 -1.642421,0 -3.398899,-1.003702 L 57.951953,18.143907 55.967361,17.801736 V 17.20864 l 3.467333,-0.684342 h 0.752776 q -0.342171,1.094947 -0.524662,2.098649 l -0.98089,5.360679 q 2.075837,-1.688044 3.398898,-1.688044 1.323061,0 2.12146,1.094947 0.821211,1.094947 0.821211,2.851425 z m -1.870535,0.182491 q 0,-1.277438 -0.524662,-2.007403 -0.501851,-0.729965 -1.391496,-0.729965 -0.958078,0 -2.714556,1.186193 l -1.30025,6.797797 q 0.98089,0.912456 2.007403,0.912456 1.528364,0 2.714557,-1.870535 1.209004,-1.870534 1.209004,-4.288543 z"
       id="text961"
       transform="scale(1.0000531,0.9999469)"
       aria-label="b" /><path
       style="font-style:italic;font-size:22.8114px;line-height:1.25;font-family:'Charter ITC TT';-inkscape-font-specification:'Charter ITC TT Italic';letter-spacing:0px;word-spacing:0px;fill:#ffffff;stroke-width:1.28609"
       d="m 100.94067,29.834752 q -1.984593,0.798399 -2.874237,0.798399 -1.323061,0 -1.323061,-1.916157 -1.847724,1.916157 -3.467333,1.916157 -1.414307,0 -2.258329,-1.072135 -0.82121,-1.072136 -0.82121,-2.919859 0,-3.011105 1.824912,-5.109754 1.824912,-2.12146 4.448223,-2.12146 1.163381,0 2.235517,0.524662 l 0.456228,-0.501851 h 1.18619 q -0.36498,0.729965 -0.86683,3.26203 l -0.821211,4.037618 q -0.228114,1.117759 -0.228114,1.619609 0,1.026513 1.163382,1.026513 0.342171,0 1.345873,-0.228114 z M 97.952376,21.713894 97.03992,20.322399 q -0.15968,-0.02281 -0.364983,-0.02281 -1.96178,0 -3.284841,1.77929 -1.323061,1.756477 -1.323061,4.4026 0,2.760179 1.96178,2.760179 1.254627,0 2.737368,-1.505552 z"
       id="text962"
       transform="scale(1.0000531,0.9999469)"
       aria-label="a" /><path
       style="font-style:italic;font-size:22.8114px;line-height:1.25;font-family:'Charter ITC TT';-inkscape-font-specification:'Charter ITC TT Italic';letter-spacing:0px;word-spacing:0px;fill:#ffffff;stroke-width:1.28609"
       d="m 134.31437,21.919194 h -3.46733 l -1.18619,6.090644 q -0.13687,0.707153 -0.13687,1.049324 0,1.345873 1.39149,1.345873 0.84403,0 2.16709,-0.433417 v 0.729965 q -2.34958,1.003702 -3.58139,1.003702 -1.84773,0 -1.84773,-2.053026 0,-0.63872 0.18249,-1.551176 l 1.23182,-6.181889 -1.41431,0.114057 v -0.684342 l 1.66524,-0.729965 1.14057,-2.28114 h 1.04932 l -0.47904,2.6005 h 3.28484 z"
       id="text963"
       transform="scale(1.0000531,0.9999469)"
       aria-label="t" /><path
       style="font-style:italic;font-size:22.8114px;line-height:1.25;font-family:'Charter ITC TT';-inkscape-font-specification:'Charter ITC TT Italic';letter-spacing:0px;word-spacing:0px;fill:#090909;stroke-width:1.28609"
       d="m 172.10207,31.684335 h -11.4057 v -1.323061 h 11.4057 z"
       id="text964"
       transform="scale(1.0000531,0.9999469)"
       aria-label="_" /><path
       style="font-style:italic;font-size:22.8114px;line-height:1.25;font-family:'Charter ITC TT';-inkscape-font-specification:'Charter ITC TT Italic';letter-spacing:0px;word-spacing:0px;fill:#090909;stroke-width:1.28609"
       d="m 207.51739,31.684335 h -11.4057 v -1.323061 h 11.4057 z"
       id="text965"
       transform="scale(1.0000531,0.9999469)"
       aria-label="_" /><path
       style="font-style:italic;font-size:22.8114px;line-height:1.25;font-family:'Charter ITC TT';-inkscape-font-specification:'Charter ITC TT Italic';letter-spacing:0px;word-spacing:0px;fill:#090909;stroke-width:1.28609"
       d="m 242.93271,31.684335 h -11.4057 v -1.323061 h 11.4057 z"
       id="text966"
       transform="scale(1.0000531,0.9999469)"
       aria-label="_" /><path
       style="fill:none;stroke:#000000;stroke-width:1.51181;stroke-linejoin:round;stroke-dasharray:none;stroke-opacity:1"
       d="M -10.842536,-7.0674094 V -15.061981 H 237.79528 v 7.9945716"
       id="path966" /><path
       style="font-size:14.964px;line-height:1.25;font-family:'Segoe UI';-inkscape-font-specification:'Segoe UI';text-align:end;letter-spacing:0px;word-spacing:0px;text-anchor:end;fill:#090909;stroke-width:1.28609"
       d="m -5.6843617,-31.648593 q -0.3507187,-0.197279 -0.7964238,-0.197279 -1.2567421,0 -1.2567421,1.585541 v 1.154449 h 1.7535937 v 1.02293 h -1.7535937 v 6.45907 H -8.92851 v -6.45907 h -1.278662 v -1.02293 h 1.278662 v -1.212902 q 0,-1.17637 0.6795175,-1.855887 0.6795176,-0.686824 1.6951406,-0.686824 0.5479981,0 0.8694902,0.131519 z m 1.6001543,0.642984 q -0.3214922,0 -0.547998,-0.219199 -0.2265059,-0.219199 -0.2265059,-0.555305 0,-0.336105 0.2265059,-0.555304 0.2265058,-0.226506 0.547998,-0.226506 0.3287988,0 0.5553047,0.226506 0.2338125,0.219199 0.2338125,0.555304 0,0.321493 -0.2338125,0.547998 -0.2265059,0.226506 -0.5553047,0.226506 z m 0.5845312,9.381727 h -1.198289 v -7.482 h 1.198289 z m 6.327551,-6.269098 q -0.3141855,-0.241119 -0.9060234,-0.241119 -0.7671972,0 -1.28596871,0.723357 -0.51146484,0.723358 -0.51146484,1.972793 v 3.814067 H -1.0738712 v -7.482 h 1.19828905 v 1.541701 h 0.0292266 q 0.25573242,-0.789117 0.78181054,-1.227516 0.52607811,-0.445705 1.17636911,-0.445705 0.467625,0 0.7160507,0.102293 z m 0.84757,5.998752 v -1.285969 q 0.9790899,0.723358 2.155459,0.723358 1.5782343,0 1.5782343,-1.052157 0,-0.299572 -0.1388261,-0.504158 -0.1315196,-0.211892 -0.3653321,-0.372638 -0.2265058,-0.160746 -0.5406914,-0.284959 -0.3068789,-0.13152 -0.6649043,-0.270346 -0.4968515,-0.197279 -0.8767968,-0.394559 -0.3726387,-0.204586 -0.6283711,-0.453011 -0.2484258,-0.255733 -0.3799453,-0.577225 -0.1242129,-0.321492 -0.1242129,-0.752584 0,-0.526078 0.2411191,-0.927943 0.2411192,-0.409172 0.6429844,-0.679518 0.4018652,-0.277652 0.9133301,-0.416478 0.5187714,-0.138827 1.0667695,-0.138827 0.9717832,0 1.7389804,0.336106 v 1.212902 q -0.8256504,-0.540691 -1.8997265,-0.540691 -0.3361055,0 -0.6064512,0.08037 -0.2703457,0.07307 -0.467625,0.211892 -0.1899726,0.138827 -0.2995722,0.336106 -0.102293,0.189973 -0.102293,0.423785 0,0.292266 0.102293,0.489545 0.1095996,0.197279 0.3141855,0.350719 0.204586,0.153439 0.4968516,0.277652 0.2922656,0.124213 0.6649043,0.270346 0.4968515,0.189972 0.8914101,0.394558 0.3945586,0.19728 0.6722109,0.453012 0.2776524,0.248426 0.4237852,0.577225 0.1534394,0.328798 0.1534394,0.78181 0,0.555305 -0.2484257,0.964477 -0.2411192,0.409172 -0.6502911,0.679517 -0.4091718,0.270346 -0.9425566,0.401866 -0.5333847,0.131519 -1.117916,0.131519 -1.1544492,0 -2.0020195,-0.445705 z m 10.2731372,0.197279 q -0.423785,0.233813 -1.117916,0.233813 -1.965486,0 -1.965486,-2.191992 v -4.427824 H 9.5792108 v -1.02293 H 10.86518 v -1.82666 l 1.198289,-0.387252 v 2.213912 h 1.885113 v 1.02293 h -1.885113 v 4.215931 q 0,0.752584 0.255732,1.074076 0.255732,0.321492 0.84757,0.321492 0.453012,0 0.781811,-0.248425 z m 6.312938,-9.30866 q -0.321493,0 -0.547998,-0.219199 -0.226506,-0.219199 -0.226506,-0.555305 0,-0.336105 0.226506,-0.555304 0.226505,-0.226506 0.547998,-0.226506 0.328798,0 0.555304,0.226506 0.233813,0.219199 0.233813,0.555304 0,0.321493 -0.233813,0.547998 -0.226506,0.226506 -0.555304,0.226506 z m 0.584531,9.381727 h -1.198289 v -7.482 h 1.198289 z m 8.636449,0 h -1.198289 v -4.267078 q 0,-2.381965 -1.73898,-2.381965 -0.898717,0 -1.490555,0.679517 -0.584531,0.672211 -0.584531,1.702448 v 4.267078 h -1.198289 v -7.482 h 1.198289 v 1.242129 h 0.02923 q 0.847571,-1.417489 2.455032,-1.417489 1.227515,0 1.877806,0.796424 0.650291,0.789117 0.650291,2.286979 z m 1.804739,-0.270346 v -1.285969 q 0.97909,0.723358 2.155459,0.723358 1.578235,0 1.578235,-1.052157 0,-0.299572 -0.138827,-0.504158 -0.131519,-0.211892 -0.365332,-0.372638 -0.226505,-0.160746 -0.540691,-0.284959 -0.306879,-0.13152 -0.664904,-0.270346 -0.496852,-0.197279 -0.876797,-0.394559 -0.372639,-0.204586 -0.628371,-0.453011 -0.248426,-0.255733 -0.379946,-0.577225 -0.124212,-0.321492 -0.124212,-0.752584 0,-0.526078 0.241119,-0.927943 0.241119,-0.409172 0.642984,-0.679518 0.401865,-0.277652 0.91333,-0.416478 0.518772,-0.138827 1.06677,-0.138827 0.971783,0 1.73898,0.336106 v 1.212902 q -0.82565,-0.540691 -1.899726,-0.540691 -0.336106,0 -0.606452,0.08037 -0.270345,0.07307 -0.467625,0.211892 -0.189972,0.138827 -0.299572,0.336106 -0.102293,0.189973 -0.102293,0.423785 0,0.292266 0.102293,0.489545 0.1096,0.197279 0.314186,0.350719 0.204586,0.153439 0.496851,0.277652 0.292266,0.124213 0.664905,0.270346 0.496851,0.189972 0.89141,0.394558 0.394558,0.19728 0.672211,0.453012 0.277652,0.248426 0.423785,0.577225 0.153439,0.328798 0.153439,0.78181 0,0.555305 -0.248426,0.964477 -0.241119,0.409172 -0.650291,0.679517 -0.409171,0.270346 -0.942556,0.401866 -0.533385,0.131519 -1.117916,0.131519 -1.154449,0 -2.00202,-0.445705 z m 10.273138,0.197279 q -0.423785,0.233813 -1.117916,0.233813 -1.965486,0 -1.965486,-2.191992 v -4.427824 h -1.285969 v -1.02293 h 1.285969 v -1.82666 l 1.198289,-0.387252 v 2.213912 h 1.885113 v 1.02293 h -1.885113 v 4.215931 q 0,0.752584 0.255732,1.074076 0.255733,0.321492 0.847571,0.321492 0.453011,0 0.78181,-0.248425 z m 6.955922,0.07307 H 47.31801 v -1.169063 h -0.02923 q -0.78181,1.344422 -2.301591,1.344422 -1.117916,0 -1.753594,-0.591838 -0.628371,-0.591838 -0.628371,-1.570928 0,-2.097005 2.469644,-2.440417 l 2.243139,-0.314186 q 0,-1.907033 -1.541701,-1.907033 -1.351729,0 -2.440418,0.920637 v -1.227516 q 1.103303,-0.701438 2.542711,-0.701438 2.637697,0 2.637697,2.791137 z m -1.198289,-3.78484 -1.80474,0.248426 q -0.832957,0.116906 -1.256742,0.416478 -0.423786,0.292266 -0.423786,1.04485 0,0.547998 0.387252,0.898717 0.394559,0.343412 1.04485,0.343412 0.89141,0 1.468635,-0.621065 0.584531,-0.628371 0.584531,-1.585541 z m 9.666684,3.78484 h -1.198289 v -4.267078 q 0,-2.381965 -1.738981,-2.381965 -0.898717,0 -1.490554,0.679517 -0.584532,0.672211 -0.584532,1.702448 v 4.267078 h -1.198289 v -7.482 h 1.198289 v 1.242129 h 0.02923 q 0.84757,-1.417489 2.455031,-1.417489 1.227516,0 1.877807,0.796424 0.650291,0.789117 0.650291,2.286979 z m 7.357789,-0.343412 q -0.862183,0.518771 -2.045859,0.518771 -1.600154,0 -2.586551,-1.037543 -0.97909,-1.044849 -0.97909,-2.703457 0,-1.84858 1.059463,-2.966496 1.059463,-1.125223 2.82767,-1.125223 0.986397,0 1.738981,0.365332 v 1.227516 q -0.832957,-0.584531 -1.782821,-0.584531 -1.147142,0 -1.885113,0.82565 -0.730664,0.818344 -0.730664,2.155459 0,1.315195 0.686824,2.075086 0.694131,0.759891 1.855887,0.759891 0.97909,0 1.841273,-0.650291 z m 7.825409,-3.098016 h -5.282701 q 0.02923,1.249436 0.672211,1.928953 0.642984,0.679518 1.768207,0.679518 1.264049,0 2.323512,-0.832957 v 1.125222 q -0.986397,0.716051 -2.608471,0.716051 -1.585541,0 -2.491564,-1.015623 -0.906024,-1.02293 -0.906024,-2.87151 0,-1.746287 0.986397,-2.842283 0.993703,-1.103303 2.462338,-1.103303 1.468634,0 2.272365,0.949864 0.80373,0.949863 0.80373,2.637697 z m -1.227515,-1.015623 q -0.0073,-1.037543 -0.504159,-1.614768 -0.489544,-0.577224 -1.366341,-0.577224 -0.847571,0 -1.439408,0.606451 -0.591838,0.606451 -0.730665,1.585541 z m 10.265831,4.63241 q -1.658608,0 -2.652311,-1.04485 -0.986396,-1.052156 -0.986396,-2.78383 0,-1.885113 1.030236,-2.944576 1.030236,-1.059463 2.78383,-1.059463 1.673221,0 2.608471,1.030237 0.942556,1.030236 0.942556,2.856896 0,1.790127 -1.015623,2.87151 -1.008316,1.074076 -2.710763,1.074076 z m 0.08768,-6.824402 q -1.154449,0 -1.82666,0.789117 -0.672211,0.781811 -0.672211,2.162766 0,1.329808 0.679518,2.097005 0.679518,0.767198 1.819353,0.767198 1.161756,0 1.782821,-0.752584 0.628371,-0.752584 0.628371,-2.140846 0,-1.402875 -0.628371,-2.162766 -0.621065,-0.75989 -1.782821,-0.75989 z m 9.250206,-3.375668 q -0.350719,-0.197279 -0.796424,-0.197279 -1.256742,0 -1.256742,1.585541 v 1.154449 h 1.753594 v 1.02293 h -1.753594 v 6.45907 h -1.190982 v -6.45907 h -1.278663 v -1.02293 h 1.278663 v -1.212902 q 0,-1.17637 0.679517,-1.855887 0.679518,-0.686824 1.695141,-0.686824 0.547998,0 0.86949,0.131519 z m 8.556072,9.951644 q -0.423786,0.233813 -1.117916,0.233813 -1.965487,0 -1.965487,-2.191992 v -4.427824 h -1.285968 v -1.02293 h 1.285968 v -1.82666 l 1.198289,-0.387252 v 2.213912 h 1.885114 v 1.02293 h -1.885114 v 4.215931 q 0,0.752584 0.255733,1.074076 0.255732,0.321492 0.84757,0.321492 0.453012,0 0.781811,-0.248425 z m 7.810804,0.07307 h -1.19829 V -25.9348 q 0,-2.338125 -1.73898,-2.338125 -0.8768,0 -1.47594,0.679517 -0.59914,0.672211 -0.59914,1.731674 v 4.237852 h -1.19829 v -11.076867 h 1.19829 v 4.836996 h 0.0292 q 0.86219,-1.417489 2.45503,-1.417489 2.5281,0 2.5281,3.04687 z m 8.27111,-3.441428 h -5.2827 q 0.0292,1.249436 0.67221,1.928953 0.64299,0.679518 1.76821,0.679518 1.26405,0 2.32351,-0.832957 v 1.125222 q -0.9864,0.716051 -2.60847,0.716051 -1.58554,0 -2.49156,-1.015623 -0.90603,-1.02293 -0.90603,-2.87151 0,-1.746287 0.9864,-2.842283 0.9937,-1.103303 2.46234,-1.103303 1.46863,0 2.27236,0.949864 0.80373,0.949863 0.80373,2.637697 z m -1.22751,-1.015623 q -0.007,-1.037543 -0.50416,-1.614768 -0.48955,-0.577224 -1.36634,-0.577224 -0.84757,0 -1.43941,0.606451 -0.59184,0.606451 -0.73066,1.585541 z m 17.98163,4.457051 h -1.22021 v -7.028988 q 0,-0.832957 0.1023,-2.038553 h -0.0292 q -0.17536,0.708744 -0.31418,1.015623 l -3.58026,8.051918 h -0.59914 l -3.57295,-7.993465 q -0.15344,-0.350719 -0.31419,-1.074076 h -0.0292 q 0.0584,0.628371 0.0584,2.053166 v 7.014375 h -1.18368 v -10.477723 h 1.62208 l 3.21492,7.306641 q 0.37264,0.840263 0.48224,1.256742 h 0.0438 q 0.31418,-0.862184 0.50416,-1.285969 l 3.28068,-7.277414 h 1.53439 z m 8.54878,-7.482 -3.44143,8.680289 q -0.92063,2.323511 -2.58655,2.323511 -0.46762,0 -0.78181,-0.09499 v -1.074076 q 0.38725,0.131519 0.70875,0.131519 0.90602,0 1.35903,-1.081382 l 0.59915,-1.417489 -2.92266,-7.467386 h 1.32981 l 2.02394,5.757633 q 0.0365,0.109599 0.15344,0.569918 h 0.0438 q 0.0365,-0.17536 0.14613,-0.555305 l 2.12623,-5.772246 z m 9.11138,3.244148 q 0,4.413211 -3.98212,4.413211 -3.81407,0 -3.81407,-4.245158 v -6.407924 h 1.22752 v 6.327551 q 0,3.222228 2.71807,3.222228 2.62308,0 2.62308,-3.112628 v -6.437151 h 1.22752 z m 8.66567,4.237852 h -1.19829 v -4.267078 q 0,-2.381965 -1.73898,-2.381965 -0.89872,0 -1.49055,0.679517 -0.58454,0.672211 -0.58454,1.702448 v 4.267078 h -1.19828 v -7.482 h 1.19828 v 1.242129 h 0.0292 q 0.84757,-1.417489 2.45503,-1.417489 1.22752,0 1.87781,0.796424 0.65029,0.789117 0.65029,2.286979 z m 2.87151,-9.381727 q -0.32149,0 -0.548,-0.219199 -0.2265,-0.219199 -0.2265,-0.555305 0,-0.336105 0.2265,-0.555304 0.22651,-0.226506 0.548,-0.226506 0.3288,0 0.55531,0.226506 0.23381,0.219199 0.23381,0.555304 0,0.321493 -0.23381,0.547998 -0.22651,0.226506 -0.55531,0.226506 z m 0.58453,9.381727 h -1.19829 v -7.482 h 1.19829 z m 6.12297,-10.024711 q -0.35071,-0.197279 -0.79642,-0.197279 -1.25674,0 -1.25674,1.585541 v 1.154449 h 1.75359 v 1.02293 h -1.75359 v 6.45907 h -1.19098 v -6.45907 h -1.27867 v -1.02293 h 1.27867 v -1.212902 q 0,-1.17637 0.67951,-1.855887 0.67952,-0.686824 1.69514,-0.686824 0.548,0 0.86949,0.131519 z m 4.11363,10.20007 q -1.6586,0 -2.65231,-1.04485 -0.98639,-1.052156 -0.98639,-2.78383 0,-1.885113 1.03023,-2.944576 1.03024,-1.059463 2.78383,-1.059463 1.67322,0 2.60847,1.030237 0.94256,1.030236 0.94256,2.856896 0,1.790127 -1.01562,2.87151 -1.00832,1.074076 -2.71077,1.074076 z m 0.0877,-6.824402 q -1.15445,0 -1.82666,0.789117 -0.67221,0.781811 -0.67221,2.162766 0,1.329808 0.67952,2.097005 0.67952,0.767198 1.81935,0.767198 1.16176,0 1.78282,-0.752584 0.62838,-0.752584 0.62838,-2.140846 0,-1.402875 -0.62838,-2.162766 -0.62106,-0.75989 -1.78282,-0.75989 z m 9.4548,0.379945 q -0.31418,-0.241119 -0.90602,-0.241119 -0.7672,0 -1.28597,0.723357 -0.51146,0.723358 -0.51146,1.972793 v 3.814067 h -1.19829 v -7.482 h 1.19829 v 1.541701 h 0.0292 q 0.25573,-0.789117 0.78181,-1.227516 0.52608,-0.445705 1.17637,-0.445705 0.46763,0 0.71605,0.102293 z m 11.92444,6.269098 h -1.19829 v -4.296305 q 0,-1.242129 -0.38725,-1.797433 -0.37994,-0.555305 -1.28597,-0.555305 -0.76719,0 -1.30788,0.701437 -0.53339,0.701438 -0.53339,1.680528 v 4.267078 h -1.19829 v -4.442438 q 0,-2.206605 -1.70245,-2.206605 -0.78911,0 -1.30058,0.664904 -0.51146,0.657598 -0.51146,1.717061 v 4.267078 h -1.19829 v -7.482 h 1.19829 v 1.183676 h 0.0292 q 0.79643,-1.359036 2.32352,-1.359036 0.76719,0 1.33711,0.431092 0.56992,0.423785 0.78181,1.117916 0.83296,-1.549008 2.48426,-1.549008 2.46964,0 2.46964,3.04687 z m 5.91107,-0.270346 v -1.285969 q 0.97909,0.723358 2.15546,0.723358 1.57823,0 1.57823,-1.052157 0,-0.299572 -0.13883,-0.504158 -0.13152,-0.211892 -0.36533,-0.372638 -0.2265,-0.160746 -0.54069,-0.284959 -0.30688,-0.13152 -0.6649,-0.270346 -0.49686,-0.197279 -0.8768,-0.394559 -0.37264,-0.204586 -0.62837,-0.453011 -0.24843,-0.255733 -0.37995,-0.577225 -0.12421,-0.321492 -0.12421,-0.752584 0,-0.526078 0.24112,-0.927943 0.24112,-0.409172 0.64298,-0.679518 0.40187,-0.277652 0.91333,-0.416478 0.51878,-0.138827 1.06677,-0.138827 0.97179,0 1.73898,0.336106 v 1.212902 q -0.82565,-0.540691 -1.89972,-0.540691 -0.33611,0 -0.60645,0.08037 -0.27035,0.07307 -0.46763,0.211892 -0.18997,0.138827 -0.29957,0.336106 -0.10229,0.189973 -0.10229,0.423785 0,0.292266 0.10229,0.489545 0.1096,0.197279 0.31418,0.350719 0.20459,0.153439 0.49686,0.277652 0.29226,0.124213 0.6649,0.270346 0.49685,0.189972 0.89141,0.394558 0.39456,0.19728 0.67221,0.453012 0.27765,0.248426 0.42379,0.577225 0.15344,0.328798 0.15344,0.78181 0,0.555305 -0.24843,0.964477 -0.24112,0.409172 -0.65029,0.679517 -0.40917,0.270346 -0.94256,0.401866 -0.53338,0.131519 -1.11791,0.131519 -1.15445,0 -2.00202,-0.445705 z m 10.27314,0.197279 q -0.42379,0.233813 -1.11792,0.233813 -1.96549,0 -1.96549,-2.191992 v -4.427824 h -1.28597 v -1.02293 h 1.28597 v -1.82666 l 1.19829,-0.387252 v 2.213912 h 1.88512 v 1.02293 h -1.88512 v 4.215931 q 0,0.752584 0.25573,1.074076 0.25574,0.321492 0.84757,0.321492 0.45302,0 0.78182,-0.248425 z m 5.5019,-6.196031 q -0.31418,-0.241119 -0.90602,-0.241119 -0.7672,0 -1.28597,0.723357 -0.51146,0.723358 -0.51146,1.972793 v 3.814067 h -1.19829 v -7.482 h 1.19829 v 1.541701 h 0.0292 q 0.25573,-0.789117 0.78181,-1.227516 0.52608,-0.445705 1.17637,-0.445705 0.46763,0 0.71605,0.102293 z m 7.35049,6.269098 h -1.19829 v -1.183676 h -0.0292 q -0.74528,1.359035 -2.3089,1.359035 -2.67423,0 -2.67423,-3.185695 v -4.471664 h 1.19098 v 4.281691 q 0,2.367352 1.81205,2.367352 0.8768,0 1.43941,-0.642985 0.56992,-0.650291 0.56992,-1.69514 v -4.310918 h 1.19829 z m 7.51852,-0.343412 q -0.86219,0.518771 -2.04586,0.518771 -1.60016,0 -2.58655,-1.037543 -0.97909,-1.044849 -0.97909,-2.703457 0,-1.84858 1.05946,-2.966496 1.05946,-1.125223 2.82767,-1.125223 0.9864,0 1.73898,0.365332 v 1.227516 q -0.83296,-0.584531 -1.78282,-0.584531 -1.14714,0 -1.88511,0.82565 -0.73067,0.818344 -0.73067,2.155459 0,1.315195 0.68683,2.075086 0.69413,0.759891 1.85588,0.759891 0.97909,0 1.84128,-0.650291 z m 5.28271,0.270345 q -0.42378,0.233813 -1.11792,0.233813 -1.96548,0 -1.96548,-2.191992 v -4.427824 h -1.28597 v -1.02293 h 1.28597 v -1.82666 l 1.19829,-0.387252 v 2.213912 h 1.88511 v 1.02293 h -1.88511 v 4.215931 q 0,0.752584 0.25573,1.074076 0.25573,0.321492 0.84757,0.321492 0.45301,0 0.78181,-0.248425 z"
       id="text967"
       transform="scale(1.0000531,0.9999469)"
       aria-label="first instance of the MyUniform struct" /><path
       id="rect967"
       style="fill:#ffc26d;stroke-width:1.51181;stroke-linejoin:round"
       d="M 310.07001,8.9137192 H 342.283 V 41.126713 h -32.21299 z" /><path
       id="rect968"
       style="fill:#ff9b54;stroke-width:1.51181;stroke-linejoin:round"
       d="m 345.48718,8.9137192 h 32.213 V 41.126713 h -32.213 z" /><path
       id="rect969"
       style="fill:#ce4257;stroke-width:1.51181;stroke-linejoin:round"
       d="m 380.90439,8.9137192 h 32.21299 V 41.126713 h -32.21299 z" /><path
       id="rect970"
       style="fill:#720026;stroke-width:1.51181;stroke-linejoin:round"
       d="m 416.32159,8.9137192 h 32.213 V 41.126713 h -32.213 z" /><path
       id="rect971"
       style="fill:#4f000b;stroke-width:1.51181;stroke-linejoin:round"
       d="m 451.7388,8.9137192 h 32.21299 V 41.126713 H 451.7388 Z" /><path
       id="rect972"
       style="fill:#aaaaaa;stroke-width:1.51181;stroke-linejoin:round"
       d="M 487.15601,8.9137192 H 519.369 V 41.126713 h -32.21299 z" /><path
       id="rect973"
       style="fill:#aaaaaa;stroke-width:1.51181;stroke-linejoin:round"
       d="m 522.57324,8.9137192 h 32.213 V 41.126713 h -32.213 z" /><path
       id="rect974"
       style="fill:#aaaaaa;stroke-width:1.51181;stroke-linejoin:round"
       d="m 557.99042,8.9137192 h 32.21299 V 41.126713 h -32.21299 z" /><path
       style="font-style:italic;font-size:22.8114px;line-height:1.25;font-family:'Charter ITC TT';-inkscape-font-specification:'Charter ITC TT Italic';letter-spacing:0px;word-spacing:0px;fill:#090909;stroke-width:1.28609"
       d="m 330.3907,20.744408 q 0,0.661531 -0.43341,1.072136 -0.43342,0.387794 -1.14057,0.387794 h -0.11406 l -0.5931,-1.231816 q -1.57398,0.638719 -2.30395,1.551175 -0.72996,0.912456 -1.02651,2.646123 l -0.93527,5.360679 h -1.91616 l 1.89335,-9.329863 -1.87054,-0.342171 V 20.28818 l 3.37609,-0.752776 h 0.45623 l -0.72996,3.125162 q 2.32676,-3.147973 4.12886,-3.147973 0.52466,0 0.86683,0.364982 0.34217,0.342171 0.34217,0.866833 z"
       id="text974"
       transform="scale(1.0000531,0.9999469)"
       aria-label="r" /><path
       style="font-style:italic;font-size:22.8114px;line-height:1.25;font-family:'Charter ITC TT';-inkscape-font-specification:'Charter ITC TT Italic';letter-spacing:0px;word-spacing:0px;fill:#090909;stroke-width:1.28609"
       d="m 367.40281,18.577325 h -2.34957 q 0.29655,0.821211 0.29655,1.551175 0,1.345873 -0.72997,2.395197 -0.72996,1.049325 -1.98459,1.528364 -0.86683,0.31936 -2.1899,0.31936 -0.29654,0.524662 -0.29654,1.345872 l 3.62701,1.642421 q 1.77929,0.798399 1.77929,2.212706 0,1.391495 -1.64242,2.418008 -1.64242,1.026513 -3.87794,1.026513 -1.96178,0 -3.12516,-0.82121 -1.16338,-0.821211 -1.16338,-2.212706 0,-2.007403 3.03391,-3.170785 -0.0228,-0.182491 -0.0228,-0.387793 0,-1.049325 0.91246,-2.212706 -2.09865,-0.889645 -2.09865,-2.828614 0,-1.8021 1.30025,-3.079539 1.30025,-1.277438 3.12516,-1.277438 0.95808,0 2.14427,0.570285 h 3.26203 z m -3.85513,1.391496 q 0,-2.098649 -1.55117,-2.098649 -1.04932,0 -1.84772,1.163381 -0.77559,1.14057 -0.77559,2.623311 0,1.96178 1.50555,1.96178 1.07214,0 1.87054,-1.094947 0.79839,-1.094947 0.79839,-2.554876 z m 0.27374,10.105449 q 0,-0.866833 -1.30025,-1.459929 l -2.89705,-1.345873 q -2.07583,0.547474 -2.07583,2.258329 0,1.14057 0.86683,1.824912 0.86683,0.707153 2.25833,0.707153 1.32306,0 2.23552,-0.570285 0.91245,-0.570285 0.91245,-1.414307 z"
       id="text975"
       transform="scale(1.0000531,0.9999469)"
       aria-label="g" /><path
       style="font-style:italic;font-size:22.8114px;line-height:1.25;font-family:'Charter ITC TT';-inkscape-font-specification:'Charter ITC TT Italic';letter-spacing:0px;word-spacing:0px;fill:#ffffff;stroke-width:1.28609"
       d="m 401.86007,26.241954 q 0,3.056728 -1.84772,5.178188 -1.82492,2.098649 -4.49385,2.098649 -1.64242,0 -3.3989,-1.003702 l 2.66894,-14.371182 -1.9846,-0.342171 V 17.20864 l 3.46734,-0.684342 h 0.75277 q -0.34217,1.094947 -0.52466,2.098649 l -0.98089,5.360679 q 2.07584,-1.688044 3.3989,-1.688044 1.32306,0 2.12146,1.094947 0.82121,1.094947 0.82121,2.851425 z m -1.87054,0.182491 q 0,-1.277438 -0.52466,-2.007403 -0.50185,-0.729965 -1.39149,-0.729965 -0.95808,0 -2.71456,1.186193 l -1.30025,6.797797 q 0.98089,0.912456 2.0074,0.912456 1.52837,0 2.71456,-1.870535 1.209,-1.870534 1.209,-4.288543 z"
       id="text976"
       transform="scale(1.0000531,0.9999469)"
       aria-label="b" /><path
       style="font-style:italic;font-size:22.8114px;line-height:1.25;font-family:'Charter ITC TT';-inkscape-font-specification:'Charter ITC TT Italic';letter-spacing:0px;word-spacing:0px;fill:#ffffff;stroke-width:1.28609"
       d="m 437.77722,29.834752 q -1.98459,0.798399 -2.87423,0.798399 -1.32306,0 -1.32306,-1.916157 -1.84773,1.916157 -3.46734,1.916157 -1.4143,0 -2.25832,-1.072135 -0.82121,-1.072136 -0.82121,-2.919859 0,-3.011105 1.82491,-5.109754 1.82491,-2.12146 4.44822,-2.12146 1.16338,0 2.23552,0.524662 l 0.45623,-0.501851 h 1.18619 q -0.36498,0.729965 -0.86683,3.26203 l -0.82122,4.037618 q -0.22811,1.117759 -0.22811,1.619609 0,1.026513 1.16338,1.026513 0.34217,0 1.34587,-0.228114 z m -2.98829,-8.120858 -0.91245,-1.391495 q -0.15968,-0.02281 -0.36499,-0.02281 -1.96178,0 -3.28484,1.77929 -1.32306,1.756477 -1.32306,4.4026 0,2.760179 1.96178,2.760179 1.25463,0 2.73737,-1.505552 z"
       id="text977"
       transform="scale(1.0000531,0.9999469)"
       aria-label="a" /><path
       style="font-style:italic;font-size:22.8114px;line-height:1.25;font-family:'Charter ITC TT';-inkscape-font-specification:'Charter ITC TT Italic';letter-spacing:0px;word-spacing:0px;fill:#ffffff;stroke-width:1.28609"
       d="m 471.15096,21.919194 h -3.46733 l -1.1862,6.090644 q -0.13687,0.707153 -0.13687,1.049324 0,1.345873 1.3915,1.345873 0.84402,0 2.16708,-0.433417 v 0.729965 q -2.34957,1.003702 -3.58139,1.003702 -1.84772,0 -1.84772,-2.053026 0,-0.63872 0.18249,-1.551176 l 1.23182,-6.181889 -1.41431,0.114057 v -0.684342 l 1.66523,-0.729965 1.14057,-2.28114 h 1.04933 l -0.47904,2.6005 h 3.28484 z"
       id="text978"
       transform="scale(1.0000531,0.9999469)"
       aria-label="t" /><path
       style="font-style:italic;font-size:22.8114px;line-height:1.25;font-family:'Charter ITC TT';-inkscape-font-specification:'Charter ITC TT Italic';letter-spacing:0px;word-spacing:0px;fill:#090909;stroke-width:1.28609"
       d="m 508.93866,31.684335 h -11.4057 v -1.323061 h 11.4057 z"
       id="text979"
       transform="scale(1.0000531,0.9999469)"
       aria-label="_" /><path
       style="font-style:italic;font-size:22.8114px;line-height:1.25;font-family:'Charter ITC TT';-inkscape-font-specification:'Charter ITC TT Italic';letter-spacing:0px;word-spacing:0px;fill:#090909;stroke-width:1.28609"
       d="m 544.35394,31.684335 h -11.4057 v -1.323061 h 11.4057 z"
       id="text980"
       transform="scale(1.0000531,0.9999469)"
       aria-label="_" /><path
       style="font-style:italic;font-size:22.8114px;line-height:1.25;font-family:'Charter ITC TT';-inkscape-font-specification:'Charter ITC TT Italic';letter-spacing:0px;word-spacing:0px;fill:#090909;stroke-width:1.28609"
       d="m 579.76935,31.684335 h -11.4057 v -1.323061 h 11.4057 z"
       id="text981"
       transform="scale(1.0000531,0.9999469)"
       aria-label="_" /><path
       style="fill:none;stroke:#000000;stroke-width:1.51181;stroke-linejoin:round;stroke-dasharray:none;stroke-opacity:1"
       d="m 326.01193,-7.0674094 v -7.9945716 h 248.63781 v 7.9945716"
       id="path981" /><path
       style="font-size:14.964px;line-height:1.25;font-family:'Segoe UI';-inkscape-font-specification:'Segoe UI';text-align:end;letter-spacing:0px;word-spacing:0px;text-anchor:end;fill:#090909;stroke-width:1.28609"
       d="m 316.25246,-21.894228 v -1.285969 q 0.97909,0.723358 2.15546,0.723358 1.57823,0 1.57823,-1.052157 0,-0.299572 -0.13883,-0.504158 -0.13152,-0.211892 -0.36533,-0.372638 -0.2265,-0.160746 -0.54069,-0.284959 -0.30688,-0.13152 -0.6649,-0.270346 -0.49686,-0.197279 -0.8768,-0.394559 -0.37264,-0.204586 -0.62837,-0.453011 -0.24843,-0.255733 -0.37995,-0.577225 -0.12421,-0.321492 -0.12421,-0.752584 0,-0.526078 0.24112,-0.927943 0.24112,-0.409172 0.64298,-0.679518 0.40187,-0.277652 0.91333,-0.416478 0.51877,-0.138827 1.06677,-0.138827 0.97179,0 1.73898,0.336106 v 1.212902 q -0.82565,-0.540691 -1.89972,-0.540691 -0.33611,0 -0.60645,0.08037 -0.27035,0.07307 -0.46763,0.211892 -0.18997,0.138827 -0.29957,0.336106 -0.10229,0.189973 -0.10229,0.423785 0,0.292266 0.10229,0.489545 0.1096,0.197279 0.31418,0.350719 0.20459,0.153439 0.49686,0.277652 0.29226,0.124213 0.6649,0.270346 0.49685,0.189972 0.89141,0.394558 0.39456,0.19728 0.67221,0.453012 0.27765,0.248426 0.42379,0.577225 0.15344,0.328798 0.15344,0.78181 0,0.555305 -0.24843,0.964477 -0.24112,0.409172 -0.65029,0.679517 -0.40917,0.270346 -0.94256,0.401866 -0.53338,0.131519 -1.11791,0.131519 -1.15445,0 -2.00202,-0.445705 z m 12.81584,-3.171082 h -5.2827 q 0.0292,1.249436 0.67221,1.928953 0.64299,0.679518 1.76821,0.679518 1.26405,0 2.32351,-0.832957 v 1.125222 q -0.98639,0.716051 -2.60847,0.716051 -1.58554,0 -2.49156,-1.015623 -0.90603,-1.02293 -0.90603,-2.87151 0,-1.746287 0.9864,-2.842283 0.9937,-1.103303 2.46234,-1.103303 1.46863,0 2.27236,0.949864 0.80373,0.949863 0.80373,2.637697 z m -1.22751,-1.015623 q -0.007,-1.037543 -0.50416,-1.614768 -0.48955,-0.577224 -1.36634,-0.577224 -0.84757,0 -1.43941,0.606451 -0.59184,0.606451 -0.73066,1.585541 z m 8.1396,4.113639 q -0.86219,0.518771 -2.04586,0.518771 -1.60016,0 -2.58655,-1.037543 -0.97909,-1.044849 -0.97909,-2.703457 0,-1.84858 1.05946,-2.966496 1.05946,-1.125223 2.82767,-1.125223 0.9864,0 1.73898,0.365332 v 1.227516 q -0.83296,-0.584531 -1.78282,-0.584531 -1.14714,0 -1.88511,0.82565 -0.73067,0.818344 -0.73067,2.155459 0,1.315195 0.68683,2.075086 0.69413,0.759891 1.85588,0.759891 0.97909,0 1.84128,-0.650291 z m 4.93928,0.518771 q -1.6586,0 -2.65231,-1.04485 -0.98639,-1.052156 -0.98639,-2.78383 0,-1.885113 1.03023,-2.944576 1.03024,-1.059463 2.78383,-1.059463 1.67322,0 2.60847,1.030237 0.94256,1.030236 0.94256,2.856896 0,1.790127 -1.01562,2.87151 -1.00832,1.074076 -2.71077,1.074076 z m 0.0877,-6.824402 q -1.15445,0 -1.82666,0.789117 -0.67221,0.781811 -0.67221,2.162766 0,1.329808 0.67952,2.097005 0.67952,0.767198 1.81935,0.767198 1.16176,0 1.78282,-0.752584 0.62837,-0.752584 0.62837,-2.140846 0,-1.402875 -0.62837,-2.162766 -0.62106,-0.75989 -1.78282,-0.75989 z m 11.7637,6.649043 h -1.19829 v -4.267078 q 0,-2.381965 -1.73898,-2.381965 -0.89872,0 -1.49056,0.679517 -0.58453,0.672211 -0.58453,1.702448 v 4.267078 h -1.19829 v -7.482 h 1.19829 v 1.242129 h 0.0292 q 0.84757,-1.417489 2.45503,-1.417489 1.22751,0 1.8778,0.796424 0.6503,0.789117 0.6503,2.286979 z m 8.64375,0 h -1.19829 v -1.271356 h -0.0292 q -0.83296,1.446715 -2.57194,1.446715 -1.41018,0 -2.25775,-1.00101 -0.84027,-1.008316 -0.84027,-2.73999 0,-1.855887 0.93525,-2.973803 0.93525,-1.117916 2.49157,-1.117916 1.5417,0 2.24314,1.212903 h 0.0292 v -4.63241 h 1.19829 z m -1.19829,-3.382975 v -1.103303 q 0,-0.906023 -0.59914,-1.534394 -0.59915,-0.628371 -1.51978,-0.628371 -1.096,0 -1.72437,0.80373 -0.62837,0.803731 -0.62837,2.221219 0,1.293275 0.59914,2.045859 0.60645,0.745278 1.62208,0.745278 1.00101,0 1.62207,-0.723358 0.62837,-0.723357 0.62837,-1.82666 z m 8.33688,-5.998752 q -0.3215,0 -0.548,-0.219199 -0.22651,-0.219199 -0.22651,-0.555305 0,-0.336105 0.22651,-0.555304 0.2265,-0.226506 0.548,-0.226506 0.3288,0 0.5553,0.226506 0.23381,0.219199 0.23381,0.555304 0,0.321493 -0.23381,0.547998 -0.2265,0.226506 -0.5553,0.226506 z m 0.58453,9.381727 h -1.19829 v -7.482 h 1.19829 z m 8.63645,0 h -1.19829 v -4.267078 q 0,-2.381965 -1.73898,-2.381965 -0.89872,0 -1.49055,0.679517 -0.58454,0.672211 -0.58454,1.702448 v 4.267078 h -1.19828 v -7.482 h 1.19828 v 1.242129 h 0.0292 q 0.84757,-1.417489 2.45503,-1.417489 1.22752,0 1.87781,0.796424 0.65029,0.789117 0.65029,2.286979 z m 1.80474,-0.270346 v -1.285969 q 0.97909,0.723358 2.15546,0.723358 1.57823,0 1.57823,-1.052157 0,-0.299572 -0.13882,-0.504158 -0.13152,-0.211892 -0.36534,-0.372638 -0.2265,-0.160746 -0.54069,-0.284959 -0.30688,-0.13152 -0.6649,-0.270346 -0.49685,-0.197279 -0.8768,-0.394559 -0.37264,-0.204586 -0.62837,-0.453011 -0.24843,-0.255733 -0.37995,-0.577225 -0.12421,-0.321492 -0.12421,-0.752584 0,-0.526078 0.24112,-0.927943 0.24112,-0.409172 0.64299,-0.679518 0.40186,-0.277652 0.91333,-0.416478 0.51877,-0.138827 1.06677,-0.138827 0.97178,0 1.73898,0.336106 v 1.212902 q -0.82565,-0.540691 -1.89973,-0.540691 -0.33611,0 -0.60645,0.08037 -0.27035,0.07307 -0.46763,0.211892 -0.18997,0.138827 -0.29957,0.336106 -0.10229,0.189973 -0.10229,0.423785 0,0.292266 0.10229,0.489545 0.1096,0.197279 0.31419,0.350719 0.20458,0.153439 0.49685,0.277652 0.29226,0.124213 0.6649,0.270346 0.49685,0.189972 0.89141,0.394558 0.39456,0.19728 0.67221,0.453012 0.27766,0.248426 0.42379,0.577225 0.15344,0.328798 0.15344,0.78181 0,0.555305 -0.24843,0.964477 -0.24112,0.409172 -0.65029,0.679517 -0.40917,0.270346 -0.94256,0.401866 -0.53338,0.131519 -1.11791,0.131519 -1.15445,0 -2.00202,-0.445705 z m 10.27314,0.197279 q -0.42379,0.233813 -1.11792,0.233813 -1.96549,0 -1.96549,-2.191992 v -4.427824 h -1.28596 v -1.02293 h 1.28596 v -1.82666 l 1.19829,-0.387252 v 2.213912 h 1.88512 v 1.02293 h -1.88512 v 4.215931 q 0,0.752584 0.25574,1.074076 0.25573,0.321492 0.84757,0.321492 0.45301,0 0.78181,-0.248425 z m 6.95592,0.07307 h -1.19829 v -1.169063 h -0.0292 q -0.78181,1.344422 -2.30159,1.344422 -1.11792,0 -1.75359,-0.591838 -0.62837,-0.591838 -0.62837,-1.570928 0,-2.097005 2.46964,-2.440417 l 2.24314,-0.314186 q 0,-1.907033 -1.5417,-1.907033 -1.35173,0 -2.44042,0.920637 v -1.227516 q 1.1033,-0.701438 2.54271,-0.701438 2.6377,0 2.6377,2.791137 z m -1.19829,-3.78484 -1.80474,0.248426 q -0.83296,0.116906 -1.25674,0.416478 -0.42379,0.292266 -0.42379,1.04485 0,0.547998 0.38725,0.898717 0.39456,0.343412 1.04485,0.343412 0.89141,0 1.46864,-0.621065 0.58453,-0.628371 0.58453,-1.585541 z m 9.66668,3.78484 h -1.19829 v -4.267078 q 0,-2.381965 -1.73898,-2.381965 -0.89871,0 -1.49055,0.679517 -0.58453,0.672211 -0.58453,1.702448 v 4.267078 h -1.19829 v -7.482 h 1.19829 v 1.242129 h 0.0292 q 0.84757,-1.417489 2.45504,-1.417489 1.22751,0 1.8778,0.796424 0.65029,0.789117 0.65029,2.286979 z m 7.35779,-0.343412 q -0.86218,0.518771 -2.04586,0.518771 -1.60015,0 -2.58655,-1.037543 -0.97909,-1.044849 -0.97909,-2.703457 0,-1.84858 1.05947,-2.966496 1.05946,-1.125223 2.82767,-1.125223 0.98639,0 1.73898,0.365332 v 1.227516 q -0.83296,-0.584531 -1.78282,-0.584531 -1.14715,0 -1.88512,0.82565 -0.73066,0.818344 -0.73066,2.155459 0,1.315195 0.68682,2.075086 0.69413,0.759891 1.85589,0.759891 0.97909,0 1.84127,-0.650291 z m 7.82541,-3.098016 h -5.2827 q 0.0292,1.249436 0.67221,1.928953 0.64299,0.679518 1.76821,0.679518 1.26405,0 2.32351,-0.832957 v 1.125222 q -0.9864,0.716051 -2.60847,0.716051 -1.58554,0 -2.49156,-1.015623 -0.90603,-1.02293 -0.90603,-2.87151 0,-1.746287 0.9864,-2.842283 0.9937,-1.103303 2.46234,-1.103303 1.46863,0 2.27236,0.949864 0.80373,0.949863 0.80373,2.637697 z m -1.22751,-1.015623 q -0.007,-1.037543 -0.50416,-1.614768 -0.48955,-0.577224 -1.36634,-0.577224 -0.84757,0 -1.43941,0.606451 -0.59184,0.606451 -0.73067,1.585541 z m 10.26583,4.63241 q -1.65861,0 -2.65231,-1.04485 -0.9864,-1.052156 -0.9864,-2.78383 0,-1.885113 1.03024,-2.944576 1.03023,-1.059463 2.78383,-1.059463 1.67322,0 2.60847,1.030237 0.94255,1.030236 0.94255,2.856896 0,1.790127 -1.01562,2.87151 -1.00832,1.074076 -2.71076,1.074076 z m 0.0877,-6.824402 q -1.15445,0 -1.82666,0.789117 -0.67221,0.781811 -0.67221,2.162766 0,1.329808 0.67951,2.097005 0.67952,0.767198 1.81936,0.767198 1.16175,0 1.78282,-0.752584 0.62837,-0.752584 0.62837,-2.140846 0,-1.402875 -0.62837,-2.162766 -0.62107,-0.75989 -1.78282,-0.75989 z m 9.2502,-3.375668 q -0.35072,-0.197279 -0.79642,-0.197279 -1.25674,0 -1.25674,1.585541 v 1.154449 h 1.75359 v 1.02293 h -1.75359 v 6.45907 h -1.19099 v -6.45907 h -1.27866 v -1.02293 h 1.27866 v -1.212902 q 0,-1.17637 0.67952,-1.855887 0.67952,-0.686824 1.69514,-0.686824 0.548,0 0.86949,0.131519 z m 8.55607,9.951644 q -0.42378,0.233813 -1.11791,0.233813 -1.96549,0 -1.96549,-2.191992 v -4.427824 h -1.28597 v -1.02293 h 1.28597 v -1.82666 l 1.19829,-0.387252 v 2.213912 h 1.88511 v 1.02293 h -1.88511 v 4.215931 q 0,0.752584 0.25573,1.074076 0.25574,0.321492 0.84757,0.321492 0.45302,0 0.78181,-0.248425 z m 7.81081,0.07307 h -1.19829 V -25.9348 q 0,-2.338125 -1.73898,-2.338125 -0.8768,0 -1.47594,0.679517 -0.59915,0.672211 -0.59915,1.731674 v 4.237852 h -1.19828 v -11.076867 h 1.19828 v 4.836996 h 0.0292 q 0.86218,-1.417489 2.45503,-1.417489 2.5281,0 2.5281,3.04687 z m 8.27112,-3.441428 h -5.2827 q 0.0292,1.249436 0.67221,1.928953 0.64298,0.679518 1.76821,0.679518 1.26405,0 2.32351,-0.832957 v 1.125222 q -0.9864,0.716051 -2.60847,0.716051 -1.58554,0 -2.49157,-1.015623 -0.90602,-1.02293 -0.90602,-2.87151 0,-1.746287 0.9864,-2.842283 0.9937,-1.103303 2.46233,-1.103303 1.46864,0 2.27237,0.949864 0.80373,0.949863 0.80373,2.637697 z m -1.22752,-1.015623 q -0.007,-1.037543 -0.50415,-1.614768 -0.48955,-0.577224 -1.36635,-0.577224 -0.84757,0 -1.4394,0.606451 -0.59184,0.606451 -0.73067,1.585541 z m 17.98163,4.457051 h -1.22021 v -7.028988 q 0,-0.832957 0.1023,-2.038553 h -0.0292 q -0.17536,0.708744 -0.31419,1.015623 l -3.58025,8.051918 h -0.59914 l -3.57295,-7.993465 q -0.15344,-0.350719 -0.31419,-1.074076 h -0.0292 q 0.0584,0.628371 0.0584,2.053166 v 7.014375 h -1.18368 v -10.477723 h 1.62208 l 3.21492,7.306641 q 0.37264,0.840263 0.48224,1.256742 h 0.0438 q 0.31418,-0.862184 0.50416,-1.285969 l 3.28068,-7.277414 h 1.53439 z m 8.54878,-7.482 -3.44143,8.680289 q -0.92063,2.323511 -2.58655,2.323511 -0.46762,0 -0.78181,-0.09499 v -1.074076 q 0.38725,0.131519 0.70875,0.131519 0.90602,0 1.35903,-1.081382 l 0.59915,-1.417489 -2.92266,-7.467386 h 1.32981 l 2.02394,5.757633 q 0.0365,0.109599 0.15344,0.569918 h 0.0438 q 0.0365,-0.17536 0.14613,-0.555305 l 2.12623,-5.772246 z m 9.11138,3.244148 q 0,4.413211 -3.98212,4.413211 -3.81407,0 -3.81407,-4.245158 v -6.407924 h 1.22752 v 6.327551 q 0,3.222228 2.71807,3.222228 2.62308,0 2.62308,-3.112628 v -6.437151 h 1.22752 z m 8.66567,4.237852 h -1.19829 v -4.267078 q 0,-2.381965 -1.73898,-2.381965 -0.89872,0 -1.49055,0.679517 -0.58454,0.672211 -0.58454,1.702448 v 4.267078 h -1.19829 v -7.482 h 1.19829 v 1.242129 h 0.0292 q 0.84757,-1.417489 2.45503,-1.417489 1.22752,0 1.87781,0.796424 0.65029,0.789117 0.65029,2.286979 z m 2.87151,-9.381727 q -0.32149,0 -0.548,-0.219199 -0.2265,-0.219199 -0.2265,-0.555305 0,-0.336105 0.2265,-0.555304 0.22651,-0.226506 0.548,-0.226506 0.3288,0 0.55531,0.226506 0.23381,0.219199 0.23381,0.555304 0,0.321493 -0.23381,0.547998 -0.22651,0.226506 -0.55531,0.226506 z m 0.58453,9.381727 h -1.19829 v -7.482 h 1.19829 z m 6.12297,-10.024711 q -0.35072,-0.197279 -0.79642,-0.197279 -1.25674,0 -1.25674,1.585541 v 1.154449 h 1.75359 v 1.02293 h -1.75359 v 6.45907 h -1.19098 v -6.45907 h -1.27867 v -1.02293 h 1.27867 v -1.212902 q 0,-1.17637 0.67951,-1.855887 0.67952,-0.686824 1.69514,-0.686824 0.548,0 0.86949,0.131519 z m 4.11363,10.20007 q -1.6586,0 -2.65231,-1.04485 -0.98639,-1.052156 -0.98639,-2.78383 0,-1.885113 1.03023,-2.944576 1.03024,-1.059463 2.78383,-1.059463 1.67322,0 2.60847,1.030237 0.94256,1.030236 0.94256,2.856896 0,1.790127 -1.01562,2.87151 -1.00832,1.074076 -2.71077,1.074076 z m 0.0877,-6.824402 q -1.15445,0 -1.82666,0.789117 -0.67221,0.781811 -0.67221,2.162766 0,1.329808 0.67952,2.097005 0.67952,0.767198 1.81935,0.767198 1.16176,0 1.78282,-0.752584 0.62837,-0.752584 0.62837,-2.140846 0,-1.402875 -0.62837,-2.162766 -0.62106,-0.75989 -1.78282,-0.75989 z m 9.4548,0.379945 q -0.31418,-0.241119 -0.90602,-0.241119 -0.7672,0 -1.28597,0.723357 -0.51146,0.723358 -0.51146,1.972793 v 3.814067 h -1.19829 v -7.482 h 1.19829 v 1.541701 h 0.0292 q 0.25573,-0.789117 0.78181,-1.227516 0.52608,-0.445705 1.17637,-0.445705 0.46763,0 0.71605,0.102293 z m 11.92444,6.269098 h -1.19829 v -4.296305 q 0,-1.242129 -0.38725,-1.797433 -0.37994,-0.555305 -1.28597,-0.555305 -0.76719,0 -1.30789,0.701437 -0.53338,0.701438 -0.53338,1.680528 v 4.267078 h -1.19829 v -4.442438 q 0,-2.206605 -1.70245,-2.206605 -0.78911,0 -1.30058,0.664904 -0.51146,0.657598 -0.51146,1.717061 v 4.267078 h -1.19829 v -7.482 h 1.19829 v 1.183676 h 0.0292 q 0.79643,-1.359036 2.32352,-1.359036 0.76719,0 1.33711,0.431092 0.56992,0.423785 0.78181,1.117916 0.83296,-1.549008 2.48426,-1.549008 2.46964,0 2.46964,3.04687 z m 5.91107,-0.270346 v -1.285969 q 0.97909,0.723358 2.15546,0.723358 1.57823,0 1.57823,-1.052157 0,-0.299572 -0.13883,-0.504158 -0.13152,-0.211892 -0.36533,-0.372638 -0.2265,-0.160746 -0.54069,-0.284959 -0.30688,-0.13152 -0.6649,-0.270346 -0.49686,-0.197279 -0.8768,-0.394559 -0.37264,-0.204586 -0.62837,-0.453011 -0.24843,-0.255733 -0.37995,-0.577225 -0.12421,-0.321492 -0.12421,-0.752584 0,-0.526078 0.24112,-0.927943 0.24112,-0.409172 0.64298,-0.679518 0.40187,-0.277652 0.91333,-0.416478 0.51877,-0.138827 1.06677,-0.138827 0.97179,0 1.73898,0.336106 v 1.212902 q -0.82565,-0.540691 -1.89972,-0.540691 -0.33611,0 -0.60645,0.08037 -0.27035,0.07307 -0.46763,0.211892 -0.18997,0.138827 -0.29957,0.336106 -0.10229,0.189973 -0.10229,0.423785 0,0.292266 0.10229,0.489545 0.1096,0.197279 0.31418,0.350719 0.20459,0.153439 0.49686,0.277652 0.29226,0.124213 0.6649,0.270346 0.49685,0.189972 0.89141,0.394558 0.39456,0.19728 0.67221,0.453012 0.27765,0.248426 0.42379,0.577225 0.15344,0.328798 0.15344,0.78181 0,0.555305 -0.24843,0.964477 -0.24112,0.409172 -0.65029,0.679517 -0.40917,0.270346 -0.94256,0.401866 -0.53338,0.131519 -1.11791,0.131519 -1.15445,0 -2.00202,-0.445705 z m 10.27313,0.197279 q -0.42378,0.233813 -1.11791,0.233813 -1.96549,0 -1.96549,-2.191992 v -4.427824 h -1.28597 v -1.02293 h 1.28597 v -1.82666 l 1.19829,-0.387252 v 2.213912 h 1.88511 v 1.02293 h -1.88511 v 4.215931 q 0,0.752584 0.25573,1.074076 0.25574,0.321492 0.84757,0.321492 0.45302,0 0.78181,-0.248425 z m 5.50191,-6.196031 q -0.31418,-0.241119 -0.90602,-0.241119 -0.7672,0 -1.28597,0.723357 -0.51146,0.723358 -0.51146,1.972793 v 3.814067 h -1.19829 v -7.482 h 1.19829 v 1.541701 h 0.0292 q 0.25573,-0.789117 0.78181,-1.227516 0.52608,-0.445705 1.17637,-0.445705 0.46763,0 0.71605,0.102293 z m 7.35049,6.269098 h -1.19829 v -1.183676 h -0.0292 q -0.74528,1.359035 -2.3089,1.359035 -2.67423,0 -2.67423,-3.185695 v -4.471664 h 1.19098 v 4.281691 q 0,2.367352 1.81205,2.367352 0.8768,0 1.43941,-0.642985 0.56992,-0.650291 0.56992,-1.69514 v -4.310918 h 1.19829 z m 7.51852,-0.343412 q -0.86219,0.518771 -2.04586,0.518771 -1.60016,0 -2.58655,-1.037543 -0.97909,-1.044849 -0.97909,-2.703457 0,-1.84858 1.05946,-2.966496 1.05946,-1.125223 2.82767,-1.125223 0.9864,0 1.73898,0.365332 v 1.227516 q -0.83296,-0.584531 -1.78282,-0.584531 -1.14714,0 -1.88511,0.82565 -0.73067,0.818344 -0.73067,2.155459 0,1.315195 0.68683,2.075086 0.69413,0.759891 1.85588,0.759891 0.97909,0 1.84128,-0.650291 z m 5.28269,0.270345 q -0.42378,0.233813 -1.11791,0.233813 -1.96549,0 -1.96549,-2.191992 v -4.427824 h -1.28597 v -1.02293 h 1.28597 v -1.82666 l 1.19829,-0.387252 v 2.213912 h 1.88511 v 1.02293 h -1.88511 v 4.215931 q 0,0.752584 0.25573,1.074076 0.25574,0.321492 0.84757,0.321492 0.45302,0 0.78181,-0.248425 z"
       id="text982"
       transform="scale(1.0000531,0.9999469)"
       aria-label="second instance of the MyUniform struct" /><path
       style="font-style:italic;font-size:22.8114px;line-height:1.25;font-family:'Charter ITC TT';-inkscape-font-specification:'Charter ITC TT Italic';letter-spacing:0px;word-spacing:0px;fill:#090909;stroke-width:1.28609"
       d="m 276.71023,25.032951 q 0,0.570285 -0.41061,0.958079 -0.38779,0.387794 -0.95808,0.387794 -0.57028,0 -0.95808,-0.387794 -0.38779,-0.387794 -0.38779,-0.958079 0,-0.593096 0.38779,-0.98089 0.41061,-0.387794 0.98089,-0.387794 0.57029,0 0.95808,0.410605 0.3878,0.387794 0.3878,0.958079 z m 6.34156,0 q 0,0.570285 -0.4106,0.958079 -0.3878,0.387794 -0.95808,0.387794 -0.57029,0 -0.95808,-0.387794 -0.3878,-0.387794 -0.3878,-0.958079 0,-0.593096 0.3878,-0.98089 0.4106,-0.387794 0.98089,-0.387794 0.57028,0 0.95808,0.410605 0.38779,0.387794 0.38779,0.958079 z m 6.34157,0 q 0,0.570285 -0.41061,0.958079 -0.38779,0.387794 -0.95808,0.387794 -0.57028,0 -0.95808,-0.387794 -0.38779,-0.387794 -0.38779,-0.958079 0,-0.593096 0.38779,-0.98089 0.41061,-0.387794 0.98089,-0.387794 0.57029,0 0.95808,0.410605 0.3878,0.387794 0.3878,0.958079 z"
       id="text983"
       transform="scale(1.0000531,0.9999469)"
       aria-label="..." /></g></svg>
