<?xml version="1.0" encoding="UTF-8" standalone="no"?>
<!-- Created with Inkscape (http://www.inkscape.org/) -->

<svg
   version="1.1"
   id="svg761"
   width="763.15002"
   height="104.58"
   viewBox="0 0 763.15002 104.58"
   xml:space="preserve"
   xmlns="http://www.w3.org/2000/svg"
   xmlns:svg="http://www.w3.org/2000/svg"><defs
     id="defs765" /><g
     id="layer2"
     transform="translate(111.70191,-364.80308)"><path
       id="rect984"
       style="fill:#ffc26d;stroke-width:1.51181;stroke-linejoin:round"
       d="M -26.788654,408.67694 H 5.4243393 v 32.21299 H -26.788654 Z" /><path
       id="rect985"
       style="fill:#ff9b54;stroke-width:1.51181;stroke-linejoin:round"
       d="M 8.6285381,408.67694 H 40.841532 v 32.21299 H 8.6285381 Z" /><path
       id="rect986"
       style="fill:#ce4257;stroke-width:1.51181;stroke-linejoin:round"
       d="m 44.045742,408.67694 h 32.212994 v 32.21299 H 44.045742 Z" /><path
       id="rect987"
       style="fill:#720026;stroke-width:1.51181;stroke-linejoin:round"
       d="m 79.462944,408.67694 h 32.212996 v 32.21299 H 79.462944 Z" /><path
       id="rect988"
       style="fill:#4f000b;stroke-width:1.51181;stroke-linejoin:round"
       d="m 114.88015,408.67694 h 32.21299 v 32.21299 h -32.21299 z" /><path
       id="rect989"
       style="fill:#aaaaaa;stroke-width:1.51181;stroke-linejoin:round"
       d="m 150.29735,408.67694 h 32.21299 v 32.21299 h -32.21299 z" /><path
       id="rect990"
       style="fill:#aaaaaa;stroke-width:1.51181;stroke-linejoin:round"
       d="m 185.71455,408.67694 h 32.213 v 32.21299 h -32.213 z" /><path
       id="rect991"
       style="fill:#aaaaaa;stroke-width:1.51181;stroke-linejoin:round"
       d="m 221.13176,408.67694 h 32.21299 v 32.21299 h -32.21299 z" /><g
       id="g993"
       transform="matrix(5.0393688,0,0,5.0393688,-124.56075,301.0775)"
       style="stroke:#000000;stroke-opacity:1"><path
         style="opacity:1;fill:none;fill-opacity:1;stroke:#ffffff;stroke-width:0.45;stroke-linejoin:round;stroke-dasharray:none;stroke-opacity:1"
         d="M 145.46869,28.471916 H 18.673774 l -1e-6,-7.848028 H 145.46869"
         id="path991" /><path
         style="opacity:1;fill:none;fill-opacity:1;stroke:#ffffff;stroke-width:0.45;stroke-linejoin:round;stroke-dasharray:none;stroke-opacity:1"
         d="m 149.72899,28.471916 h -2.2983 m 0,-7.848028 h 2.2983"
         id="path992" /><path
         style="opacity:1;fill:none;fill-opacity:1;stroke:#ffffff;stroke-width:0.45;stroke-linejoin:round;stroke-dasharray:none;stroke-opacity:1"
         d="m 153.9893,28.471916 h -2.2983 m 0,-7.848028 h 2.2983"
         id="path993" /></g><path
       style="fill:none;stroke:#ffffff;stroke-width:1.51181;stroke-linejoin:round;stroke-dasharray:none;stroke-opacity:1"
       d="m -10.846747,454.48934 v 7.99457 H 325.61777 v -7.99457"
       id="path994" /><path
       style="font-style:italic;font-size:22.8114px;line-height:1.25;font-family:'Segoe UI';-inkscape-font-specification:'Segoe UI Italic';letter-spacing:0px;word-spacing:0px;fill:#ffffff;stroke-width:1.28609"
       d="m -98.143301,424.29433 q 0,0.75741 -0.155937,1.62621 -0.155937,0.85765 -0.501227,1.71531 -0.34529,0.84651 -0.879932,1.63734 -0.534643,0.79082 -1.292053,1.3923 -0.74627,0.60147 -1.73759,0.96904 -0.98017,0.35642 -2.22767,0.35642 -0.51237,0 -1.05815,-0.078 -0.54578,-0.0668 -1.06928,-0.20049 -0.52351,-0.13366 -1.00246,-0.32301 -0.47895,-0.18935 -0.86879,-0.4344 l 3.43062,-16.12837 h 1.84897 l -1.14725,5.45781 q -0.12252,0.54578 -0.25618,1.14725 -0.12253,0.60147 -0.24505,1.06928 h 0.0223 q 0.35643,-0.56805 0.75741,-1.02473 0.40098,-0.45667 0.85765,-0.77968 0.46782,-0.32302 0.99132,-0.49009 0.53464,-0.17822 1.15839,-0.17822 1.626204,0 2.494998,1.11384 0.879931,1.11384 0.879931,3.15216 z m -1.871249,0.0446 q 0,-0.63489 -0.12252,-1.14726 -0.11138,-0.51236 -0.36757,-0.86879 -0.24504,-0.35643 -0.63488,-0.54578 -0.38985,-0.18935 -0.94677,-0.18935 -0.70171,0 -1.34774,0.41212 -0.64603,0.41212 -1.18067,1.09156 -0.53464,0.67944 -0.92448,1.5371 -0.38985,0.85765 -0.56806,1.74872 l -0.74627,3.55314 q 0.3787,0.21163 0.94676,0.35643 0.5792,0.1448 1.19181,0.1448 0.79082,0 1.44799,-0.25618 0.65716,-0.26732 1.18066,-0.724 0.52351,-0.45667 0.91335,-1.05814 0.38984,-0.60148 0.64603,-1.26978 0.25618,-0.67944 0.3787,-1.3923 0.13366,-0.72399 0.13366,-1.39229 z m 13.098736,4.13234 q -0.100246,0.43439 -0.189353,0.9022 -0.07797,0.46782 -0.155937,0.90221 -0.07797,0.4344 -0.133661,0.8131 -0.05569,0.37871 -0.08911,0.62375 h -1.78214 q 0.05569,-0.43439 0.122522,-0.9022 0.07797,-0.47896 0.144799,-0.87994 0.07797,-0.46781 0.144799,-0.91334 h -0.04455 q -0.389843,0.61261 -0.868793,1.15839 -0.467812,0.53464 -1.024731,0.94676 -0.545781,0.40098 -1.16953,0.63489 -0.612611,0.2339 -1.280914,0.2339 -0.735132,0 -1.292051,-0.2339 -0.545781,-0.22277 -0.913347,-0.63489 -0.367567,-0.41212 -0.556919,-0.99132 -0.178214,-0.57919 -0.178214,-1.29205 0,-0.1448 0.04455,-0.43439 0.04455,-0.2896 0.100245,-0.62375 0.05569,-0.33416 0.122523,-0.65717 0.07797,-0.33415 0.122522,-0.56806 l 1.325467,-6.24863 h 1.848971 l -1.414574,6.68303 q -0.04455,0.17822 -0.08911,0.41212 -0.04455,0.23391 -0.08911,0.46781 -0.03342,0.23391 -0.05569,0.4344 -0.02228,0.18935 -0.02228,0.30074 0,0.83537 0.400982,1.3366 0.41212,0.49009 1.225221,0.49009 0.490089,0 0.980178,-0.20049 0.490088,-0.20049 0.946762,-0.53464 0.467812,-0.34529 0.879932,-0.79083 0.41212,-0.45667 0.746271,-0.9579 0.334151,-0.51236 0.568057,-1.04701 0.233906,-0.53464 0.34529,-1.02473 l 1.191807,-5.56919 h 1.837832 z m 11.539361,-12.06287 q -0.111384,-0.0557 -0.267321,-0.10024 -0.155938,-0.0557 -0.334152,-0.10025 -0.178214,-0.0446 -0.378704,-0.0668 -0.189353,-0.0334 -0.367567,-0.0334 -0.913347,0 -1.414574,0.60147 -0.490089,0.59033 -0.746271,1.771 l -0.41212,1.82669 h 2.695487 l -0.367566,1.54824 h -2.695488 l -2.918255,13.64451 h -1.848971 l 2.940532,-13.64451 h -1.960355 l 0.34529,-1.54824 h 1.960355 l 0.456673,-2.11629 q 0.211629,-0.98018 0.590334,-1.67075 0.378705,-0.69058 0.902209,-1.12498 0.523504,-0.4344 1.180668,-0.63489 0.668303,-0.20049 1.459128,-0.20049 0.41212,0 0.801963,0.0668 0.400982,0.0668 0.679441,0.15594 z m 7.184254,0 q -0.111384,-0.0557 -0.267322,-0.10024 -0.155937,-0.0557 -0.334151,-0.10025 -0.178214,-0.0446 -0.378705,-0.0668 -0.189352,-0.0334 -0.367566,-0.0334 -0.913347,0 -1.414574,0.60147 -0.490089,0.59033 -0.746272,1.771 l -0.41212,1.82669 h 2.695488 l -0.367567,1.54824 h -2.695487 l -2.918255,13.64451 h -1.848971 l 2.940532,-13.64451 h -1.960355 l 0.34529,-1.54824 h 1.960354 l 0.456674,-2.11629 q 0.211629,-0.98018 0.590334,-1.67075 0.378705,-0.69058 0.902209,-1.12498 0.523503,-0.4344 1.180668,-0.63489 0.668303,-0.20049 1.459127,-0.20049 0.41212,0 0.801964,0.0668 0.400981,0.0668 0.679441,0.15594 z m 8.231262,6.57165 q 0,0.9022 -0.400982,1.64848 -0.400982,0.73513 -1.325467,1.26977 -0.924485,0.5235 -2.439305,0.8131 -1.514819,0.2896 -3.742495,0.30074 -0.02228,0.12252 -0.02228,0.25618 0,0.12252 0,0.22277 0,0.60147 0.167076,1.13611 0.167075,0.53465 0.512365,0.93563 0.356428,0.40098 0.902209,0.63488 0.556919,0.23391 1.314329,0.23391 0.768548,0 1.681895,-0.2896 0.924485,-0.30073 1.759864,-0.84651 l -0.34529,1.80441 q -0.612611,0.35643 -1.459128,0.62375 -0.846517,0.26732 -1.893524,0.26732 -1.258637,0 -2.12743,-0.38984 -0.857656,-0.38984 -1.392298,-1.03587 -0.523504,-0.65716 -0.75741,-1.50368 -0.233906,-0.85766 -0.233906,-1.79328 0,-1.00245 0.222768,-1.92694 0.222768,-0.93562 0.623749,-1.73759 0.41212,-0.80196 0.980178,-1.45912 0.568057,-0.66831 1.258636,-1.13612 0.69058,-0.46781 1.481405,-0.72399 0.790825,-0.25619 1.637341,-0.25619 0.879932,0 1.548235,0.23391 0.679441,0.23391 1.124976,0.64603 0.456674,0.40098 0.69058,0.93562 0.233906,0.53464 0.233906,1.13612 z m -1.86011,0.0891 q 0,-0.70172 -0.523503,-1.09156 -0.512366,-0.38984 -1.370021,-0.38984 -0.679441,0 -1.314329,0.30073 -0.634887,0.2896 -1.169529,0.81311 -0.534643,0.51236 -0.924486,1.23636 -0.389843,0.71285 -0.568057,1.54823 1.592788,0 2.706626,-0.15594 1.113838,-0.16707 1.815556,-0.47895 0.701717,-0.31187 1.02473,-0.75741 0.323013,-0.45667 0.323013,-1.02473 z m 10.826502,-0.82424 h -0.04455 q -0.222768,-0.13366 -0.590334,-0.25618 -0.356428,-0.13366 -0.712856,-0.13366 -0.646026,0 -1.23636,0.42326 -0.590335,0.41212 -1.080423,1.1027 -0.47895,0.67944 -0.846517,1.55937 -0.356428,0.87993 -0.556919,1.80442 l -1.069284,4.96771 h -1.826694 l 1.603926,-7.57409 q 0.100246,-0.46782 0.200491,-0.98018 0.100245,-0.51237 0.178214,-1.02473 0.08911,-0.51237 0.155937,-0.98018 0.06683,-0.46781 0.100246,-0.84652 h 1.804417 q -0.03342,0.33416 -0.07797,0.71286 -0.04455,0.36757 -0.08911,0.724 -0.04455,0.34528 -0.08911,0.63488 -0.04455,0.27846 -0.06683,0.4344 h 0.04455 q 0.356428,-0.63489 0.723994,-1.14725 0.367567,-0.51237 0.768548,-0.8688 0.41212,-0.36756 0.868794,-0.56805 0.456673,-0.2005 0.991316,-0.2005 0.311874,0 0.61261,0.0668 0.311875,0.0557 0.556919,0.12253 z"
       id="text994"
       transform="scale(1.0000531,0.9999469)"
       aria-label="buffer" /><path
       style="font-style:italic;font-size:22.8114px;line-height:1.25;font-family:'Charter ITC TT';-inkscape-font-specification:'Charter ITC TT Italic';letter-spacing:0px;word-spacing:0px;fill:#090909;stroke-width:1.28609"
       d="m -6.4500757,420.52885 q 0,0.66153 -0.4334166,1.07214 -0.4334166,0.38779 -1.14057,0.38779 h -0.114057 l -0.5930964,-1.23181 q -1.5739863,0.63871 -2.3039513,1.55117 -0.729965,0.91246 -1.026513,2.64612 l -0.935267,5.36068 h -1.916158 l 1.893346,-9.32986 -1.870535,-0.34217 v -0.57029 l 3.376088,-0.75277 h 0.456228 l -0.729965,3.12516 q 2.3267625,-3.14797 4.1288631,-3.14797 0.5246622,0 0.8668332,0.36498 0.342171,0.34217 0.342171,0.86683 z"
       id="text995"
       transform="scale(1.0000531,0.9999469)"
       aria-label="r" /><path
       style="font-size:14.964px;line-height:1.25;font-family:'Segoe UI';-inkscape-font-specification:'Segoe UI';text-align:end;letter-spacing:0px;word-spacing:0px;text-anchor:end;fill:#ffffff;stroke-width:1.28609"
       d="m 337.70254,462.59959 v -1.28597 q 0.97909,0.72336 2.15546,0.72336 1.57823,0 1.57823,-1.05216 0,-0.29957 -0.13882,-0.50416 -0.13152,-0.21189 -0.36534,-0.37264 -0.2265,-0.16074 -0.54069,-0.28496 -0.30688,-0.13151 -0.6649,-0.27034 -0.49685,-0.19728 -0.8768,-0.39456 -0.37264,-0.20459 -0.62837,-0.45301 -0.24843,-0.25573 -0.37995,-0.57723 -0.12421,-0.32149 -0.12421,-0.75258 0,-0.52608 0.24112,-0.92794 0.24112,-0.40917 0.64298,-0.67952 0.40187,-0.27765 0.91333,-0.41648 0.51878,-0.13883 1.06677,-0.13883 0.97179,0 1.73898,0.33611 v 1.2129 q -0.82565,-0.54069 -1.89972,-0.54069 -0.33611,0 -0.60645,0.0804 -0.27035,0.0731 -0.46763,0.2119 -0.18997,0.13882 -0.29957,0.3361 -0.10229,0.18997 -0.10229,0.42379 0,0.29226 0.10229,0.48954 0.1096,0.19728 0.31419,0.35072 0.20458,0.15344 0.49685,0.27765 0.29226,0.12422 0.6649,0.27035 0.49685,0.18997 0.89141,0.39456 0.39456,0.19728 0.67221,0.45301 0.27765,0.24843 0.42379,0.57722 0.15344,0.3288 0.15344,0.78181 0,0.55531 -0.24843,0.96448 -0.24112,0.40917 -0.65029,0.67952 -0.40917,0.27034 -0.94256,0.40186 -0.53338,0.13152 -1.11791,0.13152 -1.15445,0 -2.00202,-0.4457 z m 10.27313,0.19728 q -0.42378,0.23381 -1.11791,0.23381 -1.96549,0 -1.96549,-2.19199 v -4.42783 h -1.28597 v -1.02293 h 1.28597 v -1.82666 l 1.19829,-0.38725 v 2.21391 h 1.88511 v 1.02293 h -1.88511 v 4.21594 q 0,0.75258 0.25573,1.07407 0.25574,0.32149 0.84757,0.32149 0.45302,0 0.78181,-0.24842 z m 5.5019,-6.19603 q -0.31418,-0.24112 -0.90602,-0.24112 -0.7672,0 -1.28597,0.72335 -0.51146,0.72336 -0.51146,1.9728 v 3.81406 h -1.19829 v -7.482 h 1.19829 v 1.54171 h 0.0292 q 0.25574,-0.78912 0.78181,-1.22752 0.52608,-0.44571 1.17637,-0.44571 0.46763,0 0.71605,0.1023 z m 1.91435,-3.11263 q -0.3215,0 -0.548,-0.2192 -0.22651,-0.2192 -0.22651,-0.55531 0,-0.3361 0.22651,-0.5553 0.2265,-0.22651 0.548,-0.22651 0.32879,0 0.5553,0.22651 0.23381,0.2192 0.23381,0.5553 0,0.3215 -0.23381,0.548 -0.22651,0.22651 -0.5553,0.22651 z m 0.58453,9.38172 h -1.19829 v -7.482 h 1.19829 z m 8.8118,0 h -1.19829 v -1.27135 h -0.0292 q -0.83296,1.44671 -2.57194,1.44671 -1.41018,0 -2.25775,-1.00101 -0.84026,-1.00831 -0.84026,-2.73999 0,-1.85588 0.93525,-2.9738 0.93525,-1.11792 2.49156,-1.11792 1.5417,0 2.24314,1.21291 h 0.0292 v -4.63241 h 1.19829 z m -1.19829,-3.38297 v -1.1033 q 0,-0.90603 -0.59914,-1.5344 -0.59914,-0.62837 -1.51978,-0.62837 -1.096,0 -1.72437,0.80373 -0.62837,0.80373 -0.62837,2.22122 0,1.29328 0.59915,2.04586 0.60645,0.74528 1.62207,0.74528 1.00101,0 1.62207,-0.72336 0.62837,-0.72336 0.62837,-1.82666 z m 9.63746,-0.0584 h -5.2827 q 0.0292,1.24943 0.67221,1.92895 0.64299,0.67952 1.76821,0.67952 1.26405,0 2.32351,-0.83296 v 1.12522 q -0.98639,0.71605 -2.60847,0.71605 -1.58554,0 -2.49156,-1.01562 -0.90603,-1.02293 -0.90603,-2.87151 0,-1.74629 0.9864,-2.84228 0.9937,-1.10331 2.46234,-1.10331 1.46863,0 2.27236,0.94987 0.80373,0.94986 0.80373,2.6377 z m -1.22751,-1.01563 q -0.007,-1.03754 -0.50416,-1.61476 -0.48954,-0.57723 -1.36634,-0.57723 -0.84757,0 -1.43941,0.60645 -0.59184,0.60645 -0.73066,1.58554 z"
       id="text996"
       transform="scale(1.0000531,0.9999469)"
       aria-label="stride" /><path
       style="font-style:italic;font-size:22.8114px;line-height:1.25;font-family:'Charter ITC TT';-inkscape-font-specification:'Charter ITC TT Italic';letter-spacing:0px;word-spacing:0px;fill:#090909;stroke-width:1.28609"
       d="m 30.562035,418.36176 h -2.349574 q 0.296548,0.82121 0.296548,1.55118 0,1.34587 -0.729965,2.39519 -0.729965,1.04933 -1.984592,1.52837 -0.866833,0.31936 -2.189894,0.31936 -0.296548,0.52466 -0.296548,1.34587 l 3.627012,1.64242 q 1.77929,0.7984 1.77929,2.2127 0,1.3915 -1.642421,2.41801 -1.642421,1.02652 -3.877938,1.02652 -1.96178,0 -3.125162,-0.82121 -1.163381,-0.82121 -1.163381,-2.21271 0,-2.0074 3.033916,-3.17078 -0.02281,-0.1825 -0.02281,-0.3878 0,-1.04932 0.912455,-2.2127 -2.098648,-0.88965 -2.098648,-2.82862 0,-1.8021 1.30025,-3.07954 1.300249,-1.27743 3.125161,-1.27743 0.958079,0 2.144272,0.57028 h 3.26203 z m -3.855127,1.3915 q 0,-2.09865 -1.551175,-2.09865 -1.049324,0 -1.847723,1.16338 -0.775588,1.14057 -0.775588,2.62331 0,1.96178 1.505553,1.96178 1.072135,0 1.870534,-1.09495 0.798399,-1.09494 0.798399,-2.55487 z m 0.273737,10.10545 q 0,-0.86684 -1.30025,-1.45993 l -2.897047,-1.34588 q -2.075838,0.54748 -2.075838,2.25833 0,1.14057 0.866834,1.82491 0.866833,0.70716 2.258328,0.70716 1.323061,0 2.235517,-0.57029 0.912456,-0.57028 0.912456,-1.4143 z"
       id="text997"
       transform="scale(1.0000531,0.9999469)"
       aria-label="g" /><path
       style="font-style:italic;font-size:22.8114px;line-height:1.25;font-family:'Charter ITC TT';-inkscape-font-specification:'Charter ITC TT Italic';letter-spacing:0px;word-spacing:0px;fill:#ffffff;stroke-width:1.28609"
       d="m 65.019275,426.0264 q 0,3.05672 -1.847723,5.17818 -1.824912,2.09865 -4.493846,2.09865 -1.64242,0 -3.398898,-1.0037 l 2.668934,-14.37118 -1.984592,-0.34217 v -0.5931 l 3.467332,-0.68434 h 0.752777 q -0.342171,1.09495 -0.524663,2.09865 l -0.98089,5.36068 q 2.075838,-1.68805 3.398899,-1.68805 1.323061,0 2.12146,1.09495 0.82121,1.09495 0.82121,2.85143 z m -1.870534,0.18249 q 0,-1.27744 -0.524663,-2.0074 -0.50185,-0.72997 -1.391495,-0.72997 -0.958079,0 -2.714556,1.18619 l -1.30025,6.7978 q 0.98089,0.91246 2.007403,0.91246 1.528364,0 2.714556,-1.87054 1.209005,-1.87053 1.209005,-4.28854 z"
       id="text998"
       transform="scale(1.0000531,0.9999469)"
       aria-label="b" /><path
       style="font-style:italic;font-size:22.8114px;line-height:1.25;font-family:'Charter ITC TT';-inkscape-font-specification:'Charter ITC TT Italic';letter-spacing:0px;word-spacing:0px;fill:#ffffff;stroke-width:1.28609"
       d="m 100.93646,429.61918 q -1.984594,0.7984 -2.874239,0.7984 -1.323061,0 -1.323061,-1.91615 -1.847723,1.91615 -3.467332,1.91615 -1.414307,0 -2.258329,-1.07213 -0.82121,-1.07214 -0.82121,-2.91986 0,-3.01111 1.824912,-5.10976 1.824912,-2.12146 4.448222,-2.12146 1.163382,0 2.235518,0.52467 l 0.456228,-0.50185 h 1.186191 q -0.364981,0.72996 -0.866832,3.26203 l -0.82121,4.03761 q -0.228114,1.11776 -0.228114,1.61961 0,1.02652 1.163381,1.02652 0.342171,0 1.345875,-0.22812 z m -2.988296,-8.12085 -0.912456,-1.3915 q -0.159679,-0.0228 -0.364982,-0.0228 -1.96178,0 -3.284841,1.77929 -1.323062,1.75648 -1.323062,4.4026 0,2.76018 1.961781,2.76018 1.254627,0 2.737368,-1.50555 z"
       id="text999"
       transform="scale(1.0000531,0.9999469)"
       aria-label="a" /><path
       style="font-style:italic;font-size:22.8114px;line-height:1.25;font-family:'Charter ITC TT';-inkscape-font-specification:'Charter ITC TT Italic';letter-spacing:0px;word-spacing:0px;fill:#ffffff;stroke-width:1.28609"
       d="m 134.31016,421.70364 h -3.46733 l -1.18619,6.09064 q -0.13687,0.70715 -0.13687,1.04933 0,1.34587 1.39149,1.34587 0.84402,0 2.16709,-0.43342 v 0.72997 q -2.34958,1.0037 -3.58139,1.0037 -1.84773,0 -1.84773,-2.05303 0,-0.63872 0.18249,-1.55117 l 1.23182,-6.18189 -1.41431,0.11405 v -0.68434 l 1.66523,-0.72996 1.14057,-2.28114 h 1.04933 l -0.47904,2.6005 h 3.28484 z"
       id="text1000"
       transform="scale(1.0000531,0.9999469)"
       aria-label="t" /><path
       style="font-style:italic;font-size:22.8114px;line-height:1.25;font-family:'Charter ITC TT';-inkscape-font-specification:'Charter ITC TT Italic';letter-spacing:0px;word-spacing:0px;fill:#090909;stroke-width:1.28609"
       d="m 172.09785,431.46877 h -11.4057 v -1.32306 h 11.4057 z"
       id="text1001"
       transform="scale(1.0000531,0.9999469)"
       aria-label="_" /><path
       style="font-style:italic;font-size:22.8114px;line-height:1.25;font-family:'Charter ITC TT';-inkscape-font-specification:'Charter ITC TT Italic';letter-spacing:0px;word-spacing:0px;fill:#090909;stroke-width:1.28609"
       d="m 207.51318,431.46877 h -11.4057 v -1.32306 h 11.4057 z"
       id="text1002"
       transform="scale(1.0000531,0.9999469)"
       aria-label="_" /><path
       style="font-style:italic;font-size:22.8114px;line-height:1.25;font-family:'Charter ITC TT';-inkscape-font-specification:'Charter ITC TT Italic';letter-spacing:0px;word-spacing:0px;fill:#090909;stroke-width:1.28609"
       d="m 242.9285,431.46877 h -11.4057 v -1.32306 h 11.4057 z"
       id="text1003"
       transform="scale(1.0000531,0.9999469)"
       aria-label="_" /><path
       style="fill:none;stroke:#ffffff;stroke-width:1.51181;stroke-linejoin:round;stroke-dasharray:none;stroke-opacity:1"
       d="m -10.846747,392.6958 v -7.99457 H 237.79107 v 7.99457"
       id="path1003" /><path
       style="font-size:14.964px;line-height:1.25;font-family:'Segoe UI';-inkscape-font-specification:'Segoe UI';text-align:end;letter-spacing:0px;word-spacing:0px;text-anchor:end;fill:#ffffff;stroke-width:1.28609"
       d="m -5.6885731,368.13584 q -0.3507187,-0.19728 -0.7964238,-0.19728 -1.2567422,0 -1.2567422,1.58554 v 1.15445 h 1.7535938 v 1.02293 h -1.7535938 v 6.45907 h -1.1909824 v -6.45907 h -1.2786625 v -1.02293 h 1.2786625 v -1.2129 q 0,-1.17637 0.6795176,-1.85589 0.6795176,-0.68682 1.6951406,-0.68682 0.547998,0 0.8694902,0.13152 z m 1.6001543,0.64299 q -0.3214922,0 -0.5479981,-0.2192 -0.2265058,-0.2192 -0.2265058,-0.55531 0,-0.3361 0.2265058,-0.5553 0.2265059,-0.22651 0.5479981,-0.22651 0.3287988,0 0.5553047,0.22651 0.2338125,0.2192 0.2338125,0.5553 0,0.32149 -0.2338125,0.548 -0.2265059,0.22651 -0.5553047,0.22651 z m 0.5845312,9.38172 h -1.198289 v -7.482 h 1.198289 z m 6.327551,-6.26909 q -0.3141855,-0.24112 -0.9060234,-0.24112 -0.7671973,0 -1.28596874,0.72335 -0.51146483,0.72336 -0.51146483,1.9728 v 3.81406 H -1.0780826 v -7.482 h 1.19828903 v 1.5417 h 0.0292266 q 0.25573242,-0.78911 0.78181053,-1.22751 0.52607804,-0.44571 1.17636904,-0.44571 0.467625,0 0.7160508,0.1023 z m 0.84757,5.99875 v -1.28597 q 0.9790898,0.72336 2.1554589,0.72336 1.5782344,0 1.5782344,-1.05216 0,-0.29957 -0.1388262,-0.50416 -0.1315195,-0.21189 -0.365332,-0.37264 -0.2265059,-0.16074 -0.5406914,-0.28496 -0.3068789,-0.13152 -0.6649043,-0.27034 -0.4968515,-0.19728 -0.8767968,-0.39456 -0.3726387,-0.20459 -0.6283711,-0.45301 -0.2484258,-0.25573 -0.3799453,-0.57723 -0.1242129,-0.32149 -0.1242129,-0.75258 0,-0.52608 0.2411191,-0.92794 0.2411192,-0.40918 0.6429844,-0.67952 0.4018652,-0.27765 0.91333,-0.41648 0.5187715,-0.13883 1.0667696,-0.13883 0.9717831,0 1.7389804,0.33611 v 1.2129 q -0.8256504,-0.54069 -1.8997265,-0.54069 -0.3361055,0 -0.6064512,0.0804 -0.2703457,0.0731 -0.467625,0.2119 -0.1899726,0.13882 -0.2995722,0.3361 -0.102293,0.18997 -0.102293,0.42379 0,0.29226 0.102293,0.48954 0.1095996,0.19728 0.3141855,0.35072 0.2045859,0.15344 0.4968515,0.27765 0.2922657,0.12422 0.6649043,0.27035 0.4968516,0.18997 0.8914102,0.39456 0.3945586,0.19728 0.6722109,0.45301 0.2776523,0.24842 0.4237852,0.57722 0.1534394,0.3288 0.1534394,0.78181 0,0.55531 -0.2484258,0.96448 -0.2411191,0.40917 -0.650291,0.67952 -0.4091718,0.27034 -0.9425566,0.40186 -0.5333848,0.13152 -1.117916,0.13152 -1.1544492,0 -2.0020195,-0.4457 z m 10.2731366,0.19728 q -0.423785,0.23381 -1.117916,0.23381 -1.965486,0 -1.965486,-2.19199 v -4.42783 H 9.5749994 v -1.02293 h 1.2859686 v -1.82666 l 1.198289,-0.38725 v 2.21391 h 1.885113 v 1.02293 h -1.885113 v 4.21593 q 0,0.75259 0.255733,1.07408 0.255732,0.32149 0.84757,0.32149 0.453012,0 0.78181,-0.24842 z m 6.312938,-9.30866 q -0.321492,0 -0.547998,-0.2192 -0.226506,-0.2192 -0.226506,-0.55531 0,-0.3361 0.226506,-0.5553 0.226506,-0.22651 0.547998,-0.22651 0.328799,0 0.555305,0.22651 0.233812,0.2192 0.233812,0.5553 0,0.32149 -0.233812,0.548 -0.226506,0.22651 -0.555305,0.22651 z m 0.584531,9.38172 H 19.64355 v -7.482 h 1.198289 z m 8.63645,0 H 28.28 v -4.26708 q 0,-2.38196 -1.738981,-2.38196 -0.898716,0 -1.490554,0.67952 -0.584532,0.67221 -0.584532,1.70244 v 4.26708 h -1.198289 v -7.482 h 1.198289 v 1.24213 h 0.02923 q 0.84757,-1.41749 2.455031,-1.41749 1.227516,0 1.877807,0.79643 0.650291,0.78911 0.650291,2.28698 z m 1.804739,-0.27034 v -1.28597 q 0.97909,0.72336 2.155459,0.72336 1.578234,0 1.578234,-1.05216 0,-0.29957 -0.138826,-0.50416 -0.13152,-0.21189 -0.365332,-0.37264 -0.226506,-0.16074 -0.540691,-0.28496 -0.306879,-0.13152 -0.664905,-0.27034 -0.496851,-0.19728 -0.876797,-0.39456 -0.372638,-0.20459 -0.628371,-0.45301 -0.248425,-0.25573 -0.379945,-0.57723 -0.124213,-0.32149 -0.124213,-0.75258 0,-0.52608 0.241119,-0.92794 0.241119,-0.40918 0.642985,-0.67952 0.401865,-0.27765 0.91333,-0.41648 0.518771,-0.13883 1.066769,-0.13883 0.971783,0 1.738981,0.33611 v 1.2129 q -0.825651,-0.54069 -1.899727,-0.54069 -0.336105,0 -0.606451,0.0804 -0.270346,0.0731 -0.467625,0.2119 -0.189973,0.13882 -0.299572,0.3361 -0.102293,0.18997 -0.102293,0.42379 0,0.29226 0.102293,0.48954 0.109599,0.19728 0.314185,0.35072 0.204586,0.15344 0.496852,0.27765 0.292265,0.12422 0.664904,0.27035 0.496852,0.18997 0.89141,0.39456 0.394559,0.19728 0.672211,0.45301 0.277653,0.24842 0.423785,0.57722 0.15344,0.3288 0.15344,0.78181 0,0.55531 -0.248426,0.96448 -0.241119,0.40917 -0.650291,0.67952 -0.409172,0.27034 -0.942557,0.40186 -0.533384,0.13152 -1.117916,0.13152 -1.154449,0 -2.002019,-0.4457 z m 10.273138,0.19728 q -0.423785,0.23381 -1.117916,0.23381 -1.965486,0 -1.965486,-2.19199 v -4.42783 h -1.285969 v -1.02293 h 1.285969 v -1.82666 l 1.198289,-0.38725 v 2.21391 h 1.885113 v 1.02293 h -1.885113 v 4.21593 q 0,0.75259 0.255732,1.07408 0.255732,0.32149 0.84757,0.32149 0.453012,0 0.781811,-0.24842 z m 6.955922,0.0731 h -1.19829 v -1.16906 h -0.02923 q -0.781811,1.34442 -2.301592,1.34442 -1.117916,0 -1.753594,-0.59184 -0.628371,-0.59183 -0.628371,-1.57092 0,-2.09701 2.469645,-2.44042 l 2.243138,-0.31419 q 0,-1.90703 -1.541701,-1.90703 -1.351728,0 -2.440418,0.92064 v -1.22752 q 1.103303,-0.70144 2.542711,-0.70144 2.637698,0 2.637698,2.79114 z m -1.19829,-3.78484 -1.80474,0.24843 q -0.832957,0.11691 -1.256742,0.41648 -0.423785,0.29226 -0.423785,1.04485 0,0.548 0.387252,0.89871 0.394559,0.34342 1.04485,0.34342 0.89141,0 1.468634,-0.62107 0.584531,-0.62837 0.584531,-1.58554 z m 9.666684,3.78484 h -1.198289 v -4.26708 q 0,-2.38196 -1.73898,-2.38196 -0.898717,0 -1.490555,0.67952 -0.584531,0.67221 -0.584531,1.70244 v 4.26708 h -1.198289 v -7.482 h 1.198289 v 1.24213 h 0.02923 q 0.847571,-1.41749 2.455032,-1.41749 1.227515,0 1.877806,0.79643 0.650291,0.78911 0.650291,2.28698 z m 7.35779,-0.34341 q -0.862184,0.51877 -2.045859,0.51877 -1.600155,0 -2.586551,-1.03754 -0.97909,-1.04485 -0.97909,-2.70346 0,-1.84858 1.059463,-2.96649 1.059463,-1.12523 2.82767,-1.12523 0.986396,0 1.73898,0.36534 v 1.22751 q -0.832957,-0.58453 -1.78282,-0.58453 -1.147143,0 -1.885113,0.82565 -0.730664,0.81834 -0.730664,2.15546 0,1.31519 0.686824,2.07509 0.694131,0.75989 1.855887,0.75989 0.979089,0 1.841273,-0.6503 z m 7.825409,-3.09801 H 66.88098 q 0.02923,1.24943 0.672211,1.92895 0.642984,0.67952 1.768207,0.67952 1.264048,0 2.323511,-0.83296 v 1.12522 q -0.986396,0.71605 -2.60847,0.71605 -1.585541,0 -2.491565,-1.01562 -0.906023,-1.02293 -0.906023,-2.87151 0,-1.74629 0.986396,-2.84228 0.993703,-1.10331 2.462338,-1.10331 1.468635,0 2.272365,0.94987 0.803731,0.94986 0.803731,2.63769 z m -1.227516,-1.01563 q -0.0073,-1.03754 -0.504158,-1.61477 -0.489545,-0.57722 -1.366342,-0.57722 -0.84757,0 -1.439408,0.60645 -0.591838,0.60645 -0.730664,1.58554 z m 10.265831,4.63241 q -1.658607,0 -2.65231,-1.04485 -0.986397,-1.05215 -0.986397,-2.78383 0,-1.88511 1.030237,-2.94457 1.030236,-1.05947 2.78383,-1.05947 1.67322,0 2.60847,1.03024 0.942557,1.03024 0.942557,2.8569 0,1.79012 -1.015623,2.87151 -1.008316,1.07407 -2.710764,1.07407 z m 0.08768,-6.8244 q -1.154449,0 -1.82666,0.78912 -0.672211,0.78181 -0.672211,2.16276 0,1.32981 0.679518,2.09701 0.679517,0.7672 1.819353,0.7672 1.161756,0 1.78282,-0.75259 0.628371,-0.75258 0.628371,-2.14084 0,-1.40288 -0.628371,-2.16277 -0.621064,-0.75989 -1.78282,-0.75989 z m 9.250206,-3.37567 q -0.350719,-0.19728 -0.796424,-0.19728 -1.256742,0 -1.256742,1.58554 v 1.15445 h 1.753593 v 1.02293 h -1.753593 v 6.45907 h -1.190983 v -6.45907 h -1.278662 v -1.02293 h 1.278662 v -1.2129 q 0,-1.17637 0.679518,-1.85589 0.679517,-0.68682 1.69514,-0.68682 0.547998,0 0.869491,0.13152 z m 8.556071,9.95165 q -0.423785,0.23381 -1.117916,0.23381 -1.965486,0 -1.965486,-2.19199 v -4.42783 h -1.285969 v -1.02293 h 1.285969 v -1.82666 l 1.198289,-0.38725 v 2.21391 h 1.885113 v 1.02293 H 97.21084 v 4.21593 q 0,0.75259 0.255732,1.07408 0.255733,0.32149 0.847571,0.32149 0.453011,0 0.78181,-0.24842 z m 7.810807,0.0731 h -1.19829 v -4.31091 q 0,-2.33813 -1.73898,-2.33813 -0.8768,0 -1.47594,0.67952 -0.59915,0.67221 -0.59915,1.73167 v 4.23785 h -1.19829 v -11.07686 h 1.19829 v 4.83699 h 0.0292 q 0.86218,-1.41749 2.45503,-1.41749 2.5281,0 2.5281,3.04687 z m 8.27111,-3.44142 h -5.2827 q 0.0292,1.24943 0.67221,1.92895 0.64299,0.67952 1.76821,0.67952 1.26405,0 2.32351,-0.83296 v 1.12522 q -0.9864,0.71605 -2.60847,0.71605 -1.58554,0 -2.49157,-1.01562 -0.90602,-1.02293 -0.90602,-2.87151 0,-1.74629 0.9864,-2.84228 0.9937,-1.10331 2.46234,-1.10331 1.46863,0 2.27236,0.94987 0.80373,0.94986 0.80373,2.63769 z m -1.22751,-1.01563 q -0.007,-1.03754 -0.50416,-1.61477 -0.48955,-0.57722 -1.36634,-0.57722 -0.84757,0 -1.43941,0.60645 -0.59184,0.60645 -0.73067,1.58554 z m 17.98163,4.45705 h -1.22021 v -7.02899 q 0,-0.83295 0.1023,-2.03855 h -0.0292 q -0.17536,0.70875 -0.31419,1.01563 l -3.58025,8.05191 h -0.59914 l -3.57295,-7.99346 q -0.15344,-0.35072 -0.31419,-1.07408 h -0.0292 q 0.0584,0.62837 0.0584,2.05317 v 7.01437 h -1.18368 v -10.47772 h 1.62208 l 3.21492,7.30664 q 0.37264,0.84026 0.48224,1.25674 h 0.0438 q 0.31418,-0.86218 0.50416,-1.28597 l 3.28068,-7.27741 h 1.53439 z m 8.54878,-7.482 -3.44143,8.68029 q -0.92063,2.32351 -2.58655,2.32351 -0.46762,0 -0.78181,-0.095 v -1.07408 q 0.38725,0.13152 0.70874,0.13152 0.90603,0 1.35904,-1.08138 l 0.59914,-1.41749 -2.92265,-7.46739 h 1.32981 l 2.02394,5.75764 q 0.0365,0.1096 0.15344,0.56991 h 0.0438 q 0.0365,-0.17536 0.14613,-0.5553 l 2.12623,-5.77225 z m 9.11137,3.24415 q 0,4.41321 -3.98211,4.41321 -3.81407,0 -3.81407,-4.24516 v -6.40792 h 1.22751 v 6.32755 q 0,3.22223 2.71808,3.22223 2.62308,0 2.62308,-3.11263 v -6.43715 h 1.22751 z m 8.66568,4.23785 h -1.19829 v -4.26708 q 0,-2.38196 -1.73898,-2.38196 -0.89872,0 -1.49056,0.67952 -0.58453,0.67221 -0.58453,1.70244 v 4.26708 h -1.19829 v -7.482 h 1.19829 v 1.24213 h 0.0292 q 0.84757,-1.41749 2.45503,-1.41749 1.22752,0 1.87781,0.79643 0.65029,0.78911 0.65029,2.28698 z m 2.87151,-9.38172 q -0.32149,0 -0.548,-0.2192 -0.2265,-0.2192 -0.2265,-0.55531 0,-0.3361 0.2265,-0.5553 0.22651,-0.22651 0.548,-0.22651 0.3288,0 0.55531,0.22651 0.23381,0.2192 0.23381,0.5553 0,0.32149 -0.23381,0.548 -0.22651,0.22651 -0.55531,0.22651 z m 0.58453,9.38172 h -1.19829 v -7.482 h 1.19829 z m 6.12297,-10.02471 q -0.35072,-0.19728 -0.79642,-0.19728 -1.25674,0 -1.25674,1.58554 v 1.15445 h 1.75359 v 1.02293 h -1.75359 v 6.45907 h -1.19099 v -6.45907 h -1.27866 v -1.02293 h 1.27866 v -1.2129 q 0,-1.17637 0.67952,-1.85589 0.67952,-0.68682 1.69514,-0.68682 0.548,0 0.86949,0.13152 z m 4.11363,10.20007 q -1.6586,0 -2.65231,-1.04485 -0.98639,-1.05215 -0.98639,-2.78383 0,-1.88511 1.03023,-2.94457 1.03024,-1.05947 2.78383,-1.05947 1.67322,0 2.60847,1.03024 0.94256,1.03024 0.94256,2.8569 0,1.79012 -1.01562,2.87151 -1.00832,1.07407 -2.71077,1.07407 z m 0.0877,-6.8244 q -1.15445,0 -1.82666,0.78912 -0.67221,0.78181 -0.67221,2.16276 0,1.32981 0.67952,2.09701 0.67952,0.7672 1.81935,0.7672 1.16176,0 1.78282,-0.75259 0.62837,-0.75258 0.62837,-2.14084 0,-1.40288 -0.62837,-2.16277 -0.62106,-0.75989 -1.78282,-0.75989 z m 9.4548,0.37995 q -0.31418,-0.24112 -0.90602,-0.24112 -0.7672,0 -1.28597,0.72335 -0.51147,0.72336 -0.51147,1.9728 v 3.81406 h -1.19828 v -7.482 h 1.19828 v 1.5417 h 0.0292 q 0.25573,-0.78911 0.78181,-1.22751 0.52608,-0.44571 1.17637,-0.44571 0.46763,0 0.71605,0.1023 z m 11.92444,6.26909 h -1.19829 v -4.2963 q 0,-1.24213 -0.38725,-1.79744 -0.37994,-0.5553 -1.28597,-0.5553 -0.76719,0 -1.30789,0.70144 -0.53338,0.70144 -0.53338,1.68052 v 4.26708 h -1.19829 v -4.44243 q 0,-2.20661 -1.70245,-2.20661 -0.78911,0 -1.30058,0.6649 -0.51146,0.6576 -0.51146,1.71706 v 4.26708 h -1.19829 v -7.482 h 1.19829 v 1.18368 h 0.0292 q 0.79643,-1.35904 2.32351,-1.35904 0.7672,0 1.33712,0.4311 0.56992,0.42378 0.78181,1.11791 0.83296,-1.54901 2.48426,-1.54901 2.46964,0 2.46964,3.04687 z m 5.91107,-0.27034 v -1.28597 q 0.97909,0.72336 2.15545,0.72336 1.57824,0 1.57824,-1.05216 0,-0.29957 -0.13883,-0.50416 -0.13152,-0.21189 -0.36533,-0.37264 -0.22651,-0.16074 -0.54069,-0.28496 -0.30688,-0.13152 -0.6649,-0.27034 -0.49686,-0.19728 -0.8768,-0.39456 -0.37264,-0.20459 -0.62837,-0.45301 -0.24843,-0.25573 -0.37995,-0.57723 -0.12421,-0.32149 -0.12421,-0.75258 0,-0.52608 0.24112,-0.92794 0.24112,-0.40918 0.64298,-0.67952 0.40187,-0.27765 0.91333,-0.41648 0.51877,-0.13883 1.06677,-0.13883 0.97179,0 1.73898,0.33611 v 1.2129 q -0.82565,-0.54069 -1.89972,-0.54069 -0.33611,0 -0.60646,0.0804 -0.27034,0.0731 -0.46762,0.2119 -0.18997,0.13882 -0.29957,0.3361 -0.1023,0.18997 -0.1023,0.42379 0,0.29226 0.1023,0.48954 0.1096,0.19728 0.31418,0.35072 0.20459,0.15344 0.49685,0.27765 0.29227,0.12422 0.66491,0.27035 0.49685,0.18997 0.89141,0.39456 0.39456,0.19728 0.67221,0.45301 0.27765,0.24842 0.42379,0.57722 0.15343,0.3288 0.15343,0.78181 0,0.55531 -0.24842,0.96448 -0.24112,0.40917 -0.65029,0.67952 -0.40917,0.27034 -0.94256,0.40186 -0.53338,0.13152 -1.11791,0.13152 -1.15445,0 -2.00202,-0.4457 z m 10.27313,0.19728 q -0.42378,0.23381 -1.11791,0.23381 -1.96549,0 -1.96549,-2.19199 v -4.42783 h -1.28597 v -1.02293 h 1.28597 v -1.82666 l 1.19829,-0.38725 v 2.21391 h 1.88511 v 1.02293 h -1.88511 v 4.21593 q 0,0.75259 0.25573,1.07408 0.25574,0.32149 0.84757,0.32149 0.45301,0 0.78181,-0.24842 z m 5.50191,-6.19603 q -0.31418,-0.24112 -0.90602,-0.24112 -0.7672,0 -1.28597,0.72335 -0.51147,0.72336 -0.51147,1.9728 v 3.81406 h -1.19828 v -7.482 h 1.19828 v 1.5417 h 0.0292 q 0.25573,-0.78911 0.78181,-1.22751 0.52608,-0.44571 1.17637,-0.44571 0.46763,0 0.71605,0.1023 z m 7.35049,6.26909 h -1.19829 v -1.18367 h -0.0292 q -0.74528,1.35903 -2.3089,1.35903 -2.67423,0 -2.67423,-3.18569 v -4.47167 h 1.19098 v 4.28169 q 0,2.36736 1.81205,2.36736 0.8768,0 1.43941,-0.64299 0.56992,-0.65029 0.56992,-1.69514 v -4.31092 h 1.19829 z m 7.51852,-0.34341 q -0.86219,0.51877 -2.04586,0.51877 -1.60016,0 -2.58655,-1.03754 -0.97909,-1.04485 -0.97909,-2.70346 0,-1.84858 1.05946,-2.96649 1.05946,-1.12523 2.82767,-1.12523 0.9864,0 1.73898,0.36534 v 1.22751 q -0.83296,-0.58453 -1.78282,-0.58453 -1.14714,0 -1.88511,0.82565 -0.73067,0.81834 -0.73067,2.15546 0,1.31519 0.68683,2.07509 0.69413,0.75989 1.85588,0.75989 0.97909,0 1.84128,-0.6503 z m 5.28271,0.27035 q -0.42379,0.23381 -1.11792,0.23381 -1.96548,0 -1.96548,-2.19199 v -4.42783 h -1.28597 v -1.02293 h 1.28597 v -1.82666 l 1.19829,-0.38725 v 2.21391 h 1.88511 v 1.02293 h -1.88511 v 4.21593 q 0,0.75259 0.25573,1.07408 0.25573,0.32149 0.84757,0.32149 0.45301,0 0.78181,-0.24842 z"
       id="text1004"
       transform="scale(1.0000531,0.9999469)"
       aria-label="first instance of the MyUniform struct" /><path
       id="rect1004"
       style="fill:#ffc26d;stroke-width:1.51181;stroke-linejoin:round"
       d="m 310.0658,408.67694 h 32.21299 v 32.21299 H 310.0658 Z" /><path
       id="rect1005"
       style="fill:#ff9b54;stroke-width:1.51181;stroke-linejoin:round"
       d="m 345.48297,408.67694 h 32.21299 v 32.21299 h -32.21299 z" /><path
       id="rect1006"
       style="fill:#ce4257;stroke-width:1.51181;stroke-linejoin:round"
       d="m 380.90018,408.67694 h 32.21299 v 32.21299 h -32.21299 z" /><path
       id="rect1007"
       style="fill:#720026;stroke-width:1.51181;stroke-linejoin:round"
       d="m 416.31738,408.67694 h 32.213 v 32.21299 h -32.213 z" /><path
       id="rect1008"
       style="fill:#4f000b;stroke-width:1.51181;stroke-linejoin:round"
       d="m 451.73459,408.67694 h 32.21299 v 32.21299 h -32.21299 z" /><path
       id="rect1009"
       style="fill:#aaaaaa;stroke-width:1.51181;stroke-linejoin:round"
       d="m 487.15179,408.67694 h 32.213 v 32.21299 h -32.213 z" /><path
       id="rect1010"
       style="fill:#aaaaaa;stroke-width:1.51181;stroke-linejoin:round"
       d="m 522.56903,408.67694 h 32.21299 v 32.21299 h -32.21299 z" /><path
       id="rect1011"
       style="fill:#aaaaaa;stroke-width:1.51181;stroke-linejoin:round"
       d="m 557.98621,408.67694 h 32.21299 v 32.21299 h -32.21299 z" /><path
       style="font-style:italic;font-size:22.8114px;line-height:1.25;font-family:'Charter ITC TT';-inkscape-font-specification:'Charter ITC TT Italic';letter-spacing:0px;word-spacing:0px;fill:#090909;stroke-width:1.28609"
       d="m 330.38649,420.52885 q 0,0.66153 -0.43342,1.07214 -0.43341,0.38779 -1.14057,0.38779 h -0.11405 l -0.5931,-1.23181 q -1.57399,0.63871 -2.30395,1.55117 -0.72996,0.91246 -1.02651,2.64612 l -0.93527,5.36068 h -1.91616 l 1.89335,-9.32986 -1.87054,-0.34217 v -0.57029 l 3.37609,-0.75277 h 0.45623 l -0.72997,3.12516 q 2.32677,-3.14797 4.12887,-3.14797 0.52466,0 0.86683,0.36498 0.34217,0.34217 0.34217,0.86683 z"
       id="text1011"
       transform="scale(1.0000531,0.9999469)"
       aria-label="r" /><path
       style="font-style:italic;font-size:22.8114px;line-height:1.25;font-family:'Charter ITC TT';-inkscape-font-specification:'Charter ITC TT Italic';letter-spacing:0px;word-spacing:0px;fill:#090909;stroke-width:1.28609"
       d="m 367.3986,418.36176 h -2.34957 q 0.29654,0.82121 0.29654,1.55118 0,1.34587 -0.72996,2.39519 -0.72997,1.04933 -1.98459,1.52837 -0.86684,0.31936 -2.1899,0.31936 -0.29655,0.52466 -0.29655,1.34587 l 3.62702,1.64242 q 1.77929,0.7984 1.77929,2.2127 0,1.3915 -1.64242,2.41801 -1.64242,1.02652 -3.87794,1.02652 -1.96178,0 -3.12516,-0.82121 -1.16339,-0.82121 -1.16339,-2.21271 0,-2.0074 3.03392,-3.17078 -0.0228,-0.1825 -0.0228,-0.3878 0,-1.04932 0.91246,-2.2127 -2.09865,-0.88965 -2.09865,-2.82862 0,-1.8021 1.30025,-3.07954 1.30025,-1.27743 3.12516,-1.27743 0.95808,0 2.14427,0.57028 h 3.26203 z m -3.85513,1.3915 q 0,-2.09865 -1.55117,-2.09865 -1.04933,0 -1.84773,1.16338 -0.77558,1.14057 -0.77558,2.62331 0,1.96178 1.50555,1.96178 1.07214,0 1.87053,-1.09495 0.7984,-1.09494 0.7984,-2.55487 z m 0.27374,10.10545 q 0,-0.86684 -1.30025,-1.45993 l -2.89705,-1.34588 q -2.07583,0.54748 -2.07583,2.25833 0,1.14057 0.86683,1.82491 0.86683,0.70716 2.25833,0.70716 1.32306,0 2.23551,-0.57029 0.91246,-0.57028 0.91246,-1.4143 z"
       id="text1012"
       transform="scale(1.0000531,0.9999469)"
       aria-label="g" /><path
       style="font-style:italic;font-size:22.8114px;line-height:1.25;font-family:'Charter ITC TT';-inkscape-font-specification:'Charter ITC TT Italic';letter-spacing:0px;word-spacing:0px;fill:#ffffff;stroke-width:1.28609"
       d="m 401.85586,426.0264 q 0,3.05672 -1.84773,5.17818 -1.82491,2.09865 -4.49384,2.09865 -1.64242,0 -3.3989,-1.0037 l 2.66893,-14.37118 -1.98459,-0.34217 v -0.5931 l 3.46733,-0.68434 h 0.75278 q -0.34217,1.09495 -0.52466,2.09865 l -0.98089,5.36068 q 2.07584,-1.68805 3.3989,-1.68805 1.32306,0 2.12146,1.09495 0.82121,1.09495 0.82121,2.85143 z m -1.87054,0.18249 q 0,-1.27744 -0.52466,-2.0074 -0.50185,-0.72997 -1.39149,-0.72997 -0.95808,0 -2.71456,1.18619 l -1.30025,6.7978 q 0.98089,0.91246 2.0074,0.91246 1.52837,0 2.71456,-1.87054 1.209,-1.87053 1.209,-4.28854 z"
       id="text1013"
       transform="scale(1.0000531,0.9999469)"
       aria-label="b" /><path
       style="font-style:italic;font-size:22.8114px;line-height:1.25;font-family:'Charter ITC TT';-inkscape-font-specification:'Charter ITC TT Italic';letter-spacing:0px;word-spacing:0px;fill:#ffffff;stroke-width:1.28609"
       d="m 437.77301,429.61918 q -1.98459,0.7984 -2.87423,0.7984 -1.32306,0 -1.32306,-1.91615 -1.84773,1.91615 -3.46734,1.91615 -1.4143,0 -2.25833,-1.07213 -0.82121,-1.07214 -0.82121,-2.91986 0,-3.01111 1.82492,-5.10976 1.82491,-2.12146 4.44822,-2.12146 1.16338,0 2.23552,0.52467 l 0.45622,-0.50185 h 1.1862 q -0.36499,0.72996 -0.86684,3.26203 l -0.82121,4.03761 q -0.22811,1.11776 -0.22811,1.61961 0,1.02652 1.16338,1.02652 0.34217,0 1.34587,-0.22812 z m -2.98829,-8.12085 -0.91246,-1.3915 q -0.15968,-0.0228 -0.36498,-0.0228 -1.96178,0 -3.28484,1.77929 -1.32306,1.75648 -1.32306,4.4026 0,2.76018 1.96178,2.76018 1.25463,0 2.73737,-1.50555 z"
       id="text1014"
       transform="scale(1.0000531,0.9999469)"
       aria-label="a" /><path
       style="font-style:italic;font-size:22.8114px;line-height:1.25;font-family:'Charter ITC TT';-inkscape-font-specification:'Charter ITC TT Italic';letter-spacing:0px;word-spacing:0px;fill:#ffffff;stroke-width:1.28609"
       d="m 471.14675,421.70364 h -3.46734 l -1.18619,6.09064 q -0.13687,0.70715 -0.13687,1.04933 0,1.34587 1.3915,1.34587 0.84402,0 2.16708,-0.43342 v 0.72997 q -2.34957,1.0037 -3.58139,1.0037 -1.84772,0 -1.84772,-2.05303 0,-0.63872 0.18249,-1.55117 l 1.23182,-6.18189 -1.41431,0.11405 v -0.68434 l 1.66523,-0.72996 1.14057,-2.28114 h 1.04932 l -0.47903,2.6005 h 3.28484 z"
       id="text1015"
       transform="scale(1.0000531,0.9999469)"
       aria-label="t" /><path
       style="font-style:italic;font-size:22.8114px;line-height:1.25;font-family:'Charter ITC TT';-inkscape-font-specification:'Charter ITC TT Italic';letter-spacing:0px;word-spacing:0px;fill:#090909;stroke-width:1.28609"
       d="m 508.93445,431.46877 h -11.4057 v -1.32306 h 11.4057 z"
       id="text1016"
       transform="scale(1.0000531,0.9999469)"
       aria-label="_" /><path
       style="font-style:italic;font-size:22.8114px;line-height:1.25;font-family:'Charter ITC TT';-inkscape-font-specification:'Charter ITC TT Italic';letter-spacing:0px;word-spacing:0px;fill:#090909;stroke-width:1.28609"
       d="m 544.34973,431.46877 h -11.4057 v -1.32306 h 11.4057 z"
       id="text1017"
       transform="scale(1.0000531,0.9999469)"
       aria-label="_" /><path
       style="font-style:italic;font-size:22.8114px;line-height:1.25;font-family:'Charter ITC TT';-inkscape-font-specification:'Charter ITC TT Italic';letter-spacing:0px;word-spacing:0px;fill:#090909;stroke-width:1.28609"
       d="m 579.76514,431.46877 h -11.4057 v -1.32306 h 11.4057 z"
       id="text1018"
       transform="scale(1.0000531,0.9999469)"
       aria-label="_" /><path
       style="fill:none;stroke:#ffffff;stroke-width:1.51181;stroke-linejoin:round;stroke-dasharray:none;stroke-opacity:1"
       d="m 326.00772,392.6958 v -7.99457 h 248.63781 v 7.99457"
       id="path1018" /><path
       style="font-size:14.964px;line-height:1.25;font-family:'Segoe UI';-inkscape-font-specification:'Segoe UI';text-align:end;letter-spacing:0px;word-spacing:0px;text-anchor:end;fill:#ffffff;stroke-width:1.28609"
       d="m 316.24824,377.89021 v -1.28597 q 0.97909,0.72336 2.15546,0.72336 1.57824,0 1.57824,-1.05216 0,-0.29957 -0.13883,-0.50416 -0.13152,-0.21189 -0.36533,-0.37264 -0.22651,-0.16074 -0.54069,-0.28496 -0.30688,-0.13152 -0.66491,-0.27034 -0.49685,-0.19728 -0.87679,-0.39456 -0.37264,-0.20459 -0.62837,-0.45301 -0.24843,-0.25573 -0.37995,-0.57723 -0.12421,-0.32149 -0.12421,-0.75258 0,-0.52608 0.24112,-0.92794 0.24112,-0.40918 0.64298,-0.67952 0.40187,-0.27765 0.91333,-0.41648 0.51877,-0.13883 1.06677,-0.13883 0.97178,0 1.73898,0.33611 v 1.2129 q -0.82565,-0.54069 -1.89972,-0.54069 -0.33611,0 -0.60646,0.0804 -0.27034,0.0731 -0.46762,0.2119 -0.18997,0.13882 -0.29957,0.3361 -0.1023,0.18997 -0.1023,0.42379 0,0.29226 0.1023,0.48954 0.1096,0.19728 0.31418,0.35072 0.20459,0.15344 0.49685,0.27765 0.29227,0.12422 0.66491,0.27035 0.49685,0.18997 0.89141,0.39456 0.39456,0.19728 0.67221,0.45301 0.27765,0.24842 0.42378,0.57722 0.15344,0.3288 0.15344,0.78181 0,0.55531 -0.24842,0.96448 -0.24112,0.40917 -0.65029,0.67952 -0.40918,0.27034 -0.94256,0.40186 -0.53338,0.13152 -1.11792,0.13152 -1.15444,0 -2.00202,-0.4457 z m 12.81585,-3.17108 h -5.2827 q 0.0292,1.24943 0.67221,1.92895 0.64299,0.67952 1.76821,0.67952 1.26405,0 2.32351,-0.83296 v 1.12522 q -0.9864,0.71605 -2.60847,0.71605 -1.58554,0 -2.49156,-1.01562 -0.90603,-1.02293 -0.90603,-2.87151 0,-1.74629 0.9864,-2.84228 0.9937,-1.10331 2.46234,-1.10331 1.46863,0 2.27236,0.94987 0.80373,0.94986 0.80373,2.63769 z m -1.22751,-1.01563 q -0.007,-1.03754 -0.50416,-1.61477 -0.48955,-0.57722 -1.36634,-0.57722 -0.84757,0 -1.43941,0.60645 -0.59184,0.60645 -0.73067,1.58554 z m 8.13959,4.11364 q -0.86218,0.51877 -2.04585,0.51877 -1.60016,0 -2.58656,-1.03754 -0.97909,-1.04485 -0.97909,-2.70346 0,-1.84858 1.05947,-2.96649 1.05946,-1.12523 2.82767,-1.12523 0.98639,0 1.73898,0.36534 v 1.22751 q -0.83296,-0.58453 -1.78282,-0.58453 -1.14715,0 -1.88512,0.82565 -0.73066,0.81834 -0.73066,2.15546 0,1.31519 0.68682,2.07509 0.69414,0.75989 1.85589,0.75989 0.97909,0 1.84127,-0.6503 z m 4.93929,0.51877 q -1.65861,0 -2.65231,-1.04485 -0.98639,-1.05215 -0.98639,-2.78383 0,-1.88511 1.03023,-2.94457 1.03024,-1.05947 2.78383,-1.05947 1.67322,0 2.60847,1.03024 0.94256,1.03024 0.94256,2.8569 0,1.79012 -1.01562,2.87151 -1.00832,1.07407 -2.71077,1.07407 z m 0.0877,-6.8244 q -1.15445,0 -1.82666,0.78912 -0.67221,0.78181 -0.67221,2.16276 0,1.32981 0.67952,2.09701 0.67952,0.7672 1.81935,0.7672 1.16176,0 1.78282,-0.75259 0.62837,-0.75258 0.62837,-2.14084 0,-1.40288 -0.62837,-2.16277 -0.62106,-0.75989 -1.78282,-0.75989 z m 11.76369,6.64904 h -1.19829 v -4.26708 q 0,-2.38196 -1.73898,-2.38196 -0.89871,0 -1.49055,0.67952 -0.58453,0.67221 -0.58453,1.70244 v 4.26708 h -1.19829 v -7.482 h 1.19829 v 1.24213 h 0.0292 q 0.84758,-1.41749 2.45504,-1.41749 1.22751,0 1.8778,0.79643 0.65029,0.78911 0.65029,2.28698 z m 8.64376,0 h -1.19829 v -1.27135 h -0.0292 q -0.83295,1.44671 -2.57193,1.44671 -1.41018,0 -2.25775,-1.00101 -0.84027,-1.00831 -0.84027,-2.73999 0,-1.85588 0.93525,-2.9738 0.93525,-1.11792 2.49157,-1.11792 1.5417,0 2.24313,1.21291 h 0.0292 v -4.63241 h 1.19829 z m -1.19829,-3.38297 v -1.1033 q 0,-0.90603 -0.59914,-1.5344 -0.59915,-0.62837 -1.51978,-0.62837 -1.096,0 -1.72437,0.80373 -0.62837,0.80373 -0.62837,2.22122 0,1.29327 0.59914,2.04586 0.60645,0.74528 1.62208,0.74528 1.00101,0 1.62207,-0.72336 0.62837,-0.72336 0.62837,-1.82666 z m 8.33688,-5.99875 q -0.3215,0 -0.548,-0.2192 -0.22651,-0.2192 -0.22651,-0.55531 0,-0.3361 0.22651,-0.5553 0.2265,-0.22651 0.548,-0.22651 0.32879,0 0.5553,0.22651 0.23381,0.2192 0.23381,0.5553 0,0.32149 -0.23381,0.548 -0.22651,0.22651 -0.5553,0.22651 z m 0.58453,9.38172 h -1.19829 v -7.482 h 1.19829 z m 8.63645,0 h -1.19829 v -4.26708 q 0,-2.38196 -1.73898,-2.38196 -0.89872,0 -1.49056,0.67952 -0.58453,0.67221 -0.58453,1.70244 v 4.26708 h -1.19829 v -7.482 h 1.19829 v 1.24213 h 0.0292 q 0.84757,-1.41749 2.45503,-1.41749 1.22752,0 1.87781,0.79643 0.65029,0.78911 0.65029,2.28698 z m 1.80474,-0.27034 v -1.28597 q 0.97909,0.72336 2.15546,0.72336 1.57823,0 1.57823,-1.05216 0,-0.29957 -0.13883,-0.50416 -0.13152,-0.21189 -0.36533,-0.37264 -0.2265,-0.16074 -0.54069,-0.28496 -0.30688,-0.13152 -0.6649,-0.27034 -0.49685,-0.19728 -0.8768,-0.39456 -0.37264,-0.20459 -0.62837,-0.45301 -0.24843,-0.25573 -0.37995,-0.57723 -0.12421,-0.32149 -0.12421,-0.75258 0,-0.52608 0.24112,-0.92794 0.24112,-0.40918 0.64298,-0.67952 0.40187,-0.27765 0.91333,-0.41648 0.51878,-0.13883 1.06677,-0.13883 0.97179,0 1.73898,0.33611 v 1.2129 q -0.82565,-0.54069 -1.89972,-0.54069 -0.33611,0 -0.60645,0.0804 -0.27035,0.0731 -0.46763,0.2119 -0.18997,0.13882 -0.29957,0.3361 -0.10229,0.18997 -0.10229,0.42379 0,0.29226 0.10229,0.48954 0.1096,0.19728 0.31418,0.35072 0.20459,0.15344 0.49686,0.27765 0.29226,0.12422 0.6649,0.27035 0.49685,0.18997 0.89141,0.39456 0.39456,0.19728 0.67221,0.45301 0.27765,0.24842 0.42379,0.57722 0.15344,0.3288 0.15344,0.78181 0,0.55531 -0.24843,0.96448 -0.24112,0.40917 -0.65029,0.67952 -0.40917,0.27034 -0.94256,0.40186 -0.53338,0.13152 -1.11791,0.13152 -1.15445,0 -2.00202,-0.4457 z m 10.27314,0.19728 q -0.42379,0.23381 -1.11792,0.23381 -1.96549,0 -1.96549,-2.19199 v -4.42783 h -1.28597 v -1.02293 h 1.28597 v -1.82666 l 1.19829,-0.38725 v 2.21391 h 1.88512 v 1.02293 h -1.88512 v 4.21593 q 0,0.75259 0.25573,1.07408 0.25574,0.32149 0.84757,0.32149 0.45302,0 0.78182,-0.24842 z m 6.95592,0.0731 h -1.19829 v -1.16906 h -0.0292 q -0.78181,1.34442 -2.30159,1.34442 -1.11792,0 -1.75359,-0.59184 -0.62838,-0.59183 -0.62838,-1.57092 0,-2.09701 2.46965,-2.44042 l 2.24314,-0.31419 q 0,-1.90703 -1.5417,-1.90703 -1.35173,0 -2.44042,0.92064 v -1.22752 q 1.1033,-0.70144 2.54271,-0.70144 2.6377,0 2.6377,2.79114 z m -1.19829,-3.78484 -1.80474,0.24843 q -0.83296,0.11691 -1.25674,0.41648 -0.42379,0.29226 -0.42379,1.04485 0,0.548 0.38725,0.89871 0.39456,0.34342 1.04485,0.34342 0.89141,0 1.46864,-0.62107 0.58453,-0.62837 0.58453,-1.58554 z m 9.66668,3.78484 h -1.19829 v -4.26708 q 0,-2.38196 -1.73898,-2.38196 -0.89871,0 -1.49055,0.67952 -0.58453,0.67221 -0.58453,1.70244 v 4.26708 h -1.19829 v -7.482 H 400.26 v 1.24213 h 0.0292 q 0.84757,-1.41749 2.45503,-1.41749 1.22752,0 1.87781,0.79643 0.65029,0.78911 0.65029,2.28698 z m 7.35779,-0.34341 q -0.86218,0.51877 -2.04586,0.51877 -1.60015,0 -2.58655,-1.03754 -0.97909,-1.04485 -0.97909,-2.70346 0,-1.84858 1.05946,-2.96649 1.05947,-1.12523 2.82767,-1.12523 0.9864,0 1.73898,0.36534 v 1.22751 q -0.83295,-0.58453 -1.78282,-0.58453 -1.14714,0 -1.88511,0.82565 -0.73066,0.81834 -0.73066,2.15546 0,1.31519 0.68682,2.07509 0.69413,0.75989 1.85589,0.75989 0.97909,0 1.84127,-0.6503 z m 7.82541,-3.09801 h -5.2827 q 0.0292,1.24943 0.67221,1.92895 0.64298,0.67952 1.76821,0.67952 1.26405,0 2.32351,-0.83296 v 1.12522 q -0.9864,0.71605 -2.60847,0.71605 -1.58554,0 -2.49157,-1.01562 -0.90602,-1.02293 -0.90602,-2.87151 0,-1.74629 0.9864,-2.84228 0.9937,-1.10331 2.46233,-1.10331 1.46864,0 2.27237,0.94987 0.80373,0.94986 0.80373,2.63769 z m -1.22752,-1.01563 q -0.007,-1.03754 -0.50415,-1.61477 -0.48955,-0.57722 -1.36635,-0.57722 -0.84757,0 -1.4394,0.60645 -0.59184,0.60645 -0.73067,1.58554 z m 10.26584,4.63241 q -1.65861,0 -2.65231,-1.04485 -0.9864,-1.05215 -0.9864,-2.78383 0,-1.88511 1.03024,-2.94457 1.03023,-1.05947 2.78383,-1.05947 1.67322,0 2.60847,1.03024 0.94255,1.03024 0.94255,2.8569 0,1.79012 -1.01562,2.87151 -1.00832,1.07407 -2.71076,1.07407 z m 0.0877,-6.8244 q -1.15445,0 -1.82666,0.78912 -0.67222,0.78181 -0.67222,2.16276 0,1.32981 0.67952,2.09701 0.67952,0.7672 1.81936,0.7672 1.16175,0 1.78282,-0.75259 0.62837,-0.75258 0.62837,-2.14084 0,-1.40288 -0.62837,-2.16277 -0.62107,-0.75989 -1.78282,-0.75989 z m 9.2502,-3.37567 q -0.35072,-0.19728 -0.79642,-0.19728 -1.25675,0 -1.25675,1.58554 v 1.15445 h 1.7536 v 1.02293 h -1.7536 v 6.45907 h -1.19098 v -6.45907 h -1.27866 v -1.02293 h 1.27866 v -1.2129 q 0,-1.17637 0.67952,-1.85589 0.67952,-0.68682 1.69514,-0.68682 0.548,0 0.86949,0.13152 z m 8.55607,9.95165 q -0.42378,0.23381 -1.11791,0.23381 -1.96549,0 -1.96549,-2.19199 v -4.42783 h -1.28597 v -1.02293 h 1.28597 v -1.82666 l 1.19829,-0.38725 v 2.21391 h 1.88511 v 1.02293 h -1.88511 v 4.21593 q 0,0.75259 0.25573,1.07408 0.25573,0.32149 0.84757,0.32149 0.45301,0 0.78181,-0.24842 z m 7.81081,0.0731 h -1.19829 v -4.31091 q 0,-2.33813 -1.73898,-2.33813 -0.8768,0 -1.47594,0.67952 -0.59915,0.67221 -0.59915,1.73167 v 4.23785 h -1.19829 v -11.07686 h 1.19829 v 4.83699 h 0.0292 q 0.86218,-1.41749 2.45503,-1.41749 2.5281,0 2.5281,3.04687 z m 8.27112,-3.44142 h -5.2827 q 0.0292,1.24943 0.67221,1.92895 0.64298,0.67952 1.76821,0.67952 1.26404,0 2.32351,-0.83296 v 1.12522 q -0.9864,0.71605 -2.60847,0.71605 -1.58554,0 -2.49157,-1.01562 -0.90602,-1.02293 -0.90602,-2.87151 0,-1.74629 0.9864,-2.84228 0.9937,-1.10331 2.46233,-1.10331 1.46864,0 2.27237,0.94987 0.80373,0.94986 0.80373,2.63769 z m -1.22752,-1.01563 q -0.007,-1.03754 -0.50416,-1.61477 -0.48954,-0.57722 -1.36634,-0.57722 -0.84757,0 -1.43941,0.60645 -0.59183,0.60645 -0.73066,1.58554 z m 17.98163,4.45705 h -1.22021 v -7.02899 q 0,-0.83295 0.1023,-2.03855 h -0.0292 q -0.17536,0.70875 -0.31419,1.01563 l -3.58025,8.05191 h -0.59915 l -3.57294,-7.99346 q -0.15344,-0.35072 -0.31419,-1.07408 h -0.0292 q 0.0584,0.62837 0.0584,2.05317 v 7.01437 h -1.18368 v -10.47772 h 1.62208 l 3.21492,7.30664 q 0.37264,0.84026 0.48224,1.25674 h 0.0438 q 0.31418,-0.86218 0.50416,-1.28597 l 3.28068,-7.27741 h 1.53439 z m 8.54878,-7.482 -3.44143,8.68029 q -0.92064,2.32351 -2.58655,2.32351 -0.46762,0 -0.78181,-0.095 v -1.07408 q 0.38725,0.13152 0.70874,0.13152 0.90603,0 1.35904,-1.08138 l 0.59914,-1.41749 -2.92265,-7.46739 h 1.32981 l 2.02394,5.75764 q 0.0365,0.1096 0.15343,0.56991 h 0.0438 q 0.0365,-0.17536 0.14614,-0.5553 l 2.12623,-5.77225 z m 9.11137,3.24415 q 0,4.41321 -3.98212,4.41321 -3.81406,0 -3.81406,-4.24516 v -6.40792 h 1.22751 v 6.32755 q 0,3.22223 2.71807,3.22223 2.62309,0 2.62309,-3.11263 v -6.43715 h 1.22751 z m 8.66568,4.23785 h -1.19829 v -4.26708 q 0,-2.38196 -1.73898,-2.38196 -0.89872,0 -1.49056,0.67952 -0.58453,0.67221 -0.58453,1.70244 v 4.26708 h -1.19829 v -7.482 h 1.19829 v 1.24213 h 0.0292 q 0.84757,-1.41749 2.45503,-1.41749 1.22752,0 1.87781,0.79643 0.65029,0.78911 0.65029,2.28698 z m 2.87151,-9.38172 q -0.32149,0 -0.548,-0.2192 -0.2265,-0.2192 -0.2265,-0.55531 0,-0.3361 0.2265,-0.5553 0.22651,-0.22651 0.548,-0.22651 0.3288,0 0.5553,0.22651 0.23382,0.2192 0.23382,0.5553 0,0.32149 -0.23382,0.548 -0.2265,0.22651 -0.5553,0.22651 z m 0.58453,9.38172 h -1.19829 v -7.482 h 1.19829 z m 6.12297,-10.02471 q -0.35072,-0.19728 -0.79642,-0.19728 -1.25674,0 -1.25674,1.58554 v 1.15445 h 1.75359 v 1.02293 h -1.75359 v 6.45907 h -1.19099 v -6.45907 h -1.27866 v -1.02293 h 1.27866 v -1.2129 q 0,-1.17637 0.67952,-1.85589 0.67952,-0.68682 1.69514,-0.68682 0.548,0 0.86949,0.13152 z m 4.11363,10.20007 q -1.65861,0 -2.65231,-1.04485 -0.98639,-1.05215 -0.98639,-2.78383 0,-1.88511 1.03023,-2.94457 1.03024,-1.05947 2.78383,-1.05947 1.67322,0 2.60847,1.03024 0.94256,1.03024 0.94256,2.8569 0,1.79012 -1.01562,2.87151 -1.00832,1.07407 -2.71077,1.07407 z m 0.0877,-6.8244 q -1.15445,0 -1.82666,0.78912 -0.67221,0.78181 -0.67221,2.16276 0,1.32981 0.67952,2.09701 0.67952,0.7672 1.81935,0.7672 1.16176,0 1.78282,-0.75259 0.62837,-0.75258 0.62837,-2.14084 0,-1.40288 -0.62837,-2.16277 -0.62106,-0.75989 -1.78282,-0.75989 z m 9.4548,0.37995 q -0.31418,-0.24112 -0.90602,-0.24112 -0.7672,0 -1.28597,0.72335 -0.51147,0.72336 -0.51147,1.9728 v 3.81406 h -1.19829 v -7.482 h 1.19829 v 1.5417 h 0.0292 q 0.25573,-0.78911 0.78181,-1.22751 0.52608,-0.44571 1.17637,-0.44571 0.46763,0 0.71605,0.1023 z m 11.92444,6.26909 h -1.19829 v -4.2963 q 0,-1.24213 -0.38725,-1.79744 -0.37994,-0.5553 -1.28597,-0.5553 -0.7672,0 -1.30789,0.70144 -0.53338,0.70144 -0.53338,1.68052 v 4.26708 h -1.19829 v -4.44243 q 0,-2.20661 -1.70245,-2.20661 -0.78911,0 -1.30058,0.6649 -0.51146,0.6576 -0.51146,1.71706 v 4.26708 h -1.19829 v -7.482 h 1.19829 v 1.18368 h 0.0292 q 0.79643,-1.35904 2.32351,-1.35904 0.7672,0 1.33712,0.4311 0.56992,0.42378 0.78181,1.11791 0.83296,-1.54901 2.48426,-1.54901 2.46964,0 2.46964,3.04687 z m 5.91107,-0.27034 v -1.28597 q 0.97908,0.72336 2.15545,0.72336 1.57824,0 1.57824,-1.05216 0,-0.29957 -0.13883,-0.50416 -0.13152,-0.21189 -0.36533,-0.37264 -0.22651,-0.16074 -0.54069,-0.28496 -0.30688,-0.13152 -0.66491,-0.27034 -0.49685,-0.19728 -0.87679,-0.39456 -0.37264,-0.20459 -0.62837,-0.45301 -0.24843,-0.25573 -0.37995,-0.57723 -0.12421,-0.32149 -0.12421,-0.75258 0,-0.52608 0.24112,-0.92794 0.24112,-0.40918 0.64298,-0.67952 0.40187,-0.27765 0.91333,-0.41648 0.51877,-0.13883 1.06677,-0.13883 0.97178,0 1.73898,0.33611 v 1.2129 q -0.82565,-0.54069 -1.89972,-0.54069 -0.33611,0 -0.60646,0.0804 -0.27034,0.0731 -0.46762,0.2119 -0.18997,0.13882 -0.29957,0.3361 -0.1023,0.18997 -0.1023,0.42379 0,0.29226 0.1023,0.48954 0.1096,0.19728 0.31418,0.35072 0.20459,0.15344 0.49685,0.27765 0.29227,0.12422 0.66491,0.27035 0.49685,0.18997 0.89141,0.39456 0.39456,0.19728 0.67221,0.45301 0.27765,0.24842 0.42378,0.57722 0.15344,0.3288 0.15344,0.78181 0,0.55531 -0.24842,0.96448 -0.24112,0.40917 -0.65029,0.67952 -0.40917,0.27034 -0.94256,0.40186 -0.53338,0.13152 -1.11792,0.13152 -1.15444,0 -2.00201,-0.4457 z m 10.27313,0.19728 q -0.42378,0.23381 -1.11791,0.23381 -1.96549,0 -1.96549,-2.19199 v -4.42783 h -1.28597 v -1.02293 h 1.28597 v -1.82666 l 1.19829,-0.38725 v 2.21391 h 1.88511 v 1.02293 h -1.88511 v 4.21593 q 0,0.75259 0.25573,1.07408 0.25573,0.32149 0.84757,0.32149 0.45301,0 0.78181,-0.24842 z m 5.50191,-6.19603 q -0.31418,-0.24112 -0.90602,-0.24112 -0.7672,0 -1.28597,0.72335 -0.51147,0.72336 -0.51147,1.9728 v 3.81406 h -1.19829 v -7.482 h 1.19829 v 1.5417 h 0.0292 q 0.25573,-0.78911 0.78181,-1.22751 0.52608,-0.44571 1.17637,-0.44571 0.46763,0 0.71605,0.1023 z m 7.35048,6.26909 h -1.19828 v -1.18367 h -0.0292 q -0.74528,1.35903 -2.3089,1.35903 -2.67423,0 -2.67423,-3.18569 v -4.47167 h 1.19098 v 4.28169 q 0,2.36736 1.81205,2.36736 0.8768,0 1.43941,-0.64299 0.56992,-0.65029 0.56992,-1.69514 v -4.31092 h 1.19828 z m 7.51853,-0.34341 q -0.86219,0.51877 -2.04586,0.51877 -1.60016,0 -2.58655,-1.03754 -0.97909,-1.04485 -0.97909,-2.70346 0,-1.84858 1.05946,-2.96649 1.05946,-1.12523 2.82767,-1.12523 0.98639,0 1.73898,0.36534 v 1.22751 q -0.83296,-0.58453 -1.78282,-0.58453 -1.14714,0 -1.88512,0.82565 -0.73066,0.81834 -0.73066,2.15546 0,1.31519 0.68683,2.07509 0.69413,0.75989 1.85588,0.75989 0.97909,0 1.84128,-0.6503 z m 5.28269,0.27035 q -0.42378,0.23381 -1.11791,0.23381 -1.96549,0 -1.96549,-2.19199 v -4.42783 h -1.28597 v -1.02293 h 1.28597 v -1.82666 l 1.19829,-0.38725 v 2.21391 h 1.88511 v 1.02293 h -1.88511 v 4.21593 q 0,0.75259 0.25573,1.07408 0.25573,0.32149 0.84757,0.32149 0.45301,0 0.78181,-0.24842 z"
       id="text1019"
       transform="scale(1.0000531,0.9999469)"
       aria-label="second instance of the MyUniform struct" /><path
       style="font-style:italic;font-size:22.8114px;line-height:1.25;font-family:'Charter ITC TT';-inkscape-font-specification:'Charter ITC TT Italic';letter-spacing:0px;word-spacing:0px;fill:#090909;stroke-width:1.28609"
       d="m 276.70601,424.81738 q 0,0.57028 -0.4106,0.95808 -0.3878,0.38779 -0.95808,0.38779 -0.57029,0 -0.95808,-0.38779 -0.38779,-0.3878 -0.38779,-0.95808 0,-0.5931 0.38779,-0.98089 0.41061,-0.3878 0.98089,-0.3878 0.57029,0 0.95808,0.41061 0.38779,0.38779 0.38779,0.95808 z m 6.34157,0 q 0,0.57028 -0.41061,0.95808 -0.38779,0.38779 -0.95807,0.38779 -0.57029,0 -0.95808,-0.38779 -0.3878,-0.3878 -0.3878,-0.95808 0,-0.5931 0.3878,-0.98089 0.4106,-0.3878 0.98089,-0.3878 0.57028,0 0.95808,0.41061 0.38779,0.38779 0.38779,0.95808 z m 6.34157,0 q 0,0.57028 -0.41061,0.95808 -0.38779,0.38779 -0.95808,0.38779 -0.57028,0 -0.95808,-0.38779 -0.38779,-0.3878 -0.38779,-0.95808 0,-0.5931 0.38779,-0.98089 0.41061,-0.3878 0.98089,-0.3878 0.57029,0 0.95808,0.41061 0.3878,0.38779 0.3878,0.95808 z"
       id="text1020"
       transform="scale(1.0000531,0.9999469)"
       aria-label="..." /></g></svg>
