<?xml version="1.0" encoding="UTF-8" standalone="no"?>
<svg
   id="Logo"
   width="700"
   height="700"
   viewBox="0 0 700 700"
   version="1.1"
   sodipodi:docname="favicon.svg"
   inkscape:export-filename="favicon512.png"
   inkscape:export-xdpi="24"
   inkscape:export-ydpi="24"
   inkscape:version="1.2 (dc2aedaf03, 2022-05-15)"
   xmlns:inkscape="http://www.inkscape.org/namespaces/inkscape"
   xmlns:sodipodi="http://sodipodi.sourceforge.net/DTD/sodipodi-0.dtd"
   xmlns="http://www.w3.org/2000/svg"
   xmlns:svg="http://www.w3.org/2000/svg">
  <sodipodi:namedview
     id="namedview13"
     pagecolor="#ffffff"
     bordercolor="#666666"
     borderopacity="1.0"
     inkscape:showpageshadow="2"
     inkscape:pageopacity="0.0"
     inkscape:pagecheckerboard="0"
     inkscape:deskcolor="#d1d1d1"
     showgrid="false"
     inkscape:zoom="0.68610442"
     inkscape:cx="368.01979"
     inkscape:cy="285.6708"
     inkscape:window-width="1920"
     inkscape:window-height="1017"
     inkscape:window-x="-8"
     inkscape:window-y="-8"
     inkscape:window-maximized="1"
     inkscape:current-layer="Logo"
     showguides="true">
    <sodipodi:guide
       position="927.6459,612.4475"
       orientation="0,-1"
       id="guide2786"
       inkscape:locked="false" />
  </sodipodi:namedview>
  <defs
     id="defs4">
    <style
       id="style2">
     .cls-1, .cls-2, .cls-3, .cls-4, .cls-5 {
        fill-rule: evenodd;
        stroke-linejoin: round;
      }

      .cls-6 {
        fill-rule: evenodd;
      }

      .cls-1 {
        fill: #005a9c;
        stroke: #005a9c;
      }

      .cls-2 {
        fill: #0066b0;
        stroke: #0066b0;
      }

      .cls-3 {
        fill: #0076cc;
        stroke: #0076cc;
      }

      .cls-4 {
        fill: #0086e8;
        stroke: #0086e8;
      }

      .cls-5 {
        fill: #0093ff;
        stroke: #0093ff;
      }

      @media (prefers-color-scheme: dark) {
        .cls-6 {
          fill: #eeeeee;
        }
      }
    </style>
  </defs>
  <g
     id="g334"
     transform="translate(-7.3130194,-86.778201)">
    <path
       id="Triangle_4"
       data-name="Triangle 4"
       class="cls-4"
       d="m 628.07752,296.0525 -60.189,-104.25 h 120.55 z" />
    <path
       id="Triangle_5"
       data-name="Triangle 5"
       class="cls-5"
       d="m 628.07752,87.5535 -60.189,104.25 h 120.55 z" />
    <path
       id="Triangle_3"
       data-name="Triangle 3"
       class="cls-3"
       d="m 507.70752,504.5525 -120.38,-208.5 240.76,-0.002 z" />
    <path
       id="Triangle_2"
       data-name="Triangle 2"
       class="cls-2"
       d="m 507.70752,87.5525 -120.38,208.5 240.76,-0.002 z" />
    <path
       id="Triangle_1"
       data-name="Triangle 1"
       class="cls-1"
       d="m 266.94752,504.5525 -240.760001,-417 H 507.69752 Z" />
  </g>
  <g
     id="g1565"
     transform="matrix(2.4906147,0,0,2.4906147,-1802.6381,-995.55881)"
     style="stroke-width:0.401508">
    <rect
       x="748.84491"
       y="558.09924"
       width="230.91"
       height="122.68"
       rx="21.974001"
       ry="21.974001"
       fill="#0093ff"
       id="rect1374"
       style="stroke-width:0.18049" />
    <g
       fill="#eeeeee"
       stroke-width="0.610371"
       aria-label="C++"
       id="g1382"
       transform="translate(656.91193,-63.600769)">
      <path
         d="m 181.95,654.12 q 0,1.1795 -0.39317,2.9206 -0.39316,1.7412 -1.0672,2.7522 -0.61783,1.011 -1.348,1.011 -0.78633,0 -1.8535,-1.011 -1.0672,-1.0672 -2.8645,-2.2467 -1.7973,-1.2357 -4.6618,-2.2467 -2.8083,-1.0672 -7.077,-1.0672 -4.718,0 -8.5935,1.7973 -3.8755,1.7412 -7.0208,4.7742 -3.0892,2.9768 -5.4482,6.9085 -2.359,3.9317 -3.9317,8.2565 -1.5165,4.2686 -2.3028,8.6496 -0.7863,4.381 -0.78633,8.3126 0,4.4933 1.1233,8.0318 1.1233,3.4823 3.2576,5.8975 2.1343,2.4152 5.2235,3.6508 3.0892,1.2357 7.0208,1.2357 4.381,0 7.5263,-0.95483 3.2015,-1.011 5.4482,-2.1905 2.3028,-1.2357 3.8193,-2.1905 1.5165,-1.011 2.4713,-1.011 0.61783,0 0.89867,0.44934 0.28083,0.44933 0.28083,1.348 0,0.28084 -0.11233,0.8425 -0.0562,0.5055 -0.1685,1.1233 -0.11234,0.61783 -0.28084,1.348 -0.11233,0.73016 -0.337,1.4042 -0.22466,0.61783 -0.50549,1.1795 -0.22467,0.50549 -0.8425,1.0672 -0.56167,0.56166 -2.4713,1.685 -1.8535,1.0672 -4.6056,2.0782 -2.696,0.95484 -6.1222,1.6288 -3.37,0.73017 -7.1893,0.73017 -5.729,0 -10.335,-1.685 -4.6056,-1.7412 -7.8633,-5.055 -3.2015,-3.37 -4.9988,-8.3126 -1.7412,-4.9988 -1.7412,-11.458 0,-5.3358 1.1233,-10.952 1.1233,-5.6728 3.3138,-11.009 2.1905,-5.3358 5.4482,-10.054 3.3138,-4.718 7.6386,-8.2565 4.381,-3.5947 9.8291,-5.6167 5.4482,-2.0782 11.963,-2.0782 4.1002,0 7.6386,0.95483 3.5946,0.89867 6.1222,2.3028 2.5275,1.4042 3.6508,2.5275 1.1233,1.0672 1.1233,2.5275 z"
         id="path1376"
         style="stroke-width:0.610371" />
      <path
         d="m 232.55,685.18 q 0,0.337 -0.11233,0.89867 -0.0562,0.56166 -0.22467,1.2357 -0.11233,0.674 -0.39317,1.348 -0.22466,0.67399 -0.56166,1.2357 -0.337,0.5055 -0.8425,0.8425 -0.44933,0.337 -1.011,0.337 h -18.423 l -4.1563,20.445 q -0.0562,0.44934 -0.337,0.78633 -0.28083,0.28084 -0.8425,0.5055 -0.50549,0.22467 -1.348,0.39317 -0.78633,0.11233 -1.9658,0.11233 -1.1233,0 -1.9097,-0.11233 -0.78633,-0.1685 -1.2357,-0.39317 -0.39317,-0.22466 -0.56167,-0.5055 -0.1685,-0.33699 -0.11233,-0.78633 l 4.1563,-20.445 h -18.423 q -0.674,0 -1.1233,-0.44934 -0.39317,-0.50549 -0.39317,-1.685 0,-0.337 0.0562,-0.89867 0.0562,-0.61783 0.1685,-1.2918 0.1685,-0.674 0.39316,-1.2918 0.28083,-0.674 0.56167,-1.1795 0.337,-0.56167 0.78633,-0.89866 0.5055,-0.337 1.0672,-0.337 h 18.479 l 4.1002,-20.445 q 0.11233,-0.44933 0.39316,-0.78633 0.28083,-0.39317 0.78633,-0.61783 0.56167,-0.28084 1.4042,-0.39317 0.84249,-0.1685 1.9658,-0.1685 1.1795,0 1.9097,0.1685 0.78634,0.11233 1.2357,0.39317 0.44933,0.22466 0.56166,0.61783 0.1685,0.337 0.0562,0.78633 l -4.1002,20.445 h 18.479 q 0.73017,0 1.1233,0.56166 0.39317,0.5055 0.39317,1.5727 z"
         id="path1378"
         style="stroke-width:0.610371" />
      <path
         d="m 290.69,685.18 q 0,0.337 -0.11233,0.89867 -0.0562,0.56166 -0.22467,1.2357 -0.11233,0.674 -0.39316,1.348 -0.22467,0.67399 -0.56167,1.2357 -0.337,0.5055 -0.8425,0.8425 -0.44933,0.337 -1.011,0.337 h -18.423 l -4.1563,20.445 q -0.0562,0.44934 -0.337,0.78633 -0.28083,0.28084 -0.84249,0.5055 -0.5055,0.22467 -1.348,0.39317 -0.78633,0.11233 -1.9658,0.11233 -1.1233,0 -1.9097,-0.11233 -0.78633,-0.1685 -1.2357,-0.39317 -0.39317,-0.22466 -0.56167,-0.5055 -0.1685,-0.33699 -0.11233,-0.78633 l 4.1563,-20.445 h -18.423 q -0.674,0 -1.1233,-0.44934 -0.39317,-0.50549 -0.39317,-1.685 0,-0.337 0.0562,-0.89867 0.0562,-0.61783 0.1685,-1.2918 0.1685,-0.674 0.39316,-1.2918 0.28084,-0.674 0.56167,-1.1795 0.337,-0.56167 0.78633,-0.89866 0.5055,-0.337 1.0672,-0.337 h 18.479 l 4.1002,-20.445 q 0.11233,-0.44933 0.39316,-0.78633 0.28084,-0.39317 0.78633,-0.61783 0.56167,-0.28084 1.4042,-0.39317 0.8425,-0.1685 1.9658,-0.1685 1.1795,0 1.9097,0.1685 0.78633,0.11233 1.2357,0.39317 0.44933,0.22466 0.56166,0.61783 0.1685,0.337 0.0562,0.78633 l -4.1002,20.445 h 18.479 q 0.73016,0 1.1233,0.56166 0.39316,0.5055 0.39316,1.5727 z"
         id="path1380"
         style="stroke-width:0.610371" />
    </g>
  </g>
</svg>
