<?xml version="1.0" encoding="UTF-8" standalone="no"?>
<!-- Created with Inkscape (http://www.inkscape.org/) -->

<svg
   version="1.1"
   id="svg761"
   width="750"
   height="211.338"
   viewBox="0 0 749.99999 211.338"
   xml:space="preserve"
   xmlns="http://www.w3.org/2000/svg"
   xmlns:svg="http://www.w3.org/2000/svg"><defs
     id="defs765" /><g
     id="layer2"
     transform="translate(-82.444851,-98.892602)"><path
       style="font-style:italic;font-size:26.8865px;line-height:1.25;font-family:'Segoe UI';-inkscape-font-specification:'Segoe UI Bold';text-align:center;letter-spacing:0px;word-spacing:0px;text-anchor:middle;stroke-width:2.2563"
       d="m 97.568176,271.11917 q -0.0919,0.4201 -0.183795,1.01087 -0.07877,0.59077 -0.144409,1.19467 -0.06564,0.59076 -0.118154,1.11589 -0.03939,0.52513 -0.03939,0.81395 h -2.231789 q 0,-0.22318 0.02626,-0.59077 0.03938,-0.38072 0.07877,-0.78769 0.05251,-0.40697 0.105026,-0.77456 0.05251,-0.38072 0.0919,-0.61703 h -0.05251 q -0.472614,0.76144 -0.945228,1.3522 -0.472615,0.57764 -0.997741,0.97149 -0.525127,0.38072 -1.115895,0.57764 -0.590768,0.19692 -1.299689,0.19692 -0.918973,0 -1.65415,-0.3282 -0.735178,-0.32821 -1.260305,-0.95836 -0.511999,-0.64328 -0.78769,-1.57538 -0.275692,-0.94523 -0.275692,-2.16615 0,-0.97148 0.196923,-2.02174 0.21005,-1.05025 0.630152,-2.06112 0.43323,-1.01087 1.089638,-1.91671 0.656409,-0.90585 1.562253,-1.58851 0.905844,-0.68267 2.074251,-1.07651 1.168408,-0.40698 2.612507,-0.40698 0.735178,0 1.36533,0.10503 0.630152,0.0919 1.089638,0.19692 l 1.36533,-6.4328 h 2.126773 z m -0.564512,-7.48306 q -0.49887,-0.14441 -1.050253,-0.22318 -0.538256,-0.0919 -1.15528,-0.0919 -1.142151,0 -2.021738,0.35446 -0.86646,0.35446 -1.522869,0.94523 -0.64328,0.59076 -1.089638,1.3522 -0.43323,0.7483 -0.708921,1.54912 -0.262564,0.78769 -0.380717,1.56226 -0.105026,0.76143 -0.105026,1.37845 0,0.73518 0.118154,1.33908 0.131281,0.60389 0.406973,1.03712 0.28882,0.43323 0.735178,0.66954 0.446358,0.23631 1.07651,0.23631 0.656409,0 1.22092,-0.27569 0.57764,-0.2757 1.07651,-0.74831 0.498871,-0.47261 0.905844,-1.08964 0.406974,-0.61702 0.735178,-1.31282 0.328204,-0.69579 0.551383,-1.40471 0.236308,-0.72205 0.380717,-1.37846 z m 15.885086,1.32595 q 0,1.06338 -0.47261,1.94297 -0.47261,0.86646 -1.56225,1.49661 -1.08964,0.61702 -2.87507,0.95836 -1.78543,0.34133 -4.41107,0.35446 -0.0263,0.14441 -0.0263,0.30195 0,0.14441 0,0.26256 0,0.70892 0.19693,1.33907 0.19692,0.63016 0.60389,1.10277 0.4201,0.47261 1.06339,0.74831 0.6564,0.27569 1.54912,0.27569 0.90584,0 1.98235,-0.34134 1.08964,-0.35446 2.07426,-0.99774 l -0.40698,2.12677 q -0.72205,0.4201 -1.71979,0.73518 -0.99774,0.31507 -2.23179,0.31507 -1.48348,0 -2.50748,-0.45948 -1.01087,-0.45949 -1.64102,-1.22092 -0.61703,-0.77457 -0.89272,-1.77231 -0.27569,-1.01087 -0.27569,-2.11363 0,-1.18154 0.26256,-2.27118 0.26257,-1.10276 0.73518,-2.04799 0.48574,-0.94523 1.15528,-1.71979 0.66954,-0.78769 1.48349,-1.33908 0.81394,-0.55138 1.74604,-0.85333 0.9321,-0.30195 1.92984,-0.30195 1.03713,0 1.82482,0.27569 0.80082,0.2757 1.32595,0.76144 0.53825,0.47261 0.81394,1.10277 0.27569,0.63015 0.27569,1.33907 z m -2.1924,0.10502 q 0,-0.82707 -0.61703,-1.28656 -0.60389,-0.45948 -1.61476,-0.45948 -0.80082,0 -1.54912,0.35446 -0.74831,0.34133 -1.37846,0.95835 -0.63016,0.6039 -1.08964,1.45723 -0.45949,0.84021 -0.66954,1.82482 1.87733,0 3.19015,-0.1838 1.31282,-0.19692 2.13989,-0.56451 0.82707,-0.36759 1.20779,-0.89271 0.38072,-0.53826 0.38072,-1.2078 z m 12.22233,-0.89271 q -0.59077,-0.38072 -1.32595,-0.61703 -0.73518,-0.2363 -1.47035,-0.2363 -1.23405,0 -1.91672,0.56451 -0.66953,0.56451 -0.66953,1.49661 0,0.38072 0.11815,0.69579 0.13128,0.31508 0.36759,0.6039 0.24943,0.27569 0.61702,0.53825 0.38072,0.26257 0.86646,0.56452 1.47036,0.85333 2.11364,1.75917 0.65641,0.89272 0.65641,2.02174 0,0.76143 -0.28882,1.49661 -0.27569,0.72205 -0.89272,1.28656 -0.61702,0.55139 -1.60164,0.89272 -0.97148,0.34133 -2.3762,0.34133 -0.39384,0 -0.86645,-0.0525 -0.47262,-0.0525 -0.95836,-0.15754 -0.47262,-0.10502 -0.91897,-0.24943 -0.43323,-0.15754 -0.76144,-0.35447 l 0.43323,-2.04799 q 0.26257,0.18379 0.64328,0.36759 0.39385,0.18379 0.84021,0.3282 0.45948,0.14441 0.94522,0.23631 0.49888,0.0919 0.98462,0.0919 1.31281,0 1.9561,-0.52513 0.6564,-0.52513 0.6564,-1.45723 0,-0.34133 -0.10502,-0.63015 -0.0919,-0.28882 -0.34133,-0.57764 -0.24944,-0.28882 -0.65641,-0.57764 -0.40698,-0.30195 -1.024,-0.66954 -1.33907,-0.81394 -1.98235,-1.69353 -0.63016,-0.89272 -0.63016,-2.00861 0,-0.81395 0.30195,-1.54912 0.30195,-0.74831 0.89272,-1.31282 0.60389,-0.57764 1.50974,-0.91897 0.90584,-0.34134 2.11363,-0.34134 0.94523,0 1.78543,0.1838 0.85334,0.18379 1.4441,0.47261 z m 10.1612,-0.53826 h -3.38706 l -1.50974,7.1286 q -0.0788,0.40698 -0.15754,0.87959 -0.0788,0.47261 -0.0788,0.76143 0,0.66954 0.28882,0.97149 0.30195,0.28882 0.94523,0.28882 0.15754,0 0.40697,-0.0525 0.24944,-0.0525 0.512,-0.13129 0.26256,-0.0788 0.512,-0.17066 0.26256,-0.10503 0.45948,-0.1838 l -0.40697,1.89046 q -0.45949,0.19692 -1.05025,0.3282 -0.57764,0.14441 -1.10277,0.14441 -0.74831,0 -1.27343,-0.19692 -0.52513,-0.18379 -0.86646,-0.53825 -0.32821,-0.35446 -0.48574,-0.85333 -0.14441,-0.512 -0.14441,-1.14216 0,-0.38071 0.0656,-0.87958 0.0788,-0.512 0.18379,-0.9321 l 1.54913,-7.3124 h -2.23179 l 0.40697,-1.82481 h 2.20553 l 0.6958,-3.28205 q 0.0525,-0.0263 0.39384,-0.11815 0.35446,-0.10502 0.76144,-0.22318 0.4201,-0.13128 0.76143,-0.23631 0.35446,-0.10502 0.39384,-0.11815 l -0.82707,3.97784 h 3.38707 z m 5.09373,11.56592 q -0.3282,0.10503 -0.7483,0.17067 -0.40697,0.0656 -0.81395,0.0656 -1.32594,0 -1.98235,-0.65641 -0.65641,-0.66953 -0.65641,-1.78543 0,-0.3282 0.0656,-0.77456 0.0656,-0.44636 0.21005,-1.10277 l 1.9561,-9.30787 h 2.17928 l -1.96923,9.36039 q -0.11815,0.55138 -0.17067,0.85333 -0.0394,0.30194 -0.0394,0.512 0,0.53825 0.28882,0.82707 0.30195,0.27569 0.94523,0.27569 0.34133,0 0.59076,-0.0394 0.26257,-0.0394 0.48575,-0.11816 z m 1.536,-18.18252 q 0,0.59077 -0.40697,1.01087 -0.39385,0.4201 -0.98462,0.4201 -0.57764,0 -1.01086,-0.40697 -0.42011,-0.4201 -0.42011,-1.024 0,-0.60389 0.42011,-0.98461 0.43322,-0.38072 1.01086,-0.38072 0.57764,0 0.98462,0.39385 0.40697,0.38072 0.40697,0.97148 z m 13.69269,8.1526 q 0,0.19692 -0.0525,0.53825 -0.0394,0.34134 -0.11816,0.73518 -0.0656,0.39385 -0.14441,0.78769 -0.0656,0.38072 -0.13128,0.65641 l -1.56225,7.36491 h -2.17928 l 1.64102,-7.87691 q 0.0525,-0.21005 0.10503,-0.48574 0.0525,-0.27569 0.0919,-0.55138 0.0394,-0.27569 0.0656,-0.49887 0.0263,-0.23631 0.0263,-0.36759 0,-0.99774 -0.48574,-1.57538 -0.47261,-0.57764 -1.41784,-0.57764 -0.86646,0 -1.71979,0.512 -0.85333,0.51199 -1.57538,1.29969 -0.72205,0.78769 -1.24718,1.73291 -0.512,0.94523 -0.69579,1.82482 l -1.40472,6.56409 h -2.17927 l 2.07425,-9.5967 q 0.10502,-0.512 0.21005,-1.06338 0.10502,-0.56451 0.19692,-1.07651 0.0919,-0.52513 0.15754,-0.97148 0.0656,-0.44636 0.10502,-0.73518 h 2.10051 q -0.0656,0.512 -0.15754,1.07651 -0.0919,0.55138 -0.15753,1.024 -0.0788,0.55138 -0.17067,1.07651 h 0.0525 q 0.45949,-0.72205 1.01087,-1.35221 0.56451,-0.64328 1.20779,-1.11589 0.65641,-0.48574 1.37846,-0.76144 0.73518,-0.27569 1.536,-0.27569 0.89271,0 1.53599,0.27569 0.64328,0.26257 1.06339,0.74831 0.43323,0.48574 0.63015,1.16841 0.21005,0.68266 0.21005,1.49661 z m 13.25945,5.7764 q -0.10503,0.49887 -0.21005,1.12902 -0.0919,0.61702 -0.17067,1.23405 -0.0656,0.60389 -0.11815,1.12902 -0.0394,0.52513 -0.0394,0.81395 h -2.23178 q 0.0131,-0.26257 0.0394,-0.63016 0.0263,-0.36758 0.0656,-0.76143 0.0525,-0.39384 0.0919,-0.77456 0.0525,-0.38072 0.10502,-0.65641 h -0.0525 q -0.40697,0.64328 -0.82707,1.22092 -0.42011,0.56451 -0.9321,0.99774 -0.512,0.43323 -1.14216,0.68267 -0.63015,0.24943 -1.48348,0.24943 -0.87959,0 -1.61476,-0.31507 -0.72205,-0.31508 -1.24718,-0.93211 -0.52513,-0.63015 -0.81395,-1.56225 -0.27569,-0.94523 -0.27569,-2.1924 0,-0.76144 0.15754,-1.73292 0.15754,-0.97149 0.52513,-1.98236 0.38071,-1.01087 0.99774,-1.96922 0.63015,-0.97149 1.54912,-1.73292 0.9321,-0.76143 2.19241,-1.22092 1.2603,-0.45949 2.91445,-0.45949 1.05025,0 2.16615,0.15754 1.11589,0.15754 2.21866,0.38072 z m -0.61702,-7.36491 q -0.45949,-0.10502 -1.07651,-0.18379 -0.61703,-0.0788 -1.15528,-0.0788 -1.14215,0 -2.02174,0.36759 -0.86646,0.35446 -1.50974,0.94522 -0.64328,0.57764 -1.08964,1.33908 -0.43323,0.76143 -0.69579,1.56225 -0.26257,0.78769 -0.38072,1.56225 -0.10503,0.77457 -0.10503,1.40472 0,0.7483 0.13129,1.3522 0.13128,0.59077 0.40697,1.01087 0.28882,0.4201 0.72205,0.65641 0.44636,0.22318 1.05025,0.22318 0.65641,0 1.22092,-0.26257 0.57764,-0.27569 1.07651,-0.73517 0.49887,-0.45949 0.90585,-1.06339 0.40697,-0.60389 0.73517,-1.27343 0.32821,-0.68266 0.55139,-1.37846 0.2363,-0.70892 0.38071,-1.36533 z m 12.36674,0.0525 h -3.38707 l -1.50974,7.1286 q -0.0788,0.40698 -0.15754,0.87959 -0.0788,0.47261 -0.0788,0.76143 0,0.66954 0.28882,0.97149 0.30195,0.28882 0.94523,0.28882 0.15754,0 0.40697,-0.0525 0.24944,-0.0525 0.512,-0.13129 0.26256,-0.0788 0.512,-0.17066 0.26256,-0.10503 0.45949,-0.1838 l -0.40698,1.89046 q -0.45948,0.19692 -1.05025,0.3282 -0.57764,0.14441 -1.10277,0.14441 -0.7483,0 -1.27343,-0.19692 -0.52513,-0.18379 -0.86646,-0.53825 -0.32821,-0.35446 -0.48574,-0.85333 -0.14441,-0.512 -0.14441,-1.14216 0,-0.38071 0.0656,-0.87958 0.0788,-0.512 0.18379,-0.9321 l 1.54913,-7.3124 h -2.23179 l 0.40697,-1.82481 h 2.20553 l 0.6958,-3.28205 q 0.0525,-0.0263 0.39384,-0.11815 0.35446,-0.10502 0.76144,-0.22318 0.4201,-0.13128 0.76143,-0.23631 0.35446,-0.10502 0.39385,-0.11815 l -0.82708,3.97784 h 3.38707 z m 5.09373,11.56592 q -0.3282,0.10503 -0.7483,0.17067 -0.40698,0.0656 -0.81395,0.0656 -1.32594,0 -1.98235,-0.65641 -0.65641,-0.66953 -0.65641,-1.78543 0,-0.3282 0.0656,-0.77456 0.0656,-0.44636 0.21005,-1.10277 l 1.9561,-9.30787 h 2.17927 l -1.96922,9.36039 q -0.11816,0.55138 -0.17067,0.85333 -0.0394,0.30194 -0.0394,0.512 0,0.53825 0.28882,0.82707 0.30195,0.27569 0.94523,0.27569 0.34133,0 0.59076,-0.0394 0.26257,-0.0394 0.48575,-0.11816 z m 1.536,-18.18252 q 0,0.59077 -0.40697,1.01087 -0.39385,0.4201 -0.98462,0.4201 -0.57764,0 -1.01087,-0.40697 -0.4201,-0.4201 -0.4201,-1.024 0,-0.60389 0.4201,-0.98461 0.43323,-0.38072 1.01087,-0.38072 0.57764,0 0.98462,0.39385 0.40697,0.38072 0.40697,0.97148 z m 13.3251,9.76737 q 0,1.78543 -0.512,3.38706 -0.49887,1.60164 -1.45723,2.80943 -0.94523,1.19467 -2.31056,1.90359 -1.3522,0.69579 -3.05886,0.69579 -1.15528,0 -2.08738,-0.36759 -0.91898,-0.36759 -1.57538,-1.05025 -0.64328,-0.69579 -0.99775,-1.66728 -0.34133,-0.98461 -0.34133,-2.21866 0,-1.85107 0.52513,-3.45271 0.53825,-1.61477 1.49661,-2.7963 0.97149,-1.19467 2.31056,-1.8642 1.3522,-0.68267 2.98009,-0.68267 1.14216,0 2.06113,0.36759 0.9321,0.36759 1.58851,1.06338 0.65641,0.68267 1.01087,1.66728 0.36759,0.97149 0.36759,2.20554 z m -2.20554,0.10502 q 0,-0.85333 -0.21005,-1.50974 -0.21005,-0.66954 -0.59077,-1.11589 -0.38071,-0.45949 -0.91897,-0.6958 -0.53825,-0.24943 -1.20779,-0.24943 -1.15528,0 -2.08738,0.59077 -0.9321,0.59076 -1.57538,1.56225 -0.64328,0.95835 -0.99774,2.1924 -0.34133,1.22092 -0.34133,2.50748 0,0.81395 0.19692,1.48349 0.21005,0.65641 0.57764,1.12902 0.38071,0.45949 0.91897,0.70892 0.55138,0.24944 1.23405,0.24944 1.16841,0 2.10051,-0.57764 0.9321,-0.59077 1.57538,-1.54913 0.64328,-0.97148 0.98461,-2.20553 0.34133,-1.23405 0.34133,-2.52061 z m 16.9616,-1.71979 q 0,0.19692 -0.0525,0.53825 -0.0394,0.34134 -0.11815,0.73518 -0.0656,0.39385 -0.14441,0.78769 -0.0656,0.38072 -0.13128,0.65641 l -1.56225,7.36491 h -2.17928 l 1.64102,-7.87691 q 0.0525,-0.21005 0.10503,-0.48574 0.0525,-0.27569 0.0919,-0.55138 0.0394,-0.27569 0.0657,-0.49887 0.0262,-0.23631 0.0262,-0.36759 0,-0.99774 -0.48574,-1.57538 -0.47261,-0.57764 -1.41784,-0.57764 -0.86646,0 -1.71979,0.512 -0.85334,0.51199 -1.57538,1.29969 -0.72205,0.78769 -1.24718,1.73291 -0.512,0.94523 -0.69579,1.82482 l -1.40472,6.56409 h -2.17928 l 2.07426,-9.5967 q 0.10502,-0.512 0.21005,-1.06338 0.10502,-0.56451 0.19692,-1.07651 0.0919,-0.52513 0.15754,-0.97148 0.0656,-0.44636 0.10502,-0.73518 h 2.10051 q -0.0656,0.512 -0.15754,1.07651 -0.0919,0.55138 -0.15754,1.024 -0.0788,0.55138 -0.17066,1.07651 h 0.0525 q 0.45949,-0.72205 1.01087,-1.35221 0.56451,-0.64328 1.20779,-1.11589 0.65641,-0.48574 1.37846,-0.76144 0.73518,-0.27569 1.536,-0.27569 0.89271,0 1.53599,0.27569 0.64328,0.26257 1.06338,0.74831 0.43323,0.48574 0.63016,1.16841 0.21005,0.68266 0.21005,1.49661 z"
       id="text54"
       aria-label="destination" /><path
       style="font-style:italic;font-size:26.8865px;line-height:1.25;font-family:'Segoe UI';-inkscape-font-specification:'Segoe UI Bold';text-align:center;letter-spacing:0px;word-spacing:0px;text-anchor:middle;stroke-width:2.2563"
       d="m 122.87929,139.14837 q -0.59076,-0.38072 -1.32594,-0.61703 -0.73518,-0.2363 -1.47036,-0.2363 -1.23404,0 -1.91671,0.56451 -0.66954,0.56451 -0.66954,1.49661 0,0.38072 0.11816,0.69579 0.13128,0.31508 0.36759,0.6039 0.24943,0.27569 0.61702,0.53825 0.38072,0.26257 0.86646,0.56452 1.47035,0.85333 2.11364,1.75917 0.6564,0.89272 0.6564,2.02174 0,0.76143 -0.28882,1.49661 -0.27569,0.72205 -0.89271,1.28656 -0.61703,0.55139 -1.60164,0.89272 -0.97148,0.34133 -2.3762,0.34133 -0.39384,0 -0.86646,-0.0525 -0.47261,-0.0525 -0.95835,-0.15754 -0.47262,-0.10503 -0.91898,-0.24944 -0.43323,-0.15753 -0.76143,-0.35446 l 0.43323,-2.04799 q 0.26256,0.18379 0.64328,0.36759 0.39384,0.18379 0.8402,0.3282 0.45949,0.14441 0.94523,0.23631 0.49887,0.0919 0.98461,0.0919 1.31282,0 1.9561,-0.52513 0.65641,-0.52513 0.65641,-1.45723 0,-0.34133 -0.10502,-0.63015 -0.0919,-0.28882 -0.34134,-0.57764 -0.24943,-0.28882 -0.65641,-0.57764 -0.40697,-0.30195 -1.02399,-0.66954 -1.33908,-0.81394 -1.98236,-1.69353 -0.63015,-0.89272 -0.63015,-2.00861 0,-0.81395 0.30195,-1.54913 0.30195,-0.7483 0.89271,-1.31281 0.6039,-0.57764 1.50974,-0.91898 0.90585,-0.34133 2.11364,-0.34133 0.94523,0 1.78543,0.1838 0.85333,0.18379 1.4441,0.47261 z m 13.929,2.6125 q 0,1.78544 -0.512,3.38707 -0.49887,1.60164 -1.45723,2.80943 -0.94523,1.19467 -2.31056,1.90359 -1.3522,0.69579 -3.05886,0.69579 -1.15528,0 -2.08738,-0.36759 -0.91897,-0.36759 -1.57538,-1.05025 -0.64328,-0.6958 -0.99774,-1.66728 -0.34134,-0.98461 -0.34134,-2.21866 0,-1.85107 0.52513,-3.45271 0.53825,-1.61477 1.49661,-2.7963 0.97149,-1.19467 2.31056,-1.8642 1.3522,-0.68267 2.9801,-0.68267 1.14215,0 2.06112,0.36759 0.9321,0.36759 1.58851,1.06338 0.65641,0.68267 1.01087,1.66728 0.36759,0.97149 0.36759,2.20553 z m -2.20554,0.10503 q 0,-0.85333 -0.21005,-1.50974 -0.21005,-0.66954 -0.59077,-1.1159 -0.38071,-0.45948 -0.91897,-0.69579 -0.53825,-0.24943 -1.20779,-0.24943 -1.15528,0 -2.08738,0.59076 -0.9321,0.59077 -1.57538,1.56226 -0.64328,0.95835 -0.99774,2.1924 -0.34133,1.22092 -0.34133,2.50748 0,0.81395 0.19692,1.48349 0.21005,0.65641 0.57764,1.12902 0.38072,0.45949 0.91897,0.70892 0.55138,0.24944 1.23405,0.24944 1.16841,0 2.10051,-0.57764 0.9321,-0.59077 1.57538,-1.54913 0.64328,-0.97148 0.98461,-2.20553 0.34133,-1.23405 0.34133,-2.52061 z m 15.43873,4.54235 q -0.11815,0.512 -0.22317,1.06338 -0.0919,0.55138 -0.1838,1.06338 -0.0919,0.512 -0.15754,0.95836 -0.0656,0.44636 -0.10502,0.73518 h -2.10051 q 0.0656,-0.512 0.14441,-1.06339 0.0919,-0.56451 0.17067,-1.03712 0.0919,-0.55138 0.17066,-1.07651 h -0.0525 q -0.45949,0.72205 -1.024,1.36533 -0.55138,0.63015 -1.20779,1.11589 -0.64328,0.47262 -1.37846,0.74831 -0.72205,0.27569 -1.50974,0.27569 -0.86646,0 -1.52287,-0.27569 -0.64328,-0.26256 -1.07651,-0.74831 -0.43323,-0.48574 -0.6564,-1.1684 -0.21006,-0.68267 -0.21006,-1.52287 0,-0.17067 0.0525,-0.512 0.0525,-0.34133 0.11815,-0.73518 0.0656,-0.39384 0.14441,-0.77456 0.0919,-0.39385 0.14441,-0.66954 l 1.56225,-7.3649 h 2.17928 l -1.66728,7.8769 q -0.0525,0.21005 -0.10502,0.48574 -0.0525,0.27569 -0.10503,0.55139 -0.0394,0.27569 -0.0656,0.512 -0.0263,0.22317 -0.0263,0.35446 0,0.98461 0.47262,1.57538 0.48574,0.57764 1.4441,0.57764 0.57764,0 1.15528,-0.23631 0.57764,-0.23631 1.11589,-0.63015 0.55138,-0.40698 1.03713,-0.9321 0.48574,-0.53826 0.87958,-1.12903 0.39385,-0.60389 0.66954,-1.23404 0.27569,-0.63016 0.40697,-1.2078 l 1.40472,-6.56408 h 2.16615 z m 12.85249,-7.33865 h -0.0525 q -0.26256,-0.15754 -0.69579,-0.30195 -0.4201,-0.15754 -0.8402,-0.15754 -0.76144,0 -1.45723,0.49887 -0.69579,0.48575 -1.27343,1.29969 -0.56451,0.80082 -0.99774,1.83795 -0.4201,1.03712 -0.65641,2.12676 l -1.26031,5.85517 h -2.15302 l 1.89046,-8.92716 q 0.11815,-0.55139 0.23631,-1.15528 0.11815,-0.6039 0.21005,-1.20779 0.10502,-0.6039 0.18379,-1.15528 0.0788,-0.55139 0.11816,-0.99774 h 2.12676 q -0.0394,0.39384 -0.0919,0.8402 -0.0525,0.43323 -0.10502,0.85333 -0.0525,0.40697 -0.10503,0.74831 -0.0525,0.3282 -0.0788,0.512 h 0.0525 q 0.4201,-0.74831 0.85333,-1.35221 0.43323,-0.60389 0.90584,-1.02399 0.48574,-0.43323 1.024,-0.66954 0.53825,-0.23631 1.16841,-0.23631 0.36758,0 0.72205,0.0788 0.36758,0.0656 0.6564,0.14441 z m 10.77823,0.38072 q -0.55139,-0.48575 -1.33908,-0.81395 -0.77456,-0.34133 -1.71979,-0.34133 -0.90584,0 -1.64102,0.31507 -0.72205,0.31508 -1.28656,0.84021 -0.56451,0.52512 -0.97149,1.20779 -0.40697,0.68266 -0.66953,1.41784 -0.26257,0.73518 -0.39385,1.47036 -0.11815,0.72205 -0.11815,1.3522 0,1.87733 0.82707,2.84881 0.82708,0.97149 2.25805,0.97149 0.86646,0 1.79856,-0.35446 0.9321,-0.36759 1.75918,-0.9321 l -0.45949,2.15302 q -0.85333,0.45948 -1.70666,0.70892 -0.84021,0.26256 -1.78544,0.26256 -1.23404,0 -2.15302,-0.4201 -0.90584,-0.4201 -1.50974,-1.15528 -0.60389,-0.73518 -0.90584,-1.73292 -0.30195,-1.01087 -0.30195,-2.17928 0,-1.10276 0.22318,-2.16614 0.22318,-1.07651 0.65641,-2.02174 0.44636,-0.95836 1.08964,-1.77231 0.64328,-0.81394 1.47035,-1.39158 0.84021,-0.59077 1.8642,-0.91898 1.024,-0.34133 2.21867,-0.34133 0.56451,0 1.07651,0.0788 0.51199,0.0788 0.9321,0.21005 0.4201,0.13128 0.7483,0.28882 0.32821,0.14441 0.52513,0.28882 z m 12.69494,0.48574 q 0,1.06338 -0.47261,1.94297 -0.47262,0.86646 -1.56226,1.49661 -1.08963,0.61702 -2.87507,0.95836 -1.78543,0.34133 -4.41106,0.35446 -0.0263,0.14441 -0.0263,0.30194 0,0.14441 0,0.26257 0,0.70892 0.19692,1.33907 0.19693,0.63015 0.6039,1.10277 0.4201,0.47261 1.06338,0.7483 0.65641,0.2757 1.54913,0.2757 0.90584,0 1.98235,-0.34134 1.08964,-0.35446 2.07425,-0.99774 l -0.40697,2.12677 q -0.72205,0.4201 -1.71979,0.73517 -0.99774,0.31508 -2.23179,0.31508 -1.48349,0 -2.50748,-0.45949 -1.01087,-0.45948 -1.64102,-1.22092 -0.61703,-0.77456 -0.89272,-1.7723 -0.27569,-1.01087 -0.27569,-2.11364 0,-1.18153 0.26256,-2.27117 0.26256,-1.10277 0.73518,-2.04799 0.48574,-0.94523 1.15528,-1.71979 0.66954,-0.7877 1.48348,-1.33908 0.81395,-0.55138 1.74605,-0.85333 0.9321,-0.30195 1.92984,-0.30195 1.03713,0 1.82482,0.27569 0.80082,0.2757 1.32594,0.76144 0.53826,0.47261 0.81395,1.10276 0.27569,0.63016 0.27569,1.33908 z m -2.1924,0.10502 q 0,-0.82707 -0.61703,-1.28656 -0.60389,-0.45948 -1.61476,-0.45948 -0.80082,0 -1.54913,0.35446 -0.7483,0.34133 -1.37846,0.95835 -0.63015,0.6039 -1.08963,1.45723 -0.45949,0.8402 -0.66954,1.82482 1.87733,0 3.19014,-0.1838 1.31282,-0.19692 2.1399,-0.56451 0.82707,-0.36759 1.20779,-0.89271 0.38072,-0.53826 0.38072,-1.2078 z"
       id="text55"
       aria-label="source" /><rect
       style="fill:none;stroke:#121212;stroke-width:1.80981;stroke-linejoin:round;stroke-dasharray:none;stroke-opacity:1"
       id="rect55"
       width="601.67444"
       height="37.790882"
       x="227.59862"
       y="124.30363" /><rect
       style="fill:#ffc26d;fill-opacity:1;stroke:none;stroke-width:1.50133;stroke-linejoin:round;stroke-opacity:1"
       id="rect56"
       width="31.531673"
       height="31.079067"
       x="367.24811"
       y="127.65957" /><path
       style="fill:#d8d8d8;fill-opacity:1;stroke:none;stroke-width:2.80611;stroke-linejoin:round;stroke-dasharray:none;stroke-opacity:1"
       d="m 366.5992,165.09471 c 0,36.92907 -135.5567,32.87588 -135.5567,77.01062 l 302.18787,0.45037 c 0,-40.53192 137.35812,-34.45213 137.35812,-77.68616 z"
       id="path56" /><path
       style="fill:none;fill-opacity:1;stroke:#121212;stroke-width:1.80981;stroke-linejoin:round;stroke-dasharray:none;stroke-opacity:1"
       d="m 247.03011,167.29042 v 8.4233 h 19.81706"
       id="path57" /><path
       style="font-size:15.5121px;line-height:1.25;font-family:'Segoe UI';-inkscape-font-specification:'Segoe UI Bold';text-align:center;letter-spacing:0px;word-spacing:0px;text-anchor:middle;stroke-width:1.30177"
       d="m 271.78955,179.1639 v -1.33307 q 1.01495,0.74986 2.23441,0.74986 1.63604,0 1.63604,-1.0907 0,-0.31054 -0.14391,-0.52262 -0.13634,-0.21966 -0.37871,-0.38629 -0.23481,-0.16663 -0.5605,-0.2954 -0.31812,-0.13633 -0.68926,-0.28024 -0.51505,-0.20451 -0.90891,-0.40902 -0.38629,-0.21207 -0.65139,-0.4696 -0.25752,-0.2651 -0.39386,-0.59837 -0.12876,-0.33326 -0.12876,-0.78015 0,-0.54534 0.24995,-0.96193 0.24995,-0.42416 0.66653,-0.70441 0.41659,-0.28782 0.94679,-0.43173 0.53777,-0.14391 1.10584,-0.14391 1.00738,0 1.80268,0.34842 v 1.25733 q -0.8559,-0.5605 -1.96931,-0.5605 -0.34842,0 -0.62867,0.0833 -0.28025,0.0757 -0.48475,0.21965 -0.19693,0.14391 -0.31055,0.34842 -0.10604,0.19693 -0.10604,0.4393 0,0.30297 0.10604,0.50748 0.11362,0.2045 0.3257,0.36356 0.21208,0.15906 0.51505,0.28783 0.30297,0.12876 0.68926,0.28024 0.51505,0.19694 0.92406,0.40902 0.40901,0.2045 0.69683,0.4696 0.28782,0.25752 0.43931,0.59837 0.15906,0.34084 0.15906,0.81044 0,0.57565 -0.25753,0.99981 -0.24995,0.42416 -0.67411,0.7044 -0.42416,0.28025 -0.97708,0.41659 -0.55292,0.13634 -1.15886,0.13634 -1.19674,0 -2.07535,-0.46204 z m 10.29343,0.46204 q -1.71936,0 -2.74946,-1.08313 -1.02253,-1.09069 -1.02253,-2.88579 0,-1.95416 1.06798,-3.05243 1.06797,-1.09827 2.88579,-1.09827 1.73451,0 2.70401,1.06797 0.97709,1.06797 0.97709,2.96154 0,1.8557 -1.05283,2.97669 -1.04525,1.11342 -2.81005,1.11342 z m 0.0909,-7.07437 q -1.19673,0 -1.89357,0.81802 -0.69683,0.81045 -0.69683,2.24198 0,1.37852 0.70441,2.17382 0.7044,0.7953 1.88599,0.7953 1.20431,0 1.84812,-0.78015 0.65139,-0.78015 0.65139,-2.21926 0,-1.45426 -0.65139,-2.24199 -0.64381,-0.78772 -1.84812,-0.78772 z m 12.02794,6.89258 h -1.24218 v -1.22703 h -0.0303 q -0.77258,1.40882 -2.39347,1.40882 -2.77218,0 -2.77218,-3.30239 v -4.63545 h 1.23461 v 4.43852 q 0,2.45407 1.87841,2.45407 0.90892,0 1.49213,-0.66654 0.5908,-0.67411 0.5908,-1.75723 v -4.46882 h 1.24218 z m 6.55174,-6.49872 q -0.3257,-0.24995 -0.93921,-0.24995 -0.7953,0 -1.33307,0.74985 -0.5302,0.74986 -0.5302,2.04506 v 3.95376 h -1.24218 v -7.75605 h 1.24218 v 1.59817 h 0.0303 q 0.2651,-0.81802 0.81044,-1.27247 0.54535,-0.46203 1.21946,-0.46203 0.48475,0 0.74228,0.10604 z m 6.63506,6.14273 q -0.89377,0.53778 -2.1208,0.53778 -1.65876,0 -2.68129,-1.07555 -1.01495,-1.08312 -1.01495,-2.80248 0,-1.91629 1.09827,-3.07515 1.09827,-1.16644 2.93124,-1.16644 1.02252,0 1.80267,0.37871 v 1.27248 q -0.86346,-0.60594 -1.84812,-0.60594 -1.18916,0 -1.95416,0.85589 -0.75742,0.84832 -0.75742,2.23441 0,1.36337 0.71198,2.15109 0.71955,0.78773 1.92386,0.78773 1.01495,0 1.90872,-0.67411 z m 8.11204,-3.21149 h -5.4762 q 0.0303,1.2952 0.69683,1.99961 0.66654,0.70441 1.83298,0.70441 1.31034,0 2.40861,-0.86347 v 1.16644 q -1.02252,0.74228 -2.70401,0.74228 -1.64362,0 -2.58283,-1.05283 -0.93921,-1.0604 -0.93921,-2.97669 0,-1.81025 1.02253,-2.94639 1.0301,-1.14371 2.55253,-1.14371 1.52243,0 2.3556,0.98466 0.83317,0.98465 0.83317,2.73431 z m -1.27248,-1.05282 q -0.008,-1.07555 -0.52263,-1.67391 -0.50747,-0.59837 -1.41638,-0.59837 -0.87862,0 -1.49213,0.62866 -0.61352,0.62867 -0.75743,1.64362 z m 7.69546,4.80209 q -2.31016,0 -3.70382,-1.52243 -1.38609,-1.52243 -1.38609,-3.96134 0,-2.6207 1.41639,-4.181 1.41638,-1.5603 3.8553,-1.5603 2.24956,0 3.6205,1.51485 1.37851,1.51486 1.37851,3.96135 0,2.65856 -1.40881,4.20371 -1.40881,1.54516 -3.77198,1.54516 z m 0.0909,-10.07378 q -1.71179,0 -2.77976,1.2346 -1.06797,1.23461 -1.06797,3.24179 0,2.00718 1.03767,3.23421 1.04525,1.21946 2.71917,1.21946 1.78752,0 2.81762,-1.16644 1.0301,-1.16643 1.0301,-3.26451 0,-2.15109 -0.9998,-3.3251 -0.9998,-1.17401 -2.75703,-1.17401 z m 10.8918,-0.4999 q -0.36357,-0.20451 -0.8256,-0.20451 -1.30277,0 -1.30277,1.64362 v 1.19673 h 1.81782 v 1.0604 h -1.81782 v 6.69565 h -1.23461 v -6.69565 h -1.3255 v -1.0604 h 1.3255 v -1.25733 q 0,-1.21945 0.70441,-1.92386 0.70441,-0.71198 1.75723,-0.71198 0.56807,0 0.90134,0.13634 z m 4.8551,0 q -0.36357,-0.20451 -0.8256,-0.20451 -1.30277,0 -1.30277,1.64362 v 1.19673 h 1.81782 v 1.0604 h -1.81782 v 6.69565 h -1.23461 v -6.69565 h -1.32549 v -1.0604 h 1.32549 v -1.25733 q 0,-1.21945 0.70441,-1.92386 0.70441,-0.71198 1.75723,-0.71198 0.56807,0 0.90134,0.13634 z m 0.55292,10.11164 v -1.33307 q 1.01496,0.74986 2.23441,0.74986 1.63605,0 1.63605,-1.0907 0,-0.31054 -0.14392,-0.52262 -0.13633,-0.21966 -0.37871,-0.38629 -0.2348,-0.16663 -0.56049,-0.2954 -0.31812,-0.13633 -0.68926,-0.28024 -0.51505,-0.20451 -0.90892,-0.40902 -0.38628,-0.21207 -0.65138,-0.4696 -0.25753,-0.2651 -0.39386,-0.59837 -0.12877,-0.33326 -0.12877,-0.78015 0,-0.54534 0.24995,-0.96193 0.24995,-0.42416 0.66654,-0.70441 0.41658,-0.28782 0.94678,-0.43173 0.53778,-0.14391 1.10585,-0.14391 1.00737,0 1.80267,0.34842 v 1.25733 q -0.85589,-0.5605 -1.96931,-0.5605 -0.34841,0 -0.62866,0.0833 -0.28025,0.0757 -0.48476,0.21965 -0.19693,0.14391 -0.31054,0.34842 -0.10604,0.19693 -0.10604,0.4393 0,0.30297 0.10604,0.50748 0.11361,0.2045 0.32569,0.36356 0.21208,0.15906 0.51505,0.28783 0.30297,0.12876 0.68926,0.28024 0.51505,0.19694 0.92406,0.40902 0.40901,0.2045 0.69684,0.4696 0.28782,0.25752 0.4393,0.59837 0.15906,0.34084 0.15906,0.81044 0,0.57565 -0.25752,0.99981 -0.24995,0.42416 -0.67411,0.7044 -0.42416,0.28025 -0.97708,0.41659 -0.55292,0.13634 -1.15887,0.13634 -1.19673,0 -2.07535,-0.46204 z m 13.28526,-3.28723 h -5.47619 q 0.0303,1.2952 0.69683,1.99961 0.66654,0.70441 1.83297,0.70441 1.31035,0 2.40862,-0.86347 v 1.16644 q -1.02253,0.74228 -2.70401,0.74228 -1.64362,0 -2.58283,-1.05283 -0.93921,-1.0604 -0.93921,-2.97669 0,-1.81025 1.02253,-2.94639 1.0301,-1.14371 2.55253,-1.14371 1.52242,0 2.35559,0.98466 0.83317,0.98465 0.83317,2.73431 z m -1.27247,-1.05282 q -0.008,-1.07555 -0.52263,-1.67391 -0.50747,-0.59837 -1.41639,-0.59837 -0.87861,0 -1.49213,0.62866 -0.61351,0.62867 -0.75742,1.64362 z m 6.74867,4.54456 q -0.4393,0.24238 -1.15886,0.24238 -2.03748,0 -2.03748,-2.27228 v -4.59001 h -1.33307 v -1.0604 h 1.33307 v -1.89356 l 1.24218,-0.40144 v 2.295 h 1.95416 v 1.0604 h -1.95416 v 4.37035 q 0,0.78015 0.2651,1.11342 0.2651,0.33327 0.87862,0.33327 0.4696,0 0.81044,-0.25753 z"
       id="text57"
       aria-label="sourceOffset" /><path
       style="fill:none;fill-opacity:1;stroke:#121212;stroke-width:1.80981;stroke-linejoin:round;stroke-dasharray:none;stroke-opacity:1"
       d="m 382.76657,167.29042 v 8.4233 h -20.54749"
       id="path58" /><rect
       style="fill:#ff9b54;fill-opacity:1;stroke:none;stroke-width:1.50133;stroke-linejoin:round;stroke-opacity:1"
       id="rect58"
       width="31.531673"
       height="31.079067"
       x="401.76752"
       y="127.65957" /><rect
       style="fill:#ff833b;fill-opacity:1;stroke:none;stroke-width:1.50133;stroke-linejoin:round;stroke-opacity:1"
       id="rect59"
       width="31.531673"
       height="31.079067"
       x="436.28696"
       y="127.65957" /><rect
       style="fill:none;stroke:#121212;stroke-width:1.80981;stroke-linejoin:round;stroke-dasharray:none;stroke-opacity:1"
       id="rect60"
       width="309.84473"
       height="37.790882"
       x="227.59862"
       y="245.69501" /><rect
       style="fill:#ffc26d;fill-opacity:1;stroke:none;stroke-width:1.50133;stroke-linejoin:round;stroke-opacity:1"
       id="rect61"
       width="31.531673"
       height="31.079067"
       x="230.78311"
       y="249.05093" /><rect
       style="fill:#ff9b54;fill-opacity:1;stroke:none;stroke-width:1.50133;stroke-linejoin:round;stroke-opacity:1"
       id="rect62"
       width="31.531673"
       height="31.079067"
       x="265.30252"
       y="249.05093" /><rect
       style="fill:#ff833b;fill-opacity:1;stroke:none;stroke-width:1.50133;stroke-linejoin:round;stroke-opacity:1"
       id="rect63"
       width="31.531673"
       height="31.079067"
       x="299.82196"
       y="249.05093" /><g
       id="g65"
       transform="matrix(1.2848407,0,0,1.2848407,-39.352221,72.479964)"
       style="fill:#ff6d2c;fill-opacity:1"><circle
         style="fill:#ff6d2c;fill-opacity:1;stroke:none;stroke-width:1.52558;stroke-linejoin:round;stroke-dasharray:none;stroke-opacity:1"
         id="circle63"
         cx="351.24713"
         cy="149.52086"
         r="0.95220608" /><circle
         style="fill:#ff6d2c;fill-opacity:1;stroke:none;stroke-width:1.52558;stroke-linejoin:round;stroke-dasharray:none;stroke-opacity:1"
         id="circle64"
         cx="355.14142"
         cy="149.52086"
         r="0.95220608" /><circle
         style="fill:#ff6d2c;fill-opacity:1;stroke:none;stroke-width:1.52558;stroke-linejoin:round;stroke-dasharray:none;stroke-opacity:1"
         id="circle65"
         cx="359.03571"
         cy="149.52086"
         r="0.95220608" /></g><path
       style="fill:none;fill-opacity:1;stroke:#121212;stroke-width:1.80981;stroke-linejoin:round;stroke-dasharray:none;stroke-opacity:1"
       d="m 247.03011,290.59249 v 8.4233 h 118.69447"
       id="path65" /><path
       style="font-size:15.5121px;line-height:1.25;font-family:'Segoe UI';-inkscape-font-specification:'Segoe UI Bold';text-align:center;letter-spacing:0px;word-spacing:0px;text-anchor:middle;stroke-width:1.30177"
       d="m 370.28417,302.46597 v -1.33307 q 1.01495,0.74985 2.23441,0.74985 1.63604,0 1.63604,-1.0907 0,-0.31054 -0.14391,-0.52262 -0.13634,-0.21965 -0.37871,-0.38629 -0.23481,-0.16663 -0.5605,-0.29539 -0.31812,-0.13634 -0.68926,-0.28025 -0.51505,-0.20451 -0.90891,-0.40901 -0.38629,-0.21208 -0.65139,-0.46961 -0.25752,-0.2651 -0.39386,-0.59836 -0.12876,-0.33327 -0.12876,-0.78015 0,-0.54535 0.24995,-0.96194 0.24995,-0.42415 0.66654,-0.7044 0.41658,-0.28782 0.94678,-0.43174 0.53777,-0.14391 1.10584,-0.14391 1.00738,0 1.80268,0.34842 v 1.25733 q -0.85589,-0.5605 -1.96931,-0.5605 -0.34842,0 -0.62867,0.0833 -0.28024,0.0757 -0.48475,0.21965 -0.19693,0.14391 -0.31054,0.34842 -0.10604,0.19693 -0.10604,0.43931 0,0.30297 0.10604,0.50747 0.11361,0.20451 0.32569,0.36357 0.21208,0.15906 0.51505,0.28782 0.30297,0.12876 0.68926,0.28025 0.51505,0.19693 0.92406,0.40901 0.40901,0.2045 0.69683,0.4696 0.28782,0.25753 0.43931,0.59837 0.15906,0.34084 0.15906,0.81045 0,0.57564 -0.25753,0.9998 -0.24995,0.42416 -0.67411,0.70441 -0.42416,0.28024 -0.97708,0.41658 -0.55292,0.13634 -1.15886,0.13634 -1.19673,0 -2.07535,-0.46203 z m 7.68788,-9.44511 q -0.33327,0 -0.56807,-0.22723 -0.2348,-0.22723 -0.2348,-0.57565 0,-0.34841 0.2348,-0.57564 0.2348,-0.2348 0.56807,-0.2348 0.34084,0 0.57565,0.2348 0.24237,0.22723 0.24237,0.57564 0,0.33327 -0.24237,0.56807 -0.23481,0.23481 -0.57565,0.23481 z m 0.60594,9.72536 h -1.24218 v -7.75605 h 1.24218 z m 7.92269,-7.40006 -4.59001,6.33966 h 4.54456 v 1.0604 h -6.36996 v -0.38629 l 4.59001,-6.30937 h -4.15827 v -1.06039 h 5.98367 z m 7.83936,3.83258 h -5.47619 q 0.0303,1.2952 0.69683,1.9996 0.66654,0.70441 1.83297,0.70441 1.31035,0 2.40862,-0.86347 v 1.16644 q -1.02252,0.74228 -2.70401,0.74228 -1.64362,0 -2.58283,-1.05282 -0.93921,-1.0604 -0.93921,-2.97669 0,-1.81025 1.02253,-2.94639 1.0301,-1.14372 2.55253,-1.14372 1.52243,0 2.3556,0.98466 0.83316,0.98465 0.83316,2.73431 z m -1.27247,-1.05283 q -0.008,-1.07554 -0.52263,-1.67391 -0.50747,-0.59837 -1.41638,-0.59837 -0.87862,0 -1.49214,0.62867 -0.61351,0.62866 -0.75742,1.64361 z"
       id="text65"
       aria-label="size" /><path
       style="fill:none;fill-opacity:1;stroke:#121212;stroke-width:1.80981;stroke-linejoin:round;stroke-dasharray:none;stroke-opacity:1"
       d="m 518.50303,290.59249 v 8.4233 H 398.61211"
       id="path66" /><rect
       style="fill:#ff692a;fill-opacity:1;stroke:none;stroke-width:1.50133;stroke-linejoin:round;stroke-opacity:1"
       id="rect66"
       width="31.531673"
       height="31.079067"
       x="502.5423"
       y="249.05093" /><g
       id="g68"
       transform="matrix(1.2848407,0,0,1.2848407,97.112772,-48.911416)"
       style="fill:#ff6d2c;fill-opacity:1"><circle
         style="fill:#ff6d2c;fill-opacity:1;stroke:none;stroke-width:1.52558;stroke-linejoin:round;stroke-dasharray:none;stroke-opacity:1"
         id="circle66"
         cx="351.24713"
         cy="149.52086"
         r="0.95220608" /><circle
         style="fill:#ff6d2c;fill-opacity:1;stroke:none;stroke-width:1.52558;stroke-linejoin:round;stroke-dasharray:none;stroke-opacity:1"
         id="circle67"
         cx="355.14142"
         cy="149.52086"
         r="0.95220608" /><circle
         style="fill:#ff6d2c;fill-opacity:1;stroke:none;stroke-width:1.52558;stroke-linejoin:round;stroke-dasharray:none;stroke-opacity:1"
         id="circle68"
         cx="359.03571"
         cy="149.52086"
         r="0.95220608" /></g><rect
       style="fill:#ff692a;fill-opacity:1;stroke:none;stroke-width:1.50133;stroke-linejoin:round;stroke-opacity:1"
       id="rect68"
       width="31.531673"
       height="31.079067"
       x="639.00726"
       y="127.65957" /><path
       style="font-weight:bold;font-size:20.4369px;line-height:1.25;font-family:'Segoe UI';-inkscape-font-specification:'Segoe UI Bold';text-align:center;letter-spacing:0px;word-spacing:0px;text-anchor:middle;fill:#666666;stroke-width:1.71504"
       d="m 437.85285,208.07841 q -1.5667,0.75841 -4.09137,0.75841 -3.29306,0 -5.17908,-1.93592 -1.88602,-1.93592 -1.88602,-5.15912 0,-3.43276 2.11553,-5.56826 2.12552,-2.13549 5.50839,-2.13549 2.09558,0 3.53255,0.52888 v 3.10345 q -1.43697,-0.85819 -3.2731,-0.85819 -2.01575,0 -3.25314,1.26733 -1.23739,1.26733 -1.23739,3.43276 0,2.07563 1.16754,3.31302 1.16754,1.22741 3.14337,1.22741 1.88602,0 3.45272,-0.91807 z m 7.05512,0.75841 q -2.55461,0 -4.02152,-1.427 -1.45693,-1.43696 -1.45693,-3.89179 0,-2.53465 1.5168,-3.96164 1.5168,-1.43697 4.10135,-1.43697 2.54464,0 3.99159,1.43697 1.44694,1.42699 1.44694,3.78202 0,2.54463 -1.49684,4.02152 -1.48686,1.47689 -4.08139,1.47689 z m 0.0798,-8.3025 q -1.11764,0 -1.73634,0.76838 -0.61869,0.76838 -0.61869,2.17542 0,2.94379 2.37499,2.94379 2.26522,0 2.26522,-3.02363 0,-2.86396 -2.28518,-2.86396 z m 10.73736,6.86553 h -0.0399 v 5.88758 h -3.15335 v -14.91854 h 3.15335 v 1.53676 h 0.0399 q 1.16753,-1.78623 3.28307,-1.78623 1.98581,0 3.06354,1.36711 1.08771,1.35714 1.08771,3.7022 0,2.55461 -1.26733,4.10135 -1.25735,1.54674 -3.35293,1.54674 -1.84611,0 -2.81406,-1.43697 z m -0.0898,-4.19117 v 0.81828 q 0,1.05777 0.55883,1.72636 0.55882,0.66859 1.4669,0.66859 1.07773,0 1.66649,-0.82826 0.59874,-0.83823 0.59874,-2.36501 0,-2.69432 -2.09559,-2.69432 -0.96795,0 -1.58665,0.73845 -0.60872,0.72846 -0.60872,1.93591 z m 19.2993,-4.83979 -4.15124,11.03673 q -1.49684,3.9816 -4.51049,3.9816 -1.14758,0 -1.88602,-0.25945 v -2.5147 q 0.62867,0.36922 1.36712,0.36922 1.21743,0 1.69642,-1.14758 l 0.53886,-1.26733 -4.15124,-10.19849 h 3.49263 l 1.90598,6.21689 q 0.17962,0.57878 0.27941,1.36712 h 0.0399 q 0.0898,-0.57878 0.3293,-1.34716 l 1.92594,-6.23685 z"
       id="text68"
       aria-label="Copy" /><path
       style="fill:none;fill-opacity:1;stroke:#121212;stroke-width:1.80981;stroke-linejoin:round;stroke-dasharray:none;stroke-opacity:1"
       d="m 382.76657,118.12165 v -8.4233 h 118.69447"
       id="path69" /><path
       style="font-size:15.5121px;line-height:1.25;font-family:'Segoe UI';-inkscape-font-specification:'Segoe UI Bold';text-align:center;letter-spacing:0px;word-spacing:0px;text-anchor:middle;stroke-width:1.30177"
       d="m 506.02065,112.5664 v -1.33307 q 1.01495,0.74985 2.23441,0.74985 1.63604,0 1.63604,-1.09069 0,-0.31055 -0.14391,-0.52263 -0.13634,-0.21965 -0.37871,-0.38628 -0.23481,-0.16664 -0.5605,-0.2954 -0.31812,-0.13634 -0.68926,-0.28025 -0.51505,-0.2045 -0.90891,-0.40901 -0.38629,-0.21208 -0.65139,-0.4696 -0.25752,-0.2651 -0.39386,-0.59837 -0.12876,-0.33327 -0.12876,-0.78015 0,-0.54535 0.24995,-0.96193 0.24995,-0.42416 0.66654,-0.70441 0.41658,-0.28782 0.94678,-0.43173 0.53777,-0.14391 1.10584,-0.14391 1.00738,0 1.80268,0.34841 v 1.25733 q -0.85589,-0.56049 -1.96931,-0.56049 -0.34842,0 -0.62867,0.0833 -0.28024,0.0757 -0.48475,0.21966 -0.19693,0.14391 -0.31054,0.34841 -0.10604,0.19693 -0.10604,0.43931 0,0.30297 0.10604,0.50748 0.11361,0.2045 0.32569,0.36356 0.21208,0.15906 0.51505,0.28782 0.30297,0.12877 0.68926,0.28025 0.51505,0.19693 0.92406,0.40901 0.40901,0.20451 0.69683,0.46961 0.28782,0.25752 0.43931,0.59836 0.15906,0.34085 0.15906,0.81045 0,0.57564 -0.25753,0.9998 -0.24995,0.42416 -0.67411,0.70441 -0.42416,0.28025 -0.97708,0.41658 -0.55292,0.13634 -1.15886,0.13634 -1.19673,0 -2.07535,-0.46203 z m 7.68788,-9.44511 q -0.33327,0 -0.56807,-0.22723 -0.2348,-0.22723 -0.2348,-0.57564 0,-0.34842 0.2348,-0.57565 0.2348,-0.2348 0.56807,-0.2348 0.34084,0 0.57565,0.2348 0.24237,0.22723 0.24237,0.57565 0,0.33326 -0.24237,0.56807 -0.23481,0.2348 -0.57565,0.2348 z m 0.60594,9.72536 h -1.24218 v -7.75605 h 1.24218 z m 7.92269,-7.40006 -4.59001,6.33966 h 4.54456 v 1.0604 h -6.36996 v -0.38629 l 4.59001,-6.30936 h -4.15827 v -1.0604 h 5.98367 z m 7.83937,3.83258 h -5.4762 q 0.0303,1.2952 0.69683,1.99961 0.66654,0.7044 1.83298,0.7044 1.31034,0 2.40861,-0.86346 v 1.16643 q -1.02252,0.74228 -2.70401,0.74228 -1.64362,0 -2.58283,-1.05282 -0.93921,-1.0604 -0.93921,-2.97669 0,-1.81025 1.02253,-2.94639 1.0301,-1.14371 2.55253,-1.14371 1.52243,0 2.3556,0.98465 0.83317,0.98466 0.83317,2.73431 z m -1.27248,-1.05282 q -0.008,-1.07555 -0.52263,-1.67392 -0.50747,-0.59836 -1.41638,-0.59836 -0.87862,0 -1.49213,0.62866 -0.61352,0.62866 -0.75743,1.64362 z"
       id="text69"
       aria-label="size" /><path
       style="fill:none;fill-opacity:1;stroke:#121212;stroke-width:1.80981;stroke-linejoin:round;stroke-dasharray:none;stroke-opacity:1"
       d="m 654.23949,118.12165 v -8.4233 H 534.34857"
       id="path70" /><path
       style="font-size:15.5121px;line-height:1.25;font-family:'Segoe UI';-inkscape-font-specification:'Segoe UI Bold';text-align:center;letter-spacing:0px;word-spacing:0px;text-anchor:middle;stroke-width:1.30177"
       d="m 600.55694,271.44986 h -1.10584 q -2.34803,-2.68129 -2.34803,-6.61233 0,-3.9462 2.34803,-6.71838 h 1.12099 q -2.37832,2.87822 -2.37832,6.70323 0,3.79471 2.36317,6.62748 z m 8.04387,-2.46921 h -1.24218 v -1.31792 h -0.0303 q -0.86346,1.4997 -2.66614,1.4997 -1.46183,0 -2.34045,-1.03767 -0.87104,-1.04525 -0.87104,-2.84035 0,-1.92386 0.96951,-3.08273 0.9695,-1.15886 2.58282,-1.15886 1.59817,0 2.3253,1.25733 h 0.0303 v -4.80209 h 1.24218 z m -1.24218,-3.50688 v -1.14372 q 0,-0.93921 -0.62109,-1.59059 -0.62109,-0.65139 -1.57545,-0.65139 -1.13614,0 -1.78752,0.83317 -0.65139,0.83317 -0.65139,2.30258 0,1.34064 0.62109,2.12079 0.62866,0.77258 1.68149,0.77258 1.03767,0 1.68148,-0.74986 0.65139,-0.74985 0.65139,-1.89356 z m 9.99046,-0.0606 h -5.4762 q 0.0303,1.2952 0.69684,1.99961 0.66653,0.70441 1.83297,0.70441 1.31035,0 2.40862,-0.86347 v 1.16644 q -1.02253,0.74227 -2.70402,0.74227 -1.64361,0 -2.58282,-1.05282 -0.93921,-1.0604 -0.93921,-2.97669 0,-1.81025 1.02252,-2.94639 1.03011,-1.14371 2.55253,-1.14371 1.52243,0 2.3556,0.98465 0.83317,0.98466 0.83317,2.73431 z m -1.27248,-1.05282 q -0.008,-1.07555 -0.52262,-1.67391 -0.50748,-0.59837 -1.41639,-0.59837 -0.87861,0 -1.49213,0.62866 -0.61352,0.62867 -0.75743,1.64362 z m 2.68129,4.34005 v -1.33307 q 1.01496,0.74986 2.23441,0.74986 1.63605,0 1.63605,-1.0907 0,-0.31054 -0.14392,-0.52262 -0.13633,-0.21966 -0.37871,-0.38629 -0.2348,-0.16664 -0.5605,-0.2954 -0.31811,-0.13633 -0.68925,-0.28025 -0.51505,-0.2045 -0.90892,-0.40901 -0.38628,-0.21208 -0.65138,-0.4696 -0.25753,-0.2651 -0.39386,-0.59837 -0.12877,-0.33327 -0.12877,-0.78015 0,-0.54534 0.24995,-0.96193 0.24995,-0.42416 0.66654,-0.70441 0.41658,-0.28782 0.94678,-0.43173 0.53778,-0.14391 1.10585,-0.14391 1.00737,0 1.80267,0.34842 v 1.25732 q -0.85589,-0.56049 -1.96931,-0.56049 -0.34841,0 -0.62866,0.0833 -0.28025,0.0757 -0.48476,0.21965 -0.19693,0.14391 -0.31054,0.34842 -0.10604,0.19693 -0.10604,0.4393 0,0.30297 0.10604,0.50748 0.11361,0.2045 0.32569,0.36356 0.21208,0.15906 0.51505,0.28783 0.30297,0.12876 0.68926,0.28024 0.51505,0.19693 0.92406,0.40901 0.40901,0.20451 0.69683,0.46961 0.28783,0.25752 0.43931,0.59837 0.15906,0.34084 0.15906,0.81044 0,0.57565 -0.25752,0.99981 -0.24995,0.42415 -0.67411,0.7044 -0.42416,0.28025 -0.97708,0.41659 -0.55292,0.13633 -1.15887,0.13633 -1.19673,0 -2.07535,-0.46203 z m 10.64942,0.20451 q -0.4393,0.24238 -1.15886,0.24238 -2.03748,0 -2.03748,-2.27228 V 262.285 h -1.33307 v -1.0604 h 1.33307 v -1.89357 l 1.24218,-0.40143 v 2.295 h 1.95416 v 1.0604 h -1.95416 v 4.37035 q 0,0.78015 0.2651,1.11342 0.2651,0.33327 0.87862,0.33327 0.4696,0 0.81044,-0.25753 z m 2.29501,-9.64962 q -0.33327,0 -0.56807,-0.22723 -0.2348,-0.22722 -0.2348,-0.57564 0,-0.34842 0.2348,-0.57564 0.2348,-0.23481 0.56807,-0.23481 0.34084,0 0.57564,0.23481 0.24238,0.22722 0.24238,0.57564 0,0.33327 -0.24238,0.56807 -0.2348,0.2348 -0.57564,0.2348 z m 0.60594,9.72536 h -1.24218 v -7.75605 h 1.24218 z m 8.95278,0 h -1.24218 v -4.42337 q 0,-2.46921 -1.80267,-2.46921 -0.93164,0 -1.54515,0.70441 -0.60594,0.69683 -0.60594,1.7648 v 4.42337 h -1.24218 v -7.75605 h 1.24218 v 1.28763 h 0.0303 q 0.87862,-1.46941 2.54496,-1.46941 1.27247,0 1.94658,0.82559 0.67411,0.81803 0.67411,2.37075 z m 7.89239,0 h -1.24218 v -1.21188 h -0.0303 q -0.81044,1.39366 -2.38589,1.39366 -1.15886,0 -1.81783,-0.61351 -0.65138,-0.61352 -0.65138,-1.62847 0,-2.17381 2.5601,-2.5298 l 2.3253,-0.3257 q 0,-1.97688 -1.59817,-1.97688 -1.40124,0 -2.52981,0.95436 v -1.27248 q 1.14372,-0.72713 2.63585,-0.72713 2.73431,0 2.73431,2.89337 z m -1.24218,-3.92347 -1.87084,0.25753 q -0.86347,0.12118 -1.30278,0.43173 -0.43931,0.30297 -0.43931,1.08312 0,0.56807 0.40144,0.93163 0.40901,0.356 1.08312,0.356 0.92406,0 1.52243,-0.64382 0.60594,-0.65138 0.60594,-1.64361 z m 7.18041,3.84773 q -0.43931,0.24238 -1.15887,0.24238 -2.03747,0 -2.03747,-2.27228 V 262.285 h -1.33308 v -1.0604 h 1.33308 v -1.89357 l 1.24218,-0.40143 v 2.295 h 1.95416 v 1.0604 h -1.95416 v 4.37035 q 0,0.78015 0.26509,1.11342 0.2651,0.33327 0.87862,0.33327 0.4696,0 0.81045,-0.25753 z m 2.295,-9.64962 q -0.33327,0 -0.56807,-0.22723 -0.2348,-0.22722 -0.2348,-0.57564 0,-0.34842 0.2348,-0.57564 0.2348,-0.23481 0.56807,-0.23481 0.34084,0 0.57564,0.23481 0.24238,0.22722 0.24238,0.57564 0,0.33327 -0.24238,0.56807 -0.2348,0.2348 -0.57564,0.2348 z m 0.60594,9.72536 h -1.24218 v -7.75605 h 1.24218 z m 5.75644,0.18178 q -1.71935,0 -2.74946,-1.08312 -1.02252,-1.09069 -1.02252,-2.88579 0,-1.95416 1.06797,-3.05243 1.06797,-1.09827 2.8858,-1.09827 1.7345,0 2.70401,1.06797 0.97708,1.06797 0.97708,2.96154 0,1.8557 -1.05282,2.97669 -1.04525,1.11341 -2.81006,1.11341 z m 0.0909,-7.07436 q -1.19674,0 -1.89357,0.81802 -0.69683,0.81045 -0.69683,2.24198 0,1.37852 0.7044,2.17382 0.70441,0.7953 1.886,0.7953 1.2043,0 1.84812,-0.78015 0.65138,-0.78015 0.65138,-2.21926 0,-1.45426 -0.65138,-2.24199 -0.64382,-0.78772 -1.84812,-0.78772 z m 12.19457,6.89258 h -1.24218 v -4.42337 q 0,-2.46921 -1.80268,-2.46921 -0.93163,0 -1.54515,0.70441 -0.60594,0.69683 -0.60594,1.7648 v 4.42337 h -1.24218 v -7.75605 h 1.24218 v 1.28763 h 0.0303 q 0.87861,-1.46941 2.54495,-1.46941 1.27248,0 1.94659,0.82559 0.67411,0.81803 0.67411,2.37075 z m 6.885,0.18178 q -2.31015,0 -3.70381,-1.52242 -1.3861,-1.52243 -1.3861,-3.96135 0,-2.62069 1.41639,-4.18099 1.41639,-1.5603 3.85531,-1.5603 2.24955,0 3.6205,1.51485 1.37851,1.51486 1.37851,3.96135 0,2.65856 -1.40881,4.20371 -1.40882,1.54515 -3.77199,1.54515 z m 0.0909,-10.07377 q -1.71178,0 -2.77975,1.2346 -1.06797,1.23461 -1.06797,3.24179 0,2.00718 1.03767,3.23421 1.04525,1.21946 2.71916,1.21946 1.78753,0 2.81763,-1.16644 1.0301,-1.16643 1.0301,-3.26451 0,-2.15109 -0.9998,-3.3251 -0.99981,-1.17401 -2.75704,-1.17401 z m 10.8918,-0.4999 q -0.36356,-0.20451 -0.82559,-0.20451 -1.30278,0 -1.30278,1.64362 v 1.19673 h 1.81783 v 1.0604 h -1.81783 v 6.69565 h -1.2346 V 262.285 h -1.3255 v -1.0604 h 1.3255 v -1.25733 q 0,-1.21945 0.70441,-1.92386 0.7044,-0.71198 1.75723,-0.71198 0.56807,0 0.90133,0.13633 z m 4.85511,0 q -0.36357,-0.20451 -0.8256,-0.20451 -1.30277,0 -1.30277,1.64362 v 1.19673 h 1.81782 v 1.0604 h -1.81782 v 6.69565 h -1.23461 V 262.285 h -1.3255 v -1.0604 h 1.3255 v -1.25733 q 0,-1.21945 0.70441,-1.92386 0.7044,-0.71198 1.75723,-0.71198 0.56807,0 0.90134,0.13633 z m 0.55292,10.11164 v -1.33307 q 1.01495,0.74986 2.23441,0.74986 1.63604,0 1.63604,-1.0907 0,-0.31054 -0.14391,-0.52262 -0.13634,-0.21966 -0.37871,-0.38629 -0.2348,-0.16664 -0.5605,-0.2954 -0.31812,-0.13633 -0.68926,-0.28025 -0.51505,-0.2045 -0.90891,-0.40901 -0.38629,-0.21208 -0.65139,-0.4696 -0.25752,-0.2651 -0.39386,-0.59837 -0.12876,-0.33327 -0.12876,-0.78015 0,-0.54534 0.24995,-0.96193 0.24995,-0.42416 0.66654,-0.70441 0.41658,-0.28782 0.94678,-0.43173 0.53777,-0.14391 1.10584,-0.14391 1.00738,0 1.80268,0.34842 v 1.25732 q -0.85589,-0.56049 -1.96931,-0.56049 -0.34842,0 -0.62866,0.0833 -0.28025,0.0757 -0.48476,0.21965 -0.19693,0.14391 -0.31054,0.34842 -0.10604,0.19693 -0.10604,0.4393 0,0.30297 0.10604,0.50748 0.11361,0.2045 0.32569,0.36356 0.21208,0.15906 0.51505,0.28783 0.30297,0.12876 0.68926,0.28024 0.51505,0.19693 0.92406,0.40901 0.40901,0.20451 0.69683,0.46961 0.28782,0.25752 0.43931,0.59837 0.15906,0.34084 0.15906,0.81044 0,0.57565 -0.25753,0.99981 -0.24995,0.42415 -0.67411,0.7044 -0.42415,0.28025 -0.97708,0.41659 -0.55292,0.13633 -1.15886,0.13633 -1.19673,0 -2.07535,-0.46203 z m 13.28527,-3.28723 h -5.4762 q 0.0303,1.2952 0.69683,1.99961 0.66654,0.70441 1.83298,0.70441 1.31035,0 2.40861,-0.86347 v 1.16644 q -1.02252,0.74227 -2.70401,0.74227 -1.64361,0 -2.58282,-1.05282 -0.93921,-1.0604 -0.93921,-2.97669 0,-1.81025 1.02252,-2.94639 1.0301,-1.14371 2.55253,-1.14371 1.52243,0 2.3556,0.98465 0.83317,0.98466 0.83317,2.73431 z m -1.27248,-1.05282 q -0.008,-1.07555 -0.52262,-1.67391 -0.50748,-0.59837 -1.41639,-0.59837 -0.87862,0 -1.49213,0.62866 -0.61352,0.62867 -0.75743,1.64362 z m 6.74867,4.54456 q -0.43931,0.24238 -1.15886,0.24238 -2.03748,0 -2.03748,-2.27228 V 262.285 h -1.33307 v -1.0604 h 1.33307 v -1.89357 l 1.24218,-0.40143 v 2.295 h 1.95416 v 1.0604 h -1.95416 v 4.37035 q 0,0.78015 0.2651,1.11342 0.2651,0.33327 0.87861,0.33327 0.46961,0 0.81045,-0.25753 z m 13.52764,-5.55951 h -7.11981 v -0.99981 h 7.11981 z m 0,3.22663 h -7.11981 v -0.9998 h 7.11981 z m 13.70943,-3.06757 q 0,1.36336 -0.24995,2.41619 -0.24238,1.05282 -0.71198,1.77995 -0.46203,0.71956 -1.14371,1.09827 -0.67411,0.37114 -1.53758,0.37114 -0.81802,0 -1.46183,-0.35599 -0.63624,-0.36357 -1.07555,-1.05283 -0.43931,-0.68925 -0.66654,-1.68906 -0.22722,-1.00737 -0.22722,-2.30257 0,-1.42397 0.2348,-2.51466 0.24238,-1.0907 0.70441,-1.8254 0.46203,-0.74228 1.14371,-1.11342 0.68926,-0.37871 1.57545,-0.37871 3.41599,0 3.41599,5.56709 z m -1.27247,0.12118 q 0,-4.63545 -2.20412,-4.63545 -2.3253,0 -2.3253,4.71877 0,4.40065 2.27986,4.40065 2.24956,0 2.24956,-4.48397 z m 3.19633,7.82422 h -1.10584 q 2.36317,-2.83277 2.36317,-6.62748 0,-3.82501 -2.37832,-6.70323 h 1.12099 q 2.36317,2.77218 2.36317,6.71838 0,3.93104 -2.36317,6.61233 z"
       id="text76"
       aria-label="(destinationOffset = 0)" /></g></svg>
