<?xml version="1.0" encoding="UTF-8" standalone="no"?>
<!-- Created with Inkscape (http://www.inkscape.org/) -->

<svg
   version="1.1"
   id="svg761"
   width="750"
   height="211.34"
   viewBox="0 0 749.99999 211.34"
   xml:space="preserve"
   xmlns="http://www.w3.org/2000/svg"
   xmlns:svg="http://www.w3.org/2000/svg"><defs
     id="defs765" /><g
     id="layer2"
     transform="translate(-82.444871,-480.35033)"><path
       style="font-style:italic;font-size:26.8867px;line-height:1.25;font-family:'Segoe UI';-inkscape-font-specification:'Segoe UI Bold';text-align:center;letter-spacing:0px;word-spacing:0px;text-anchor:middle;fill:#ffffff;stroke-width:2.25632"
       d="m 111.31981,649.03471 q 0,0.89272 -0.18379,1.91673 -0.1838,1.01087 -0.59077,2.02175 -0.40698,0.99775 -1.03714,1.92986 -0.63015,0.9321 -1.52288,1.64103 -0.87959,0.70893 -2.04801,1.14216 -1.15529,0.4201 -2.62565,0.4201 -0.6039,0 -1.24719,-0.0919 -0.64328,-0.0788 -1.26031,-0.23631 -0.61703,-0.15754 -1.181546,-0.38072 -0.564516,-0.22318 -1.024005,-0.51201 l 4.043511,-19.00973 h 2.17929 l -1.35221,6.43285 q -0.14441,0.64329 -0.30195,1.35221 -0.14441,0.70893 -0.28882,1.26032 h 0.0263 q 0.42011,-0.66955 0.89272,-1.2078 0.47262,-0.53826 1.01088,-0.91898 0.55139,-0.38072 1.16842,-0.57765 0.63015,-0.21005 1.36534,-0.21005 1.91673,0 2.94073,1.31283 1.03713,1.31282 1.03713,3.7153 z m -2.20555,0.0525 q 0,-0.74831 -0.14441,-1.35221 -0.13128,-0.6039 -0.43323,-1.02401 -0.28882,-0.4201 -0.74831,-0.64328 -0.45949,-0.22318 -1.1159,-0.22318 -0.82709,0 -1.58852,0.48574 -0.76144,0.48575 -1.3916,1.28658 -0.63016,0.80082 -1.08965,1.8117 -0.45949,1.01087 -0.66954,2.06114 l -0.87959,4.18791 q 0.44636,0.24944 1.1159,0.42011 0.68267,0.17067 1.40472,0.17067 0.93211,0 1.70668,-0.30195 0.77457,-0.31508 1.3916,-0.85334 0.61702,-0.53826 1.07651,-1.24719 0.45949,-0.70892 0.76144,-1.49662 0.30195,-0.80083 0.44637,-1.64103 0.15753,-0.85334 0.15753,-1.64104 z m 15.43885,4.87059 q -0.11815,0.512 -0.22318,1.06339 -0.0919,0.55139 -0.1838,1.06339 -0.0919,0.512 -0.15753,0.95836 -0.0657,0.44637 -0.10503,0.73519 h -2.10052 q 0.0656,-0.51201 0.14441,-1.06339 0.0919,-0.56452 0.17066,-1.03714 0.0919,-0.55138 0.17067,-1.07651 h -0.0525 q -0.45949,0.72205 -1.02401,1.36534 -0.55138,0.63015 -1.2078,1.1159 -0.64328,0.47262 -1.37847,0.74831 -0.72205,0.27569 -1.50975,0.27569 -0.86646,0 -1.52288,-0.27569 -0.64328,-0.26257 -1.07651,-0.74831 -0.43324,-0.48575 -0.65642,-1.16842 -0.21005,-0.68267 -0.21005,-1.52288 0,-0.17066 0.0525,-0.512 0.0525,-0.34133 0.11816,-0.73518 0.0656,-0.39385 0.14441,-0.77457 0.0919,-0.39385 0.14441,-0.66954 l 1.56226,-7.36496 h 2.1793 l -1.66729,7.87696 q -0.0525,0.21005 -0.10503,0.48575 -0.0525,0.27569 -0.10503,0.55138 -0.0394,0.2757 -0.0656,0.51201 -0.0263,0.22318 -0.0263,0.35446 0,0.98462 0.47261,1.57539 0.48575,0.57765 1.44411,0.57765 0.57765,0 1.15529,-0.23631 0.57765,-0.23631 1.1159,-0.63016 0.55139,-0.40698 1.03714,-0.93211 0.48574,-0.53826 0.87959,-1.12903 0.39385,-0.6039 0.66954,-1.23406 0.2757,-0.63015 0.40698,-1.2078 l 1.40473,-6.56413 h 2.16616 z M 138.154,639.73989 q -0.13128,-0.0656 -0.31508,-0.11815 -0.18379,-0.0656 -0.39385,-0.11816 -0.21005,-0.0525 -0.44636,-0.0788 -0.22318,-0.0394 -0.43323,-0.0394 -1.07652,0 -1.66729,0.70893 -0.57764,0.69579 -0.87959,2.08739 l -0.48575,2.15304 h 3.17704 l -0.43323,1.82483 h -3.17704 l -3.43961,16.08213 h -2.17929 l 3.46586,-16.08213 H 128.636 l 0.40698,-1.82483 h 2.31058 l 0.53826,-2.49437 q 0.24943,-1.15529 0.69579,-1.96924 0.44636,-0.81396 1.06339,-1.32596 0.61703,-0.512 1.3916,-0.74831 0.7877,-0.23631 1.7198,-0.23631 0.48575,0 0.94524,0.0788 0.47262,0.0788 0.80082,0.18379 z m 8.46774,0 q -0.13129,-0.0656 -0.31508,-0.11815 -0.1838,-0.0656 -0.39385,-0.11816 -0.21005,-0.0525 -0.44636,-0.0788 -0.22318,-0.0394 -0.43324,-0.0394 -1.07651,0 -1.66729,0.70893 -0.57764,0.69579 -0.87959,2.08739 l -0.48575,2.15304 h 3.17705 l -0.43324,1.82483 h -3.17704 l -3.43961,16.08213 h -2.17929 l 3.46586,-16.08213 h -2.31057 l 0.40698,-1.82483 h 2.31057 l 0.53826,-2.49437 q 0.24944,-1.15529 0.6958,-1.96924 0.44636,-0.81396 1.06339,-1.32596 0.61703,-0.512 1.3916,-0.74831 0.78769,-0.23631 1.7198,-0.23631 0.48575,0 0.94523,0.0788 0.47262,0.0788 0.80083,0.18379 z m 9.70179,7.74568 q 0,1.06339 -0.47262,1.94299 -0.47262,0.86646 -1.56227,1.49662 -1.08964,0.61703 -2.87509,0.95836 -1.78544,0.34134 -4.4111,0.35447 -0.0263,0.14441 -0.0263,0.30195 0,0.14441 0,0.26256 0,0.70893 0.19692,1.33909 0.19693,0.63015 0.6039,1.10277 0.42011,0.47262 1.06339,0.74831 0.65642,0.2757 1.54914,0.2757 0.90585,0 1.98237,-0.34134 1.08964,-0.35446 2.07426,-0.99775 l -0.40697,2.12678 q -0.72206,0.42011 -1.71981,0.73519 -0.99775,0.31507 -2.2318,0.31507 -1.4835,0 -2.5075,-0.45949 -1.01088,-0.45949 -1.64104,-1.22092 -0.61703,-0.77457 -0.89272,-1.77232 -0.27569,-1.01088 -0.27569,-2.11365 0,-1.18155 0.26256,-2.27119 0.26257,-1.10278 0.73519,-2.04801 0.48574,-0.94524 1.15528,-1.71981 0.66955,-0.78769 1.4835,-1.33908 0.81395,-0.55139 1.74606,-0.85334 0.93211,-0.30195 1.92985,-0.30195 1.03714,0 1.82483,0.27569 0.80083,0.2757 1.32596,0.76144 0.53826,0.47262 0.81395,1.10278 0.2757,0.63016 0.2757,1.33908 z m -2.19243,0.10503 q 0,-0.82708 -0.61702,-1.28657 -0.6039,-0.45949 -1.61478,-0.45949 -0.80083,0 -1.54914,0.35446 -0.74831,0.34134 -1.37847,0.95837 -0.63015,0.6039 -1.08964,1.45723 -0.45949,0.84021 -0.66954,1.82483 1.87734,0 3.19017,-0.18379 1.31282,-0.19693 2.1399,-0.56452 0.82709,-0.36759 1.20781,-0.89272 0.38071,-0.53826 0.38071,-1.2078 z m 12.76069,-0.97149 h -0.0525 q -0.26257,-0.15754 -0.6958,-0.30195 -0.42011,-0.15754 -0.84021,-0.15754 -0.76144,0 -1.45724,0.49887 -0.6958,0.48575 -1.27344,1.2997 -0.56452,0.80082 -0.99775,1.83796 -0.42011,1.03713 -0.65642,2.12678 l -1.26031,5.85521 h -2.15304 l 1.89048,-8.92723 q 0.11815,-0.55138 0.2363,-1.15529 0.11816,-0.6039 0.21006,-1.2078 0.10502,-0.6039 0.18379,-1.15528 0.0788,-0.55139 0.11816,-0.99775 h 2.12678 q -0.0394,0.39385 -0.0919,0.84021 -0.0525,0.43323 -0.10503,0.85333 -0.0525,0.40698 -0.10502,0.74832 -0.0525,0.3282 -0.0788,0.512 h 0.0525 q 0.4201,-0.74831 0.85334,-1.35221 0.43323,-0.6039 0.90585,-1.02401 0.48574,-0.43323 1.024,-0.66954 0.53826,-0.23631 1.16842,-0.23631 0.36759,0 0.72205,0.0788 0.3676,0.0656 0.65642,0.14441 z m 14.27043,-3.59715 q 0,0.87959 -0.24944,1.69355 -0.24944,0.80082 -0.77457,1.45724 -0.512,0.65641 -1.32595,1.14215 -0.80083,0.47262 -1.91673,0.68268 v 0.0525 q 0.81395,0.13128 1.41785,0.48574 0.61703,0.34134 1.02401,0.84021 0.40697,0.49888 0.6039,1.12903 0.21005,0.61703 0.21005,1.32596 0,1.45724 -0.53826,2.57314 -0.52513,1.10278 -1.47037,1.85109 -0.94523,0.74831 -2.24493,1.14216 -1.28657,0.38072 -2.79632,0.38072 h -5.75019 l 3.97787,-18.82594 h 5.18567 q 1.12903,0 1.9955,0.31507 0.86646,0.31508 1.45723,0.86647 0.59078,0.55139 0.89273,1.2997 0.30195,0.73518 0.30195,1.58852 z m -2.31058,0.4201 q 0,-0.49887 -0.15754,-0.94523 -0.15754,-0.44636 -0.512,-0.7877 -0.34134,-0.35446 -0.90585,-0.55138 -0.55139,-0.21006 -1.35221,-0.21006 h -2.74381 l -1.31283,6.07839 h 2.46812 q 1.12903,0 1.96924,-0.26256 0.85333,-0.26257 1.40472,-0.73519 0.56452,-0.47261 0.84021,-1.12903 0.27569,-0.65641 0.27569,-1.45724 z m -1.024,8.53338 q 0,-1.37847 -0.95837,-2.16616 -0.95836,-0.80083 -2.94073,-0.80083 h -2.49437 l -1.3916,6.77419 h 3.03263 q 1.23406,0 2.12678,-0.26257 0.89272,-0.27569 1.47037,-0.77456 0.59077,-0.49888 0.86646,-1.19468 0.28883,-0.70892 0.28883,-1.57539 z"
       id="text37"
       aria-label="bufferB" /><path
       style="font-style:italic;font-size:26.8867px;line-height:1.25;font-family:'Segoe UI';-inkscape-font-specification:'Segoe UI Bold';text-align:center;letter-spacing:0px;word-spacing:0px;text-anchor:middle;fill:#ffffff;stroke-width:2.25632"
       d="m 110.53212,521.13298 q 0,0.89272 -0.1838,1.91672 -0.18379,1.01088 -0.59077,2.02176 -0.40698,0.99775 -1.03713,1.92985 -0.63016,0.93211 -1.52288,1.64104 -0.8796,0.70892 -2.04801,1.14216 -1.15529,0.4201 -2.62566,0.4201 -0.6039,0 -1.24718,-0.0919 -0.64329,-0.0788 -1.26032,-0.23631 -0.617026,-0.15754 -1.181542,-0.38072 -0.564516,-0.22318 -1.024005,-0.512 l 4.043507,-19.00974 h 2.17929 l -1.35221,6.43286 q -0.14441,0.64328 -0.30195,1.35221 -0.14441,0.70893 -0.28882,1.26031 h 0.0263 q 0.4201,-0.66954 0.89272,-1.2078 0.47262,-0.53826 1.01088,-0.91898 0.55138,-0.38072 1.16841,-0.57764 0.63016,-0.21005 1.36534,-0.21005 1.91673,0 2.94073,1.31282 1.03714,1.31283 1.03714,3.71531 z m -2.20555,0.0525 q 0,-0.74831 -0.14441,-1.35221 -0.13129,-0.6039 -0.43324,-1.02401 -0.28882,-0.4201 -0.74831,-0.64328 -0.45949,-0.22318 -1.1159,-0.22318 -0.82708,0 -1.58852,0.48574 -0.76144,0.48575 -1.3916,1.28657 -0.63016,0.80083 -1.08964,1.8117 -0.45949,1.01088 -0.66955,2.06114 l -0.87959,4.18792 q 0.44636,0.24944 1.1159,0.42011 0.68267,0.17066 1.40473,0.17066 0.9321,0 1.70667,-0.30195 0.77457,-0.31508 1.3916,-0.85334 0.61703,-0.53825 1.07652,-1.24718 0.45949,-0.70893 0.76144,-1.49662 0.30195,-0.80083 0.44636,-1.64104 0.15754,-0.85334 0.15754,-1.64103 z m 15.43884,4.87059 q -0.11815,0.512 -0.22318,1.06339 -0.0919,0.55138 -0.18379,1.06339 -0.0919,0.512 -0.15754,0.95836 -0.0656,0.44636 -0.10503,0.73518 h -2.10052 q 0.0656,-0.512 0.14441,-1.06339 0.0919,-0.56451 0.17067,-1.03713 0.0919,-0.55139 0.17067,-1.07652 h -0.0525 q -0.45949,0.72206 -1.024,1.36534 -0.55139,0.63016 -1.2078,1.11591 -0.64329,0.47261 -1.37847,0.74831 -0.72206,0.27569 -1.50975,0.27569 -0.86647,0 -1.52288,-0.27569 -0.64329,-0.26257 -1.07652,-0.74831 -0.43323,-0.48575 -0.65641,-1.16842 -0.21006,-0.68267 -0.21006,-1.52288 0,-0.17067 0.0525,-0.512 0.0525,-0.34134 0.11815,-0.73519 0.0656,-0.39384 0.14441,-0.77456 0.0919,-0.39385 0.14441,-0.66955 l 1.56227,-7.36496 h 2.17929 l -1.66729,7.87697 q -0.0525,0.21005 -0.10503,0.48574 -0.0525,0.2757 -0.10502,0.55139 -0.0394,0.27569 -0.0656,0.512 -0.0263,0.22318 -0.0263,0.35447 0,0.98462 0.47262,1.57539 0.48574,0.57764 1.44411,0.57764 0.57764,0 1.15528,-0.23631 0.57765,-0.23631 1.11591,-0.63015 0.55139,-0.40698 1.03713,-0.93211 0.48575,-0.53826 0.8796,-1.12903 0.39384,-0.6039 0.66954,-1.23406 0.27569,-0.63016 0.40697,-1.2078 l 1.40473,-6.56414 h 2.16616 z m 13.60089,-14.21792 q -0.13128,-0.0656 -0.31507,-0.11816 -0.1838,-0.0656 -0.39385,-0.11815 -0.21005,-0.0525 -0.44636,-0.0788 -0.22318,-0.0394 -0.43324,-0.0394 -1.07651,0 -1.66729,0.70892 -0.57764,0.6958 -0.87959,2.0874 l -0.48575,2.15303 h 3.17704 l -0.43323,1.82483 h -3.17704 l -3.43961,16.08214 h -2.17929 l 3.46586,-16.08214 h -2.31057 l 0.40697,-1.82483 h 2.31058 l 0.53826,-2.49437 q 0.24944,-1.15529 0.6958,-1.96924 0.44636,-0.81395 1.06339,-1.32595 0.61703,-0.51201 1.39159,-0.74832 0.7877,-0.2363 1.71981,-0.2363 0.48574,0 0.94523,0.0788 0.47262,0.0788 0.80083,0.18379 z m 8.46774,0 q -0.13128,-0.0656 -0.31508,-0.11816 -0.18379,-0.0656 -0.39385,-0.11815 -0.21005,-0.0525 -0.44636,-0.0788 -0.22318,-0.0394 -0.43323,-0.0394 -1.07652,0 -1.66729,0.70892 -0.57765,0.6958 -0.8796,2.0874 l -0.48574,2.15303 h 3.17704 l -0.43323,1.82483 h -3.17704 l -3.43961,16.08214 h -2.1793 l 3.46587,-16.08214 h -2.31058 l 0.40698,-1.82483 h 2.31057 l 0.53826,-2.49437 q 0.24944,-1.15529 0.6958,-1.96924 0.44636,-0.81395 1.06339,-1.32595 0.61703,-0.51201 1.3916,-0.74832 0.7877,-0.2363 1.7198,-0.2363 0.48575,0 0.94524,0.0788 0.47262,0.0788 0.80082,0.18379 z m 9.70179,7.74568 q 0,1.06339 -0.47262,1.94298 -0.47262,0.86647 -1.56226,1.49663 -1.08965,0.61702 -2.87509,0.95836 -1.78545,0.34134 -4.4111,0.35446 -0.0263,0.14441 -0.0263,0.30195 0,0.14441 0,0.26257 0,0.70893 0.19692,1.33908 0.19693,0.63016 0.60391,1.10278 0.4201,0.47262 1.06339,0.74831 0.65641,0.27569 1.54913,0.27569 0.90585,0 1.98237,-0.34133 1.08965,-0.35447 2.07427,-0.99775 l -0.40698,2.12678 q -0.72205,0.4201 -1.7198,0.73518 -0.99775,0.31508 -2.23181,0.31508 -1.48349,0 -2.5075,-0.45949 -1.01088,-0.45949 -1.64103,-1.22093 -0.61703,-0.77457 -0.89273,-1.77231 -0.27569,-1.01088 -0.27569,-2.11366 0,-1.18154 0.26257,-2.27119 0.26256,-1.10277 0.73518,-2.04801 0.48575,-0.94523 1.15529,-1.7198 0.66954,-0.7877 1.48349,-1.33908 0.81396,-0.55139 1.74606,-0.85334 0.93211,-0.30195 1.92986,-0.30195 1.03713,0 1.82483,0.27569 0.80082,0.27569 1.32595,0.76144 0.53826,0.47262 0.81396,1.10278 0.27569,0.63015 0.27569,1.33908 z m -2.19242,0.10503 q 0,-0.82709 -0.61703,-1.28658 -0.6039,-0.45948 -1.61478,-0.45948 -0.80082,0 -1.54913,0.35446 -0.74831,0.34133 -1.37847,0.95836 -0.63016,0.6039 -1.08965,1.45724 -0.45949,0.84021 -0.66954,1.82483 1.87734,0 3.19017,-0.1838 1.31283,-0.19692 2.13991,-0.56451 0.82708,-0.36759 1.2078,-0.89272 0.38072,-0.53826 0.38072,-1.2078 z m 12.76068,-0.9715 h -0.0525 q -0.26257,-0.15754 -0.6958,-0.30195 -0.4201,-0.15754 -0.84021,-0.15754 -0.76144,0 -1.45724,0.49888 -0.6958,0.48574 -1.27344,1.2997 -0.56451,0.80082 -0.99775,1.83795 -0.4201,1.03714 -0.65641,2.12678 l -1.26032,5.85521 h -2.15303 l 1.89047,-8.92722 q 0.11815,-0.55139 0.23631,-1.15529 0.11815,-0.6039 0.21005,-1.2078 0.10503,-0.6039 0.1838,-1.15529 0.0788,-0.55138 0.11815,-0.99775 h 2.12678 q -0.0394,0.39385 -0.0919,0.84021 -0.0525,0.43324 -0.10502,0.85334 -0.0525,0.40698 -0.10503,0.74831 -0.0525,0.32821 -0.0788,0.51201 h 0.0525 q 0.42011,-0.74832 0.85334,-1.35222 0.43323,-0.6039 0.90585,-1.024 0.48575,-0.43324 1.02401,-0.66954 0.53826,-0.23631 1.16841,-0.23631 0.36759,0 0.72206,0.0788 0.36759,0.0656 0.65641,0.14441 z m 12.60314,11.15903 -0.85334,-5.26443 h -7.98199 l -3.04576,5.26443 h -2.59939 l 11.21154,-18.82594 h 2.31058 l 3.28206,18.82594 z m -2.4156,-15.26818 q -0.0131,-0.13128 -0.0263,-0.30195 0,-0.17066 0,-0.34133 0,-0.1838 0,-0.34134 0,-0.17066 0,-0.28882 h -0.0525 q -0.0394,0.11816 -0.10503,0.28882 -0.0656,0.15754 -0.14441,0.34134 -0.0788,0.17067 -0.17067,0.34133 -0.0788,0.17067 -0.14441,0.30195 l -4.64741,8.00825 h 6.4985 z"
       id="text38"
       aria-label="bufferA" /><rect
       style="fill:none;stroke:#ffffff;stroke-width:1.80983;stroke-linejoin:round;stroke-dasharray:none;stroke-opacity:1"
       id="rect38"
       width="601.68011"
       height="37.791199"
       x="217.26108"
       y="505.75983" /><rect
       style="fill:#ffc26d;fill-opacity:1;stroke:none;stroke-width:1.50134;stroke-linejoin:round;stroke-opacity:1"
       id="rect39"
       width="31.531969"
       height="31.079329"
       x="356.9119"
       y="509.11575" /><path
       style="fill:#636363;fill-opacity:1;stroke:none;stroke-width:2.80614;stroke-linejoin:round;stroke-dasharray:none;stroke-opacity:1"
       d="m 356.26298,546.55121 c 0,36.92938 -135.55798,32.87616 -135.55798,77.01127 l 302.19071,0.45037 c 0,-40.53226 137.35942,-34.45242 137.35942,-77.68681 z"
       id="path39" /><path
       style="fill:none;fill-opacity:1;stroke:#ffffff;stroke-width:1.80983;stroke-linejoin:round;stroke-dasharray:none;stroke-opacity:1"
       d="m 236.69277,548.74694 v 8.42337 h 34.41964"
       id="path40" /><path
       style="font-size:15.5122px;line-height:1.25;font-family:'Segoe UI';-inkscape-font-specification:'Segoe UI Bold';text-align:center;letter-spacing:0px;word-spacing:0px;text-anchor:middle;fill:#ffffff;stroke-width:1.30178"
       d="m 280.61159,560.90106 h -1.24218 v -9.38458 q -0.14392,0.14392 -0.42416,0.33327 -0.27268,0.18179 -0.6211,0.36357 -0.34084,0.18178 -0.72713,0.34085 -0.37872,0.15906 -0.74229,0.24995 v -1.25734 q 0.40902,-0.11361 0.86348,-0.30297 0.46203,-0.19693 0.90134,-0.43174 0.44688,-0.24238 0.84075,-0.4999 0.39386,-0.2651 0.68169,-0.51506 h 0.4696 z m 10.6192,-3.44631 q 0,0.7953 -0.25753,1.46184 -0.25753,0.66654 -0.71199,1.1513 -0.45445,0.48475 -1.08312,0.75743 -0.62867,0.2651 -1.36338,0.2651 -0.81803,0 -1.46942,-0.34084 -0.64381,-0.34085 -1.09827,-0.97709 -0.44689,-0.64382 -0.68169,-1.56788 -0.23481,-0.92407 -0.23481,-2.08294 0,-1.4164 0.31055,-2.5677 0.31812,-1.15887 0.89377,-1.97689 0.58322,-0.8256 1.40125,-1.27249 0.81803,-0.44688 1.82541,-0.44688 1.121,0 1.80269,0.31055 v 1.17401 q -0.84075,-0.43173 -1.77239,-0.43173 -0.72714,0 -1.31036,0.32569 -0.58322,0.3257 -0.99981,0.92407 -0.41659,0.5908 -0.64382,1.43155 -0.21965,0.84075 -0.21965,1.87085 h 0.0303 q 0.74985,-1.3558 2.4768,-1.3558 0.71198,0 1.28006,0.24238 0.57564,0.24238 0.97708,0.68926 0.40902,0.43931 0.62867,1.05283 0.21966,0.61352 0.21966,1.36338 z m -1.27249,0.15906 q 0,-0.56808 -0.14391,-1.02253 -0.14391,-0.45446 -0.41659,-0.77258 -0.2651,-0.31813 -0.65896,-0.48476 -0.39387,-0.17421 -0.89377,-0.17421 -0.46204,0 -0.8559,0.17421 -0.39387,0.17421 -0.68169,0.47718 -0.28782,0.2954 -0.45446,0.69684 -0.15906,0.39386 -0.15906,0.84075 0,0.5605 0.15906,1.05283 0.15906,0.48475 0.44689,0.84832 0.28782,0.36357 0.68168,0.57565 0.40144,0.20451 0.8862,0.20451 0.46961,0 0.8559,-0.17421 0.38629,-0.18179 0.65896,-0.49991 0.27268,-0.31812 0.42417,-0.75743 0.15148,-0.44688 0.15148,-0.98466 z m 8.67259,2.16625 h -0.0303 v 1.121 H 297.3584 V 549.4184 h 1.24219 v 5.08994 h 0.0303 q 0.9165,-1.54516 2.68131,-1.54516 1.49214,0 2.33289,1.04525 0.84832,1.03769 0.84832,2.78735 0,1.9466 -0.94679,3.12062 -0.94678,1.16645 -2.59041,1.16645 -1.53759,0 -2.32532,-1.30279 z m -0.0303,-3.12819 v 1.08313 q 0,0.96194 0.62109,1.63605 0.62867,0.66654 1.59061,0.66654 1.12857,0 1.76481,-0.86347 0.64382,-0.86347 0.64382,-2.40106 0,-1.29521 -0.59837,-2.02992 -0.59837,-0.73471 -1.62091,-0.73471 -1.08312,0 -1.74209,0.75744 -0.65896,0.74985 -0.65896,1.886 z m 14.05035,-3.50691 -3.5675,8.99829 q -0.95436,2.40863 -2.68131,2.40863 -0.48475,0 -0.81045,-0.0985 v -1.11343 q 0.40144,0.13634 0.73471,0.13634 0.93922,0 1.40882,-1.121 l 0.6211,-1.46942 -3.02973,-7.74095 h 1.37853 l 2.09808,5.96856 q 0.0379,0.11362 0.15906,0.5908 h 0.0454 q 0.0379,-0.18178 0.15148,-0.57565 l 2.20413,-5.98371 z m 4.93088,7.68036 q -0.43931,0.24238 -1.15887,0.24238 -2.03749,0 -2.03749,-2.2723 v -4.59003 h -1.33308 v -1.06041 h 1.33308 v -1.89358 l 1.24219,-0.40144 v 2.29502 h 1.95417 v 1.06041 h -1.95417 v 4.37038 q 0,0.78015 0.2651,1.11342 0.2651,0.33327 0.87862,0.33327 0.46961,0 0.81045,-0.25753 z m 7.89244,-3.49176 h -5.47623 q 0.0303,1.29521 0.69684,1.99962 0.66654,0.70441 1.83298,0.70441 1.31036,0 2.40864,-0.86347 v 1.16644 q -1.02254,0.74229 -2.70403,0.74229 -1.64363,0 -2.58285,-1.05283 -0.93921,-1.06041 -0.93921,-2.97671 0,-1.81026 1.02253,-2.94641 1.03011,-1.14372 2.55255,-1.14372 1.52243,0 2.35561,0.98466 0.83317,0.98466 0.83317,2.73433 z m -1.27248,-1.05283 q -0.008,-1.07555 -0.52263,-1.67393 -0.50748,-0.59837 -1.4164,-0.59837 -0.87862,0 -1.49214,0.62867 -0.61352,0.62867 -0.75743,1.64363 z m 2.6813,4.34008 v -1.33308 q 1.01496,0.74986 2.23443,0.74986 1.63605,0 1.63605,-1.0907 0,-0.31055 -0.14391,-0.52263 -0.13634,-0.21965 -0.37872,-0.38629 -0.2348,-0.16663 -0.5605,-0.2954 -0.31812,-0.13634 -0.68926,-0.28025 -0.51505,-0.2045 -0.90892,-0.40901 -0.38629,-0.21208 -0.65139,-0.46961 -0.25753,-0.2651 -0.39386,-0.59837 -0.12877,-0.33327 -0.12877,-0.78015 0,-0.54535 0.24995,-0.96194 0.24996,-0.42416 0.66654,-0.70441 0.41659,-0.28783 0.94679,-0.43174 0.53778,-0.14391 1.10585,-0.14391 1.00739,0 1.80269,0.34842 v 1.25733 q -0.8559,-0.5605 -1.96932,-0.5605 -0.34842,0 -0.62867,0.0833 -0.28025,0.0757 -0.48476,0.21966 -0.19693,0.14391 -0.31054,0.34842 -0.10604,0.19693 -0.10604,0.43931 0,0.30297 0.10604,0.50747 0.11361,0.20451 0.32569,0.36357 0.21208,0.15906 0.51506,0.28783 0.30297,0.12876 0.68926,0.28025 0.51505,0.19693 0.92407,0.40901 0.40901,0.20451 0.69683,0.46961 0.28783,0.25752 0.43931,0.59837 0.15906,0.34084 0.15906,0.81045 0,0.57565 -0.25752,0.99981 -0.24995,0.42416 -0.67412,0.70441 -0.42416,0.28025 -0.97708,0.41659 -0.55293,0.13634 -1.15887,0.13634 -1.19675,0 -2.07537,-0.46204 z"
       id="text40"
       aria-label="16 bytes" /><path
       style="fill:none;fill-opacity:1;stroke:#ffffff;stroke-width:1.80983;stroke-linejoin:round;stroke-dasharray:none;stroke-opacity:1"
       d="m 372.4305,548.74694 v 8.42337 h -34.41964"
       id="path41" /><rect
       style="fill:#ff9b54;fill-opacity:1;stroke:none;stroke-width:1.50134;stroke-linejoin:round;stroke-opacity:1"
       id="rect41"
       width="31.531969"
       height="31.079329"
       x="391.43164"
       y="509.11575" /><rect
       style="fill:#ff833b;fill-opacity:1;stroke:none;stroke-width:1.50134;stroke-linejoin:round;stroke-opacity:1"
       id="rect42"
       width="31.531969"
       height="31.079329"
       x="425.95139"
       y="509.11575" /><path
       style="fill:none;fill-opacity:1;stroke:#ffffff;stroke-width:1.80983;stroke-linejoin:round;stroke-dasharray:none;stroke-opacity:1"
       d="m 236.69277,500.65455 v -8.42337 h 244.59777"
       id="path42" /><path
       style="font-size:15.5122px;line-height:1.25;font-family:'Segoe UI';-inkscape-font-specification:'Segoe UI Bold';text-align:center;letter-spacing:0px;word-spacing:0px;text-anchor:middle;fill:#ffffff;stroke-width:1.30178"
       d="m 491.38298,488.26097 q 0,-0.4999 -0.15906,-0.87105 -0.15149,-0.37114 -0.42417,-0.61352 -0.2651,-0.24995 -0.62866,-0.37114 -0.36357,-0.12119 -0.78773,-0.12119 -0.36357,0 -0.71199,0.0985 -0.34842,0.0985 -0.68169,0.27268 -0.32569,0.1742 -0.63624,0.41658 -0.30297,0.24238 -0.56807,0.53778 v -1.33308 q 0.52262,-0.50748 1.16644,-0.77258 0.65139,-0.27268 1.58303,-0.27268 0.66654,0 1.23462,0.19694 0.56807,0.18935 0.98466,0.5605 0.41658,0.37114 0.65139,0.91649 0.24238,0.54535 0.24238,1.24976 0,0.64382 -0.15149,1.16644 -0.14391,0.52263 -0.44688,0.98467 -0.2954,0.46203 -0.74986,0.88619 -0.45446,0.42416 -1.06798,0.86347 -0.76501,0.54535 -1.26491,0.93164 -0.49233,0.38629 -0.78773,0.72714 -0.28782,0.33327 -0.40901,0.67411 -0.11362,0.33327 -0.11362,0.77258 h 5.40806 v 1.11343 h -6.70327 v -0.53778 q 0,-0.69684 0.15149,-1.22704 0.15149,-0.5302 0.49991,-1.00738 0.34841,-0.47718 0.90891,-0.95437 0.56808,-0.47718 1.3861,-1.07555 0.5908,-0.42416 0.98466,-0.81045 0.40144,-0.38629 0.64382,-0.77258 0.24238,-0.38629 0.34085,-0.78016 0.10604,-0.40144 0.10604,-0.84832 z m 9.85418,4.69608 q 0,0.7953 -0.27267,1.43912 -0.27268,0.64381 -0.78016,1.10585 -0.4999,0.46203 -1.21189,0.71198 -0.71198,0.24996 -1.58303,0.24996 -1.51486,0 -2.24957,-0.45446 v -1.31793 q 1.10585,0.71198 2.26472,0.71198 0.59079,0 1.0604,-0.17421 0.47718,-0.17421 0.81045,-0.48475 0.33327,-0.31055 0.50748,-0.74986 0.18179,-0.43931 0.18179,-0.96194 0,-1.0604 -0.71199,-1.65878 -0.71199,-0.60594 -2.06779,-0.60594 -0.21965,0 -0.46203,0.008 -0.24238,0.008 -0.48476,0.0227 -0.24238,0.008 -0.47718,0.0227 -0.22723,0.0151 -0.41659,0.0379 l 0.37114,-5.44593 h 5.02178 v 1.121 h -3.94622 l -0.21966,3.18878 q 0.24238,-0.0152 0.51506,-0.0227 0.27267,-0.0152 0.48475,-0.0152 0.86347,0 1.54516,0.22723 0.68169,0.22723 1.1513,0.65139 0.47718,0.41659 0.71956,1.03011 0.24995,0.60594 0.24995,1.36338 z m 8.76349,-0.12877 q 0,0.79531 -0.25753,1.46185 -0.25753,0.66654 -0.71199,1.15129 -0.45446,0.48476 -1.08312,0.75743 -0.62867,0.26511 -1.36338,0.26511 -0.81803,0 -1.46942,-0.34085 -0.64382,-0.34084 -1.09827,-0.97709 -0.44689,-0.64381 -0.68169,-1.56788 -0.23481,-0.92407 -0.23481,-2.08294 0,-1.41639 0.31055,-2.56769 0.31812,-1.15887 0.89377,-1.9769 0.58322,-0.8256 1.40125,-1.27248 0.81802,-0.44689 1.82541,-0.44689 1.121,0 1.80269,0.31055 v 1.17402 q -0.84075,-0.43174 -1.77239,-0.43174 -0.72714,0 -1.31036,0.3257 -0.58322,0.32569 -0.99981,0.92407 -0.41659,0.59079 -0.64382,1.43154 -0.21965,0.84075 -0.21965,1.87086 h 0.0303 q 0.74986,-1.3558 2.47681,-1.3558 0.71198,0 1.28006,0.24237 0.57564,0.24238 0.97708,0.68927 0.40902,0.43931 0.62867,1.05283 0.21966,0.61352 0.21966,1.36337 z m -1.27249,0.15906 q 0,-0.56807 -0.14391,-1.02253 -0.14391,-0.45446 -0.41659,-0.77258 -0.2651,-0.31812 -0.65896,-0.48476 -0.39387,-0.1742 -0.89377,-0.1742 -0.46204,0 -0.8559,0.1742 -0.39387,0.17421 -0.68169,0.47719 -0.28782,0.29539 -0.45446,0.69683 -0.15906,0.39387 -0.15906,0.84075 0,0.5605 0.15906,1.05283 0.15906,0.48476 0.44689,0.84833 0.28782,0.36356 0.68168,0.57564 0.40144,0.20451 0.8862,0.20451 0.46961,0 0.8559,-0.17421 0.38629,-0.18178 0.65896,-0.4999 0.27268,-0.31812 0.42416,-0.75744 0.15149,-0.44688 0.15149,-0.98466 z m 8.67259,2.16626 h -0.0303 v 1.121 h -1.24219 v -11.48267 h 1.24219 v 5.08994 h 0.0303 q 0.91649,-1.54516 2.68131,-1.54516 1.49214,0 2.33289,1.04526 0.84832,1.03768 0.84832,2.78735 0,1.9466 -0.94679,3.12062 -0.94679,1.16644 -2.59041,1.16644 -1.53759,0 -2.32532,-1.30278 z m -0.0303,-3.12819 v 1.08312 q 0,0.96194 0.62109,1.63606 0.62867,0.66654 1.59061,0.66654 1.12857,0 1.76481,-0.86348 0.64382,-0.86347 0.64382,-2.40106 0,-1.2952 -0.59837,-2.02991 -0.59837,-0.73471 -1.62091,-0.73471 -1.08312,0 -1.74209,0.75743 -0.65896,0.74986 -0.65896,1.88601 z m 14.05035,-3.50691 -3.5675,8.99829 q -0.95437,2.40863 -2.68131,2.40863 -0.48476,0 -0.81045,-0.0985 v -1.11342 q 0.40144,0.13633 0.73471,0.13633 0.93921,0 1.40882,-1.12099 l 0.62109,-1.46942 -3.02972,-7.74095 h 1.37852 l 2.09809,5.96856 q 0.0379,0.11361 0.15906,0.5908 h 0.0454 q 0.0379,-0.18179 0.15148,-0.57565 l 2.20413,-5.98371 z m 4.93088,7.68035 q -0.43931,0.24238 -1.15887,0.24238 -2.03749,0 -2.03749,-2.27229 v -4.59004 h -1.33308 v -1.0604 h 1.33308 v -1.89358 l 1.24219,-0.40144 v 2.29502 h 1.95417 v 1.0604 h -1.95417 v 4.37038 q 0,0.78016 0.2651,1.11343 0.2651,0.33327 0.87862,0.33327 0.46961,0 0.81045,-0.25753 z m 7.89244,-3.49176 h -5.47623 q 0.0303,1.29521 0.69684,1.99962 0.66654,0.70442 1.83298,0.70442 1.31036,0 2.40864,-0.86348 v 1.16645 q -1.02254,0.74228 -2.70404,0.74228 -1.64362,0 -2.58284,-1.05283 -0.93921,-1.0604 -0.93921,-2.97671 0,-1.81026 1.02253,-2.9464 1.03011,-1.14373 2.55254,-1.14373 1.52244,0 2.35562,0.98466 0.83317,0.98467 0.83317,2.73433 z m -1.27248,-1.05283 q -0.008,-1.07555 -0.52263,-1.67392 -0.50748,-0.59837 -1.4164,-0.59837 -0.87862,0 -1.49214,0.62867 -0.61352,0.62867 -0.75743,1.64362 z m 2.6813,4.34009 v -1.33308 q 1.01496,0.74986 2.23443,0.74986 1.63605,0 1.63605,-1.09071 0,-0.31054 -0.14391,-0.52262 -0.13634,-0.21966 -0.37872,-0.38629 -0.2348,-0.16664 -0.5605,-0.2954 -0.31812,-0.13634 -0.68926,-0.28025 -0.51505,-0.20451 -0.90892,-0.40902 -0.38629,-0.21208 -0.65139,-0.4696 -0.25753,-0.2651 -0.39387,-0.59837 -0.12876,-0.33327 -0.12876,-0.78016 0,-0.54535 0.24995,-0.96194 0.24996,-0.42416 0.66654,-0.70441 0.41659,-0.28782 0.94679,-0.43173 0.53778,-0.14392 1.10585,-0.14392 1.00739,0 1.80269,0.34842 v 1.25734 q -0.8559,-0.5605 -1.96932,-0.5605 -0.34842,0 -0.62867,0.0833 -0.28025,0.0757 -0.48476,0.21965 -0.19693,0.14391 -0.31054,0.34842 -0.10604,0.19693 -0.10604,0.43931 0,0.30297 0.10604,0.50748 0.11361,0.20451 0.32569,0.36357 0.21208,0.15906 0.51506,0.28782 0.30297,0.12876 0.68926,0.28025 0.51505,0.19693 0.92407,0.40901 0.40901,0.20451 0.69683,0.46961 0.28783,0.25753 0.43931,0.59837 0.15906,0.34085 0.15906,0.81045 0,0.57565 -0.25752,0.99981 -0.24996,0.42417 -0.67412,0.70442 -0.42416,0.28025 -0.97708,0.41658 -0.55293,0.13634 -1.15887,0.13634 -1.19675,0 -2.07537,-0.46203 z"
       id="text42"
       aria-label="256 bytes" /><path
       style="fill:none;fill-opacity:1;stroke:#ffffff;stroke-width:1.80983;stroke-linejoin:round;stroke-dasharray:none;stroke-opacity:1"
       d="m 798.5189,500.65455 v -8.42337 H 556.30952"
       id="path43" /><rect
       style="fill:none;stroke:#ffffff;stroke-width:1.80983;stroke-linejoin:round;stroke-dasharray:none;stroke-opacity:1"
       id="rect43"
       width="309.84763"
       height="37.791199"
       x="217.26108"
       y="627.15222" /><rect
       style="fill:#ffc26d;fill-opacity:1;stroke:none;stroke-width:1.50134;stroke-linejoin:round;stroke-opacity:1"
       id="rect44"
       width="31.531969"
       height="31.079329"
       x="220.4456"
       y="630.50818" /><rect
       style="fill:#ff9b54;fill-opacity:1;stroke:none;stroke-width:1.50134;stroke-linejoin:round;stroke-opacity:1"
       id="rect45"
       width="31.531969"
       height="31.079329"
       x="254.96533"
       y="630.50818" /><rect
       style="fill:#ff833b;fill-opacity:1;stroke:none;stroke-width:1.50134;stroke-linejoin:round;stroke-opacity:1"
       id="rect46"
       width="31.531969"
       height="31.079329"
       x="289.48508"
       y="630.50818" /><g
       id="g48"
       transform="matrix(1.2848528,0,0,1.2848515,-49.692265,453.93568)"
       style="fill:#ff6d2c;fill-opacity:1"><circle
         style="fill:#ff6d2c;fill-opacity:1;stroke:none;stroke-width:1.52558;stroke-linejoin:round;stroke-dasharray:none;stroke-opacity:1"
         id="circle46"
         cx="351.24713"
         cy="149.52086"
         r="0.95220608" /><circle
         style="fill:#ff6d2c;fill-opacity:1;stroke:none;stroke-width:1.52558;stroke-linejoin:round;stroke-dasharray:none;stroke-opacity:1"
         id="circle47"
         cx="355.14142"
         cy="149.52086"
         r="0.95220608" /><circle
         style="fill:#ff6d2c;fill-opacity:1;stroke:none;stroke-width:1.52558;stroke-linejoin:round;stroke-dasharray:none;stroke-opacity:1"
         id="circle48"
         cx="359.03571"
         cy="149.52086"
         r="0.95220608" /></g><path
       style="fill:none;fill-opacity:1;stroke:#ffffff;stroke-width:1.80983;stroke-linejoin:round;stroke-dasharray:none;stroke-opacity:1"
       d="m 236.69277,672.05004 v 8.42337 h 101.74828"
       id="path48" /><path
       style="font-size:15.5122px;line-height:1.25;font-family:'Segoe UI';-inkscape-font-specification:'Segoe UI Bold';text-align:center;letter-spacing:0px;word-spacing:0px;text-anchor:middle;fill:#ffffff;stroke-width:1.30178"
       d="m 350.33604,681.12911 q 0,0.73471 -0.28025,1.34066 -0.27267,0.59837 -0.78015,1.0301 -0.49991,0.42416 -1.20432,0.65897 -0.70441,0.2348 -1.55273,0.2348 -1.55274,0 -2.46923,-0.59079 v -1.33308 q 1.09828,0.86347 2.51467,0.86347 0.56808,0 1.02254,-0.14391 0.46203,-0.14392 0.78772,-0.41659 0.33327,-0.27268 0.50748,-0.65897 0.18179,-0.38629 0.18179,-0.87104 0,-2.12839 -3.02973,-2.12839 h -0.90134 v -1.05283 h 0.85589 q 2.68131,0 2.68131,-1.99962 0,-1.84813 -2.04506,-1.84813 -1.1513,0 -2.15868,0.77258 v -1.20431 q 1.03768,-0.6211 2.46922,-0.6211 0.68169,0 1.23462,0.18936 0.55292,0.18936 0.94679,0.5302 0.39386,0.34085 0.60594,0.81803 0.21966,0.47718 0.21966,1.05283 0,2.14353 -2.16626,2.75705 v 0.0303 q 0.55293,0.0606 1.02254,0.27267 0.4696,0.20451 0.81045,0.53778 0.34084,0.33327 0.5302,0.78773 0.19693,0.44688 0.19693,0.99223 z m 6.9911,-4.93845 q 0,-0.49991 -0.15906,-0.87105 -0.15149,-0.37114 -0.42417,-0.61352 -0.2651,-0.24995 -0.62866,-0.37114 -0.36357,-0.12119 -0.78773,-0.12119 -0.36357,0 -0.71199,0.0985 -0.34842,0.0985 -0.68169,0.27267 -0.32569,0.17421 -0.63624,0.41659 -0.30297,0.24238 -0.56807,0.53778 v -1.33308 q 0.52262,-0.50748 1.16644,-0.77258 0.65139,-0.27268 1.58303,-0.27268 0.66654,0 1.23462,0.19693 0.56807,0.18936 0.98466,0.5605 0.41659,0.37114 0.65139,0.9165 0.24238,0.54535 0.24238,1.24976 0,0.64381 -0.15149,1.16644 -0.14391,0.52263 -0.44688,0.98466 -0.2954,0.46204 -0.74986,0.8862 -0.45446,0.42416 -1.06798,0.86347 -0.76501,0.54535 -1.26491,0.93164 -0.49233,0.38629 -0.78773,0.72714 -0.28782,0.33327 -0.40901,0.67411 -0.11362,0.33327 -0.11362,0.77258 h 5.40806 v 1.11342 h -6.70327 v -0.53777 q 0,-0.69684 0.15149,-1.22704 0.15149,-0.5302 0.49991,-1.00739 0.34841,-0.47718 0.90891,-0.95436 0.56808,-0.47718 1.3861,-1.07555 0.5908,-0.42416 0.98467,-0.81045 0.40143,-0.38629 0.64381,-0.77258 0.24238,-0.38629 0.34085,-0.78016 0.10604,-0.40144 0.10604,-0.84832 z m 9.29368,6.89263 h -0.0303 v 1.12099 h -1.24219 v -11.48266 h 1.24219 v 5.08994 h 0.0303 q 0.91649,-1.54516 2.68131,-1.54516 1.49214,0 2.33289,1.04526 0.84832,1.03768 0.84832,2.78735 0,1.94659 -0.94679,3.12061 -0.94679,1.16645 -2.59041,1.16645 -1.53759,0 -2.32532,-1.30278 z m -0.0303,-3.1282 v 1.08313 q 0,0.96194 0.62109,1.63605 0.62867,0.66654 1.59061,0.66654 1.12857,0 1.76481,-0.86347 0.64382,-0.86347 0.64382,-2.40106 0,-1.29521 -0.59837,-2.02991 -0.59837,-0.73471 -1.62091,-0.73471 -1.08312,0 -1.74209,0.75743 -0.65896,0.74986 -0.65896,1.886 z m 14.05035,-3.50691 -3.5675,8.99829 q -0.95436,2.40864 -2.68131,2.40864 -0.48475,0 -0.81045,-0.0985 v -1.11343 q 0.40144,0.13634 0.73471,0.13634 0.93921,0 1.40882,-1.121 l 0.6211,-1.46941 -3.02973,-7.74096 h 1.37853 l 2.09808,5.96857 q 0.0379,0.11361 0.15906,0.59079 h 0.0455 q 0.0379,-0.18178 0.15148,-0.57565 l 2.20413,-5.98371 z m 4.93088,7.68036 q -0.43931,0.24238 -1.15887,0.24238 -2.03749,0 -2.03749,-2.2723 v -4.59003 h -1.33308 v -1.06041 h 1.33308 v -1.89357 l 1.24219,-0.40144 v 2.29501 h 1.95417 v 1.06041 h -1.95417 v 4.37038 q 0,0.78015 0.2651,1.11342 0.2651,0.33327 0.87862,0.33327 0.46961,0 0.81045,-0.25752 z m 7.89244,-3.49176 h -5.47623 q 0.0303,1.29521 0.69684,1.99962 0.66654,0.70441 1.83298,0.70441 1.31036,0 2.40864,-0.86347 v 1.16645 q -1.02254,0.74228 -2.70404,0.74228 -1.64362,0 -2.58284,-1.05283 -0.93921,-1.06041 -0.93921,-2.97671 0,-1.81026 1.02253,-2.94641 1.03011,-1.14372 2.55254,-1.14372 1.52244,0 2.35562,0.98466 0.83317,0.98466 0.83317,2.73433 z m -1.27248,-1.05283 q -0.008,-1.07555 -0.52263,-1.67392 -0.50748,-0.59837 -1.4164,-0.59837 -0.87862,0 -1.49214,0.62866 -0.61352,0.62867 -0.75743,1.64363 z m 2.6813,4.34008 v -1.33307 q 1.01496,0.74985 2.23443,0.74985 1.63605,0 1.63605,-1.0907 0,-0.31055 -0.14391,-0.52263 -0.13634,-0.21965 -0.37872,-0.38629 -0.2348,-0.16663 -0.5605,-0.2954 -0.31812,-0.13633 -0.68926,-0.28025 -0.51505,-0.2045 -0.90892,-0.40901 -0.38629,-0.21208 -0.65139,-0.46961 -0.25753,-0.2651 -0.39387,-0.59837 -0.12876,-0.33327 -0.12876,-0.78015 0,-0.54535 0.24995,-0.96194 0.24996,-0.42416 0.66654,-0.70441 0.41659,-0.28783 0.94679,-0.43174 0.53778,-0.14391 1.10585,-0.14391 1.00739,0 1.80269,0.34842 v 1.25734 q -0.8559,-0.5605 -1.96932,-0.5605 -0.34842,0 -0.62867,0.0833 -0.28025,0.0758 -0.48476,0.21966 -0.19693,0.14391 -0.31054,0.34842 -0.10604,0.19693 -0.10604,0.43931 0,0.30297 0.10604,0.50748 0.11361,0.2045 0.32569,0.36356 0.21208,0.15907 0.51506,0.28783 0.30297,0.12876 0.68926,0.28025 0.51505,0.19693 0.92407,0.40901 0.40901,0.20451 0.69683,0.46961 0.28783,0.25753 0.43931,0.59837 0.15906,0.34084 0.15906,0.81045 0,0.57565 -0.25752,0.99981 -0.24996,0.42416 -0.67412,0.70441 -0.42416,0.28025 -0.97708,0.41659 -0.55293,0.13634 -1.15887,0.13634 -1.19675,0 -2.07537,-0.46204 z"
       id="text48"
       aria-label="32 bytes" /><path
       style="fill:none;fill-opacity:1;stroke:#ffffff;stroke-width:1.80983;stroke-linejoin:round;stroke-dasharray:none;stroke-opacity:1"
       d="m 508.16824,672.05004 v 8.42337 H 405.9696"
       id="path49" /><rect
       style="fill:#ff692a;fill-opacity:1;stroke:none;stroke-width:1.50134;stroke-linejoin:round;stroke-opacity:1"
       id="rect49"
       width="31.531969"
       height="31.079329"
       x="492.20734"
       y="630.50818" /><g
       id="g51"
       transform="matrix(1.2848528,0,0,1.2848515,86.774013,332.54329)"
       style="fill:#ff6d2c;fill-opacity:1"><circle
         style="fill:#ff6d2c;fill-opacity:1;stroke:none;stroke-width:1.52558;stroke-linejoin:round;stroke-dasharray:none;stroke-opacity:1"
         id="circle49"
         cx="351.24713"
         cy="149.52086"
         r="0.95220608" /><circle
         style="fill:#ff6d2c;fill-opacity:1;stroke:none;stroke-width:1.52558;stroke-linejoin:round;stroke-dasharray:none;stroke-opacity:1"
         id="circle50"
         cx="355.14142"
         cy="149.52086"
         r="0.95220608" /><circle
         style="fill:#ff6d2c;fill-opacity:1;stroke:none;stroke-width:1.52558;stroke-linejoin:round;stroke-dasharray:none;stroke-opacity:1"
         id="circle51"
         cx="359.03571"
         cy="149.52086"
         r="0.95220608" /></g><rect
       style="fill:#ff692a;fill-opacity:1;stroke:none;stroke-width:1.50134;stroke-linejoin:round;stroke-opacity:1"
       id="rect51"
       width="31.531969"
       height="31.079329"
       x="628.67365"
       y="509.11575" /><path
       style="font-weight:bold;font-size:20.4371px;line-height:1.25;font-family:'Segoe UI';-inkscape-font-specification:'Segoe UI Bold';text-align:center;letter-spacing:0px;word-spacing:0px;text-anchor:middle;fill:#cecece;stroke-width:1.71506"
       d="m 427.51706,589.53556 q -1.56671,0.75841 -4.09141,0.75841 -3.29309,0 -5.17913,-1.93594 -1.88604,-1.93593 -1.88604,-5.15917 0,-3.43279 2.11556,-5.56831 2.12554,-2.13551 5.50844,-2.13551 2.0956,0 3.53258,0.52889 v 3.10348 q -1.43698,-0.8582 -3.27313,-0.8582 -2.01577,0 -3.25317,1.26734 -1.2374,1.26734 -1.2374,3.4328 0,2.07564 1.16755,3.31304 1.16755,1.22743 3.1434,1.22743 1.88604,0 3.45275,-0.91808 z m 7.05519,0.75841 q -2.55464,0 -4.02156,-1.427 -1.45694,-1.43699 -1.45694,-3.89183 0,-2.53468 1.51682,-3.96169 1.51681,-1.43698 4.10139,-1.43698 2.54466,0 3.99162,1.43698 1.44696,1.42701 1.44696,3.78206 0,2.54466 -1.49686,4.02156 -1.48687,1.4769 -4.08143,1.4769 z m 0.0798,-8.30257 q -1.11765,0 -1.73635,0.76839 -0.6187,0.76838 -0.6187,2.17543 0,2.94382 2.37501,2.94382 2.26525,0 2.26525,-3.02365 0,-2.86399 -2.28521,-2.86399 z m 10.73746,6.86559 h -0.0399 v 5.88764 h -3.15338 v -14.91869 h 3.15338 v 1.53678 h 0.0399 q 1.16755,-1.78625 3.28311,-1.78625 1.98583,0 3.06357,1.36713 1.08772,1.35715 1.08772,3.70223 0,2.55463 -1.26734,4.10139 -1.25736,1.54675 -3.35296,1.54675 -1.84613,0 -2.8141,-1.43698 z m -0.0898,-4.1912 v 0.81828 q 0,1.05778 0.55883,1.72637 0.55883,0.6686 1.46692,0.6686 1.07774,0 1.6665,-0.82826 0.59874,-0.83824 0.59874,-2.36504 0,-2.69434 -2.0956,-2.69434 -0.96796,0 -1.58667,0.73845 -0.60872,0.72847 -0.60872,1.93594 z m 19.29949,-4.83985 -4.15129,11.03684 q -1.49685,3.98164 -4.51053,3.98164 -1.14759,0 -1.88604,-0.25946 v -2.51472 q 0.62868,0.36923 1.36713,0.36923 1.21745,0 1.69644,-1.14759 l 0.53887,-1.26734 -4.15129,-10.1986 h 3.49267 l 1.906,6.21695 q 0.17962,0.57879 0.27941,1.36713 h 0.0399 q 0.0898,-0.57878 0.32931,-1.34717 l 1.92596,-6.23691 z"
       id="text51"
       aria-label="Copy" /></g></svg>
