<?xml version="1.0" encoding="UTF-8" standalone="no"?>
<!-- Created with Inkscape (http://www.inkscape.org/) -->

<svg
   version="1.1"
   id="svg761"
   width="750"
   height="211.338"
   viewBox="0 0 749.99999 211.338"
   xml:space="preserve"
   xmlns="http://www.w3.org/2000/svg"
   xmlns:svg="http://www.w3.org/2000/svg"><defs
     id="defs765" /><g
     id="layer2"
     transform="translate(-82.444851,-98.892602)"><path
       style="font-style:italic;font-size:26.8865px;line-height:1.25;font-family:'Segoe UI';-inkscape-font-specification:'Segoe UI Bold';text-align:center;letter-spacing:0px;word-spacing:0px;text-anchor:middle;stroke-width:2.2563"
       d="m 111.31955,267.57704 q 0,0.89272 -0.18379,1.91671 -0.1838,1.01087 -0.59077,2.02174 -0.40697,0.99774 -1.03713,1.92984 -0.63015,0.9321 -1.52286,1.64103 -0.87959,0.70892 -2.048,1.14215 -1.15528,0.4201 -2.62563,0.4201 -0.6039,0 -1.24718,-0.0919 -0.64328,-0.0788 -1.2603,-0.23631 -0.61703,-0.15753 -1.18154,-0.38071 -0.564511,-0.22318 -1.023997,-0.512 l 4.043477,-19.0096 h 2.17928 l -1.3522,6.43281 q -0.14441,0.64328 -0.30195,1.3522 -0.14441,0.70892 -0.28882,1.2603 h 0.0263 q 0.42011,-0.66953 0.89272,-1.20779 0.47261,-0.53825 1.01087,-0.91897 0.55138,-0.38072 1.16841,-0.57764 0.63015,-0.21005 1.36533,-0.21005 1.91671,0 2.94071,1.31282 1.03712,1.31281 1.03712,3.71527 z m -2.20553,0.0525 q 0,-0.7483 -0.14441,-1.3522 -0.13128,-0.60389 -0.43323,-1.024 -0.28882,-0.4201 -0.74831,-0.64328 -0.45948,-0.22318 -1.11589,-0.22318 -0.82708,0 -1.58851,0.48575 -0.76143,0.48574 -1.39159,1.28656 -0.63015,0.80082 -1.08963,1.81169 -0.45949,1.01087 -0.66954,2.06112 l -0.87959,4.18789 q 0.44636,0.24943 1.1159,0.4201 0.68266,0.17066 1.40471,0.17066 0.9321,0 1.70666,-0.30194 0.77457,-0.31508 1.39159,-0.85334 0.61702,-0.53825 1.07651,-1.24717 0.45949,-0.70892 0.76143,-1.49661 0.30195,-0.80082 0.44636,-1.64103 0.15754,-0.85333 0.15754,-1.64102 z m 15.43873,4.87056 q -0.11815,0.51199 -0.22318,1.06338 -0.0919,0.55138 -0.18379,1.06338 -0.0919,0.512 -0.15754,0.95836 -0.0656,0.44635 -0.10503,0.73517 h -2.1005 q 0.0656,-0.51199 0.14441,-1.06338 0.0919,-0.56451 0.17066,-1.03712 0.0919,-0.55139 0.17067,-1.07651 h -0.0525 q -0.45949,0.72205 -1.024,1.36533 -0.55138,0.63015 -1.20779,1.11589 -0.64328,0.47262 -1.37846,0.74831 -0.72205,0.27569 -1.50974,0.27569 -0.86646,0 -1.52287,-0.27569 -0.64328,-0.26257 -1.07651,-0.74831 -0.43323,-0.48574 -0.65641,-1.16841 -0.21005,-0.68266 -0.21005,-1.52286 0,-0.17067 0.0525,-0.512 0.0525,-0.34134 0.11816,-0.73518 0.0656,-0.39385 0.14441,-0.77456 0.0919,-0.39385 0.14441,-0.66954 l 1.56225,-7.36491 h 2.17928 l -1.66728,7.87691 q -0.0525,0.21005 -0.10503,0.48574 -0.0525,0.27569 -0.10502,0.55138 -0.0394,0.2757 -0.0656,0.512 -0.0263,0.22318 -0.0263,0.35446 0,0.98462 0.47261,1.57538 0.48575,0.57764 1.4441,0.57764 0.57764,0 1.15528,-0.2363 0.57764,-0.23631 1.1159,-0.63016 0.55138,-0.40697 1.03712,-0.9321 0.48575,-0.53825 0.87959,-1.12902 0.39385,-0.60389 0.66954,-1.23405 0.27569,-0.63015 0.40697,-1.20779 l 1.40472,-6.56409 h 2.16614 z m 13.60079,-14.21782 q -0.13128,-0.0656 -0.31508,-0.11815 -0.18379,-0.0656 -0.39384,-0.11815 -0.21005,-0.0525 -0.44636,-0.0788 -0.22318,-0.0394 -0.43323,-0.0394 -1.07651,0 -1.66728,0.70892 -0.57764,0.6958 -0.87959,2.08738 l -0.48574,2.15302 h 3.17702 l -0.43323,1.82482 h -3.17702 l -3.43958,16.08201 h -2.17928 l 3.46584,-16.08201 h -2.31056 l 0.40698,-1.82482 h 2.31055 l 0.53826,-2.49435 q 0.24944,-1.15528 0.69579,-1.96922 0.44636,-0.81395 1.06339,-1.32595 0.61702,-0.512 1.39158,-0.74831 0.78769,-0.2363 1.71979,-0.2363 0.48574,0 0.94523,0.0788 0.47262,0.0788 0.80082,0.18379 z m 8.46767,0 q -0.13128,-0.0656 -0.31507,-0.11815 -0.1838,-0.0656 -0.39385,-0.11815 -0.21005,-0.0525 -0.44636,-0.0788 -0.22318,-0.0394 -0.43323,-0.0394 -1.07651,0 -1.66727,0.70892 -0.57764,0.6958 -0.87959,2.08738 l -0.48574,2.15302 h 3.17701 l -0.43323,1.82482 h -3.17701 l -3.43959,16.08201 h -2.17927 l 3.46584,-16.08201 h -2.31056 l 0.40697,-1.82482 h 2.31056 l 0.53825,-2.49435 q 0.24944,-1.15528 0.6958,-1.96922 0.44636,-0.81395 1.06338,-1.32595 0.61702,-0.512 1.39159,-0.74831 0.78769,-0.2363 1.71979,-0.2363 0.48574,0 0.94523,0.0788 0.47261,0.0788 0.80081,0.18379 z m 9.70172,7.74563 q 0,1.06338 -0.47261,1.94297 -0.47262,0.86646 -1.56225,1.49661 -1.08964,0.61702 -2.87507,0.95835 -1.78544,0.34134 -4.41107,0.35446 -0.0263,0.14441 -0.0263,0.30195 0,0.14441 0,0.26257 0,0.70892 0.19693,1.33907 0.19692,0.63015 0.60389,1.10277 0.4201,0.47261 1.06338,0.7483 0.65641,0.27569 1.54913,0.27569 0.90584,0 1.98235,-0.34133 1.08964,-0.35446 2.07425,-0.99774 l -0.40697,2.12676 q -0.72205,0.42011 -1.71979,0.73518 -0.99774,0.31508 -2.23179,0.31508 -1.48348,0 -2.50748,-0.45949 -1.01087,-0.45948 -1.64102,-1.22092 -0.61703,-0.77456 -0.89272,-1.7723 -0.27569,-1.01087 -0.27569,-2.11364 0,-1.18153 0.26256,-2.27117 0.26257,-1.10277 0.73518,-2.048 0.48574,-0.94522 1.15528,-1.71979 0.66954,-0.78769 1.48348,-1.33907 0.81395,-0.55138 1.74605,-0.85333 0.9321,-0.30195 1.92984,-0.30195 1.03713,0 1.82482,0.27569 0.80082,0.27569 1.32594,0.76144 0.53826,0.47261 0.81395,1.10276 0.27569,0.63015 0.27569,1.33908 z m -2.1924,0.10502 q 0,-0.82707 -0.61703,-1.28656 -0.60389,-0.45949 -1.61476,-0.45949 -0.80082,0 -1.54913,0.35446 -0.7483,0.34134 -1.37845,0.95836 -0.63016,0.6039 -1.08964,1.45723 -0.45949,0.8402 -0.66954,1.82482 1.87733,0 3.19015,-0.1838 1.31281,-0.19692 2.13989,-0.56451 0.82707,-0.36759 1.20779,-0.89272 0.38072,-0.53825 0.38072,-1.20779 z m 12.76058,-0.97148 h -0.0525 q -0.26257,-0.15754 -0.6958,-0.30195 -0.4201,-0.15754 -0.8402,-0.15754 -0.76143,0 -1.45723,0.49887 -0.69579,0.48574 -1.27343,1.29969 -0.56451,0.80082 -0.99774,1.83794 -0.4201,1.03713 -0.65641,2.12677 l -1.2603,5.85516 h -2.15302 l 1.89045,-8.92715 q 0.11816,-0.55139 0.23631,-1.15528 0.11815,-0.6039 0.21005,-1.2078 0.10503,-0.60389 0.1838,-1.15527 0.0788,-0.55139 0.11815,-0.99775 H 162.27 q -0.0394,0.39385 -0.0919,0.84021 -0.0525,0.43323 -0.10503,0.85333 -0.0525,0.40697 -0.10502,0.7483 -0.0525,0.32821 -0.0788,0.512 h 0.0525 q 0.4201,-0.7483 0.85333,-1.3522 0.43323,-0.60389 0.90584,-1.024 0.48575,-0.43323 1.024,-0.66953 0.53826,-0.23631 1.16841,-0.23631 0.36759,0 0.72205,0.0788 0.36759,0.0656 0.65641,0.14441 z m 14.27033,-3.59712 q 0,0.87958 -0.24944,1.69353 -0.24944,0.80082 -0.77456,1.45723 -0.512,0.65641 -1.32595,1.14215 -0.80082,0.47261 -1.91671,0.68266 v 0.0525 q 0.81395,0.13128 1.41784,0.48574 0.61703,0.34133 1.024,0.8402 0.40697,0.49887 0.60389,1.12903 0.21006,0.61702 0.21006,1.32594 0,1.45723 -0.53826,2.57312 -0.52513,1.10277 -1.47035,1.85108 -0.94523,0.7483 -2.24492,1.14215 -1.28656,0.38071 -2.7963,0.38071 h -5.75014 l 3.97783,-18.8258 h 5.18563 q 1.12902,0 1.99548,0.31508 0.86646,0.31508 1.45723,0.86646 0.59077,0.55138 0.89272,1.29969 0.30195,0.73518 0.30195,1.58851 z m -2.31056,0.4201 q 0,-0.49887 -0.15754,-0.94523 -0.15754,-0.44636 -0.512,-0.78769 -0.34133,-0.35446 -0.90584,-0.55138 -0.55139,-0.21005 -1.35221,-0.21005 h -2.74378 l -1.31282,6.07834 h 2.46809 q 1.12903,0 1.96923,-0.26256 0.85333,-0.26257 1.40472,-0.73518 0.56451,-0.47262 0.8402,-1.12902 0.27569,-0.65641 0.27569,-1.45723 z m -1.024,8.53331 q 0,-1.37846 -0.95836,-2.16615 -0.95835,-0.80082 -2.94071,-0.80082 h -2.49435 l -1.39159,6.77414 h 3.03261 q 1.23405,0 2.12676,-0.26256 0.89272,-0.27569 1.47036,-0.77456 0.59077,-0.49887 0.86646,-1.19467 0.28882,-0.70892 0.28882,-1.57538 z"
       id="text54"
       aria-label="bufferB" /><path
       style="font-style:italic;font-size:26.8865px;line-height:1.25;font-family:'Segoe UI';-inkscape-font-specification:'Segoe UI Bold';text-align:center;letter-spacing:0px;word-spacing:0px;text-anchor:middle;stroke-width:2.2563"
       d="m 110.53186,139.67636 q 0,0.89272 -0.18379,1.91671 -0.1838,1.01087 -0.59077,2.02174 -0.40697,0.99774 -1.03713,1.92984 -0.63015,0.9321 -1.52286,1.64103 -0.87959,0.70892 -2.048,1.14215 -1.15528,0.4201 -2.62563,0.4201 -0.6039,0 -1.24718,-0.0919 -0.64328,-0.0788 -1.2603,-0.23631 -0.617029,-0.15753 -1.18154,-0.38071 -0.564512,-0.22318 -1.023998,-0.512 l 4.043478,-19.0096 h 2.17928 l -1.35221,6.43281 q -0.14441,0.64328 -0.30194,1.3522 -0.14441,0.70892 -0.28882,1.2603 h 0.0262 q 0.4201,-0.66953 0.89272,-1.20779 0.47261,-0.53825 1.01087,-0.91897 0.55138,-0.38072 1.16841,-0.57764 0.63015,-0.21005 1.36533,-0.21005 1.91671,0 2.94071,1.31282 1.03712,1.31281 1.03712,3.71527 z m -2.20553,0.0525 q 0,-0.7483 -0.14441,-1.3522 -0.13128,-0.6039 -0.43323,-1.024 -0.28882,-0.4201 -0.74831,-0.64328 -0.45948,-0.22318 -1.11589,-0.22318 -0.82708,0 -1.58851,0.48575 -0.76143,0.48574 -1.39159,1.28656 -0.63015,0.80082 -1.08963,1.81169 -0.45949,1.01086 -0.66954,2.06112 l -0.87959,4.18789 q 0.44636,0.24943 1.1159,0.4201 0.68266,0.17066 1.40471,0.17066 0.9321,0 1.70666,-0.30194 0.77456,-0.31508 1.39159,-0.85334 0.61702,-0.53825 1.07651,-1.24717 0.45949,-0.70892 0.76143,-1.49661 0.30195,-0.80082 0.44636,-1.64103 0.15754,-0.85333 0.15754,-1.64102 z m 15.43873,4.87056 q -0.11815,0.51199 -0.22318,1.06338 -0.0919,0.55138 -0.18379,1.06338 -0.0919,0.512 -0.15754,0.95836 -0.0656,0.44635 -0.10503,0.73517 h -2.1005 q 0.0656,-0.512 0.14441,-1.06338 0.0919,-0.56451 0.17066,-1.03712 0.0919,-0.55139 0.17067,-1.07651 h -0.0525 q -0.45949,0.72205 -1.024,1.36533 -0.55138,0.63015 -1.20779,1.11589 -0.64328,0.47261 -1.37846,0.74831 -0.72205,0.27569 -1.50974,0.27569 -0.86646,0 -1.52287,-0.27569 -0.64328,-0.26257 -1.07651,-0.74831 -0.43323,-0.48574 -0.65641,-1.16841 -0.21005,-0.68266 -0.21005,-1.52287 0,-0.17066 0.0525,-0.51199 0.0525,-0.34134 0.11816,-0.73518 0.0656,-0.39385 0.14441,-0.77456 0.0919,-0.39385 0.14441,-0.66954 l 1.56225,-7.36491 h 2.17928 l -1.66728,7.87691 q -0.0525,0.21005 -0.10503,0.48574 -0.0525,0.27569 -0.10502,0.55138 -0.0394,0.2757 -0.0656,0.512 -0.0263,0.22318 -0.0263,0.35446 0,0.98462 0.47261,1.57538 0.48575,0.57764 1.4441,0.57764 0.57764,0 1.15528,-0.2363 0.57764,-0.23631 1.1159,-0.63016 0.55138,-0.40697 1.03712,-0.9321 0.48575,-0.53825 0.87959,-1.12902 0.39385,-0.6039 0.66954,-1.23405 0.27569,-0.63015 0.40697,-1.20779 l 1.40472,-6.56409 h 2.16614 z m 13.60079,-14.21782 q -0.13128,-0.0656 -0.31508,-0.11815 -0.18379,-0.0656 -0.39384,-0.11815 -0.21005,-0.0525 -0.44636,-0.0788 -0.22318,-0.0394 -0.43323,-0.0394 -1.07651,0 -1.66728,0.70892 -0.57764,0.6958 -0.87959,2.08738 l -0.48574,2.15302 h 3.17702 l -0.43323,1.82482 h -3.17702 l -3.43958,16.08201 h -2.17928 l 3.46584,-16.08201 h -2.31056 l 0.40698,-1.82482 h 2.31055 l 0.53826,-2.49435 q 0.24943,-1.15528 0.69579,-1.96923 0.44636,-0.81394 1.06338,-1.32594 0.61703,-0.512 1.39159,-0.74831 0.78769,-0.2363 1.71979,-0.2363 0.48574,0 0.94523,0.0788 0.47261,0.0788 0.80082,0.18379 z m 8.46767,0 q -0.13128,-0.0656 -0.31507,-0.11815 -0.1838,-0.0656 -0.39385,-0.11815 -0.21005,-0.0525 -0.44636,-0.0788 -0.22318,-0.0394 -0.43323,-0.0394 -1.07651,0 -1.66727,0.70892 -0.57764,0.6958 -0.87959,2.08738 l -0.48574,2.15302 h 3.17701 l -0.43323,1.82482 h -3.17701 l -3.43959,16.08201 h -2.17927 l 3.46584,-16.08201 h -2.31056 l 0.40697,-1.82482 h 2.31056 l 0.53825,-2.49435 q 0.24944,-1.15528 0.6958,-1.96923 0.44635,-0.81394 1.06338,-1.32594 0.61702,-0.512 1.39159,-0.74831 0.78769,-0.2363 1.71979,-0.2363 0.48574,0 0.94522,0.0788 0.47262,0.0788 0.80082,0.18379 z m 9.70172,7.74563 q 0,1.06338 -0.47261,1.94297 -0.47262,0.86645 -1.56225,1.49661 -1.08964,0.61702 -2.87507,0.95835 -1.78544,0.34134 -4.41107,0.35446 -0.0263,0.14441 -0.0263,0.30195 0,0.14441 0,0.26257 0,0.70892 0.19693,1.33907 0.19692,0.63015 0.60389,1.10277 0.4201,0.47261 1.06338,0.7483 0.65641,0.27569 1.54913,0.27569 0.90584,0 1.98235,-0.34133 1.08964,-0.35446 2.07425,-0.99774 l -0.40697,2.12676 q -0.72205,0.42011 -1.71979,0.73518 -0.99774,0.31508 -2.23179,0.31508 -1.48348,0 -2.50748,-0.45949 -1.01087,-0.45948 -1.64102,-1.22092 -0.61703,-0.77456 -0.89272,-1.7723 -0.27569,-1.01087 -0.27569,-2.11364 0,-1.18153 0.26256,-2.27117 0.26257,-1.10277 0.73518,-2.048 0.48574,-0.94523 1.15528,-1.71979 0.66954,-0.78769 1.48348,-1.33907 0.81395,-0.55138 1.74605,-0.85333 0.9321,-0.30195 1.92984,-0.30195 1.03713,0 1.82482,0.27569 0.80082,0.27569 1.32594,0.76144 0.53826,0.47261 0.81395,1.10276 0.27569,0.63015 0.27569,1.33908 z m -2.1924,0.10502 q 0,-0.82707 -0.61703,-1.28656 -0.60389,-0.45949 -1.61476,-0.45949 -0.80082,0 -1.54913,0.35446 -0.7483,0.34134 -1.37845,0.95836 -0.63016,0.6039 -1.08964,1.45723 -0.45949,0.8402 -0.66954,1.82481 1.87733,0 3.19015,-0.18379 1.31281,-0.19692 2.13989,-0.56451 0.82707,-0.36759 1.20779,-0.89272 0.38072,-0.53825 0.38072,-1.20779 z m 12.76058,-0.97148 h -0.0525 q -0.26257,-0.15754 -0.6958,-0.30195 -0.4201,-0.15754 -0.8402,-0.15754 -0.76143,0 -1.45723,0.49887 -0.69579,0.48574 -1.27343,1.29969 -0.56451,0.80082 -0.99774,1.83794 -0.4201,1.03713 -0.65641,2.12677 l -1.2603,5.85516 h -2.15302 l 1.89045,-8.92715 q 0.11816,-0.55139 0.23631,-1.15528 0.11815,-0.6039 0.21005,-1.2078 0.10503,-0.60389 0.1838,-1.15528 0.0788,-0.55138 0.11815,-0.99774 h 2.12676 q -0.0394,0.39385 -0.0919,0.84021 -0.0525,0.43323 -0.10503,0.85333 -0.0525,0.40697 -0.10502,0.7483 -0.0525,0.32821 -0.0788,0.512 h 0.0525 q 0.4201,-0.7483 0.85333,-1.3522 0.43323,-0.6039 0.90584,-1.024 0.48575,-0.43323 1.024,-0.66953 0.53826,-0.23631 1.16841,-0.23631 0.36759,0 0.72205,0.0788 0.36759,0.0656 0.65641,0.14441 z m 12.60305,11.15894 -0.85333,-5.26439 h -7.98193 l -3.04574,5.26439 h -2.59938 l 11.21146,-18.8258 h 2.31056 l 3.28204,18.8258 z m -2.41559,-15.26806 q -0.0131,-0.13128 -0.0262,-0.30195 0,-0.17067 0,-0.34133 0,-0.1838 0,-0.34134 0,-0.17066 0,-0.28882 h -0.0525 q -0.0394,0.11816 -0.10502,0.28882 -0.0656,0.15754 -0.14441,0.34134 -0.0788,0.17066 -0.17067,0.34133 -0.0788,0.17067 -0.14441,0.30195 l -4.64737,8.00818 h 6.49844 z"
       id="text55"
       aria-label="bufferA" /><rect
       style="fill:none;stroke:#121212;stroke-width:1.80981;stroke-linejoin:round;stroke-dasharray:none;stroke-opacity:1"
       id="rect55"
       width="601.67444"
       height="37.790882"
       x="217.2598"
       y="124.30363" /><rect
       style="fill:#ffc26d;fill-opacity:1;stroke:none;stroke-width:1.50133;stroke-linejoin:round;stroke-opacity:1"
       id="rect56"
       width="31.531673"
       height="31.079067"
       x="356.90927"
       y="127.65957" /><path
       style="fill:#d8d8d8;fill-opacity:1;stroke:none;stroke-width:2.80611;stroke-linejoin:round;stroke-dasharray:none;stroke-opacity:1"
       d="m 356.26038,165.09471 c 0,36.92907 -135.5567,32.87588 -135.5567,77.01062 l 302.18787,0.45037 c 0,-40.53192 137.35812,-34.45213 137.35812,-77.68616 z"
       id="path56" /><path
       style="fill:none;fill-opacity:1;stroke:#121212;stroke-width:1.80981;stroke-linejoin:round;stroke-dasharray:none;stroke-opacity:1"
       d="m 236.69129,167.29042 v 8.4233 h 34.41932"
       id="path57" /><path
       style="font-size:15.5121px;line-height:1.25;font-family:'Segoe UI';-inkscape-font-specification:'Segoe UI Bold';text-align:center;letter-spacing:0px;word-spacing:0px;text-anchor:middle;stroke-width:1.30177"
       d="m 280.60982,179.44415 h -1.24218 v -9.38451 q -0.14391,0.14391 -0.42416,0.33326 -0.27267,0.18179 -0.62109,0.36357 -0.34084,0.18178 -0.72713,0.34084 -0.37871,0.15906 -0.74227,0.24995 v -1.25733 q 0.40901,-0.11361 0.86346,-0.30297 0.46203,-0.19693 0.90134,-0.43173 0.44688,-0.24238 0.84074,-0.4999 0.39387,-0.2651 0.68169,-0.51505 h 0.4696 z m 10.61913,-3.44629 q 0,0.7953 -0.25753,1.46183 -0.25752,0.66654 -0.71198,1.15129 -0.45446,0.48476 -1.08312,0.75743 -0.62866,0.2651 -1.36337,0.2651 -0.81802,0 -1.46941,-0.34084 -0.64381,-0.34084 -1.09827,-0.97708 -0.44688,-0.64382 -0.68168,-1.56788 -0.2348,-0.92406 -0.2348,-2.08292 0,-1.41639 0.31054,-2.56768 0.31812,-1.15886 0.89377,-1.97688 0.58322,-0.8256 1.40124,-1.27248 0.81802,-0.44688 1.8254,-0.44688 1.12099,0 1.80267,0.31055 v 1.17401 q -0.84074,-0.43174 -1.77238,-0.43174 -0.72713,0 -1.31035,0.3257 -0.58321,0.32569 -0.9998,0.92406 -0.41658,0.59079 -0.64381,1.43153 -0.21966,0.84075 -0.21966,1.87085 h 0.0303 q 0.74985,-1.3558 2.47679,-1.3558 0.71198,0 1.28005,0.24238 0.57564,0.24238 0.97708,0.68926 0.40901,0.43931 0.62866,1.05282 0.21966,0.61352 0.21966,1.36337 z m -1.27248,0.15906 q 0,-0.56807 -0.14391,-1.02253 -0.14391,-0.45445 -0.41659,-0.77257 -0.2651,-0.31812 -0.65896,-0.48475 -0.39386,-0.17421 -0.89376,-0.17421 -0.46203,0 -0.85589,0.17421 -0.39387,0.1742 -0.68169,0.47717 -0.28782,0.2954 -0.45445,0.69684 -0.15906,0.39386 -0.15906,0.84074 0,0.5605 0.15906,1.05282 0.15906,0.48476 0.44688,0.84832 0.28782,0.36357 0.68168,0.57565 0.40144,0.2045 0.88619,0.2045 0.46961,0 0.85589,-0.17421 0.38629,-0.18178 0.65897,-0.4999 0.27267,-0.31812 0.42415,-0.75742 0.15149,-0.44689 0.15149,-0.98466 z m 8.67254,2.16624 h -0.0303 v 1.12099 h -1.24218 v -11.48259 h 1.24218 v 5.08991 h 0.0303 q 0.91648,-1.54515 2.68129,-1.54515 1.49213,0 2.33287,1.04525 0.84832,1.03767 0.84832,2.78733 0,1.94659 -0.94678,3.1206 -0.94679,1.16644 -2.5904,1.16644 -1.53758,0 -2.3253,-1.30278 z m -0.0303,-3.12817 v 1.08312 q 0,0.96193 0.62109,1.63604 0.62866,0.66654 1.5906,0.66654 1.12856,0 1.7648,-0.86347 0.64381,-0.86347 0.64381,-2.40104 0,-1.2952 -0.59836,-2.02991 -0.59837,-0.7347 -1.6209,-0.7347 -1.08312,0 -1.74208,0.75743 -0.65896,0.74985 -0.65896,1.88599 z m 14.05026,-3.50689 -3.56748,8.99823 q -0.95435,2.40862 -2.68129,2.40862 -0.48475,0 -0.81044,-0.0985 v -1.11341 q 0.40143,0.13633 0.7347,0.13633 0.93921,0 1.40882,-1.12099 l 0.62109,-1.46941 -3.02971,-7.7409 h 1.37851 l 2.09808,5.96853 q 0.0379,0.11361 0.15906,0.59079 h 0.0454 q 0.0379,-0.18178 0.15149,-0.57565 l 2.20411,-5.98367 z m 4.93085,7.68031 q -0.43931,0.24238 -1.15886,0.24238 -2.03748,0 -2.03748,-2.27228 v -4.59001 h -1.33307 v -1.0604 h 1.33307 v -1.89356 l 1.24218,-0.40144 v 2.295 h 1.95416 v 1.0604 h -1.95416 v 4.37035 q 0,0.78015 0.2651,1.11342 0.2651,0.33327 0.87862,0.33327 0.4696,0 0.81044,-0.25753 z m 7.89239,-3.49174 h -5.4762 q 0.0303,1.2952 0.69684,1.99961 0.66653,0.70441 1.83297,0.70441 1.31035,0 2.40862,-0.86347 v 1.16644 q -1.02253,0.74228 -2.70402,0.74228 -1.64361,0 -2.58282,-1.05283 -0.93921,-1.0604 -0.93921,-2.97669 0,-1.81025 1.02252,-2.94639 1.0301,-1.14371 2.55253,-1.14371 1.52243,0 2.3556,0.98466 0.83317,0.98465 0.83317,2.73431 z m -1.27248,-1.05282 q -0.008,-1.07555 -0.52262,-1.67391 -0.50748,-0.59837 -1.41639,-0.59837 -0.87862,0 -1.49213,0.62866 -0.61352,0.62867 -0.75743,1.64362 z m 2.68129,4.34005 v -1.33307 q 1.01496,0.74986 2.23441,0.74986 1.63604,0 1.63604,-1.0907 0,-0.31054 -0.14391,-0.52262 -0.13633,-0.21966 -0.37871,-0.38629 -0.2348,-0.16663 -0.5605,-0.2954 -0.31812,-0.13633 -0.68925,-0.28024 -0.51505,-0.20451 -0.90892,-0.40902 -0.38628,-0.21207 -0.65138,-0.4696 -0.25753,-0.2651 -0.39387,-0.59837 -0.12876,-0.33326 -0.12876,-0.78015 0,-0.54534 0.24995,-0.96193 0.24995,-0.42416 0.66654,-0.70441 0.41658,-0.28782 0.94678,-0.43173 0.53778,-0.14391 1.10585,-0.14391 1.00737,0 1.80267,0.34842 v 1.25733 q -0.85589,-0.5605 -1.96931,-0.5605 -0.34842,0 -0.62866,0.0833 -0.28025,0.0757 -0.48476,0.21965 -0.19693,0.14391 -0.31054,0.34842 -0.10604,0.19693 -0.10604,0.4393 0,0.30297 0.10604,0.50748 0.11361,0.2045 0.32569,0.36356 0.21208,0.15906 0.51505,0.28783 0.30297,0.12876 0.68926,0.28024 0.51505,0.19694 0.92406,0.40902 0.40901,0.2045 0.69683,0.4696 0.28783,0.25752 0.43931,0.59837 0.15906,0.34084 0.15906,0.81044 0,0.57565 -0.25752,0.99981 -0.24995,0.42416 -0.67411,0.7044 -0.42416,0.28025 -0.97708,0.41659 -0.55293,0.13634 -1.15887,0.13634 -1.19673,0 -2.07535,-0.46204 z"
       id="text57"
       aria-label="16 bytes" /><path
       style="fill:none;fill-opacity:1;stroke:#121212;stroke-width:1.80981;stroke-linejoin:round;stroke-dasharray:none;stroke-opacity:1"
       d="m 372.42775,167.29042 v 8.4233 h -34.41932"
       id="path58" /><rect
       style="fill:#ff9b54;fill-opacity:1;stroke:none;stroke-width:1.50133;stroke-linejoin:round;stroke-opacity:1"
       id="rect58"
       width="31.531673"
       height="31.079067"
       x="391.42868"
       y="127.65957" /><rect
       style="fill:#ff833b;fill-opacity:1;stroke:none;stroke-width:1.50133;stroke-linejoin:round;stroke-opacity:1"
       id="rect59"
       width="31.531673"
       height="31.079067"
       x="425.94812"
       y="127.65957" /><path
       style="fill:none;fill-opacity:1;stroke:#121212;stroke-width:1.80981;stroke-linejoin:round;stroke-dasharray:none;stroke-opacity:1"
       d="m 236.69129,119.19843 v -8.4233 h 244.59548"
       id="path59" /><path
       style="font-size:15.5121px;line-height:1.25;font-family:'Segoe UI';-inkscape-font-specification:'Segoe UI Bold';text-align:center;letter-spacing:0px;word-spacing:0px;text-anchor:middle;stroke-width:1.30177"
       d="m 491.37924,106.80468 q 0,-0.4999 -0.15905,-0.87104 -0.15149,-0.37113 -0.42416,-0.61351 -0.2651,-0.24995 -0.62867,-0.37114 -0.36356,-0.12119 -0.78772,-0.12119 -0.36357,0 -0.71198,0.0985 -0.34842,0.0985 -0.68169,0.27267 -0.32569,0.17421 -0.63624,0.41658 -0.30297,0.24238 -0.56807,0.53778 v -1.33307 q 0.52263,-0.50748 1.16644,-0.77258 0.65139,-0.27267 1.58302,-0.27267 0.66654,0 1.23461,0.19693 0.56807,0.18936 0.98465,0.56049 0.41659,0.37114 0.65139,0.91649 0.24238,0.54535 0.24238,1.24976 0,0.64381 -0.15149,1.16643 -0.14391,0.52263 -0.44688,0.98466 -0.2954,0.46203 -0.74985,0.88619 -0.45446,0.42416 -1.06797,0.86346 -0.765,0.54535 -1.26491,0.93164 -0.49232,0.38629 -0.78772,0.72713 -0.28782,0.33327 -0.40901,0.67411 -0.11361,0.33327 -0.11361,0.77257 h 5.40802 v 1.11342 h -6.70322 v -0.53777 q 0,-0.69684 0.15148,-1.22703 0.15149,-0.5302 0.4999,-1.00738 0.34842,-0.47718 0.90891,-0.95436 0.56807,-0.47718 1.3861,-1.07555 0.59079,-0.42415 0.98465,-0.81044 0.40144,-0.38629 0.64381,-0.77258 0.24238,-0.38629 0.34085,-0.78015 0.10603,-0.40143 0.10603,-0.84832 z m 9.85413,4.69605 q 0,0.7953 -0.27268,1.43911 -0.27267,0.64381 -0.78015,1.10584 -0.4999,0.46204 -1.21188,0.71199 -0.71198,0.24995 -1.58302,0.24995 -1.51485,0 -2.24956,-0.45446 v -1.31792 q 1.10584,0.71198 2.26471,0.71198 0.59079,0 1.0604,-0.17421 0.47717,-0.17421 0.81044,-0.48475 0.33327,-0.31055 0.50748,-0.74985 0.18178,-0.43931 0.18178,-0.96194 0,-1.06039 -0.71198,-1.65876 -0.71198,-0.60594 -2.06778,-0.60594 -0.21965,0 -0.46203,0.008 -0.24237,0.008 -0.48475,0.0227 -0.24238,0.008 -0.47718,0.0227 -0.22723,0.0152 -0.41658,0.0379 l 0.37114,-5.4459 h 5.02174 v 1.12099 h -3.9462 l -0.21965,3.18877 q 0.24238,-0.0152 0.51505,-0.0227 0.27267,-0.0151 0.48475,-0.0151 0.86347,0 1.54515,0.22723 0.68169,0.22722 1.15129,0.65138 0.47718,0.41659 0.71956,1.0301 0.24995,0.60594 0.24995,1.36337 z m 8.76343,-0.12876 q 0,0.7953 -0.25753,1.46183 -0.25752,0.66654 -0.71198,1.15129 -0.45446,0.48475 -1.08312,0.75743 -0.62867,0.2651 -1.36337,0.2651 -0.81802,0 -1.46941,-0.34085 -0.64381,-0.34084 -1.09827,-0.97708 -0.44688,-0.64381 -0.68168,-1.56787 -0.2348,-0.92406 -0.2348,-2.08292 0,-1.41639 0.31054,-2.56768 0.31812,-1.15886 0.89377,-1.97688 0.58321,-0.8256 1.40124,-1.27248 0.81802,-0.44688 1.82539,-0.44688 1.121,0 1.80268,0.31054 v 1.17401 q -0.84074,-0.43173 -1.77238,-0.43173 -0.72713,0 -1.31035,0.32569 -0.58322,0.3257 -0.9998,0.92407 -0.41659,0.59079 -0.64381,1.43153 -0.21966,0.84075 -0.21966,1.87085 h 0.0303 q 0.74985,-1.3558 2.47679,-1.3558 0.71198,0 1.28005,0.24238 0.57564,0.24238 0.97708,0.68926 0.40901,0.4393 0.62866,1.05282 0.21966,0.61352 0.21966,1.36337 z m -1.27248,0.15906 q 0,-0.56807 -0.14391,-1.02253 -0.14391,-0.45445 -0.41659,-0.77257 -0.2651,-0.31812 -0.65896,-0.48476 -0.39386,-0.1742 -0.89376,-0.1742 -0.46203,0 -0.85589,0.1742 -0.39387,0.17421 -0.68169,0.47718 -0.28782,0.2954 -0.45445,0.69683 -0.15906,0.39387 -0.15906,0.84075 0,0.56049 0.15906,1.05282 0.15906,0.48475 0.44688,0.84832 0.28782,0.36356 0.68168,0.57564 0.40144,0.20451 0.88619,0.20451 0.46961,0 0.85589,-0.17421 0.38629,-0.18178 0.65896,-0.4999 0.27268,-0.31812 0.42416,-0.75743 0.15149,-0.44688 0.15149,-0.98465 z m 8.67254,2.16624 h -0.0303 v 1.12099 h -1.24218 v -11.48259 h 1.24218 v 5.08991 h 0.0303 q 0.91648,-1.54515 2.68129,-1.54515 1.49213,0 2.33287,1.04525 0.84832,1.03767 0.84832,2.78733 0,1.94658 -0.94678,3.1206 -0.94679,1.16643 -2.5904,1.16643 -1.53758,0 -2.3253,-1.30277 z m -0.0303,-3.12817 v 1.08312 q 0,0.96193 0.62109,1.63604 0.62866,0.66653 1.59059,0.66653 1.12857,0 1.76481,-0.86346 0.64381,-0.86347 0.64381,-2.40105 0,-1.2952 -0.59837,-2.0299 -0.59836,-0.7347 -1.62089,-0.7347 -1.08312,0 -1.74208,0.75742 -0.65896,0.74986 -0.65896,1.886 z m 14.05027,-3.50689 -3.56748,8.99823 q -0.95436,2.40862 -2.68129,2.40862 -0.48476,0 -0.81045,-0.0985 v -1.11342 q 0.40143,0.13634 0.7347,0.13634 0.93921,0 1.40882,-1.12099 l 0.62109,-1.46941 -3.02971,-7.7409 h 1.37852 l 2.09807,5.96852 q 0.0379,0.11362 0.15906,0.5908 h 0.0454 q 0.0379,-0.18179 0.15149,-0.57565 l 2.20411,-5.98367 z m 4.93084,7.68031 q -0.43931,0.24237 -1.15886,0.24237 -2.03748,0 -2.03748,-2.27228 v -4.59 h -1.33307 v -1.0604 h 1.33307 v -1.89357 l 1.24218,-0.40143 v 2.295 h 1.95416 v 1.0604 h -1.95416 v 4.37035 q 0,0.78015 0.2651,1.11342 0.2651,0.33327 0.87861,0.33327 0.46961,0 0.81045,-0.25753 z m 7.89239,-3.49174 h -5.4762 q 0.0303,1.2952 0.69684,1.99961 0.66653,0.7044 1.83297,0.7044 1.31035,0 2.40862,-0.86346 v 1.16643 q -1.02253,0.74228 -2.70402,0.74228 -1.64361,0 -2.58282,-1.05282 -0.93921,-1.0604 -0.93921,-2.97669 0,-1.81025 1.02252,-2.94639 1.0301,-1.14371 2.55253,-1.14371 1.52243,0 2.3556,0.98465 0.83317,0.98466 0.83317,2.73431 z m -1.27248,-1.05282 q -0.008,-1.07555 -0.52262,-1.67392 -0.50748,-0.59836 -1.41639,-0.59836 -0.87862,0 -1.49213,0.62866 -0.61352,0.62867 -0.75743,1.64362 z m 2.68129,4.34005 v -1.33307 q 1.01495,0.74985 2.23441,0.74985 1.63604,0 1.63604,-1.09069 0,-0.31055 -0.14391,-0.52263 -0.13633,-0.21965 -0.37871,-0.38628 -0.2348,-0.16664 -0.5605,-0.2954 -0.31812,-0.13634 -0.68925,-0.28025 -0.51506,-0.2045 -0.90892,-0.40901 -0.38628,-0.21208 -0.65138,-0.4696 -0.25753,-0.2651 -0.39387,-0.59837 -0.12876,-0.33327 -0.12876,-0.78015 0,-0.54535 0.24995,-0.96193 0.24995,-0.42416 0.66654,-0.70441 0.41658,-0.28782 0.94678,-0.43173 0.53777,-0.14391 1.10584,-0.14391 1.00738,0 1.80268,0.34841 v 1.25733 q -0.85589,-0.56049 -1.96931,-0.56049 -0.34842,0 -0.62866,0.0833 -0.28025,0.0757 -0.48476,0.21966 -0.19693,0.14391 -0.31054,0.34841 -0.10604,0.19693 -0.10604,0.43931 0,0.30297 0.10604,0.50748 0.11361,0.2045 0.32569,0.36356 0.21208,0.15906 0.51505,0.28782 0.30297,0.12877 0.68926,0.28025 0.51505,0.19693 0.92406,0.40901 0.40901,0.20451 0.69683,0.46961 0.28783,0.25752 0.43931,0.59836 0.15906,0.34085 0.15906,0.81045 0,0.57565 -0.25752,0.9998 -0.24996,0.42416 -0.67411,0.70441 -0.42416,0.28025 -0.97708,0.41659 -0.55293,0.13633 -1.15887,0.13633 -1.19673,0 -2.07535,-0.46203 z"
       id="text59"
       aria-label="256 bytes" /><path
       style="fill:none;fill-opacity:1;stroke:#121212;stroke-width:1.80981;stroke-linejoin:round;stroke-dasharray:none;stroke-opacity:1"
       d="m 798.51214,119.19843 v -8.4233 H 556.30503"
       id="path60" /><rect
       style="fill:none;stroke:#121212;stroke-width:1.80981;stroke-linejoin:round;stroke-dasharray:none;stroke-opacity:1"
       id="rect60"
       width="309.84473"
       height="37.790882"
       x="217.2598"
       y="245.69501" /><rect
       style="fill:#ffc26d;fill-opacity:1;stroke:none;stroke-width:1.50133;stroke-linejoin:round;stroke-opacity:1"
       id="rect61"
       width="31.531673"
       height="31.079067"
       x="220.44429"
       y="249.05093" /><rect
       style="fill:#ff9b54;fill-opacity:1;stroke:none;stroke-width:1.50133;stroke-linejoin:round;stroke-opacity:1"
       id="rect62"
       width="31.531673"
       height="31.079067"
       x="254.9637"
       y="249.05093" /><rect
       style="fill:#ff833b;fill-opacity:1;stroke:none;stroke-width:1.50133;stroke-linejoin:round;stroke-opacity:1"
       id="rect63"
       width="31.531673"
       height="31.079067"
       x="289.48312"
       y="249.05093" /><g
       id="g65"
       transform="matrix(1.2848407,0,0,1.2848407,-49.691043,72.479964)"
       style="fill:#ff6d2c;fill-opacity:1"><circle
         style="fill:#ff6d2c;fill-opacity:1;stroke:none;stroke-width:1.52558;stroke-linejoin:round;stroke-dasharray:none;stroke-opacity:1"
         id="circle63"
         cx="351.24713"
         cy="149.52086"
         r="0.95220608" /><circle
         style="fill:#ff6d2c;fill-opacity:1;stroke:none;stroke-width:1.52558;stroke-linejoin:round;stroke-dasharray:none;stroke-opacity:1"
         id="circle64"
         cx="355.14142"
         cy="149.52086"
         r="0.95220608" /><circle
         style="fill:#ff6d2c;fill-opacity:1;stroke:none;stroke-width:1.52558;stroke-linejoin:round;stroke-dasharray:none;stroke-opacity:1"
         id="circle65"
         cx="359.03571"
         cy="149.52086"
         r="0.95220608" /></g><path
       style="fill:none;fill-opacity:1;stroke:#121212;stroke-width:1.80981;stroke-linejoin:round;stroke-dasharray:none;stroke-opacity:1"
       d="m 236.69129,290.59249 v 8.4233 h 101.74733"
       id="path65" /><path
       style="font-size:15.5121px;line-height:1.25;font-family:'Segoe UI';-inkscape-font-specification:'Segoe UI Bold';text-align:center;letter-spacing:0px;word-spacing:0px;text-anchor:middle;stroke-width:1.30177"
       d="m 350.33359,299.67106 q 0,0.73471 -0.28025,1.34065 -0.27267,0.59837 -0.78015,1.0301 -0.4999,0.42416 -1.20431,0.65896 -0.70441,0.2348 -1.55272,0.2348 -1.55273,0 -2.46921,-0.59079 v -1.33307 q 1.09826,0.86347 2.51465,0.86347 0.56807,0 1.02253,-0.14392 0.46203,-0.14391 0.78772,-0.41658 0.33327,-0.27267 0.50748,-0.65896 0.18178,-0.38629 0.18178,-0.87104 0,-2.12837 -3.02971,-2.12837 h -0.90133 v -1.05283 h 0.85589 q 2.68129,0 2.68129,-1.9996 0,-1.84812 -2.04505,-1.84812 -1.15129,0 -2.15867,0.77257 v -1.20431 q 1.03767,-0.62109 2.46921,-0.62109 0.68169,0 1.23461,0.18936 0.55292,0.18936 0.94678,0.5302 0.39386,0.34084 0.60594,0.81802 0.21966,0.47718 0.21966,1.05282 0,2.14352 -2.16624,2.75704 v 0.0303 q 0.55292,0.0606 1.02252,0.27268 0.46961,0.2045 0.81045,0.53777 0.34084,0.33327 0.5302,0.78772 0.19693,0.44689 0.19693,0.99223 z m 6.99105,-4.93842 q 0,-0.4999 -0.15906,-0.87104 -0.15149,-0.37114 -0.42416,-0.61352 -0.2651,-0.24995 -0.62867,-0.37113 -0.36356,-0.12119 -0.78772,-0.12119 -0.36356,0 -0.71198,0.0985 -0.34842,0.0985 -0.68168,0.27268 -0.3257,0.1742 -0.63624,0.41658 -0.30297,0.24238 -0.56807,0.53777 v -1.33307 q 0.52262,-0.50747 1.16643,-0.77257 0.65139,-0.27268 1.58303,-0.27268 0.66653,0 1.2346,0.19693 0.56807,0.18936 0.98466,0.5605 0.41658,0.37114 0.65138,0.91649 0.24238,0.54534 0.24238,1.24975 0,0.64381 -0.15149,1.16644 -0.14391,0.52262 -0.44688,0.98465 -0.29539,0.46203 -0.74985,0.88619 -0.45446,0.42416 -1.06797,0.86347 -0.765,0.54535 -1.2649,0.93163 -0.49233,0.38629 -0.78773,0.72713 -0.28782,0.33327 -0.40901,0.67411 -0.11361,0.33327 -0.11361,0.77258 h 5.40802 v 1.11342 h -6.70322 v -0.53778 q 0,-0.69683 0.15148,-1.22703 0.15149,-0.5302 0.4999,-1.00738 0.34842,-0.47718 0.90892,-0.95435 0.56807,-0.47718 1.38609,-1.07555 0.59079,-0.42416 0.98465,-0.81045 0.40144,-0.38628 0.64382,-0.77257 0.24237,-0.38629 0.34084,-0.78015 0.10604,-0.40144 0.10604,-0.84832 z m 9.29362,6.89258 h -0.0303 v 1.121 h -1.24218 v -11.48259 h 1.24218 v 5.0899 h 0.0303 q 0.91649,-1.54515 2.6813,-1.54515 1.49213,0 2.33287,1.04525 0.84832,1.03768 0.84832,2.78733 0,1.94659 -0.94679,3.1206 -0.94678,1.16644 -2.5904,1.16644 -1.53757,0 -2.3253,-1.30278 z m -0.0303,-3.12817 v 1.08312 q 0,0.96193 0.62109,1.63604 0.62866,0.66654 1.59059,0.66654 1.12857,0 1.76481,-0.86347 0.64381,-0.86346 0.64381,-2.40104 0,-1.2952 -0.59837,-2.0299 -0.59836,-0.73471 -1.62089,-0.73471 -1.08312,0 -1.74208,0.75743 -0.65896,0.74985 -0.65896,1.88599 z m 14.05026,-3.50688 -3.56748,8.99823 q -0.95435,2.40861 -2.68129,2.40861 -0.48475,0 -0.81044,-0.0985 v -1.11342 q 0.40143,0.13634 0.7347,0.13634 0.93921,0 1.40881,-1.12099 l 0.62109,-1.46941 -3.0297,-7.7409 h 1.37851 l 2.09807,5.96852 q 0.0379,0.11361 0.15906,0.59079 h 0.0454 q 0.0379,-0.18178 0.15149,-0.57564 l 2.20411,-5.98367 z m 4.93085,7.6803 q -0.43931,0.24238 -1.15886,0.24238 -2.03748,0 -2.03748,-2.27228 v -4.59001 h -1.33307 v -1.06039 h 1.33307 v -1.89357 l 1.24218,-0.40144 v 2.29501 h 1.95416 v 1.06039 h -1.95416 v 4.37036 q 0,0.78015 0.2651,1.11341 0.2651,0.33327 0.87861,0.33327 0.46961,0 0.81045,-0.25752 z m 7.89239,-3.49173 h -5.4762 q 0.0303,1.2952 0.69683,1.9996 0.66654,0.70441 1.83298,0.70441 1.31035,0 2.40861,-0.86347 v 1.16644 q -1.02252,0.74228 -2.70401,0.74228 -1.64362,0 -2.58282,-1.05282 -0.93921,-1.0604 -0.93921,-2.97669 0,-1.81025 1.02252,-2.94639 1.0301,-1.14372 2.55253,-1.14372 1.52243,0 2.3556,0.98466 0.83317,0.98465 0.83317,2.73431 z m -1.27248,-1.05283 q -0.008,-1.07554 -0.52262,-1.67391 -0.50748,-0.59837 -1.41639,-0.59837 -0.87862,0 -1.49213,0.62867 -0.61352,0.62866 -0.75743,1.64361 z m 2.68129,4.34006 v -1.33307 q 1.01495,0.74985 2.23441,0.74985 1.63604,0 1.63604,-1.0907 0,-0.31054 -0.14391,-0.52262 -0.13634,-0.21965 -0.37871,-0.38629 -0.2348,-0.16663 -0.5605,-0.29539 -0.31812,-0.13634 -0.68926,-0.28025 -0.51505,-0.20451 -0.90891,-0.40901 -0.38629,-0.21208 -0.65139,-0.46961 -0.25752,-0.2651 -0.39386,-0.59836 -0.12876,-0.33327 -0.12876,-0.78015 0,-0.54535 0.24995,-0.96194 0.24995,-0.42415 0.66654,-0.7044 0.41658,-0.28782 0.94678,-0.43174 0.53777,-0.14391 1.10584,-0.14391 1.00738,0 1.80268,0.34842 v 1.25733 q -0.85589,-0.5605 -1.96931,-0.5605 -0.34842,0 -0.62867,0.0833 -0.28024,0.0757 -0.48475,0.21965 -0.19693,0.14391 -0.31054,0.34842 -0.10604,0.19693 -0.10604,0.43931 0,0.30297 0.10604,0.50747 0.11361,0.20451 0.32569,0.36357 0.21208,0.15906 0.51505,0.28782 0.30297,0.12876 0.68926,0.28025 0.51505,0.19693 0.92406,0.40901 0.40901,0.2045 0.69683,0.4696 0.28782,0.25753 0.43931,0.59837 0.15906,0.34084 0.15906,0.81045 0,0.57564 -0.25753,0.9998 -0.24995,0.42416 -0.67411,0.70441 -0.42415,0.28024 -0.97708,0.41658 -0.55292,0.13634 -1.15886,0.13634 -1.19673,0 -2.07535,-0.46203 z"
       id="text65"
       aria-label="32 bytes" /><path
       style="fill:none;fill-opacity:1;stroke:#121212;stroke-width:1.80981;stroke-linejoin:round;stroke-dasharray:none;stroke-opacity:1"
       d="m 508.16421,290.59249 v 8.4233 H 405.96653"
       id="path66" /><rect
       style="fill:#ff692a;fill-opacity:1;stroke:none;stroke-width:1.50133;stroke-linejoin:round;stroke-opacity:1"
       id="rect66"
       width="31.531673"
       height="31.079067"
       x="492.20346"
       y="249.05093" /><g
       id="g68"
       transform="matrix(1.2848407,0,0,1.2848407,86.77395,-48.911416)"
       style="fill:#ff6d2c;fill-opacity:1"><circle
         style="fill:#ff6d2c;fill-opacity:1;stroke:none;stroke-width:1.52558;stroke-linejoin:round;stroke-dasharray:none;stroke-opacity:1"
         id="circle66"
         cx="351.24713"
         cy="149.52086"
         r="0.95220608" /><circle
         style="fill:#ff6d2c;fill-opacity:1;stroke:none;stroke-width:1.52558;stroke-linejoin:round;stroke-dasharray:none;stroke-opacity:1"
         id="circle67"
         cx="355.14142"
         cy="149.52086"
         r="0.95220608" /><circle
         style="fill:#ff6d2c;fill-opacity:1;stroke:none;stroke-width:1.52558;stroke-linejoin:round;stroke-dasharray:none;stroke-opacity:1"
         id="circle68"
         cx="359.03571"
         cy="149.52086"
         r="0.95220608" /></g><rect
       style="fill:#ff692a;fill-opacity:1;stroke:none;stroke-width:1.50133;stroke-linejoin:round;stroke-opacity:1"
       id="rect68"
       width="31.531673"
       height="31.079067"
       x="628.66846"
       y="127.65957" /><path
       style="font-weight:bold;font-size:20.4369px;line-height:1.25;font-family:'Segoe UI';-inkscape-font-specification:'Segoe UI Bold';text-align:center;letter-spacing:0px;word-spacing:0px;text-anchor:middle;fill:#666666;stroke-width:1.71504"
       d="m 427.51401,208.07841 q -1.5667,0.75841 -4.09137,0.75841 -3.29306,0 -5.17908,-1.93592 -1.88602,-1.93592 -1.88602,-5.15912 0,-3.43276 2.11554,-5.56826 2.12552,-2.13549 5.50838,-2.13549 2.09558,0 3.53255,0.52888 v 3.10345 q -1.43697,-0.85819 -3.2731,-0.85819 -2.01575,0 -3.25314,1.26733 -1.23739,1.26733 -1.23739,3.43276 0,2.07563 1.16754,3.31302 1.16754,1.22741 3.14337,1.22741 1.88602,0 3.45272,-0.91807 z m 7.05512,0.75841 q -2.55461,0 -4.02152,-1.427 -1.45692,-1.43696 -1.45692,-3.89179 0,-2.53465 1.5168,-3.96164 1.5168,-1.43697 4.10135,-1.43697 2.54463,0 3.99158,1.43697 1.44695,1.42699 1.44695,3.78202 0,2.54463 -1.49685,4.02152 -1.48686,1.47689 -4.08139,1.47689 z m 0.0798,-8.3025 q -1.11764,0 -1.73633,0.76838 -0.6187,0.76838 -0.6187,2.17542 0,2.94379 2.37499,2.94379 2.26522,0 2.26522,-3.02363 0,-2.86396 -2.28518,-2.86396 z m 10.73736,6.86553 h -0.0399 v 5.88758 h -3.15335 v -14.91854 h 3.15335 v 1.53676 h 0.0399 q 1.16754,-1.78623 3.28307,-1.78623 1.98582,0 3.06354,1.36711 1.08771,1.35714 1.08771,3.7022 0,2.55461 -1.26733,4.10135 -1.25735,1.54674 -3.35293,1.54674 -1.8461,0 -2.81406,-1.43697 z m -0.0898,-4.19117 v 0.81828 q 0,1.05777 0.55882,1.72636 0.55882,0.66859 1.46691,0.66859 1.07772,0 1.66648,-0.82826 0.59874,-0.83823 0.59874,-2.36501 0,-2.69432 -2.09558,-2.69432 -0.96796,0 -1.58666,0.73845 -0.60871,0.72846 -0.60871,1.93591 z m 19.2993,-4.83979 -4.15125,11.03673 q -1.49684,3.9816 -4.51049,3.9816 -1.14758,0 -1.88602,-0.25945 v -2.5147 q 0.62868,0.36922 1.36712,0.36922 1.21743,0 1.69642,-1.14758 l 0.53886,-1.26733 -4.15124,-10.19849 h 3.49263 l 1.90598,6.21689 q 0.17963,0.57878 0.27941,1.36712 h 0.0399 q 0.0898,-0.57878 0.32931,-1.34716 l 1.92593,-6.23685 z"
       id="text68"
       aria-label="Copy" /></g></svg>
