<?xml version="1.0" encoding="UTF-8" standalone="no"?>
<!-- Created with Inkscape (http://www.inkscape.org/) -->

<svg
   version="1.1"
   id="svg761"
   width="410.41"
   height="158.35001"
   viewBox="0 0 410.41 158.35001"
   xml:space="preserve"
   xmlns="http://www.w3.org/2000/svg"
   xmlns:svg="http://www.w3.org/2000/svg"><defs
     id="defs765" /><g
     id="layer2"
     transform="translate(-82.444871,-480.35033)"><g
       id="text29"
       style="font-size:17.998px;line-height:1.25;font-family:Calibri;-inkscape-font-specification:Calibri;letter-spacing:0px;word-spacing:0px;fill:#e0e0e0;stroke-width:1.51038"
       aria-label="Short&#10;latency"><path
         style="font-weight:bold;-inkscape-font-specification:'Calibri Bold';text-align:center;text-anchor:middle"
         d="m 221.05257,594.67396 q 0,0.89639 -0.33395,1.57307 -0.33394,0.67668 -0.90517,1.13366 -0.57122,0.4482 -1.33579,0.67669 -0.76456,0.22849 -1.63458,0.22849 -0.5888,0 -1.09851,-0.0967 -0.50092,-0.0967 -0.8876,-0.22849 -0.38667,-0.14061 -0.65032,-0.29001 -0.25485,-0.1494 -0.3691,-0.26364 -0.11424,-0.11425 -0.16697,-0.32516 -0.0439,-0.2197 -0.0439,-0.62396 0,-0.27243 0.0176,-0.45698 0.0176,-0.18455 0.0527,-0.29879 0.0439,-0.11425 0.10546,-0.15819 0.0703,-0.0527 0.15819,-0.0527 0.12303,0 0.34273,0.1494 0.22849,0.14061 0.58002,0.31637 0.35152,0.17577 0.83486,0.32516 0.49214,0.14061 1.13367,0.14061 0.42182,0 0.75577,-0.0967 0.33395,-0.10545 0.56244,-0.29 0.23728,-0.18455 0.36031,-0.45698 0.12303,-0.27243 0.12303,-0.60638 0,-0.38668 -0.21091,-0.65911 -0.21091,-0.28122 -0.55365,-0.49213 -0.33395,-0.2197 -0.76456,-0.40425 -0.43062,-0.19334 -0.8876,-0.40426 -0.45698,-0.21091 -0.8876,-0.47455 -0.43061,-0.27243 -0.77335,-0.64153 -0.33394,-0.37789 -0.54486,-0.8876 -0.21091,-0.50971 -0.21091,-1.22154 0,-0.81729 0.29879,-1.43246 0.30758,-0.62395 0.81729,-1.02821 0.5185,-0.41304 1.21276,-0.61516 0.70305,-0.20213 1.48519,-0.20213 0.40425,0 0.8085,0.0615 0.40425,0.0615 0.75578,0.16697 0.35152,0.10546 0.62395,0.23728 0.27243,0.13182 0.36031,0.2197 0.0879,0.0879 0.11425,0.1494 0.0352,0.0615 0.0527,0.16697 0.0264,0.0967 0.0352,0.25486 0.009,0.1494 0.009,0.37789 0,0.25485 -0.0176,0.43061 -0.009,0.17576 -0.0439,0.29001 -0.0264,0.11424 -0.0879,0.16697 -0.0527,0.0527 -0.1494,0.0527 -0.0967,0 -0.30758,-0.12303 -0.21092,-0.12304 -0.5185,-0.26365 -0.30758,-0.14939 -0.71183,-0.26364 -0.40426,-0.12303 -0.8876,-0.12303 -0.37789,0 -0.65911,0.0967 -0.28122,0.0879 -0.47455,0.25485 -0.18455,0.15819 -0.28122,0.38668 -0.0879,0.22849 -0.0879,0.48334 0,0.37789 0.20212,0.65911 0.21092,0.27243 0.55365,0.49213 0.35152,0.21092 0.79093,0.40425 0.4394,0.18455 0.89638,0.39547 0.45698,0.21091 0.89639,0.48334 0.4394,0.26365 0.78214,0.64153 0.34273,0.3691 0.55365,0.87881 0.21091,0.50092 0.21091,1.18639 z m 9.12203,3.11099 q 0,0.0879 -0.0527,0.15818 -0.0527,0.0615 -0.17577,0.10546 -0.12303,0.0439 -0.34273,0.0615 -0.21092,0.0264 -0.52729,0.0264 -0.32516,0 -0.54486,-0.0264 -0.21091,-0.0176 -0.33395,-0.0615 -0.12303,-0.0439 -0.17576,-0.10546 -0.0527,-0.0703 -0.0527,-0.15818 v -4.47314 q 0,-0.57123 -0.0879,-0.89638 -0.0791,-0.32516 -0.23727,-0.55365 -0.15819,-0.23728 -0.41304,-0.36032 -0.24607,-0.13182 -0.58002,-0.13182 -0.42183,0 -0.85244,0.30759 -0.43062,0.30758 -0.89639,0.89638 v 5.21134 q 0,0.0879 -0.0527,0.15818 -0.0527,0.0615 -0.18455,0.10546 -0.12303,0.0439 -0.33394,0.0615 -0.21092,0.0264 -0.53608,0.0264 -0.32516,0 -0.53607,-0.0264 -0.21091,-0.0176 -0.34273,-0.0615 -0.12304,-0.0439 -0.17577,-0.10546 -0.0527,-0.0703 -0.0527,-0.15818 v -11.55634 q 0,-0.0879 0.0527,-0.15818 0.0527,-0.0703 0.17577,-0.11425 0.13182,-0.0527 0.34273,-0.0791 0.21091,-0.0264 0.53607,-0.0264 0.32516,0 0.53608,0.0264 0.21091,0.0264 0.33394,0.0791 0.13183,0.0439 0.18455,0.11425 0.0527,0.0703 0.0527,0.15818 v 4.33253 q 0.57123,-0.56244 1.16003,-0.83487 0.59759,-0.28122 1.23912,-0.28122 0.79972,0 1.34458,0.26364 0.55365,0.26365 0.88759,0.72063 0.34274,0.45698 0.49214,1.07214 0.14939,0.60638 0.14939,1.4764 z m 10.09751,-3.99858 q 0,1.00184 -0.26364,1.82792 -0.26364,0.82608 -0.79971,1.42367 -0.53608,0.59759 -1.34458,0.92275 -0.80851,0.32516 -1.88944,0.32516 -1.04578,0 -1.81913,-0.29001 -0.77336,-0.29001 -1.28306,-0.84366 -0.50971,-0.55365 -0.75578,-1.36215 -0.24607,-0.8085 -0.24607,-1.8455 0,-1.00184 0.26365,-1.82792 0.27243,-0.83487 0.8085,-1.42367 0.53607,-0.59759 1.33579,-0.92275 0.8085,-0.32516 1.88944,-0.32516 1.05457,0 1.82792,0.29001 0.77335,0.28122 1.27427,0.83487 0.50971,0.55365 0.75578,1.36215 0.24606,0.8085 0.24606,1.85429 z m -2.27611,0.0879 q 0,-0.58002 -0.0967,-1.06336 -0.0879,-0.49213 -0.30758,-0.85245 -0.2197,-0.36031 -0.5888,-0.56243 -0.36032,-0.20213 -0.91396,-0.20213 -0.49214,0 -0.86124,0.18455 -0.3691,0.17576 -0.60638,0.52729 -0.23727,0.34273 -0.36031,0.83486 -0.11424,0.48335 -0.11424,1.1073 0,0.58002 0.0967,1.07215 0.0967,0.48334 0.30758,0.84366 0.2197,0.36031 0.5888,0.56243 0.3691,0.19334 0.91396,0.19334 0.50092,0 0.87002,-0.17576 0.3691,-0.18455 0.60638,-0.52729 0.23728,-0.34273 0.35152,-0.82608 0.11425,-0.49213 0.11425,-1.11608 z m 9.06052,-3.19887 q 0,0.31638 -0.0176,0.5185 -0.0176,0.20213 -0.0527,0.31637 -0.0351,0.11425 -0.0967,0.15819 -0.0527,0.0439 -0.14061,0.0439 -0.0703,0 -0.15818,-0.0264 -0.0879,-0.0352 -0.20213,-0.0703 -0.10546,-0.0352 -0.23728,-0.0615 -0.13182,-0.0351 -0.29,-0.0351 -0.18455,0 -0.3691,0.0791 -0.18455,0.0703 -0.38668,0.22849 -0.19334,0.15819 -0.41304,0.42183 -0.21091,0.26364 -0.45698,0.65032 v 4.88618 q 0,0.0879 -0.0527,0.15818 -0.0527,0.0615 -0.18455,0.10546 -0.12303,0.0439 -0.33395,0.0615 -0.21091,0.0264 -0.53607,0.0264 -0.32516,0 -0.53607,-0.0264 -0.21092,-0.0176 -0.34274,-0.0615 -0.12303,-0.0439 -0.17576,-0.10546 -0.0527,-0.0703 -0.0527,-0.15818 V 589.946 q 0,-0.0879 0.0439,-0.14939 0.0439,-0.0703 0.15819,-0.11425 0.11424,-0.0439 0.29001,-0.0615 0.18455,-0.0264 0.45698,-0.0264 0.28121,0 0.46576,0.0264 0.18455,0.0176 0.28122,0.0615 0.10546,0.0439 0.1494,0.11425 0.0439,0.0615 0.0439,0.14939 v 0.97548 q 0.30758,-0.4394 0.58001,-0.72062 0.27244,-0.29001 0.5185,-0.45698 0.24607,-0.16698 0.49213,-0.22849 0.24607,-0.0703 0.49214,-0.0703 0.11424,0 0.24606,0.0176 0.13183,0.009 0.27243,0.0439 0.14061,0.0264 0.24607,0.0703 0.10546,0.0352 0.1494,0.0791 0.0527,0.0439 0.0703,0.0967 0.0264,0.0527 0.0439,0.14939 0.0176,0.0879 0.0264,0.27243 0.009,0.18455 0.009,0.50092 z m 6.00226,6.33621 q 0,0.38668 -0.0527,0.59759 -0.0439,0.20213 -0.12303,0.29001 -0.0791,0.0791 -0.23728,0.1494 -0.1494,0.0615 -0.36031,0.10545 -0.20213,0.0527 -0.4482,0.0791 -0.23727,0.0264 -0.48334,0.0264 -0.65911,0 -1.14245,-0.16697 -0.48335,-0.16698 -0.79972,-0.50971 -0.31637,-0.35152 -0.46577,-0.87881 -0.14939,-0.52728 -0.14939,-1.24791 v -4.01615 h -0.94033 q -0.16697,0 -0.25485,-0.20213 -0.0879,-0.21091 -0.0879,-0.69426 0,-0.25485 0.0176,-0.43061 0.0264,-0.17577 0.0703,-0.27243 0.0439,-0.10546 0.10545,-0.1494 0.0703,-0.0439 0.15819,-0.0439 h 0.93154 v -1.74883 q 0,-0.0879 0.0439,-0.15819 0.0527,-0.0703 0.17576,-0.11424 0.13182,-0.0527 0.34273,-0.0703 0.21971,-0.0264 0.53608,-0.0264 0.32516,0 0.53607,0.0264 0.2197,0.0176 0.34274,0.0703 0.12303,0.0439 0.17576,0.11424 0.0527,0.0703 0.0527,0.15819 v 1.74883 h 1.70488 q 0.0879,0 0.1494,0.0439 0.0703,0.0439 0.11425,0.1494 0.0439,0.0967 0.0615,0.27243 0.0264,0.17576 0.0264,0.43061 0,0.48335 -0.0879,0.69426 -0.0879,0.20213 -0.25486,0.20213 h -1.71367 v 3.68221 q 0,0.64153 0.20212,0.96668 0.20213,0.31638 0.72063,0.31638 0.17576,0 0.31637,-0.0264 0.14061,-0.0352 0.24606,-0.0703 0.11425,-0.0439 0.18455,-0.0703 0.0791,-0.0352 0.14061,-0.0352 0.0527,0 0.0967,0.0352 0.0527,0.0264 0.0791,0.12304 0.0264,0.0879 0.0439,0.24606 0.0264,0.15819 0.0264,0.40425 z"
         id="path32" /><path
         style="font-weight:bold;-inkscape-font-specification:'Calibri Bold';text-align:center;text-anchor:middle"
         d="m 209.66761,620.28244 q 0,0.0879 -0.0527,0.15819 -0.0527,0.0615 -0.18455,0.10546 -0.12303,0.0439 -0.33395,0.0615 -0.21091,0.0264 -0.53607,0.0264 -0.32516,0 -0.53608,-0.0264 -0.21091,-0.0176 -0.34273,-0.0615 -0.12303,-0.0439 -0.17576,-0.10546 -0.0527,-0.0703 -0.0527,-0.15819 v -11.55633 q 0,-0.0879 0.0527,-0.15818 0.0527,-0.0703 0.17576,-0.11425 0.13182,-0.0527 0.34273,-0.0791 0.21092,-0.0264 0.53608,-0.0264 0.32516,0 0.53607,0.0264 0.21092,0.0264 0.33395,0.0791 0.13182,0.0439 0.18455,0.11425 0.0527,0.0703 0.0527,0.15818 z m 8.88475,0.0264 q 0,0.12303 -0.0879,0.19334 -0.0879,0.0703 -0.28122,0.0967 -0.18455,0.0351 -0.55365,0.0351 -0.39546,0 -0.58001,-0.0351 -0.17576,-0.0264 -0.25486,-0.0967 -0.0703,-0.0703 -0.0703,-0.19334 v -0.62396 q -0.48335,0.5185 -1.1073,0.80851 -0.61517,0.29001 -1.37094,0.29001 -0.62396,0 -1.15124,-0.16698 -0.5185,-0.15818 -0.90517,-0.47456 -0.37789,-0.32515 -0.5888,-0.79971 -0.21092,-0.47456 -0.21092,-1.1073 0,-0.68547 0.26364,-1.18639 0.27243,-0.50971 0.79972,-0.83487 0.53607,-0.33395 1.327,-0.49213 0.79093,-0.15819 1.83671,-0.15819 h 0.76456 v -0.47455 q 0,-0.3691 -0.0791,-0.64153 -0.0703,-0.28122 -0.24607,-0.46577 -0.16697,-0.18455 -0.45698,-0.27243 -0.28121,-0.0879 -0.70304,-0.0879 -0.55365,0 -0.99306,0.12303 -0.43061,0.12303 -0.76456,0.27243 -0.33395,0.1494 -0.56244,0.27243 -0.2197,0.12303 -0.36031,0.12303 -0.0967,0 -0.17576,-0.0615 -0.0703,-0.0615 -0.12303,-0.17577 -0.0439,-0.11424 -0.0703,-0.28121 -0.0264,-0.16698 -0.0264,-0.3691 0,-0.27243 0.0439,-0.43062 0.0439,-0.15819 0.16697,-0.28122 0.12303,-0.13182 0.43062,-0.28122 0.30758,-0.15818 0.72062,-0.29 0.41304,-0.13183 0.89639,-0.21092 0.49213,-0.0879 1.01063,-0.0879 0.92274,0 1.57306,0.18455 0.65911,0.17576 1.08094,0.55365 0.42183,0.3691 0.61516,0.9579 0.19334,0.5888 0.19334,1.39731 z m -2.17066,-3.35705 h -0.84365 q -0.53608,0 -0.91396,0.0791 -0.37789,0.0791 -0.61517,0.23728 -0.23728,0.15819 -0.35152,0.38668 -0.10546,0.2197 -0.10546,0.50971 0,0.49213 0.30758,0.77335 0.31637,0.28122 0.87002,0.28122 0.46577,0 0.85245,-0.23728 0.39546,-0.23728 0.79971,-0.69426 z m 8.84961,2.55733 q 0,0.38668 -0.0527,0.59759 -0.0439,0.20213 -0.12304,0.29001 -0.0791,0.0791 -0.23727,0.1494 -0.1494,0.0615 -0.36032,0.10545 -0.20212,0.0527 -0.44819,0.0791 -0.23728,0.0264 -0.48334,0.0264 -0.65911,0 -1.14245,-0.16697 -0.48335,-0.16698 -0.79972,-0.50971 -0.31637,-0.35153 -0.46577,-0.87881 -0.1494,-0.52729 -0.1494,-1.24791 v -4.01615 h -0.94032 q -0.16697,0 -0.25486,-0.20213 -0.0879,-0.21091 -0.0879,-0.69426 0,-0.25485 0.0176,-0.43061 0.0264,-0.17577 0.0703,-0.27244 0.0439,-0.10545 0.10546,-0.14939 0.0703,-0.0439 0.15819,-0.0439 h 0.93153 v -1.74883 q 0,-0.0879 0.0439,-0.15819 0.0527,-0.0703 0.17577,-0.11424 0.13182,-0.0527 0.34273,-0.0703 0.2197,-0.0264 0.53607,-0.0264 0.32516,0 0.53608,0.0264 0.2197,0.0176 0.34273,0.0703 0.12304,0.0439 0.17577,0.11424 0.0527,0.0703 0.0527,0.15819 v 1.74883 h 1.70489 q 0.0879,0 0.1494,0.0439 0.0703,0.0439 0.11424,0.14939 0.0439,0.0967 0.0615,0.27244 0.0264,0.17576 0.0264,0.43061 0,0.48335 -0.0879,0.69426 -0.0879,0.20213 -0.25485,0.20213 h -1.71368 v 3.6822 q 0,0.64153 0.20213,0.96669 0.20213,0.31637 0.72062,0.31637 0.17576,0 0.31637,-0.0264 0.14061,-0.0352 0.24607,-0.0703 0.11425,-0.0439 0.18455,-0.0703 0.0791,-0.0351 0.14061,-0.0351 0.0527,0 0.0967,0.0351 0.0527,0.0264 0.0791,0.12303 0.0264,0.0879 0.0439,0.24607 0.0264,0.15819 0.0264,0.40425 z m 8.62111,-3.37462 q 0,0.40425 -0.18455,0.59759 -0.17576,0.19334 -0.49213,0.19334 h -4.77193 q 0,0.50092 0.11424,0.91396 0.12303,0.40425 0.37789,0.69426 0.26364,0.28121 0.66789,0.43061 0.41304,0.1494 0.98427,0.1494 0.58001,0 1.01942,-0.0791 0.4394,-0.0879 0.75577,-0.18455 0.32516,-0.10546 0.53608,-0.18455 0.21091,-0.0879 0.34273,-0.0879 0.0791,0 0.13182,0.0352 0.0527,0.0264 0.0879,0.10546 0.0352,0.0791 0.0439,0.22849 0.0176,0.1406 0.0176,0.36031 0,0.19333 -0.009,0.33394 -0.009,0.13183 -0.0264,0.22849 -0.0176,0.0967 -0.0527,0.16698 -0.0352,0.0615 -0.0967,0.12303 -0.0527,0.0615 -0.30758,0.16697 -0.25486,0.10546 -0.65032,0.21092 -0.39547,0.0967 -0.90517,0.16697 -0.50971,0.0791 -1.08973,0.0791 -1.04578,0 -1.83671,-0.26365 -0.78214,-0.26364 -1.30942,-0.79971 -0.52729,-0.53608 -0.79093,-1.35337 -0.25485,-0.81729 -0.25485,-1.9158 0,-1.04578 0.27243,-1.88065 0.27243,-0.84366 0.79092,-1.42367 0.5185,-0.5888 1.2567,-0.89639 0.74699,-0.30758 1.67853,-0.30758 0.98426,0 1.67852,0.29001 0.70305,0.29 1.15124,0.8085 0.44819,0.50971 0.65911,1.21276 0.21091,0.70304 0.21091,1.52912 z m -2.14429,-0.63274 q 0.0264,-0.93154 -0.37789,-1.45883 -0.39547,-0.53607 -1.23033,-0.53607 -0.42183,0 -0.7382,0.15819 -0.30759,0.15818 -0.5185,0.43061 -0.20213,0.26364 -0.31637,0.63274 -0.10546,0.36032 -0.12303,0.77336 z m 11.45087,4.78071 q 0,0.0879 -0.0527,0.15819 -0.0527,0.0615 -0.17576,0.10546 -0.12303,0.0439 -0.34273,0.0615 -0.21092,0.0264 -0.52729,0.0264 -0.32516,0 -0.54486,-0.0264 -0.21091,-0.0176 -0.33395,-0.0615 -0.12303,-0.0439 -0.17576,-0.10546 -0.0527,-0.0703 -0.0527,-0.15819 v -4.47313 q 0,-0.57123 -0.0879,-0.89639 -0.0791,-0.32516 -0.23728,-0.55365 -0.15818,-0.23727 -0.41304,-0.36031 -0.24606,-0.13182 -0.58001,-0.13182 -0.42183,0 -0.85244,0.30758 -0.43062,0.30759 -0.89639,0.89639 v 5.21133 q 0,0.0879 -0.0527,0.15819 -0.0527,0.0615 -0.18455,0.10546 -0.12303,0.0439 -0.33395,0.0615 -0.21091,0.0264 -0.53607,0.0264 -0.32516,0 -0.53607,-0.0264 -0.21092,-0.0176 -0.34274,-0.0615 -0.12303,-0.0439 -0.17576,-0.10546 -0.0527,-0.0703 -0.0527,-0.15819 v -7.83897 q 0,-0.0879 0.0439,-0.1494 0.0439,-0.0703 0.15819,-0.11424 0.11424,-0.0439 0.29001,-0.0615 0.18455,-0.0264 0.45698,-0.0264 0.28121,0 0.46576,0.0264 0.18455,0.0176 0.28122,0.0615 0.10546,0.0439 0.1494,0.11424 0.0439,0.0615 0.0439,0.1494 v 0.90517 q 0.65032,-0.70304 1.31821,-1.05457 0.67669,-0.35152 1.4061,-0.35152 0.79971,0 1.34457,0.26364 0.55365,0.26365 0.8876,0.72063 0.34274,0.44819 0.49213,1.05457 0.1494,0.60637 0.1494,1.45882 z m 8.10261,-1.2479 q 0,0.22849 -0.0176,0.38667 -0.009,0.1494 -0.0352,0.25486 -0.0176,0.10545 -0.0527,0.17576 -0.0264,0.0615 -0.13182,0.16697 -0.10546,0.0967 -0.36032,0.24607 -0.25485,0.14061 -0.58001,0.25485 -0.32516,0.11425 -0.71183,0.18455 -0.37789,0.0703 -0.78214,0.0703 -0.90518,0 -1.60822,-0.28122 -0.69426,-0.28122 -1.16882,-0.82608 -0.47455,-0.55365 -0.72062,-1.34458 -0.23728,-0.79093 -0.23728,-1.81034 0,-1.17761 0.29001,-2.03005 0.29879,-0.86123 0.82608,-1.42367 0.52728,-0.56244 1.24791,-0.83487 0.72062,-0.27243 1.58185,-0.27243 0.35152,0 0.68547,0.0615 0.34274,0.0615 0.63274,0.16697 0.2988,0.10546 0.52729,0.23728 0.23728,0.13182 0.33395,0.22849 0.0967,0.0967 0.13182,0.16697 0.0439,0.0615 0.0615,0.16698 0.0264,0.10545 0.0352,0.26364 0.0176,0.1494 0.0176,0.3691 0,0.50971 -0.0879,0.72062 -0.0879,0.20213 -0.22849,0.20213 -0.1494,0 -0.31637,-0.12304 -0.16697,-0.12303 -0.39546,-0.27243 -0.22849,-0.14939 -0.54486,-0.27243 -0.31638,-0.12303 -0.75578,-0.12303 -0.86123,0 -1.31821,0.66789 -0.45698,0.65911 -0.45698,1.94217 0,0.63274 0.11424,1.11609 0.11425,0.48334 0.33395,0.8085 0.22849,0.32516 0.56244,0.49213 0.34273,0.15819 0.79092,0.15819 0.45698,0 0.78214,-0.13182 0.33395,-0.14061 0.58002,-0.30759 0.24606,-0.16697 0.41304,-0.29879 0.16697,-0.14061 0.28122,-0.14061 0.0791,0 0.13182,0.0439 0.0527,0.0439 0.0791,0.16697 0.0352,0.11425 0.0527,0.2988 0.0176,0.18455 0.0176,0.47456 z m 6.14288,1.5467 -0.94911,2.77703 q -0.0791,0.21971 -0.43062,0.31638 -0.35152,0.0967 -1.02821,0.0967 -0.35152,0 -0.56243,-0.0351 -0.21092,-0.0264 -0.31638,-0.0967 -0.10545,-0.0703 -0.11424,-0.17576 -0.009,-0.10546 0.0527,-0.25485 l 1.04578,-2.62764 q -0.11425,-0.0527 -0.21091,-0.15819 -0.0879,-0.11424 -0.13183,-0.23727 l -2.69794,-7.20623 q -0.11424,-0.30759 -0.11424,-0.46577 0,-0.16698 0.10545,-0.25486 0.10546,-0.0967 0.35153,-0.13182 0.25485,-0.0352 0.66789,-0.0352 0.37789,0 0.59759,0.0176 0.2197,0.009 0.34274,0.0615 0.12303,0.0527 0.18455,0.16697 0.0615,0.10546 0.12303,0.30759 l 1.8455,5.24649 h 0.0264 l 1.68731,-5.35195 q 0.0527,-0.22849 0.13183,-0.29879 0.0879,-0.0791 0.28121,-0.11425 0.19334,-0.0352 0.67669,-0.0352 0.37789,0 0.62395,0.0352 0.25486,0.0351 0.3691,0.13182 0.12303,0.0967 0.12303,0.26364 0,0.15819 -0.0703,0.37789 z"
         id="path33" /></g><path
       id="path25"
       style="fill:#747474;fill-opacity:1;stroke-width:2.68294"
       d="m 468.76668,552.81717 c -96.77179,-8.08707 -199.46653,-7.53764 -297.82571,0 v -62.4852 c 98.82693,10.05172 197.2925,8.99991 297.82571,0 z" /><g
       id="text26"
       style="font-size:17.998px;line-height:1.25;font-family:Calibri;-inkscape-font-specification:Calibri;letter-spacing:0px;word-spacing:0px;fill:#e0e0e0;stroke-width:1.51038"
       aria-label="Long&#10;latency"><path
         style="font-weight:bold;-inkscape-font-specification:'Calibri Bold';text-align:center;text-anchor:middle"
         d="m 117.32553,513.63127 q 0,0.26364 -0.0264,0.44819 -0.0176,0.17577 -0.0615,0.2988 -0.0439,0.11424 -0.11425,0.16697 -0.0615,0.0527 -0.1494,0.0527 h -5.21133 q -0.29001,0 -0.49213,-0.16697 -0.19334,-0.17576 -0.19334,-0.56244 v -10.326 q 0,-0.0879 0.0527,-0.15819 0.0615,-0.0703 0.19333,-0.11424 0.13183,-0.0439 0.35153,-0.0703 0.22849,-0.0264 0.56243,-0.0264 0.34274,0 0.56244,0.0264 0.2197,0.0264 0.35153,0.0703 0.13182,0.0439 0.18455,0.11424 0.0615,0.0703 0.0615,0.15819 v 9.1484 h 3.57675 q 0.0879,0 0.1494,0.0527 0.0703,0.0439 0.11425,0.15818 0.0439,0.10546 0.0615,0.29001 0.0264,0.17576 0.0264,0.4394 z m 9.15718,-3.33068 q 0,1.00184 -0.26364,1.82792 -0.26364,0.82608 -0.79972,1.42367 -0.53607,0.59759 -1.34457,0.92275 -0.80851,0.32516 -1.88944,0.32516 -1.04578,0 -1.81914,-0.29001 -0.77335,-0.29001 -1.28306,-0.84366 -0.50971,-0.55365 -0.75577,-1.36215 -0.24607,-0.8085 -0.24607,-1.8455 0,-1.00184 0.26364,-1.82792 0.27243,-0.83487 0.80851,-1.42367 0.53607,-0.59759 1.33579,-0.92275 0.8085,-0.32516 1.88944,-0.32516 1.05457,0 1.82792,0.29001 0.77335,0.28122 1.27427,0.83487 0.50971,0.55365 0.75578,1.36215 0.24606,0.80851 0.24606,1.85429 z m -2.27611,0.0879 q 0,-0.58002 -0.0967,-1.06336 -0.0879,-0.49213 -0.30758,-0.85244 -0.21971,-0.36032 -0.58881,-0.56244 -0.36031,-0.20213 -0.91396,-0.20213 -0.49213,0 -0.86123,0.18455 -0.3691,0.17576 -0.60638,0.52729 -0.23728,0.34273 -0.36031,0.83487 -0.11424,0.48334 -0.11424,1.10729 0,0.58002 0.0967,1.07215 0.0967,0.48335 0.30759,0.84366 0.2197,0.36031 0.5888,0.56243 0.3691,0.19334 0.91396,0.19334 0.50092,0 0.87002,-0.17576 0.3691,-0.18455 0.60638,-0.52728 0.23728,-0.34274 0.35152,-0.82608 0.11425,-0.49214 0.11425,-1.11609 z m 11.51239,3.9107 q 0,0.0879 -0.0527,0.15818 -0.0527,0.0615 -0.17576,0.10546 -0.12304,0.0439 -0.34274,0.0615 -0.21091,0.0264 -0.52728,0.0264 -0.32516,0 -0.54486,-0.0264 -0.21092,-0.0176 -0.33395,-0.0615 -0.12303,-0.0439 -0.17576,-0.10546 -0.0527,-0.0703 -0.0527,-0.15818 v -4.47314 q 0,-0.57122 -0.0879,-0.89638 -0.0791,-0.32516 -0.23728,-0.55365 -0.15819,-0.23728 -0.41304,-0.36031 -0.24607,-0.13183 -0.58001,-0.13183 -0.42183,0 -0.85245,0.30759 -0.43061,0.30758 -0.89638,0.89638 v 5.21134 q 0,0.0879 -0.0527,0.15818 -0.0527,0.0615 -0.18455,0.10546 -0.12303,0.0439 -0.33395,0.0615 -0.21091,0.0264 -0.53607,0.0264 -0.32516,0 -0.53607,-0.0264 -0.21092,-0.0176 -0.34274,-0.0615 -0.12303,-0.0439 -0.17576,-0.10546 -0.0527,-0.0703 -0.0527,-0.15818 v -7.83898 q 0,-0.0879 0.0439,-0.14939 0.0439,-0.0703 0.15819,-0.11425 0.11424,-0.0439 0.29,-0.0615 0.18455,-0.0264 0.45698,-0.0264 0.28122,0 0.46577,0.0264 0.18455,0.0176 0.28122,0.0615 0.10546,0.0439 0.1494,0.11425 0.0439,0.0615 0.0439,0.14939 v 0.90518 q 0.65032,-0.70305 1.31821,-1.05457 0.67668,-0.35153 1.40609,-0.35153 0.79972,0 1.34458,0.26365 0.55365,0.26364 0.8876,0.72062 0.34273,0.44819 0.49213,1.05457 0.1494,0.60638 0.1494,1.45882 z m 9.23628,-7.29411 q 0,0.42182 -0.0967,0.62395 -0.0967,0.20213 -0.23728,0.20213 h -0.92275 q 0.19334,0.21091 0.27243,0.48334 0.0879,0.26364 0.0879,0.55365 0,0.68547 -0.22849,1.22154 -0.22849,0.52729 -0.6591,0.89639 -0.42183,0.36031 -1.02821,0.55365 -0.59759,0.18455 -1.33579,0.18455 -0.37789,0 -0.72062,-0.0879 -0.34274,-0.0967 -0.52729,-0.21971 -0.10545,0.11425 -0.19333,0.27244 -0.0791,0.15818 -0.0791,0.35152 0,0.25485 0.2197,0.42183 0.2285,0.15818 0.63275,0.17576 l 1.90701,0.0703 q 0.6679,0.0264 1.18639,0.19334 0.52729,0.15819 0.87881,0.45698 0.36031,0.29001 0.54486,0.70305 0.19334,0.41304 0.19334,0.94032 0,0.58002 -0.25485,1.08973 -0.25486,0.51849 -0.76457,0.89638 -0.50971,0.37789 -1.28306,0.59759 -0.76456,0.2197 -1.79277,0.2197 -1.00184,0 -1.71367,-0.15818 -0.70305,-0.15819 -1.16003,-0.43941 -0.44819,-0.28122 -0.65911,-0.67668 -0.20212,-0.38668 -0.20212,-0.85244 0,-0.29001 0.0703,-0.55365 0.0791,-0.26365 0.2197,-0.50971 0.1494,-0.23728 0.36032,-0.45698 0.21091,-0.2197 0.48334,-0.42183 -0.37789,-0.20213 -0.5888,-0.54486 -0.20213,-0.35153 -0.20213,-0.76457 0,-0.51849 0.23728,-0.94032 0.23728,-0.43062 0.61517,-0.77335 -0.30759,-0.30759 -0.49214,-0.7382 -0.18455,-0.43062 -0.18455,-1.07215 0,-0.68547 0.23728,-1.22154 0.24607,-0.54486 0.67668,-0.91396 0.43062,-0.37789 1.02821,-0.57123 0.59759,-0.20212 1.31821,-0.20212 0.3691,0 0.70305,0.0439 0.34274,0.0439 0.63274,0.12303 h 2.48703 q 0.1494,0 0.23728,0.19334 0.0967,0.19334 0.0967,0.65032 z m -2.83855,1.85428 q 0,-0.63274 -0.35153,-0.98426 -0.35152,-0.35153 -0.99305,-0.35153 -0.32516,0 -0.57123,0.11425 -0.24606,0.10545 -0.41304,0.29879 -0.15818,0.18455 -0.23727,0.43941 -0.0791,0.24606 -0.0791,0.51849 0,0.59759 0.35153,0.94912 0.35152,0.34273 0.97547,0.34273 0.33395,0 0.58002,-0.10545 0.24606,-0.10546 0.40425,-0.29001 0.16697,-0.18455 0.24607,-0.42183 0.0879,-0.24607 0.0879,-0.50971 z m 0.51849,6.25712 q 0,-0.39547 -0.31637,-0.60638 -0.31637,-0.21091 -0.87002,-0.22849 l -1.57307,-0.0439 q -0.22849,0.16697 -0.3691,0.32516 -0.13182,0.1494 -0.2197,0.29001 -0.0791,0.14061 -0.10545,0.27243 -0.0264,0.13182 -0.0264,0.27243 0,0.4394 0.43941,0.66789 0.44819,0.22849 1.25669,0.22849 0.50092,0 0.84366,-0.10546 0.34273,-0.0967 0.55365,-0.26364 0.21091,-0.16697 0.29879,-0.37789 0.0879,-0.20212 0.0879,-0.43061 z"
         id="path34" /><path
         style="font-weight:bold;-inkscape-font-specification:'Calibri Bold';text-align:center;text-anchor:middle"
         d="m 103.93248,536.79667 q 0,0.0879 -0.0527,0.15818 -0.0527,0.0615 -0.18455,0.10546 -0.12304,0.0439 -0.33395,0.0615 -0.21092,0.0264 -0.53607,0.0264 -0.32516,0 -0.53608,-0.0264 -0.21091,-0.0176 -0.34273,-0.0615 -0.12304,-0.0439 -0.17577,-0.10546 -0.0527,-0.0703 -0.0527,-0.15818 v -11.55634 q 0,-0.0879 0.0527,-0.15818 0.0527,-0.0703 0.17577,-0.11425 0.13182,-0.0527 0.34273,-0.0791 0.21092,-0.0264 0.53608,-0.0264 0.32515,0 0.53607,0.0264 0.21091,0.0264 0.33395,0.0791 0.13182,0.0439 0.18455,0.11425 0.0527,0.0703 0.0527,0.15818 z m 8.88476,0.0264 q 0,0.12303 -0.0879,0.19334 -0.0879,0.0703 -0.28122,0.0967 -0.18455,0.0352 -0.55365,0.0352 -0.39546,0 -0.58001,-0.0352 -0.17577,-0.0264 -0.25486,-0.0967 -0.0703,-0.0703 -0.0703,-0.19334 v -0.62395 q -0.48335,0.51849 -1.1073,0.8085 -0.61517,0.29001 -1.37094,0.29001 -0.62396,0 -1.15124,-0.16698 -0.5185,-0.15818 -0.90518,-0.47455 -0.37788,-0.32516 -0.5888,-0.79972 -0.21091,-0.47456 -0.21091,-1.1073 0,-0.68547 0.26364,-1.18639 0.27243,-0.50971 0.79972,-0.83487 0.53607,-0.33395 1.327,-0.49213 0.79093,-0.15819 1.83671,-0.15819 h 0.76456 v -0.47455 q 0,-0.3691 -0.0791,-0.64153 -0.0703,-0.28122 -0.24607,-0.46577 -0.16697,-0.18455 -0.45698,-0.27243 -0.28122,-0.0879 -0.70305,-0.0879 -0.55364,0 -0.99305,0.12303 -0.43062,0.12303 -0.76456,0.27243 -0.33395,0.1494 -0.56244,0.27243 -0.2197,0.12303 -0.36031,0.12303 -0.0967,0 -0.17576,-0.0615 -0.0703,-0.0615 -0.12304,-0.17576 -0.0439,-0.11425 -0.0703,-0.28122 -0.0264,-0.16698 -0.0264,-0.3691 0,-0.27243 0.0439,-0.43062 0.0439,-0.15818 0.16697,-0.28122 0.12303,-0.13182 0.43061,-0.28122 0.30759,-0.15818 0.72063,-0.29 0.41304,-0.13182 0.89638,-0.21092 0.49214,-0.0879 1.01063,-0.0879 0.92275,0 1.57307,0.18455 0.65911,0.17576 1.08093,0.55365 0.42183,0.3691 0.61517,0.9579 0.19334,0.5888 0.19334,1.39731 z m -2.17066,-3.35705 h -0.84366 q -0.53607,0 -0.91396,0.0791 -0.37788,0.0791 -0.61516,0.23728 -0.23728,0.15819 -0.35153,0.38668 -0.10545,0.2197 -0.10545,0.50971 0,0.49213 0.30758,0.77335 0.31637,0.28122 0.87002,0.28122 0.46577,0 0.85245,-0.23728 0.39546,-0.23728 0.79971,-0.69426 z m 8.8496,2.55733 q 0,0.38668 -0.0527,0.59759 -0.0439,0.20213 -0.12303,0.29001 -0.0791,0.0791 -0.23728,0.1494 -0.14939,0.0615 -0.36031,0.10546 -0.20212,0.0527 -0.44819,0.0791 -0.23728,0.0264 -0.48335,0.0264 -0.6591,0 -1.14245,-0.16697 -0.48334,-0.16698 -0.79971,-0.50971 -0.31637,-0.35152 -0.46577,-0.87881 -0.1494,-0.52728 -0.1494,-1.24791 v -4.01615 h -0.94032 q -0.16698,0 -0.25486,-0.20213 -0.0879,-0.21091 -0.0879,-0.69426 0,-0.25485 0.0176,-0.43061 0.0264,-0.17576 0.0703,-0.27243 0.0439,-0.10546 0.10546,-0.1494 0.0703,-0.0439 0.15818,-0.0439 h 0.93154 v -1.74883 q 0,-0.0879 0.0439,-0.15819 0.0527,-0.0703 0.17576,-0.11424 0.13182,-0.0527 0.34274,-0.0703 0.2197,-0.0264 0.53607,-0.0264 0.32516,0 0.53608,0.0264 0.2197,0.0176 0.34273,0.0703 0.12303,0.0439 0.17576,0.11424 0.0527,0.0703 0.0527,0.15819 v 1.74883 h 1.70489 q 0.0879,0 0.1494,0.0439 0.0703,0.0439 0.11424,0.1494 0.0439,0.0967 0.0615,0.27243 0.0264,0.17576 0.0264,0.43061 0,0.48335 -0.0879,0.69426 -0.0879,0.20213 -0.25485,0.20213 h -1.71368 v 3.68221 q 0,0.64153 0.20213,0.96668 0.20212,0.31638 0.72062,0.31638 0.17576,0 0.31637,-0.0264 0.14061,-0.0352 0.24607,-0.0703 0.11424,-0.0439 0.18455,-0.0703 0.0791,-0.0351 0.14061,-0.0351 0.0527,0 0.0967,0.0351 0.0527,0.0264 0.0791,0.12304 0.0264,0.0879 0.0439,0.24606 0.0264,0.15819 0.0264,0.40425 z m 8.62112,-3.37462 q 0,0.40425 -0.18455,0.59759 -0.17577,0.19334 -0.49214,0.19334 h -4.77193 q 0,0.50092 0.11425,0.91396 0.12303,0.40425 0.37789,0.69426 0.26364,0.28122 0.66789,0.43061 0.41304,0.1494 0.98427,0.1494 0.58001,0 1.01941,-0.0791 0.43941,-0.0879 0.75578,-0.18455 0.32516,-0.10546 0.53607,-0.18455 0.21092,-0.0879 0.34274,-0.0879 0.0791,0 0.13182,0.0352 0.0527,0.0264 0.0879,0.10546 0.0352,0.0791 0.0439,0.22849 0.0176,0.14061 0.0176,0.36031 0,0.19334 -0.009,0.33395 -0.009,0.13182 -0.0264,0.22849 -0.0176,0.0967 -0.0527,0.16697 -0.0352,0.0615 -0.0967,0.12303 -0.0527,0.0615 -0.30759,0.16698 -0.25485,0.10545 -0.65031,0.21091 -0.39547,0.0967 -0.90518,0.16697 -0.50971,0.0791 -1.08972,0.0791 -1.04578,0 -1.83671,-0.26365 -0.78214,-0.26364 -1.30942,-0.79971 -0.52729,-0.53608 -0.79093,-1.35337 -0.25486,-0.81729 -0.25486,-1.9158 0,-1.04578 0.27243,-1.88065 0.27243,-0.84366 0.79093,-1.42367 0.5185,-0.5888 1.2567,-0.89638 0.74699,-0.30759 1.67852,-0.30759 0.98427,0 1.67853,0.29001 0.70304,0.29001 1.15124,0.8085 0.44819,0.50971 0.6591,1.21276 0.21092,0.70305 0.21092,1.52913 z m -2.1443,-0.63274 q 0.0264,-0.93154 -0.37788,-1.45883 -0.39547,-0.53607 -1.23034,-0.53607 -0.42182,0 -0.7382,0.15819 -0.30758,0.15818 -0.51849,0.43061 -0.20213,0.26365 -0.31637,0.63275 -0.10546,0.36031 -0.12304,0.77335 z m 11.45088,4.78072 q 0,0.0879 -0.0527,0.15818 -0.0527,0.0615 -0.17576,0.10546 -0.12303,0.0439 -0.34274,0.0615 -0.21091,0.0264 -0.52728,0.0264 -0.32516,0 -0.54486,-0.0264 -0.21092,-0.0176 -0.33395,-0.0615 -0.12303,-0.0439 -0.17576,-0.10546 -0.0527,-0.0703 -0.0527,-0.15818 v -4.47314 q 0,-0.57123 -0.0879,-0.89638 -0.0791,-0.32516 -0.23728,-0.55365 -0.15818,-0.23728 -0.41304,-0.36032 -0.24607,-0.13182 -0.58001,-0.13182 -0.42183,0 -0.85245,0.30759 -0.43061,0.30758 -0.89638,0.89638 v 5.21134 q 0,0.0879 -0.0527,0.15818 -0.0527,0.0615 -0.18455,0.10546 -0.12303,0.0439 -0.33395,0.0615 -0.21091,0.0264 -0.53607,0.0264 -0.32516,0 -0.53607,-0.0264 -0.21092,-0.0176 -0.34274,-0.0615 -0.12303,-0.0439 -0.17576,-0.10546 -0.0527,-0.0703 -0.0527,-0.15818 v -7.83898 q 0,-0.0879 0.0439,-0.14939 0.0439,-0.0703 0.15819,-0.11425 0.11424,-0.0439 0.29,-0.0615 0.18455,-0.0264 0.45698,-0.0264 0.28122,0 0.46577,0.0264 0.18455,0.0176 0.28122,0.0615 0.10546,0.0439 0.1494,0.11425 0.0439,0.0615 0.0439,0.14939 v 0.90518 q 0.65032,-0.70305 1.31821,-1.05457 0.67668,-0.35153 1.4061,-0.35153 0.79971,0 1.34457,0.26364 0.55365,0.26365 0.8876,0.72063 0.34273,0.44819 0.49213,1.05457 0.1494,0.60638 0.1494,1.45882 z m 8.10261,-1.24791 q 0,0.22849 -0.0176,0.38667 -0.009,0.1494 -0.0352,0.25486 -0.0176,0.10545 -0.0527,0.17576 -0.0264,0.0615 -0.13182,0.16697 -0.10545,0.0967 -0.36031,0.24607 -0.25485,0.14061 -0.58001,0.25485 -0.32516,0.11425 -0.71184,0.18455 -0.37788,0.0703 -0.78214,0.0703 -0.90517,0 -1.60822,-0.28122 -0.69425,-0.28122 -1.16881,-0.82608 -0.47456,-0.55365 -0.72062,-1.34458 -0.23728,-0.79093 -0.23728,-1.81034 0,-1.17761 0.29,-2.03005 0.2988,-0.86123 0.82608,-1.42367 0.52729,-0.56244 1.24791,-0.83487 0.72063,-0.27243 1.58186,-0.27243 0.35152,0 0.68547,0.0615 0.34273,0.0615 0.63274,0.16697 0.2988,0.10546 0.52729,0.23728 0.23727,0.13182 0.33394,0.22849 0.0967,0.0967 0.13182,0.16697 0.0439,0.0615 0.0615,0.16698 0.0264,0.10545 0.0351,0.26364 0.0176,0.1494 0.0176,0.3691 0,0.50971 -0.0879,0.72062 -0.0879,0.20213 -0.22849,0.20213 -0.1494,0 -0.31637,-0.12304 -0.16698,-0.12303 -0.39547,-0.27243 -0.22849,-0.14939 -0.54486,-0.27243 -0.31637,-0.12303 -0.75577,-0.12303 -0.86124,0 -1.31822,0.66789 -0.45698,0.65911 -0.45698,1.94217 0,0.63274 0.11425,1.11609 0.11424,0.48334 0.33395,0.8085 0.22849,0.32516 0.56243,0.49213 0.34274,0.15819 0.79093,0.15819 0.45698,0 0.78214,-0.13182 0.33395,-0.14061 0.58001,-0.30758 0.24607,-0.16698 0.41304,-0.2988 0.16698,-0.14061 0.28122,-0.14061 0.0791,0 0.13182,0.0439 0.0527,0.0439 0.0791,0.16698 0.0352,0.11424 0.0527,0.29879 0.0176,0.18455 0.0176,0.47456 z m 6.14288,1.5467 -0.94912,2.77704 q -0.0791,0.2197 -0.43061,0.31637 -0.35153,0.0967 -1.02821,0.0967 -0.35152,0 -0.56244,-0.0352 -0.21091,-0.0264 -0.31637,-0.0967 -0.10546,-0.0703 -0.11424,-0.17576 -0.009,-0.10545 0.0527,-0.25485 l 1.04578,-2.62764 q -0.11425,-0.0527 -0.21092,-0.15819 -0.0879,-0.11424 -0.13182,-0.23727 l -2.69794,-7.20623 q -0.11425,-0.30759 -0.11425,-0.46577 0,-0.16698 0.10546,-0.25486 0.10546,-0.0967 0.35152,-0.13182 0.25486,-0.0351 0.6679,-0.0351 0.37789,0 0.59759,0.0176 0.2197,0.009 0.34273,0.0615 0.12304,0.0527 0.18455,0.16698 0.0615,0.10545 0.12304,0.30758 l 1.8455,5.24649 h 0.0264 l 1.68731,-5.35195 q 0.0527,-0.22849 0.13182,-0.29879 0.0879,-0.0791 0.28122,-0.11425 0.19334,-0.0351 0.67668,-0.0351 0.37789,0 0.62396,0.0351 0.25485,0.0352 0.3691,0.13182 0.12303,0.0967 0.12303,0.26365 0,0.15818 -0.0703,0.37788 z"
         id="path35" /></g><path
       id="path27"
       style="fill:#747474;fill-opacity:1;stroke-width:2.68294"
       d="m 363.03288,631.39295 c -26.42517,-4.26343 -62.61038,-5.40592 -86.78585,0 v -53.95834 c 27.20128,7.06732 60.01,5.16282 86.78585,0 z" /><g
       id="g28"
       transform="matrix(0.43480866,0,0,0.43480866,-10.699233,507.67539)"
       style="fill:#3b3b3b;fill-opacity:1;stroke-width:1.77803"><rect
         style="fill:#3b3b3b;fill-opacity:1;stroke:none;stroke-width:2.78015"
         id="rect27"
         width="138.57317"
         height="18.101715"
         x="684.15094"
         y="213.43411" /><path
         id="path28"
         style="fill:#3b3b3b;fill-opacity:1;stroke:none;stroke-width:2.78115"
         d="m 817.46351,204.81714 v 35.33565 l 17.85474,-17.85474 -17.48092,-17.48091 z" /></g><g
       id="g32"
       style="fill:#3b3b3b;fill-opacity:1"><g
         id="g26"
         transform="matrix(0.43480868,0,0,0.43480868,-122.5338,424.83617)"
         style="fill:#3b3b3b;fill-opacity:1;stroke-width:1.77803"><rect
           style="fill:#3b3b3b;fill-opacity:1;stroke:none;stroke-width:2.78015"
           id="rect26"
           width="138.57317"
           height="18.101715"
           x="684.15094"
           y="213.43411" /><path
           id="path26"
           style="fill:#3b3b3b;fill-opacity:1;stroke:none;stroke-width:2.78115"
           d="m 817.46351,204.81714 v 35.33565 l 17.85474,-17.85474 -17.48092,-17.48091 z" /></g><g
         id="g29"
         transform="matrix(0.43480868,0,0,0.43480868,-47.834858,424.83617)"
         style="fill:#3b3b3b;fill-opacity:1;stroke-width:1.77803"><rect
           style="fill:#3b3b3b;fill-opacity:1;stroke:none;stroke-width:2.78015"
           id="rect29"
           width="138.57317"
           height="18.101715"
           x="684.15094"
           y="213.43411" /><path
           id="path29"
           style="fill:#3b3b3b;fill-opacity:1;stroke:none;stroke-width:2.78115"
           d="m 817.46351,204.81714 v 35.33565 l 17.85474,-17.85474 -17.48092,-17.48091 z" /></g><g
         id="g30"
         transform="matrix(0.43480868,0,0,0.43480868,26.864092,424.83617)"
         style="fill:#3b3b3b;fill-opacity:1;stroke-width:1.77803"><rect
           style="fill:#3b3b3b;fill-opacity:1;stroke:none;stroke-width:2.78015"
           id="rect30"
           width="138.57317"
           height="18.101715"
           x="684.15094"
           y="213.43411" /><path
           id="path30"
           style="fill:#3b3b3b;fill-opacity:1;stroke:none;stroke-width:2.78115"
           d="m 817.46351,204.81714 v 35.33565 l 17.85474,-17.85474 -17.48092,-17.48091 z" /></g><g
         id="g31"
         transform="matrix(0.43480868,0,0,0.43480868,101.56305,424.83617)"
         style="fill:#3b3b3b;fill-opacity:1;stroke-width:1.77803"><rect
           style="fill:#3b3b3b;fill-opacity:1;stroke:none;stroke-width:2.78015"
           id="rect31"
           width="138.57317"
           height="18.101715"
           x="684.15094"
           y="213.43411" /><path
           id="path31"
           style="fill:#3b3b3b;fill-opacity:1;stroke:none;stroke-width:2.78115"
           d="m 817.46351,204.81714 v 35.33565 l 17.85474,-17.85474 -17.48092,-17.48091 z" /></g></g></g></svg>
