<?xml version="1.0" encoding="UTF-8" standalone="no"?>
<!-- Created with Inkscape (http://www.inkscape.org/) -->

<svg
   width="189.03177mm"
   height="50.728363mm"
   viewBox="0 0 189.03177 50.728362"
   version="1.1"
   id="svg5"
   xml:space="preserve"
   inkscape:version="1.2 (dc2aedaf03, 2022-05-15)"
   sodipodi:docname="bitangent-dark.svg"
   inkscape:export-filename="local-frame-light.png"
   inkscape:export-xdpi="171.99225"
   inkscape:export-ydpi="171.99225"
   xmlns:inkscape="http://www.inkscape.org/namespaces/inkscape"
   xmlns:sodipodi="http://sodipodi.sourceforge.net/DTD/sodipodi-0.dtd"
   xmlns="http://www.w3.org/2000/svg"
   xmlns:svg="http://www.w3.org/2000/svg"><sodipodi:namedview
     id="namedview7"
     pagecolor="#131416"
     bordercolor="#666666"
     borderopacity="1.0"
     inkscape:showpageshadow="2"
     inkscape:pageopacity="1"
     inkscape:pagecheckerboard="0"
     inkscape:deskcolor="#d1d1d1"
     inkscape:document-units="mm"
     showgrid="false"
     inkscape:zoom="0.70710678"
     inkscape:cx="243.95184"
     inkscape:cy="-73.539105"
     inkscape:window-width="1920"
     inkscape:window-height="1017"
     inkscape:window-x="-8"
     inkscape:window-y="-8"
     inkscape:window-maximized="1"
     inkscape:current-layer="layer1" /><defs
     id="defs2"><inkscape:path-effect
       effect="simplify"
       id="path-effect61722"
       is_visible="true"
       lpeversion="1"
       steps="1"
       threshold="0.00980583"
       smooth_angles="360"
       helper_size="0"
       simplify_individual_paths="false"
       simplify_just_coalesce="false" /><inkscape:path-effect
       effect="simplify"
       id="path-effect61712"
       is_visible="true"
       lpeversion="1"
       steps="1"
       threshold="0.00980583"
       smooth_angles="360"
       helper_size="0"
       simplify_individual_paths="false"
       simplify_just_coalesce="false" /><inkscape:path-effect
       effect="simplify"
       id="path-effect61702"
       is_visible="true"
       lpeversion="1"
       steps="1"
       threshold="0.00980583"
       smooth_angles="360"
       helper_size="0"
       simplify_individual_paths="false"
       simplify_just_coalesce="false" /><inkscape:path-effect
       effect="simplify"
       id="path-effect61692"
       is_visible="true"
       lpeversion="1"
       steps="1"
       threshold="0.00980583"
       smooth_angles="360"
       helper_size="0"
       simplify_individual_paths="false"
       simplify_just_coalesce="false" /><inkscape:path-effect
       effect="simplify"
       id="path-effect61682"
       is_visible="true"
       lpeversion="1"
       steps="1"
       threshold="0.00980583"
       smooth_angles="360"
       helper_size="0"
       simplify_individual_paths="false"
       simplify_just_coalesce="false" /><inkscape:path-effect
       effect="simplify"
       id="path-effect61672"
       is_visible="true"
       lpeversion="1"
       steps="1"
       threshold="0.00980583"
       smooth_angles="360"
       helper_size="0"
       simplify_individual_paths="false"
       simplify_just_coalesce="false" /><inkscape:path-effect
       effect="simplify"
       id="path-effect61662"
       is_visible="true"
       lpeversion="1"
       steps="1"
       threshold="0.00980583"
       smooth_angles="360"
       helper_size="0"
       simplify_individual_paths="false"
       simplify_just_coalesce="false" /><inkscape:path-effect
       effect="simplify"
       id="path-effect61652"
       is_visible="true"
       lpeversion="1"
       steps="1"
       threshold="0.00980583"
       smooth_angles="360"
       helper_size="0"
       simplify_individual_paths="false"
       simplify_just_coalesce="false" /><inkscape:path-effect
       effect="simplify"
       id="path-effect61642"
       is_visible="true"
       lpeversion="1"
       steps="1"
       threshold="0.00980583"
       smooth_angles="360"
       helper_size="0"
       simplify_individual_paths="false"
       simplify_just_coalesce="false" /><inkscape:path-effect
       effect="simplify"
       id="path-effect61632"
       is_visible="true"
       lpeversion="1"
       steps="1"
       threshold="0.00980583"
       smooth_angles="360"
       helper_size="0"
       simplify_individual_paths="false"
       simplify_just_coalesce="false" /><inkscape:path-effect
       effect="simplify"
       id="path-effect61622"
       is_visible="true"
       lpeversion="1"
       steps="1"
       threshold="0.00980583"
       smooth_angles="360"
       helper_size="0"
       simplify_individual_paths="false"
       simplify_just_coalesce="false" /><inkscape:path-effect
       effect="simplify"
       id="path-effect61612"
       is_visible="true"
       lpeversion="1"
       steps="1"
       threshold="0.00980583"
       smooth_angles="360"
       helper_size="0"
       simplify_individual_paths="false"
       simplify_just_coalesce="false" /><inkscape:path-effect
       effect="simplify"
       id="path-effect61602"
       is_visible="true"
       lpeversion="1"
       steps="1"
       threshold="0.00980583"
       smooth_angles="360"
       helper_size="0"
       simplify_individual_paths="false"
       simplify_just_coalesce="false" /><inkscape:path-effect
       effect="simplify"
       id="path-effect61592"
       is_visible="true"
       lpeversion="1"
       steps="1"
       threshold="0.00980583"
       smooth_angles="360"
       helper_size="0"
       simplify_individual_paths="false"
       simplify_just_coalesce="false" /><inkscape:path-effect
       effect="simplify"
       id="path-effect61582"
       is_visible="true"
       lpeversion="1"
       steps="1"
       threshold="0.00980583"
       smooth_angles="360"
       helper_size="0"
       simplify_individual_paths="false"
       simplify_just_coalesce="false" /><inkscape:path-effect
       effect="simplify"
       id="path-effect61572"
       is_visible="true"
       lpeversion="1"
       steps="1"
       threshold="0.00980583"
       smooth_angles="360"
       helper_size="0"
       simplify_individual_paths="false"
       simplify_just_coalesce="false" /><inkscape:path-effect
       effect="simplify"
       id="path-effect61562"
       is_visible="true"
       lpeversion="1"
       steps="1"
       threshold="0.00980583"
       smooth_angles="360"
       helper_size="0"
       simplify_individual_paths="false"
       simplify_just_coalesce="false" /><inkscape:path-effect
       effect="simplify"
       id="path-effect61552"
       is_visible="true"
       lpeversion="1"
       steps="1"
       threshold="0.00980583"
       smooth_angles="360"
       helper_size="0"
       simplify_individual_paths="false"
       simplify_just_coalesce="false" /><inkscape:path-effect
       effect="simplify"
       id="path-effect61542"
       is_visible="true"
       lpeversion="1"
       steps="1"
       threshold="0.00980583"
       smooth_angles="360"
       helper_size="0"
       simplify_individual_paths="false"
       simplify_just_coalesce="false" /><inkscape:path-effect
       effect="simplify"
       id="path-effect61532"
       is_visible="true"
       lpeversion="1"
       steps="1"
       threshold="0.00980583"
       smooth_angles="360"
       helper_size="0"
       simplify_individual_paths="false"
       simplify_just_coalesce="false" /><inkscape:path-effect
       effect="simplify"
       id="path-effect61522"
       is_visible="true"
       lpeversion="1"
       steps="1"
       threshold="0.00980583"
       smooth_angles="360"
       helper_size="0"
       simplify_individual_paths="false"
       simplify_just_coalesce="false" /><marker
       style="overflow:visible"
       id="Arrow1"
       refX="0"
       refY="0"
       orient="auto-start-reverse"
       inkscape:stockid="Arrow1"
       markerWidth="4.0606604"
       markerHeight="6.7071066"
       viewBox="0 0 4.0606602 6.7071068"
       inkscape:isstock="true"
       inkscape:collect="always"
       preserveAspectRatio="xMidYMid"><path
         style="fill:none;stroke:context-stroke;stroke-width:1;stroke-linecap:butt"
         d="M 3,-3 0,0 3,3"
         id="path5057"
         transform="rotate(180,0.125,0)"
         sodipodi:nodetypes="ccc" /></marker><clipPath
       clipPathUnits="userSpaceOnUse"
       id="clipPath36213"><path
         style="fill:#c8c8c8;fill-opacity:1;stroke:none;stroke-width:0.266075;stroke-linejoin:round;stroke-dasharray:none;stroke-opacity:1"
         d="m 1.6927527,1.5520898 v 4.7923118 l 5.3217695,2.779e-4 V 1.3011809 Z"
         id="path36215" /></clipPath><g
       id="id-33d38a86-213f-4216-83fe-e5d3aaf5a9a0-7">
      <g
   id="id-63081c7e-d8f8-4499-af6a-5584df8cef2c-8" />
      <g
   id="id-89c9330e-e3e8-40ee-a9c4-adcd40504994-4">
        <path
   d="m 2.578125,-6.8125 c 0,0 0,-0.109375 -0.140625,-0.109375 -0.21875,0 -0.953125,0.078125 -1.21875,0.109375 -0.078125,0 -0.1875,0.015625 -0.1875,0.203125 0,0.109375 0.109375,0.109375 0.25,0.109375 0.484375,0 0.5,0.09375 0.5,0.171875 L 1.75,-6.125 0.484375,-1.140625 C 0.453125,-1.03125 0.4375,-0.96875 0.4375,-0.8125 c 0,0.578125 0.4375,0.921875 0.90625,0.921875 0.328125,0 0.578125,-0.203125 0.75,-0.5625 0.171875,-0.375 0.296875,-0.953125 0.296875,-0.96875 0,-0.109375 -0.09375,-0.109375 -0.125,-0.109375 -0.09375,0 -0.109375,0.046875 -0.125,0.1875 C 1.96875,-0.703125 1.78125,-0.109375 1.375,-0.109375 c -0.296875,0 -0.296875,-0.3125 -0.296875,-0.453125 0,-0.25 0.015625,-0.296875 0.0625,-0.484375 z m 0,0"
   id="id-afb6c5ea-f609-4038-81a3-b442c04c5ccb-0" />
      </g>
    </g><g
       id="id-55b47f2a-5c53-4407-8cc8-4ebd0b246e83-4">
      <g
   id="id-22311807-f4f7-4eb3-8e47-32da44d9ab5c-0" />
      <g
   id="id-e0a4b2e1-1d49-41ac-8a2b-695fdf429c38-1">
        <path
   d="m 4.75,-2.359375 c 0,-1.5625 -0.921875,-2.046875 -1.65625,-2.046875 -1.375,0 -2.6875,1.421875 -2.6875,2.828125 0,0.9375 0.59375,1.6875 1.625,1.6875 0.625,0 1.34375,-0.234375 2.09375,-0.84375 0.125,0.53125 0.453125,0.84375 0.90625,0.84375 0.53125,0 0.84375,-0.546875 0.84375,-0.703125 0,-0.078125 -0.0625,-0.109375 -0.125,-0.109375 -0.0625,0 -0.09375,0.03125 -0.125,0.109375 -0.1875,0.484375 -0.546875,0.484375 -0.5625,0.484375 -0.3125,0 -0.3125,-0.78125 -0.3125,-1.015625 0,-0.203125 0,-0.234375 0.109375,-0.34375 C 5.796875,-2.65625 6,-3.8125 6,-3.8125 6,-3.84375 5.984375,-3.921875 5.875,-3.921875 c -0.09375,0 -0.09375,0.03125 -0.140625,0.21875 -0.1875,0.625 -0.515625,1.375 -0.984375,1.96875 z m -0.65625,1.375 c -0.890625,0.765625 -1.65625,0.875 -2.046875,0.875 -0.59375,0 -0.90625,-0.453125 -0.90625,-1.09375 0,-0.484375 0.265625,-1.5625 0.578125,-2.0625 C 2.1875,-4 2.734375,-4.1875 3.078125,-4.1875 c 0.984375,0 0.984375,1.3125 0.984375,2.078125 0,0.375 0,0.953125 0.03125,1.125 z m 0,0"
   id="id-91dcec1b-b5af-4567-bde2-8eff75e689b9-5" />
      </g>
    </g></defs><g
     inkscape:label="Layer 1"
     inkscape:groupmode="layer"
     id="layer1"
     transform="translate(-0.06614583,-0.09921875)"><g
       id="g3762"
       transform="translate(-3.5560344e-8,-7.5346118)"><g
         inkscape:label="Layer 1"
         id="g57708"
         transform="matrix(0.84342061,0,0,0.84342061,-1.3192656,6.0818616)"><path
           style="fill:#464646;fill-opacity:1;stroke:none;stroke-width:0.15;stroke-linecap:round"
           d="M 32.745023,2.1832013 1.6426104,48.127014 45.521532,60.516358 Z"
           id="path57694"
           sodipodi:nodetypes="cccc" /><path
           style="opacity:0.461538;fill:none;fill-opacity:1;stroke:#ffffff;stroke-width:0.525;stroke-linecap:round;stroke-linejoin:round;stroke-dasharray:none;stroke-opacity:1"
           d="M 32.745023,2.1832013 68.622494,37.415395 45.521532,60.516358 Z"
           id="path57696"
           sodipodi:nodetypes="cccc" /><path
           style="fill:#353535;fill-opacity:1;stroke:none;stroke-width:0.15;stroke-linecap:round"
           d="M 32.745023,2.1832013 68.622494,37.415395 45.521532,60.516358 Z"
           id="path57698"
           sodipodi:nodetypes="cccc" /></g><ellipse
         style="fill:#ffffff;fill-opacity:0.0884615;stroke-width:0.0453862;stroke-linecap:round;stroke-linejoin:round"
         id="path3148"
         cx="50.029785"
         cy="-17.280638"
         rx="11.416632"
         ry="7.0558667"
         transform="rotate(59.207224)" /><g
         id="g57730"
         transform="matrix(1.010629,0,0,1.010629,-42.028476,98.391125)"><path
           style="fill:#28a106;fill-opacity:1;stroke:#28a106;stroke-width:0.976;stroke-linejoin:round;stroke-dasharray:none;stroke-opacity:1;marker-end:url(#Arrow1)"
           d="m 81.61743,-63.585015 8.732187,-7.708787"
           id="path57710"
           sodipodi:nodetypes="cc" /><path
           style="fill:#343434;stroke:#095ddf;stroke-width:0.976;stroke-linejoin:round;stroke-dasharray:none;stroke-opacity:1;marker-end:url(#Arrow1)"
           d="m 81.61743,-63.585015 15.09968,-7.966264"
           id="path57712"
           sodipodi:nodetypes="cc" /><path
           style="fill:#da0e0e;fill-opacity:1;stroke:#da0e0e;stroke-width:0.976;stroke-linejoin:round;stroke-dasharray:none;stroke-opacity:1;marker-end:url(#Arrow1)"
           d="m 81.61743,-63.585015 7.756652,12.799922"
           id="path57714"
           sodipodi:nodetypes="cc" /><g
           aria-label="Y"
           id="text57718"
           style="font-style:italic;font-size:7.61121px;line-height:1.25;font-family:'Charter ITC TT';-inkscape-font-specification:'Charter ITC TT Italic';letter-spacing:0px;word-spacing:0px;fill:#28a106;stroke-width:0.396876"><path
             d="m 91.133437,-78.711405 -0.50234,0.03806 -0.12178,0.114168 -1.933247,2.526922 -0.334893,1.6973 0.09895,0.114168 0.494728,0.03806 v 0.289226 h -1.849524 v -0.289226 l 0.479506,-0.03806 0.12178,-0.114168 0.319671,-1.628799 -0.852456,-2.595423 -0.07611,-0.114168 -0.494729,-0.03806 v -0.289226 h 1.849524 v 0.289226 l -0.494728,0.03806 -0.12178,0.114168 0.685009,2.153973 1.590743,-2.153973 -0.07611,-0.114168 -0.487117,-0.03806 v -0.289226 h 1.704911 z"
             id="path4717" /></g><g
           aria-label="Z"
           id="text57722"
           style="font-style:italic;font-size:7.61121px;line-height:1.25;font-family:'Charter ITC TT';-inkscape-font-specification:'Charter ITC TT Italic';letter-spacing:0px;word-spacing:0px;fill:#095ddf;stroke-width:0.396876"><path
             d="m 102.23216,-69.093717 -0.0685,0.319671 -3.600103,4.414502 h 2.176803 l 0.10656,-0.09895 0.30445,-0.905734 h 0.37295 l -0.25878,1.377629 h -3.577273 l 0.05328,-0.31206 3.592493,-4.429724 h -1.887582 l -0.167447,0.09895 -0.258781,0.715454 h -0.395783 l 0.228337,-1.179738 z"
             id="path4714" /></g><g
           aria-label="X"
           id="text57726"
           style="font-style:italic;font-size:7.61121px;line-height:1.25;font-family:'Charter ITC TT';-inkscape-font-specification:'Charter ITC TT Italic';letter-spacing:0px;word-spacing:0px;fill:#da0e0e;stroke-width:0.396876"><path
             d="m 95.855321,-50.511949 -0.532785,0.03806 -1.781023,2.039804 1.080792,2.412753 0.487117,0.03806 v 0.289226 H 93.26751 v -0.289226 l 0.494728,-0.03806 0.12178,-0.114168 -0.745899,-1.750578 -1.567909,1.750578 0.07611,0.114168 0.494729,0.03806 v 0.289226 h -1.727745 v -0.289226 l 0.494729,-0.03806 0.12939,-0.114168 1.895191,-2.146361 -0.913345,-2.07786 -0.07611,-0.114168 -0.487117,-0.03806 v -0.289226 h 1.849524 v 0.289226 l -0.50234,0.03806 -0.114168,0.114168 0.677397,1.57552 1.385241,-1.57552 -0.04567,-0.114168 -0.433839,-0.03806 v -0.289226 h 1.583132 z"
             id="path4711" /></g><circle
           style="fill:#e0e0e0;fill-opacity:1;stroke:none;stroke-width:0.976;stroke-linejoin:round;stroke-dasharray:none;stroke-opacity:1"
           id="circle57728"
           cx="81.617432"
           cy="-63.585026"
           r="1.190625" /></g></g><g
       id="g3744"
       transform="translate(-2.8531022,-7.5346118)"><g
         inkscape:label="Layer 1"
         id="g2708"
         transform="matrix(0.84342061,0,0,0.84342061,44.189068,6.0818616)"><path
           style="opacity:0.461538;fill:none;fill-opacity:1;stroke:#ffffff;stroke-width:0.525;stroke-linecap:round;stroke-linejoin:round;stroke-dasharray:none;stroke-opacity:1"
           d="M 32.745023,2.1832013 68.622494,37.415395 45.521532,60.516358 Z"
           id="path2704"
           sodipodi:nodetypes="cccc" /><path
           style="fill:#353535;fill-opacity:1;stroke:none;stroke-width:0.15;stroke-linecap:round"
           d="M 32.745023,2.1832013 68.622494,37.415395 45.521532,60.516358 Z"
           id="path2706"
           sodipodi:nodetypes="cccc" /></g><ellipse
         style="fill:#ffffff;fill-opacity:0.0884615;stroke-width:0.0453862;stroke-linecap:round;stroke-linejoin:round"
         id="ellipse3723"
         cx="73.32708"
         cy="-56.373402"
         rx="11.416632"
         ry="7.0558667"
         transform="rotate(59.207224)" /><g
         id="g2730"
         transform="matrix(1.010629,0,0,1.010629,3.479857,98.391125)"><path
           style="fill:#28a106;fill-opacity:1;stroke:#28a106;stroke-width:0.976;stroke-linejoin:round;stroke-dasharray:none;stroke-opacity:1;marker-end:url(#Arrow1)"
           d="m 81.61743,-63.585015 1.270868,-11.006479"
           id="path2710"
           sodipodi:nodetypes="cc" /><path
           style="fill:#343434;stroke:#095ddf;stroke-width:0.976;stroke-linejoin:round;stroke-dasharray:none;stroke-opacity:1;marker-end:url(#Arrow1)"
           d="m 81.61743,-63.585015 15.09968,-7.966264"
           id="path2712"
           sodipodi:nodetypes="cc" /><path
           style="fill:#da0e0e;fill-opacity:1;stroke:#da0e0e;stroke-width:0.976;stroke-linejoin:round;stroke-dasharray:none;stroke-opacity:1;marker-end:url(#Arrow1)"
           d="m 81.61743,-63.585015 11.562065,7.792021"
           id="path2714"
           sodipodi:nodetypes="cc" /><g
           aria-label="Y"
           id="text2718"
           style="font-style:italic;font-size:7.61121px;line-height:1.25;font-family:'Charter ITC TT';-inkscape-font-specification:'Charter ITC TT Italic';letter-spacing:0px;word-spacing:0px;fill:#28a106;stroke-width:0.396876"><path
             d="m 85.764929,-82.228708 -0.50234,0.03806 -0.121779,0.114168 -1.933247,2.526922 -0.334894,1.697299 0.09895,0.114169 0.494729,0.03806 v 0.289226 H 81.61682 v -0.289226 l 0.479506,-0.03806 0.121779,-0.114169 0.319671,-1.628798 -0.852455,-2.595423 -0.07611,-0.114168 -0.494729,-0.03806 v -0.289226 h 1.849524 v 0.289226 l -0.494729,0.03806 -0.121779,0.114168 0.685009,2.153972 1.590743,-2.153972 -0.07611,-0.114168 -0.487118,-0.03806 v -0.289226 h 1.704911 z"
             id="path4723" /></g><g
           aria-label="Z"
           id="text2722"
           style="font-style:italic;font-size:7.61121px;line-height:1.25;font-family:'Charter ITC TT';-inkscape-font-specification:'Charter ITC TT Italic';letter-spacing:0px;word-spacing:0px;fill:#095ddf;stroke-width:0.396876"><path
             d="m 102.23216,-69.093717 -0.0685,0.319671 -3.600103,4.414502 h 2.176803 l 0.10656,-0.09895 0.30445,-0.905734 h 0.37295 l -0.25878,1.377629 h -3.577273 l 0.05328,-0.31206 3.592493,-4.429724 h -1.887582 l -0.167447,0.09895 -0.258781,0.715454 h -0.395783 l 0.228337,-1.179738 z"
             id="path4720" /></g><g
           aria-label="X"
           id="text2726"
           style="font-style:italic;font-size:7.61121px;line-height:1.25;font-family:'Charter ITC TT';-inkscape-font-specification:'Charter ITC TT Italic';letter-spacing:0px;word-spacing:0px;fill:#da0e0e;stroke-width:0.396876"><path
             d="m 98.776189,-52.907293 -0.532785,0.03806 -1.781023,2.039804 1.080792,2.412754 0.487117,0.03806 v 0.289226 h -1.841912 v -0.289226 l 0.494728,-0.03806 0.12178,-0.114169 -0.745899,-1.750578 -1.567909,1.750578 0.07611,0.114169 0.494728,0.03806 v 0.289226 h -1.727744 v -0.289226 l 0.494728,-0.03806 0.129391,-0.114169 1.895191,-2.146361 -0.913345,-2.07786 -0.07611,-0.114168 -0.487117,-0.03806 v -0.289226 h 1.849524 v 0.289226 l -0.50234,0.03806 -0.114168,0.114168 0.677397,1.57552 1.38524,-1.57552 -0.04567,-0.114168 -0.433839,-0.03806 v -0.289226 h 1.583132 z"
             id="path4726" /></g><circle
           style="fill:#e0e0e0;fill-opacity:1;stroke:none;stroke-width:0.976;stroke-linejoin:round;stroke-dasharray:none;stroke-opacity:1"
           id="circle2728"
           cx="81.617432"
           cy="-63.585026"
           r="1.190625" /></g></g><g
       id="g3779"
       transform="translate(-3.4143683,-7.5346118)"><g
         inkscape:label="Layer 1"
         id="g3022"
         transform="matrix(0.84342061,0,0,0.84342061,87.219462,6.0818616)"><path
           style="opacity:0.461538;fill:none;fill-opacity:1;stroke:#ffffff;stroke-width:0.525;stroke-linecap:round;stroke-linejoin:round;stroke-dasharray:none;stroke-opacity:1"
           d="M 32.745023,2.1832013 68.622494,37.415395 45.521532,60.516358 Z"
           id="path3018"
           sodipodi:nodetypes="cccc" /><path
           style="fill:#353535;fill-opacity:1;stroke:none;stroke-width:0.15;stroke-linecap:round"
           d="M 32.745023,2.1832013 68.622494,37.415395 45.521532,60.516358 Z"
           id="path3020"
           sodipodi:nodetypes="cccc" /></g><ellipse
         style="fill:#ffffff;fill-opacity:0.0884615;stroke-width:0.0453862;stroke-linecap:round;stroke-linejoin:round"
         id="ellipse3725"
         cx="95.355827"
         cy="-93.337563"
         rx="11.416632"
         ry="7.0558667"
         transform="rotate(59.207224)" /><g
         id="g3044"
         transform="matrix(1.010629,0,0,1.010629,46.510251,98.391125)"><path
           style="fill:#28a106;fill-opacity:1;stroke:#28a106;stroke-width:0.976;stroke-linejoin:round;stroke-dasharray:none;stroke-opacity:1;marker-end:url(#Arrow1)"
           d="M 81.61743,-63.585015 73.860778,-76.384937"
           id="path3024"
           sodipodi:nodetypes="cc" /><path
           style="fill:#da0e0e;fill-opacity:1;stroke:#da0e0e;stroke-width:0.976;stroke-linejoin:round;stroke-dasharray:none;stroke-opacity:1;marker-end:url(#Arrow1)"
           d="m 81.61743,-63.585015 8.732189,-7.708798"
           id="path3028"
           sodipodi:nodetypes="cc" /><path
           style="fill:#343434;stroke:#095ddf;stroke-width:0.976;stroke-linejoin:round;stroke-dasharray:none;stroke-opacity:1;marker-end:url(#Arrow1)"
           d="m 81.61743,-63.585015 15.09968,-7.966264"
           id="path3026"
           sodipodi:nodetypes="cc" /><g
           aria-label="Y"
           id="text3032"
           style="font-style:italic;font-size:7.61121px;line-height:1.25;font-family:'Charter ITC TT';-inkscape-font-specification:'Charter ITC TT Italic';letter-spacing:0px;word-spacing:0px;fill:#28a106;stroke-width:0.396876"><path
             d="m 74.657667,-82.413828 -0.502339,0.03806 -0.12178,0.114168 -1.933247,2.526922 -0.334893,1.6973 0.09895,0.114168 0.494729,0.03806 v 0.289226 h -1.849524 v -0.289226 l 0.479506,-0.03806 0.12178,-0.114168 0.319671,-1.628799 -0.852456,-2.595423 -0.07611,-0.114168 -0.494729,-0.03806 v -0.289226 h 1.849524 v 0.289226 l -0.494728,0.03806 -0.12178,0.114168 0.685009,2.153973 1.590743,-2.153973 -0.07611,-0.114168 -0.487118,-0.03806 v -0.289226 h 1.704911 z"
             id="path4735" /></g><g
           aria-label="Z"
           id="text3036"
           style="font-style:italic;font-size:7.61121px;line-height:1.25;font-family:'Charter ITC TT';-inkscape-font-specification:'Charter ITC TT Italic';letter-spacing:0px;word-spacing:0px;fill:#095ddf;stroke-width:0.396876"><path
             d="m 102.23216,-69.093717 -0.0685,0.319671 -3.600103,4.414502 h 2.176803 l 0.10656,-0.09895 0.30445,-0.905734 h 0.37295 l -0.25878,1.377629 h -3.577273 l 0.05328,-0.31206 3.592493,-4.429724 h -1.887582 l -0.167447,0.09895 -0.258781,0.715454 h -0.395783 l 0.228337,-1.179738 z"
             id="path4729" /></g><g
           aria-label="X"
           id="text3040"
           style="font-style:italic;font-size:7.61121px;line-height:1.25;font-family:'Charter ITC TT';-inkscape-font-specification:'Charter ITC TT Italic';letter-spacing:0px;word-spacing:0px;fill:#da0e0e;stroke-width:0.396876"><path
             d="m 92.296956,-78.453997 -0.532785,0.03806 -1.781023,2.039805 1.080792,2.412753 0.487118,0.03806 v 0.289226 h -1.841913 v -0.289226 l 0.494728,-0.03806 0.12178,-0.114168 -0.745899,-1.750578 -1.567909,1.750578 0.07611,0.114168 0.494729,0.03806 v 0.289226 h -1.727745 v -0.289226 l 0.494729,-0.03806 0.12939,-0.114168 1.895191,-2.146361 -0.913345,-2.07786 -0.07611,-0.114169 -0.487117,-0.03806 v -0.289226 h 1.849524 v 0.289226 l -0.50234,0.03806 -0.114168,0.114169 0.677397,1.57552 1.385241,-1.57552 -0.04567,-0.114169 -0.433839,-0.03806 v -0.289226 h 1.583132 z"
             id="path4732" /></g><circle
           style="fill:#e0e0e0;fill-opacity:1;stroke:none;stroke-width:0.976;stroke-linejoin:round;stroke-dasharray:none;stroke-opacity:1"
           id="circle3042"
           cx="81.617432"
           cy="-63.585026"
           r="1.190625" /></g></g><g
       id="g3796"
       transform="translate(-4.9578498,-7.5346118)"><g
         inkscape:label="Layer 1"
         id="g3072"
         transform="matrix(0.84342061,0,0,0.84342061,131.22029,6.0818616)"><path
           style="opacity:0.461538;fill:none;fill-opacity:1;stroke:#ffffff;stroke-width:0.525;stroke-linecap:round;stroke-linejoin:round;stroke-dasharray:none;stroke-opacity:1"
           d="M 32.745023,2.1832013 68.622494,37.415395 45.521532,60.516358 Z"
           id="path3068"
           sodipodi:nodetypes="cccc" /><path
           style="fill:#353535;fill-opacity:1;stroke:none;stroke-width:0.15;stroke-linecap:round"
           d="M 32.745023,2.1832013 68.622494,37.415395 45.521532,60.516358 Z"
           id="path3070"
           sodipodi:nodetypes="cccc" /></g><ellipse
         style="fill:#ffffff;fill-opacity:0.0884615;stroke-width:0.0453862;stroke-linecap:round;stroke-linejoin:round"
         id="ellipse3727"
         cx="117.88137"
         cy="-131.13535"
         rx="11.416632"
         ry="7.0558667"
         transform="rotate(59.207224)" /><g
         id="g3094"
         transform="matrix(1.010629,0,0,1.010629,90.511078,98.391125)"><path
           style="fill:#28a106;fill-opacity:1;stroke:#28a106;stroke-width:0.976;stroke-linejoin:round;stroke-dasharray:none;stroke-opacity:1;marker-end:url(#Arrow1)"
           d="m 81.61743,-63.585015 3.928528,14.428708"
           id="path3074"
           sodipodi:nodetypes="cc" /><path
           style="fill:#da0e0e;fill-opacity:1;stroke:#da0e0e;stroke-width:0.976;stroke-linejoin:round;stroke-dasharray:none;stroke-opacity:1;marker-end:url(#Arrow1)"
           d="M 81.61743,-63.585015 70.373364,-63.813324"
           id="path3076"
           sodipodi:nodetypes="cc" /><path
           style="fill:#343434;stroke:#095ddf;stroke-width:0.976;stroke-linejoin:round;stroke-dasharray:none;stroke-opacity:1;marker-end:url(#Arrow1)"
           d="m 81.61743,-63.585015 15.09968,-7.966264"
           id="path3078"
           sodipodi:nodetypes="cc" /><g
           aria-label="Y"
           id="text3082"
           style="font-style:italic;font-size:7.61121px;line-height:1.25;font-family:'Charter ITC TT';-inkscape-font-specification:'Charter ITC TT Italic';letter-spacing:0px;word-spacing:0px;fill:#28a106;stroke-width:0.396876"><path
             d="m 91.636366,-48.694403 -0.50234,0.03806 -0.121779,0.114169 -1.933247,2.526921 -0.334894,1.6973 0.09895,0.114168 0.494729,0.03806 v 0.289226 h -1.849524 v -0.289226 l 0.479506,-0.03806 0.121779,-0.114168 0.319671,-1.628799 -0.852455,-2.595422 -0.07611,-0.114169 -0.494729,-0.03806 v -0.289226 h 1.849524 v 0.289226 l -0.494729,0.03806 -0.121779,0.114169 0.685009,2.153972 1.590743,-2.153972 -0.07611,-0.114169 -0.487118,-0.03806 v -0.289226 h 1.704911 z"
             id="path4741" /></g><g
           aria-label="Z"
           id="text3086"
           style="font-style:italic;font-size:7.61121px;line-height:1.25;font-family:'Charter ITC TT';-inkscape-font-specification:'Charter ITC TT Italic';letter-spacing:0px;word-spacing:0px;fill:#095ddf;stroke-width:0.396876"><path
             d="m 102.23216,-69.093717 -0.0685,0.319671 -3.600103,4.414502 h 2.176803 l 0.10656,-0.09895 0.30445,-0.905734 h 0.37295 l -0.25878,1.377629 h -3.577273 l 0.05328,-0.31206 3.592493,-4.429724 h -1.887582 l -0.167447,0.09895 -0.258781,0.715454 h -0.395783 l 0.228337,-1.179738 z"
             id="path4744" /></g><g
           aria-label="X"
           id="text3090"
           style="font-style:italic;font-size:7.61121px;line-height:1.25;font-family:'Charter ITC TT';-inkscape-font-specification:'Charter ITC TT Italic';letter-spacing:0px;word-spacing:0px;fill:#da0e0e;stroke-width:0.396876"><path
             d="m 70.174802,-70.010927 -0.532785,0.03806 -1.781023,2.039804 1.080792,2.412754 0.487117,0.03806 v 0.289226 H 67.58699 v -0.289226 l 0.494729,-0.03806 0.121779,-0.114168 -0.745898,-1.750579 -1.567909,1.750579 0.07611,0.114168 0.494728,0.03806 v 0.289226 h -1.727744 v -0.289226 l 0.494728,-0.03806 0.129391,-0.114168 1.895191,-2.146362 -0.913345,-2.07786 -0.07611,-0.114168 -0.487117,-0.03806 v -0.289226 h 1.849524 v 0.289226 l -0.50234,0.03806 -0.114168,0.114168 0.677397,1.57552 1.38524,-1.57552 -0.04567,-0.114168 -0.433839,-0.03806 v -0.289226 h 1.583132 z"
             id="path4738" /></g><circle
           style="fill:#e0e0e0;fill-opacity:1;stroke:none;stroke-width:0.976;stroke-linejoin:round;stroke-dasharray:none;stroke-opacity:1"
           id="circle3092"
           cx="81.617432"
           cy="-63.585026"
           r="1.190625" /></g></g><g
       id="g4885"><text
         xml:space="preserve"
         style="font-style:italic;font-variant:normal;font-weight:normal;font-stretch:normal;font-size:7.69211px;line-height:1.25;font-family:'Charter ITC TT';-inkscape-font-specification:'Charter ITC TT Italic';letter-spacing:0px;word-spacing:0px;fill:#28a106;fill-opacity:1;stroke:none;stroke-width:0.401094"
         x="19.624388"
         y="-85.229721"
         id="text57718-2"><tspan
           sodipodi:role="line"
           id="tspan57716"
           style="font-style:italic;font-variant:normal;font-weight:normal;font-stretch:normal;font-family:'Charter ITC TT';-inkscape-font-specification:'Charter ITC TT Italic';fill:#28a106;fill-opacity:1;stroke-width:0.401094"
           x="19.624388"
           y="-85.229721">Y</tspan></text><text
         xml:space="preserve"
         style="font-style:italic;font-variant:normal;font-weight:normal;font-stretch:normal;font-size:7.69211px;line-height:1.25;font-family:'Charter ITC TT';-inkscape-font-specification:'Charter ITC TT Italic';letter-spacing:0px;word-spacing:0px;fill:#095ddf;fill-opacity:1;stroke:none;stroke-width:0.401094"
         x="31.379526"
         y="-75.217506"
         id="text57722-7"><tspan
           sodipodi:role="line"
           id="tspan57720"
           style="font-style:italic;font-variant:normal;font-weight:normal;font-stretch:normal;font-family:'Charter ITC TT';-inkscape-font-specification:'Charter ITC TT Italic';fill:#095ddf;fill-opacity:1;stroke-width:0.401094"
           x="31.379526"
           y="-75.217506">Z</tspan></text><text
         xml:space="preserve"
         style="font-style:italic;font-variant:normal;font-weight:normal;font-stretch:normal;font-size:7.69211px;line-height:1.25;font-family:'Charter ITC TT';-inkscape-font-specification:'Charter ITC TT Italic';letter-spacing:0px;word-spacing:0px;fill:#da0e0e;fill-opacity:1;stroke:none;stroke-width:0.401094"
         x="24.473383"
         y="-56.73053"
         id="text57726-0"><tspan
           sodipodi:role="line"
           id="tspan57724"
           style="font-style:italic;font-variant:normal;font-weight:normal;font-stretch:normal;font-family:'Charter ITC TT';-inkscape-font-specification:'Charter ITC TT Italic';fill:#da0e0e;fill-opacity:1;stroke-width:0.401094"
           x="24.473383"
           y="-56.73053">X</tspan></text><text
         xml:space="preserve"
         style="font-style:italic;font-variant:normal;font-weight:normal;font-stretch:normal;font-size:7.69211px;line-height:1.25;font-family:'Charter ITC TT';-inkscape-font-specification:'Charter ITC TT Italic';letter-spacing:0px;word-spacing:0px;fill:#28a106;fill-opacity:1;stroke:none;stroke-width:0.401094"
         x="56.854046"
         y="-88.784409"
         id="text2718-5"><tspan
           sodipodi:role="line"
           id="tspan2716"
           style="font-style:italic;font-variant:normal;font-weight:normal;font-stretch:normal;font-family:'Charter ITC TT';-inkscape-font-specification:'Charter ITC TT Italic';fill:#28a106;fill-opacity:1;stroke-width:0.401094"
           x="56.854046"
           y="-88.784409">Y</tspan></text><text
         xml:space="preserve"
         style="font-style:italic;font-variant:normal;font-weight:normal;font-stretch:normal;font-size:7.69211px;line-height:1.25;font-family:'Charter ITC TT';-inkscape-font-specification:'Charter ITC TT Italic';letter-spacing:0px;word-spacing:0px;fill:#095ddf;fill-opacity:1;stroke:none;stroke-width:0.401094"
         x="74.034752"
         y="-75.217506"
         id="text2722-2"><tspan
           sodipodi:role="line"
           id="tspan2720"
           style="font-style:italic;font-variant:normal;font-weight:normal;font-stretch:normal;font-family:'Charter ITC TT';-inkscape-font-specification:'Charter ITC TT Italic';fill:#095ddf;fill-opacity:1;stroke-width:0.401094"
           x="74.034752"
           y="-75.217506">Z</tspan></text><text
         xml:space="preserve"
         style="font-style:italic;font-variant:normal;font-weight:normal;font-stretch:normal;font-size:7.69211px;line-height:1.25;font-family:'Charter ITC TT';-inkscape-font-specification:'Charter ITC TT Italic';letter-spacing:0px;word-spacing:0px;fill:#da0e0e;fill-opacity:1;stroke:none;stroke-width:0.401094"
         x="70.080521"
         y="-59.151337"
         id="text2726-2"><tspan
           sodipodi:role="line"
           id="tspan2724"
           style="font-style:italic;font-variant:normal;font-weight:normal;font-stretch:normal;font-family:'Charter ITC TT';-inkscape-font-specification:'Charter ITC TT Italic';fill:#da0e0e;fill-opacity:1;stroke-width:0.401094"
           x="70.080521"
           y="-59.151337">X</tspan></text><text
         xml:space="preserve"
         style="font-style:italic;font-variant:normal;font-weight:normal;font-stretch:normal;font-size:7.69211px;line-height:1.25;font-family:'Charter ITC TT';-inkscape-font-specification:'Charter ITC TT Italic';letter-spacing:0px;word-spacing:0px;fill:#28a106;fill-opacity:1;stroke:none;stroke-width:0.401094"
         x="88.097855"
         y="-88.971497"
         id="text3032-2"><tspan
           sodipodi:role="line"
           id="tspan3030"
           style="font-style:italic;font-variant:normal;font-weight:normal;font-stretch:normal;font-family:'Charter ITC TT';-inkscape-font-specification:'Charter ITC TT Italic';fill:#28a106;fill-opacity:1;stroke-width:0.401094"
           x="88.097855"
           y="-88.971497">Y</tspan></text><text
         xml:space="preserve"
         style="font-style:italic;font-variant:normal;font-weight:normal;font-stretch:normal;font-size:7.69211px;line-height:1.25;font-family:'Charter ITC TT';-inkscape-font-specification:'Charter ITC TT Italic';letter-spacing:0px;word-spacing:0px;fill:#095ddf;fill-opacity:1;stroke:none;stroke-width:0.401094"
         x="116.50388"
         y="-75.217506"
         id="text3036-0"><tspan
           sodipodi:role="line"
           id="tspan3034"
           style="font-style:italic;font-variant:normal;font-weight:normal;font-stretch:normal;font-family:'Charter ITC TT';-inkscape-font-specification:'Charter ITC TT Italic';fill:#095ddf;fill-opacity:1;stroke-width:0.401094"
           x="116.50388"
           y="-75.217506">Z</tspan></text><text
         xml:space="preserve"
         style="font-style:italic;font-variant:normal;font-weight:normal;font-stretch:normal;font-size:7.69211px;line-height:1.25;font-family:'Charter ITC TT';-inkscape-font-specification:'Charter ITC TT Italic';letter-spacing:0px;word-spacing:0px;fill:#da0e0e;fill-opacity:1;stroke:none;stroke-width:0.401094"
         x="106.00156"
         y="-84.969574"
         id="text3040-3"><tspan
           sodipodi:role="line"
           id="tspan3038"
           style="font-style:italic;font-variant:normal;font-weight:normal;font-stretch:normal;font-family:'Charter ITC TT';-inkscape-font-specification:'Charter ITC TT Italic';fill:#da0e0e;fill-opacity:1;stroke-width:0.401094"
           x="106.00156"
           y="-84.969574">X</tspan></text><text
         xml:space="preserve"
         style="font-style:italic;font-variant:normal;font-weight:normal;font-stretch:normal;font-size:7.69211px;line-height:1.25;font-family:'Charter ITC TT';-inkscape-font-specification:'Charter ITC TT Italic';letter-spacing:0px;word-spacing:0px;fill:#28a106;fill-opacity:1;stroke:none;stroke-width:0.401094"
         x="147.71437"
         y="-54.893665"
         id="text3082-3"><tspan
           sodipodi:role="line"
           id="tspan3080"
           style="font-style:italic;font-variant:normal;font-weight:normal;font-stretch:normal;font-family:'Charter ITC TT';-inkscape-font-specification:'Charter ITC TT Italic';fill:#28a106;fill-opacity:1;stroke-width:0.401094"
           x="147.71437"
           y="-54.893665">Y</tspan></text><text
         xml:space="preserve"
         style="font-style:italic;font-variant:normal;font-weight:normal;font-stretch:normal;font-size:7.69211px;line-height:1.25;font-family:'Charter ITC TT';-inkscape-font-specification:'Charter ITC TT Italic';letter-spacing:0px;word-spacing:0px;fill:#095ddf;fill-opacity:1;stroke:none;stroke-width:0.401094"
         x="158.96123"
         y="-75.217506"
         id="text3086-7"><tspan
           sodipodi:role="line"
           id="tspan3084"
           style="font-style:italic;font-variant:normal;font-weight:normal;font-stretch:normal;font-family:'Charter ITC TT';-inkscape-font-specification:'Charter ITC TT Italic';fill:#095ddf;fill-opacity:1;stroke-width:0.401094"
           x="158.96123"
           y="-75.217506">Z</tspan></text><text
         xml:space="preserve"
         style="font-style:italic;font-variant:normal;font-weight:normal;font-stretch:normal;font-size:7.69211px;line-height:1.25;font-family:'Charter ITC TT';-inkscape-font-specification:'Charter ITC TT Italic';letter-spacing:0px;word-spacing:0px;fill:#da0e0e;fill-opacity:1;stroke:none;stroke-width:0.401094"
         x="126.10161"
         y="-76.43676"
         id="text3090-1"><tspan
           sodipodi:role="line"
           id="tspan3088"
           style="font-style:italic;font-variant:normal;font-weight:normal;font-stretch:normal;font-family:'Charter ITC TT';-inkscape-font-specification:'Charter ITC TT Italic';fill:#da0e0e;fill-opacity:1;stroke-width:0.401094"
           x="126.10161"
           y="-76.43676">X</tspan></text></g></g></svg>
