<?xml version="1.0" encoding="UTF-8" standalone="no"?>
<!-- Created with Inkscape (http://www.inkscape.org/) -->

<svg
   width="190mm"
   height="45mm"
   viewBox="0 0 142.50004 33.750009"
   version="1.1"
   id="svg45051"
   inkscape:version="1.2 (dc2aedaf03, 2022-05-15)"
   sodipodi:docname="normal-mapping-equiv-light.svg"
   xml:space="preserve"
   xmlns:inkscape="http://www.inkscape.org/namespaces/inkscape"
   xmlns:sodipodi="http://sodipodi.sourceforge.net/DTD/sodipodi-0.dtd"
   xmlns="http://www.w3.org/2000/svg"
   xmlns:svg="http://www.w3.org/2000/svg"><sodipodi:namedview
     id="namedview45053"
     pagecolor="#ffffff"
     bordercolor="#666666"
     borderopacity="1.0"
     inkscape:showpageshadow="2"
     inkscape:pageopacity="0"
     inkscape:pagecheckerboard="0"
     inkscape:deskcolor="#d1d1d1"
     inkscape:document-units="mm"
     showgrid="false"
     inkscape:zoom="1.087256"
     inkscape:cx="263.5074"
     inkscape:cy="23.913411"
     inkscape:window-width="1920"
     inkscape:window-height="1017"
     inkscape:window-x="-8"
     inkscape:window-y="-8"
     inkscape:window-maximized="1"
     inkscape:current-layer="layer1" /><defs
     id="defs45048"><clipPath
       clipPathUnits="userSpaceOnUse"
       id="clipPath36213"><path
         style="fill:#c8c8c8;fill-opacity:1;stroke:none;stroke-width:0.266075;stroke-linejoin:round;stroke-dasharray:none;stroke-opacity:1"
         d="m 1.6927527,1.5520898 v 4.7923118 l 5.3217695,2.779e-4 V 1.3011809 Z"
         id="path36215" /></clipPath><g
       id="id-33d38a86-213f-4216-83fe-e5d3aaf5a9a0-7">
      <g
   id="id-63081c7e-d8f8-4499-af6a-5584df8cef2c-8" />
      <g
   id="id-89c9330e-e3e8-40ee-a9c4-adcd40504994-4">
        <path
   d="m 2.578125,-6.8125 c 0,0 0,-0.109375 -0.140625,-0.109375 -0.21875,0 -0.953125,0.078125 -1.21875,0.109375 -0.078125,0 -0.1875,0.015625 -0.1875,0.203125 0,0.109375 0.109375,0.109375 0.25,0.109375 0.484375,0 0.5,0.09375 0.5,0.171875 L 1.75,-6.125 0.484375,-1.140625 C 0.453125,-1.03125 0.4375,-0.96875 0.4375,-0.8125 c 0,0.578125 0.4375,0.921875 0.90625,0.921875 0.328125,0 0.578125,-0.203125 0.75,-0.5625 0.171875,-0.375 0.296875,-0.953125 0.296875,-0.96875 0,-0.109375 -0.09375,-0.109375 -0.125,-0.109375 -0.09375,0 -0.109375,0.046875 -0.125,0.1875 C 1.96875,-0.703125 1.78125,-0.109375 1.375,-0.109375 c -0.296875,0 -0.296875,-0.3125 -0.296875,-0.453125 0,-0.25 0.015625,-0.296875 0.0625,-0.484375 z m 0,0"
   id="id-afb6c5ea-f609-4038-81a3-b442c04c5ccb-0" />
      </g>
    </g><g
       id="id-55b47f2a-5c53-4407-8cc8-4ebd0b246e83-4">
      <g
   id="id-22311807-f4f7-4eb3-8e47-32da44d9ab5c-0" />
      <g
   id="id-e0a4b2e1-1d49-41ac-8a2b-695fdf429c38-1">
        <path
   d="m 4.75,-2.359375 c 0,-1.5625 -0.921875,-2.046875 -1.65625,-2.046875 -1.375,0 -2.6875,1.421875 -2.6875,2.828125 0,0.9375 0.59375,1.6875 1.625,1.6875 0.625,0 1.34375,-0.234375 2.09375,-0.84375 0.125,0.53125 0.453125,0.84375 0.90625,0.84375 0.53125,0 0.84375,-0.546875 0.84375,-0.703125 0,-0.078125 -0.0625,-0.109375 -0.125,-0.109375 -0.0625,0 -0.09375,0.03125 -0.125,0.109375 -0.1875,0.484375 -0.546875,0.484375 -0.5625,0.484375 -0.3125,0 -0.3125,-0.78125 -0.3125,-1.015625 0,-0.203125 0,-0.234375 0.109375,-0.34375 C 5.796875,-2.65625 6,-3.8125 6,-3.8125 6,-3.84375 5.984375,-3.921875 5.875,-3.921875 c -0.09375,0 -0.09375,0.03125 -0.140625,0.21875 -0.1875,0.625 -0.515625,1.375 -0.984375,1.96875 z m -0.65625,1.375 c -0.890625,0.765625 -1.65625,0.875 -2.046875,0.875 -0.59375,0 -0.90625,-0.453125 -0.90625,-1.09375 0,-0.484375 0.265625,-1.5625 0.578125,-2.0625 C 2.1875,-4 2.734375,-4.1875 3.078125,-4.1875 c 0.984375,0 0.984375,1.3125 0.984375,2.078125 0,0.375 0,0.953125 0.03125,1.125 z m 0,0"
   id="id-91dcec1b-b5af-4567-bde2-8eff75e689b9-5" />
      </g>
    </g></defs><g
     inkscape:label="Layer 1"
     inkscape:groupmode="layer"
     id="layer1"><g
       id="g49404"
       style="stroke:#f48103;stroke-opacity:1"><path
         style="fill:none;stroke:#f48103;stroke-width:0.33225;stroke-linejoin:round;stroke-dasharray:none;stroke-opacity:1"
         d="M 96.537046,6.849107 99.61257,5.004912"
         id="path44514"
         sodipodi:nodetypes="cc" /><path
         style="fill:none;stroke:#f48103;stroke-width:0.33225;stroke-linejoin:round;stroke-dasharray:none;stroke-opacity:1"
         d="M 92.399126,3.890718 93.352049,0.56020195"
         id="path44516"
         sodipodi:nodetypes="cc" /><path
         style="fill:none;stroke:#f48103;stroke-width:0.33225;stroke-linejoin:round;stroke-dasharray:none;stroke-opacity:1"
         d="m 101.00574,9.633172 0.49545,-3.235719"
         id="path44518"
         sodipodi:nodetypes="cc" /><path
         style="fill:none;stroke:#f48103;stroke-width:0.33225;stroke-linejoin:round;stroke-dasharray:none;stroke-opacity:1"
         d="m 106.37515,11.580193 1.40963,-3.322398"
         id="path44520"
         sodipodi:nodetypes="cc" /><path
         style="fill:none;stroke:#f48103;stroke-width:0.33225;stroke-linejoin:round;stroke-dasharray:none;stroke-opacity:1"
         d="m 109.95609,14.579151 3.09812,-1.767756"
         id="path44522"
         sodipodi:nodetypes="cc" /><path
         style="fill:none;stroke:#f48103;stroke-width:0.33225;stroke-linejoin:round;stroke-dasharray:none;stroke-opacity:1"
         d="m 114.71097,17.580284 0.8695,-3.245018"
         id="path44524"
         sodipodi:nodetypes="cc" /><path
         style="fill:none;stroke:#f48103;stroke-width:0.33225;stroke-linejoin:round;stroke-dasharray:none;stroke-opacity:1"
         d="m 120.54935,19.969747 1.66831,-2.889601"
         id="path44526"
         sodipodi:nodetypes="cc" /><path
         style="fill:none;stroke:#f48103;stroke-width:0.33225;stroke-linejoin:round;stroke-dasharray:none;stroke-opacity:1"
         d="m 124.92964,23.557953 2.33419,-2.043812"
         id="path44528"
         sodipodi:nodetypes="cc" /><path
         style="fill:none;stroke:#f48103;stroke-width:0.33225;stroke-linejoin:round;stroke-dasharray:none;stroke-opacity:1"
         d="m 129.27377,26.590681 0.85678,-2.718256"
         id="path44530"
         sodipodi:nodetypes="cc" /><path
         style="fill:none;stroke:#f48103;stroke-width:0.33225;stroke-linejoin:round;stroke-dasharray:none;stroke-opacity:1"
         d="m 133.97899,25.820424 -1.83556,-2.676335"
         id="path44532"
         sodipodi:nodetypes="cc" /><path
         style="fill:none;stroke:#f48103;stroke-width:0.33225;stroke-linejoin:round;stroke-dasharray:none;stroke-opacity:1"
         d="M 138.8402,24.379144 138.937,21.2709"
         id="path44534"
         sodipodi:nodetypes="cc" /><path
         style="fill:none;stroke:#f48103;stroke-width:0.33225;stroke-linejoin:round;stroke-dasharray:none;stroke-opacity:1"
         d="M 87.758229,5.403765 85.237278,2.882815"
         id="path44536"
         sodipodi:nodetypes="cc" /><path
         style="fill:none;stroke:#f48103;stroke-width:0.33225;stroke-linejoin:round;stroke-dasharray:none;stroke-opacity:1"
         d="M 83.483228,8.414661 82.597436,5.108842"
         id="path44538"
         sodipodi:nodetypes="cc" /></g><path
       style="fill:none;stroke:#099fe7;stroke-width:0.33225;stroke-linejoin:round;stroke-dasharray:none;stroke-opacity:1"
       d="m 80.726101,9.29285 5.24093,-1.485268 3.733025,-4.882744 5.235235,1.869178 3.062719,4.142554 6.1116,1.606139 4.59432,2.118118 2.44527,3.923726 7.06769,2.093205 4.67247,2.711152 4.40923,4.563249 4.34456,1.62231 4.4398,-3.222215 5.47534,0.118394"
       id="path44458"
       sodipodi:nodetypes="cccccccccccccc" /><path
       style="fill:none;stroke:#141414;stroke-width:0.48225;stroke-linejoin:round;stroke-dasharray:none;stroke-opacity:1"
       d="m 81.182382,10.022899 8.517674,-7.098061 41.943094,24.649631 9.55012,-3.742614"
       id="path44456" /><g
       aria-label="micro-surface
(virtual)"
       transform="scale(1.0000531,0.9999469)"
       id="text44542"
       style="font-size:4.52664px;line-height:1.25;font-family:'Lucida Console';-inkscape-font-specification:'Lucida Console';letter-spacing:0px;word-spacing:0px;fill:#099fe7;stroke-width:0.255208;fill-opacity:1"><path
         d="m 95.371067,24.9632 q 0,0.02873 -0.0088,0.08841 -0.0066,0.05747 -0.01989,0.123775 -0.01105,0.06631 -0.02431,0.132616 -0.01105,0.0641 -0.01989,0.108304 l -0.267443,1.239963 h -0.362484 l 0.276284,-1.326164 q 0.0088,-0.03758 0.01768,-0.08399 0.0088,-0.04642 0.01547,-0.09062 0.0088,-0.04641 0.01326,-0.08399 0.0044,-0.03978 0.0044,-0.06189 0,-0.174611 -0.07515,-0.267443 -0.07515,-0.09504 -0.234289,-0.09504 -0.08399,0 -0.174612,0.03978 -0.08841,0.03758 -0.174611,0.103883 -0.08399,0.06631 -0.163561,0.154719 -0.07736,0.08841 -0.143668,0.190084 -0.0641,0.09946 -0.110513,0.205555 -0.04642,0.103883 -0.06852,0.205556 L 93.6139,26.656269 h -0.366905 l 0.280704,-1.326164 q 0.0088,-0.03758 0.01768,-0.08399 0.0088,-0.04642 0.01547,-0.09062 0.0088,-0.04641 0.01326,-0.08399 0.0044,-0.03978 0.0044,-0.06189 0,-0.174611 -0.07736,-0.267443 -0.07736,-0.09504 -0.232079,-0.09504 -0.0862,0 -0.176821,0.03978 -0.09062,0.03758 -0.176822,0.106094 -0.0862,0.06631 -0.165771,0.156929 -0.07736,0.08841 -0.143668,0.190084 -0.0641,0.09946 -0.110513,0.205555 -0.04421,0.103883 -0.06631,0.205555 l -0.2365,1.105137 h -0.366905 l 0.349223,-1.61571 q 0.01768,-0.0862 0.03536,-0.179032 0.01768,-0.09504 0.03316,-0.181242 0.01547,-0.08841 0.02652,-0.163561 0.01105,-0.07515 0.01768,-0.123775 h 0.353644 q -0.01105,0.0862 -0.02652,0.181243 -0.01547,0.09283 -0.02652,0.172401 -0.01326,0.09283 -0.02873,0.181242 h 0.0088 q 0.07957,-0.128196 0.172401,-0.236499 0.09283,-0.108303 0.196714,-0.185663 0.103883,-0.07957 0.216607,-0.123775 0.112724,-0.04421 0.234289,-0.04421 0.141458,0 0.24313,0.042 0.101673,0.042 0.167981,0.119355 0.06852,0.07515 0.103883,0.183453 0.03536,0.108303 0.042,0.24092 0.08178,-0.123776 0.174612,-0.229869 0.09504,-0.108303 0.201135,-0.185663 0.108303,-0.07957 0.227658,-0.123775 0.121565,-0.04642 0.256391,-0.04642 0.282915,0 0.424373,0.165771 0.141457,0.16356 0.141457,0.459737 z"
         style="font-style:italic;font-family:'Segoe UI';-inkscape-font-specification:'Segoe UI Italic';text-align:center;text-anchor:middle;fill:#099fe7;fill-opacity:1"
         id="path46627" /><path
         d="m 96.52041,26.647428 q -0.05526,0.01768 -0.125986,0.02873 -0.06852,0.01105 -0.137037,0.01105 -0.223238,0 -0.333751,-0.110514 -0.110514,-0.112724 -0.110514,-0.300597 0,-0.05526 0.01105,-0.130406 0.01105,-0.07515 0.03536,-0.185663 l 0.329331,-1.567084 h 0.366905 l -0.331541,1.575925 q -0.01989,0.09283 -0.02873,0.143668 -0.0066,0.05084 -0.0066,0.0862 0,0.09062 0.04863,0.139248 0.05084,0.04641 0.159139,0.04641 0.05747,0 0.09946,-0.0066 0.0442,-0.0066 0.08178,-0.01989 z m 0.258602,-3.061229 q 0,0.09946 -0.06852,0.170191 -0.06631,0.07073 -0.16577,0.07073 -0.09725,0 -0.170192,-0.06852 -0.07073,-0.07073 -0.07073,-0.172402 0,-0.101672 0.07073,-0.16577 0.07294,-0.0641 0.170192,-0.0641 0.09725,0 0.16577,0.06631 0.06852,0.0641 0.06852,0.16356 z"
         style="font-style:italic;font-family:'Segoe UI';-inkscape-font-specification:'Segoe UI Italic';text-align:center;text-anchor:middle;fill:#099fe7;fill-opacity:1"
         id="path46629" /><path
         d="m 98.682057,24.841635 q -0.09283,-0.08178 -0.225448,-0.137037 -0.130406,-0.05747 -0.289546,-0.05747 -0.152508,0 -0.276284,0.05305 -0.121565,0.05305 -0.216607,0.141458 -0.09504,0.08841 -0.16356,0.203345 -0.06852,0.114934 -0.112724,0.238709 -0.0442,0.123776 -0.06631,0.247551 -0.01989,0.121565 -0.01989,0.227658 0,0.316069 0.139247,0.479629 0.139247,0.163561 0.380167,0.163561 0.145878,0 0.302807,-0.05968 0.15693,-0.06189 0.296177,-0.156929 l -0.07736,0.362485 q -0.143667,0.07736 -0.287335,0.119354 -0.141458,0.04421 -0.300597,0.04421 -0.207766,0 -0.362485,-0.07073 -0.152509,-0.07073 -0.254182,-0.194504 -0.101672,-0.123775 -0.152508,-0.291756 -0.05084,-0.170191 -0.05084,-0.366905 0,-0.185663 0.03757,-0.364695 0.03758,-0.181243 0.110514,-0.340383 0.07515,-0.16135 0.183452,-0.298387 0.108304,-0.137036 0.247551,-0.234288 0.141457,-0.09946 0.313859,-0.15472 0.172401,-0.05747 0.373536,-0.05747 0.09504,0 0.181242,0.01326 0.0862,0.01326 0.15693,0.03536 0.07073,0.0221 0.125985,0.04863 0.05526,0.02431 0.08841,0.04863 z"
         style="font-style:italic;font-family:'Segoe UI';-inkscape-font-specification:'Segoe UI Italic';text-align:center;text-anchor:middle;fill:#099fe7;fill-opacity:1"
         id="path46631" /><path
         d="m 100.43922,24.777537 h -0.009 q -0.0442,-0.02652 -0.11714,-0.05084 -0.0707,-0.02652 -0.14146,-0.02652 -0.12819,0 -0.245339,0.08399 -0.117145,0.08178 -0.214397,0.218818 -0.09504,0.134826 -0.16798,0.309438 -0.07073,0.174611 -0.110514,0.358064 l -0.212186,0.985782 h -0.362485 l 0.318279,-1.502986 q 0.01989,-0.09283 0.03978,-0.194504 0.01989,-0.101672 0.03536,-0.203345 0.01768,-0.101673 0.03094,-0.194504 0.01326,-0.09283 0.01989,-0.167981 h 0.358064 q -0.0066,0.06631 -0.01547,0.141458 -0.0088,0.07294 -0.01768,0.143667 -0.0088,0.06852 -0.01768,0.125986 -0.0088,0.05526 -0.01326,0.0862 h 0.0088 q 0.07073,-0.125986 0.143668,-0.227659 0.07294,-0.101672 0.152509,-0.172401 0.08178,-0.07294 0.172402,-0.112724 0.0906,-0.03978 0.19671,-0.03978 0.0619,0 0.12157,0.01326 0.0619,0.01105 0.11051,0.02431 z"
         style="font-style:italic;font-family:'Segoe UI';-inkscape-font-specification:'Segoe UI Italic';text-align:center;text-anchor:middle;fill:#099fe7;fill-opacity:1"
         id="path46633" /><path
         d="m 102.59424,25.230643 q 0,0.300597 -0.0862,0.57025 -0.084,0.269654 -0.24534,0.472999 -0.15914,0.201135 -0.38901,0.320489 -0.22766,0.117145 -0.51499,0.117145 -0.19451,0 -0.35143,-0.06189 -0.15472,-0.06189 -0.26524,-0.176822 -0.1083,-0.117144 -0.16798,-0.280704 -0.0575,-0.165771 -0.0575,-0.373537 0,-0.311648 0.0884,-0.581301 0.0906,-0.271864 0.25197,-0.470789 0.16356,-0.201135 0.389,-0.313859 0.22766,-0.114934 0.50174,-0.114934 0.19229,0 0.34701,0.06189 0.15693,0.06189 0.26744,0.179032 0.11052,0.114934 0.17019,0.280705 0.0619,0.16356 0.0619,0.371326 z m -0.37132,0.01768 q 0,-0.143668 -0.0354,-0.254182 -0.0354,-0.112723 -0.0995,-0.187873 -0.0641,-0.07736 -0.15472,-0.117144 -0.0906,-0.042 -0.20335,-0.042 -0.1945,0 -0.35143,0.09946 -0.15693,0.09946 -0.26523,0.263022 -0.10831,0.16135 -0.16798,0.369116 -0.0575,0.205555 -0.0575,0.422162 0,0.137037 0.0331,0.249761 0.0354,0.110514 0.0973,0.190084 0.0641,0.07736 0.15472,0.119354 0.0928,0.042 0.20776,0.042 0.19672,0 0.35365,-0.09725 0.15692,-0.09946 0.26523,-0.260813 0.1083,-0.16356 0.16577,-0.371326 0.0575,-0.207765 0.0575,-0.424372 z"
         style="font-style:italic;font-family:'Segoe UI';-inkscape-font-specification:'Segoe UI Italic';text-align:center;text-anchor:middle;fill:#099fe7;fill-opacity:1"
         id="path46635" /><path
         d="m 104.26521,25.537871 h -1.20902 l 0.0641,-0.285126 h 1.20902 z"
         style="font-style:italic;font-family:'Segoe UI';-inkscape-font-specification:'Segoe UI Italic';text-align:center;text-anchor:middle;fill:#099fe7;fill-opacity:1"
         id="path46637" /><path
         d="m 106.1793,24.790798 q -0.0995,-0.0641 -0.22323,-0.103883 -0.12378,-0.03978 -0.24755,-0.03978 -0.20777,0 -0.3227,0.09504 -0.11273,0.09504 -0.11273,0.251971 0,0.0641 0.0199,0.117145 0.0221,0.05305 0.0619,0.101673 0.042,0.04641 0.10388,0.09062 0.0641,0.04421 0.14588,0.09504 0.24755,0.143667 0.35586,0.296176 0.11051,0.150299 0.11051,0.340382 0,0.128196 -0.0486,0.251971 -0.0464,0.121565 -0.15029,0.216607 -0.10389,0.09283 -0.26966,0.150299 -0.16356,0.05747 -0.40006,0.05747 -0.0663,0 -0.14587,-0.0088 -0.0796,-0.0088 -0.16135,-0.02652 -0.0796,-0.01768 -0.15472,-0.042 -0.0729,-0.02652 -0.1282,-0.05968 l 0.0729,-0.344803 q 0.0442,0.03094 0.1083,0.06189 0.0663,0.03094 0.14146,0.05526 0.0774,0.02431 0.15914,0.03978 0.084,0.01547 0.16577,0.01547 0.22103,0 0.32933,-0.08841 0.11051,-0.08841 0.11051,-0.245341 0,-0.05747 -0.0177,-0.106093 -0.0155,-0.04863 -0.0575,-0.09725 -0.042,-0.04863 -0.11052,-0.09725 -0.0685,-0.05084 -0.1724,-0.112724 -0.22545,-0.137037 -0.33375,-0.285125 -0.10609,-0.150299 -0.10609,-0.338172 0,-0.137037 0.0508,-0.260812 0.0508,-0.125986 0.1503,-0.221027 0.10167,-0.09725 0.25418,-0.15472 0.15251,-0.05747 0.35586,-0.05747 0.15914,0 0.30059,0.03094 0.14367,0.03094 0.24313,0.07957 z"
         style="font-style:italic;font-family:'Segoe UI';-inkscape-font-specification:'Segoe UI Italic';text-align:center;text-anchor:middle;fill:#099fe7;fill-opacity:1"
         id="path46639" /><path
         d="m 108.42052,26.01308 q -0.0199,0.0862 -0.0376,0.179032 -0.0155,0.09283 -0.0309,0.179032 -0.0155,0.0862 -0.0265,0.16135 -0.011,0.07515 -0.0177,0.123775 h -0.35365 q 0.0111,-0.0862 0.0243,-0.179032 0.0155,-0.09504 0.0287,-0.174612 0.0155,-0.09283 0.0287,-0.181242 h -0.009 q -0.0774,0.121565 -0.1724,0.229868 -0.0928,0.106093 -0.20334,0.187874 -0.10831,0.07957 -0.23208,0.125985 -0.12157,0.04642 -0.25418,0.04642 -0.14588,0 -0.2564,-0.04642 -0.1083,-0.0442 -0.18124,-0.125985 -0.0729,-0.08178 -0.11051,-0.196715 -0.0354,-0.114934 -0.0354,-0.256391 0,-0.02873 0.009,-0.0862 0.009,-0.05747 0.0199,-0.123775 0.011,-0.06631 0.0243,-0.130407 0.0155,-0.06631 0.0243,-0.112724 l 0.26303,-1.239963 h 0.3669 l -0.2807,1.326164 q -0.009,0.03536 -0.0177,0.08178 -0.009,0.04642 -0.0177,0.09283 -0.007,0.04641 -0.011,0.0862 -0.004,0.03757 -0.004,0.05968 0,0.16577 0.0796,0.265233 0.0818,0.09725 0.24313,0.09725 0.0973,0 0.1945,-0.03978 0.0973,-0.03979 0.18788,-0.106093 0.0928,-0.06852 0.17461,-0.15693 0.0818,-0.09062 0.14809,-0.190083 0.0663,-0.101673 0.11272,-0.207766 0.0464,-0.106093 0.0685,-0.203345 l 0.2365,-1.105137 h 0.36469 z"
         style="font-style:italic;font-family:'Segoe UI';-inkscape-font-specification:'Segoe UI Italic';text-align:center;text-anchor:middle;fill:#099fe7;fill-opacity:1"
         id="path46641" /><path
         d="m 110.58438,24.777537 h -0.009 q -0.0442,-0.02652 -0.11715,-0.05084 -0.0707,-0.02652 -0.14145,-0.02652 -0.1282,0 -0.24534,0.08399 -0.11715,0.08178 -0.2144,0.218818 -0.095,0.134826 -0.16798,0.309438 -0.0707,0.174611 -0.11052,0.358064 l -0.21218,0.985782 h -0.36249 l 0.31828,-1.502986 q 0.0199,-0.09283 0.0398,-0.194504 0.0199,-0.101672 0.0354,-0.203345 0.0177,-0.101673 0.031,-0.194504 0.0133,-0.09283 0.0199,-0.167981 h 0.35806 q -0.007,0.06631 -0.0155,0.141458 -0.009,0.07294 -0.0177,0.143667 -0.009,0.06852 -0.0177,0.125986 -0.009,0.05526 -0.0133,0.0862 h 0.009 q 0.0707,-0.125986 0.14366,-0.227659 0.0729,-0.101672 0.15251,-0.172401 0.0818,-0.07294 0.1724,-0.112724 0.0906,-0.03978 0.19672,-0.03978 0.0619,0 0.12156,0.01326 0.0619,0.01105 0.11052,0.02431 z"
         style="font-style:italic;font-family:'Segoe UI';-inkscape-font-specification:'Segoe UI Italic';text-align:center;text-anchor:middle;fill:#099fe7;fill-opacity:1"
         id="path46643" /><path
         d="m 112.40786,23.619353 q -0.0221,-0.01105 -0.053,-0.01989 -0.0309,-0.01105 -0.0663,-0.01989 -0.0354,-0.0088 -0.0751,-0.01326 -0.0376,-0.0066 -0.0729,-0.0066 -0.18124,0 -0.2807,0.119355 -0.0973,0.117144 -0.14809,0.351433 l -0.0818,0.362485 h 0.53489 l -0.0729,0.307228 h -0.53489 l -0.57909,2.707585 h -0.36691 l 0.58352,-2.707585 h -0.38901 l 0.0685,-0.307228 h 0.389 l 0.0906,-0.419952 q 0.042,-0.194504 0.11714,-0.331541 0.0752,-0.137037 0.17903,-0.223237 0.10388,-0.0862 0.23429,-0.125986 0.13262,-0.03978 0.28955,-0.03978 0.0818,0 0.15914,0.01326 0.0796,0.01326 0.13482,0.03094 z"
         style="font-style:italic;font-family:'Segoe UI';-inkscape-font-specification:'Segoe UI Italic';text-align:center;text-anchor:middle;fill:#099fe7;fill-opacity:1"
         id="path46645" /><path
         d="m 113.9241,25.931299 q -0.0177,0.08399 -0.0354,0.190084 -0.0155,0.103883 -0.0287,0.207766 -0.011,0.101672 -0.0199,0.190083 -0.007,0.08841 -0.007,0.137037 h -0.37574 q 0.002,-0.04421 0.007,-0.106093 0.004,-0.06189 0.011,-0.128196 0.009,-0.06631 0.0155,-0.130406 0.009,-0.0641 0.0177,-0.110514 h -0.009 q -0.0685,0.108304 -0.13925,0.205556 -0.0707,0.09504 -0.15693,0.16798 -0.0862,0.07294 -0.19229,0.114935 -0.10609,0.042 -0.24976,0.042 -0.14809,0 -0.27186,-0.05305 -0.12157,-0.05305 -0.20998,-0.156929 -0.0884,-0.106093 -0.13704,-0.263023 -0.0464,-0.159139 -0.0464,-0.369115 0,-0.128196 0.0265,-0.291756 0.0265,-0.163561 0.0884,-0.333752 0.0641,-0.170191 0.16798,-0.331541 0.10609,-0.16356 0.26081,-0.291756 0.15693,-0.128196 0.36912,-0.205555 0.21219,-0.07736 0.49068,-0.07736 0.17682,0 0.3647,0.02652 0.18787,0.02652 0.37353,0.0641 z m -0.10388,-1.239963 q -0.0774,-0.01768 -0.18124,-0.03094 -0.10389,-0.01326 -0.19451,-0.01326 -0.19229,0 -0.34038,0.06189 -0.14588,0.05968 -0.25418,0.15914 -0.1083,0.09725 -0.18345,0.225448 -0.0729,0.128196 -0.11715,0.263022 -0.0442,0.132617 -0.0641,0.263023 -0.0177,0.130406 -0.0177,0.236499 0,0.125986 0.0221,0.227658 0.0221,0.09946 0.0685,0.170191 0.0486,0.07073 0.12157,0.110514 0.0751,0.03758 0.17682,0.03758 0.11051,0 0.20556,-0.04421 0.0973,-0.04642 0.18124,-0.123775 0.084,-0.07736 0.15251,-0.179032 0.0685,-0.101673 0.12377,-0.214397 0.0553,-0.114934 0.0928,-0.232079 0.0398,-0.119354 0.0641,-0.229868 z"
         style="font-style:italic;font-family:'Segoe UI';-inkscape-font-specification:'Segoe UI Italic';text-align:center;text-anchor:middle;fill:#099fe7;fill-opacity:1"
         id="path46647" /><path
         d="m 116.28689,24.841635 q -0.0928,-0.08178 -0.22545,-0.137037 -0.13041,-0.05747 -0.28955,-0.05747 -0.15251,0 -0.27628,0.05305 -0.12157,0.05305 -0.21661,0.141458 -0.095,0.08841 -0.16356,0.203345 -0.0685,0.114934 -0.11272,0.238709 -0.0442,0.123776 -0.0663,0.247551 -0.0199,0.121565 -0.0199,0.227658 0,0.316069 0.13924,0.479629 0.13925,0.163561 0.38017,0.163561 0.14588,0 0.30281,-0.05968 0.15693,-0.06189 0.29617,-0.156929 l -0.0774,0.362485 q -0.14366,0.07736 -0.28733,0.119354 -0.14146,0.04421 -0.3006,0.04421 -0.20776,0 -0.36248,-0.07073 -0.15251,-0.07073 -0.25418,-0.194504 -0.10168,-0.123775 -0.15251,-0.291756 -0.0508,-0.170191 -0.0508,-0.366905 0,-0.185663 0.0376,-0.364695 0.0376,-0.181243 0.11052,-0.340383 0.0752,-0.16135 0.18345,-0.298387 0.1083,-0.137036 0.24755,-0.234288 0.14146,-0.09946 0.31386,-0.15472 0.1724,-0.05747 0.37354,-0.05747 0.095,0 0.18124,0.01326 0.0862,0.01326 0.15693,0.03536 0.0707,0.0221 0.12598,0.04863 0.0553,0.02431 0.0884,0.04863 z"
         style="font-style:italic;font-family:'Segoe UI';-inkscape-font-specification:'Segoe UI Italic';text-align:center;text-anchor:middle;fill:#099fe7;fill-opacity:1"
         id="path46649" /><path
         d="m 118.42422,24.923415 q 0,0.179032 -0.0796,0.32712 -0.0796,0.145878 -0.26302,0.251971 -0.18346,0.103883 -0.48405,0.16135 -0.3006,0.05747 -0.74265,0.05968 -0.004,0.02431 -0.004,0.05084 0,0.02431 0,0.0442 0,0.119355 0.0332,0.225448 0.0331,0.106093 0.10167,0.185663 0.0707,0.07957 0.17903,0.125986 0.11052,0.04642 0.26082,0.04642 0.15251,0 0.33375,-0.05747 0.18345,-0.05968 0.34922,-0.167981 l -0.0685,0.358064 q -0.12156,0.07073 -0.28954,0.123775 -0.16798,0.05305 -0.37575,0.05305 -0.24976,0 -0.42216,-0.07736 -0.17019,-0.07736 -0.27629,-0.205555 -0.10388,-0.130406 -0.15029,-0.298387 -0.0464,-0.170191 -0.0464,-0.355854 0,-0.198925 0.0442,-0.382377 0.0442,-0.185663 0.12378,-0.344803 0.0818,-0.15914 0.1945,-0.289546 0.11273,-0.132616 0.24977,-0.225448 0.13703,-0.09283 0.29396,-0.143667 0.15693,-0.05084 0.32491,-0.05084 0.17461,0 0.30723,0.04642 0.13483,0.04642 0.22324,0.128196 0.0906,0.07957 0.13703,0.185663 0.0464,0.106093 0.0464,0.225448 z m -0.36912,0.01768 q 0,-0.139247 -0.10388,-0.216607 -0.10167,-0.07736 -0.27186,-0.07736 -0.13483,0 -0.26081,0.05968 -0.12599,0.05747 -0.23208,0.16135 -0.1061,0.101672 -0.18346,0.24534 -0.0774,0.141458 -0.11272,0.307228 0.31607,0 0.5371,-0.03094 0.22102,-0.03315 0.36027,-0.09504 0.13925,-0.06189 0.20335,-0.150299 0.0641,-0.09062 0.0641,-0.203345 z"
         style="font-style:italic;font-family:'Segoe UI';-inkscape-font-specification:'Segoe UI Italic';text-align:center;text-anchor:middle;fill:#099fe7;fill-opacity:1"
         id="path46651" /><path
         d="m 99.221364,29.220793 q -0.274074,0.269654 -0.495102,0.556989 -0.218817,0.287336 -0.373536,0.594564 -0.154719,0.307228 -0.238709,0.638769 -0.08399,0.329331 -0.08399,0.687395 0,0.176822 0.0221,0.358064 0.02431,0.179032 0.07073,0.351434 0.04642,0.174611 0.112724,0.338171 0.06631,0.163561 0.152509,0.305018 h -0.311649 q -0.09283,-0.145878 -0.16356,-0.311648 -0.06852,-0.163561 -0.114934,-0.335962 -0.04642,-0.172401 -0.07073,-0.347013 -0.0221,-0.174611 -0.0221,-0.340382 0,-0.382377 0.08178,-0.720549 0.08178,-0.340382 0.232079,-0.64761 0.150299,-0.307228 0.364695,-0.585723 0.216607,-0.280704 0.48405,-0.541517 z"
         style="font-style:italic;font-family:'Segoe UI';-inkscape-font-specification:'Segoe UI Italic';text-align:center;text-anchor:middle;fill:#099fe7;fill-opacity:1"
         id="path46653" /><path
         d="m 99.769512,32.390325 h -0.307228 l -0.358065,-2.26332 h 0.366906 l 0.198924,1.425627 q 0.0066,0.042 0.01105,0.09504 0.0066,0.05305 0.01105,0.108303 0.0066,0.05526 0.0088,0.108303 0.0022,0.05305 0.0022,0.09504 h 0.0088 q 0.01768,-0.03979 0.03978,-0.09062 0.02431,-0.05084 0.05305,-0.103883 0.02873,-0.05526 0.05747,-0.110514 0.03094,-0.05526 0.05747,-0.101672 l 0.80896,-1.425627 h 0.41332 z"
         style="font-style:italic;font-family:'Segoe UI';-inkscape-font-specification:'Segoe UI Italic';text-align:center;text-anchor:middle;fill:#099fe7;fill-opacity:1"
         id="path46655" /><path
         d="m 101.86264,32.381484 q -0.0553,0.01768 -0.12599,0.02873 -0.0685,0.01105 -0.13703,0.01105 -0.22324,0 -0.33375,-0.110513 -0.11052,-0.112724 -0.11052,-0.300598 0,-0.05526 0.011,-0.130406 0.0111,-0.07515 0.0354,-0.185663 l 0.32933,-1.567084 h 0.3669 l -0.33154,1.575925 q -0.0199,0.09283 -0.0287,0.143668 -0.007,0.05084 -0.007,0.0862 0,0.09062 0.0486,0.139247 0.0508,0.04642 0.15914,0.04642 0.0575,0 0.0995,-0.0066 0.0442,-0.0066 0.0818,-0.01989 z m 0.2586,-3.061228 q 0,0.09946 -0.0685,0.170191 -0.0663,0.07073 -0.16577,0.07073 -0.0973,0 -0.17019,-0.06852 -0.0707,-0.07073 -0.0707,-0.172401 0,-0.101673 0.0707,-0.165771 0.0729,-0.0641 0.17019,-0.0641 0.0973,0 0.16577,0.06631 0.0685,0.0641 0.0685,0.163561 z"
         style="font-style:italic;font-family:'Segoe UI';-inkscape-font-specification:'Segoe UI Italic';text-align:center;text-anchor:middle;fill:#099fe7;fill-opacity:1"
         id="path46657" /><path
         d="m 103.80768,30.511593 h -0.009 q -0.0442,-0.02652 -0.11714,-0.05084 -0.0707,-0.02652 -0.14146,-0.02652 -0.1282,0 -0.24534,0.08399 -0.11715,0.08178 -0.2144,0.218817 -0.095,0.134827 -0.16798,0.309438 -0.0707,0.174612 -0.11051,0.358065 l -0.21219,0.985781 h -0.36248 l 0.31827,-1.502985 q 0.0199,-0.09283 0.0398,-0.194505 0.0199,-0.101672 0.0354,-0.203345 0.0177,-0.101672 0.0309,-0.194504 0.0133,-0.09283 0.0199,-0.167981 h 0.35806 q -0.007,0.06631 -0.0155,0.141458 -0.009,0.07294 -0.0177,0.143668 -0.009,0.06852 -0.0177,0.125985 -0.009,0.05526 -0.0133,0.0862 h 0.009 q 0.0707,-0.125986 0.14367,-0.227658 0.0729,-0.101673 0.1525,-0.172401 0.0818,-0.07294 0.17241,-0.112724 0.0906,-0.03978 0.19671,-0.03978 0.0619,0 0.12156,0.01326 0.0619,0.01105 0.11052,0.02431 z"
         style="font-style:italic;font-family:'Segoe UI';-inkscape-font-specification:'Segoe UI Italic';text-align:center;text-anchor:middle;fill:#099fe7;fill-opacity:1"
         id="path46659" /><path
         d="m 105.33719,30.434234 h -0.57025 l -0.25418,1.200178 q -0.0133,0.06852 -0.0265,0.148088 -0.0133,0.07957 -0.0133,0.128196 0,0.112724 0.0486,0.16356 0.0508,0.04863 0.15914,0.04863 0.0265,0 0.0685,-0.0088 0.042,-0.0088 0.0862,-0.0221 0.0442,-0.01326 0.0862,-0.02873 0.0442,-0.01768 0.0774,-0.03094 l -0.0685,0.31828 q -0.0774,0.03315 -0.17682,0.05526 -0.0973,0.02431 -0.18566,0.02431 -0.12599,0 -0.2144,-0.03315 -0.0884,-0.03094 -0.14588,-0.09062 -0.0553,-0.05968 -0.0818,-0.143668 -0.0243,-0.0862 -0.0243,-0.192293 0,-0.0641 0.011,-0.148089 0.0133,-0.0862 0.0309,-0.156929 l 0.26081,-1.231122 h -0.37574 l 0.0685,-0.307229 h 0.37132 l 0.11715,-0.552568 q 0.009,-0.0044 0.0663,-0.01989 0.0597,-0.01768 0.12819,-0.03758 0.0707,-0.0221 0.1282,-0.03979 0.0597,-0.01768 0.0663,-0.01989 l -0.13925,0.669712 h 0.57025 z"
         style="font-style:italic;font-family:'Segoe UI';-inkscape-font-specification:'Segoe UI Italic';text-align:center;text-anchor:middle;fill:#099fe7;fill-opacity:1"
         id="path46661" /><path
         d="m 107.33086,31.747136 q -0.0199,0.0862 -0.0376,0.179032 -0.0155,0.09283 -0.0309,0.179032 -0.0155,0.0862 -0.0265,0.16135 -0.0111,0.07515 -0.0177,0.123775 h -0.35364 q 0.011,-0.0862 0.0243,-0.179032 0.0155,-0.09504 0.0287,-0.174611 0.0155,-0.09283 0.0287,-0.181243 h -0.009 q -0.0774,0.121565 -0.1724,0.229869 -0.0928,0.106093 -0.20335,0.187873 -0.1083,0.07957 -0.23208,0.125986 -0.12156,0.04642 -0.25418,0.04642 -0.14588,0 -0.25639,-0.04642 -0.1083,-0.04421 -0.18124,-0.125986 -0.0729,-0.08178 -0.11052,-0.196714 -0.0354,-0.114935 -0.0354,-0.256392 0,-0.02873 0.009,-0.0862 0.009,-0.05747 0.0199,-0.123775 0.011,-0.06631 0.0243,-0.130406 0.0155,-0.06631 0.0243,-0.112724 l 0.26302,-1.239964 h 0.36691 l -0.28071,1.326165 q -0.009,0.03536 -0.0177,0.08178 -0.009,0.04642 -0.0177,0.09283 -0.007,0.04642 -0.011,0.0862 -0.004,0.03757 -0.004,0.05968 0,0.165771 0.0796,0.265233 0.0818,0.09725 0.24313,0.09725 0.0973,0 0.1945,-0.03979 0.0973,-0.03979 0.18787,-0.106093 0.0928,-0.06852 0.17461,-0.156929 0.0818,-0.09062 0.14809,-0.190084 0.0663,-0.101673 0.11273,-0.207766 0.0464,-0.106093 0.0685,-0.203345 l 0.23649,-1.105137 h 0.3647 z"
         style="font-style:italic;font-family:'Segoe UI';-inkscape-font-specification:'Segoe UI Italic';text-align:center;text-anchor:middle;fill:#099fe7;fill-opacity:1"
         id="path46663" /><path
         d="m 109.80194,31.665356 q -0.0177,0.08399 -0.0354,0.190083 -0.0155,0.103883 -0.0287,0.207766 -0.0111,0.101673 -0.0199,0.190084 -0.007,0.08841 -0.007,0.137036 h -0.37575 q 0.002,-0.0442 0.007,-0.106093 0.004,-0.06189 0.0111,-0.128196 0.009,-0.06631 0.0155,-0.130406 0.009,-0.0641 0.0177,-0.110513 h -0.009 q -0.0685,0.108303 -0.13925,0.205555 -0.0707,0.09504 -0.15693,0.167981 -0.0862,0.07294 -0.19229,0.114934 -0.10609,0.042 -0.24976,0.042 -0.14809,0 -0.27187,-0.05305 -0.12156,-0.05305 -0.20997,-0.15693 -0.0884,-0.106093 -0.13704,-0.263022 -0.0464,-0.15914 -0.0464,-0.369116 0,-0.128196 0.0265,-0.291756 0.0265,-0.16356 0.0884,-0.333751 0.0641,-0.170191 0.16798,-0.331541 0.10609,-0.16356 0.26081,-0.291756 0.15693,-0.128196 0.36912,-0.205556 0.21219,-0.07736 0.49068,-0.07736 0.17682,0 0.3647,0.02652 0.18787,0.02652 0.37353,0.0641 z m -0.10388,-1.239964 q -0.0774,-0.01768 -0.18124,-0.03094 -0.10389,-0.01326 -0.19451,-0.01326 -0.19229,0 -0.34038,0.06189 -0.14588,0.05968 -0.25418,0.159139 -0.1083,0.09725 -0.18345,0.225448 -0.0729,0.128196 -0.11715,0.263023 -0.0442,0.132616 -0.0641,0.263022 -0.0177,0.130406 -0.0177,0.236499 0,0.125986 0.0221,0.227659 0.0221,0.09946 0.0685,0.170191 0.0486,0.07073 0.12157,0.110513 0.0752,0.03758 0.17682,0.03758 0.11051,0 0.20556,-0.0442 0.0972,-0.04642 0.18124,-0.123776 0.084,-0.07736 0.15251,-0.179032 0.0685,-0.101672 0.12377,-0.214396 0.0553,-0.114935 0.0928,-0.232079 0.0398,-0.119355 0.0641,-0.229869 z"
         style="font-style:italic;font-family:'Segoe UI';-inkscape-font-specification:'Segoe UI Italic';text-align:center;text-anchor:middle;fill:#099fe7;fill-opacity:1"
         id="path46665" /><path
         d="m 111.17452,32.381484 q -0.0553,0.01768 -0.12598,0.02873 -0.0685,0.01105 -0.13704,0.01105 -0.22324,0 -0.33375,-0.110513 -0.11052,-0.112724 -0.11052,-0.300598 0,-0.05526 0.0111,-0.130406 0.011,-0.07515 0.0354,-0.185663 l 0.56583,-2.656748 h 0.36691 l -0.56804,2.665589 q -0.0199,0.09283 -0.0287,0.143668 -0.007,0.05084 -0.007,0.0862 0,0.09062 0.0486,0.139247 0.0508,0.04642 0.15914,0.04642 0.0575,0 0.0995,-0.0066 0.0442,-0.0066 0.0818,-0.01989 z"
         style="font-style:italic;font-family:'Segoe UI';-inkscape-font-specification:'Segoe UI Italic';text-align:center;text-anchor:middle;fill:#099fe7;fill-opacity:1"
         id="path46667" /><path
         d="m 112.54047,30.558009 q 0,0.380167 -0.0818,0.720549 -0.0818,0.340382 -0.23429,0.64761 -0.1503,0.305018 -0.3669,0.583512 -0.2144,0.280705 -0.48184,0.541517 h -0.35586 q 0.27408,-0.269653 0.4951,-0.556989 0.22103,-0.285125 0.37575,-0.592353 0.15472,-0.307228 0.23871,-0.636559 0.084,-0.331541 0.084,-0.689605 0,-0.176822 -0.0243,-0.355854 -0.0221,-0.179032 -0.0685,-0.353644 -0.0442,-0.174611 -0.11051,-0.338172 -0.0663,-0.16356 -0.15251,-0.307228 h 0.30722 q 0.0928,0.148089 0.16356,0.313859 0.0707,0.165771 0.11715,0.338172 0.0464,0.172401 0.0707,0.347013 0.0243,0.172401 0.0243,0.338172 z"
         style="font-style:italic;font-family:'Segoe UI';-inkscape-font-specification:'Segoe UI Italic';text-align:center;text-anchor:middle;fill:#099fe7;fill-opacity:1"
         id="path46669" /></g><g
       aria-label="macro-surface
(mesh)"
       transform="scale(1.0000531,0.9999469)"
       id="text44615"
       style="font-size:4.52664px;line-height:1.25;font-family:'Lucida Console';-inkscape-font-specification:'Lucida Console';letter-spacing:0px;word-spacing:0px;fill:#141414;stroke-width:0.255208;fill-opacity:1"><path
         d="m 9.8257074,24.9632 q 0,0.02873 -0.00884,0.08841 -0.00663,0.05747 -0.019892,0.123775 -0.011051,0.06631 -0.024313,0.132616 -0.011051,0.0641 -0.019893,0.108304 l -0.267443,1.239963 H 9.1228404 l 0.2762842,-1.326164 q 0.00884,-0.03758 0.017682,-0.08399 0.00884,-0.04642 0.015472,-0.09062 0.00884,-0.04641 0.013262,-0.08399 0.00442,-0.03978 0.00442,-0.06189 0,-0.174611 -0.075149,-0.267443 -0.075149,-0.09504 -0.234289,-0.09504 -0.08399,0 -0.1746116,0.03978 -0.088411,0.03758 -0.1746116,0.103883 -0.08399,0.06631 -0.1635602,0.154719 -0.07736,0.08841 -0.1436678,0.190084 -0.064098,0.09946 -0.1105137,0.205555 -0.046416,0.103883 -0.068518,0.205556 L 8.06854,26.656269 H 7.7016346 l 0.2807047,-1.326164 q 0.00884,-0.03758 0.017682,-0.08399 0.00884,-0.04642 0.015472,-0.09062 0.00884,-0.04641 0.013262,-0.08399 0.00442,-0.03978 0.00442,-0.06189 0,-0.174611 -0.07736,-0.267443 -0.07736,-0.09504 -0.2320787,-0.09504 -0.086201,0 -0.1768219,0.03978 -0.090621,0.03758 -0.1768219,0.106094 -0.086201,0.06631 -0.1657705,0.156929 -0.07736,0.08841 -0.1436678,0.190084 -0.064098,0.09946 -0.1105136,0.205555 -0.044205,0.103883 -0.066308,0.205555 L 6.6473342,26.656269 H 6.2804288 l 0.3492232,-1.61571 q 0.017682,-0.0862 0.035364,-0.179032 0.017682,-0.09504 0.033154,-0.181242 0.015472,-0.08841 0.026523,-0.163561 0.011051,-0.07515 0.017682,-0.123775 h 0.3536437 q -0.011051,0.0862 -0.026523,0.181243 -0.015472,0.09283 -0.026523,0.172401 -0.013262,0.09283 -0.028734,0.181242 h 0.00884 q 0.07957,-0.128196 0.1724013,-0.236499 0.092831,-0.108303 0.1967143,-0.185663 0.1038829,-0.07957 0.2166068,-0.123775 0.112724,-0.04421 0.234289,-0.04421 0.1414575,0 0.2431301,0.042 0.1016726,0.042 0.1679808,0.119355 0.068518,0.07515 0.1038828,0.183453 0.035364,0.108303 0.041995,0.24092 0.08178,-0.123776 0.1746116,-0.229869 0.095042,-0.108303 0.2011349,-0.185663 0.1083034,-0.07957 0.2276582,-0.123775 0.121565,-0.04642 0.2563917,-0.04642 0.282915,0 0.4243725,0.165771 0.1414575,0.16356 0.1414575,0.459737 z"
         style="font-style:italic;font-family:'Segoe UI';-inkscape-font-specification:'Segoe UI Italic';text-align:center;text-anchor:middle;fill:#141414;fill-opacity:1"
         id="path46672" /><path
         d="m 12.055873,25.931299 q -0.01768,0.08399 -0.03536,0.190084 -0.01547,0.103883 -0.02873,0.207766 -0.01105,0.101672 -0.01989,0.190083 -0.0066,0.08841 -0.0066,0.137037 h -0.375747 q 0.0022,-0.04421 0.0066,-0.106093 0.0044,-0.06189 0.01105,-0.128196 0.0088,-0.06631 0.01547,-0.130406 0.0088,-0.0641 0.01768,-0.110514 h -0.0088 q -0.06852,0.108304 -0.139248,0.205556 -0.07073,0.09504 -0.156929,0.16798 -0.0862,0.07294 -0.192294,0.114935 -0.106093,0.042 -0.249761,0.042 -0.148088,0 -0.271863,-0.05305 -0.121565,-0.05305 -0.209976,-0.156929 -0.08841,-0.106093 -0.137037,-0.263023 -0.04642,-0.159139 -0.04642,-0.369115 0,-0.128196 0.02652,-0.291756 0.02652,-0.163561 0.08841,-0.333752 0.0641,-0.170191 0.167981,-0.331541 0.106093,-0.16356 0.260812,-0.291756 0.15693,-0.128196 0.369116,-0.205555 0.212186,-0.07736 0.490681,-0.07736 0.176822,0 0.364695,0.02652 0.187873,0.02652 0.373536,0.0641 z M 11.95199,24.691336 q -0.07736,-0.01768 -0.181242,-0.03094 -0.103883,-0.01326 -0.194504,-0.01326 -0.192294,0 -0.340382,0.06189 -0.145878,0.05968 -0.254182,0.15914 -0.108303,0.09725 -0.183452,0.225448 -0.07294,0.128196 -0.117145,0.263022 -0.0442,0.132617 -0.0641,0.263023 -0.01768,0.130406 -0.01768,0.236499 0,0.125986 0.0221,0.227658 0.0221,0.09946 0.06852,0.170191 0.04863,0.07073 0.121565,0.110514 0.07515,0.03758 0.176822,0.03758 0.110514,0 0.205556,-0.04421 0.09725,-0.04642 0.181242,-0.123775 0.08399,-0.07736 0.152509,-0.179032 0.06852,-0.101673 0.123775,-0.214397 0.05526,-0.114934 0.09283,-0.232079 0.03979,-0.119354 0.0641,-0.229868 z"
         style="font-style:italic;font-family:'Segoe UI';-inkscape-font-specification:'Segoe UI Italic';text-align:center;text-anchor:middle;fill:#141414;fill-opacity:1"
         id="path46674" /><path
         d="m 14.418656,24.841635 q -0.09283,-0.08178 -0.225448,-0.137037 -0.130406,-0.05747 -0.289546,-0.05747 -0.152509,0 -0.276284,0.05305 -0.121565,0.05305 -0.216607,0.141458 -0.09504,0.08841 -0.16356,0.203345 -0.06852,0.114934 -0.112724,0.238709 -0.04421,0.123776 -0.06631,0.247551 -0.01989,0.121565 -0.01989,0.227658 0,0.316069 0.139247,0.479629 0.139248,0.163561 0.380167,0.163561 0.145878,0 0.302808,-0.05968 0.156929,-0.06189 0.296176,-0.156929 l -0.07736,0.362485 q -0.143668,0.07736 -0.287336,0.119354 -0.141457,0.04421 -0.300597,0.04421 -0.207766,0 -0.362485,-0.07073 -0.152509,-0.07073 -0.254181,-0.194504 -0.101673,-0.123775 -0.152509,-0.291756 -0.05084,-0.170191 -0.05084,-0.366905 0,-0.185663 0.03757,-0.364695 0.03758,-0.181243 0.110514,-0.340383 0.07515,-0.16135 0.183453,-0.298387 0.108303,-0.137036 0.24755,-0.234288 0.141458,-0.09946 0.313859,-0.15472 0.172402,-0.05747 0.373536,-0.05747 0.09504,0 0.181243,0.01326 0.0862,0.01326 0.156929,0.03536 0.07073,0.0221 0.125986,0.04863 0.05526,0.02431 0.08841,0.04863 z"
         style="font-style:italic;font-family:'Segoe UI';-inkscape-font-specification:'Segoe UI Italic';text-align:center;text-anchor:middle;fill:#141414;fill-opacity:1"
         id="path46676" /><path
         d="m 16.175823,24.777537 h -0.0088 q -0.04421,-0.02652 -0.117145,-0.05084 -0.07073,-0.02652 -0.141457,-0.02652 -0.128196,0 -0.245341,0.08399 -0.117144,0.08178 -0.214396,0.218818 -0.09504,0.134826 -0.167981,0.309438 -0.07073,0.174611 -0.110514,0.358064 l -0.212186,0.985782 h -0.362485 l 0.31828,-1.502986 q 0.01989,-0.09283 0.03979,-0.194504 0.01989,-0.101672 0.03536,-0.203345 0.01768,-0.101673 0.03094,-0.194504 0.01326,-0.09283 0.01989,-0.167981 h 0.358065 q -0.0066,0.06631 -0.01547,0.141458 -0.0088,0.07294 -0.01768,0.143667 -0.0088,0.06852 -0.01768,0.125986 -0.0088,0.05526 -0.01326,0.0862 h 0.0088 q 0.07073,-0.125986 0.143667,-0.227659 0.07294,-0.101672 0.152509,-0.172401 0.08178,-0.07294 0.172402,-0.112724 0.09062,-0.03978 0.196714,-0.03978 0.06189,0 0.121565,0.01326 0.06189,0.01105 0.110514,0.02431 z"
         style="font-style:italic;font-family:'Segoe UI';-inkscape-font-specification:'Segoe UI Italic';text-align:center;text-anchor:middle;fill:#141414;fill-opacity:1"
         id="path46678" /><path
         d="m 18.33084,25.230643 q 0,0.300597 -0.0862,0.57025 -0.08399,0.269654 -0.24534,0.472999 -0.15914,0.201135 -0.389008,0.320489 -0.227658,0.117145 -0.514994,0.117145 -0.194504,0 -0.351433,-0.06189 -0.15472,-0.06189 -0.265233,-0.176822 -0.108304,-0.117144 -0.167981,-0.280704 -0.05747,-0.165771 -0.05747,-0.373537 0,-0.311648 0.08841,-0.581301 0.09062,-0.271864 0.251971,-0.470789 0.16356,-0.201135 0.389008,-0.313859 0.227658,-0.114934 0.501732,-0.114934 0.192294,0 0.347013,0.06189 0.156929,0.06189 0.267443,0.179032 0.110514,0.114934 0.170191,0.280705 0.06189,0.16356 0.06189,0.371326 z m -0.371326,0.01768 q 0,-0.143668 -0.03536,-0.254182 -0.03537,-0.112723 -0.09946,-0.187873 -0.0641,-0.07736 -0.154719,-0.117144 -0.09062,-0.042 -0.203345,-0.042 -0.194504,0 -0.351433,0.09946 -0.15693,0.09946 -0.265233,0.263022 -0.108304,0.16135 -0.167981,0.369116 -0.05747,0.205555 -0.05747,0.422162 0,0.137037 0.03315,0.249761 0.03536,0.110514 0.09725,0.190084 0.0641,0.07736 0.154719,0.119354 0.09283,0.042 0.207766,0.042 0.196714,0 0.353644,-0.09725 0.156929,-0.09946 0.265232,-0.260813 0.108304,-0.16356 0.165771,-0.371326 0.05747,-0.207765 0.05747,-0.424372 z"
         style="font-style:italic;font-family:'Segoe UI';-inkscape-font-specification:'Segoe UI Italic';text-align:center;text-anchor:middle;fill:#141414;fill-opacity:1"
         id="path46680" /><path
         d="m 20.001807,25.537871 h -1.20902 l 0.0641,-0.285126 h 1.209019 z"
         style="font-style:italic;font-family:'Segoe UI';-inkscape-font-specification:'Segoe UI Italic';text-align:center;text-anchor:middle;fill:#141414;fill-opacity:1"
         id="path46682" /><path
         d="m 21.915902,24.790798 q -0.09946,-0.0641 -0.223237,-0.103883 -0.123775,-0.03978 -0.247551,-0.03978 -0.207765,0 -0.3227,0.09504 -0.112724,0.09504 -0.112724,0.251971 0,0.0641 0.01989,0.117145 0.0221,0.05305 0.06189,0.101673 0.042,0.04641 0.103883,0.09062 0.0641,0.04421 0.145878,0.09504 0.247551,0.143667 0.355854,0.296176 0.110514,0.150299 0.110514,0.340382 0,0.128196 -0.04863,0.251971 -0.04642,0.121565 -0.150299,0.216607 -0.103882,0.09283 -0.269653,0.150299 -0.16356,0.05747 -0.400059,0.05747 -0.06631,0 -0.145878,-0.0088 -0.07957,-0.0088 -0.16135,-0.02652 -0.07957,-0.01768 -0.15472,-0.042 -0.07294,-0.02652 -0.128195,-0.05968 l 0.07294,-0.344803 q 0.0442,0.03094 0.108303,0.06189 0.06631,0.03094 0.141458,0.05526 0.07736,0.02431 0.159139,0.03978 0.08399,0.01547 0.165771,0.01547 0.221027,0 0.32933,-0.08841 0.110514,-0.08841 0.110514,-0.245341 0,-0.05747 -0.01768,-0.106093 -0.01547,-0.04863 -0.05747,-0.09725 -0.042,-0.04863 -0.110514,-0.09725 -0.06852,-0.05084 -0.172401,-0.112724 -0.225448,-0.137037 -0.333751,-0.285125 -0.106094,-0.150299 -0.106094,-0.338172 0,-0.137037 0.05084,-0.260812 0.05084,-0.125986 0.150298,-0.221027 0.101673,-0.09725 0.254182,-0.15472 0.152509,-0.05747 0.355854,-0.05747 0.159139,0 0.300597,0.03094 0.143668,0.03094 0.24313,0.07957 z"
         style="font-style:italic;font-family:'Segoe UI';-inkscape-font-specification:'Segoe UI Italic';text-align:center;text-anchor:middle;fill:#141414;fill-opacity:1"
         id="path46684" /><path
         d="m 24.15712,26.01308 q -0.01989,0.0862 -0.03757,0.179032 -0.01547,0.09283 -0.03094,0.179032 -0.01547,0.0862 -0.02652,0.16135 -0.01105,0.07515 -0.01768,0.123775 h -0.353643 q 0.01105,-0.0862 0.02431,-0.179032 0.01547,-0.09504 0.02873,-0.174612 0.01547,-0.09283 0.02873,-0.181242 h -0.0088 q -0.07736,0.121565 -0.172402,0.229868 -0.09283,0.106093 -0.203345,0.187874 -0.108303,0.07957 -0.232079,0.125985 -0.121565,0.04642 -0.254181,0.04642 -0.145878,0 -0.256392,-0.04642 -0.108303,-0.0442 -0.181242,-0.125985 -0.07294,-0.08178 -0.110514,-0.196715 -0.03536,-0.114934 -0.03536,-0.256391 0,-0.02873 0.0088,-0.0862 0.0088,-0.05747 0.01989,-0.123775 0.01105,-0.06631 0.02431,-0.130407 0.01547,-0.06631 0.02431,-0.112724 l 0.263023,-1.239963 h 0.366905 l -0.280705,1.326164 q -0.0088,0.03536 -0.01768,0.08178 -0.0088,0.04642 -0.01768,0.09283 -0.0066,0.04641 -0.01105,0.0862 -0.0044,0.03757 -0.0044,0.05968 0,0.16577 0.07957,0.265233 0.08178,0.09725 0.24313,0.09725 0.09725,0 0.194504,-0.03978 0.09725,-0.03979 0.187873,-0.106093 0.09283,-0.06852 0.174612,-0.15693 0.08178,-0.09062 0.148088,-0.190083 0.06631,-0.101673 0.112724,-0.207766 0.04642,-0.106093 0.06852,-0.203345 l 0.236499,-1.105137 h 0.364695 z"
         style="font-style:italic;font-family:'Segoe UI';-inkscape-font-specification:'Segoe UI Italic';text-align:center;text-anchor:middle;fill:#141414;fill-opacity:1"
         id="path46686" /><path
         d="m 26.320977,24.777537 h -0.0088 q -0.04421,-0.02652 -0.117145,-0.05084 -0.07073,-0.02652 -0.141457,-0.02652 -0.128196,0 -0.245341,0.08399 -0.117144,0.08178 -0.214396,0.218818 -0.09504,0.134826 -0.167981,0.309438 -0.07073,0.174611 -0.110514,0.358064 l -0.212186,0.985782 h -0.362485 l 0.31828,-1.502986 q 0.01989,-0.09283 0.03979,-0.194504 0.01989,-0.101672 0.03536,-0.203345 0.01768,-0.101673 0.03094,-0.194504 0.01326,-0.09283 0.01989,-0.167981 h 0.358065 q -0.0066,0.06631 -0.01547,0.141458 -0.0088,0.07294 -0.01768,0.143667 -0.0088,0.06852 -0.01768,0.125986 -0.0088,0.05526 -0.01326,0.0862 h 0.0088 q 0.07073,-0.125986 0.143667,-0.227659 0.07294,-0.101672 0.152509,-0.172401 0.08178,-0.07294 0.172402,-0.112724 0.09062,-0.03978 0.196714,-0.03978 0.06189,0 0.121565,0.01326 0.06189,0.01105 0.110514,0.02431 z"
         style="font-style:italic;font-family:'Segoe UI';-inkscape-font-specification:'Segoe UI Italic';text-align:center;text-anchor:middle;fill:#141414;fill-opacity:1"
         id="path46688" /><path
         d="m 28.144453,23.619353 q -0.0221,-0.01105 -0.05305,-0.01989 -0.03094,-0.01105 -0.06631,-0.01989 -0.03536,-0.0088 -0.07515,-0.01326 -0.03758,-0.0066 -0.07294,-0.0066 -0.181242,0 -0.280705,0.119355 -0.09725,0.117144 -0.148088,0.351433 l -0.08178,0.362485 h 0.534886 l -0.07294,0.307228 h -0.534886 l -0.579092,2.707585 h -0.366905 l 0.583512,-2.707585 h -0.389008 l 0.06852,-0.307228 h 0.389008 l 0.09062,-0.419952 q 0.042,-0.194504 0.117144,-0.331541 0.07515,-0.137037 0.179032,-0.223237 0.103883,-0.0862 0.234289,-0.125986 0.132617,-0.03978 0.289546,-0.03978 0.08178,0 0.15914,0.01326 0.07957,0.01326 0.134826,0.03094 z"
         style="font-style:italic;font-family:'Segoe UI';-inkscape-font-specification:'Segoe UI Italic';text-align:center;text-anchor:middle;fill:#141414;fill-opacity:1"
         id="path46690" /><path
         d="m 29.6607,25.931299 q -0.01768,0.08399 -0.03536,0.190084 -0.01547,0.103883 -0.02873,0.207766 -0.01105,0.101672 -0.01989,0.190083 -0.0066,0.08841 -0.0066,0.137037 h -0.375746 q 0.0022,-0.04421 0.0066,-0.106093 0.0044,-0.06189 0.01105,-0.128196 0.0088,-0.06631 0.01547,-0.130406 0.0088,-0.0641 0.01768,-0.110514 h -0.0088 q -0.06852,0.108304 -0.139247,0.205556 -0.07073,0.09504 -0.15693,0.16798 -0.0862,0.07294 -0.192294,0.114935 -0.106093,0.042 -0.249761,0.042 -0.148088,0 -0.271863,-0.05305 -0.121565,-0.05305 -0.209976,-0.156929 -0.08841,-0.106093 -0.137037,-0.263023 -0.04642,-0.159139 -0.04642,-0.369115 0,-0.128196 0.02652,-0.291756 0.02652,-0.163561 0.08841,-0.333752 0.0641,-0.170191 0.167981,-0.331541 0.106093,-0.16356 0.260812,-0.291756 0.15693,-0.128196 0.369116,-0.205555 0.212186,-0.07736 0.490681,-0.07736 0.176822,0 0.364695,0.02652 0.187873,0.02652 0.373536,0.0641 z m -0.103883,-1.239963 q -0.07736,-0.01768 -0.181242,-0.03094 -0.103883,-0.01326 -0.194504,-0.01326 -0.192294,0 -0.340382,0.06189 -0.145878,0.05968 -0.254182,0.15914 -0.108303,0.09725 -0.183452,0.225448 -0.07294,0.128196 -0.117145,0.263022 -0.04421,0.132617 -0.0641,0.263023 -0.01768,0.130406 -0.01768,0.236499 0,0.125986 0.0221,0.227658 0.0221,0.09946 0.06852,0.170191 0.04863,0.07073 0.121565,0.110514 0.07515,0.03758 0.176822,0.03758 0.110514,0 0.205556,-0.04421 0.09725,-0.04642 0.181242,-0.123775 0.08399,-0.07736 0.152509,-0.179032 0.06852,-0.101673 0.123775,-0.214397 0.05526,-0.114934 0.09283,-0.232079 0.03978,-0.119354 0.0641,-0.229868 z"
         style="font-style:italic;font-family:'Segoe UI';-inkscape-font-specification:'Segoe UI Italic';text-align:center;text-anchor:middle;fill:#141414;fill-opacity:1"
         id="path46692" /><path
         d="m 32.023483,24.841635 q -0.09283,-0.08178 -0.225448,-0.137037 -0.130406,-0.05747 -0.289546,-0.05747 -0.152509,0 -0.276284,0.05305 -0.121565,0.05305 -0.216607,0.141458 -0.09504,0.08841 -0.16356,0.203345 -0.06852,0.114934 -0.112724,0.238709 -0.04421,0.123776 -0.06631,0.247551 -0.01989,0.121565 -0.01989,0.227658 0,0.316069 0.139247,0.479629 0.139247,0.163561 0.380167,0.163561 0.145878,0 0.302808,-0.05968 0.156929,-0.06189 0.296176,-0.156929 l -0.07736,0.362485 q -0.143668,0.07736 -0.287336,0.119354 -0.141457,0.04421 -0.300597,0.04421 -0.207766,0 -0.362485,-0.07073 -0.152509,-0.07073 -0.254181,-0.194504 -0.101673,-0.123775 -0.152509,-0.291756 -0.05084,-0.170191 -0.05084,-0.366905 0,-0.185663 0.03757,-0.364695 0.03758,-0.181243 0.110514,-0.340383 0.07515,-0.16135 0.183453,-0.298387 0.108303,-0.137036 0.24755,-0.234288 0.141458,-0.09946 0.313859,-0.15472 0.172401,-0.05747 0.373536,-0.05747 0.09504,0 0.181243,0.01326 0.0862,0.01326 0.156929,0.03536 0.07073,0.0221 0.125986,0.04863 0.05526,0.02431 0.08841,0.04863 z"
         style="font-style:italic;font-family:'Segoe UI';-inkscape-font-specification:'Segoe UI Italic';text-align:center;text-anchor:middle;fill:#141414;fill-opacity:1"
         id="path46694" /><path
         d="m 34.160818,24.923415 q 0,0.179032 -0.07957,0.32712 -0.07957,0.145878 -0.263023,0.251971 -0.183453,0.103883 -0.48405,0.16135 -0.300597,0.05747 -0.742652,0.05968 -0.0044,0.02431 -0.0044,0.05084 0,0.02431 0,0.0442 0,0.119355 0.03315,0.225448 0.03315,0.106093 0.101673,0.185663 0.07073,0.07957 0.179032,0.125986 0.110513,0.04642 0.260812,0.04642 0.152509,0 0.333751,-0.05747 0.183453,-0.05968 0.349223,-0.167981 l -0.06852,0.358064 q -0.121565,0.07073 -0.289546,0.123775 -0.167981,0.05305 -0.375746,0.05305 -0.249761,0 -0.422163,-0.07736 -0.170191,-0.07736 -0.276284,-0.205555 -0.103883,-0.130406 -0.150298,-0.298387 -0.04642,-0.170191 -0.04642,-0.355854 0,-0.198925 0.0442,-0.382377 0.04421,-0.185663 0.123776,-0.344803 0.08178,-0.15914 0.194504,-0.289546 0.112724,-0.132616 0.249761,-0.225448 0.137037,-0.09283 0.293966,-0.143667 0.156929,-0.05084 0.32491,-0.05084 0.174612,0 0.307228,0.04642 0.134827,0.04642 0.223238,0.128196 0.09062,0.07957 0.137037,0.185663 0.04642,0.106093 0.04642,0.225448 z m -0.369116,0.01768 q 0,-0.139247 -0.103883,-0.216607 -0.101673,-0.07736 -0.271864,-0.07736 -0.134826,0 -0.260812,0.05968 -0.125985,0.05747 -0.232079,0.16135 -0.106093,0.101672 -0.183452,0.24534 -0.07736,0.141458 -0.112724,0.307228 0.316069,0 0.537096,-0.03094 0.221028,-0.03315 0.360275,-0.09504 0.139247,-0.06189 0.203345,-0.150299 0.0641,-0.09062 0.0641,-0.203345 z"
         style="font-style:italic;font-family:'Segoe UI';-inkscape-font-specification:'Segoe UI Italic';text-align:center;text-anchor:middle;fill:#141414;fill-opacity:1"
         id="path46696" /><path
         d="m 15.430961,29.220793 q -0.274074,0.269654 -0.495102,0.556989 -0.218817,0.287336 -0.373536,0.594564 -0.154719,0.307228 -0.238709,0.638769 -0.08399,0.329331 -0.08399,0.687395 0,0.176822 0.0221,0.358064 0.02431,0.179032 0.07073,0.351434 0.04642,0.174611 0.112724,0.338171 0.06631,0.163561 0.152509,0.305018 h -0.311649 q -0.09283,-0.145878 -0.16356,-0.311648 -0.06852,-0.163561 -0.114934,-0.335962 -0.04642,-0.172401 -0.07073,-0.347013 -0.0221,-0.174611 -0.0221,-0.340382 0,-0.382377 0.08178,-0.720549 0.08178,-0.340382 0.232079,-0.64761 0.150299,-0.307228 0.364695,-0.585723 0.216607,-0.280704 0.48405,-0.541517 z"
         style="font-style:italic;font-family:'Segoe UI';-inkscape-font-specification:'Segoe UI Italic';text-align:center;text-anchor:middle;fill:#141414;fill-opacity:1"
         id="path46698" /><path
         d="m 18.664591,30.697256 q 0,0.02873 -0.0088,0.08841 -0.0066,0.05747 -0.01989,0.123775 -0.01105,0.06631 -0.02431,0.132617 -0.01105,0.0641 -0.01989,0.108303 l -0.267443,1.239963 h -0.362485 l 0.276284,-1.326164 q 0.0088,-0.03757 0.01768,-0.08399 0.0088,-0.04642 0.01547,-0.09062 0.0088,-0.04642 0.01326,-0.08399 0.0044,-0.03978 0.0044,-0.06189 0,-0.174612 -0.07515,-0.267443 -0.07515,-0.09504 -0.234289,-0.09504 -0.08399,0 -0.174612,0.03978 -0.08841,0.03758 -0.174611,0.103883 -0.08399,0.06631 -0.16356,0.154719 -0.07736,0.08841 -0.143668,0.190083 -0.0641,0.09946 -0.110514,0.205556 -0.04642,0.103883 -0.06852,0.205555 l -0.2365,1.109557 h -0.366905 l 0.280705,-1.326164 q 0.0088,-0.03757 0.01768,-0.08399 0.0088,-0.04642 0.01547,-0.09062 0.0088,-0.04642 0.01326,-0.08399 0.0044,-0.03978 0.0044,-0.06189 0,-0.174612 -0.07736,-0.267443 -0.07736,-0.09504 -0.232078,-0.09504 -0.0862,0 -0.176822,0.03978 -0.09062,0.03758 -0.176822,0.106093 -0.0862,0.06631 -0.165771,0.156929 -0.07736,0.08841 -0.143667,0.190084 -0.0641,0.09946 -0.110514,0.205555 -0.0442,0.103883 -0.06631,0.205556 l -0.236499,1.105136 h -0.366906 l 0.349223,-1.615709 q 0.01768,-0.0862 0.03537,-0.179033 0.01768,-0.09504 0.03315,-0.181242 0.01547,-0.08841 0.02652,-0.16356 0.01105,-0.07515 0.01768,-0.123776 h 0.353644 q -0.01105,0.0862 -0.02652,0.181243 -0.01547,0.09283 -0.02652,0.172401 -0.01326,0.09283 -0.02873,0.181243 h 0.0088 q 0.07957,-0.128196 0.172401,-0.2365 0.09283,-0.108303 0.196715,-0.185663 0.103883,-0.07957 0.216606,-0.123775 0.112724,-0.0442 0.234289,-0.0442 0.141458,0 0.243131,0.042 0.101672,0.042 0.16798,0.119355 0.06852,0.07515 0.103883,0.183452 0.03537,0.108304 0.042,0.24092 0.08178,-0.123775 0.174612,-0.229868 0.09504,-0.108304 0.201135,-0.185663 0.108303,-0.07957 0.227658,-0.123776 0.121565,-0.04641 0.256392,-0.04641 0.282915,0 0.424372,0.16577 0.141458,0.16356 0.141458,0.459737 z"
         style="font-style:italic;font-family:'Segoe UI';-inkscape-font-specification:'Segoe UI Italic';text-align:center;text-anchor:middle;fill:#141414;fill-opacity:1"
         id="path46700" /><path
         d="m 21.011901,30.657471 q 0,0.179032 -0.07957,0.327121 -0.07957,0.145878 -0.263023,0.251971 -0.183452,0.103883 -0.48405,0.16135 -0.300597,0.05747 -0.742651,0.05968 -0.0044,0.02431 -0.0044,0.05084 0,0.02431 0,0.04421 0,0.119355 0.03315,0.225448 0.03315,0.106093 0.101673,0.185663 0.07073,0.07957 0.179032,0.125985 0.110514,0.04642 0.260812,0.04642 0.152509,0 0.333751,-0.05747 0.183453,-0.05968 0.349224,-0.167981 l -0.06852,0.358064 q -0.121565,0.07073 -0.289546,0.123776 -0.16798,0.05305 -0.375746,0.05305 -0.249761,0 -0.422162,-0.07736 -0.170191,-0.07736 -0.276285,-0.205556 -0.103882,-0.130406 -0.150298,-0.298387 -0.04642,-0.170191 -0.04642,-0.355854 0,-0.198924 0.04421,-0.382377 0.0442,-0.185663 0.123775,-0.344803 0.08178,-0.159139 0.194504,-0.289545 0.112724,-0.132617 0.249761,-0.225448 0.137037,-0.09283 0.293966,-0.143668 0.15693,-0.05084 0.32491,-0.05084 0.174612,0 0.307228,0.04641 0.134827,0.04642 0.223238,0.128196 0.09062,0.07957 0.137037,0.185663 0.04642,0.106093 0.04642,0.225448 z m -0.369116,0.01768 q 0,-0.139247 -0.103883,-0.216606 -0.101672,-0.07736 -0.271863,-0.07736 -0.134827,0 -0.260813,0.05968 -0.125985,0.05747 -0.232078,0.16135 -0.106093,0.101673 -0.183453,0.245341 -0.07736,0.141457 -0.112724,0.307228 0.316069,0 0.537096,-0.03094 0.221028,-0.03315 0.360275,-0.09504 0.139247,-0.06189 0.203345,-0.150299 0.0641,-0.09062 0.0641,-0.203345 z"
         style="font-style:italic;font-family:'Segoe UI';-inkscape-font-specification:'Segoe UI Italic';text-align:center;text-anchor:middle;fill:#141414;fill-opacity:1"
         id="path46702" /><path
         d="m 22.70055,30.524855 q -0.09946,-0.0641 -0.223238,-0.103883 -0.123775,-0.03978 -0.24755,-0.03978 -0.207766,0 -0.3227,0.09504 -0.112724,0.09504 -0.112724,0.251971 0,0.0641 0.01989,0.117144 0.0221,0.05305 0.06189,0.101673 0.042,0.04642 0.103883,0.09062 0.0641,0.04421 0.145878,0.09504 0.24755,0.143668 0.355854,0.296177 0.110513,0.150298 0.110513,0.340382 0,0.128195 -0.04863,0.251971 -0.04641,0.121565 -0.150298,0.216607 -0.103883,0.09283 -0.269653,0.150298 -0.163561,0.05747 -0.40006,0.05747 -0.06631,0 -0.145878,-0.0088 -0.07957,-0.0088 -0.16135,-0.02652 -0.07957,-0.01768 -0.154719,-0.042 -0.07294,-0.02652 -0.128196,-0.05968 l 0.07294,-0.344802 q 0.04421,0.03094 0.108303,0.06189 0.06631,0.03094 0.141458,0.05526 0.07736,0.02431 0.15914,0.03979 0.08399,0.01547 0.16577,0.01547 0.221027,0 0.329331,-0.08841 0.110514,-0.08841 0.110514,-0.24534 0,-0.05747 -0.01768,-0.106093 -0.01547,-0.04863 -0.05747,-0.09725 -0.042,-0.04863 -0.110513,-0.09725 -0.06852,-0.05084 -0.172402,-0.112724 -0.225448,-0.137037 -0.333751,-0.285126 -0.106093,-0.150298 -0.106093,-0.338171 0,-0.137037 0.05084,-0.260813 0.05084,-0.125985 0.150299,-0.221027 0.101672,-0.09725 0.254181,-0.154719 0.152509,-0.05747 0.355854,-0.05747 0.15914,0 0.300597,0.03094 0.143668,0.03094 0.24313,0.07957 z"
         style="font-style:italic;font-family:'Segoe UI';-inkscape-font-specification:'Segoe UI Italic';text-align:center;text-anchor:middle;fill:#141414;fill-opacity:1"
         id="path46704" /><path
         d="m 25.176057,30.697256 q 0,0.02873 -0.0088,0.08841 -0.0066,0.05747 -0.01768,0.123775 -0.0088,0.06631 -0.0221,0.132617 -0.01105,0.0641 -0.0221,0.108303 l -0.263023,1.239963 H 24.4754 l 0.276284,-1.326164 q 0.0088,-0.03536 0.01768,-0.08178 0.0088,-0.04641 0.01547,-0.09283 0.0066,-0.04642 0.01105,-0.08399 0.0044,-0.03978 0.0044,-0.06189 0,-0.172402 -0.07957,-0.267443 -0.07736,-0.09504 -0.24092,-0.09504 -0.141457,0 -0.282915,0.08399 -0.141457,0.08178 -0.263022,0.214397 -0.121565,0.130406 -0.212186,0.293966 -0.08841,0.16135 -0.123776,0.32049 l -0.236499,1.096295 h -0.366905 l 0.716128,-3.350774 h 0.362485 l -0.344802,1.61792 h 0.0088 q 0.08178,-0.125985 0.179032,-0.232079 0.09725,-0.108303 0.205555,-0.185663 0.110514,-0.07957 0.229869,-0.123775 0.121565,-0.0442 0.249761,-0.0442 0.282915,0 0.428793,0.16798 0.145878,0.165771 0.145878,0.457527 z"
         style="font-style:italic;font-family:'Segoe UI';-inkscape-font-specification:'Segoe UI Italic';text-align:center;text-anchor:middle;fill:#141414;fill-opacity:1"
         id="path46706" /><path
         d="m 26.522112,30.558009 q 0,0.380167 -0.08178,0.720549 -0.08178,0.340382 -0.234289,0.64761 -0.150298,0.305018 -0.366905,0.583512 -0.214397,0.280705 -0.48184,0.541517 h -0.355854 q 0.274074,-0.269653 0.495101,-0.556989 0.221028,-0.285125 0.375747,-0.592353 0.154719,-0.307228 0.238709,-0.636559 0.08399,-0.331541 0.08399,-0.689605 0,-0.176822 -0.02431,-0.355854 -0.0221,-0.179032 -0.06852,-0.353644 -0.04421,-0.174611 -0.110513,-0.338172 -0.06631,-0.16356 -0.152509,-0.307228 h 0.307228 q 0.09283,0.148089 0.16356,0.313859 0.07073,0.165771 0.117145,0.338172 0.04641,0.172401 0.07073,0.347013 0.02431,0.172401 0.02431,0.338172 z"
         style="font-style:italic;font-family:'Segoe UI';-inkscape-font-specification:'Segoe UI Italic';text-align:center;text-anchor:middle;fill:#141414;fill-opacity:1"
         id="path46708" /></g><g
       aria-label="local normals
(normal map)"
       transform="scale(1.0000531,0.9999469)"
       id="text44767"
       style="font-size:4.52664px;line-height:1.25;font-family:'Lucida Console';-inkscape-font-specification:'Lucida Console';letter-spacing:0px;word-spacing:0px;fill:#f48103;stroke-width:0.255208;fill-opacity:1"><path
         d="m 45.922454,5.6035609 q -0.05526,0.017682 -0.125986,0.028734 -0.06852,0.011051 -0.137037,0.011051 -0.223237,0 -0.333751,-0.1105137 -0.110514,-0.1127239 -0.110514,-0.3005972 0,-0.055257 0.01105,-0.1304061 0.01105,-0.075149 0.03536,-0.185663 l 0.56583,-2.6567486 h 0.366905 l -0.56804,2.6655897 q -0.01989,0.092831 -0.02873,0.1436678 -0.0066,0.050836 -0.0066,0.086201 0,0.090621 0.04863,0.1392472 0.05084,0.046416 0.159139,0.046416 0.05747,0 0.09946,-0.00663 0.0442,-0.00663 0.08178,-0.019892 z"
         style="font-style:italic;font-family:'Segoe UI';-inkscape-font-specification:'Segoe UI Italic';text-align:center;text-anchor:middle;fill:#f48103;fill-opacity:1"
         id="path46580" /><path
         d="m 48.424483,4.1867756 q 0,0.3005972 -0.0862,0.5702506 -0.08399,0.2696533 -0.245341,0.4729985 -0.159139,0.2011348 -0.389008,0.3204896 -0.227658,0.1171445 -0.514994,0.1171445 -0.194504,0 -0.351433,-0.061888 -0.154719,-0.061888 -0.265233,-0.1768218 -0.108303,-0.1171445 -0.167981,-0.2807048 -0.05747,-0.1657705 -0.05747,-0.3735362 0,-0.3116485 0.08841,-0.5813019 0.09062,-0.2718636 0.251971,-0.4707882 0.163561,-0.2011349 0.389008,-0.3138588 0.227659,-0.1149342 0.501733,-0.1149342 0.192293,0 0.347012,0.061888 0.15693,0.061888 0.267444,0.1790322 0.110513,0.1149342 0.170191,0.2807047 0.06189,0.1635602 0.06189,0.3713259 z m -0.371326,0.017682 q 0,-0.1436678 -0.03536,-0.2541814 -0.03536,-0.112724 -0.09946,-0.1878733 -0.0641,-0.077359 -0.154719,-0.1171445 -0.09062,-0.041995 -0.203346,-0.041995 -0.194504,0 -0.351433,0.099462 -0.15693,0.099462 -0.265233,0.2630226 -0.108303,0.1613499 -0.167981,0.3691156 -0.05747,0.2055555 -0.05747,0.4221623 0,0.1370369 0.03315,0.2497608 0.03536,0.1105137 0.09725,0.1900836 0.0641,0.07736 0.154719,0.1193547 0.09283,0.041995 0.207766,0.041995 0.196715,0 0.353644,-0.097252 0.156929,-0.099462 0.265233,-0.2608123 0.108303,-0.1635602 0.16577,-0.3713259 0.05747,-0.2077657 0.05747,-0.4243725 z"
         style="font-style:italic;font-family:'Segoe UI';-inkscape-font-specification:'Segoe UI Italic';text-align:center;text-anchor:middle;fill:#f48103;fill-opacity:1"
         id="path46582" /><path
         d="m 50.506561,3.7977675 q -0.09283,-0.08178 -0.225448,-0.137037 -0.130406,-0.057467 -0.289546,-0.057467 -0.152509,0 -0.276284,0.053047 -0.121565,0.053047 -0.216607,0.1414575 -0.09504,0.088411 -0.16356,0.2033451 -0.06852,0.1149343 -0.112724,0.2387096 -0.04421,0.1237753 -0.06631,0.2475506 -0.01989,0.121565 -0.01989,0.2276582 0,0.3160691 0.139247,0.4796293 0.139248,0.1635602 0.380168,0.1635602 0.145878,0 0.302807,-0.059677 0.156929,-0.061888 0.296177,-0.1569294 l -0.07736,0.3624849 q -0.143668,0.07736 -0.287336,0.1193547 -0.141457,0.044205 -0.300597,0.044205 -0.207765,0 -0.362485,-0.070729 -0.152508,-0.070729 -0.254181,-0.194504 -0.101673,-0.1237753 -0.152509,-0.2917561 -0.05084,-0.1701911 -0.05084,-0.3669054 0,-0.185663 0.03757,-0.3646951 0.03757,-0.1812424 0.110513,-0.3403821 0.07515,-0.16135 0.183453,-0.2983869 0.108303,-0.137037 0.247551,-0.234289 0.141457,-0.099462 0.313858,-0.1547191 0.172402,-0.057467 0.373537,-0.057467 0.09504,0 0.181242,0.013262 0.0862,0.013262 0.156929,0.035364 0.07073,0.022103 0.125986,0.048626 0.05526,0.024313 0.08841,0.048626 z"
         style="font-style:italic;font-family:'Segoe UI';-inkscape-font-specification:'Segoe UI Italic';text-align:center;text-anchor:middle;fill:#f48103;fill-opacity:1"
         id="path46584" /><path
         d="m 52.570956,4.8874323 q -0.01768,0.08399 -0.03536,0.1900835 -0.01547,0.1038828 -0.02873,0.2077657 -0.01105,0.1016726 -0.01989,0.1900835 -0.0066,0.088411 -0.0066,0.137037 h -0.375747 q 0.0022,-0.044206 0.0066,-0.1060932 0.0044,-0.061888 0.01105,-0.1281958 0.0088,-0.066308 0.01547,-0.1304061 0.0088,-0.064098 0.01768,-0.1105137 h -0.0088 q -0.06852,0.1083034 -0.139247,0.2055554 -0.07073,0.095042 -0.156929,0.1679808 -0.0862,0.072939 -0.192294,0.1149342 -0.106093,0.041995 -0.249761,0.041995 -0.148088,0 -0.271864,-0.053047 -0.121565,-0.053046 -0.209975,-0.1569294 -0.08841,-0.1060931 -0.137037,-0.2630225 -0.04642,-0.1591397 -0.04642,-0.3691157 0,-0.1281958 0.02652,-0.2917561 0.02652,-0.1635602 0.08841,-0.3337512 0.0641,-0.1701911 0.167981,-0.3315411 0.106093,-0.1635602 0.260812,-0.291756 0.15693,-0.1281959 0.369116,-0.2055555 0.212186,-0.07736 0.49068,-0.07736 0.176822,0 0.364696,0.026523 0.187873,0.026523 0.373536,0.064098 z M 52.467073,3.6474689 q -0.07736,-0.017682 -0.181242,-0.030944 -0.103883,-0.013262 -0.194504,-0.013262 -0.192294,0 -0.340382,0.061888 -0.145879,0.059677 -0.254182,0.1591397 -0.108303,0.097252 -0.183453,0.2254479 -0.07294,0.1281958 -0.117144,0.2630225 -0.04421,0.1326164 -0.0641,0.2630225 -0.01768,0.1304062 -0.01768,0.2364993 0,0.1259856 0.0221,0.2276581 0.0221,0.099462 0.06852,0.1701911 0.04863,0.070729 0.121565,0.1105137 0.07515,0.037575 0.176822,0.037575 0.110514,0 0.205555,-0.044205 0.09725,-0.046416 0.181243,-0.1237754 0.08399,-0.07736 0.152509,-0.1790321 0.06852,-0.1016726 0.123775,-0.2143965 0.05526,-0.1149342 0.09283,-0.2320787 0.03979,-0.1193548 0.0641,-0.2298685 z"
         style="font-style:italic;font-family:'Segoe UI';-inkscape-font-specification:'Segoe UI Italic';text-align:center;text-anchor:middle;fill:#f48103;fill-opacity:1"
         id="path46586" /><path
         d="m 53.943536,5.6035609 q -0.05526,0.017682 -0.125986,0.028734 -0.06852,0.011051 -0.137037,0.011051 -0.223237,0 -0.333751,-0.1105137 -0.110514,-0.1127239 -0.110514,-0.3005972 0,-0.055257 0.01105,-0.1304061 0.01105,-0.075149 0.03536,-0.185663 l 0.56583,-2.6567486 h 0.366905 l -0.56804,2.6655897 q -0.01989,0.092831 -0.02873,0.1436678 -0.0066,0.050836 -0.0066,0.086201 0,0.090621 0.04863,0.1392472 0.05084,0.046416 0.159139,0.046416 0.05747,0 0.09946,-0.00663 0.0442,-0.00663 0.08178,-0.019892 z"
         style="font-style:italic;font-family:'Segoe UI';-inkscape-font-specification:'Segoe UI Italic';text-align:center;text-anchor:middle;fill:#f48103;fill-opacity:1"
         id="path46588" /><path
         d="m 57.751837,3.914912 q 0,0.033154 -0.0088,0.090621 -0.0066,0.057467 -0.01989,0.1237753 -0.01105,0.066308 -0.02431,0.1326164 -0.01105,0.064098 -0.0221,0.1105137 L 57.413665,5.612402 h -0.366906 l 0.276285,-1.3261641 q 0.0088,-0.035364 0.01768,-0.08178 0.0088,-0.046416 0.01547,-0.092831 0.0066,-0.046416 0.01105,-0.08399 0.0044,-0.039785 0.0044,-0.061888 0,-0.1679808 -0.08178,-0.2652328 -0.07957,-0.097252 -0.23871,-0.097252 -0.145878,0 -0.289546,0.086201 -0.143668,0.086201 -0.265233,0.2188171 -0.121565,0.1326164 -0.209976,0.2917561 -0.0862,0.1591396 -0.117144,0.307228 L 55.932782,5.612402 h -0.366906 l 0.349223,-1.6157099 q 0.01768,-0.086201 0.03536,-0.1790321 0.01768,-0.095042 0.03315,-0.1812425 0.01547,-0.088411 0.02652,-0.1635602 0.01105,-0.075149 0.01768,-0.1237753 h 0.353644 q -0.01105,0.086201 -0.02652,0.1812424 -0.01547,0.092831 -0.02652,0.1724013 -0.01326,0.092832 -0.02873,0.1812425 h 0.0088 q 0.07736,-0.1215651 0.170191,-0.2276582 0.09504,-0.1083034 0.203345,-0.1878732 0.110514,-0.08178 0.232079,-0.1281959 0.123775,-0.046416 0.258602,-0.046416 0.150299,0 0.258602,0.046416 0.108303,0.044205 0.179032,0.1259856 0.07294,0.08178 0.106093,0.1967143 0.03536,0.1149342 0.03536,0.2519712 z"
         style="font-style:italic;font-family:'Segoe UI';-inkscape-font-specification:'Segoe UI Italic';text-align:center;text-anchor:middle;fill:#f48103;fill-opacity:1"
         id="path46590" /><path
         d="m 60.233974,4.1867756 q 0,0.3005972 -0.0862,0.5702506 -0.08399,0.2696533 -0.245341,0.4729985 -0.159139,0.2011348 -0.389008,0.3204896 -0.227658,0.1171445 -0.514993,0.1171445 -0.194504,0 -0.351434,-0.061888 -0.154719,-0.061888 -0.265233,-0.1768218 -0.108303,-0.1171445 -0.16798,-0.2807048 -0.05747,-0.1657705 -0.05747,-0.3735362 0,-0.3116485 0.08841,-0.5813019 0.09062,-0.2718636 0.251972,-0.4707882 0.16356,-0.2011349 0.389008,-0.3138588 0.227658,-0.1149342 0.501732,-0.1149342 0.192294,0 0.347013,0.061888 0.156929,0.061888 0.267443,0.1790322 0.110513,0.1149342 0.170191,0.2807047 0.06189,0.1635602 0.06189,0.3713259 z m -0.371325,0.017682 q 0,-0.1436678 -0.03536,-0.2541814 -0.03536,-0.112724 -0.09946,-0.1878733 -0.0641,-0.077359 -0.154719,-0.1171445 -0.09062,-0.041995 -0.203345,-0.041995 -0.194505,0 -0.351434,0.099462 -0.156929,0.099462 -0.265233,0.2630226 -0.108303,0.1613499 -0.167981,0.3691156 -0.05747,0.2055555 -0.05747,0.4221623 0,0.1370369 0.03315,0.2497608 0.03536,0.1105137 0.09725,0.1900836 0.0641,0.07736 0.15472,0.1193547 0.09283,0.041995 0.207765,0.041995 0.196715,0 0.353644,-0.097252 0.156929,-0.099462 0.265233,-0.2608123 0.108303,-0.1635602 0.16577,-0.3713259 0.05747,-0.2077657 0.05747,-0.4243725 z"
         style="font-style:italic;font-family:'Segoe UI';-inkscape-font-specification:'Segoe UI Italic';text-align:center;text-anchor:middle;fill:#f48103;fill-opacity:1"
         id="path46592" /><path
         d="m 62.099445,3.7336696 h -0.0088 q -0.0442,-0.026523 -0.117144,-0.050836 -0.07073,-0.026523 -0.141458,-0.026523 -0.128196,0 -0.24534,0.08399 -0.117145,0.08178 -0.214397,0.2188171 -0.09504,0.1348266 -0.167981,0.3094382 -0.07073,0.1746116 -0.110513,0.3580643 L 60.881584,5.612402 H 60.5191 l 0.318279,-1.502986 q 0.01989,-0.092831 0.03979,-0.194504 0.01989,-0.1016726 0.03536,-0.2033452 0.01768,-0.1016725 0.03094,-0.194504 0.01326,-0.092831 0.01989,-0.1679808 h 0.358064 q -0.0066,0.066308 -0.01547,0.1414575 -0.0088,0.072939 -0.01768,0.1436678 -0.0088,0.068518 -0.01768,0.1259855 -0.0088,0.055257 -0.01326,0.086201 h 0.0088 q 0.07073,-0.1259856 0.143668,-0.2276582 0.07294,-0.1016725 0.152509,-0.1724013 0.08178,-0.072939 0.172401,-0.1127239 0.09062,-0.039785 0.196714,-0.039785 0.06189,0 0.121565,0.013262 0.06189,0.011051 0.110514,0.024313 z"
         style="font-style:italic;font-family:'Segoe UI';-inkscape-font-specification:'Segoe UI Italic';text-align:center;text-anchor:middle;fill:#f48103;fill-opacity:1"
         id="path46594" /><path
         d="m 65.671247,3.9193325 q 0,0.028734 -0.0088,0.088411 -0.0066,0.057467 -0.01989,0.1237753 -0.01105,0.066308 -0.02431,0.1326164 -0.01105,0.064098 -0.01989,0.1083034 L 65.330865,5.612402 H 64.96838 l 0.276284,-1.3261641 q 0.0088,-0.037575 0.01768,-0.08399 0.0088,-0.046416 0.01547,-0.090621 0.0088,-0.046416 0.01326,-0.08399 0.0044,-0.039785 0.0044,-0.061888 0,-0.1746116 -0.07515,-0.2674431 -0.07515,-0.095042 -0.234289,-0.095042 -0.08399,0 -0.174612,0.039785 -0.08841,0.037575 -0.174611,0.1038828 -0.08399,0.066308 -0.163561,0.1547191 -0.07736,0.088411 -0.143667,0.1900836 -0.0641,0.099462 -0.110514,0.2055554 -0.04642,0.1038828 -0.06852,0.2055554 l -0.2365,1.1095573 h -0.366905 l 0.280705,-1.3261641 q 0.0088,-0.037575 0.01768,-0.08399 0.0088,-0.046416 0.01547,-0.090621 0.0088,-0.046416 0.01326,-0.08399 0.0044,-0.039785 0.0044,-0.061888 0,-0.1746116 -0.07736,-0.2674431 -0.07736,-0.095042 -0.232078,-0.095042 -0.0862,0 -0.176822,0.039785 -0.09062,0.037575 -0.176822,0.1060931 -0.0862,0.066308 -0.165771,0.1569294 -0.07736,0.088411 -0.143667,0.1900835 -0.0641,0.099462 -0.110514,0.2055554 -0.04421,0.1038829 -0.06631,0.2055555 L 62.492874,5.612402 h -0.366906 l 0.349223,-1.6157099 q 0.01768,-0.086201 0.03536,-0.1790321 0.01768,-0.095042 0.03315,-0.1812425 0.01547,-0.088411 0.02652,-0.1635602 0.01105,-0.075149 0.01768,-0.1237753 h 0.353644 q -0.01105,0.086201 -0.02652,0.1812424 -0.01547,0.092831 -0.02652,0.1724013 -0.01326,0.092832 -0.02873,0.1812425 h 0.0088 q 0.07957,-0.1281959 0.172401,-0.2364993 0.09283,-0.1083034 0.196715,-0.185663 0.103883,-0.07957 0.216606,-0.1237753 0.112724,-0.044205 0.234289,-0.044205 0.141458,0 0.243131,0.041995 0.101672,0.041995 0.16798,0.1193547 0.06852,0.075149 0.103883,0.1834527 0.03536,0.1083034 0.042,0.2409198 0.08178,-0.1237753 0.174612,-0.2298684 0.09504,-0.1083034 0.201135,-0.185663 0.108303,-0.07957 0.227658,-0.1237753 0.121565,-0.046416 0.256392,-0.046416 0.282915,0 0.424372,0.1657705 0.141458,0.1635602 0.141458,0.4597368 z"
         style="font-style:italic;font-family:'Segoe UI';-inkscape-font-specification:'Segoe UI Italic';text-align:center;text-anchor:middle;fill:#f48103;fill-opacity:1"
         id="path46596" /><path
         d="m 67.901412,4.8874323 q -0.01768,0.08399 -0.03536,0.1900835 -0.01547,0.1038828 -0.02873,0.2077657 -0.01105,0.1016726 -0.01989,0.1900835 -0.0066,0.088411 -0.0066,0.137037 h -0.375747 q 0.0022,-0.044206 0.0066,-0.1060932 0.0044,-0.061888 0.01105,-0.1281958 0.0088,-0.066308 0.01547,-0.1304061 0.0088,-0.064098 0.01768,-0.1105137 h -0.0088 q -0.06852,0.1083034 -0.139247,0.2055554 -0.07073,0.095042 -0.156929,0.1679808 -0.0862,0.072939 -0.192294,0.1149342 -0.106093,0.041995 -0.249761,0.041995 -0.148088,0 -0.271864,-0.053047 -0.121565,-0.053046 -0.209976,-0.1569294 -0.08841,-0.1060931 -0.137037,-0.2630225 -0.04641,-0.1591397 -0.04641,-0.3691157 0,-0.1281958 0.02652,-0.2917561 0.02652,-0.1635602 0.08841,-0.3337512 0.0641,-0.1701911 0.167981,-0.3315411 0.106093,-0.1635602 0.260812,-0.291756 0.156929,-0.1281959 0.369116,-0.2055555 0.212186,-0.07736 0.49068,-0.07736 0.176822,0 0.364695,0.026523 0.187874,0.026523 0.373537,0.064098 z M 67.797529,3.6474689 q -0.07736,-0.017682 -0.181243,-0.030944 -0.103882,-0.013262 -0.194504,-0.013262 -0.192293,0 -0.340382,0.061888 -0.145878,0.059677 -0.254181,0.1591397 -0.108304,0.097252 -0.183453,0.2254479 -0.07294,0.1281958 -0.117144,0.2630225 -0.04421,0.1326164 -0.0641,0.2630225 -0.01768,0.1304062 -0.01768,0.2364993 0,0.1259856 0.0221,0.2276581 0.0221,0.099462 0.06852,0.1701911 0.04863,0.070729 0.121565,0.1105137 0.07515,0.037575 0.176822,0.037575 0.110513,0 0.205555,-0.044205 0.09725,-0.046416 0.181243,-0.1237754 0.08399,-0.07736 0.152508,-0.1790321 0.06852,-0.1016726 0.123776,-0.2143965 0.05526,-0.1149342 0.09283,-0.2320787 0.03978,-0.1193548 0.0641,-0.2298685 z"
         style="font-style:italic;font-family:'Segoe UI';-inkscape-font-specification:'Segoe UI Italic';text-align:center;text-anchor:middle;fill:#f48103;fill-opacity:1"
         id="path46598" /><path
         d="m 69.273991,5.6035609 q -0.05526,0.017682 -0.125985,0.028734 -0.06852,0.011051 -0.137037,0.011051 -0.223238,0 -0.333751,-0.1105137 -0.110514,-0.1127239 -0.110514,-0.3005972 0,-0.055257 0.01105,-0.1304061 0.01105,-0.075149 0.03536,-0.185663 l 0.56583,-2.6567486 h 0.366905 l -0.56804,2.6655897 q -0.01989,0.092831 -0.02873,0.1436678 -0.0066,0.050836 -0.0066,0.086201 0,0.090621 0.04863,0.1392472 0.05084,0.046416 0.15914,0.046416 0.05747,0 0.09946,-0.00663 0.04421,-0.00663 0.08178,-0.019892 z"
         style="font-style:italic;font-family:'Segoe UI';-inkscape-font-specification:'Segoe UI Italic';text-align:center;text-anchor:middle;fill:#f48103;fill-opacity:1"
         id="path46600" /><path
         d="m 71.128412,3.7469312 q -0.09946,-0.064098 -0.223238,-0.1038828 -0.123775,-0.039785 -0.24755,-0.039785 -0.207766,0 -0.3227,0.095042 -0.112724,0.095042 -0.112724,0.2519712 0,0.064098 0.01989,0.1171445 0.0221,0.053046 0.06189,0.1016725 0.042,0.046416 0.103883,0.090621 0.0641,0.044206 0.145878,0.095042 0.24755,0.1436678 0.355854,0.2961766 0.110513,0.1502986 0.110513,0.3403821 0,0.1281959 -0.04863,0.2519712 -0.04641,0.121565 -0.150298,0.2166068 -0.103883,0.092831 -0.269654,0.1502986 -0.16356,0.057467 -0.400059,0.057467 -0.06631,0 -0.145878,-0.00884 -0.07957,-0.00884 -0.16135,-0.026523 -0.07957,-0.017682 -0.154719,-0.041995 -0.07294,-0.026523 -0.128196,-0.059677 l 0.07294,-0.3448026 q 0.04421,0.030944 0.108303,0.061888 0.06631,0.030944 0.141458,0.055257 0.07736,0.024313 0.15914,0.039785 0.08399,0.015472 0.16577,0.015472 0.221027,0 0.329331,-0.088411 0.110513,-0.088411 0.110513,-0.2453404 0,-0.057467 -0.01768,-0.1060931 -0.01547,-0.048626 -0.05747,-0.097252 -0.042,-0.048626 -0.110513,-0.097252 -0.06852,-0.050836 -0.172402,-0.112724 Q 70.06527,4.4741112 69.956967,4.3260228 69.850874,4.1757242 69.850874,3.987851 q 0,-0.1370369 0.05084,-0.2608123 0.05084,-0.1259855 0.150299,-0.2210273 0.101672,-0.097252 0.254181,-0.1547191 0.152509,-0.057467 0.355854,-0.057467 0.15914,0 0.300597,0.030944 0.143668,0.030944 0.24313,0.07957 z"
         style="font-style:italic;font-family:'Segoe UI';-inkscape-font-specification:'Segoe UI Italic';text-align:center;text-anchor:middle;fill:#f48103;fill-opacity:1"
         id="path46602" /><path
         d="m 46.518122,8.1769263 q -0.274073,0.2696533 -0.495101,0.5569889 -0.218817,0.2873355 -0.373536,0.5945635 -0.154719,0.307228 -0.23871,0.638769 -0.08399,0.3293303 -0.08399,0.6873953 0,0.176822 0.0221,0.358064 0.02431,0.179032 0.07073,0.351434 0.04641,0.174611 0.112724,0.338171 0.06631,0.163561 0.152508,0.305018 h -0.311648 q -0.09283,-0.145878 -0.16356,-0.311648 -0.06852,-0.163561 -0.114935,-0.335962 -0.04642,-0.172401 -0.07073,-0.347013 -0.0221,-0.174612 -0.0221,-0.340382 0,-0.382377 0.08178,-0.7205492 0.08178,-0.3403821 0.232079,-0.6476101 0.150298,-0.307228 0.364695,-0.5857224 0.216607,-0.2807047 0.48405,-0.541517 z"
         style="font-style:italic;font-family:'Segoe UI';-inkscape-font-specification:'Segoe UI Italic';text-align:center;text-anchor:middle;fill:#f48103;fill-opacity:1"
         id="path46604" /><path
         d="m 48.410117,9.6489684 q 0,0.033154 -0.0088,0.090621 -0.0066,0.057467 -0.01989,0.1237753 -0.01105,0.066308 -0.02431,0.1326164 -0.01105,0.064098 -0.0221,0.1105137 l -0.263022,1.239963 h -0.366906 l 0.276284,-1.326164 q 0.0088,-0.035364 0.01768,-0.08178 0.0088,-0.046416 0.01547,-0.092832 0.0066,-0.046416 0.01105,-0.08399 0.0044,-0.039785 0.0044,-0.061888 0,-0.1679808 -0.08178,-0.2652328 -0.07957,-0.097252 -0.238709,-0.097252 -0.145878,0 -0.289546,0.086201 -0.143668,0.086201 -0.265233,0.2188171 -0.121565,0.1326164 -0.209976,0.291756 -0.0862,0.1591394 -0.117144,0.3072284 l -0.2365,1.105136 h -0.366905 l 0.349223,-1.6157095 q 0.01768,-0.086201 0.03536,-0.1790322 0.01768,-0.095042 0.03315,-0.1812424 0.01547,-0.088411 0.02652,-0.1635602 0.01105,-0.075149 0.01768,-0.1237753 h 0.353644 q -0.01105,0.086201 -0.02652,0.1812424 -0.01547,0.092832 -0.02652,0.1724013 -0.01326,0.092831 -0.02873,0.1812425 h 0.0088 q 0.07736,-0.1215651 0.170191,-0.2276582 0.09504,-0.1083034 0.203345,-0.1878732 0.110514,-0.08178 0.232079,-0.1281959 0.123775,-0.046416 0.258602,-0.046416 0.150298,0 0.258602,0.046416 0.108303,0.044206 0.179032,0.1259856 0.07294,0.08178 0.106093,0.1967143 0.03536,0.1149342 0.03536,0.2519712 z"
         style="font-style:italic;font-family:'Segoe UI';-inkscape-font-specification:'Segoe UI Italic';text-align:center;text-anchor:middle;fill:#f48103;fill-opacity:1"
         id="path46606" /><path
         d="m 50.892254,9.920832 q 0,0.300597 -0.0862,0.570251 -0.08399,0.269653 -0.24534,0.472998 -0.15914,0.201135 -0.389009,0.32049 -0.227658,0.117144 -0.514993,0.117144 -0.194504,0 -0.351434,-0.06189 -0.154719,-0.06189 -0.265233,-0.176822 -0.108303,-0.117145 -0.16798,-0.280705 -0.05747,-0.165771 -0.05747,-0.373536 0,-0.311649 0.08841,-0.5813022 0.09062,-0.2718636 0.251972,-0.4707882 0.16356,-0.2011349 0.389008,-0.3138588 0.227658,-0.1149342 0.501732,-0.1149342 0.192294,0 0.347013,0.061888 0.156929,0.061888 0.267443,0.1790322 0.110514,0.1149342 0.170191,0.2807047 0.06189,0.1635602 0.06189,0.3713259 z m -0.371326,0.017682 q 0,-0.1436678 -0.03536,-0.2541814 -0.03536,-0.112724 -0.09946,-0.1878733 -0.0641,-0.07736 -0.154719,-0.1171445 -0.09062,-0.041995 -0.203345,-0.041995 -0.194504,0 -0.351434,0.099462 -0.156929,0.099462 -0.265233,0.2630226 -0.108303,0.1613499 -0.16798,0.3691153 -0.05747,0.205556 -0.05747,0.422163 0,0.137036 0.03316,0.24976 0.03536,0.110514 0.09725,0.190084 0.0641,0.07736 0.154719,0.119355 0.09283,0.042 0.207765,0.042 0.196715,0 0.353644,-0.09725 0.15693,-0.09946 0.265233,-0.260812 0.108303,-0.163561 0.165771,-0.371326 0.05747,-0.207766 0.05747,-0.4243728 z"
         style="font-style:italic;font-family:'Segoe UI';-inkscape-font-specification:'Segoe UI Italic';text-align:center;text-anchor:middle;fill:#f48103;fill-opacity:1"
         id="path46608" /><path
         d="m 52.757725,9.467726 h -0.0088 q -0.0442,-0.026523 -0.117144,-0.050836 -0.07073,-0.026523 -0.141458,-0.026523 -0.128195,0 -0.24534,0.08399 -0.117144,0.08178 -0.214396,0.218817 -0.09504,0.1348267 -0.167981,0.3094382 -0.07073,0.174612 -0.110514,0.358064 l -0.212186,0.985782 h -0.362485 l 0.318279,-1.5029856 q 0.01989,-0.092831 0.03979,-0.194504 0.01989,-0.1016726 0.03536,-0.2033452 0.01768,-0.1016726 0.03094,-0.194504 0.01326,-0.092831 0.01989,-0.1679808 h 0.358064 q -0.0066,0.066308 -0.01547,0.1414575 -0.0088,0.072939 -0.01768,0.1436678 -0.0088,0.068518 -0.01768,0.1259855 -0.0088,0.055257 -0.01326,0.086201 h 0.0088 q 0.07073,-0.1259856 0.143668,-0.2276582 0.07294,-0.1016725 0.152509,-0.1724013 0.08178,-0.072939 0.172401,-0.1127239 0.09062,-0.039785 0.196715,-0.039785 0.06189,0 0.121565,0.013262 0.06189,0.011051 0.110513,0.024313 z"
         style="font-style:italic;font-family:'Segoe UI';-inkscape-font-specification:'Segoe UI Italic';text-align:center;text-anchor:middle;fill:#f48103;fill-opacity:1"
         id="path46610" /><path
         d="m 56.329526,9.6533889 q 0,0.028734 -0.0088,0.088411 -0.0066,0.057467 -0.01989,0.1237753 -0.01105,0.066308 -0.02431,0.1326164 -0.01105,0.064098 -0.01989,0.1083034 l -0.267443,1.239963 h -0.362485 l 0.276284,-1.326164 q 0.0088,-0.037574 0.01768,-0.08399 0.0088,-0.046416 0.01547,-0.090621 0.0088,-0.046416 0.01326,-0.08399 0.0044,-0.039785 0.0044,-0.061888 0,-0.1746116 -0.07515,-0.2674431 -0.07515,-0.095042 -0.234289,-0.095042 -0.08399,0 -0.174611,0.039785 -0.08841,0.037575 -0.174612,0.1038829 -0.08399,0.066308 -0.16356,0.1547191 -0.07736,0.088411 -0.143668,0.1900836 -0.0641,0.099462 -0.110514,0.2055557 -0.04641,0.103883 -0.06852,0.205555 l -0.236499,1.109557 h -0.366906 l 0.280705,-1.326164 q 0.0088,-0.037574 0.01768,-0.08399 0.0088,-0.046416 0.01547,-0.090621 0.0088,-0.046416 0.01326,-0.08399 0.0044,-0.039785 0.0044,-0.061888 0,-0.1746116 -0.07736,-0.2674431 -0.07736,-0.095042 -0.232079,-0.095042 -0.0862,0 -0.176822,0.039785 -0.09062,0.037575 -0.176822,0.1060932 -0.0862,0.066308 -0.16577,0.1569294 -0.07736,0.088411 -0.143668,0.1900835 -0.0641,0.099462 -0.110514,0.2055552 -0.04421,0.103883 -0.06631,0.205556 l -0.236499,1.105136 h -0.366906 l 0.349224,-1.6157095 q 0.01768,-0.086201 0.03536,-0.1790322 0.01768,-0.095042 0.03315,-0.1812424 0.01547,-0.088411 0.02652,-0.1635602 0.01105,-0.075149 0.01768,-0.1237753 h 0.353643 q -0.01105,0.086201 -0.02652,0.1812424 -0.01547,0.092832 -0.02652,0.1724013 -0.01326,0.092831 -0.02873,0.1812425 h 0.0088 q 0.07957,-0.1281959 0.172402,-0.2364993 0.09283,-0.1083034 0.196714,-0.185663 0.103883,-0.07957 0.216607,-0.1237753 0.112724,-0.044205 0.234289,-0.044205 0.141457,0 0.24313,0.041995 0.101672,0.041995 0.167981,0.1193548 0.06852,0.075149 0.103882,0.1834527 0.03536,0.1083034 0.042,0.2409198 0.08178,-0.1237753 0.174611,-0.2298684 0.09504,-0.1083034 0.201135,-0.185663 0.108304,-0.07957 0.227658,-0.1237753 0.121565,-0.046416 0.256392,-0.046416 0.282915,0 0.424373,0.1657705 0.141457,0.1635602 0.141457,0.4597368 z"
         style="font-style:italic;font-family:'Segoe UI';-inkscape-font-specification:'Segoe UI Italic';text-align:center;text-anchor:middle;fill:#f48103;fill-opacity:1"
         id="path46612" /><path
         d="m 58.559692,10.621489 q -0.01768,0.08399 -0.03536,0.190083 -0.01547,0.103883 -0.02873,0.207766 -0.01105,0.101672 -0.01989,0.190083 -0.0066,0.08841 -0.0066,0.137037 h -0.375747 q 0.0022,-0.0442 0.0066,-0.106093 0.0044,-0.06189 0.01105,-0.128196 0.0088,-0.06631 0.01547,-0.130406 0.0088,-0.0641 0.01768,-0.110513 h -0.0088 q -0.06852,0.108303 -0.139248,0.205555 -0.07073,0.09504 -0.156929,0.167981 -0.0862,0.07294 -0.192294,0.114934 -0.106093,0.042 -0.249761,0.042 -0.148088,0 -0.271863,-0.05305 -0.121565,-0.05305 -0.209976,-0.15693 -0.08841,-0.106093 -0.137037,-0.263022 -0.04642,-0.15914 -0.04642,-0.369116 0,-0.128196 0.02652,-0.291756 0.02652,-0.16356 0.08841,-0.3337514 0.0641,-0.170191 0.167981,-0.331541 0.106093,-0.1635602 0.260812,-0.2917561 0.15693,-0.1281958 0.369116,-0.2055554 0.212186,-0.07736 0.490681,-0.07736 0.176821,0 0.364695,0.026523 0.187873,0.026523 0.373536,0.064098 z M 58.455809,9.3815253 q -0.07736,-0.017682 -0.181242,-0.030944 -0.103883,-0.013262 -0.194504,-0.013262 -0.192294,0 -0.340382,0.061888 -0.145878,0.059677 -0.254182,0.1591397 -0.108303,0.097252 -0.183453,0.2254479 -0.07294,0.1281958 -0.117144,0.2630229 -0.0442,0.132616 -0.0641,0.263022 -0.01768,0.130406 -0.01768,0.236499 0,0.125986 0.0221,0.227659 0.0221,0.09946 0.06852,0.170191 0.04863,0.07073 0.121565,0.110513 0.07515,0.03757 0.176822,0.03757 0.110514,0 0.205555,-0.04421 0.09725,-0.04641 0.181243,-0.123775 0.08399,-0.07736 0.152509,-0.179032 0.06852,-0.101673 0.123775,-0.214397 0.05526,-0.114934 0.09283,-0.232078 0.03978,-0.119355 0.0641,-0.229869 z"
         style="font-style:italic;font-family:'Segoe UI';-inkscape-font-specification:'Segoe UI Italic';text-align:center;text-anchor:middle;fill:#f48103;fill-opacity:1"
         id="path46614" /><path
         d="m 59.932272,11.337617 q -0.05526,0.01768 -0.125986,0.02873 -0.06852,0.01105 -0.137037,0.01105 -0.223237,0 -0.333751,-0.110513 -0.110514,-0.112724 -0.110514,-0.300598 0,-0.05526 0.01105,-0.130406 0.01105,-0.07515 0.03536,-0.185663 l 0.56583,-2.6567484 h 0.366905 l -0.56804,2.6655894 q -0.01989,0.09283 -0.02873,0.143668 -0.0066,0.05084 -0.0066,0.0862 0,0.09062 0.04863,0.139247 0.05084,0.04642 0.15914,0.04642 0.05747,0 0.09946,-0.0066 0.04421,-0.0066 0.08178,-0.01989 z"
         style="font-style:italic;font-family:'Segoe UI';-inkscape-font-specification:'Segoe UI Italic';text-align:center;text-anchor:middle;fill:#f48103;fill-opacity:1"
         id="path46616" /><path
         d="m 65.082209,9.6533889 q 0,0.028734 -0.0088,0.088411 -0.0066,0.057467 -0.01989,0.1237753 -0.01105,0.066308 -0.02431,0.1326164 -0.01105,0.064098 -0.01989,0.1083034 l -0.267443,1.239963 h -0.362485 l 0.276284,-1.326164 q 0.0088,-0.037574 0.01768,-0.08399 0.0088,-0.046416 0.01547,-0.090621 0.0088,-0.046416 0.01326,-0.08399 0.0044,-0.039785 0.0044,-0.061888 0,-0.1746116 -0.07515,-0.2674431 -0.07515,-0.095042 -0.234289,-0.095042 -0.08399,0 -0.174612,0.039785 -0.08841,0.037575 -0.174611,0.1038829 -0.08399,0.066308 -0.16356,0.1547191 -0.07736,0.088411 -0.143668,0.1900836 -0.0641,0.099462 -0.110514,0.2055557 -0.04642,0.103883 -0.06852,0.205555 l -0.2365,1.109557 h -0.366905 l 0.280705,-1.326164 q 0.0088,-0.037574 0.01768,-0.08399 0.0088,-0.046416 0.01547,-0.090621 0.0088,-0.046416 0.01326,-0.08399 0.0044,-0.039785 0.0044,-0.061888 0,-0.1746116 -0.07736,-0.2674431 -0.07736,-0.095042 -0.232078,-0.095042 -0.0862,0 -0.176822,0.039785 -0.09062,0.037575 -0.176822,0.1060932 -0.0862,0.066308 -0.165771,0.1569294 -0.07736,0.088411 -0.143667,0.1900835 -0.0641,0.099462 -0.110514,0.2055552 -0.0442,0.103883 -0.06631,0.205556 l -0.236499,1.105136 H 61.53693 l 0.349223,-1.6157095 q 0.01768,-0.086201 0.03536,-0.1790322 0.01768,-0.095042 0.03315,-0.1812424 0.01547,-0.088411 0.02652,-0.1635602 0.01105,-0.075149 0.01768,-0.1237753 h 0.353644 q -0.01105,0.086201 -0.02652,0.1812424 -0.01547,0.092832 -0.02652,0.1724013 -0.01326,0.092831 -0.02873,0.1812425 h 0.0088 q 0.07957,-0.1281959 0.172401,-0.2364993 0.09283,-0.1083034 0.196715,-0.185663 0.103883,-0.07957 0.216606,-0.1237753 0.112724,-0.044205 0.234289,-0.044205 0.141458,0 0.243131,0.041995 0.101672,0.041995 0.16798,0.1193548 0.06852,0.075149 0.103883,0.1834527 0.03536,0.1083034 0.042,0.2409198 0.08178,-0.1237753 0.174612,-0.2298684 0.09504,-0.1083034 0.201135,-0.185663 0.108303,-0.07957 0.227658,-0.1237753 0.121565,-0.046416 0.256392,-0.046416 0.282915,0 0.424372,0.1657705 0.141458,0.1635602 0.141458,0.4597368 z"
         style="font-style:italic;font-family:'Segoe UI';-inkscape-font-specification:'Segoe UI Italic';text-align:center;text-anchor:middle;fill:#f48103;fill-opacity:1"
         id="path46618" /><path
         d="m 67.312374,10.621489 q -0.01768,0.08399 -0.03536,0.190083 -0.01547,0.103883 -0.02873,0.207766 -0.01105,0.101672 -0.01989,0.190083 -0.0066,0.08841 -0.0066,0.137037 h -0.375747 q 0.0022,-0.0442 0.0066,-0.106093 0.0044,-0.06189 0.01105,-0.128196 0.0088,-0.06631 0.01547,-0.130406 0.0088,-0.0641 0.01768,-0.110513 h -0.0088 q -0.06852,0.108303 -0.139247,0.205555 -0.07073,0.09504 -0.156929,0.167981 -0.0862,0.07294 -0.192294,0.114934 -0.106093,0.042 -0.249761,0.042 -0.148088,0 -0.271864,-0.05305 -0.121565,-0.05305 -0.209976,-0.15693 -0.08841,-0.106093 -0.137037,-0.263022 -0.04642,-0.15914 -0.04642,-0.369116 0,-0.128196 0.02652,-0.291756 0.02652,-0.16356 0.08841,-0.3337514 0.0641,-0.170191 0.167981,-0.331541 0.106093,-0.1635602 0.260812,-0.2917561 0.156929,-0.1281958 0.369116,-0.2055554 0.212186,-0.07736 0.49068,-0.07736 0.176822,0 0.364695,0.026523 0.187874,0.026523 0.373537,0.064098 z M 67.208491,9.3815253 q -0.07736,-0.017682 -0.181242,-0.030944 -0.103883,-0.013262 -0.194505,-0.013262 -0.192293,0 -0.340382,0.061888 -0.145878,0.059677 -0.254181,0.1591397 -0.108304,0.097252 -0.183453,0.2254479 -0.07294,0.1281958 -0.117144,0.2630229 -0.04421,0.132616 -0.0641,0.263022 -0.01768,0.130406 -0.01768,0.236499 0,0.125986 0.0221,0.227659 0.0221,0.09946 0.06852,0.170191 0.04863,0.07073 0.121565,0.110513 0.07515,0.03757 0.176822,0.03757 0.110513,0 0.205555,-0.04421 0.09725,-0.04641 0.181243,-0.123775 0.08399,-0.07736 0.152508,-0.179032 0.06852,-0.101673 0.123776,-0.214397 0.05526,-0.114934 0.09283,-0.232078 0.03978,-0.119355 0.0641,-0.229869 z"
         style="font-style:italic;font-family:'Segoe UI';-inkscape-font-specification:'Segoe UI Italic';text-align:center;text-anchor:middle;fill:#f48103;fill-opacity:1"
         id="path46620" /><path
         d="m 70.046482,9.8744163 q 0,0.1635597 -0.03536,0.3403817 -0.03536,0.174612 -0.108304,0.344803 -0.07294,0.170191 -0.183452,0.3227 -0.108304,0.152509 -0.256392,0.269653 -0.148089,0.114935 -0.335962,0.183453 -0.187873,0.06631 -0.415531,0.06631 -0.130406,0 -0.258602,-0.02431 -0.125986,-0.02431 -0.221028,-0.05747 L 68.0064,12.396338 h -0.366906 l 0.552569,-2.6169635 q 0.01547,-0.070729 0.02873,-0.170191 0.01326,-0.099462 0.0221,-0.1989246 0.01105,-0.1016726 0.01768,-0.1900836 0.0066,-0.088411 0.0066,-0.1370369 h 0.371326 q 0,0.037575 -0.0066,0.1016726 -0.0044,0.064098 -0.01326,0.1348266 -0.0088,0.068518 -0.01768,0.1348267 -0.0088,0.064098 -0.01547,0.1038829 h 0.0088 q 0.15693,-0.2674431 0.353644,-0.3978492 0.196714,-0.1326164 0.428793,-0.1326164 0.154719,0 0.278495,0.053046 0.123775,0.053047 0.209976,0.1591397 0.08841,0.1060931 0.134826,0.2652328 0.04642,0.1591397 0.04642,0.3691157 z m -0.371326,0.015472 q 0,-0.1193548 -0.0221,-0.2210274 -0.01989,-0.1016725 -0.06852,-0.1746116 -0.04863,-0.072939 -0.125986,-0.1149342 -0.07515,-0.041995 -0.185663,-0.041995 -0.114934,0 -0.216607,0.048626 -0.09946,0.046416 -0.185662,0.1259856 -0.0862,0.07957 -0.15693,0.185663 -0.07073,0.1038828 -0.125985,0.2166068 -0.05526,0.1127238 -0.09504,0.2276578 -0.03758,0.112724 -0.05747,0.212187 l -0.139248,0.656451 q 0.03978,0.01768 0.09504,0.03315 0.05526,0.01326 0.114934,0.02431 0.05968,0.01105 0.121565,0.01768 0.06189,0.0066 0.114935,0.0066 0.152509,0 0.280704,-0.05084 0.130407,-0.05084 0.232079,-0.137037 0.103883,-0.08841 0.181243,-0.205556 0.07957,-0.119355 0.132616,-0.251971 0.05305,-0.134827 0.07957,-0.276284 0.02652,-0.143668 0.02652,-0.2807048 z"
         style="font-style:italic;font-family:'Segoe UI';-inkscape-font-specification:'Segoe UI Italic';text-align:center;text-anchor:middle;fill:#f48103;fill-opacity:1"
         id="path46622" /><path
         d="m 71.332861,9.5141417 q 0,0.380167 -0.08178,0.7205493 -0.08178,0.340382 -0.234289,0.64761 -0.150299,0.305018 -0.366905,0.583512 -0.214397,0.280705 -0.48184,0.541517 h -0.355854 q 0.274074,-0.269653 0.495101,-0.556989 0.221028,-0.285125 0.375747,-0.592353 0.154719,-0.307228 0.238709,-0.636559 0.08399,-0.3315408 0.08399,-0.6896051 0,-0.1768219 -0.02431,-0.355854 -0.0221,-0.1790322 -0.06852,-0.3536438 -0.04421,-0.1746116 -0.110514,-0.3381718 -0.06631,-0.1635602 -0.152508,-0.307228 h 0.307228 q 0.09283,0.1480883 0.16356,0.3138588 0.07073,0.1657705 0.117144,0.3381718 0.04642,0.1724014 0.07073,0.347013 0.02431,0.1724013 0.02431,0.3381718 z"
         style="font-style:italic;font-family:'Segoe UI';-inkscape-font-specification:'Segoe UI Italic';text-align:center;text-anchor:middle;fill:#f48103;fill-opacity:1"
         id="path46624" /></g><g
       id="g50109"
       style="stroke:#f48103;stroke-opacity:1"><path
         style="fill:none;stroke:#f48103;stroke-width:0.33225;stroke-linejoin:round;stroke-dasharray:none;stroke-opacity:1"
         d="M 16.540651,6.742193 19.616176,4.897998"
         id="path45201"
         sodipodi:nodetypes="cc" /><path
         style="fill:none;stroke:#f48103;stroke-width:0.33225;stroke-linejoin:round;stroke-dasharray:none;stroke-opacity:1"
         d="M 11.992078,4.285713 12.945001,0.95519697"
         id="path45203"
         sodipodi:nodetypes="cc" /><path
         style="fill:none;stroke:#f48103;stroke-width:0.33225;stroke-linejoin:round;stroke-dasharray:none;stroke-opacity:1"
         d="M 21.237485,9.617515 21.73293,6.381796"
         id="path45205"
         sodipodi:nodetypes="cc" /><path
         style="fill:none;stroke:#f48103;stroke-width:0.33225;stroke-linejoin:round;stroke-dasharray:none;stroke-opacity:1"
         d="M 25.53463,12.04363 26.94426,8.721232"
         id="path45207"
         sodipodi:nodetypes="cc" /><path
         style="fill:none;stroke:#f48103;stroke-width:0.33225;stroke-linejoin:round;stroke-dasharray:none;stroke-opacity:1"
         d="m 29.731549,14.563494 3.09812,-1.767756"
         id="path45209"
         sodipodi:nodetypes="cc" /><path
         style="fill:none;stroke:#f48103;stroke-width:0.33225;stroke-linejoin:round;stroke-dasharray:none;stroke-opacity:1"
         d="m 34.828639,17.564627 0.8695,-3.245018"
         id="path45211"
         sodipodi:nodetypes="cc" /><path
         style="fill:none;stroke:#f48103;stroke-width:0.33225;stroke-linejoin:round;stroke-dasharray:none;stroke-opacity:1"
         d="m 39.845714,20.478812 1.66831,-2.889601"
         id="path45213"
         sodipodi:nodetypes="cc" /><path
         style="fill:none;stroke:#f48103;stroke-width:0.33225;stroke-linejoin:round;stroke-dasharray:none;stroke-opacity:1"
         d="m 44.613842,23.200085 2.33419,-2.043812"
         id="path45215"
         sodipodi:nodetypes="cc" /><path
         style="fill:none;stroke:#f48103;stroke-width:0.33225;stroke-linejoin:round;stroke-dasharray:none;stroke-opacity:1"
         d="m 49.277369,26.095929 0.85678,-2.718256"
         id="path45217"
         sodipodi:nodetypes="cc" /><path
         style="fill:none;stroke:#f48103;stroke-width:0.33225;stroke-linejoin:round;stroke-dasharray:none;stroke-opacity:1"
         d="m 54.461684,26.375117 -1.83556,-2.676335"
         id="path45219"
         sodipodi:nodetypes="cc" /><path
         style="fill:none;stroke:#f48103;stroke-width:0.33225;stroke-linejoin:round;stroke-dasharray:none;stroke-opacity:1"
         d="m 58.547216,24.911023 0.0968,-3.108244"
         id="path45221"
         sodipodi:nodetypes="cc" /><path
         style="fill:none;stroke:#f48103;stroke-width:0.33225;stroke-linejoin:round;stroke-dasharray:none;stroke-opacity:1"
         d="M 7.5108799,4.954641 4.9899288,2.433691"
         id="path45223"
         sodipodi:nodetypes="cc" /><path
         style="fill:none;stroke:#f48103;stroke-width:0.33225;stroke-linejoin:round;stroke-dasharray:none;stroke-opacity:1"
         d="M 3.1218086,8.581516 2.2360166,5.275697"
         id="path45225"
         sodipodi:nodetypes="cc" /></g><path
       style="fill:none;stroke:#141414;stroke-width:0.48225;stroke-linejoin:round;stroke-dasharray:none;stroke-opacity:1"
       d="M 1.4245239,10.022899 9.9421969,2.924838 51.885286,27.574469 61.435405,23.831855"
       id="path44385" /><path
       style="fill:#f7b062;fill-opacity:1;stroke:#099fe7;stroke-width:0.18225;stroke-linejoin:round;stroke-dasharray:none;stroke-opacity:1"
       d="m 111.41781,17.499035 -2.14128,5.339826"
       id="path45281"
       sodipodi:nodetypes="cc" /><path
       style="fill:#f7b062;fill-opacity:1;stroke:#f48103;stroke-width:0.18225;stroke-linejoin:round;stroke-dasharray:none;stroke-opacity:1"
       d="m 71.953725,4.7166917 9.763452,1.6048098"
       id="path45565"
       sodipodi:nodetypes="cc" /><path
       style="fill:#f7b062;fill-opacity:1;stroke:#f48103;stroke-width:0.18225;stroke-linejoin:round;stroke-dasharray:none;stroke-opacity:1"
       d="M 44.278125,4.7655624 27.237267,10.154259"
       id="path45636"
       sodipodi:nodetypes="cc" /><path
       style="fill:#f7b062;fill-opacity:1;stroke:#141414;stroke-width:0.18225;stroke-linejoin:round;stroke-dasharray:none;stroke-opacity:1"
       d="m 32.146893,16.961322 -3.554542,5.388697"
       id="path45640"
       sodipodi:nodetypes="cc" /><text
       xml:space="preserve"
       style="font-style:normal;font-variant:normal;font-weight:normal;font-stretch:normal;font-size:4.52664px;line-height:1.25;font-family:'Lucida Console';-inkscape-font-specification:'Lucida Console';letter-spacing:0px;word-spacing:0px;fill:#62c7f7;fill-opacity:1;stroke:none;stroke-width:0.255208"
       x="105.11395"
       y="-23.354748"
       id="text46566"
       transform="scale(1.0000531,0.9999469)"><tspan
         sodipodi:role="line"
         id="tspan46562"
         x="105.11395"
         y="-23.354748"
         style="font-style:italic;font-variant:normal;font-weight:normal;font-stretch:normal;font-family:'Segoe UI';-inkscape-font-specification:'Segoe UI Italic';text-align:center;text-anchor:middle;fill:#62c7f7;fill-opacity:1;stroke-width:0.255208">micro-surface</tspan><tspan
         sodipodi:role="line"
         x="105.11395"
         y="-17.620693"
         style="font-style:italic;font-variant:normal;font-weight:normal;font-stretch:normal;font-family:'Segoe UI';-inkscape-font-specification:'Segoe UI Italic';text-align:center;text-anchor:middle;fill:#62c7f7;fill-opacity:1;stroke-width:0.255208"
         id="tspan46564">(virtual)</tspan></text><text
       xml:space="preserve"
       style="font-style:normal;font-variant:normal;font-weight:normal;font-stretch:normal;font-size:4.52664px;line-height:1.25;font-family:'Lucida Console';-inkscape-font-specification:'Lucida Console';letter-spacing:0px;word-spacing:0px;fill:#ffffff;fill-opacity:1;stroke:none;stroke-width:0.255208"
       x="20.209572"
       y="-23.354748"
       id="text46572"
       transform="scale(1.0000531,0.9999469)"><tspan
         sodipodi:role="line"
         x="20.209572"
         y="-23.354748"
         style="font-style:italic;font-variant:normal;font-weight:normal;font-stretch:normal;font-family:'Segoe UI';-inkscape-font-specification:'Segoe UI Italic';text-align:center;text-anchor:middle;fill:#ffffff;fill-opacity:1;stroke-width:0.255208"
         id="tspan46568">macro-surface</tspan><tspan
         sodipodi:role="line"
         x="20.209572"
         y="-17.620693"
         style="font-style:italic;font-variant:normal;font-weight:normal;font-stretch:normal;font-family:'Segoe UI';-inkscape-font-specification:'Segoe UI Italic';text-align:center;text-anchor:middle;fill:#ffffff;fill-opacity:1;stroke-width:0.255208"
         id="tspan46570">(mesh)</tspan></text><text
       xml:space="preserve"
       style="font-style:normal;font-variant:normal;font-weight:normal;font-stretch:normal;font-size:4.52664px;line-height:1.25;font-family:'Lucida Console';-inkscape-font-specification:'Lucida Console';letter-spacing:0px;word-spacing:0px;fill:#f7b062;fill-opacity:1;stroke:none;stroke-width:0.255208"
       x="58.158527"
       y="-44.398617"
       id="text46578"
       transform="scale(1.0000531,0.9999469)"><tspan
         sodipodi:role="line"
         x="58.158527"
         y="-44.398617"
         style="font-style:italic;font-variant:normal;font-weight:normal;font-stretch:normal;font-family:'Segoe UI';-inkscape-font-specification:'Segoe UI Italic';text-align:center;text-anchor:middle;fill:#f7b062;fill-opacity:1;stroke-width:0.255208"
         id="tspan46574">local normals</tspan><tspan
         sodipodi:role="line"
         x="58.158527"
         y="-38.664558"
         style="font-style:italic;font-variant:normal;font-weight:normal;font-stretch:normal;font-family:'Segoe UI';-inkscape-font-specification:'Segoe UI Italic';text-align:center;text-anchor:middle;fill:#f7b062;fill-opacity:1;stroke-width:0.255208"
         id="tspan46576">(normal map)</tspan></text></g></svg>
