<?xml version="1.0" encoding="UTF-8" standalone="no"?>
<!-- Created with Inkscape (http://www.inkscape.org/) -->

<svg
   width="189.03177mm"
   height="106.82003mm"
   viewBox="0 0 189.03177 106.82003"
   version="1.1"
   id="svg5"
   xml:space="preserve"
   xmlns="http://www.w3.org/2000/svg"
   xmlns:svg="http://www.w3.org/2000/svg"><defs
     id="defs2"><marker
   style="overflow:visible"
   id="Arrow1"
   refX="0"
   refY="0"
   orient="auto-start-reverse"
   markerWidth="4.0606599"
   markerHeight="6.7071066"
   viewBox="0 0 4.0606602 6.7071068"
   preserveAspectRatio="xMidYMid"><path
     style="fill:none;stroke:context-stroke;stroke-width:1;stroke-linecap:butt"
     d="M 3,-3 0,0 3,3"
     id="path5057"
     transform="rotate(180,0.125,0)" /></marker><clipPath
   clipPathUnits="userSpaceOnUse"
   id="clipPath36213"><path
     style="fill:#c8c8c8;fill-opacity:1;stroke:none;stroke-width:0.266075;stroke-linejoin:round;stroke-dasharray:none;stroke-opacity:1"
     d="m 1.6927527,1.5520898 v 4.7923118 l 5.3217695,2.779e-4 V 1.3011809 Z"
     id="path36215" /></clipPath><g
   id="id-33d38a86-213f-4216-83fe-e5d3aaf5a9a0-7">
      <g
   id="id-63081c7e-d8f8-4499-af6a-5584df8cef2c-8" />
      <g
   id="id-89c9330e-e3e8-40ee-a9c4-adcd40504994-4">
        <path
   d="m 2.578125,-6.8125 c 0,0 0,-0.109375 -0.140625,-0.109375 -0.21875,0 -0.953125,0.078125 -1.21875,0.109375 -0.078125,0 -0.1875,0.015625 -0.1875,0.203125 0,0.109375 0.109375,0.109375 0.25,0.109375 0.484375,0 0.5,0.09375 0.5,0.171875 L 1.75,-6.125 0.484375,-1.140625 C 0.453125,-1.03125 0.4375,-0.96875 0.4375,-0.8125 c 0,0.578125 0.4375,0.921875 0.90625,0.921875 0.328125,0 0.578125,-0.203125 0.75,-0.5625 0.171875,-0.375 0.296875,-0.953125 0.296875,-0.96875 0,-0.109375 -0.09375,-0.109375 -0.125,-0.109375 -0.09375,0 -0.109375,0.046875 -0.125,0.1875 C 1.96875,-0.703125 1.78125,-0.109375 1.375,-0.109375 c -0.296875,0 -0.296875,-0.3125 -0.296875,-0.453125 0,-0.25 0.015625,-0.296875 0.0625,-0.484375 z m 0,0"
   id="id-afb6c5ea-f609-4038-81a3-b442c04c5ccb-0" />
      </g>
    </g><g
   id="id-55b47f2a-5c53-4407-8cc8-4ebd0b246e83-4">
      <g
   id="id-22311807-f4f7-4eb3-8e47-32da44d9ab5c-0" />
      <g
   id="id-e0a4b2e1-1d49-41ac-8a2b-695fdf429c38-1">
        <path
   d="m 4.75,-2.359375 c 0,-1.5625 -0.921875,-2.046875 -1.65625,-2.046875 -1.375,0 -2.6875,1.421875 -2.6875,2.828125 0,0.9375 0.59375,1.6875 1.625,1.6875 0.625,0 1.34375,-0.234375 2.09375,-0.84375 0.125,0.53125 0.453125,0.84375 0.90625,0.84375 0.53125,0 0.84375,-0.546875 0.84375,-0.703125 0,-0.078125 -0.0625,-0.109375 -0.125,-0.109375 -0.0625,0 -0.09375,0.03125 -0.125,0.109375 -0.1875,0.484375 -0.546875,0.484375 -0.5625,0.484375 -0.3125,0 -0.3125,-0.78125 -0.3125,-1.015625 0,-0.203125 0,-0.234375 0.109375,-0.34375 C 5.796875,-2.65625 6,-3.8125 6,-3.8125 6,-3.84375 5.984375,-3.921875 5.875,-3.921875 c -0.09375,0 -0.09375,0.03125 -0.140625,0.21875 -0.1875,0.625 -0.515625,1.375 -0.984375,1.96875 z m -0.65625,1.375 c -0.890625,0.765625 -1.65625,0.875 -2.046875,0.875 -0.59375,0 -0.90625,-0.453125 -0.90625,-1.09375 0,-0.484375 0.265625,-1.5625 0.578125,-2.0625 C 2.1875,-4 2.734375,-4.1875 3.078125,-4.1875 c 0.984375,0 0.984375,1.3125 0.984375,2.078125 0,0.375 0,0.953125 0.03125,1.125 z m 0,0"
   id="id-91dcec1b-b5af-4567-bde2-8eff75e689b9-5" />
      </g>
    </g><defs
   id="id-b45f4992-938d-4c39-b09f-94cafe121833">
    <g
   id="id-1a751ff5-2c78-45e4-89b7-2256435bd2f1">
      <g
   id="id-928bfd60-c83f-4e53-b3f5-b8c6fe321bbd" />
      <g
   id="id-6d688e3b-43a1-45e4-8f52-82088417bce5">
        <path
   d="m 6.984375,23.421875 c 0,-0.04687 -0.03125,-0.0625 -0.046875,-0.09375 -0.375,-0.375 -1.03125,-1.03125 -1.703125,-2.109375 C 3.625,18.640625 2.90625,15.40625 2.90625,11.5625 c 0,-2.6875 0.359375,-6.140625 2,-9.109375 C 5.6875,1.03125 6.515625,0.21875 6.953125,-0.21875 c 0.03125,-0.03125 0.03125,-0.046875 0.03125,-0.078125 0,-0.109375 -0.078125,-0.109375 -0.21875,-0.109375 -0.140625,0 -0.15625,0 -0.3125,0.15625 -3.328125,3.046875 -4.375,7.609375 -4.375,11.796875 0,3.921875 0.890625,7.875 3.421875,10.859375 0.203125,0.21875 0.578125,0.625 0.984375,0.984375 0.125,0.125 0.140625,0.125 0.28125,0.125 0.140625,0 0.21875,0 0.21875,-0.09375 z m 0,0"
   id="id-309ddb96-59bc-4729-bcea-855aebce370c" />
      </g>
      <g
   id="id-4f311d46-90be-4df8-8398-40915c4e7dec">
        <path
   d="M 5.25,11.5625 C 5.25,7.640625 4.359375,3.703125 1.828125,0.71875 1.625,0.484375 1.25,0.078125 0.84375,-0.28125 c -0.125,-0.125 -0.140625,-0.125 -0.28125,-0.125 -0.125,0 -0.21875,0 -0.21875,0.109375 0,0.03125 0.046875,0.078125 0.0625,0.09375 0.34375,0.359375 1.015625,1.03125 1.6875,2.109375 1.609375,2.5625 2.328125,5.8125 2.328125,9.640625 0,2.6875 -0.359375,6.140625 -2,9.125 -0.78125,1.40625 -1.609375,2.234375 -2.03125,2.65625 -0.015625,0.03125 -0.046875,0.0625 -0.046875,0.09375 0,0.09375 0.09375,0.09375 0.21875,0.09375 0.140625,0 0.15625,0 0.3125,-0.15625 C 4.203125,20.328125 5.25,15.765625 5.25,11.5625 Z m 0,0"
   id="id-e6962c19-1b64-4b6c-8836-4aaae21fa180" />
      </g>
      <g
   id="id-b20247da-50f2-473c-a341-34b3cc86c6c9" />
      <g
   id="id-05df455a-747c-41b1-ac34-40adc7be0909">
        <path
   d="m 2.9375,-6.375 c 0,-0.25 0,-0.265625 -0.234375,-0.265625 C 2.078125,-6 1.203125,-6 0.890625,-6 v 0.3125 c 0.203125,0 0.78125,0 1.296875,-0.265625 v 5.171875 c 0,0.359375 -0.03125,0.46875 -0.921875,0.46875 h -0.3125 V 0 c 0.34375,-0.03125 1.203125,-0.03125 1.609375,-0.03125 0.390625,0 1.265625,0 1.609375,0.03125 v -0.3125 h -0.3125 c -0.90625,0 -0.921875,-0.109375 -0.921875,-0.46875 z m 0,0"
   id="id-61ca706c-be71-4d0a-ab16-a6197d795145" />
      </g>
      <g
   id="id-1ce47d04-d8ad-4c0c-b788-c28f40aac989">
        <path
   d="m 1.265625,-0.765625 1.0625,-1.03125 c 1.546875,-1.375 2.140625,-1.90625 2.140625,-2.90625 0,-1.140625 -0.890625,-1.9375 -2.109375,-1.9375 -1.125,0 -1.859375,0.921875 -1.859375,1.8125 0,0.546875 0.5,0.546875 0.53125,0.546875 0.171875,0 0.515625,-0.109375 0.515625,-0.53125 0,-0.25 -0.1875,-0.515625 -0.53125,-0.515625 -0.078125,0 -0.09375,0 -0.125,0.015625 0.21875,-0.65625 0.765625,-1.015625 1.34375,-1.015625 0.90625,0 1.328125,0.8125 1.328125,1.625 C 3.5625,-3.90625 3.078125,-3.125 2.515625,-2.5 l -1.90625,2.125 C 0.5,-0.265625 0.5,-0.234375 0.5,0 H 4.203125 L 4.46875,-1.734375 H 4.234375 C 4.171875,-1.4375 4.109375,-1 4,-0.84375 3.9375,-0.765625 3.28125,-0.765625 3.0625,-0.765625 Z m 0,0"
   id="id-7e14c8dc-b68d-4770-b5dd-2a162b833bd9" />
      </g>
      <g
   id="id-0f4cb198-597e-4ec8-a7f8-4c36d82f2094">
        <path
   d="m 2.890625,-3.515625 c 0.8125,-0.265625 1.390625,-0.953125 1.390625,-1.75 0,-0.8125 -0.875,-1.375 -1.828125,-1.375 -1,0 -1.765625,0.59375 -1.765625,1.359375 0,0.328125 0.21875,0.515625 0.515625,0.515625 0.296875,0 0.5,-0.21875 0.5,-0.515625 0,-0.484375 -0.46875,-0.484375 -0.609375,-0.484375 0.296875,-0.5 0.953125,-0.625 1.3125,-0.625 0.421875,0 0.96875,0.21875 0.96875,1.109375 0,0.125 -0.03125,0.703125 -0.28125,1.140625 C 2.796875,-3.65625 2.453125,-3.625 2.203125,-3.625 2.125,-3.609375 1.890625,-3.59375 1.8125,-3.59375 c -0.078125,0.015625 -0.140625,0.03125 -0.140625,0.125 0,0.109375 0.0625,0.109375 0.234375,0.109375 h 0.4375 c 0.8125,0 1.1875,0.671875 1.1875,1.65625 0,1.359375 -0.6875,1.640625 -1.125,1.640625 -0.4375,0 -1.1875,-0.171875 -1.53125,-0.75 0.34375,0.046875 0.65625,-0.171875 0.65625,-0.546875 0,-0.359375 -0.265625,-0.5625 -0.546875,-0.5625 -0.25,0 -0.5625,0.140625 -0.5625,0.578125 0,0.90625 0.921875,1.5625 2.015625,1.5625 1.21875,0 2.125,-0.90625 2.125,-1.921875 0,-0.8125 -0.640625,-1.59375 -1.671875,-1.8125 z m 0,0"
   id="id-5fd4f57d-428c-4dc3-928d-7e5ddfb2c034" />
      </g>
      <g
   id="id-a4c3a4e5-c341-4d88-b6dd-5df7940af3e2" />
      <g
   id="id-ddfd9426-1103-405f-8581-7c8393ef4b5b">
        <path
   d="M 3.71875,-3.765625 C 3.53125,-4.140625 3.25,-4.40625 2.796875,-4.40625 c -1.15625,0 -2.390625,1.46875 -2.390625,2.921875 0,0.9375 0.546875,1.59375 1.3125,1.59375 0.203125,0 0.703125,-0.046875 1.296875,-0.75 0.078125,0.421875 0.4375,0.75 0.90625,0.75 0.359375,0 0.578125,-0.234375 0.75,-0.546875 0.15625,-0.359375 0.296875,-0.96875 0.296875,-0.984375 0,-0.109375 -0.09375,-0.109375 -0.125,-0.109375 -0.09375,0 -0.109375,0.046875 -0.140625,0.1875 -0.171875,0.640625 -0.34375,1.234375 -0.75,1.234375 -0.28125,0 -0.296875,-0.265625 -0.296875,-0.453125 0,-0.21875 0.015625,-0.3125 0.125,-0.75 C 3.890625,-1.71875 3.90625,-1.828125 4,-2.203125 L 4.359375,-3.59375 c 0.0625,-0.28125 0.0625,-0.296875 0.0625,-0.34375 0,-0.171875 -0.109375,-0.265625 -0.28125,-0.265625 -0.25,0 -0.390625,0.21875 -0.421875,0.4375 z M 3.078125,-1.1875 C 3.015625,-1 3.015625,-0.984375 2.875,-0.8125 2.4375,-0.265625 2.03125,-0.109375 1.75,-0.109375 c -0.5,0 -0.640625,-0.546875 -0.640625,-0.9375 0,-0.5 0.3125,-1.71875 0.546875,-2.1875 0.3125,-0.578125 0.75,-0.953125 1.15625,-0.953125 0.640625,0 0.78125,0.8125 0.78125,0.875 0,0.0625 -0.015625,0.125 -0.03125,0.171875 z m 0,0"
   id="id-c106d286-01aa-426a-9b83-4dbec16cd663" />
      </g>
      <g
   id="id-04d3e90e-ccbd-416a-bb23-4e728ce0bfb2">
        <path
   d="m 2.375,-6.8125 c 0,0 0,-0.109375 -0.125,-0.109375 -0.21875,0 -0.953125,0.078125 -1.21875,0.109375 -0.078125,0 -0.1875,0.015625 -0.1875,0.1875 0,0.125 0.09375,0.125 0.25,0.125 0.46875,0 0.484375,0.0625 0.484375,0.171875 0,0.0625 -0.078125,0.40625 -0.125,0.609375 l -0.828125,3.25 c -0.109375,0.5 -0.15625,0.671875 -0.15625,1.015625 0,0.9375 0.53125,1.5625 1.265625,1.5625 1.171875,0 2.40625,-1.484375 2.40625,-2.921875 0,-0.90625 -0.53125,-1.59375 -1.328125,-1.59375 -0.453125,0 -0.875,0.296875 -1.171875,0.59375 z M 1.453125,-3.046875 C 1.5,-3.265625 1.5,-3.28125 1.59375,-3.390625 2.078125,-4.03125 2.53125,-4.1875 2.796875,-4.1875 c 0.359375,0 0.625,0.296875 0.625,0.9375 0,0.59375 -0.328125,1.734375 -0.515625,2.109375 -0.328125,0.671875 -0.78125,1.03125 -1.171875,1.03125 -0.34375,0 -0.671875,-0.265625 -0.671875,-1 0,-0.203125 0,-0.390625 0.15625,-1.015625 z m 0,0"
   id="id-214fcfd1-31be-41d2-9b5f-e3ee77b7eb08" />
      </g>
      <g
   id="id-3a4ed6e7-5cb4-4ad0-a65c-df1b312f21cb">
        <path
   d="m 3.953125,-3.78125 c -0.171875,0 -0.296875,0 -0.4375,0.125 -0.171875,0.15625 -0.1875,0.328125 -0.1875,0.390625 0,0.25 0.1875,0.359375 0.375,0.359375 0.28125,0 0.546875,-0.25 0.546875,-0.640625 0,-0.484375 -0.46875,-0.859375 -1.171875,-0.859375 -1.34375,0 -2.671875,1.421875 -2.671875,2.828125 0,0.90625 0.578125,1.6875 1.625,1.6875 1.421875,0 2.25,-1.0625 2.25,-1.171875 0,-0.0625 -0.046875,-0.140625 -0.109375,-0.140625 -0.0625,0 -0.078125,0.03125 -0.140625,0.109375 -0.78125,0.984375 -1.875,0.984375 -1.984375,0.984375 -0.625,0 -0.90625,-0.484375 -0.90625,-1.09375 0,-0.40625 0.203125,-1.375 0.546875,-1.984375 0.3125,-0.578125 0.859375,-1 1.40625,-1 0.328125,0 0.71875,0.125 0.859375,0.40625 z m 0,0"
   id="id-a75dbb92-eca4-404b-826d-756b90ec53df" />
      </g>
    </g>
  </defs>
  
  
  
  
  
  
  
  

    
    
    
    
    
    
    
    
      
      
      
      
      
      
      
      </defs><g
     id="layer1"
     transform="translate(-0.0661458,-0.0992187)"><path
       id="rect3446"
       style="fill:#232323;stroke-width:0.687377;stroke-linecap:round;stroke-linejoin:round"
       d="m 120.55289,13.873028 h 9.43068 v 9.430686 h -9.43068 z" /><path
       id="rect3448"
       style="fill:#181818;stroke-width:0.687377;stroke-linecap:round;stroke-linejoin:round"
       d="m 129.98357,13.873028 h 9.43068 v 9.430686 h -9.43068 z" /><path
       id="rect3450"
       style="fill:#232323;stroke-width:0.687377;stroke-linecap:round;stroke-linejoin:round"
       d="m 139.41425,13.873028 h 9.43068 v 9.430686 h -9.43068 z" /><path
       id="rect3452"
       style="fill:#181818;stroke-width:0.687377;stroke-linecap:round;stroke-linejoin:round"
       d="m 148.84492,13.873028 h 9.43069 v 9.430686 h -9.43069 z" /><path
       id="rect3454"
       style="fill:#232323;stroke-width:0.687377;stroke-linecap:round;stroke-linejoin:round"
       d="m 148.84492,23.303715 h 9.43069 v 9.430686 h -9.43069 z" /><path
       id="rect3456"
       style="fill:#181818;stroke-width:0.687377;stroke-linecap:round;stroke-linejoin:round"
       d="m 120.55289,23.303715 h 9.43068 v 9.430686 h -9.43068 z" /><path
       id="rect3458"
       style="fill:#232323;stroke-width:0.687377;stroke-linecap:round;stroke-linejoin:round"
       d="m 129.98357,23.303715 h 9.43068 v 9.430686 h -9.43068 z" /><path
       id="rect3460"
       style="fill:#181818;stroke-width:0.687377;stroke-linecap:round;stroke-linejoin:round"
       d="m 139.41425,23.303715 h 9.43068 v 9.430686 h -9.43068 z" /><path
       id="rect3462"
       style="fill:#232323;stroke-width:0.687377;stroke-linecap:round;stroke-linejoin:round"
       d="m 120.55289,32.734406 h 9.43068 v 9.430686 h -9.43068 z" /><path
       id="rect3464"
       style="fill:#181818;stroke-width:0.687377;stroke-linecap:round;stroke-linejoin:round"
       d="m 129.98357,32.734406 h 9.43068 v 9.430686 h -9.43068 z" /><path
       id="rect3466"
       style="fill:#232323;stroke-width:0.687377;stroke-linecap:round;stroke-linejoin:round"
       d="m 139.41425,32.734406 h 9.43068 v 9.430686 h -9.43068 z" /><path
       id="rect3468"
       style="fill:#181818;stroke-width:0.687377;stroke-linecap:round;stroke-linejoin:round"
       d="m 148.84492,32.734406 h 9.43069 v 9.430686 h -9.43069 z" /><path
       id="rect3470"
       style="fill:#232323;stroke-width:0.687377;stroke-linecap:round;stroke-linejoin:round"
       d="m 148.84492,42.165092 h 9.43069 v 9.430686 h -9.43069 z" /><path
       id="rect3472"
       style="fill:#181818;stroke-width:0.687377;stroke-linecap:round;stroke-linejoin:round"
       d="m 120.55289,42.165092 h 9.43068 v 9.430686 h -9.43068 z" /><path
       id="rect3474"
       style="fill:#232323;stroke-width:0.687377;stroke-linecap:round;stroke-linejoin:round"
       d="m 129.98357,42.165092 h 9.43068 v 9.430686 h -9.43068 z" /><path
       id="rect3476"
       style="fill:#181818;stroke-width:0.687377;stroke-linecap:round;stroke-linejoin:round"
       d="m 139.41425,42.165092 h 9.43068 v 9.430686 h -9.43068 z" /><path
       style="fill:#464646;fill-opacity:1;stroke:none;stroke-width:0.126513;stroke-linecap:round"
       d="M 26.298562,2.6991375 0.06614577,41.449096 37.074533,51.898524 Z"
       id="path57694" /><path
       style="opacity:0.461538;fill:none;fill-opacity:1;stroke:#000000;stroke-width:0.442796;stroke-linecap:round;stroke-linejoin:round;stroke-dasharray:none;stroke-opacity:1"
       d="M 26.298562,2.6991375 56.55836,32.414696 37.074533,51.898524 Z"
       id="path57696" /><path
       style="fill:#353535;fill-opacity:1;stroke:none;stroke-width:0.126513;stroke-linecap:round"
       d="M 26.298562,2.6991375 56.55836,32.414696 37.074533,51.898524 Z"
       id="path57698" /><path
       id="path3148"
       style="fill:#ffffff;fill-opacity:0.0884615;stroke-width:0.0453862;stroke-linecap:round;stroke-linejoin:round"
       transform="rotate(59.207224)"
       d="m 56.958803,-19.955025 a 11.416632,7.0558667 0 0 1 -11.416632,7.055867 11.416632,7.0558667 0 0 1 -11.416631,-7.055867 11.416632,7.0558667 0 0 1 11.416631,-7.055866 11.416632,7.0558667 0 0 1 11.416632,7.055866 z" /><path
       style="fill:#28a106;fill-opacity:1;stroke:#28a106;stroke-width:0.986374;stroke-linejoin:round;stroke-dasharray:none;stroke-opacity:1;marker-end:url(#Arrow1)"
       d="M 40.456466,28.906184 49.281467,21.11546"
       id="path57710" /><path
       style="fill:#343434;stroke:#095ddf;stroke-width:0.986374;stroke-linejoin:round;stroke-dasharray:none;stroke-opacity:1;marker-end:url(#Arrow1)"
       d="M 40.456466,28.906184 55.71664,20.855246"
       id="path57712" /><path
       style="fill:#da0e0e;fill-opacity:1;stroke:#da0e0e;stroke-width:0.986374;stroke-linejoin:round;stroke-dasharray:none;stroke-opacity:1;marker-end:url(#Arrow1)"
       d="m 40.456466,28.906184 7.839097,12.935972"
       id="path57714" /><path
       id="circle57728"
       style="fill:#e0e0e0;stroke-width:0.986374;stroke-linejoin:round"
       d="m 41.659747,28.906174 a 1.2032801,1.2032801 0 0 1 -1.20328,1.20328 1.2032801,1.2032801 0 0 1 -1.20328,-1.20328 1.2032801,1.2032801 0 0 1 1.20328,-1.20328 1.2032801,1.2032801 0 0 1 1.20328,1.20328 z" /><g
       aria-label="T"
       id="text691-6"
       style="font-style:italic;font-size:7.69211px;line-height:1.25;font-family:'Charter ITC TT';-inkscape-font-specification:'Charter ITC TT Italic';letter-spacing:0px;word-spacing:0px;fill:#da0e0e;stroke-width:0.401094"><path
         d="m 54.529601,41.501959 -0.230763,1.146124 h -0.415374 l 0.03077,-0.715366 -0.08461,-0.115382 H 52.73734 l -0.846133,4.399887 0.1,0.115382 0.499987,0.03846 v 0.2923 h -1.876875 v -0.2923 l 0.492295,-0.03846 0.123074,-0.115382 0.823056,-4.399887 h -1.084588 l -0.130766,0.115382 -0.246147,0.715366 h -0.423066 l 0.223071,-1.146124 z"
         id="path29201" /></g><path
       id="circle57728-9"
       style="fill:#ffffff;stroke-width:0.471263;stroke-linejoin:round"
       d="M 26.873456,2.6991374 A 0.57489467,0.57489467 0 0 1 26.298561,3.2740321 0.57489467,0.57489467 0 0 1 25.723666,2.6991374 0.57489467,0.57489467 0 0 1 26.298561,2.1242428 0.57489467,0.57489467 0 0 1 26.873456,2.6991374 Z" /><path
       id="circle57728-9-0"
       style="fill:#ffffff;stroke-width:0.471263;stroke-linejoin:round"
       d="m 57.133256,32.414696 a 0.57489467,0.57489467 0 0 1 -0.574895,0.574894 0.57489467,0.57489467 0 0 1 -0.574895,-0.574894 0.57489467,0.57489467 0 0 1 0.574895,-0.574895 0.57489467,0.57489467 0 0 1 0.574895,0.574895 z" /><g
       aria-label="v"
       id="text2726-2-5"
       style="font-style:italic;font-size:7.69211px;line-height:1.25;font-family:'Charter ITC TT';-inkscape-font-specification:'Charter ITC TT Italic';letter-spacing:0px;word-spacing:0px;fill:#ffffff;stroke-width:0.401094"><path
         d="m 42.2086,51.401882 q 0,0.723059 -1.338427,2.399939 -0.230764,0.284608 -0.769211,0.915361 H 39.73174 q 0.10769,-0.246148 0.10769,-0.523064 0,-0.123074 -0.01538,-0.269224 l -0.192303,-1.799953 q -0.02308,-0.223072 -0.06154,-0.353837 -0.06154,-0.223072 -0.169226,-0.299993 l -0.592293,-0.04615 v -0.192303 l 0.776903,-0.246148 q 0.307685,0 0.430758,0.176919 0.123074,0.176918 0.169227,0.699982 l 0.199995,2.107638 q 0.892284,-1.153816 1.176893,-1.899951 l -0.146151,-0.938438 q 0.207687,-0.14615 0.392298,-0.14615 0.39999,0 0.39999,0.415374 z"
         id="path29306" /></g><g
       aria-label="0"
       id="text687"
       style="font-style:italic;font-size:3.77109px;line-height:1.25;font-family:'Charter ITC TT';-inkscape-font-specification:'Charter ITC TT Italic';letter-spacing:0px;word-spacing:0px;fill:#ffffff;stroke-width:0.196638"><path
         d="m 42.947042,55.23884 q 0,0.373338 -0.124446,0.742905 -0.120675,0.369566 -0.324314,0.622229 -0.316771,0.388423 -0.742904,0.388423 -0.331856,0 -0.51664,-0.226266 -0.181012,-0.230036 -0.181012,-0.644856 0,-0.377109 0.124446,-0.754218 0.124446,-0.38088 0.331856,-0.626001 0.313,-0.369567 0.746676,-0.369567 0.320542,0 0.501555,0.230037 0.184783,0.230036 0.184783,0.637314 z m -0.34694,-0.10182 q 0,-0.58829 -0.392194,-0.58829 -0.331856,0 -0.561892,0.512869 -0.105591,0.230036 -0.17347,0.561892 -0.06788,0.331856 -0.06788,0.599603 0,0.592061 0.38088,0.592061 0.350712,0 0.580748,-0.527952 0.10182,-0.237579 0.165928,-0.558122 0.06788,-0.324313 0.06788,-0.592061 z"
         id="path29303" /></g><g
       aria-label="v"
       id="text691"
       style="font-style:italic;font-size:7.69211px;line-height:1.25;font-family:'Charter ITC TT';-inkscape-font-specification:'Charter ITC TT Italic';letter-spacing:0px;word-spacing:0px;fill:#ffffff;stroke-width:0.401094"><path
         d="m 61.414559,31.420738 q 0,0.723059 -1.338427,2.399939 -0.230763,0.284608 -0.769211,0.915361 H 58.9377 q 0.107689,-0.246148 0.107689,-0.523064 0,-0.123073 -0.01538,-0.269224 l -0.192303,-1.799953 q -0.02308,-0.223072 -0.06154,-0.353837 -0.06154,-0.223072 -0.169226,-0.299993 l -0.592293,-0.04615 v -0.192303 l 0.776904,-0.246148 q 0.307684,0 0.430758,0.176919 0.123073,0.176918 0.169226,0.699982 l 0.199995,2.107638 q 0.892285,-1.153816 1.176893,-1.899951 l -0.14615,-0.938438 q 0.207687,-0.14615 0.392297,-0.14615 0.39999,0 0.39999,0.415374 z"
         id="path29318" /></g><g
       aria-label="1"
       id="text695"
       style="font-style:italic;font-size:3.77109px;line-height:1.25;font-family:'Charter ITC TT';-inkscape-font-specification:'Charter ITC TT Italic';letter-spacing:0px;word-spacing:0px;fill:#ffffff;stroke-width:0.196638"><path
         d="m 61.677844,34.390341 -0.471386,2.345618 0.03771,0.05657 0.339398,0.01885 v 0.154615 h -1.17658 v -0.162157 l 0.411048,-0.01886 0.06411,-0.06788 0.395964,-1.957196 -0.04525,-0.03771 -0.569434,0.07165 v -0.150844 l 0.920146,-0.252663 z"
         id="path29315" /></g><path
       id="circle57728-9-5"
       style="fill:#ffffff;stroke-width:0.471263;stroke-linejoin:round"
       d="m 37.649426,51.898525 a 0.57489467,0.57489467 0 0 1 -0.574894,0.574895 0.57489467,0.57489467 0 0 1 -0.574895,-0.574895 0.57489467,0.57489467 0 0 1 0.574895,-0.574894 0.57489467,0.57489467 0 0 1 0.574894,0.574894 z" /><g
       aria-label="v"
       id="text699"
       style="font-style:italic;font-size:7.69211px;line-height:1.25;font-family:'Charter ITC TT';-inkscape-font-specification:'Charter ITC TT Italic';letter-spacing:0px;word-spacing:0px;fill:#ffffff;stroke-width:0.401094"><path
         d="m 32.487006,0.87919293 q 0,0.72305837 -1.338427,2.39993837 -0.230764,0.284608 -0.769211,0.9153611 h -0.369222 q 0.10769,-0.2461476 0.10769,-0.5230635 0,-0.1230738 -0.01538,-0.2692239 L 29.910149,1.6022513 Q 29.887073,1.3791801 29.848612,1.2484142 29.787075,1.025343 29.679386,0.94842192 L 29.087093,0.90226926 V 0.70996651 l 0.776903,-0.24614753 q 0.307685,0 0.430759,0.17691853 0.123073,0.17691854 0.169226,0.69998199 l 0.199995,2.1076382 q 0.892285,-1.1538165 1.176893,-1.8999512 l -0.14615,-0.93843743 q 0.207687,-0.14615009 0.392297,-0.14615009 0.39999,0 0.39999,0.41537395 z"
         id="path29276" /></g><g
       aria-label="2"
       id="text703"
       style="font-style:italic;font-size:3.77109px;line-height:1.25;font-family:'Charter ITC TT';-inkscape-font-specification:'Charter ITC TT Italic';letter-spacing:0px;word-spacing:0px;fill:#ffffff;stroke-width:0.196638"><path
         d="m 33.176424,4.4106902 q 0,0.4412176 -0.592061,0.961628 -0.245121,0.2149521 -1.010652,0.754218 h 1.135098 l 0.128217,-0.3205427 h 0.169699 l -0.116904,0.6184588 h -1.746015 l 0.04525,-0.2375787 q 0.76176,-0.5354948 1.033278,-0.7768445 0.320543,-0.2828318 0.452531,-0.501555 0.131988,-0.2224943 0.131988,-0.4713862 0,-0.1847835 -0.109361,-0.290374 -0.109362,-0.1055905 -0.297917,-0.1055905 -0.154614,0 -0.358253,0.090506 l -0.07542,0.4035066 q -0.09805,0.056566 -0.181012,0.056566 -0.177242,0 -0.177242,-0.1546146 0,-0.2300365 0.279061,-0.4072778 0.282832,-0.1810123 0.641085,-0.1810123 0.305459,0 0.475158,0.1508436 0.17347,0.1470725 0.17347,0.4110488 z"
         id="path29273" /></g><path
       style="fill:#000000;fill-opacity:1;stroke:#ffffff;stroke-width:0.75;stroke-linecap:round;stroke-linejoin:round;stroke-dasharray:none;stroke-opacity:1;marker-end:url(#Arrow1)"
       d="M 77.388435,52.666202 96.872253,33.182373"
       id="path1539" /><path
       style="fill:#000000;fill-opacity:1;stroke:#ffffff;stroke-width:0.75;stroke-linecap:round;stroke-linejoin:round;stroke-dasharray:none;stroke-opacity:1;marker-end:url(#Arrow1)"
       d="M 77.388435,52.666202 66.612464,3.4668147"
       id="path1721" /><g
       aria-label="e"
       id="text2528"
       style="font-style:italic;font-size:7.69211px;line-height:1.25;font-family:'Charter ITC TT';-inkscape-font-specification:'Charter ITC TT Italic';letter-spacing:0px;word-spacing:0px;fill:#ffffff;stroke-width:0.401094"><path
         d="m 91.785523,44.553729 q 0,1.076896 -2.099946,1.246122 -0.02308,0.184611 -0.02308,0.330761 0,0.469219 0.207687,0.746135 0.207687,0.276916 0.569216,0.276916 0.54614,0 1.253814,-0.630753 v 0.361529 q -0.746134,0.69229 -1.492269,0.69229 -0.54614,0 -0.861516,-0.361529 -0.307685,-0.369222 -0.307685,-1.023051 0,-0.592293 0.246148,-1.123048 0.253839,-0.538448 0.699982,-0.876901 0.523063,-0.399989 1.02305,-0.399989 0.353838,0 0.569217,0.215379 0.215379,0.207687 0.215379,0.546139 z m -0.553832,-0.01538 q 0,-0.176918 -0.123074,-0.299992 -0.115382,-0.123074 -0.284608,-0.123074 -0.353837,0 -0.646137,0.376914 -0.284608,0.369221 -0.453835,1.046127 0.669214,-0.05384 1.046127,-0.292301 0.461527,-0.2923 0.461527,-0.707674 z"
         id="path29312" /></g><g
       aria-label="1"
       id="text2532"
       style="font-style:italic;font-size:3.77109px;line-height:1.25;font-family:'Charter ITC TT';-inkscape-font-specification:'Charter ITC TT Italic';letter-spacing:0px;word-spacing:0px;fill:#ffffff;stroke-width:0.196638"><path
         d="m 93.016425,47.177191 -0.471386,2.345618 0.03771,0.05657 0.339398,0.01885 v 0.154615 h -1.17658 v -0.162157 l 0.411049,-0.01886 0.06411,-0.06788 0.395964,-1.957196 -0.04525,-0.03771 -0.569434,0.07165 v -0.150844 l 0.920146,-0.252663 z"
         id="path29309" /></g><g
       aria-label="e"
       id="text2540"
       style="font-style:italic;font-size:7.69211px;line-height:1.25;font-family:'Charter ITC TT';-inkscape-font-specification:'Charter ITC TT Italic';letter-spacing:0px;word-spacing:0px;fill:#ffffff;stroke-width:0.401094"><path
         d="m 76.618378,21.754363 q 0,1.076896 -2.099946,1.246122 -0.02308,0.184611 -0.02308,0.330761 0,0.469219 0.207687,0.746135 0.207687,0.276916 0.569216,0.276916 0.54614,0 1.253814,-0.630753 v 0.361529 q -0.746135,0.69229 -1.49227,0.69229 -0.54614,0 -0.861516,-0.361529 -0.307684,-0.369222 -0.307684,-1.023051 0,-0.592293 0.246147,-1.123048 0.25384,-0.538448 0.699982,-0.876901 0.523064,-0.399989 1.023051,-0.399989 0.353837,0 0.569216,0.215379 0.215379,0.207687 0.215379,0.546139 z m -0.553832,-0.01538 q 0,-0.176918 -0.123074,-0.299992 -0.115381,-0.123074 -0.284608,-0.123074 -0.353837,0 -0.646137,0.376914 -0.284608,0.369221 -0.453835,1.046127 0.669214,-0.05384 1.046127,-0.292301 0.461527,-0.2923 0.461527,-0.707674 z"
         id="path29300" /></g><g
       aria-label="2"
       id="text2544"
       style="font-style:italic;font-size:3.77109px;line-height:1.25;font-family:'Charter ITC TT';-inkscape-font-specification:'Charter ITC TT Italic';letter-spacing:0px;word-spacing:0px;fill:#ffffff;stroke-width:0.196638"><path
         d="m 78.275413,24.939716 q 0,0.441217 -0.592061,0.961628 -0.245121,0.214952 -1.010652,0.754218 h 1.135098 l 0.128217,-0.320543 h 0.169699 l -0.116903,0.618459 h -1.746015 l 0.04525,-0.237579 q 0.76176,-0.535495 1.033279,-0.776844 0.320542,-0.282832 0.45253,-0.501555 0.131989,-0.222495 0.131989,-0.471387 0,-0.184783 -0.109362,-0.290374 -0.109362,-0.10559 -0.297916,-0.10559 -0.154615,0 -0.358254,0.09051 l -0.07542,0.403507 q -0.09805,0.05657 -0.181013,0.05657 -0.177241,0 -0.177241,-0.154615 0,-0.230036 0.279061,-0.407277 0.282831,-0.181013 0.641085,-0.181013 0.305458,0 0.475157,0.150844 0.17347,0.147072 0.17347,0.411049 z"
         id="path29297" /></g><g
       aria-label="UV space"
       transform="scale(1.0000531,0.9999469)"
       id="text57608"
       style="font-size:6.03552px;line-height:1.25;font-family:'Lucida Console';-inkscape-font-specification:'Lucida Console';letter-spacing:0px;word-spacing:0px;fill:#b3b3b3;stroke-width:0.340277"><path
         d="m 130.97294,61.208772 q -0.0884,0.412584 -0.22397,0.736758 -0.13262,0.321226 -0.3448,0.542253 -0.20924,0.221028 -0.51279,0.338909 -0.30354,0.114934 -0.72791,0.114934 -0.32712,0 -0.58352,-0.103146 -0.25639,-0.103146 -0.43026,-0.282915 -0.17388,-0.179769 -0.26524,-0.424372 -0.0914,-0.244604 -0.0914,-0.530466 0,-0.126722 0.0147,-0.285862 0.0177,-0.15914 0.0442,-0.300597 l 0.51278,-2.37236 h 0.50984 l -0.50984,2.342889 q -0.0118,0.06778 -0.0265,0.147352 -0.0118,0.07957 -0.0236,0.15914 -0.009,0.07957 -0.0147,0.150298 -0.006,0.07073 -0.006,0.123776 0,0.235762 0.0707,0.409637 0.0707,0.173875 0.1945,0.288809 0.12673,0.114934 0.29471,0.173875 0.17093,0.05599 0.36838,0.05599 0.25049,0 0.44794,-0.07073 0.19746,-0.07073 0.34775,-0.221028 0.1503,-0.150298 0.2564,-0.383114 0.10904,-0.232815 0.17977,-0.556989 l 0.56288,-2.61991 h 0.50689 z"
         style="font-style:italic;font-family:'Segoe UI';-inkscape-font-specification:'Segoe UI Italic';text-align:center;text-anchor:middle"
         id="path29207" /><path
         d="m 133.21269,62.86795 h -0.4951 l -0.63362,-4.226042 h 0.51279 l 0.46563,3.309516 q 0.0147,0.08252 0.0206,0.18861 0.006,0.103146 -0.003,0.179769 h 0.0118 q 0.0147,-0.03831 0.0324,-0.08546 0.0206,-0.04715 0.0442,-0.0943 0.0265,-0.0501 0.0501,-0.09725 0.0265,-0.0501 0.0471,-0.09136 l 1.88905,-3.309516 h 0.56878 z"
         style="font-style:italic;font-family:'Segoe UI';-inkscape-font-specification:'Segoe UI Italic';text-align:center;text-anchor:middle"
         id="path29209" /><path
         d="m 139.04191,60.380656 q -0.13261,-0.08546 -0.29765,-0.13851 -0.16503,-0.05305 -0.33006,-0.05305 -0.27702,0 -0.43027,0.126722 -0.1503,0.126723 -0.1503,0.335962 0,0.08546 0.0265,0.156193 0.0295,0.07073 0.0825,0.135563 0.056,0.06189 0.13851,0.120828 0.0855,0.05894 0.19451,0.126723 0.33006,0.191557 0.47447,0.394902 0.14735,0.200398 0.14735,0.453843 0,0.170927 -0.0648,0.335961 -0.0619,0.162087 -0.20039,0.288809 -0.13851,0.123776 -0.35954,0.200398 -0.21808,0.07662 -0.53341,0.07662 -0.0884,0 -0.19451,-0.01179 -0.10609,-0.01179 -0.21513,-0.03536 -0.10609,-0.02358 -0.20629,-0.05599 -0.0973,-0.03536 -0.17093,-0.07957 l 0.0973,-0.459737 q 0.0589,0.04126 0.14441,0.08252 0.0884,0.04126 0.18861,0.07368 0.10314,0.03242 0.21218,0.05305 0.11199,0.02063 0.22103,0.02063 0.2947,0 0.43911,-0.117881 0.14735,-0.117882 0.14735,-0.327121 0,-0.07662 -0.0236,-0.141457 -0.0206,-0.06484 -0.0766,-0.12967 -0.056,-0.06483 -0.14735,-0.129669 -0.0914,-0.06778 -0.22987,-0.150299 -0.3006,-0.182716 -0.445,-0.380167 -0.14146,-0.200398 -0.14146,-0.450896 0,-0.182715 0.0678,-0.347749 0.0678,-0.167981 0.2004,-0.294703 0.13556,-0.12967 0.33891,-0.206293 0.20334,-0.07662 0.47447,-0.07662 0.21219,0 0.4008,0.04126 0.19155,0.04126 0.32417,0.106093 z"
         style="font-style:italic;font-family:'Segoe UI';-inkscape-font-specification:'Segoe UI Italic';text-align:center;text-anchor:middle"
         id="path29211" /><path
         d="m 142.3308,60.905228 q 0,0.21808 -0.0472,0.453842 -0.0471,0.232816 -0.14441,0.459737 -0.0973,0.226922 -0.2446,0.430267 -0.1444,0.203345 -0.34185,0.359538 -0.19746,0.153245 -0.44795,0.244603 -0.2505,0.08841 -0.55405,0.08841 -0.17387,0 -0.3448,-0.03242 -0.16798,-0.03242 -0.2947,-0.07662 l -0.3006,1.435204 h -0.48921 l 0.73676,-3.489285 q 0.0206,-0.09431 0.0383,-0.226921 0.0177,-0.132617 0.0295,-0.265233 0.0147,-0.135563 0.0236,-0.253445 0.009,-0.117881 0.009,-0.182716 h 0.4951 q 0,0.0501 -0.009,0.135564 -0.006,0.08546 -0.0177,0.179769 -0.0118,0.09136 -0.0236,0.179769 -0.0118,0.08546 -0.0206,0.13851 h 0.0118 q 0.20924,-0.356591 0.47153,-0.530466 0.26228,-0.176821 0.57172,-0.176821 0.20629,0 0.37133,0.07073 0.16503,0.07073 0.27996,0.212187 0.11789,0.141457 0.17977,0.353643 0.0619,0.212187 0.0619,0.492155 z m -0.4951,0.02063 q 0,-0.15914 -0.0295,-0.294703 -0.0265,-0.135564 -0.0914,-0.232816 -0.0648,-0.09725 -0.16798,-0.153245 -0.1002,-0.05599 -0.24755,-0.05599 -0.15325,0 -0.28881,0.06484 -0.13262,0.06189 -0.24755,0.16798 -0.11493,0.106094 -0.20924,0.247551 -0.0943,0.138511 -0.16798,0.288809 -0.0737,0.150299 -0.12672,0.303544 -0.0501,0.150299 -0.0766,0.282915 l -0.18567,0.875269 q 0.0531,0.02358 0.12672,0.04421 0.0737,0.01768 0.15325,0.03242 0.0796,0.01474 0.16209,0.02358 0.0825,0.0088 0.15324,0.0088 0.20335,0 0.37428,-0.06778 0.17387,-0.06778 0.30943,-0.182716 0.13851,-0.117881 0.24166,-0.274074 0.10609,-0.159139 0.17682,-0.335961 0.0707,-0.179769 0.1061,-0.368379 0.0354,-0.191557 0.0354,-0.374273 z"
         style="font-style:italic;font-family:'Segoe UI';-inkscape-font-specification:'Segoe UI Italic';text-align:center;text-anchor:middle"
         id="path29213" /><path
         d="m 145.2572,61.901324 q -0.0236,0.111987 -0.0472,0.253445 -0.0206,0.13851 -0.0383,0.277021 -0.0147,0.135563 -0.0265,0.253444 -0.009,0.117882 -0.009,0.182716 h -0.501 q 0.003,-0.05894 0.009,-0.141457 0.006,-0.08252 0.0147,-0.170928 0.0118,-0.08841 0.0206,-0.173875 0.0118,-0.08546 0.0236,-0.147351 h -0.0118 q -0.0914,0.144404 -0.18566,0.274074 -0.0943,0.126722 -0.20924,0.223974 -0.11493,0.09725 -0.25639,0.153246 -0.14146,0.05599 -0.33301,0.05599 -0.19746,0 -0.36249,-0.07073 -0.16209,-0.07073 -0.27997,-0.209239 -0.11788,-0.141457 -0.18271,-0.350696 -0.0619,-0.212187 -0.0619,-0.492155 0,-0.170928 0.0354,-0.389008 0.0354,-0.21808 0.11788,-0.445002 0.0855,-0.226921 0.22398,-0.442054 0.14146,-0.218081 0.34775,-0.389008 0.20924,-0.170928 0.49215,-0.274074 0.28292,-0.103146 0.65424,-0.103146 0.23577,0 0.48626,0.03536 0.2505,0.03536 0.49805,0.08546 z m -0.13851,-1.653284 q -0.10314,-0.02358 -0.24165,-0.04126 -0.13851,-0.01768 -0.25934,-0.01768 -0.25639,0 -0.45384,0.08252 -0.19451,0.07957 -0.33891,0.212186 -0.14441,0.12967 -0.24461,0.300597 -0.0973,0.170928 -0.15619,0.350697 -0.0589,0.176822 -0.0855,0.350697 -0.0236,0.173875 -0.0236,0.315332 0,0.167981 0.0295,0.303544 0.0295,0.132617 0.0914,0.226922 0.0648,0.0943 0.16209,0.147351 0.10019,0.0501 0.23576,0.0501 0.14735,0 0.27407,-0.05894 0.12967,-0.06189 0.24166,-0.165034 0.11199,-0.103146 0.20334,-0.238709 0.0914,-0.135564 0.16504,-0.285862 0.0737,-0.153246 0.12377,-0.309438 0.0531,-0.15914 0.0855,-0.306492 z"
         style="font-style:italic;font-family:'Segoe UI';-inkscape-font-specification:'Segoe UI Italic';text-align:center;text-anchor:middle"
         id="path29215" /><path
         d="m 148.40758,60.448438 q -0.12377,-0.10904 -0.3006,-0.182716 -0.17387,-0.07662 -0.38606,-0.07662 -0.20334,0 -0.36838,0.07073 -0.16208,0.07073 -0.28881,0.18861 -0.12672,0.117881 -0.21808,0.271127 -0.0914,0.153245 -0.15029,0.318279 -0.0589,0.165034 -0.0884,0.330068 -0.0265,0.162086 -0.0265,0.303544 0,0.421425 0.18566,0.639506 0.18567,0.21808 0.50689,0.21808 0.19451,0 0.40375,-0.07957 0.20924,-0.08252 0.3949,-0.209239 l -0.10315,0.483313 q -0.19155,0.103146 -0.38311,0.15914 -0.18861,0.05894 -0.4008,0.05894 -0.27702,0 -0.48331,-0.0943 -0.20335,-0.0943 -0.33891,-0.259339 -0.13556,-0.165033 -0.20334,-0.389008 -0.0678,-0.226921 -0.0678,-0.489207 0,-0.24755 0.0501,-0.48626 0.0501,-0.241657 0.14735,-0.453843 0.1002,-0.215133 0.24461,-0.397849 0.1444,-0.182716 0.33007,-0.312385 0.18861,-0.132617 0.41847,-0.206293 0.22987,-0.07662 0.49805,-0.07662 0.12673,0 0.24166,0.01768 0.11493,0.01768 0.20924,0.04715 0.0943,0.02947 0.16798,0.06484 0.0737,0.03242 0.11788,0.06483 z"
         style="font-style:italic;font-family:'Segoe UI';-inkscape-font-specification:'Segoe UI Italic';text-align:center;text-anchor:middle"
         id="path29217" /><path
         d="m 151.25736,60.557478 q 0,0.238709 -0.10609,0.436161 -0.1061,0.194504 -0.3507,0.335961 -0.2446,0.138511 -0.6454,0.215133 -0.4008,0.07662 -0.9902,0.07957 -0.006,0.03242 -0.006,0.06778 0,0.03242 0,0.05894 0,0.159139 0.0442,0.300597 0.0442,0.141457 0.13556,0.24755 0.0943,0.106094 0.23871,0.167981 0.14735,0.06189 0.34775,0.06189 0.20335,0 0.445,-0.07662 0.24461,-0.07957 0.46563,-0.223974 l -0.0913,0.477419 q -0.16209,0.0943 -0.38607,0.165033 -0.22397,0.07073 -0.50099,0.07073 -0.33302,0 -0.56288,-0.103146 -0.22693,-0.103146 -0.36838,-0.274074 -0.13851,-0.173875 -0.2004,-0.397849 -0.0619,-0.226921 -0.0619,-0.474472 0,-0.265233 0.0589,-0.509836 0.0589,-0.247551 0.16504,-0.459737 0.10904,-0.212187 0.25933,-0.386061 0.1503,-0.176822 0.33302,-0.300598 0.18272,-0.123775 0.39195,-0.191557 0.20924,-0.06778 0.43322,-0.06778 0.23281,0 0.40964,0.06189 0.17976,0.06189 0.29765,0.170928 0.12082,0.106093 0.18271,0.247551 0.0619,0.141457 0.0619,0.300597 z m -0.49216,0.02358 q 0,-0.185663 -0.13851,-0.288809 -0.13556,-0.103146 -0.36248,-0.103146 -0.17977,0 -0.34775,0.07957 -0.16798,0.07662 -0.30944,0.215133 -0.14146,0.135564 -0.2446,0.327121 -0.10315,0.18861 -0.1503,0.409637 0.42142,0 0.71613,-0.04126 0.2947,-0.04421 0.48036,-0.126723 0.18567,-0.08252 0.27113,-0.200398 0.0855,-0.120828 0.0855,-0.271127 z"
         style="font-style:italic;font-family:'Segoe UI';-inkscape-font-specification:'Segoe UI Italic';text-align:center;text-anchor:middle"
         id="path29219" /></g><path
       style="fill:#000000;fill-opacity:1;stroke:#ffffff;stroke-width:0.75;stroke-linecap:round;stroke-linejoin:round;stroke-dasharray:none;stroke-opacity:1;marker-end:url(#Arrow1)"
       d="m 164.22364,33.241616 19.57721,14.092067"
       id="path6208" /><path
       style="fill:#000000;fill-opacity:1;stroke:#ffffff;stroke-width:0.75;stroke-linecap:round;stroke-linejoin:round;stroke-dasharray:none;stroke-opacity:1;marker-end:url(#Arrow1)"
       d="M 164.22364,33.241616 188.27109,20.478767"
       id="path6261" /><g
       aria-label="v"
       id="text6419"
       style="font-style:italic;font-size:7.69211px;line-height:1.25;font-family:'Charter ITC TT';-inkscape-font-specification:'Charter ITC TT Italic';letter-spacing:0px;word-spacing:0px;fill:#ffffff;stroke-width:0.401094"><path
         d="m 155.85811,15.93416 q 0,0.723059 -1.33843,2.399939 -0.23077,0.284608 -0.76921,0.915361 h -0.36922 q 0.10769,-0.246148 0.10769,-0.523064 0,-0.123073 -0.0154,-0.269224 l -0.1923,-1.799953 q -0.0231,-0.223072 -0.0615,-0.353837 -0.0615,-0.223072 -0.16922,-0.299993 l -0.5923,-0.04615 v -0.192303 l 0.77691,-0.246148 q 0.30768,0 0.43075,0.176919 0.12308,0.176918 0.16923,0.699982 l 0.2,2.107638 q 0.89228,-1.153816 1.17689,-1.899951 l -0.14615,-0.938438 q 0.20769,-0.14615 0.3923,-0.14615 0.39999,0 0.39999,0.415374 z"
         id="path29294" /></g><g
       aria-label="2"
       id="text6423"
       style="font-style:italic;font-size:3.77109px;line-height:1.25;font-family:'Charter ITC TT';-inkscape-font-specification:'Charter ITC TT Italic';letter-spacing:0px;word-spacing:0px;fill:#ffffff;stroke-width:0.196638"><path
         d="m 156.54752,19.465658 q 0,0.441217 -0.59206,0.961628 -0.24512,0.214952 -1.01065,0.754218 h 1.1351 l 0.12822,-0.320543 h 0.16969 l -0.1169,0.618459 h -1.74601 l 0.0453,-0.237579 q 0.76176,-0.535495 1.03328,-0.776845 0.32054,-0.282831 0.45253,-0.501554 0.13199,-0.222495 0.13199,-0.471387 0,-0.184783 -0.10937,-0.290374 -0.10936,-0.10559 -0.29791,-0.10559 -0.15462,0 -0.35825,0.09051 l -0.0754,0.403507 q -0.098,0.05657 -0.18101,0.05657 -0.17724,0 -0.17724,-0.154615 0,-0.230036 0.27906,-0.407277 0.28283,-0.181013 0.64109,-0.181013 0.30545,0 0.47515,0.150844 0.17347,0.147072 0.17347,0.411049 z"
         id="path29291" /></g><path
       style="fill:#ffffff;fill-opacity:1;stroke:#ffffff;stroke-width:0.35;stroke-linecap:butt;stroke-linejoin:round;stroke-dasharray:none;stroke-opacity:1"
       d="m 153.14442,14.605915 h 2.51401"
       id="path9614-3" /><g
       aria-label="3D space"
       transform="scale(1.0000531,0.9999469)"
       id="text8665"
       style="font-size:6.03552px;line-height:1.25;font-family:'Lucida Console';-inkscape-font-specification:'Lucida Console';letter-spacing:0px;word-spacing:0px;fill:#b3b3b3;stroke-width:0.340277"><path
         d="m 23.142921,59.517176 q 0,0.212186 -0.06484,0.403743 -0.06483,0.18861 -0.203345,0.341856 -0.13851,0.153245 -0.353644,0.265233 -0.215133,0.10904 -0.512783,0.162086 v 0.01179 q 0.176822,0.02652 0.324173,0.106094 0.147352,0.07957 0.250498,0.200398 0.106093,0.120828 0.162087,0.277021 0.05894,0.156192 0.05894,0.338908 0,0.26818 -0.09725,0.50689 -0.09725,0.238709 -0.29765,0.418478 -0.197451,0.179769 -0.498048,0.285862 -0.29765,0.106093 -0.701394,0.106093 -0.162086,0 -0.318279,-0.02358 -0.156193,-0.02063 -0.294703,-0.05305 -0.135564,-0.03536 -0.250498,-0.07662 -0.114934,-0.04421 -0.197451,-0.08841 l 0.103146,-0.459737 q 0.07957,0.05305 0.18861,0.106093 0.111987,0.05305 0.23871,0.09431 0.129669,0.03831 0.26818,0.06483 0.141457,0.02358 0.279968,0.02358 0.309438,0 0.518677,-0.07368 0.209239,-0.07662 0.335962,-0.197451 0.126722,-0.123775 0.179769,-0.279968 0.05305,-0.15914 0.05305,-0.324173 0,-0.350697 -0.259339,-0.554042 -0.259338,-0.206293 -0.78391,-0.206293 H 20.95033 l 0.09136,-0.415531 h 0.350696 q 0.306492,0 0.539307,-0.06189 0.235763,-0.06189 0.394902,-0.173874 0.15914,-0.114935 0.23871,-0.277021 0.08252,-0.162087 0.08252,-0.362485 0,-0.126723 -0.04126,-0.23871 -0.04126,-0.114934 -0.129669,-0.197451 -0.08546,-0.08546 -0.21808,-0.135563 -0.12967,-0.0501 -0.312386,-0.0501 -0.150298,0 -0.288809,0.02358 -0.135563,0.02063 -0.256392,0.05599 -0.120828,0.03536 -0.223974,0.07957 -0.103146,0.04421 -0.182716,0.08841 l 0.100199,-0.483313 q 0.07662,-0.02947 0.170928,-0.05894 0.09431,-0.03242 0.209239,-0.05599 0.114934,-0.02652 0.253445,-0.04126 0.13851,-0.01768 0.303544,-0.01768 0.29765,0 0.50689,0.08252 0.209239,0.08252 0.344802,0.21808 0.135564,0.132616 0.197451,0.303544 0.06189,0.167981 0.06189,0.341856 z"
         style="font-style:italic;font-family:'Segoe UI';-inkscape-font-specification:'Segoe UI Italic';text-align:center;text-anchor:middle"
         id="path29222" /><path
         d="m 27.427905,60.351186 q 0,0.312385 -0.06483,0.621823 -0.06189,0.309439 -0.194504,0.589407 -0.12967,0.279968 -0.335962,0.518677 -0.206292,0.23871 -0.492154,0.415531 -0.285862,0.173875 -0.657188,0.274074 -0.368379,0.09725 -0.828116,0.09725 h -1.337952 l 0.898845,-4.226042 h 1.175865 q 0.412584,0 0.751493,0.117881 0.338909,0.114934 0.577618,0.335961 0.241657,0.221028 0.374273,0.539307 0.132617,0.315332 0.132617,0.716129 z m -0.518678,0.03536 q 0,-0.618876 -0.362485,-0.957785 -0.362485,-0.338909 -1.075666,-0.338909 h -0.6454 l -0.713182,3.330146 h 0.786858 q 0.498048,0 0.872321,-0.15914 0.37722,-0.15914 0.627718,-0.436161 0.253444,-0.277021 0.380167,-0.645399 0.129669,-0.371326 0.129669,-0.792752 z"
         style="font-style:italic;font-family:'Segoe UI';-inkscape-font-specification:'Segoe UI Italic';text-align:center;text-anchor:middle"
         id="path29224" /><path
         d="m 31.391661,60.380656 q -0.132616,-0.08546 -0.29765,-0.13851 -0.165033,-0.05305 -0.330067,-0.05305 -0.277021,0 -0.430267,0.126722 -0.150298,0.126723 -0.150298,0.335962 0,0.08546 0.02652,0.156193 0.02947,0.07073 0.08252,0.135563 0.05599,0.06189 0.13851,0.120828 0.08546,0.05894 0.194504,0.126723 0.330068,0.191557 0.474472,0.394902 0.147352,0.200398 0.147352,0.453843 0,0.170927 -0.06484,0.335961 -0.06189,0.162087 -0.200398,0.288809 -0.13851,0.123776 -0.359538,0.200398 -0.21808,0.07662 -0.533412,0.07662 -0.08841,0 -0.194504,-0.01179 -0.106094,-0.01179 -0.215134,-0.03536 -0.106093,-0.02358 -0.206292,-0.05599 -0.09725,-0.03536 -0.170928,-0.07957 l 0.09725,-0.459737 q 0.05894,0.04126 0.144405,0.08252 0.08841,0.04126 0.18861,0.07368 0.103146,0.03242 0.212186,0.05305 0.111987,0.02063 0.221027,0.02063 0.294704,0 0.439108,-0.117881 0.147352,-0.117882 0.147352,-0.327121 0,-0.07662 -0.02358,-0.141457 -0.02063,-0.06484 -0.07662,-0.12967 -0.05599,-0.06483 -0.147352,-0.129669 -0.09136,-0.06778 -0.229868,-0.150299 -0.300598,-0.182716 -0.445002,-0.380167 -0.141458,-0.200398 -0.141458,-0.450896 0,-0.182715 0.06778,-0.347749 0.06778,-0.167981 0.200398,-0.294703 0.135564,-0.12967 0.338909,-0.206293 0.203345,-0.07662 0.474472,-0.07662 0.212186,0 0.400796,0.04126 0.191557,0.04126 0.324174,0.106093 z"
         style="font-style:italic;font-family:'Segoe UI';-inkscape-font-specification:'Segoe UI Italic';text-align:center;text-anchor:middle"
         id="path29226" /><path
         d="m 34.680549,60.905228 q 0,0.21808 -0.04715,0.453842 -0.04715,0.232816 -0.144404,0.459737 -0.09725,0.226922 -0.244604,0.430267 -0.144405,0.203345 -0.341856,0.359538 -0.197451,0.153245 -0.447948,0.244603 -0.250498,0.08841 -0.554042,0.08841 -0.173875,0 -0.344803,-0.03242 -0.167981,-0.03242 -0.294703,-0.07662 l -0.300597,1.435204 h -0.489207 l 0.736757,-3.489285 q 0.02063,-0.09431 0.03831,-0.226921 0.01768,-0.132617 0.02947,-0.265233 0.01474,-0.135563 0.02358,-0.253445 0.0088,-0.117881 0.0088,-0.182716 h 0.495102 q 0,0.0501 -0.0088,0.135564 -0.0059,0.08546 -0.01768,0.179769 -0.01179,0.09136 -0.02358,0.179769 -0.01179,0.08546 -0.02063,0.13851 h 0.01179 q 0.209239,-0.356591 0.471525,-0.530466 0.262286,-0.176821 0.571724,-0.176821 0.206292,0 0.371326,0.07073 0.165034,0.07073 0.279968,0.212187 0.117881,0.141457 0.179769,0.353643 0.06189,0.212187 0.06189,0.492155 z m -0.495102,0.02063 q 0,-0.15914 -0.02947,-0.294703 -0.02652,-0.135564 -0.09136,-0.232816 -0.06484,-0.09725 -0.167981,-0.153245 -0.100199,-0.05599 -0.24755,-0.05599 -0.153246,0 -0.288809,0.06484 -0.132617,0.06189 -0.247551,0.16798 -0.114934,0.106094 -0.209239,0.247551 -0.0943,0.138511 -0.167981,0.288809 -0.07368,0.150299 -0.126722,0.303544 -0.0501,0.150299 -0.07662,0.282915 L 32.3465,62.420002 q 0.05305,0.02358 0.126722,0.04421 0.07368,0.01768 0.153246,0.03242 0.07957,0.01474 0.162087,0.02358 0.08252,0.0088 0.153245,0.0088 0.203345,0 0.374273,-0.06778 0.173875,-0.06778 0.309438,-0.182716 0.138511,-0.117881 0.241657,-0.274074 0.106093,-0.159139 0.176822,-0.335961 0.07073,-0.179769 0.106093,-0.368379 0.03536,-0.191557 0.03536,-0.374273 z"
         style="font-style:italic;font-family:'Segoe UI';-inkscape-font-specification:'Segoe UI Italic';text-align:center;text-anchor:middle"
         id="path29228" /><path
         d="m 37.606951,61.901324 q -0.02358,0.111987 -0.04715,0.253445 -0.02063,0.13851 -0.03831,0.277021 -0.01474,0.135563 -0.02652,0.253444 -0.0088,0.117882 -0.0088,0.182716 h -0.500996 q 0.0029,-0.05894 0.0088,-0.141457 0.0059,-0.08252 0.01474,-0.170928 0.01179,-0.08841 0.02063,-0.173875 0.01179,-0.08546 0.02358,-0.147351 h -0.01179 q -0.09136,0.144404 -0.185663,0.274074 -0.0943,0.126722 -0.209239,0.223974 -0.114934,0.09725 -0.256392,0.153246 -0.141457,0.05599 -0.333014,0.05599 -0.197452,0 -0.362485,-0.07073 -0.162087,-0.07073 -0.279968,-0.209239 -0.117881,-0.141457 -0.182716,-0.350696 -0.06189,-0.212187 -0.06189,-0.492155 0,-0.170928 0.03536,-0.389008 0.03536,-0.21808 0.117881,-0.445002 0.08546,-0.226921 0.223974,-0.442054 0.141458,-0.218081 0.34775,-0.389008 0.209239,-0.170928 0.492154,-0.274074 0.282915,-0.103146 0.654241,-0.103146 0.235763,0 0.48626,0.03536 0.250498,0.03536 0.498048,0.08546 z m -0.13851,-1.653284 q -0.103147,-0.02358 -0.241657,-0.04126 -0.13851,-0.01768 -0.259339,-0.01768 -0.256391,0 -0.453843,0.08252 -0.194504,0.07957 -0.338908,0.212186 -0.144405,0.12967 -0.244604,0.300597 -0.09725,0.170928 -0.156192,0.350697 -0.05894,0.176822 -0.08546,0.350697 -0.02358,0.173875 -0.02358,0.315332 0,0.167981 0.02947,0.303544 0.02947,0.132617 0.09136,0.226922 0.06483,0.0943 0.162086,0.147351 0.100199,0.0501 0.235763,0.0501 0.147351,0 0.274074,-0.05894 0.129669,-0.06189 0.241656,-0.165034 0.111988,-0.103146 0.203346,-0.238709 0.09136,-0.135564 0.165033,-0.285862 0.07368,-0.153246 0.123776,-0.309438 0.05305,-0.15914 0.08546,-0.306492 z"
         style="font-style:italic;font-family:'Segoe UI';-inkscape-font-specification:'Segoe UI Italic';text-align:center;text-anchor:middle"
         id="path29230" /><path
         d="m 40.757327,60.448438 q -0.123776,-0.10904 -0.300597,-0.182716 -0.173875,-0.07662 -0.386062,-0.07662 -0.203345,0 -0.368378,0.07073 -0.162087,0.07073 -0.28881,0.18861 -0.126722,0.117881 -0.21808,0.271127 -0.09136,0.153245 -0.150298,0.318279 -0.05894,0.165034 -0.08841,0.330068 -0.02652,0.162086 -0.02652,0.303544 0,0.421425 0.185663,0.639506 0.185663,0.21808 0.50689,0.21808 0.194504,0 0.403743,-0.07957 0.209239,-0.08252 0.394902,-0.209239 l -0.103146,0.483313 q -0.191557,0.103146 -0.383114,0.15914 -0.18861,0.05894 -0.400796,0.05894 -0.277021,0 -0.483313,-0.0943 -0.203346,-0.0943 -0.338909,-0.259339 -0.135563,-0.165033 -0.203345,-0.389008 -0.06778,-0.226921 -0.06778,-0.489207 0,-0.24755 0.0501,-0.48626 0.0501,-0.241657 0.147351,-0.453843 0.100199,-0.215133 0.244604,-0.397849 0.144404,-0.182716 0.330067,-0.312385 0.18861,-0.132617 0.418479,-0.206293 0.229868,-0.07662 0.498048,-0.07662 0.126722,0 0.241657,0.01768 0.114934,0.01768 0.209239,0.04715 0.0943,0.02947 0.167981,0.06484 0.07368,0.03242 0.117881,0.06483 z"
         style="font-style:italic;font-family:'Segoe UI';-inkscape-font-specification:'Segoe UI Italic';text-align:center;text-anchor:middle"
         id="path29232" /><path
         d="m 43.607105,60.557478 q 0,0.238709 -0.106093,0.436161 -0.106093,0.194504 -0.350696,0.335961 -0.244604,0.138511 -0.6454,0.215133 -0.400797,0.07662 -0.990203,0.07957 -0.0059,0.03242 -0.0059,0.06778 0,0.03242 0,0.05894 0,0.159139 0.04421,0.300597 0.04421,0.141457 0.135563,0.24755 0.0943,0.106094 0.23871,0.167981 0.147351,0.06189 0.347749,0.06189 0.203345,0 0.445002,-0.07662 0.244604,-0.07957 0.465631,-0.223974 l -0.09136,0.477419 q -0.162087,0.0943 -0.386061,0.165033 -0.223975,0.07073 -0.500995,0.07073 -0.333015,0 -0.562883,-0.103146 -0.226922,-0.103146 -0.368379,-0.274074 -0.138511,-0.173875 -0.200398,-0.397849 -0.06189,-0.226921 -0.06189,-0.474472 0,-0.265233 0.05894,-0.509836 0.05894,-0.247551 0.165033,-0.459737 0.10904,-0.212187 0.259339,-0.386061 0.150299,-0.176822 0.333015,-0.300598 0.182715,-0.123775 0.391955,-0.191557 0.209239,-0.06778 0.433213,-0.06778 0.232816,0 0.409638,0.06189 0.179769,0.06189 0.29765,0.170928 0.120828,0.106093 0.182716,0.247551 0.06189,0.141457 0.06189,0.300597 z m -0.492154,0.02358 q 0,-0.185663 -0.13851,-0.288809 -0.135564,-0.103146 -0.362485,-0.103146 -0.179769,0 -0.34775,0.07957 -0.167981,0.07662 -0.309438,0.215133 -0.141458,0.135564 -0.244604,0.327121 -0.103146,0.18861 -0.150298,0.409637 0.421425,0 0.716128,-0.04126 0.294703,-0.04421 0.480366,-0.126723 0.185663,-0.08252 0.271127,-0.200398 0.08546,-0.120828 0.08546,-0.271127 z"
         style="font-style:italic;font-family:'Segoe UI';-inkscape-font-specification:'Segoe UI Italic';text-align:center;text-anchor:middle"
         id="path29234" /></g><g
       aria-label="e"
       id="text6441"
       style="font-style:italic;font-size:7.69211px;line-height:1.25;font-family:'Charter ITC TT';-inkscape-font-specification:'Charter ITC TT Italic';letter-spacing:0px;word-spacing:0px;fill:#ffffff;stroke-width:0.401094"><path
         d="m 173.95281,20.427366 q 0,1.076895 -2.09994,1.246122 -0.0231,0.18461 -0.0231,0.33076 0,0.469219 0.20769,0.746135 0.20768,0.276916 0.56921,0.276916 0.54614,0 1.25382,-0.630753 v 0.361529 q -0.74614,0.69229 -1.49227,0.69229 -0.54614,0 -0.86152,-0.361529 -0.30768,-0.369222 -0.30768,-1.023051 0,-0.592292 0.24614,-1.123048 0.25384,-0.538448 0.69999,-0.8769 0.52306,-0.39999 1.02305,-0.39999 0.35383,0 0.56921,0.215379 0.21538,0.207687 0.21538,0.54614 z m -0.55383,-0.01538 q 0,-0.176918 -0.12307,-0.299992 -0.11538,-0.123074 -0.28461,-0.123074 -0.35384,0 -0.64614,0.376914 -0.28461,0.369221 -0.45383,1.046127 0.66921,-0.05384 1.04612,-0.2923 0.46153,-0.292301 0.46153,-0.707675 z"
         id="path29288" /></g><g
       aria-label="2"
       id="text6445"
       style="font-style:italic;font-size:3.77109px;line-height:1.25;font-family:'Charter ITC TT';-inkscape-font-specification:'Charter ITC TT Italic';letter-spacing:0px;word-spacing:0px;fill:#ffffff;stroke-width:0.196638"><path
         d="m 175.60984,23.612718 q 0,0.441218 -0.59206,0.961628 -0.24512,0.214952 -1.01065,0.754218 h 1.1351 l 0.12821,-0.320543 h 0.1697 l -0.1169,0.618459 h -1.74602 l 0.0453,-0.237579 q 0.76176,-0.535494 1.03327,-0.776844 0.32055,-0.282832 0.45254,-0.501555 0.13198,-0.222494 0.13198,-0.471386 0,-0.184784 -0.10936,-0.290374 -0.10936,-0.105591 -0.29791,-0.105591 -0.15462,0 -0.35826,0.09051 l -0.0754,0.403507 q -0.0981,0.05657 -0.18101,0.05657 -0.17724,0 -0.17724,-0.154614 0,-0.230037 0.27906,-0.407278 0.28283,-0.181012 0.64108,-0.181012 0.30546,0 0.47516,0.150843 0.17347,0.147073 0.17347,0.411049 z"
         id="path29285" /></g><path
       style="fill:#ffffff;fill-opacity:1;stroke:#ffffff;stroke-width:0.35;stroke-linecap:butt;stroke-linejoin:round;stroke-dasharray:none;stroke-opacity:1"
       d="m 171.5627,18.808086 h 2.51401"
       id="path9614" /><g
       aria-label="e"
       id="text9845"
       style="font-style:italic;font-size:7.69211px;line-height:1.25;font-family:'Charter ITC TT';-inkscape-font-specification:'Charter ITC TT Italic';letter-spacing:0px;word-spacing:0px;fill:#ffffff;stroke-width:0.401094"><path
         d="m 173.15905,43.84299 q 0,1.076896 -2.09995,1.246122 -0.0231,0.184611 -0.0231,0.330761 0,0.469219 0.20768,0.746135 0.20769,0.276915 0.56922,0.276915 0.54614,0 1.25381,-0.630753 v 0.36153 q -0.74613,0.69229 -1.49226,0.69229 -0.54614,0 -0.86152,-0.36153 -0.30769,-0.369221 -0.30769,-1.02305 0,-0.592293 0.24615,-1.123048 0.25384,-0.538448 0.69998,-0.876901 0.52307,-0.39999 1.02306,-0.39999 0.35383,0 0.56921,0.215379 0.21538,0.207687 0.21538,0.54614 z m -0.55383,-0.01538 q 0,-0.176918 -0.12308,-0.299992 -0.11538,-0.123074 -0.2846,-0.123074 -0.35384,0 -0.64614,0.376913 -0.28461,0.369222 -0.45384,1.046127 0.66922,-0.05384 1.04613,-0.2923 0.46153,-0.2923 0.46153,-0.707674 z"
         id="path29282" /></g><g
       aria-label="1"
       id="text9849"
       style="font-style:italic;font-size:3.77109px;line-height:1.25;font-family:'Charter ITC TT';-inkscape-font-specification:'Charter ITC TT Italic';letter-spacing:0px;word-spacing:0px;fill:#ffffff;stroke-width:0.196638"><path
         d="m 174.38994,46.466452 -0.47138,2.345618 0.0377,0.05657 0.3394,0.01886 v 0.154615 h -1.17658 V 48.87995 l 0.41105,-0.01886 0.0641,-0.06788 0.39597,-1.957196 -0.0452,-0.03771 -0.56944,0.07165 v -0.150844 l 0.92015,-0.252663 z"
         id="path29279" /></g><path
       style="fill:#ffffff;fill-opacity:1;stroke:#ffffff;stroke-width:0.35;stroke-linecap:butt;stroke-linejoin:round;stroke-dasharray:none;stroke-opacity:1"
       d="m 170.76895,42.223711 h 2.51401"
       id="path9851" /><g
       aria-label="v"
       id="text9890"
       style="font-style:italic;font-size:7.69211px;line-height:1.25;font-family:'Charter ITC TT';-inkscape-font-specification:'Charter ITC TT Italic';letter-spacing:0px;word-spacing:0px;fill:#ffffff;stroke-width:0.401094"><path
         d="m 125.42678,26.379248 q 0,0.723058 -1.33843,2.399938 -0.23076,0.284608 -0.76921,0.915361 h -0.36922 q 0.10769,-0.246147 0.10769,-0.523063 0,-0.123074 -0.0154,-0.269224 l -0.1923,-1.799954 q -0.0231,-0.223071 -0.0615,-0.353837 -0.0615,-0.223071 -0.16922,-0.299992 l -0.5923,-0.04615 v -0.192303 l 0.77691,-0.246147 q 0.30768,0 0.43076,0.176918 0.12307,0.176919 0.16922,0.699982 l 0.2,2.107639 q 0.89228,-1.153817 1.17689,-1.899952 l -0.14615,-0.938437 q 0.20769,-0.14615 0.3923,-0.14615 0.39999,0 0.39999,0.415374 z"
         id="path29270" /></g><g
       aria-label="0"
       id="text9894"
       style="font-style:italic;font-size:3.77109px;line-height:1.25;font-family:'Charter ITC TT';-inkscape-font-specification:'Charter ITC TT Italic';letter-spacing:0px;word-spacing:0px;fill:#ffffff;stroke-width:0.196638"><path
         d="m 126.16522,30.216203 q 0,0.373338 -0.12445,0.742905 -0.12067,0.369567 -0.32431,0.62223 -0.31677,0.388422 -0.7429,0.388422 -0.33186,0 -0.51664,-0.226265 -0.18102,-0.230037 -0.18102,-0.644857 0,-0.377109 0.12445,-0.754218 0.12445,-0.38088 0.33186,-0.626001 0.313,-0.369566 0.74667,-0.369566 0.32054,0 0.50156,0.230036 0.18478,0.230037 0.18478,0.637314 z m -0.34694,-0.101819 q 0,-0.58829 -0.39219,-0.58829 -0.33186,0 -0.5619,0.512868 -0.10559,0.230037 -0.17347,0.561893 -0.0679,0.331855 -0.0679,0.599603 0,0.592061 0.38088,0.592061 0.35072,0 0.58075,-0.527953 0.10182,-0.237578 0.16593,-0.558121 0.0679,-0.324314 0.0679,-0.592061 z"
         id="path29267" /></g><path
       style="fill:#ffffff;fill-opacity:1;stroke:#ffffff;stroke-width:0.35;stroke-linecap:butt;stroke-linejoin:round;stroke-dasharray:none;stroke-opacity:1"
       d="m 122.71309,25.051002 h 2.51401"
       id="path9896" /><g
       aria-label="v"
       id="text9902"
       style="font-style:italic;font-size:7.69211px;line-height:1.25;font-family:'Charter ITC TT';-inkscape-font-specification:'Charter ITC TT Italic';letter-spacing:0px;word-spacing:0px;fill:#ffffff;stroke-width:0.401094"><path
         d="m 150.67782,49.057324 q 0,0.723058 -1.33842,2.399938 -0.23077,0.284608 -0.76922,0.915361 h -0.36922 q 0.10769,-0.246148 0.10769,-0.523063 0,-0.123074 -0.0154,-0.269224 l -0.1923,-1.799954 q -0.0231,-0.223071 -0.0615,-0.353837 -0.0615,-0.223071 -0.16923,-0.299992 l -0.59229,-0.04615 v -0.192303 l 0.7769,-0.246147 q 0.30769,0 0.43076,0.176918 0.12308,0.176919 0.16923,0.699982 l 0.19999,2.107638 q 0.89229,-1.153816 1.1769,-1.899951 L 149.88554,48.7881 q 0.20768,-0.14615 0.39229,-0.14615 0.39999,0 0.39999,0.415374 z"
         id="path29264" /></g><g
       aria-label="1"
       id="text9906"
       style="font-style:italic;font-size:3.77109px;line-height:1.25;font-family:'Charter ITC TT';-inkscape-font-specification:'Charter ITC TT Italic';letter-spacing:0px;word-spacing:0px;fill:#ffffff;stroke-width:0.196638"><path
         d="m 150.94111,52.02693 -0.47139,2.345618 0.0377,0.05657 0.3394,0.01885 v 0.154615 h -1.17658 v -0.162157 l 0.41105,-0.01885 0.0641,-0.06788 0.39596,-1.957196 -0.0453,-0.03771 -0.56944,0.07165 v -0.150844 l 0.92015,-0.252663 z"
         id="path29261" /></g><path
       style="fill:#ffffff;fill-opacity:1;stroke:#ffffff;stroke-width:0.35;stroke-linecap:butt;stroke-linejoin:round;stroke-dasharray:none;stroke-opacity:1"
       d="m 147.96415,47.729079 h 2.51401"
       id="path9908" /><g
       aria-label="e"
       id="text19528"
       style="font-style:italic;font-size:7.69211px;line-height:1.25;font-family:'Charter ITC TT';-inkscape-font-specification:'Charter ITC TT Italic';letter-spacing:0px;word-spacing:0px;fill:#ffffff;stroke-width:0.401094"><path
         d="m 56.876347,87.987689 q 0,1.076896 -2.099946,1.246122 -0.02308,0.184611 -0.02308,0.330761 0,0.469219 0.207687,0.746135 0.207687,0.276916 0.569217,0.276916 0.546139,0 1.253814,-0.630753 v 0.361529 q -0.746135,0.69229 -1.49227,0.69229 -0.54614,0 -0.861516,-0.36153 -0.307685,-0.369221 -0.307685,-1.02305 0,-0.592293 0.246148,-1.123048 0.25384,-0.538448 0.699982,-0.876901 0.523063,-0.39999 1.023051,-0.39999 0.353837,0 0.569216,0.21538 0.215379,0.207687 0.215379,0.546139 z m -0.553832,-0.01538 q 0,-0.176918 -0.123074,-0.299992 -0.115381,-0.123074 -0.284608,-0.123074 -0.353837,0 -0.646137,0.376914 -0.284608,0.369221 -0.453835,1.046126 0.669214,-0.05384 1.046127,-0.2923 0.461527,-0.2923 0.461527,-0.707674 z"
         id="path29360" /></g><g
       aria-label="1"
       id="text19532"
       style="font-style:italic;font-size:3.77109px;line-height:1.25;font-family:'Charter ITC TT';-inkscape-font-specification:'Charter ITC TT Italic';letter-spacing:0px;word-spacing:0px;fill:#ffffff;stroke-width:0.196638"><path
         d="m 58.107242,90.611151 -0.471387,2.345618 0.03771,0.05657 0.339398,0.01886 v 0.154615 h -1.17658 v -0.162157 l 0.411049,-0.01886 0.06411,-0.06788 0.395964,-1.957196 -0.04525,-0.03771 -0.569435,0.07165 v -0.150844 l 0.920146,-0.252663 z"
         id="path29357" /></g><g
       aria-label="e"
       id="text19538"
       style="font-style:italic;font-size:7.69211px;line-height:1.25;font-family:'Charter ITC TT';-inkscape-font-specification:'Charter ITC TT Italic';letter-spacing:0px;word-spacing:0px;fill:#ffffff;stroke-width:0.401094"><path
         d="m 66.320565,87.987689 q 0,1.076896 -2.099947,1.246122 -0.02308,0.184611 -0.02308,0.330761 0,0.469219 0.207687,0.746135 0.207687,0.276916 0.569216,0.276916 0.54614,0 1.253814,-0.630753 v 0.361529 q -0.746134,0.69229 -1.492269,0.69229 -0.54614,0 -0.861516,-0.36153 -0.307685,-0.369221 -0.307685,-1.02305 0,-0.592293 0.246148,-1.123048 0.253839,-0.538448 0.699982,-0.876901 0.523063,-0.39999 1.02305,-0.39999 0.353837,0 0.569216,0.21538 0.21538,0.207687 0.21538,0.546139 z m -0.553832,-0.01538 q 0,-0.176918 -0.123074,-0.299992 -0.115382,-0.123074 -0.284608,-0.123074 -0.353837,0 -0.646137,0.376914 -0.284609,0.369221 -0.453835,1.046126 0.669214,-0.05384 1.046127,-0.2923 0.461527,-0.2923 0.461527,-0.707674 z"
         id="path29348" /></g><g
       aria-label="2"
       id="text19542"
       style="font-style:italic;font-size:3.77109px;line-height:1.25;font-family:'Charter ITC TT';-inkscape-font-specification:'Charter ITC TT Italic';letter-spacing:0px;word-spacing:0px;fill:#ffffff;stroke-width:0.196638"><path
         d="m 67.977592,91.173044 q 0,0.441217 -0.592061,0.961628 -0.245121,0.214952 -1.010652,0.754218 h 1.135098 l 0.128217,-0.320543 h 0.169699 l -0.116903,0.618459 h -1.746015 l 0.04525,-0.237579 q 0.76176,-0.535495 1.033279,-0.776844 0.320542,-0.282832 0.45253,-0.501555 0.131989,-0.222495 0.131989,-0.471387 0,-0.184783 -0.109362,-0.290374 -0.109362,-0.10559 -0.297916,-0.10559 -0.154615,0 -0.358254,0.09051 l -0.07542,0.403507 q -0.09805,0.05657 -0.181012,0.05657 -0.177241,0 -0.177241,-0.154615 0,-0.230036 0.279061,-0.407277 0.282831,-0.181013 0.641085,-0.181013 0.305458,0 0.475157,0.150844 0.17347,0.147072 0.17347,0.411049 z"
         id="path29345" /></g><path
       d="m 51.550796,105.51369 c 0,-0.0632 -0.0249,-0.0843 -0.0373,-0.12641 -0.29836,-0.50562 -0.82049,-1.39045 -1.35504,-2.84409 -1.28046,-3.476125 -1.85231,-7.837065 -1.85231,-13.019635 0,-3.62358 0.28593,-8.27946 1.59125,-12.28226 0.62157,-1.91713 1.28045,-3.01263 1.62853,-3.60251 0.0249,-0.0421 0.0249,-0.0632 0.0249,-0.10535 0,-0.14747 -0.0621,-0.14747 -0.17405,-0.14747 -0.11187,0 -0.12431,0 -0.24862,0.21068 -2.64793,4.10813 -3.48085,10.25979 -3.48085,15.90584 0,5.28791 0.70861,10.617955 2.72252,14.641815 0.16161,0.29493 0.45997,0.84269 0.78319,1.32723 0.0994,0.16854 0.11189,0.16854 0.22376,0.16854 0.11189,0 0.17405,0 0.17405,-0.1264 z m 0,0"
       id="path19546"
       style="fill:#ffffff;fill-opacity:1;stroke-width:1.03573" /><path
       d="m 70.401506,105.51369 c 0,-0.0632 0.0249,-0.0843 0.0373,-0.12641 0.29836,-0.50562 0.82049,-1.39045 1.35504,-2.84409 1.28046,-3.476125 1.85231,-7.837065 1.85231,-13.019635 0,-3.62358 -0.28593,-8.27946 -1.59125,-12.28226 -0.62157,-1.91713 -1.28045,-3.01263 -1.62853,-3.60251 -0.0249,-0.0421 -0.0249,-0.0632 -0.0249,-0.10535 0,-0.14747 0.0621,-0.14747 0.17405,-0.14747 0.11187,0 0.12431,0 0.24862,0.21068 2.64793,4.10813 3.48085,10.25979 3.48085,15.90584 0,5.28791 -0.70861,10.617955 -2.72252,14.641815 -0.16161,0.29493 -0.45997,0.84269 -0.78319,1.32723 -0.0994,0.16854 -0.11189,0.16854 -0.22376,0.16854 -0.11189,0 -0.17405,0 -0.17405,-0.1264 z m 0,0"
       id="path19548"
       style="fill:#ffffff;fill-opacity:1;stroke-width:1.03573" /><path
       id="rect19550"
       style="fill:none;stroke:#ffffff;stroke-width:0.349999;stroke-linejoin:round"
       d="m 52.410744,73.108856 h 7.408325 v 32.685914 h -7.408325 z" /><path
       id="rect19552"
       style="fill:none;stroke:#ffffff;stroke-width:0.349999;stroke-linejoin:round"
       d="m 62.068031,73.108856 h 7.408326 v 32.685914 h -7.408326 z" /><path
       d="m 94.95536,105.51369 c 0,-0.0632 -0.0249,-0.0843 -0.0373,-0.12641 -0.29836,-0.50562 -0.82049,-1.39045 -1.35504,-2.84409 -1.28046,-3.476125 -1.85231,-7.837065 -1.85231,-13.019635 0,-3.62358 0.28593,-8.27946 1.59125,-12.28226 0.62157,-1.91713 1.28045,-3.01263 1.62853,-3.60251 0.0249,-0.0421 0.0249,-0.0632 0.0249,-0.10535 0,-0.14747 -0.0621,-0.14747 -0.17405,-0.14747 -0.11187,0 -0.12431,0 -0.24862,0.21068 -2.64793,4.10813 -3.48085,10.25979 -3.48085,15.90584 0,5.28791 0.70861,10.617955 2.72252,14.641815 0.16161,0.29493 0.45997,0.84269 0.78319,1.32723 0.0994,0.16854 0.11189,0.16854 0.22376,0.16854 0.11189,0 0.17405,0 0.17405,-0.1264 z m 0,0"
       id="path19556"
       style="fill:#ffffff;fill-opacity:1;stroke-width:1.03573" /><path
       d="m 113.80607,105.51369 c 0,-0.0632 0.0249,-0.0843 0.0373,-0.12641 0.29836,-0.50562 0.82049,-1.39045 1.35504,-2.84409 1.28046,-3.476125 1.85231,-7.837065 1.85231,-13.019635 0,-3.62358 -0.28593,-8.27946 -1.59125,-12.28226 -0.62157,-1.91713 -1.28045,-3.01263 -1.62853,-3.60251 -0.0249,-0.0421 -0.0249,-0.0632 -0.0249,-0.10535 0,-0.14747 0.0621,-0.14747 0.17405,-0.14747 0.11187,0 0.12431,0 0.24862,0.21068 2.64793,4.10813 3.48085,10.25979 3.48085,15.90584 0,5.28791 -0.70861,10.617955 -2.72252,14.641815 -0.16161,0.29493 -0.45997,0.84269 -0.78319,1.32723 -0.0994,0.16854 -0.11189,0.16854 -0.22376,0.16854 -0.11189,0 -0.17405,0 -0.17405,-0.1264 z m 0,0"
       id="path19558"
       style="fill:#ffffff;fill-opacity:1;stroke-width:1.03573" /><path
       id="rect19560"
       style="fill:none;stroke:#da0e0e;stroke-width:0.349999;stroke-linejoin:round"
       d="m 95.8153,73.108856 h 7.40833 V 105.79477 H 95.8153 Z" /><g
       aria-label="T"
       id="text19564"
       style="font-style:italic;font-size:7.69211px;line-height:1.25;font-family:'Charter ITC TT';-inkscape-font-specification:'Charter ITC TT Italic';letter-spacing:0px;word-spacing:0px;fill:#da0e0e;stroke-width:0.401094"><path
         d="m 101.70019,86.871111 -0.23077,1.146124 h -0.41537 l 0.0308,-0.715366 -0.0846,-0.115382 h -1.092275 l -0.846132,4.399887 0.1,0.115382 0.499987,0.03846 v 0.2923 h -1.876875 v -0.2923 l 0.492295,-0.03846 0.123074,-0.115382 0.823055,-4.399887 H 98.13874 l -0.130766,0.115382 -0.246147,0.715366 H 97.33876 l 0.223072,-1.146124 z"
         id="path29255" /></g><path
       id="rect19566"
       style="fill:none;stroke:#28a106;stroke-width:0.349999;stroke-linejoin:round"
       d="m 105.47259,73.108856 h 7.40832 v 32.685914 h -7.40832 z" /><g
       aria-label="B"
       id="text19570"
       style="font-style:italic;font-size:7.69211px;line-height:1.25;font-family:'Charter ITC TT';-inkscape-font-specification:'Charter ITC TT Italic';letter-spacing:0px;word-spacing:0px;fill:#28a106;stroke-width:0.401094"><path
         d="m 111.31045,87.848009 q 0,0.792287 -0.73845,1.207661 -0.20768,0.115382 -0.61537,0.238455 1.21536,0.06923 1.21536,1.053819 0,1.684572 -2.32302,1.684572 h -1.92303 v -0.2923 l 0.48461,-0.03846 0.13076,-0.115382 0.81537,-4.269121 -0.0769,-0.115382 -0.49229,-0.03846 v -0.2923 h 1.97687 q 0.79998,0 1.1692,0.238455 0.37692,0.230763 0.37692,0.738443 z m -0.74614,0.07692 q 0,-0.753827 -1.0692,-0.753827 -0.12308,0 -0.45384,0.02308 l -0.36922,1.999949 q 0.27692,0.02308 0.40768,0.02308 0.67691,0 1.0769,-0.353837 0.40768,-0.353837 0.40768,-0.938437 z m -0.14615,2.476859 q 0,-0.884593 -1.1692,-0.884593 -0.21538,0 -0.63844,0.03846 l -0.41538,2.138407 q 0.26923,0.02308 0.55383,0.02308 0.79998,0 1.23074,-0.338453 0.43845,-0.346145 0.43845,-0.976898 z"
         id="path29251" /></g><g
       aria-label="="
       id="text19576"
       style="font-size:7.69211px;line-height:1.25;font-family:'Charter ITC TT';-inkscape-font-specification:'Charter ITC TT';letter-spacing:0px;word-spacing:0px;fill:#ffffff;stroke-width:0.401094"><path
         d="M 84.353822,89.247973 H 79.853938 V 88.80183 h 4.499884 z m 0,1.430732 h -4.499884 v -0.446142 h 4.499884 z"
         id="path29237" /></g><g
       aria-label="e"
       id="text19580"
       style="font-style:italic;font-size:7.69211px;line-height:1.25;font-family:'Charter ITC TT';-inkscape-font-specification:'Charter ITC TT Italic';letter-spacing:0px;word-spacing:0px;fill:#ffffff;stroke-width:0.401094"><path
         d="m 131.06097,87.723102 q 0,1.076895 -2.09995,1.246122 -0.0231,0.18461 -0.0231,0.330761 0,0.469218 0.20769,0.746134 0.20769,0.276916 0.56922,0.276916 0.54614,0 1.25381,-0.630753 v 0.361529 q -0.74613,0.69229 -1.49227,0.69229 -0.54614,0 -0.86151,-0.361529 -0.30769,-0.369221 -0.30769,-1.023051 0,-0.592292 0.24615,-1.123048 0.25384,-0.538447 0.69998,-0.8769 0.52306,-0.39999 1.02305,-0.39999 0.35384,0 0.56922,0.215379 0.21538,0.207687 0.21538,0.54614 z m -0.55384,-0.01538 q 0,-0.176919 -0.12307,-0.299993 -0.11538,-0.123073 -0.28461,-0.123073 -0.35383,0 -0.64613,0.376913 -0.28461,0.369221 -0.45384,1.046127 0.66921,-0.05384 1.04613,-0.2923 0.46152,-0.2923 0.46152,-0.707674 z"
         id="path29354" /></g><g
       aria-label="1"
       id="text19584"
       style="font-style:italic;font-size:3.77109px;line-height:1.25;font-family:'Charter ITC TT';-inkscape-font-specification:'Charter ITC TT Italic';letter-spacing:0px;word-spacing:0px;fill:#ffffff;stroke-width:0.196638"><path
         d="m 132.29186,90.346564 -0.47138,2.345618 0.0377,0.05657 0.33939,0.01886 v 0.154614 H 131.021 v -0.162157 l 0.41105,-0.01885 0.0641,-0.06788 0.39597,-1.957195 -0.0453,-0.03771 -0.56943,0.07165 v -0.150843 l 0.92014,-0.252663 z"
         id="path29351" /></g><path
       style="fill:none;fill-opacity:1;stroke:#ffffff;stroke-width:0.35;stroke-linecap:butt;stroke-linejoin:round;stroke-dasharray:none;stroke-opacity:1"
       d="m 128.67086,86.103823 h 2.51401"
       id="path19586" /><g
       aria-label="e"
       id="text19592"
       style="font-style:italic;font-size:7.69211px;line-height:1.25;font-family:'Charter ITC TT';-inkscape-font-specification:'Charter ITC TT Italic';letter-spacing:0px;word-spacing:0px;fill:#ffffff;stroke-width:0.401094"><path
         d="m 140.50518,87.723102 q 0,1.076895 -2.09995,1.246122 -0.0231,0.18461 -0.0231,0.330761 0,0.469218 0.20769,0.746134 0.20768,0.276916 0.56921,0.276916 0.54614,0 1.25382,-0.630753 v 0.361529 q -0.74614,0.69229 -1.49227,0.69229 -0.54614,0 -0.86152,-0.361529 -0.30768,-0.369221 -0.30768,-1.023051 0,-0.592292 0.24614,-1.123048 0.25384,-0.538447 0.69998,-0.8769 0.52307,-0.39999 1.02306,-0.39999 0.35383,0 0.56921,0.215379 0.21538,0.207687 0.21538,0.54614 z m -0.55383,-0.01538 q 0,-0.176919 -0.12308,-0.299993 -0.11538,-0.123073 -0.2846,-0.123073 -0.35384,0 -0.64614,0.376913 -0.28461,0.369221 -0.45383,1.046127 0.66921,-0.05384 1.04612,-0.2923 0.46153,-0.2923 0.46153,-0.707674 z"
         id="path29341" /></g><g
       aria-label="2"
       id="text19596"
       style="font-style:italic;font-size:3.77109px;line-height:1.25;font-family:'Charter ITC TT';-inkscape-font-specification:'Charter ITC TT Italic';letter-spacing:0px;word-spacing:0px;fill:#ffffff;stroke-width:0.196638"><path
         d="m 142.16221,90.908456 q 0,0.441218 -0.59206,0.961628 -0.24512,0.214952 -1.01065,0.754218 h 1.13509 l 0.12822,-0.320542 h 0.1697 l -0.1169,0.618458 h -1.74602 l 0.0452,-0.237578 q 0.76176,-0.535495 1.03328,-0.776845 0.32055,-0.282832 0.45253,-0.501555 0.13199,-0.222494 0.13199,-0.471386 0,-0.184784 -0.10936,-0.290374 -0.10936,-0.105591 -0.29792,-0.105591 -0.15461,0 -0.35825,0.09051 l -0.0754,0.403506 q -0.0981,0.05657 -0.18101,0.05657 -0.17724,0 -0.17724,-0.154615 0,-0.230037 0.27906,-0.407278 0.28283,-0.181012 0.64108,-0.181012 0.30546,0 0.47516,0.150843 0.17347,0.147073 0.17347,0.411049 z"
         id="path29338" /></g><path
       style="fill:none;fill-opacity:1;stroke:#ffffff;stroke-width:0.35;stroke-linecap:butt;stroke-linejoin:round;stroke-dasharray:none;stroke-opacity:1"
       d="m 138.11508,86.103823 h 2.51401"
       id="path19598" /><path
       id="rect19602"
       style="fill:none;stroke:#ffffff;stroke-width:0.349999;stroke-linejoin:round"
       d="m 126.59535,78.268227 h 7.40834 v 22.489583 h -7.40834 z" /><path
       id="rect19604"
       style="fill:none;stroke:#ffffff;stroke-width:0.349999;stroke-linejoin:round"
       d="m 136.25264,78.268227 h 7.40833 v 22.489583 h -7.40833 z" /><path
       d="m 125.73542,100.39474 c 0,-0.043 -0.0249,-0.0573 -0.0373,-0.086 -0.29836,-0.343857 -0.82049,-0.945611 -1.35504,-1.934206 -1.28046,-2.364033 -1.85231,-5.32982 -1.85231,-8.854378 0,-2.464325 0.28593,-5.630696 1.59125,-8.352915 0.62157,-1.3038 1.28045,-2.048828 1.62853,-2.449998 0.0249,-0.02866 0.0249,-0.04298 0.0249,-0.07164 0,-0.100292 -0.0621,-0.100292 -0.17405,-0.100292 -0.11187,0 -0.12431,0 -0.24862,0.143274 -2.64793,2.793857 -3.48085,6.977479 -3.48085,10.817241 0,3.596195 0.70861,7.221045 2.72252,9.957592 0.16161,0.200585 0.45997,0.573102 0.78319,0.902632 0.0994,0.11462 0.11189,0.11462 0.22376,0.11462 0.11189,0 0.17405,0 0.17405,-0.086 z m 0,0"
       id="path19606"
       style="fill:#ffffff;fill-opacity:1;stroke-width:0.854137" /><path
       d="m 144.58613,100.39474 c 0,-0.043 0.0249,-0.0573 0.0373,-0.086 0.29836,-0.343857 0.82049,-0.945611 1.35504,-1.934206 1.28046,-2.364033 1.85231,-5.32982 1.85231,-8.854378 0,-2.464325 -0.28593,-5.630696 -1.59125,-8.352915 -0.62157,-1.3038 -1.28045,-2.048828 -1.62853,-2.449998 -0.0249,-0.02866 -0.0249,-0.04298 -0.0249,-0.07164 0,-0.100292 0.0621,-0.100292 0.17405,-0.100292 0.11187,0 0.12431,0 0.24862,0.143274 2.64793,2.793857 3.48085,6.977479 3.48085,10.817241 0,3.596195 -0.70861,7.221045 -2.72252,9.957592 -0.16161,0.200585 -0.45997,0.573102 -0.78319,0.902632 -0.0994,0.11462 -0.11189,0.11462 -0.22376,0.11462 -0.11189,0 -0.17405,0 -0.17405,-0.086 z m 0,0"
       id="path19608"
       style="fill:#ffffff;fill-opacity:1;stroke-width:0.854137" /><path
       style="fill:#ffffff;fill-opacity:1;stroke:#ffffff;stroke-width:0.572182;stroke-linecap:round;stroke-linejoin:round;stroke-dasharray:none;stroke-opacity:1"
       d="m 151.43797,19.306946 -24.04745,12.762849 19.57721,14.092067 z"
       id="path3392" /><path
       id="circle57728-9-8"
       style="fill:#ffffff;stroke-width:0.471263;stroke-linejoin:round"
       d="m 152.01287,19.306946 a 0.57489467,0.57489467 0 0 1 -0.5749,0.574894 0.57489467,0.57489467 0 0 1 -0.57489,-0.574894 0.57489467,0.57489467 0 0 1 0.57489,-0.574895 0.57489467,0.57489467 0 0 1 0.5749,0.574895 z" /><path
       id="circle57728-9-55"
       style="fill:#ffffff;stroke-width:0.471263;stroke-linejoin:round"
       d="m 147.54262,46.161861 a 0.57489467,0.57489467 0 0 1 -0.57489,0.574895 0.57489467,0.57489467 0 0 1 -0.5749,-0.574895 0.57489467,0.57489467 0 0 1 0.5749,-0.574894 0.57489467,0.57489467 0 0 1 0.57489,0.574894 z" /><path
       id="circle57728-9-3"
       style="fill:#ffffff;stroke-width:0.471263;stroke-linejoin:round"
       d="m 127.96541,32.069794 a 0.57489467,0.57489467 0 0 1 -0.57489,0.574894 0.57489467,0.57489467 0 0 1 -0.5749,-0.574894 0.57489467,0.57489467 0 0 1 0.5749,-0.574895 0.57489467,0.57489467 0 0 1 0.57489,0.574895 z" /><g
       aria-label="B"
       id="text20282"
       style="font-style:italic;font-size:7.69211px;line-height:1.25;font-family:'Charter ITC TT';-inkscape-font-specification:'Charter ITC TT Italic';letter-spacing:0px;word-spacing:0px;fill:#28a106;stroke-width:0.401094"><path
         d="m 49.47795,14.415555 q 0,0.792288 -0.738443,1.207662 -0.207687,0.115381 -0.615369,0.238455 1.215354,0.06923 1.215354,1.053819 0,1.684572 -2.323018,1.684572 h -1.923027 v -0.2923 l 0.484603,-0.03846 0.130766,-0.115382 0.815363,-4.269121 -0.07692,-0.115382 -0.492295,-0.03846 v -0.292301 h 1.976873 q 0.799979,0 1.1692,0.238456 0.376914,0.230763 0.376914,0.738442 z m -0.746135,0.07692 q 0,-0.753827 -1.069203,-0.753827 -0.123074,0 -0.453835,0.02308 l -0.369221,1.999949 q 0.276916,0.02308 0.407682,0.02308 0.676905,0 1.076895,-0.353837 0.407682,-0.353837 0.407682,-0.938437 z m -0.14615,2.476859 q 0,-0.884593 -1.169201,-0.884593 -0.215379,0 -0.638445,0.03846 l -0.415374,2.138406 q 0.269224,0.02308 0.553832,0.02308 0.799979,0 1.230738,-0.338453 0.43845,-0.346145 0.43845,-0.976898 z"
         id="path29240" /></g><g
       aria-label="N"
       id="text20286"
       style="font-style:italic;font-size:7.69211px;line-height:1.25;font-family:'Charter ITC TT';-inkscape-font-specification:'Charter ITC TT Italic';letter-spacing:0px;word-spacing:0px;fill:#095ddf;stroke-width:0.401094"><path
         d="m 63.265468,18.875895 -0.492296,0.03846 -0.123073,0.115381 -0.899977,4.715264 h -0.446143 l -2.023024,-4.276813 -0.746135,3.83067 0.08461,0.115382 0.492295,0.03846 v 0.2923 h -1.623035 v -0.2923 l 0.492295,-0.03846 0.123074,-0.115382 0.823055,-4.269121 -0.07692,-0.115381 -0.499987,-0.03846 v -0.2923 h 1.323043 v 0.192303 l 1.838414,3.8999 0.707675,-3.646061 -0.07692,-0.115381 -0.492295,-0.03846 v -0.2923 h 1.615344 z"
         id="path29243" /></g></g></svg>
