<?xml version="1.0" encoding="UTF-8" standalone="no"?>
<!-- Created with Inkscape (http://www.inkscape.org/) -->

<svg
   version="1.1"
   id="svg761"
   width="744.15997"
   height="188.26001"
   viewBox="0 0 744.15997 188.26002"
   xml:space="preserve"
   xmlns="http://www.w3.org/2000/svg"
   xmlns:svg="http://www.w3.org/2000/svg"><defs
     id="defs765"><marker
       style="overflow:visible"
       id="marker1044"
       refX="0"
       refY="0"
       orient="auto-start-reverse"
       markerWidth="1"
       markerHeight="1"
       viewBox="0 0 1 1"
       preserveAspectRatio="xMidYMid"><path
         style="fill:none;stroke:context-stroke;stroke-width:1;stroke-linecap:round"
         d="M 3,-3 0,0 3,3"
         transform="rotate(180,0.125,0)"
         id="path1044" /></marker><marker
       style="overflow:visible"
       id="ArrowWideRounded"
       refX="0"
       refY="0"
       orient="auto-start-reverse"
       markerWidth="1"
       markerHeight="1"
       viewBox="0 0 1 1"
       preserveAspectRatio="xMidYMid"><path
         style="fill:none;stroke:context-stroke;stroke-width:1;stroke-linecap:round"
         d="M 3,-3 0,0 3,3"
         transform="rotate(180,0.125,0)"
         id="path2" /></marker></defs><g
     id="layer1"
     style="display:none"
     transform="translate(107.87594,-390.50973)"><rect
       style="fill:#131416;fill-opacity:1;stroke:none;stroke-width:1.71213;stroke-linejoin:round"
       id="rect1081"
       width="765.71228"
       height="319.75735"
       x="-192.70709"
       y="358.27536" /></g><g
     id="layer2"
     transform="translate(107.87594,-390.50973)"><path
       id="rect1046"
       style="opacity:1;fill:#373737;stroke-width:1.69858;stroke-linecap:round;stroke-linejoin:round"
       d="M -102.14097,409.60049 H 36.451958 V 574.33987 H -102.14097 Z" /><path
       id="rect1047"
       style="opacity:1;fill:#474747;stroke-width:1.81497;stroke-linecap:round;stroke-linejoin:round"
       d="M -102.14097,416.80023 H 36.451958 v 23.68809 H -102.14097 Z" /><path
       d="m -93.782151,434.01953 v -7.53672 h 1.367159 v 1.41574 q 0.943825,-1.5823 2.56776,-1.5823 2.144427,0 2.144427,2.54694 v 5.15634 h -1.367159 v -4.78158 q 0,-0.88137 -0.277596,-1.24919 -0.270656,-0.37475 -0.916066,-0.37475 -1.027104,0 -2.151366,1.4782 v 4.92732 z m 14.920769,-0.29841 q -1.422678,0.47191 -2.6094,0.47191 -1.94317,0 -2.991094,-0.99935 -1.040983,-0.99934 -1.040983,-2.85923 0,-1.75579 0.999344,-2.887 1.006285,-1.1312 2.553881,-1.1312 1.561475,0 2.297104,0.93689 0.742569,0.93688 0.742569,2.91475 v 0.43721 h -5.135521 q 0.152678,2.56082 2.762077,2.56082 1.103443,0 2.422023,-0.52743 z m -5.142461,-4.14312 h 3.636504 v -0.19432 q 0,-2.04033 -1.700274,-2.04033 -0.818907,0 -1.332459,0.5899 -0.506612,0.58989 -0.603771,1.64475 z m 6.731696,4.44153 2.803717,-3.81 -2.789837,-3.72672 h 1.714154 l 2.081967,2.78289 1.908471,-2.78289 h 1.353279 l -2.560821,3.71978 2.852296,3.81694 h -1.707213 l -2.158307,-2.88005 -2.116667,2.88005 z m 15.566179,-0.007 q -1.027104,0.18044 -1.984809,0.18044 -1.672514,0 -2.276285,-0.59683 -0.60377,-0.60377 -0.60377,-2.27629 v -3.6365 h -1.880711 v -1.0271 h 1.880711 v -1.62394 h 1.374098 v 1.62394 h 3.338089 v 1.0271 h -3.338089 v 3.85858 q 0,0.64541 0.07634,0.88831 0.08328,0.24289 0.346995,0.42333 0.471913,0.31229 1.374099,0.31229 0.853606,0 1.693333,-0.19431 z m 2.116668,0.007 v -1.0271 h 2.394263 v -6.84968 H -59.5893 v -1.0271 h 6.162624 v 1.0271 h -2.394263 v 6.84968 h 2.394263 v 1.0271 z m 8.626286,0 v -7.53672 h 1.367159 v 1.41574 q 0.943825,-1.5823 2.56776,-1.5823 2.144427,0 2.144427,2.54694 v 5.15634 h -1.367159 v -4.78158 q 0,-0.88137 -0.277595,-1.24919 -0.270656,-0.37475 -0.916066,-0.37475 -1.027104,0 -2.151367,1.4782 v 4.92732 z m 15.316343,-0.27759 q -1.374098,0.49273 -2.58858,0.49273 -2.123607,0 -3.421367,-1.27 -1.29776,-1.27694 -1.29776,-3.35197 0,-2.10279 1.29082,-3.40749 1.29082,-1.3047 3.372788,-1.3047 1.179782,0 2.526121,0.40252 v 1.25612 q -1.374099,-0.63153 -2.56776,-0.63153 -1.381039,0 -2.276285,1.01322 -0.888306,1.01323 -0.888306,2.58164 0,1.5823 1.006284,2.58858 1.006285,1.00629 2.58858,1.00629 0.957705,0 2.255465,-0.49968 z m 1.811312,0.27759 v -10.95809 h 1.367159 v 3.42137 1.41574 q 0.943826,-1.5823 2.56776,-1.5823 2.144427,0 2.144427,2.54694 v 5.15634 h -1.367159 v -4.78158 q 0,-0.88137 -0.277595,-1.24919 -0.270656,-0.37475 -0.916066,-0.37475 -1.027104,0 -2.151367,1.4782 v 4.92732 z m 13.095578,-0.90912 q -1.242241,1.04098 -2.477542,1.04098 -1.034044,0 -1.707214,-0.58989 -0.666229,-0.58989 -0.666229,-1.49208 0,-1.17284 1.040984,-1.88765 1.040984,-0.71481 2.748197,-0.71481 h 0.846667 v -0.64541 q 0,-0.79809 -0.353935,-1.13814 -0.353934,-0.34006 -1.172841,-0.34006 -1.186722,0 -2.456722,0.66623 v -1.17284 q 1.457377,-0.52049 2.734317,-0.52049 1.436558,0 2.026449,0.56907 0.596831,0.56907 0.596831,1.96399 v 3.15765 q 0,0.68011 0.145738,0.92995 0.145737,0.24289 0.548251,0.24289 0.131858,0 0.430273,-0.0694 l 0.124918,0.8189 q -0.687049,0.22208 -1.040983,0.22208 -1.013225,0 -1.367159,-1.04098 z m -0.215137,-0.88831 v -1.90153 h -0.409454 q -2.810656,0 -2.810656,1.51983 0,0.54826 0.360874,0.88137 0.360875,0.33312 0.957705,0.33312 0.895247,0 1.901531,-0.83279 z m 6.926013,1.79743 v -6.50962 h -2.741258 v -1.0271 h 4.108417 v 7.53672 z m -0.173497,-9.24394 v -1.71415 h 1.714153 v 1.71415 z m 6.0585258,9.24394 v -7.53672 h 1.3671589 v 1.41574 q 0.9438254,-1.5823 2.5677603,-1.5823 2.1444268,0 2.1444268,2.54694 v 5.15634 h -1.3671589 v -4.78158 q 0,-0.88137 -0.2775957,-1.24919 -0.2706558,-0.37475 -0.9160658,-0.37475 -1.0271041,0 -2.1513667,1.4782 v 4.92732 z"
       id="text1047"
       style="font-size:14.2129px;line-height:1.25;font-family:'Lucida Console';-inkscape-font-specification:'Lucida Console';letter-spacing:0px;word-spacing:0px;fill:#dfdfdf;stroke-width:0.355321"
       aria-label="nextInChain" /><g
       id="g1048"
       transform="translate(-68.220807,366.07179)"><path
         id="rect1048"
         style="opacity:1;fill:#373737;stroke:#ffffff;stroke-width:1.5;stroke-linecap:round;stroke-linejoin:round"
         d="M 76.560066,53.203331 H 95.298395 V 71.94166 H 76.560066 Z" /><path
         id="circle1048"
         style="opacity:1;fill:#ffffff;stroke-width:1.5122;stroke-linecap:round;stroke-linejoin:round"
         d="m 89.17923,62.572495 a 3.25,3.25 0 0 1 -3.25,3.25 3.25,3.25 0 0 1 -3.25,-3.25 3.25,3.25 0 0 1 3.25,-3.25 3.25,3.25 0 0 1 3.25,3.25 z" /></g><path
       id="rect1049"
       style="opacity:1;fill:#474747;stroke-width:1.81497;stroke-linecap:round;stroke-linejoin:round"
       d="M -102.14097,442.9632 H 36.451958 v 23.68808 H -102.14097 Z" /><path
       d="m -90.874341,460.27087 v -9.93098 h -2.907815 v -1.02711 h 4.281914 v 10.95809 z m 10.250221,-0.90912 q -1.24224,1.04098 -2.477541,1.04098 -1.034044,0 -1.707214,-0.58989 -0.66623,-0.58989 -0.66623,-1.49208 0,-1.17284 1.040984,-1.88765 1.040984,-0.71481 2.748198,-0.71481 h 0.846667 v -0.64541 q 0,-0.79808 -0.353935,-1.13814 -0.353934,-0.34005 -1.172842,-0.34005 -1.186721,0 -2.456722,0.66623 v -1.17284 q 1.457378,-0.5205 2.734318,-0.5205 1.436558,0 2.026449,0.56907 0.59683,0.56908 0.59683,1.96399 v 3.15766 q 0,0.6801 0.145738,0.92994 0.145738,0.2429 0.548252,0.2429 0.131858,0 0.430273,-0.0694 l 0.124918,0.81891 q -0.687049,0.22207 -1.040984,0.22207 -1.013224,0 -1.367159,-1.04098 z m -0.215136,-0.88831 v -1.90153 h -0.409454 q -2.810657,0 -2.810657,1.51984 0,0.54825 0.360875,0.88136 0.360874,0.33312 0.957705,0.33312 0.895246,0 1.901531,-0.83279 z m 4.184755,1.88071 v -11.04137 h 1.367159 v 4.83711 q 0.992404,-1.5823 2.463662,-1.5823 1.28388,0 2.019508,0.99241 0.742569,0.98546 0.742569,2.69268 0,1.87377 -0.874427,3.03273 -0.874426,1.15896 -2.290164,1.15896 -1.214481,0 -2.061148,-1.0271 l -0.340055,0.93688 z m 1.367159,-1.96399 q 0.950765,1.02711 1.873771,1.02711 0.902186,0 1.394918,-0.79115 0.499672,-0.79809 0.499672,-2.22771 0,-2.66491 -1.589235,-2.66491 -1.158962,0 -2.179126,1.44349 z m 13.616069,1.5823 q -1.422678,0.47191 -2.6094,0.47191 -1.943169,0 -2.991093,-0.99934 -1.040984,-0.99935 -1.040984,-2.85924 0,-1.75579 0.999344,-2.88699 1.006285,-1.13121 2.553881,-1.13121 1.561476,0 2.297104,0.93689 0.742569,0.93688 0.742569,2.91475 v 0.43722 h -5.135521 q 0.152678,2.56082 2.762078,2.56082 1.103443,0 2.422022,-0.52743 z m -5.14246,-4.14312 h 3.636503 v -0.19431 q 0,-2.04033 -1.700273,-2.04033 -0.818908,0 -1.33246,0.58989 -0.506612,0.58989 -0.60377,1.64475 z m 10.194702,4.44153 v -9.93098 h -2.907815 v -1.02711 h 4.281914 v 10.95809 z"
       id="text1049"
       style="font-size:14.2129px;line-height:1.25;font-family:'Lucida Console';-inkscape-font-specification:'Lucida Console';letter-spacing:0px;word-spacing:0px;fill:#dfdfdf;stroke-width:0.355321"
       aria-label="label" /><path
       id="rect1050"
       style="opacity:1;fill:#474747;stroke-width:1.81497;stroke-linecap:round;stroke-linejoin:round"
       d="M -102.14097,469.12616 H 36.451958 v 23.68808 H -102.14097 Z" /><path
       d="m -91.727948,486.43384 v -2.05421 h 2.054208 v 2.05421 z m 8.563828,0 v -2.05421 h 2.054208 v 2.05421 z m 8.563827,0 v -2.05421 h 2.054208 v 2.05421 z"
       id="text1050"
       style="font-size:14.2129px;line-height:1.25;font-family:'Lucida Console';-inkscape-font-specification:'Lucida Console';letter-spacing:0px;word-spacing:0px;fill:#dfdfdf;stroke-width:0.355321"
       aria-label="..." /><path
       style="font-style:italic;font-weight:bold;font-size:14.65px;line-height:1.25;font-family:Calibri;-inkscape-font-specification:'Calibri Italic';letter-spacing:0px;word-spacing:0px;fill:#0097a7;stroke-width:1.22941"
       d="m -93.491707,398.78411 q 0,0.4292 -0.05723,0.90847 -0.05007,0.47927 -0.178833,0.98 -0.121606,0.49358 -0.336206,0.98716 -0.207446,0.48643 -0.522192,0.93709 -0.314746,0.4435 -0.751099,0.82978 -0.429199,0.38628 -0.994311,0.67241 -0.565112,0.27898 -1.273291,0.43636 -0.708179,0.15737 -1.688184,0.15737 h -2.353437 q -0.11446,0 -0.22175,-0.0286 -0.10015,-0.0286 -0.17168,-0.093 -0.0644,-0.0715 -0.093,-0.18598 -0.0215,-0.11446 0.0143,-0.28614 l 1.61665,-8.06894 q 0.0572,-0.31475 0.25037,-0.45066 0.19314,-0.14307 0.457805,-0.14307 h 2.231836 q 1.101611,0 1.838403,0.2146 0.743945,0.2146 1.237524,0.63665 0.500733,0.42204 0.743946,1.05154 0.250366,0.62233 0.250366,1.44497 z m -1.974316,0.22175 q 0,-0.45066 -0.121607,-0.83694 -0.121606,-0.38628 -0.393432,-0.66526 -0.271827,-0.27898 -0.701026,-0.43635 -0.422046,-0.15737 -1.137378,-0.15737 h -0.980005 l -1.266139,6.29492 h 0.98716 q 0.751099,0 1.258984,-0.17883 0.515039,-0.18599 0.901319,-0.50074 0.393432,-0.3219 0.665258,-0.73679 0.27898,-0.42204 0.45066,-0.88701 0.178833,-0.46497 0.257519,-0.95139 0.07869,-0.48643 0.07869,-0.94424 z m 9.056103,0.46497 q 0,0.51503 -0.236059,0.92993 -0.228907,0.40774 -0.722486,0.70818 -0.486425,0.29328 -1.244677,0.45065 -0.751099,0.15738 -1.795484,0.15738 h -0.658105 q -0.02861,0.16452 -0.04292,0.32905 -0.01431,0.15737 -0.01431,0.29329 0,0.57942 0.30044,0.8727 0.300439,0.29329 0.965698,0.29329 0.472119,0 0.844092,-0.0644 0.379126,-0.0715 0.658105,-0.15022 0.286133,-0.0858 0.472119,-0.15022 0.185987,-0.0715 0.271826,-0.0715 0.08584,0 0.121607,0.0501 0.03577,0.0501 0.03577,0.15737 0,0.12161 -0.02146,0.27898 -0.02146,0.15737 -0.06438,0.31475 -0.03577,0.15022 -0.100147,0.28613 -0.05723,0.13591 -0.135913,0.20745 -0.08584,0.0858 -0.314746,0.17168 -0.228906,0.0858 -0.550806,0.15737 -0.321899,0.0715 -0.722485,0.11445 -0.400586,0.0501 -0.815478,0.0501 -0.686719,0 -1.201758,-0.14307 -0.507886,-0.14307 -0.851245,-0.43635 -0.34336,-0.29329 -0.515039,-0.74395 -0.17168,-0.45781 -0.17168,-1.08015 0,-0.47927 0.08584,-1.02292 0.09299,-0.55081 0.293286,-1.08016 0.200293,-0.5365 0.515039,-1.02292 0.314746,-0.48643 0.758252,-0.85125 0.450659,-0.37197 1.037231,-0.59372 0.586573,-0.22175 1.337671,-0.22175 0.650952,0 1.115918,0.15737 0.472119,0.15022 0.772559,0.40774 0.300439,0.25036 0.443506,0.57942 0.150219,0.3219 0.150219,0.66526 z m -1.76687,0.13591 q 0,-0.28613 -0.228906,-0.47212 -0.221753,-0.19314 -0.650952,-0.19314 -0.357666,0 -0.643799,0.12876 -0.278979,0.12876 -0.493579,0.35051 -0.2146,0.2146 -0.371973,0.51504 -0.150219,0.29329 -0.243213,0.62949 h 0.600879 q 0.572266,0 0.958545,-0.0715 0.386279,-0.0787 0.622339,-0.20745 0.23606,-0.12876 0.343359,-0.30044 0.1073,-0.17883 0.1073,-0.37912 z m 7.575367,-1.25899 q 0,0.0858 -0.02861,0.25752 -0.02146,0.16453 -0.07153,0.33621 -0.05007,0.17168 -0.121606,0.30044 -0.06438,0.12161 -0.15022,0.12161 -0.09299,0 -0.221753,-0.0644 -0.121606,-0.0715 -0.300439,-0.15022 -0.178833,-0.0858 -0.422046,-0.15022 -0.23606,-0.0644 -0.557959,-0.0644 -0.250366,0 -0.450659,0.0644 -0.19314,0.0644 -0.3219,0.17883 -0.12876,0.1073 -0.200293,0.25752 -0.06438,0.15022 -0.06438,0.3219 0,0.22175 0.178833,0.37197 0.185987,0.15022 0.457813,0.28613 0.271826,0.12876 0.586572,0.27183 0.314746,0.14307 0.586572,0.35767 0.271826,0.2146 0.450659,0.52219 0.178833,0.30759 0.178833,0.77256 0,0.54365 -0.207446,1.00861 -0.207446,0.45782 -0.608032,0.79402 -0.393433,0.33621 -0.965698,0.52935 -0.565113,0.18599 -1.280445,0.18599 -0.343359,0 -0.658105,-0.0501 -0.307593,-0.0501 -0.557959,-0.1216 -0.243213,-0.0715 -0.414893,-0.16453 -0.171679,-0.093 -0.257519,-0.17168 -0.05723,-0.0572 -0.08584,-0.12161 -0.02146,-0.0644 -0.02146,-0.16452 0,-0.0644 0.0072,-0.16453 0.01431,-0.10015 0.03577,-0.22175 0.02861,-0.12161 0.05723,-0.24322 0.03577,-0.1216 0.07869,-0.22175 0.04292,-0.10014 0.09299,-0.15737 0.05007,-0.0644 0.1073,-0.0644 0.100147,0 0.221753,0.0858 0.121606,0.0858 0.314746,0.19314 0.19314,0.10014 0.472119,0.19314 0.286133,0.0858 0.708179,0.0858 0.293286,0 0.507886,-0.0644 0.221753,-0.0715 0.364819,-0.19314 0.143066,-0.12161 0.207446,-0.27898 0.07153,-0.15737 0.07153,-0.33621 0,-0.25036 -0.178833,-0.40774 -0.171679,-0.15737 -0.436352,-0.29328 -0.264673,-0.13592 -0.579419,-0.27898 -0.307593,-0.14307 -0.572266,-0.35051 -0.264672,-0.20745 -0.443505,-0.51504 -0.17168,-0.3076 -0.17168,-0.77256 0,-0.50789 0.19314,-0.94424 0.193139,-0.43635 0.565112,-0.75825 0.371972,-0.32906 0.901318,-0.50789 0.529346,-0.18598 1.201758,-0.18598 0.300439,0 0.579419,0.0429 0.286133,0.0358 0.507886,0.10014 0.228906,0.0644 0.393432,0.14307 0.17168,0.0787 0.243213,0.15737 0.07869,0.0715 0.07869,0.24321 z m 6.366455,0.14307 q 0,0.16453 -0.04292,0.37197 -0.03577,0.20745 -0.100146,0.39344 -0.06438,0.18598 -0.164527,0.31474 -0.09299,0.12161 -0.207446,0.12161 -0.1073,0 -0.207446,-0.0858 -0.100147,-0.0858 -0.250367,-0.19314 -0.143066,-0.1073 -0.364819,-0.19314 -0.221753,-0.093 -0.572265,-0.093 -0.371973,0 -0.665259,0.16452 -0.293286,0.16453 -0.515039,0.4292 -0.2146,0.25752 -0.357666,0.59373 -0.143067,0.32905 -0.23606,0.67241 -0.09299,0.33621 -0.135913,0.65095 -0.03577,0.30759 -0.03577,0.5365 0,0.57942 0.250367,0.87986 0.257519,0.30044 0.801172,0.30044 0.400585,0 0.686718,-0.10015 0.286133,-0.1073 0.486426,-0.2289 0.207446,-0.12876 0.350513,-0.22891 0.150219,-0.10015 0.271826,-0.10015 0.07153,0 0.100146,0.0644 0.03577,0.0644 0.03577,0.18599 0,0.12161 -0.02861,0.30759 -0.02861,0.17883 -0.07869,0.36482 -0.04292,0.18599 -0.1073,0.35051 -0.05723,0.15738 -0.157373,0.25037 -0.09299,0.093 -0.300439,0.2146 -0.207446,0.11445 -0.479273,0.20745 -0.271826,0.093 -0.593725,0.15022 -0.314746,0.0572 -0.658106,0.0572 -1.223217,0 -1.83125,-0.61518 -0.608032,-0.62234 -0.608032,-1.83125 0,-0.43636 0.07869,-0.95855 0.08584,-0.52219 0.271826,-1.04438 0.185986,-0.52935 0.479272,-1.02293 0.30044,-0.49358 0.729639,-0.8727 0.429199,-0.37913 0.994312,-0.60804 0.565112,-0.2289 1.301904,-0.2289 0.286133,0 0.557959,0.0429 0.271826,0.0429 0.500732,0.12161 0.228906,0.0715 0.400586,0.17167 0.178833,0.10015 0.264673,0.18599 0.08584,0.0787 0.1073,0.14307 0.02861,0.0644 0.02861,0.15737 z m 5.472288,-0.52219 q 0,0.0501 -0.01431,0.17883 -0.01431,0.12876 -0.04292,0.30044 -0.02861,0.17168 -0.07153,0.35767 -0.04292,0.17883 -0.100146,0.3362 -0.05007,0.15738 -0.121607,0.25752 -0.06438,0.10015 -0.143066,0.10015 -0.06438,0 -0.12876,-0.0215 -0.06438,-0.0286 -0.143066,-0.0501 -0.07869,-0.0286 -0.17168,-0.0501 -0.09299,-0.0286 -0.2146,-0.0286 -0.243213,0 -0.522192,0.18599 -0.271826,0.18598 -0.522192,0.49357 -0.250367,0.30044 -0.45066,0.70818 -0.193139,0.40059 -0.278979,0.84409 l -0.572266,2.86849 q -0.01431,0.0715 -0.07153,0.12876 -0.05007,0.0501 -0.164526,0.0858 -0.1073,0.0358 -0.286133,0.0501 -0.178833,0.0215 -0.436353,0.0215 -0.264672,0 -0.436352,-0.0215 -0.164527,-0.0143 -0.264673,-0.0501 -0.09299,-0.0358 -0.121606,-0.0858 -0.02861,-0.0572 -0.01431,-0.12876 l 1.273291,-6.38792 q 0.01431,-0.0715 0.06438,-0.12161 0.05007,-0.0572 0.143066,-0.0858 0.100147,-0.0358 0.250366,-0.0501 0.157373,-0.0215 0.371973,-0.0215 0.221753,0 0.357666,0.0215 0.143066,0.0143 0.221753,0.0501 0.07869,0.0286 0.100146,0.0858 0.02861,0.0501 0.01431,0.12161 l -0.200293,1.01577 q 0.17168,-0.30759 0.393433,-0.56511 0.228906,-0.25752 0.479272,-0.44351 0.25752,-0.19314 0.529346,-0.30043 0.271826,-0.1073 0.536499,-0.1073 0.1073,0 0.214599,0.0143 0.114454,0.0143 0.207447,0.0358 0.100146,0.0215 0.171679,0.0572 0.07869,0.0286 0.121607,0.0644 0.04292,0.0429 0.04292,0.13591 z m 3.505126,-2.04585 q -0.05007,0.26467 -0.135913,0.45066 -0.08584,0.17883 -0.228906,0.29328 -0.143067,0.1073 -0.350513,0.15738 -0.207446,0.0429 -0.515039,0.0429 -0.300439,0 -0.493579,-0.0429 -0.185986,-0.0501 -0.286133,-0.15738 -0.09299,-0.11445 -0.1073,-0.29328 -0.01431,-0.18599 0.04292,-0.45066 0.05007,-0.25752 0.135913,-0.43635 0.08584,-0.17884 0.228907,-0.29329 0.143066,-0.11445 0.350512,-0.16453 0.207446,-0.0501 0.515039,-0.0501 0.30044,0 0.486426,0.0501 0.19314,0.0501 0.286133,0.16453 0.100146,0.11445 0.1073,0.29329 0.01431,0.17883 -0.03577,0.43635 z m -1.845557,8.52676 q -0.01431,0.0715 -0.07153,0.12876 -0.05007,0.0501 -0.164526,0.0858 -0.1073,0.0358 -0.286133,0.0501 -0.178833,0.0215 -0.436352,0.0215 -0.264673,0 -0.436353,-0.0215 -0.164526,-0.0143 -0.264673,-0.0501 -0.09299,-0.0358 -0.121606,-0.0858 -0.02861,-0.0572 -0.01431,-0.12876 l 1.266138,-6.36646 q 0.01431,-0.0715 0.06438,-0.12161 0.05723,-0.0572 0.164526,-0.093 0.114453,-0.0429 0.286133,-0.0644 0.178833,-0.0215 0.443506,-0.0215 0.264672,0 0.429199,0.0215 0.17168,0.0215 0.264673,0.0644 0.100146,0.0358 0.128759,0.093 0.02861,0.0501 0.01431,0.12161 z m 8.841506,-4.35638 q 0,0.46497 -0.08584,1.00147 -0.08584,0.5365 -0.264673,1.06584 -0.178833,0.52935 -0.457812,1.02293 -0.27898,0.48642 -0.672413,0.8584 -0.386279,0.37197 -0.894165,0.59372 -0.500732,0.22176 -1.130224,0.22176 -0.286133,0 -0.536499,-0.0572 -0.250366,-0.0572 -0.464966,-0.15737 -0.207446,-0.1073 -0.379126,-0.24322 -0.17168,-0.14306 -0.300439,-0.30044 l -0.565113,2.88279 q -0.01431,0.0715 -0.07153,0.12876 -0.05007,0.0572 -0.164526,0.093 -0.1073,0.0429 -0.286133,0.0644 -0.178833,0.0215 -0.443506,0.0215 -0.264673,0 -0.429199,-0.0215 -0.164526,-0.0215 -0.25752,-0.0644 -0.100146,-0.0358 -0.128759,-0.093 -0.02861,-0.0572 -0.01431,-0.12876 l 1.78833,-8.92019 q 0.02861,-0.15022 0.221753,-0.2146 0.19314,-0.0644 0.636645,-0.0644 0.221753,0 0.357666,0.0215 0.143067,0.0143 0.221753,0.0501 0.08584,0.0286 0.114454,0.0858 0.02861,0.0501 0.01431,0.12161 l -0.200293,1.03723 q 0.1073,-0.23606 0.336206,-0.48642 0.23606,-0.25752 0.557959,-0.46497 0.329053,-0.2146 0.715332,-0.35051 0.393433,-0.13591 0.808325,-0.13591 0.550806,0 0.922779,0.19313 0.379126,0.18599 0.608032,0.51504 0.236059,0.32906 0.336206,0.77256 0.1073,0.44351 0.1073,0.95139 z m -1.85271,0.15738 q 0,-0.24322 -0.04292,-0.44351 -0.03577,-0.20029 -0.12876,-0.3362 -0.08584,-0.14307 -0.228906,-0.2146 -0.135913,-0.0715 -0.336206,-0.0715 -0.3219,0 -0.650952,0.19314 -0.3219,0.18599 -0.608032,0.51504 -0.286133,0.3219 -0.507886,0.75825 -0.221753,0.4292 -0.314746,0.92278 l -0.200293,0.97285 q 0.250366,0.39344 0.550805,0.59373 0.307593,0.19314 0.708179,0.19314 0.293286,0 0.536499,-0.14307 0.250366,-0.14306 0.443506,-0.37912 0.200293,-0.24322 0.343359,-0.55796 0.15022,-0.31475 0.243213,-0.65811 0.100147,-0.34336 0.143067,-0.68672 0.05007,-0.35051 0.05007,-0.6581 z m 7.503831,-2.11739 q 0,0.0715 -0.01431,0.18599 -0.01431,0.1073 -0.04292,0.23606 -0.02146,0.12876 -0.06438,0.25752 -0.04292,0.12876 -0.100146,0.23606 -0.05007,0.10015 -0.121607,0.17168 -0.06438,0.0644 -0.143066,0.0644 h -1.394898 l -0.600879,2.99724 q -0.02146,0.1073 -0.04292,0.25752 -0.01431,0.14307 -0.01431,0.23606 0,0.28613 0.135913,0.42205 0.135913,0.12875 0.429199,0.12875 0.17168,0 0.293286,-0.0215 0.121607,-0.0286 0.207447,-0.0572 0.09299,-0.0358 0.157373,-0.0572 0.06438,-0.0286 0.121606,-0.0286 0.05723,0 0.09299,0.0572 0.04292,0.0501 0.04292,0.17167 0,0.13592 -0.02861,0.3076 -0.02861,0.17168 -0.07869,0.3362 -0.04292,0.15738 -0.100146,0.29329 -0.05723,0.12876 -0.121607,0.19314 -0.06438,0.0644 -0.193139,0.12161 -0.12876,0.0572 -0.307593,0.10014 -0.17168,0.0429 -0.371973,0.0644 -0.200293,0.0286 -0.400586,0.0286 -0.429199,0 -0.758251,-0.093 -0.3219,-0.0858 -0.543653,-0.27898 -0.221753,-0.19314 -0.336206,-0.49358 -0.1073,-0.30044 -0.1073,-0.72963 0,-0.0787 0.0072,-0.17884 0.0072,-0.1073 0.02146,-0.22175 0.02146,-0.11445 0.03577,-0.22891 0.02146,-0.1216 0.04292,-0.2146 l 0.622339,-3.11169 h -0.772559 q -0.09299,0 -0.135913,-0.0572 -0.04292,-0.0644 -0.04292,-0.23606 0,-0.1216 0.02146,-0.31474 0.02861,-0.2003 0.08584,-0.38628 0.05723,-0.19314 0.15022,-0.32906 0.09299,-0.13591 0.221753,-0.13591 h 0.765405 l 0.286133,-1.42351 q 0.01431,-0.0715 0.06438,-0.12876 0.05723,-0.0572 0.164526,-0.093 0.114453,-0.0429 0.286133,-0.0572 0.178833,-0.0215 0.443506,-0.0215 0.257519,0 0.429199,0.0215 0.17168,0.0143 0.264673,0.0572 0.09299,0.0358 0.121606,0.093 0.03577,0.0572 0.02146,0.12876 l -0.286133,1.42351 h 1.380591 q 0.121607,0 0.164527,0.0787 0.04292,0.0787 0.04292,0.2289 z m 6.945875,2.08162 q 0,0.51504 -0.100146,1.05869 -0.09299,0.54365 -0.30044,1.06585 -0.207446,0.51504 -0.536499,0.97285 -0.321899,0.45066 -0.779712,0.80117 -0.450659,0.34336 -1.037231,0.54365 -0.586572,0.2003 -1.323364,0.2003 -0.722486,0 -1.251831,-0.16453 -0.522193,-0.17168 -0.872706,-0.49358 -0.350512,-0.32905 -0.522192,-0.80117 -0.17168,-0.47927 -0.17168,-1.09446 0,-0.51504 0.09299,-1.05869 0.100146,-0.54365 0.307592,-1.05869 0.207447,-0.51504 0.529346,-0.97285 0.329053,-0.46497 0.779712,-0.80833 0.457812,-0.34336 1.044385,-0.54365 0.586572,-0.20029 1.323364,-0.20029 0.722485,0 1.244678,0.17168 0.529345,0.16452 0.879858,0.49357 0.350513,0.3219 0.522192,0.80118 0.17168,0.47212 0.17168,1.0873 z m -1.859863,0.12161 q 0,-0.30044 -0.06438,-0.52935 -0.05723,-0.23606 -0.200293,-0.39343 -0.135913,-0.16453 -0.357666,-0.25037 -0.2146,-0.0858 -0.529346,-0.0858 -0.357666,0 -0.643799,0.14307 -0.286132,0.13591 -0.515039,0.37197 -0.221753,0.23606 -0.386279,0.55081 -0.164526,0.30759 -0.271826,0.65095 -0.1073,0.34336 -0.157373,0.70102 -0.05007,0.35052 -0.05007,0.67242 0,0.30044 0.05723,0.5365 0.06438,0.23606 0.200293,0.40058 0.143067,0.15737 0.357666,0.24321 0.221753,0.0858 0.536499,0.0858 0.357666,0 0.643799,-0.13591 0.286133,-0.14306 0.507886,-0.37912 0.228906,-0.24322 0.393432,-0.55081 0.164527,-0.31475 0.271827,-0.65811 0.107299,-0.35051 0.157373,-0.70102 0.05007,-0.35051 0.05007,-0.67241 z m 7.840039,-2.36775 q 0,0.0501 -0.01431,0.17883 -0.01431,0.12876 -0.04292,0.30044 -0.02861,0.17168 -0.07153,0.35767 -0.04292,0.17883 -0.100146,0.3362 -0.05007,0.15738 -0.121607,0.25752 -0.06438,0.10015 -0.143066,0.10015 -0.06438,0 -0.12876,-0.0215 -0.06438,-0.0286 -0.143066,-0.0501 -0.07869,-0.0286 -0.17168,-0.0501 -0.09299,-0.0286 -0.2146,-0.0286 -0.243213,0 -0.522192,0.18599 -0.271826,0.18598 -0.522192,0.49357 -0.250367,0.30044 -0.45066,0.70818 -0.193139,0.40059 -0.278979,0.84409 l -0.572266,2.86849 q -0.01431,0.0715 -0.07153,0.12876 -0.05007,0.0501 -0.164526,0.0858 -0.1073,0.0358 -0.286133,0.0501 -0.178833,0.0215 -0.436353,0.0215 -0.264672,0 -0.436352,-0.0215 -0.164526,-0.0143 -0.264673,-0.0501 -0.09299,-0.0358 -0.121606,-0.0858 -0.02861,-0.0572 -0.01431,-0.12876 l 1.273291,-6.38792 q 0.01431,-0.0715 0.06438,-0.12161 0.05007,-0.0572 0.143066,-0.0858 0.100147,-0.0358 0.250366,-0.0501 0.157373,-0.0215 0.371973,-0.0215 0.221753,0 0.357666,0.0215 0.143067,0.0143 0.221753,0.0501 0.07869,0.0286 0.100147,0.0858 0.02861,0.0501 0.01431,0.12161 l -0.200293,1.01577 q 0.17168,-0.30759 0.393433,-0.56511 0.228906,-0.25752 0.479272,-0.44351 0.25752,-0.19314 0.529346,-0.30043 0.271826,-0.1073 0.536499,-0.1073 0.1073,0 0.2146,0.0143 0.114453,0.0143 0.207446,0.0358 0.100146,0.0215 0.17168,0.0572 0.07869,0.0286 0.121606,0.0644 0.04292,0.0429 0.04292,0.13591 z"
       id="text1051"
       aria-label="Descriptor" /><path
       id="rect1051"
       style="opacity:1;fill:#373737;stroke-width:1.43293;stroke-linecap:round;stroke-linejoin:round"
       d="M 124.8403,409.60049 H 263.43323 V 526.83987 H 124.8403 Z" /><path
       id="rect1052"
       style="opacity:1;fill:#474747;stroke-width:1.81497;stroke-linecap:round;stroke-linejoin:round"
       d="m 124.8403,416.80023 h 138.59293 v 23.68809 H 124.8403 Z" /><path
       d="m 133.19913,434.01953 v -7.53672 h 1.36715 v 1.41574 q 0.94383,-1.5823 2.56777,-1.5823 2.14442,0 2.14442,2.54694 v 5.15634 h -1.36716 v -4.78158 q 0,-0.88137 -0.27759,-1.24919 -0.27066,-0.37475 -0.91607,-0.37475 -1.0271,0 -2.15137,1.4782 v 4.92732 z m 14.92077,-0.29841 q -1.42268,0.47191 -2.6094,0.47191 -1.94317,0 -2.9911,-0.99935 -1.04098,-0.99934 -1.04098,-2.85923 0,-1.75579 0.99934,-2.887 1.00629,-1.1312 2.55388,-1.1312 1.56148,0 2.29711,0.93689 0.74257,0.93688 0.74257,2.91475 v 0.43721 h -5.13552 q 0.15267,2.56082 2.76207,2.56082 1.10345,0 2.42203,-0.52743 z m -5.14247,-4.14312 h 3.63651 v -0.19432 q 0,-2.04033 -1.70028,-2.04033 -0.8189,0 -1.33245,0.5899 -0.50662,0.58989 -0.60378,1.64475 z m 6.7317,4.44153 2.80372,-3.81 -2.78984,-3.72672 h 1.71415 l 2.08197,2.78289 1.90847,-2.78289 h 1.35328 l -2.56082,3.71978 2.8523,3.81694 h -1.70722 l -2.1583,-2.88005 -2.11667,2.88005 z m 15.56618,-0.007 q -1.0271,0.18044 -1.98481,0.18044 -1.67251,0 -2.27628,-0.59683 -0.60377,-0.60377 -0.60377,-2.27629 v -3.6365 h -1.88072 v -1.0271 h 1.88072 v -1.62394 h 1.37409 v 1.62394 h 3.33809 v 1.0271 h -3.33809 v 3.85858 q 0,0.64541 0.0763,0.88831 0.0833,0.24289 0.347,0.42333 0.47191,0.31229 1.3741,0.31229 0.8536,0 1.69333,-0.19431 z"
       id="text1052"
       style="font-size:14.2129px;line-height:1.25;font-family:'Lucida Console';-inkscape-font-specification:'Lucida Console';letter-spacing:0px;word-spacing:0px;fill:#dfdfdf;stroke-width:0.355321"
       aria-label="next" /><g
       id="g1053"
       transform="translate(158.76047,366.07179)"><path
         id="rect1053"
         style="opacity:1;fill:#373737;stroke:#ffffff;stroke-width:1.5;stroke-linecap:round;stroke-linejoin:round"
         d="M 76.560066,53.203331 H 95.298395 V 71.94166 H 76.560066 Z" /><path
         id="circle1053"
         style="opacity:1;fill:#ffffff;stroke-width:1.5122;stroke-linecap:round;stroke-linejoin:round"
         d="m 89.17923,62.572495 a 3.25,3.25 0 0 1 -3.25,3.25 3.25,3.25 0 0 1 -3.25,-3.25 3.25,3.25 0 0 1 3.25,-3.25 3.25,3.25 0 0 1 3.25,3.25 z" /></g><path
       id="rect1054"
       style="opacity:1;fill:#474747;stroke-width:1.81497;stroke-linecap:round;stroke-linejoin:round"
       d="m 124.8403,442.9632 h 138.59293 v 23.68808 H 124.8403 Z" /><path
       d="m 133.29628,459.96552 v -1.2353 q 1.58924,0.68705 2.7482,0.68705 0.83278,0 1.3741,-0.33312 0.54825,-0.34005 0.54825,-0.8536 0,-0.65929 -1.29776,-1.07569 l -1.46432,-0.47885 q -1.71415,-0.55519 -1.71415,-1.95705 0,-1.0271 0.77032,-1.58924 0.77727,-0.56213 2.19301,-0.56213 1.0618,0 2.46366,0.32618 v 1.11038 q -1.35328,-0.40945 -2.4706,-0.40945 -0.74951,0 -1.2006,0.27065 -0.44415,0.27066 -0.44415,0.72869 0,0.56213 1.02016,0.91607 l 1.72803,0.60377 q 0.94383,0.33311 1.35328,0.79809 0.4164,0.45803 0.4164,1.19366 0,1.06874 -0.88137,1.70721 -0.88137,0.63153 -2.3665,0.63153 -1.29776,0 -2.77596,-0.47885 z m 10.86093,0.30535 v -7.87677 h -3.42137 v -1.02711 h 8.21684 v 1.02711 h -3.42137 v 7.87677 z m 5.95443,2.74126 v -1.0271 h 0.55519 q 0.77727,0 1.1312,-0.24984 0.35394,-0.24983 0.74257,-1.07568 l 0.34006,-0.72175 -3.16459,-7.20361 h 1.41573 l 2.46367,5.64213 2.48448,-5.64213 h 1.22836 l -3.79612,8.50137 q -0.44416,0.9924 -1.06181,1.38104 -0.61765,0.39557 -1.75579,0.39557 z m 8.8206,0 v -10.27798 h 1.36716 v 1.41574 q 0.99241,-1.5823 2.46366,-1.5823 1.28388,0 2.01951,0.99241 0.74257,0.98546 0.74257,2.69268 0,1.87377 -0.87443,3.03273 -0.87442,1.15896 -2.29016,1.15896 -1.21448,0 -2.06115,-1.0271 v 3.59486 z m 1.36716,-4.62197 q 0.95077,1.02711 1.87377,1.02711 0.90219,0 1.39492,-0.79115 0.49967,-0.79809 0.49967,-2.22771 0,-2.66491 -1.58923,-2.66491 -1.15896,0 -2.17913,1.44349 z m 13.57443,1.5823 q -1.42268,0.47191 -2.6094,0.47191 -1.94317,0 -2.99109,-0.99934 -1.04099,-0.99935 -1.04099,-2.85924 0,-1.75579 0.99935,-2.88699 1.00628,-1.13121 2.55388,-1.13121 1.56148,0 2.2971,0.93689 0.74257,0.93688 0.74257,2.91475 v 0.43722 h -5.13552 q 0.15268,2.56082 2.76208,2.56082 1.10344,0 2.42202,-0.52743 z m -5.14246,-4.14312 h 3.63651 v -0.19431 q 0,-2.04033 -1.70028,-2.04033 -0.81891,0 -1.33246,0.58989 -0.50661,0.58989 -0.60377,1.64475 z"
       id="text1054"
       style="font-size:14.2129px;line-height:1.25;font-family:'Lucida Console';-inkscape-font-specification:'Lucida Console';letter-spacing:0px;word-spacing:0px;fill:#dfdfdf;stroke-width:0.355321"
       aria-label="sType" /><path
       id="rect1055"
       style="opacity:1;fill:#474747;stroke-width:1.81497;stroke-linecap:round;stroke-linejoin:round"
       d="m 124.8403,469.12616 h 138.59293 v 23.68808 H 124.8403 Z" /><path
       d="m 139.65322,486.19094 q -1.21448,0.4164 -2.42202,0.4164 -1.97093,0 -3.03967,-1.02711 -1.06181,-1.0271 -1.06181,-2.91475 0,-1.85296 1.04793,-2.89394 1.05486,-1.04098 2.92863,-1.04098 1.19366,0 2.40814,0.36087 v 1.14508 q -1.3394,-0.47885 -2.28322,-0.47885 -1.2353,0 -1.94317,0.77727 -0.70093,0.77727 -0.70093,2.13055 0,1.36716 0.74951,2.14442 0.75645,0.77033 2.08197,0.77033 0.9924,0 2.23464,-0.46497 z m 5.19104,0.4164 q -1.65863,0 -2.6094,-1.04793 -0.94382,-1.05486 -0.94382,-2.89393 0,-1.83214 0.95076,-2.88006 0.95077,-1.05486 2.60246,-1.05486 1.65864,0 2.60246,1.05486 0.95077,1.04792 0.95077,2.88006 0,1.83907 -0.95077,2.89393 -0.94382,1.04793 -2.60246,1.04793 z m 0,-1.02711 q 0.98547,0 1.54066,-0.77033 0.55519,-0.77033 0.55519,-2.14442 0,-1.36716 -0.55519,-2.13749 -0.55519,-0.77033 -1.54066,-0.77033 -0.98546,0 -1.54065,0.77033 -0.5552,0.77033 -0.5552,2.13749 0,1.37409 0.5552,2.14442 0.55519,0.77033 1.54065,0.77033 z m 10.38902,0.85361 v -1.41574 q -0.99934,1.58924 -2.4706,1.58924 -1.27694,0 -2.01951,-0.99241 -0.73563,-0.9924 -0.73563,-2.69962 0,-1.87377 0.87443,-3.02579 0.87442,-1.15896 2.29016,-1.15896 1.21448,0 2.06115,1.0271 v -4.28191 h 1.36716 v 10.95809 z m 0,-5.64907 q -0.9577,-1.02711 -1.87377,-1.02711 -0.90219,0 -1.40186,0.79115 -0.49273,0.79115 -0.49273,2.2277 0,2.65798 1.58923,2.65798 1.15897,0 2.17913,-1.44349 z m 10.07672,5.35065 q -1.42267,0.47192 -2.6094,0.47192 -1.94317,0 -2.99109,-0.99935 -1.04098,-0.99934 -1.04098,-2.85924 0,-1.75579 0.99934,-2.88699 1.00629,-1.1312 2.55388,-1.1312 1.56148,0 2.29711,0.93688 0.74257,0.93689 0.74257,2.91476 v 0.43721 h -5.13553 q 0.15268,2.56082 2.76208,2.56082 1.10344,0 2.42202,-0.52743 z m -5.14246,-4.14311 h 3.63651 v -0.19432 q 0,-2.04033 -1.70028,-2.04033 -0.8189,0 -1.33246,0.58989 -0.50661,0.58989 -0.60377,1.64476 z"
       id="text1055"
       style="font-size:14.2129px;line-height:1.25;font-family:'Lucida Console';-inkscape-font-specification:'Lucida Console';letter-spacing:0px;word-spacing:0px;fill:#dfdfdf;stroke-width:0.355321"
       aria-label="code" /><path
       style="font-style:italic;font-weight:bold;font-size:14.65px;line-height:1.25;font-family:Calibri;-inkscape-font-specification:'Calibri Italic';letter-spacing:0px;word-spacing:0px;fill:#0097a7;stroke-width:1.22941"
       d="m 131.95273,395.70818 q 0,0.0429 -0.0143,0.15022 -0.007,0.1073 -0.0286,0.24321 -0.0215,0.12876 -0.0572,0.27183 -0.0358,0.14306 -0.093,0.26467 -0.0501,0.11445 -0.12876,0.19314 -0.0715,0.0787 -0.15737,0.0787 h -3.30483 l -0.45782,2.26045 h 2.80411 q 0.10014,0 0.14306,0.0715 0.0429,0.0715 0.0429,0.20029 0,0.0501 -0.0143,0.15738 -0.007,0.10014 -0.0286,0.23605 -0.0215,0.12876 -0.0572,0.26468 -0.0358,0.13591 -0.093,0.25036 -0.0501,0.11446 -0.1216,0.18599 -0.0715,0.0715 -0.15738,0.0715 h -2.79695 l -0.52934,2.61097 h 3.34775 q 0.0858,0 0.12876,0.0787 0.0429,0.0715 0.0429,0.2146 0,0.0501 -0.007,0.15737 -0.007,0.1073 -0.0358,0.24322 -0.0215,0.12876 -0.0572,0.26467 -0.0358,0.13591 -0.093,0.25752 -0.0501,0.11445 -0.1216,0.18599 -0.0715,0.0715 -0.16453,0.0715 h -4.64966 q -0.11445,0 -0.20744,-0.0286 -0.093,-0.0358 -0.15738,-0.1073 -0.0572,-0.0787 -0.0787,-0.18599 -0.0215,-0.11445 0.007,-0.27183 l 1.61665,-8.06894 q 0.0644,-0.31475 0.25752,-0.45066 0.19314,-0.14307 0.4292,-0.14307 h 4.60674 q 0.18598,0 0.18598,0.27183 z m 4.31345,5.43652 1.14454,3.17608 q 0.0358,0.1216 0.0143,0.20029 -0.0215,0.0787 -0.13591,0.12876 -0.1073,0.0501 -0.31475,0.0644 -0.20744,0.0215 -0.5365,0.0215 -0.30044,0 -0.47211,-0.0143 -0.17168,-0.0143 -0.26468,-0.0429 -0.093,-0.0286 -0.12876,-0.0787 -0.0286,-0.0501 -0.0429,-0.11446 l -0.77256,-2.25329 -1.61665,2.26045 q -0.0429,0.0644 -0.10014,0.11445 -0.0501,0.0429 -0.17884,0.0715 -0.1216,0.0286 -0.32905,0.0429 -0.20029,0.0143 -0.54365,0.0143 -0.30759,0 -0.49358,-0.0215 -0.18599,-0.0143 -0.27183,-0.0572 -0.0858,-0.0501 -0.0715,-0.1216 0.007,-0.0787 0.0858,-0.2003 l 2.42498,-3.17607 -1.06585,-2.94717 q -0.0429,-0.12876 -0.0286,-0.20745 0.0143,-0.0858 0.1073,-0.13591 0.10014,-0.0501 0.30044,-0.0644 0.20744,-0.0215 0.54365,-0.0215 0.29329,0 0.45781,0.0143 0.17168,0.007 0.25752,0.0286 0.093,0.0215 0.12161,0.0715 0.0358,0.0429 0.0572,0.11446 l 0.74395,2.13169 1.53796,-2.13169 q 0.0429,-0.0572 0.093,-0.10015 0.0501,-0.0429 0.15737,-0.0715 0.1073,-0.0286 0.27898,-0.0429 0.17168,-0.0143 0.46497,-0.0143 0.32905,0 0.52219,0.0143 0.20029,0.0143 0.29328,0.0572 0.093,0.0429 0.0787,0.12161 -0.007,0.0715 -0.10015,0.20029 z m 7.3107,-3.01155 q 0,0.0715 -0.0143,0.18599 -0.0143,0.1073 -0.0429,0.23606 -0.0215,0.12876 -0.0644,0.25752 -0.0429,0.12876 -0.10014,0.23606 -0.0501,0.10015 -0.12161,0.17168 -0.0644,0.0644 -0.14307,0.0644 h -1.39489 l -0.60088,2.99724 q -0.0215,0.1073 -0.0429,0.25752 -0.0143,0.14307 -0.0143,0.23606 0,0.28613 0.13591,0.42205 0.13592,0.12875 0.4292,0.12875 0.17168,0 0.29329,-0.0215 0.1216,-0.0286 0.20744,-0.0572 0.093,-0.0358 0.15738,-0.0572 0.0644,-0.0286 0.1216,-0.0286 0.0572,0 0.093,0.0572 0.0429,0.0501 0.0429,0.17167 0,0.13592 -0.0286,0.3076 -0.0286,0.17168 -0.0787,0.3362 -0.0429,0.15738 -0.10015,0.29329 -0.0572,0.12876 -0.12161,0.19314 -0.0644,0.0644 -0.19314,0.12161 -0.12876,0.0572 -0.30759,0.10014 -0.17168,0.0429 -0.37197,0.0644 -0.20029,0.0286 -0.40059,0.0286 -0.4292,0 -0.75825,-0.093 -0.3219,-0.0858 -0.54365,-0.27898 -0.22175,-0.19314 -0.33621,-0.49358 -0.1073,-0.30044 -0.1073,-0.72963 0,-0.0787 0.007,-0.17884 0.007,-0.1073 0.0215,-0.22175 0.0215,-0.11445 0.0358,-0.22891 0.0215,-0.1216 0.0429,-0.2146 l 0.62234,-3.11169 h -0.77256 q -0.093,0 -0.13591,-0.0572 -0.0429,-0.0644 -0.0429,-0.23606 0,-0.1216 0.0215,-0.31474 0.0286,-0.2003 0.0858,-0.38628 0.0572,-0.19314 0.15022,-0.32906 0.093,-0.13591 0.22175,-0.13591 h 0.76541 l 0.28613,-1.42351 q 0.0143,-0.0715 0.0644,-0.12876 0.0572,-0.0572 0.16453,-0.093 0.11445,-0.0429 0.28613,-0.0572 0.17883,-0.0215 0.44351,-0.0215 0.25752,0 0.42919,0.0215 0.17168,0.0143 0.26468,0.0572 0.093,0.0358 0.1216,0.093 0.0358,0.0572 0.0215,0.12876 l -0.28613,1.42351 h 1.38059 q 0.12161,0 0.16453,0.0787 0.0429,0.0787 0.0429,0.2289 z m 6.58105,1.33768 q 0,0.51503 -0.23606,0.92993 -0.2289,0.40774 -0.72248,0.70818 -0.48643,0.29328 -1.24468,0.45065 -0.7511,0.15738 -1.79548,0.15738 h -0.65811 q -0.0286,0.16452 -0.0429,0.32905 -0.0143,0.15737 -0.0143,0.29329 0,0.57942 0.30044,0.8727 0.30044,0.29329 0.9657,0.29329 0.47212,0 0.84409,-0.0644 0.37913,-0.0715 0.65811,-0.15022 0.28613,-0.0858 0.47212,-0.15022 0.18598,-0.0715 0.27182,-0.0715 0.0858,0 0.12161,0.0501 0.0358,0.0501 0.0358,0.15737 0,0.12161 -0.0215,0.27898 -0.0215,0.15737 -0.0644,0.31475 -0.0358,0.15022 -0.10015,0.28613 -0.0572,0.13591 -0.13591,0.20745 -0.0858,0.0858 -0.31475,0.17168 -0.22891,0.0858 -0.5508,0.15737 -0.3219,0.0715 -0.72249,0.11445 -0.40059,0.0501 -0.81548,0.0501 -0.68672,0 -1.20176,-0.14307 -0.50788,-0.14307 -0.85124,-0.43635 -0.34336,-0.29329 -0.51504,-0.74395 -0.17168,-0.45781 -0.17168,-1.08015 0,-0.47927 0.0858,-1.02292 0.093,-0.55081 0.29329,-1.08016 0.20029,-0.5365 0.51504,-1.02292 0.31474,-0.48643 0.75825,-0.85125 0.45066,-0.37197 1.03723,-0.59372 0.58657,-0.22175 1.33767,-0.22175 0.65095,0 1.11592,0.15737 0.47212,0.15022 0.77256,0.40774 0.30044,0.25036 0.4435,0.57942 0.15022,0.3219 0.15022,0.66526 z m -1.76687,0.13591 q 0,-0.28613 -0.2289,-0.47212 -0.22176,-0.19314 -0.65096,-0.19314 -0.35766,0 -0.6438,0.12876 -0.27898,0.12876 -0.49358,0.35051 -0.21459,0.2146 -0.37197,0.51504 -0.15022,0.29329 -0.24321,0.62949 h 0.60088 q 0.57226,0 0.95854,-0.0715 0.38628,-0.0787 0.62234,-0.20745 0.23606,-0.12876 0.34336,-0.30044 0.1073,-0.17883 0.1073,-0.37912 z m 9.17771,-0.11445 q 0,0.25036 -0.0358,0.50073 -0.0286,0.25036 -0.0787,0.51504 l -0.79402,3.94148 q -0.0143,0.0715 -0.0715,0.12876 -0.0501,0.0501 -0.16453,0.0858 -0.1073,0.0358 -0.28613,0.0501 -0.17168,0.0215 -0.43635,0.0215 -0.26468,0 -0.43636,-0.0215 -0.16452,-0.0143 -0.25752,-0.0501 -0.093,-0.0358 -0.12876,-0.0858 -0.0286,-0.0572 -0.0143,-0.12876 l 0.77256,-3.82703 q 0.0358,-0.17168 0.0501,-0.35051 0.0215,-0.17884 0.0215,-0.31475 0,-0.3219 -0.13591,-0.52934 -0.13592,-0.20745 -0.45782,-0.20745 -0.29328,0 -0.61518,0.18599 -0.31475,0.18598 -0.60088,0.50788 -0.27898,0.31475 -0.50073,0.74395 -0.22176,0.42204 -0.31475,0.90131 l -0.57942,2.88995 q -0.0143,0.0715 -0.0715,0.12876 -0.0501,0.0501 -0.16453,0.0858 -0.1073,0.0358 -0.28613,0.0501 -0.17883,0.0215 -0.43635,0.0215 -0.26468,0 -0.43636,-0.0215 -0.16452,-0.0143 -0.26467,-0.0501 -0.093,-0.0358 -0.12161,-0.0858 -0.0286,-0.0572 -0.0143,-0.12876 l 1.28044,-6.38792 q 0.0143,-0.0715 0.0572,-0.12161 0.0501,-0.0572 0.14307,-0.0858 0.10014,-0.0358 0.25036,-0.0501 0.15737,-0.0215 0.37197,-0.0215 0.22176,0 0.35767,0.0215 0.14307,0.0143 0.22175,0.0501 0.0787,0.0286 0.10015,0.0858 0.0286,0.0501 0.0143,0.12161 l -0.20745,1.05154 q 0.15022,-0.25037 0.40059,-0.50789 0.25036,-0.26467 0.57226,-0.47212 0.32905,-0.20744 0.70818,-0.3362 0.38628,-0.13591 0.80117,-0.13591 0.50073,0 0.83694,0.15022 0.34336,0.14306 0.55081,0.39343 0.2146,0.25036 0.30759,0.58657 0.093,0.32905 0.093,0.70103 z m 6.12324,-1.14454 q 0,0.0858 -0.0286,0.25752 -0.0215,0.16453 -0.0715,0.33621 -0.0501,0.17168 -0.12161,0.30044 -0.0644,0.12161 -0.15022,0.12161 -0.093,0 -0.22175,-0.0644 -0.12161,-0.0715 -0.30044,-0.15022 -0.17884,-0.0858 -0.42205,-0.15022 -0.23606,-0.0644 -0.55796,-0.0644 -0.25036,0 -0.45066,0.0644 -0.19314,0.0644 -0.3219,0.17883 -0.12876,0.1073 -0.20029,0.25752 -0.0644,0.15022 -0.0644,0.3219 0,0.22175 0.17883,0.37197 0.18599,0.15022 0.45782,0.28613 0.27182,0.12876 0.58657,0.27183 0.31475,0.14307 0.58657,0.35767 0.27183,0.2146 0.45066,0.52219 0.17883,0.30759 0.17883,0.77256 0,0.54365 -0.20744,1.00861 -0.20745,0.45782 -0.60803,0.79402 -0.39344,0.33621 -0.9657,0.52935 -0.56512,0.18599 -1.28045,0.18599 -0.34336,0 -0.6581,-0.0501 -0.3076,-0.0501 -0.55796,-0.1216 -0.24321,-0.0715 -0.41489,-0.16453 -0.17168,-0.093 -0.25752,-0.17168 -0.0572,-0.0572 -0.0858,-0.12161 -0.0215,-0.0644 -0.0215,-0.16452 0,-0.0644 0.007,-0.16453 0.0143,-0.10015 0.0358,-0.22175 0.0286,-0.12161 0.0572,-0.24322 0.0358,-0.1216 0.0787,-0.22175 0.0429,-0.10014 0.093,-0.15737 0.0501,-0.0644 0.1073,-0.0644 0.10015,0 0.22176,0.0858 0.1216,0.0858 0.31474,0.19314 0.19314,0.10014 0.47212,0.19314 0.28613,0.0858 0.70818,0.0858 0.29329,0 0.50788,-0.0644 0.22176,-0.0715 0.36482,-0.19314 0.14307,-0.12161 0.20745,-0.27898 0.0715,-0.15737 0.0715,-0.33621 0,-0.25036 -0.17883,-0.40774 -0.17168,-0.15737 -0.43635,-0.29328 -0.26467,-0.13592 -0.57942,-0.27898 -0.30759,-0.14307 -0.57227,-0.35051 -0.26467,-0.20745 -0.4435,-0.51504 -0.17168,-0.3076 -0.17168,-0.77256 0,-0.50789 0.19314,-0.94424 0.19314,-0.43635 0.56511,-0.75825 0.37197,-0.32906 0.90132,-0.50789 0.52934,-0.18598 1.20176,-0.18598 0.30044,0 0.57941,0.0429 0.28614,0.0358 0.50789,0.10014 0.22891,0.0644 0.39343,0.14307 0.17168,0.0787 0.24322,0.15737 0.0787,0.0715 0.0787,0.24321 z m 4.15608,-2.42497 q -0.0501,0.26467 -0.13591,0.45066 -0.0858,0.17883 -0.22891,0.29328 -0.14306,0.1073 -0.35051,0.15738 -0.20744,0.0429 -0.51504,0.0429 -0.30044,0 -0.49358,-0.0429 -0.18598,-0.0501 -0.28613,-0.15738 -0.093,-0.11445 -0.1073,-0.29328 -0.0143,-0.18599 0.0429,-0.45066 0.0501,-0.25752 0.13591,-0.43635 0.0858,-0.17884 0.22891,-0.29329 0.14307,-0.11445 0.35051,-0.16453 0.20745,-0.0501 0.51504,-0.0501 0.30044,0 0.48643,0.0501 0.19314,0.0501 0.28613,0.16453 0.10015,0.11445 0.1073,0.29329 0.0143,0.17883 -0.0358,0.43635 z m -1.84555,8.52676 q -0.0143,0.0715 -0.0715,0.12876 -0.0501,0.0501 -0.16452,0.0858 -0.1073,0.0358 -0.28613,0.0501 -0.17884,0.0215 -0.43636,0.0215 -0.26467,0 -0.43635,-0.0215 -0.16453,-0.0143 -0.26467,-0.0501 -0.093,-0.0358 -0.12161,-0.0858 -0.0286,-0.0572 -0.0143,-0.12876 l 1.26614,-6.36646 q 0.0143,-0.0715 0.0644,-0.12161 0.0572,-0.0572 0.16453,-0.093 0.11445,-0.0429 0.28613,-0.0644 0.17883,-0.0215 0.44351,-0.0215 0.26467,0 0.4292,0.0215 0.17168,0.0215 0.26467,0.0644 0.10015,0.0358 0.12876,0.093 0.0286,0.0501 0.0143,0.12161 z m 8.8415,-4.23477 q 0,0.51504 -0.10015,1.05869 -0.093,0.54365 -0.30044,1.06585 -0.20744,0.51504 -0.5365,0.97285 -0.3219,0.45066 -0.77971,0.80117 -0.45066,0.34336 -1.03723,0.54365 -0.58657,0.2003 -1.32336,0.2003 -0.72249,0 -1.25183,-0.16453 -0.5222,-0.17168 -0.87271,-0.49358 -0.35051,-0.32905 -0.52219,-0.80117 -0.17168,-0.47927 -0.17168,-1.09446 0,-0.51504 0.093,-1.05869 0.10015,-0.54365 0.30759,-1.05869 0.20745,-0.51504 0.52935,-0.97285 0.32905,-0.46497 0.77971,-0.80833 0.45781,-0.34336 1.04439,-0.54365 0.58657,-0.20029 1.32336,-0.20029 0.72249,0 1.24468,0.17168 0.52934,0.16452 0.87986,0.49357 0.35051,0.3219 0.52219,0.80118 0.17168,0.47212 0.17168,1.0873 z m -1.85986,0.12161 q 0,-0.30044 -0.0644,-0.52935 -0.0572,-0.23606 -0.2003,-0.39343 -0.13591,-0.16453 -0.35766,-0.25037 -0.2146,-0.0858 -0.52935,-0.0858 -0.35766,0 -0.6438,0.14307 -0.28613,0.13591 -0.51504,0.37197 -0.22175,0.23606 -0.38628,0.55081 -0.16452,0.30759 -0.27182,0.65095 -0.1073,0.34336 -0.15738,0.70102 -0.0501,0.35052 -0.0501,0.67242 0,0.30044 0.0572,0.5365 0.0644,0.23606 0.20029,0.40058 0.14307,0.15737 0.35767,0.24321 0.22175,0.0858 0.5365,0.0858 0.35766,0 0.64379,-0.13591 0.28614,-0.14306 0.50789,-0.37912 0.22891,-0.24322 0.39343,-0.55081 0.16453,-0.31475 0.27183,-0.65811 0.1073,-0.35051 0.15737,-0.70102 0.0501,-0.35051 0.0501,-0.67241 z m 9.40661,-0.84409 q 0,0.25036 -0.0358,0.50073 -0.0286,0.25036 -0.0787,0.51504 l -0.79402,3.94148 q -0.0143,0.0715 -0.0715,0.12876 -0.0501,0.0501 -0.16453,0.0858 -0.1073,0.0358 -0.28613,0.0501 -0.17168,0.0215 -0.43635,0.0215 -0.26468,0 -0.43636,-0.0215 -0.16452,-0.0143 -0.25752,-0.0501 -0.093,-0.0358 -0.12876,-0.0858 -0.0286,-0.0572 -0.0143,-0.12876 l 0.77256,-3.82703 q 0.0358,-0.17168 0.0501,-0.35051 0.0215,-0.17884 0.0215,-0.31475 0,-0.3219 -0.13591,-0.52934 -0.13592,-0.20745 -0.45782,-0.20745 -0.29328,0 -0.61518,0.18599 -0.31475,0.18598 -0.60088,0.50788 -0.27898,0.31475 -0.50073,0.74395 -0.22176,0.42204 -0.31475,0.90131 l -0.57942,2.88995 q -0.0143,0.0715 -0.0715,0.12876 -0.0501,0.0501 -0.16453,0.0858 -0.1073,0.0358 -0.28613,0.0501 -0.17883,0.0215 -0.43635,0.0215 -0.26468,0 -0.43636,-0.0215 -0.16452,-0.0143 -0.26467,-0.0501 -0.093,-0.0358 -0.12161,-0.0858 -0.0286,-0.0572 -0.0143,-0.12876 l 1.28044,-6.38792 q 0.0143,-0.0715 0.0572,-0.12161 0.0501,-0.0572 0.14307,-0.0858 0.10014,-0.0358 0.25036,-0.0501 0.15737,-0.0215 0.37197,-0.0215 0.22176,0 0.35767,0.0215 0.14307,0.0143 0.22175,0.0501 0.0787,0.0286 0.10015,0.0858 0.0286,0.0501 0.0143,0.12161 l -0.20745,1.05154 q 0.15022,-0.25037 0.40059,-0.50789 0.25036,-0.26467 0.57226,-0.47212 0.32905,-0.20744 0.70818,-0.3362 0.38628,-0.13591 0.80117,-0.13591 0.50073,0 0.83694,0.15022 0.34336,0.14306 0.55081,0.39343 0.2146,0.25036 0.30759,0.58657 0.093,0.32905 0.093,0.70103 z"
       id="text1056"
       aria-label="Extension" /><path
       d="m 499.2954,444.71252 -1.20631,-8.10313 h 1.06105 l 0.98526,6.73261 h 0.019 l 1.16841,-5.02104 h 1.2 l 1.14947,4.94525 h 0.0126 l 1.04211,-6.65682 h 0.94736 l -1.33263,8.10313 h -1.35157 l -1.11789,-4.75577 h -0.0126 l -1.12421,4.75577 z m 13.51575,-7.9326 v 1.14315 q -1.25052,-0.57474 -2.33683,-0.57474 -1.25684,0 -2.07158,0.92211 -0.80841,0.9221 -0.80841,2.34946 0,1.43368 0.91578,2.35579 0.91579,0.91578 2.33684,0.91578 0.3221,0 0.82105,-0.0758 v -2.14104 h -1.5221 v -0.93474 h 2.76631 v 3.7642 q -1.26947,0.40421 -2.40631,0.40421 -1.8821,0 -3.06315,-1.16841 -1.17474,-1.16842 -1.17474,-3.03789 0,-1.91368 1.17474,-3.10104 1.17473,-1.18737 3.06946,-1.18737 1.07368,0 2.29894,0.36632 z m 2.20421,7.9326 v -8.10313 h 2.63367 q 1.40842,0 2.00842,0.25263 1.22526,0.53053 1.22526,2.04631 0,1.27579 -0.99158,2.0021 -0.98526,0.72631 -2.72209,0.72631 h -0.90948 v 3.07578 z m 1.2442,-4.01051 h 0.77684 q 2.52631,0 2.52631,-1.76842 0,-0.74526 -0.48,-1.06736 -0.47368,-0.32211 -1.58525,-0.32211 h -1.2379 z m 6.07578,-4.09262 h 1.2442 v 4.91999 q 0,1.28841 0.40421,1.86946 0.41053,0.57474 1.32,0.57474 0.96,0 1.38315,-0.57474 0.42316,-0.58105 0.42316,-1.90104 v -4.88841 h 1.08631 v 4.70525 q 0,1.5221 -0.36,2.18526 -0.76421,1.40841 -2.51999,1.40841 -1.5221,0 -2.25473,-0.83368 -0.72631,-0.83368 -0.72631,-2.5642 z m 14.12206,7.8505 q -1.25052,0.44842 -2.35578,0.44842 -1.93263,0 -3.11368,-1.15578 -1.18105,-1.1621 -1.18105,-3.05052 0,-1.91368 1.17474,-3.10104 1.17473,-1.18737 3.06946,-1.18737 1.07368,0 2.29894,0.36632 v 1.14315 q -1.25052,-0.57474 -2.33683,-0.57474 -1.25684,0 -2.07158,0.92211 -0.80841,0.9221 -0.80841,2.34946 0,1.44 0.91578,2.35579 0.91579,0.91578 2.35579,0.91578 0.87157,0 2.05262,-0.45473 z m 1.64842,0.25263 v -9.9726 h 1.24421 v 3.11368 1.28841 q 0.85894,-1.43999 2.33683,-1.43999 1.95157,0 1.95157,2.31789 v 4.69261 h -1.2442 v -4.35156 q 0,-0.80211 -0.25263,-1.13684 -0.24632,-0.34105 -0.83369,-0.34105 -0.93473,0 -1.95788,1.34526 v 4.48419 z m 11.91786,-0.82736 q -1.13053,0.94736 -2.25473,0.94736 -0.94105,0 -1.55368,-0.53684 -0.60632,-0.53684 -0.60632,-1.35789 0,-1.06736 0.94737,-1.71789 0.94736,-0.65052 2.50104,-0.65052 h 0.77053 v -0.58737 q 0,-0.72631 -0.32211,-1.03578 -0.3221,-0.30948 -1.06736,-0.30948 -1.08,0 -2.23578,0.60632 v -1.06737 q 1.32631,-0.47368 2.48841,-0.47368 1.30736,0 1.8442,0.51789 0.54316,0.51789 0.54316,1.78736 v 2.87368 q 0,0.61895 0.13263,0.84631 0.13263,0.22106 0.49895,0.22106 0.12,0 0.39158,-0.0632 l 0.11368,0.74526 q -0.62526,0.2021 -0.94737,0.2021 -0.9221,0 -1.2442,-0.94736 z m -0.19579,-0.80842 v -1.73052 h -0.37263 q -2.55789,0 -2.55789,1.38315 0,0.49895 0.32842,0.80211 0.32842,0.30315 0.87158,0.30315 0.81473,0 1.73052,-0.75789 z m 6.30314,1.63578 v -5.92419 h -2.49473 v -0.93473 h 3.73894 v 6.85892 z m -0.1579,-8.4126 v -1.56 h 1.56 v 1.56 z m 5.51367,8.4126 v -6.85892 h 1.24421 v 1.28841 q 0.85895,-1.43999 2.33684,-1.43999 1.95157,0 1.95157,2.31789 v 4.69261 h -1.24421 v -4.35156 q 0,-0.80211 -0.25263,-1.13684 -0.24631,-0.34105 -0.83368,-0.34105 -0.93473,0 -1.95789,1.34526 v 4.48419 z m 13.57891,-0.27157 q -1.29473,0.42947 -2.37473,0.42947 -1.76841,0 -2.72209,-0.90947 -0.94737,-0.90947 -0.94737,-2.6021 0,-1.59789 0.90947,-2.62736 0.91579,-1.02947 2.32421,-1.02947 1.42104,0 2.09052,0.85263 0.67578,0.85263 0.67578,2.65262 v 0.39789 h -4.67367 q 0.13895,2.33052 2.51368,2.33052 1.00421,0 2.2042,-0.47999 z m -4.67998,-3.77052 h 3.30946 v -0.17684 q 0,-1.85684 -1.54736,-1.85684 -0.74526,0 -1.21263,0.53684 -0.46105,0.53684 -0.54947,1.49684 z m 11.09681,4.04209 v -1.28841 q -0.90947,1.44631 -2.24842,1.44631 -1.1621,0 -1.83789,-0.90316 -0.66947,-0.90315 -0.66947,-2.45683 0,-1.70526 0.79579,-2.75368 0.79579,-1.05473 2.0842,-1.05473 1.10526,0 1.87579,0.93473 v -3.89683 h 1.24421 v 9.9726 z m 0,-5.14103 q -0.87158,-0.93474 -1.70526,-0.93474 -0.82105,0 -1.27579,0.72 -0.44842,0.72 -0.44842,2.02736 0,2.41894 1.44632,2.41894 1.05473,0 1.98315,-1.31368 z m 8.61471,-2.77263 v 1.08 q -1.37052,-0.53053 -2.43789,-0.53053 -1.68631,0 -1.68631,1.13684 0,0.46106 0.31579,0.74526 0.31579,0.2779 1.16842,0.57474 l 0.79579,0.27789 0.75789,0.25895 q 1.7621,0.61895 1.7621,2.09684 0,1.1242 -0.90316,1.79999 -0.89684,0.66947 -2.4063,0.66947 -1.04842,0 -2.70947,-0.44842 v -1.23157 q 1.65473,0.74526 2.74736,0.74526 0.9221,0 1.47157,-0.36 0.54948,-0.36631 0.54948,-0.97894 0,-0.46737 -0.32842,-0.73895 -0.32211,-0.27158 -1.33895,-0.64421 l -0.83368,-0.30316 q -1.24421,-0.46105 -1.73052,-0.94736 -0.48,-0.48632 -0.48,-1.29473 0,-1.09263 0.73895,-1.69263 0.74526,-0.6 2.09052,-0.6 1.09263,0 2.45683,0.38526 z m 8.37471,7.90735 q -0.93474,0.16421 -1.80631,0.16421 -1.5221,0 -2.07158,-0.54316 -0.54947,-0.54947 -0.54947,-2.07157 v -3.30946 h -1.71157 v -0.93474 h 1.71157 v -1.47789 h 1.25053 v 1.47789 h 3.03788 v 0.93474 h -3.03788 v 3.51156 q 0,0.58737 0.0695,0.80842 0.0758,0.22105 0.31579,0.38526 0.42947,0.28421 1.25052,0.28421 0.77684,0 1.54105,-0.17684 z m 2.77894,0.006 v -6.85892 h 1.24421 v 1.28841 q 0.94736,-1.43999 2.54525,-1.43999 0.56211,0 1.27579,0.15789 v 1.94526 h -0.93474 v -0.95368 q -0.27789,-0.0632 -0.50526,-0.0632 -0.71368,0 -1.25684,0.33474 -0.53684,0.32842 -1.1242,1.1242 v 4.46525 z m 12.4926,-6.85892 v 6.85892 h -1.24421 v -1.28841 q -0.85895,1.44631 -2.34315,1.44631 -1.94526,0 -1.94526,-2.32421 v -4.69261 h 1.24421 v 4.35156 q 0,0.80842 0.24631,1.14947 0.24632,0.33474 0.84,0.33474 0.93473,0 1.95789,-1.35158 v -4.48419 z m 8.11576,6.63787 q -1.10526,0.37895 -2.2042,0.37895 -1.79368,0 -2.76631,-0.93474 -0.96631,-0.93473 -0.96631,-2.65262 0,-1.68631 0.95368,-2.63368 0.96,-0.94736 2.66526,-0.94736 1.08631,0 2.19157,0.32842 v 1.0421 q -1.21895,-0.43579 -2.07789,-0.43579 -1.12421,0 -1.76842,0.70737 -0.63789,0.70737 -0.63789,1.93894 0,1.24421 0.6821,1.95157 0.68842,0.70105 1.89473,0.70105 0.90316,0 2.03368,-0.42315 z m 7.78735,0.21474 q -0.93473,0.16421 -1.80631,0.16421 -1.5221,0 -2.07157,-0.54316 -0.54948,-0.54947 -0.54948,-2.07157 v -3.30946 h -1.71157 v -0.93474 h 1.71157 v -1.47789 h 1.25053 v 1.47789 h 3.03788 v 0.93474 h -3.03788 v 3.51156 q 0,0.58737 0.0695,0.80842 0.0758,0.22105 0.31579,0.38526 0.42947,0.28421 1.25052,0.28421 0.77684,0 1.54105,-0.17684 z"
       id="text1057"
       style="font-size:12.9347px;line-height:1.25;font-family:'Lucida Console';-inkscape-font-specification:'Lucida Console';letter-spacing:0px;word-spacing:0px;fill:#0097a7;stroke-width:0.323367"
       aria-label="WGPUChainedStruct" /><path
       style="opacity:1;fill:#0097a7;fill-opacity:1;stroke:#ffffff;stroke-width:1.5;stroke-linecap:round;stroke-linejoin:round;stroke-dasharray:none;stroke-opacity:1;marker-end:url(#ArrowWideRounded)"
       d="M 17.708427,428.64429 H 124.8403"
       id="path1057" /><path
       id="rect1057"
       style="opacity:1;fill:#474747;stroke-width:1.81497;stroke-linecap:round;stroke-linejoin:round"
       d="m 124.8403,495.28912 h 138.59293 v 23.68809 H 124.8403 Z" /><path
       d="m 135.25333,512.5968 v -2.05421 h 2.05421 v 2.05421 z m 8.56383,0 v -2.05421 h 2.05421 v 2.05421 z m 8.56382,0 v -2.05421 h 2.05421 v 2.05421 z"
       id="text1058"
       style="font-size:14.2129px;line-height:1.25;font-family:'Lucida Console';-inkscape-font-specification:'Lucida Console';letter-spacing:0px;word-spacing:0px;fill:#dfdfdf;stroke-width:0.355321"
       aria-label="..." /><path
       id="rect1058"
       style="opacity:1;fill:#0097a7;stroke-width:0.363962;stroke-linecap:round;stroke-linejoin:round"
       transform="scale(-1,1)"
       d="m -266.08157,416.80023 h 2.64832 v 49.85104 h -2.64832 z" /><path
       id="rect1059"
       style="opacity:1;fill:#373737;stroke-width:1.43293;stroke-linecap:round;stroke-linejoin:round"
       d="M 351.82159,409.60049 H 490.41452 V 526.83987 H 351.82159 Z" /><path
       id="rect1060"
       style="opacity:1;fill:#474747;stroke-width:1.81497;stroke-linecap:round;stroke-linejoin:round"
       d="m 351.82159,416.80023 h 138.59293 v 23.68809 H 351.82159 Z" /><path
       d="m 360.18042,434.01953 v -7.53672 h 1.36716 v 1.41574 q 0.94382,-1.5823 2.56776,-1.5823 2.14442,0 2.14442,2.54694 v 5.15634 h -1.36715 v -4.78158 q 0,-0.88137 -0.2776,-1.24919 -0.27066,-0.37475 -0.91607,-0.37475 -1.0271,0 -2.15136,1.4782 v 4.92732 z m 14.92077,-0.29841 q -1.42268,0.47191 -2.6094,0.47191 -1.94317,0 -2.9911,-0.99935 -1.04098,-0.99934 -1.04098,-2.85923 0,-1.75579 0.99935,-2.887 1.00628,-1.1312 2.55388,-1.1312 1.56147,0 2.2971,0.93689 0.74257,0.93688 0.74257,2.91475 v 0.43721 h -5.13552 q 0.15268,2.56082 2.76208,2.56082 1.10344,0 2.42202,-0.52743 z m -5.14246,-4.14312 h 3.6365 v -0.19432 q 0,-2.04033 -1.70027,-2.04033 -0.81891,0 -1.33246,0.5899 -0.50661,0.58989 -0.60377,1.64475 z m 6.73169,4.44153 2.80372,-3.81 -2.78984,-3.72672 h 1.71416 l 2.08196,2.78289 1.90847,-2.78289 h 1.35328 l -2.56082,3.71978 2.8523,3.81694 h -1.70721 l -2.15831,-2.88005 -2.11667,2.88005 z m 15.56618,-0.007 q -1.0271,0.18044 -1.98481,0.18044 -1.67251,0 -2.27628,-0.59683 -0.60377,-0.60377 -0.60377,-2.27629 v -3.6365 h -1.88071 v -1.0271 h 1.88071 v -1.62394 h 1.3741 v 1.62394 h 3.33809 v 1.0271 h -3.33809 v 3.85858 q 0,0.64541 0.0763,0.88831 0.0833,0.24289 0.34699,0.42333 0.47191,0.31229 1.3741,0.31229 0.85361,0 1.69333,-0.19431 z"
       id="text1060"
       style="font-size:14.2129px;line-height:1.25;font-family:'Lucida Console';-inkscape-font-specification:'Lucida Console';letter-spacing:0px;word-spacing:0px;fill:#dfdfdf;stroke-width:0.355321"
       aria-label="next" /><g
       id="g1061"
       transform="translate(385.74174,366.07179)"><path
         id="rect1061"
         style="opacity:1;fill:#373737;stroke:#ffffff;stroke-width:1.5;stroke-linecap:round;stroke-linejoin:round"
         d="M 76.560066,53.203331 H 95.298395 V 71.94166 H 76.560066 Z" /><path
         id="circle1061"
         style="opacity:1;fill:#ffffff;stroke-width:1.5122;stroke-linecap:round;stroke-linejoin:round"
         d="m 89.17923,62.572495 a 3.25,3.25 0 0 1 -3.25,3.25 3.25,3.25 0 0 1 -3.25,-3.25 3.25,3.25 0 0 1 3.25,-3.25 3.25,3.25 0 0 1 3.25,3.25 z" /></g><path
       id="rect1062"
       style="opacity:1;fill:#474747;stroke-width:1.81497;stroke-linecap:round;stroke-linejoin:round"
       d="m 351.82159,442.9632 h 138.59293 v 23.68808 H 351.82159 Z" /><path
       d="m 360.27756,459.96552 v -1.2353 q 1.58923,0.68705 2.74819,0.68705 0.83279,0 1.3741,-0.33312 0.54826,-0.34005 0.54826,-0.8536 0,-0.65929 -1.29776,-1.07569 l -1.46432,-0.47885 q -1.71416,-0.55519 -1.71416,-1.95705 0,-1.0271 0.77033,-1.58924 0.77727,-0.56213 2.19301,-0.56213 1.0618,0 2.46366,0.32618 v 1.11038 q -1.35328,-0.40945 -2.4706,-0.40945 -0.74951,0 -1.2006,0.27065 -0.44416,0.27066 -0.44416,0.72869 0,0.56213 1.02017,0.91607 l 1.72803,0.60377 q 0.94383,0.33311 1.35328,0.79809 0.41639,0.45803 0.41639,1.19366 0,1.06874 -0.88136,1.70721 -0.88137,0.63153 -2.36651,0.63153 -1.29776,0 -2.77595,-0.47885 z m 10.86093,0.30535 v -7.87677 h -3.42137 v -1.02711 h 8.21684 v 1.02711 h -3.42137 v 7.87677 z m 5.95443,2.74126 v -1.0271 h 0.55519 q 0.77727,0 1.1312,-0.24984 0.35394,-0.24983 0.74257,-1.07568 l 0.34005,-0.72175 -3.16459,-7.20361 h 1.41574 l 2.46366,5.64213 2.48448,-5.64213 h 1.22837 l -3.79613,8.50137 q -0.44415,0.9924 -1.0618,1.38104 -0.61765,0.39557 -1.75579,0.39557 z m 8.8206,0 v -10.27798 h 1.36716 v 1.41574 q 0.9924,-1.5823 2.46366,-1.5823 1.28388,0 2.01951,0.99241 0.74257,0.98546 0.74257,2.69268 0,1.87377 -0.87443,3.03273 -0.87442,1.15896 -2.29016,1.15896 -1.21448,0 -2.06115,-1.0271 v 3.59486 z m 1.36716,-4.62197 q 0.95076,1.02711 1.87377,1.02711 0.90219,0 1.39492,-0.79115 0.49967,-0.79809 0.49967,-2.22771 0,-2.66491 -1.58923,-2.66491 -1.15897,0 -2.17913,1.44349 z m 13.57443,1.5823 q -1.42268,0.47191 -2.6094,0.47191 -1.94317,0 -2.99109,-0.99934 -1.04099,-0.99935 -1.04099,-2.85924 0,-1.75579 0.99935,-2.88699 1.00628,-1.13121 2.55388,-1.13121 1.56147,0 2.2971,0.93689 0.74257,0.93688 0.74257,2.91475 v 0.43722 h -5.13552 q 0.15268,2.56082 2.76208,2.56082 1.10344,0 2.42202,-0.52743 z m -5.14246,-4.14312 h 3.6365 v -0.19431 q 0,-2.04033 -1.70027,-2.04033 -0.81891,0 -1.33246,0.58989 -0.50661,0.58989 -0.60377,1.64475 z"
       id="text1062"
       style="font-size:14.2129px;line-height:1.25;font-family:'Lucida Console';-inkscape-font-specification:'Lucida Console';letter-spacing:0px;word-spacing:0px;fill:#dfdfdf;stroke-width:0.355321"
       aria-label="sType" /><path
       id="rect1063"
       style="opacity:1;fill:#474747;stroke-width:1.81497;stroke-linecap:round;stroke-linejoin:round"
       d="m 351.82159,469.12616 h 138.59293 v 23.68808 H 351.82159 Z" /><path
       d="m 360.27756,486.12848 v -1.2353 q 1.58923,0.68705 2.74819,0.68705 0.83279,0 1.3741,-0.33311 0.54826,-0.34006 0.54826,-0.85361 0,-0.65929 -1.29776,-1.07568 l -1.46432,-0.47886 q -1.71416,-0.55519 -1.71416,-1.95705 0,-1.0271 0.77033,-1.58923 0.77727,-0.56213 2.19301,-0.56213 1.0618,0 2.46366,0.32617 v 1.11038 q -1.35328,-0.40945 -2.4706,-0.40945 -0.74951,0 -1.2006,0.27066 -0.44416,0.27065 -0.44416,0.72869 0,0.56213 1.02017,0.91606 l 1.72803,0.60377 q 0.94383,0.33312 1.35328,0.79809 0.41639,0.45803 0.41639,1.19366 0,1.06874 -0.88136,1.70721 -0.88137,0.63154 -2.36651,0.63154 -1.29776,0 -2.77595,-0.47886 z m 11.54798,0.47886 q -1.65864,0 -2.6094,-1.04793 -0.94383,-1.05486 -0.94383,-2.89393 0,-1.83214 0.95077,-2.88006 0.95076,-1.05486 2.60246,-1.05486 1.65863,0 2.60246,1.05486 0.95076,1.04792 0.95076,2.88006 0,1.83907 -0.95076,2.89393 -0.94383,1.04793 -2.60246,1.04793 z m 0,-1.02711 q 0.98546,0 1.54065,-0.77033 0.5552,-0.77033 0.5552,-2.14442 0,-1.36716 -0.5552,-2.13749 -0.55519,-0.77033 -1.54065,-0.77033 -0.98547,0 -1.54066,0.77033 -0.55519,0.77033 -0.55519,2.13749 0,1.37409 0.55519,2.14442 0.55519,0.77033 1.54066,0.77033 z m 4.92732,0.85361 v -7.53673 h 1.2006 v 1.41574 q 0.88137,-1.58229 1.67946,-1.58229 1.02016,0 1.31164,1.58229 h 0.0486 q 0.72175,-1.58229 1.69333,-1.58229 0.70787,0 1.0271,0.52049 0.31924,0.51355 0.31924,1.66557 v 5.51722 h -1.2006 v -5.4617 q 0,-0.61765 -0.0902,-0.83972 -0.0902,-0.22208 -0.34005,-0.22208 -0.65235,0 -1.4088,1.65863 v 4.86487 h -1.2006 v -5.21186 q 0,-0.77727 -0.0902,-1.03405 -0.0902,-0.26371 -0.36088,-0.26371 -0.29147,0 -0.69399,0.47885 -0.39557,0.47191 -0.69399,1.17978 v 4.85099 z m 15.53842,-0.29842 q -1.42268,0.47192 -2.6094,0.47192 -1.94317,0 -2.99109,-0.99935 -1.04099,-0.99934 -1.04099,-2.85924 0,-1.75579 0.99935,-2.88699 1.00628,-1.1312 2.55388,-1.1312 1.56148,0 2.2971,0.93688 0.74257,0.93689 0.74257,2.91476 v 0.43721 h -5.13552 q 0.15268,2.56082 2.76208,2.56082 1.10344,0 2.42202,-0.52743 z m -5.14246,-4.14311 h 3.63651 v -0.19432 q 0,-2.04033 -1.70028,-2.04033 -0.81891,0 -1.33246,0.58989 -0.50661,0.58989 -0.60377,1.64476 z m 13.73405,4.43459 q -1.0271,0.18044 -1.98481,0.18044 -1.67251,0 -2.27628,-0.59684 -0.60378,-0.60377 -0.60378,-2.27628 v -3.6365 h -1.88071 v -1.02711 h 1.88071 v -1.62393 h 1.3741 v 1.62393 h 3.33809 v 1.02711 h -3.33809 v 3.85858 q 0,0.64541 0.0763,0.8883 0.0833,0.2429 0.347,0.42334 0.47191,0.31229 1.3741,0.31229 0.8536,0 1.69333,-0.19432 z m 2.17913,0.007 v -10.95809 h 1.36715 v 3.42136 1.41574 q 0.94383,-1.58229 2.56776,-1.58229 2.14443,0 2.14443,2.54694 v 5.15634 h -1.36716 v -4.78159 q 0,-0.88136 -0.27759,-1.24918 -0.27066,-0.37475 -0.91607,-0.37475 -1.0271,0 -2.15137,1.47819 v 4.92733 z m 11.24262,0 v -6.50962 h -2.74126 v -1.02711 h 4.10842 v 7.53673 z m -0.1735,-9.24394 v -1.71415 h 1.71416 v 1.71415 z m 6.05853,9.24394 v -7.53673 h 1.36716 v 1.41574 q 0.94382,-1.58229 2.56776,-1.58229 2.14443,0 2.14443,2.54694 v 5.15634 h -1.36716 v -4.78159 q 0,-0.88136 -0.2776,-1.24918 -0.27065,-0.37475 -0.91606,-0.37475 -1.02711,0 -2.15137,1.47819 v 4.92733 z m 8.77202,2.51918 0.14574,-1.15202 q 1.22836,0.52049 2.28323,0.52049 2.193,0 2.193,-2.08891 l 0.0625,-1.36022 q -0.86054,1.56148 -2.49142,1.56148 -1.29082,0 -2.05421,-0.97853 -0.75645,-0.98546 -0.75645,-2.65104 0,-1.81131 0.88137,-2.94251 0.88137,-1.13814 2.29017,-1.13814 1.10344,0 2.17218,1.03404 v -0.86055 h 1.28388 v 6.03077 q 0,1.46432 -0.19432,2.19995 -0.19431,0.74257 -0.72868,1.31164 -0.85361,0.90912 -2.67186,0.90912 -1.06875,0 -2.41509,-0.39557 z m 4.64279,-5.19104 v -2.96333 q -0.923,-1.04099 -1.90847,-1.04099 -0.89524,0 -1.39492,0.77727 -0.49967,0.77727 -0.49967,2.17913 0,1.18672 0.43721,1.85989 0.43722,0.66623 1.22143,0.66623 1.21448,0 2.14442,-1.4782 z"
       id="text1063"
       style="font-size:14.2129px;line-height:1.25;font-family:'Lucida Console';-inkscape-font-specification:'Lucida Console';letter-spacing:0px;word-spacing:0px;fill:#dfdfdf;stroke-width:0.355321"
       aria-label="something" /><path
       style="font-style:italic;font-weight:bold;font-size:14.65px;line-height:1.25;font-family:Calibri;-inkscape-font-specification:'Calibri Italic';letter-spacing:0px;word-spacing:0px;fill:#0097a7;stroke-width:1.22941"
       d="m 360.30589,403.99172 q 0.0358,0.25752 0.0286,0.40774 0,0.15022 -0.10014,0.22891 -0.093,0.0715 -0.31475,0.0858 -0.22175,0.0215 -0.60803,0.0215 -0.27183,0 -0.44351,-0.0143 -0.17168,-0.007 -0.26467,-0.0358 -0.093,-0.0286 -0.12876,-0.0858 -0.0358,-0.0572 -0.0429,-0.15738 l -0.25037,-1.85986 h -3.47651 l -0.95854,1.81694 q -0.0501,0.10015 -0.11446,0.17168 -0.0644,0.0644 -0.18598,0.10015 -0.12161,0.0358 -0.32906,0.0501 -0.20029,0.0143 -0.50788,0.0143 -0.32906,0 -0.50789,-0.0215 -0.18598,-0.0215 -0.24321,-0.10015 -0.0644,-0.0858 -0.0143,-0.23606 0.0429,-0.15022 0.17883,-0.40058 l 4.49229,-8.21201 q 0.0715,-0.12161 0.14307,-0.19314 0.0715,-0.0787 0.20029,-0.11446 0.13591,-0.0429 0.35767,-0.0501 0.2289,-0.0143 0.59372,-0.0143 0.42205,0 0.66526,0.0143 0.25037,0.007 0.38628,0.0501 0.13591,0.0358 0.17883,0.11446 0.0429,0.0787 0.0572,0.2146 z m -2.81126,-6.7885 h -0.007 l -2.06731,3.93433 h 2.60381 z m 10.78006,2.28907 q 0,0.25036 -0.0358,0.50073 -0.0286,0.25036 -0.0787,0.51504 l -0.79402,3.94148 q -0.0143,0.0715 -0.0715,0.12876 -0.0501,0.0501 -0.16452,0.0858 -0.1073,0.0358 -0.28614,0.0501 -0.17167,0.0215 -0.43635,0.0215 -0.26467,0 -0.43635,-0.0215 -0.16453,-0.0143 -0.25752,-0.0501 -0.093,-0.0358 -0.12876,-0.0858 -0.0286,-0.0572 -0.0143,-0.12876 l 0.77256,-3.82703 q 0.0358,-0.17168 0.0501,-0.35051 0.0215,-0.17884 0.0215,-0.31475 0,-0.3219 -0.13592,-0.52934 -0.13591,-0.20745 -0.45781,-0.20745 -0.29329,0 -0.61519,0.18599 -0.31474,0.18598 -0.60087,0.50788 -0.27898,0.31475 -0.50074,0.74395 -0.22175,0.42204 -0.31474,0.90131 l -0.57942,2.88995 q -0.0143,0.0715 -0.0715,0.12876 -0.0501,0.0501 -0.16452,0.0858 -0.1073,0.0358 -0.28613,0.0501 -0.17884,0.0215 -0.43636,0.0215 -0.26467,0 -0.43635,-0.0215 -0.16453,-0.0143 -0.26467,-0.0501 -0.093,-0.0358 -0.12161,-0.0858 -0.0286,-0.0572 -0.0143,-0.12876 l 1.28045,-6.38792 q 0.0143,-0.0715 0.0572,-0.12161 0.0501,-0.0572 0.14306,-0.0858 0.10015,-0.0358 0.25037,-0.0501 0.15737,-0.0215 0.37197,-0.0215 0.22175,0 0.35767,0.0215 0.14306,0.0143 0.22175,0.0501 0.0787,0.0286 0.10015,0.0858 0.0286,0.0501 0.0143,0.12161 l -0.20744,1.05154 q 0.15022,-0.25037 0.40058,-0.50789 0.25037,-0.26467 0.57227,-0.47212 0.32905,-0.20744 0.70818,-0.3362 0.38628,-0.13591 0.80117,-0.13591 0.50073,0 0.83694,0.15022 0.34336,0.14306 0.5508,0.39343 0.2146,0.25036 0.3076,0.58657 0.093,0.32905 0.093,0.70103 z m 7.90442,0.72248 q 0,0.51504 -0.10015,1.05869 -0.093,0.54365 -0.30044,1.06585 -0.20745,0.51504 -0.5365,0.97285 -0.3219,0.45066 -0.77971,0.80117 -0.45066,0.34336 -1.03723,0.54365 -0.58657,0.2003 -1.32337,0.2003 -0.72248,0 -1.25183,-0.16453 -0.52219,-0.17168 -0.8727,-0.49358 -0.35051,-0.32905 -0.52219,-0.80117 -0.17168,-0.47927 -0.17168,-1.09446 0,-0.51504 0.093,-1.05869 0.10015,-0.54365 0.30759,-1.05869 0.20745,-0.51504 0.52935,-0.97285 0.32905,-0.46497 0.77971,-0.80833 0.45781,-0.34336 1.04438,-0.54365 0.58658,-0.20029 1.32337,-0.20029 0.72248,0 1.24468,0.17168 0.52934,0.16452 0.87985,0.49357 0.35052,0.3219 0.5222,0.80118 0.17168,0.47212 0.17168,1.0873 z m -1.85987,0.12161 q 0,-0.30044 -0.0644,-0.52935 -0.0572,-0.23606 -0.20029,-0.39343 -0.13591,-0.16453 -0.35767,-0.25037 -0.21459,-0.0858 -0.52934,-0.0858 -0.35767,0 -0.6438,0.14307 -0.28613,0.13591 -0.51504,0.37197 -0.22175,0.23606 -0.38628,0.55081 -0.16452,0.30759 -0.27182,0.65095 -0.1073,0.34336 -0.15738,0.70102 -0.0501,0.35052 -0.0501,0.67242 0,0.30044 0.0572,0.5365 0.0644,0.23606 0.20029,0.40058 0.14307,0.15737 0.35766,0.24321 0.22176,0.0858 0.5365,0.0858 0.35767,0 0.6438,-0.13591 0.28614,-0.14306 0.50789,-0.37912 0.2289,-0.24322 0.39343,-0.55081 0.16453,-0.31475 0.27183,-0.65811 0.1073,-0.35051 0.15737,-0.70102 0.0501,-0.35051 0.0501,-0.67241 z m 7.56106,-2.20323 q 0,0.0715 -0.0143,0.18599 -0.0143,0.1073 -0.0429,0.23606 -0.0215,0.12876 -0.0644,0.25752 -0.0429,0.12876 -0.10015,0.23606 -0.0501,0.10015 -0.12161,0.17168 -0.0644,0.0644 -0.14306,0.0644 h -1.3949 l -0.60088,2.99724 q -0.0215,0.1073 -0.0429,0.25752 -0.0143,0.14307 -0.0143,0.23606 0,0.28613 0.13592,0.42205 0.13591,0.12875 0.4292,0.12875 0.17168,0 0.29328,-0.0215 0.12161,-0.0286 0.20745,-0.0572 0.093,-0.0358 0.15737,-0.0572 0.0644,-0.0286 0.12161,-0.0286 0.0572,0 0.093,0.0572 0.0429,0.0501 0.0429,0.17167 0,0.13592 -0.0286,0.3076 -0.0286,0.17168 -0.0787,0.3362 -0.0429,0.15738 -0.10014,0.29329 -0.0572,0.12876 -0.12161,0.19314 -0.0644,0.0644 -0.19314,0.12161 -0.12876,0.0572 -0.30759,0.10014 -0.17168,0.0429 -0.37198,0.0644 -0.20029,0.0286 -0.40058,0.0286 -0.4292,0 -0.75825,-0.093 -0.3219,-0.0858 -0.54366,-0.27898 -0.22175,-0.19314 -0.3362,-0.49358 -0.1073,-0.30044 -0.1073,-0.72963 0,-0.0787 0.007,-0.17884 0.007,-0.1073 0.0215,-0.22175 0.0215,-0.11445 0.0358,-0.22891 0.0215,-0.1216 0.0429,-0.2146 l 0.62234,-3.11169 h -0.77256 q -0.093,0 -0.13592,-0.0572 -0.0429,-0.0644 -0.0429,-0.23606 0,-0.1216 0.0215,-0.31474 0.0286,-0.2003 0.0858,-0.38628 0.0572,-0.19314 0.15022,-0.32906 0.093,-0.13591 0.22176,-0.13591 h 0.7654 l 0.28614,-1.42351 q 0.0143,-0.0715 0.0644,-0.12876 0.0572,-0.0572 0.16452,-0.093 0.11445,-0.0429 0.28613,-0.0572 0.17884,-0.0215 0.44351,-0.0215 0.25752,0 0.4292,0.0215 0.17168,0.0143 0.26467,0.0572 0.093,0.0358 0.12161,0.093 0.0358,0.0572 0.0215,0.12876 l -0.28613,1.42351 h 1.38059 q 0.1216,0 0.16452,0.0787 0.0429,0.0787 0.0429,0.2289 z m 6.0231,6.31639 q -0.0143,0.0715 -0.0715,0.12876 -0.0501,0.0501 -0.16453,0.0858 -0.1073,0.0358 -0.28613,0.0501 -0.17168,0.0215 -0.44351,0.0215 -0.25752,0 -0.4292,-0.0215 -0.16453,-0.0143 -0.25752,-0.0501 -0.093,-0.0358 -0.12876,-0.0858 -0.0286,-0.0572 -0.0143,-0.12876 l 0.7654,-3.82703 q 0.0286,-0.15022 0.0501,-0.33621 0.0215,-0.19314 0.0215,-0.34336 0,-0.15737 -0.0358,-0.28613 -0.0286,-0.13591 -0.10015,-0.2289 -0.0715,-0.10015 -0.18599,-0.15022 -0.11445,-0.0572 -0.27182,-0.0572 -0.29329,0 -0.61519,0.18599 -0.31474,0.18598 -0.60088,0.50788 -0.27898,0.3219 -0.50073,0.7511 -0.22175,0.4292 -0.31474,0.90847 l -0.57942,2.87564 q -0.0143,0.0715 -0.0715,0.12876 -0.0501,0.0501 -0.16452,0.0858 -0.1073,0.0358 -0.28614,0.0501 -0.17883,0.0215 -0.43635,0.0215 -0.26467,0 -0.43635,-0.0215 -0.16453,-0.0143 -0.26467,-0.0501 -0.093,-0.0358 -0.12161,-0.0858 -0.0286,-0.0572 -0.0143,-0.12876 l 1.88133,-9.40662 q 0.0143,-0.0715 0.0644,-0.12876 0.0501,-0.0572 0.16452,-0.093 0.11446,-0.0429 0.28614,-0.0644 0.17883,-0.0215 0.4435,-0.0215 0.26467,0 0.4292,0.0215 0.17168,0.0215 0.26467,0.0644 0.093,0.0358 0.12161,0.093 0.0286,0.0572 0.0143,0.12876 l -0.50789,2.5895 q -0.0358,0.15738 -0.0787,0.33621 -0.0429,0.17883 -0.10014,0.35766 -0.0501,0.17168 -0.1073,0.33621 -0.0501,0.16453 -0.10015,0.29329 0.13591,-0.22891 0.37197,-0.45782 0.23606,-0.2289 0.5365,-0.41489 0.3076,-0.18599 0.65811,-0.30044 0.35766,-0.1216 0.72964,-0.1216 0.48642,0 0.82263,0.13591 0.3362,0.13591 0.5508,0.37912 0.2146,0.24322 0.3076,0.57942 0.10014,0.33621 0.10014,0.7368 0,0.25751 -0.0286,0.51503 -0.0286,0.25037 -0.0787,0.50074 z m 8.4123,-4.97871 q 0,0.51503 -0.23606,0.92993 -0.2289,0.40774 -0.72248,0.70818 -0.48643,0.29328 -1.24468,0.45065 -0.7511,0.15738 -1.79548,0.15738 h -0.65811 q -0.0286,0.16452 -0.0429,0.32905 -0.0143,0.15737 -0.0143,0.29329 0,0.57942 0.30043,0.8727 0.30044,0.29329 0.9657,0.29329 0.47212,0 0.84409,-0.0644 0.37913,-0.0715 0.65811,-0.15022 0.28613,-0.0858 0.47212,-0.15022 0.18599,-0.0715 0.27183,-0.0715 0.0858,0 0.1216,0.0501 0.0358,0.0501 0.0358,0.15737 0,0.12161 -0.0215,0.27898 -0.0215,0.15737 -0.0644,0.31475 -0.0358,0.15022 -0.10015,0.28613 -0.0572,0.13591 -0.13591,0.20745 -0.0858,0.0858 -0.31475,0.17168 -0.2289,0.0858 -0.5508,0.15737 -0.3219,0.0715 -0.72249,0.11445 -0.40058,0.0501 -0.81548,0.0501 -0.68672,0 -1.20175,-0.14307 -0.50789,-0.14307 -0.85125,-0.43635 -0.34336,-0.29329 -0.51504,-0.74395 -0.17168,-0.45781 -0.17168,-1.08015 0,-0.47927 0.0858,-1.02292 0.093,-0.55081 0.29329,-1.08016 0.20029,-0.5365 0.51504,-1.02292 0.31474,-0.48643 0.75825,-0.85125 0.45066,-0.37197 1.03723,-0.59372 0.58657,-0.22175 1.33767,-0.22175 0.65095,0 1.11592,0.15737 0.47212,0.15022 0.77256,0.40774 0.30044,0.25036 0.4435,0.57942 0.15022,0.3219 0.15022,0.66526 z m -1.76687,0.13591 q 0,-0.28613 -0.2289,-0.47212 -0.22176,-0.19314 -0.65096,-0.19314 -0.35766,0 -0.64379,0.12876 -0.27898,0.12876 -0.49358,0.35051 -0.2146,0.2146 -0.37198,0.51504 -0.15022,0.29329 -0.24321,0.62949 h 0.60088 q 0.57227,0 0.95855,-0.0715 0.38627,-0.0787 0.62233,-0.20745 0.23606,-0.12876 0.34336,-0.30044 0.1073,-0.17883 0.1073,-0.37912 z m 7.61114,-1.63811 q 0,0.0501 -0.0143,0.17883 -0.0143,0.12876 -0.0429,0.30044 -0.0286,0.17168 -0.0715,0.35767 -0.0429,0.17883 -0.10015,0.3362 -0.0501,0.15738 -0.12161,0.25752 -0.0644,0.10015 -0.14306,0.10015 -0.0644,0 -0.12876,-0.0215 -0.0644,-0.0286 -0.14307,-0.0501 -0.0787,-0.0286 -0.17168,-0.0501 -0.093,-0.0286 -0.2146,-0.0286 -0.24321,0 -0.52219,0.18599 -0.27183,0.18598 -0.52219,0.49357 -0.25037,0.30044 -0.45066,0.70818 -0.19314,0.40059 -0.27898,0.84409 l -0.57227,2.86849 q -0.0143,0.0715 -0.0715,0.12876 -0.0501,0.0501 -0.16453,0.0858 -0.1073,0.0358 -0.28613,0.0501 -0.17883,0.0215 -0.43635,0.0215 -0.26468,0 -0.43636,-0.0215 -0.16452,-0.0143 -0.26467,-0.0501 -0.093,-0.0358 -0.1216,-0.0858 -0.0286,-0.0572 -0.0143,-0.12876 l 1.27329,-6.38792 q 0.0143,-0.0715 0.0644,-0.12161 0.0501,-0.0572 0.14307,-0.0858 0.10014,-0.0358 0.25036,-0.0501 0.15737,-0.0215 0.37197,-0.0215 0.22176,0 0.35767,0.0215 0.14307,0.0143 0.22175,0.0501 0.0787,0.0286 0.10015,0.0858 0.0286,0.0501 0.0143,0.12161 l -0.2003,1.01577 q 0.17168,-0.30759 0.39344,-0.56511 0.2289,-0.25752 0.47927,-0.44351 0.25752,-0.19314 0.52934,-0.30043 0.27183,-0.1073 0.5365,-0.1073 0.1073,0 0.2146,0.0143 0.11446,0.0143 0.20745,0.0358 0.10015,0.0215 0.17168,0.0572 0.0787,0.0286 0.12161,0.0644 0.0429,0.0429 0.0429,0.13591 z m 9.8215,1.5022 q 0,0.51503 -0.23605,0.92993 -0.22891,0.40774 -0.72249,0.70818 -0.48643,0.29328 -1.24468,0.45065 -0.7511,0.15738 -1.79548,0.15738 h -0.65811 q -0.0286,0.16452 -0.0429,0.32905 -0.0143,0.15737 -0.0143,0.29329 0,0.57942 0.30044,0.8727 0.30044,0.29329 0.96569,0.29329 0.47212,0 0.8441,-0.0644 0.37912,-0.0715 0.6581,-0.15022 0.28613,-0.0858 0.47212,-0.15022 0.18599,-0.0715 0.27183,-0.0715 0.0858,0 0.1216,0.0501 0.0358,0.0501 0.0358,0.15737 0,0.12161 -0.0215,0.27898 -0.0215,0.15737 -0.0644,0.31475 -0.0358,0.15022 -0.10015,0.28613 -0.0572,0.13591 -0.13591,0.20745 -0.0858,0.0858 -0.31475,0.17168 -0.2289,0.0858 -0.5508,0.15737 -0.3219,0.0715 -0.72249,0.11445 -0.40058,0.0501 -0.81547,0.0501 -0.68672,0 -1.20176,-0.14307 -0.50789,-0.14307 -0.85125,-0.43635 -0.34336,-0.29329 -0.51504,-0.74395 -0.17168,-0.45781 -0.17168,-1.08015 0,-0.47927 0.0858,-1.02292 0.093,-0.55081 0.29329,-1.08016 0.20029,-0.5365 0.51504,-1.02292 0.31474,-0.48643 0.75825,-0.85125 0.45066,-0.37197 1.03723,-0.59372 0.58657,-0.22175 1.33767,-0.22175 0.65095,0 1.11592,0.15737 0.47212,0.15022 0.77256,0.40774 0.30044,0.25036 0.44351,0.57942 0.15021,0.3219 0.15021,0.66526 z m -1.76687,0.13591 q 0,-0.28613 -0.2289,-0.47212 -0.22175,-0.19314 -0.65095,-0.19314 -0.35767,0 -0.6438,0.12876 -0.27898,0.12876 -0.49358,0.35051 -0.2146,0.2146 -0.37197,0.51504 -0.15022,0.29329 -0.24322,0.62949 h 0.60088 q 0.57227,0 0.95855,-0.0715 0.38628,-0.0787 0.62234,-0.20745 0.23606,-0.12876 0.34336,-0.30044 0.10729,-0.17883 0.10729,-0.37912 z m 6.41653,1.53796 1.14454,3.17608 q 0.0358,0.1216 0.0143,0.20029 -0.0215,0.0787 -0.13591,0.12876 -0.1073,0.0501 -0.31475,0.0644 -0.20744,0.0215 -0.5365,0.0215 -0.30044,0 -0.47212,-0.0143 -0.17168,-0.0143 -0.26467,-0.0429 -0.093,-0.0286 -0.12876,-0.0787 -0.0286,-0.0501 -0.0429,-0.11446 l -0.77256,-2.25329 -1.61665,2.26045 q -0.0429,0.0644 -0.10014,0.11445 -0.0501,0.0429 -0.17884,0.0715 -0.1216,0.0286 -0.32905,0.0429 -0.20029,0.0143 -0.54365,0.0143 -0.30759,0 -0.49358,-0.0215 -0.18599,-0.0143 -0.27183,-0.0572 -0.0858,-0.0501 -0.0715,-0.1216 0.007,-0.0787 0.0858,-0.2003 l 2.42498,-3.17607 -1.06585,-2.94717 q -0.0429,-0.12876 -0.0286,-0.20745 0.0143,-0.0858 0.1073,-0.13591 0.10014,-0.0501 0.30044,-0.0644 0.20744,-0.0215 0.54365,-0.0215 0.29329,0 0.45781,0.0143 0.17168,0.007 0.25752,0.0286 0.093,0.0215 0.12161,0.0715 0.0358,0.0429 0.0572,0.11446 l 0.74395,2.13169 1.53796,-2.13169 q 0.0429,-0.0572 0.093,-0.10015 0.0501,-0.0429 0.15737,-0.0715 0.1073,-0.0286 0.27898,-0.0429 0.17168,-0.0143 0.46496,-0.0143 0.32906,0 0.5222,0.0143 0.20029,0.0143 0.29328,0.0572 0.093,0.0429 0.0787,0.12161 -0.007,0.0715 -0.10015,0.20029 z m 7.31069,-3.01155 q 0,0.0715 -0.0143,0.18599 -0.0143,0.1073 -0.0429,0.23606 -0.0215,0.12876 -0.0644,0.25752 -0.0429,0.12876 -0.10015,0.23606 -0.0501,0.10015 -0.12161,0.17168 -0.0644,0.0644 -0.14306,0.0644 h -1.3949 l -0.60088,2.99724 q -0.0215,0.1073 -0.0429,0.25752 -0.0143,0.14307 -0.0143,0.23606 0,0.28613 0.13592,0.42205 0.13591,0.12875 0.4292,0.12875 0.17168,0 0.29328,-0.0215 0.12161,-0.0286 0.20745,-0.0572 0.093,-0.0358 0.15737,-0.0572 0.0644,-0.0286 0.12161,-0.0286 0.0572,0 0.093,0.0572 0.0429,0.0501 0.0429,0.17167 0,0.13592 -0.0286,0.3076 -0.0286,0.17168 -0.0787,0.3362 -0.0429,0.15738 -0.10014,0.29329 -0.0572,0.12876 -0.12161,0.19314 -0.0644,0.0644 -0.19314,0.12161 -0.12876,0.0572 -0.30759,0.10014 -0.17168,0.0429 -0.37198,0.0644 -0.20029,0.0286 -0.40058,0.0286 -0.4292,0 -0.75825,-0.093 -0.3219,-0.0858 -0.54366,-0.27898 -0.22175,-0.19314 -0.3362,-0.49358 -0.1073,-0.30044 -0.1073,-0.72963 0,-0.0787 0.007,-0.17884 0.007,-0.1073 0.0215,-0.22175 0.0215,-0.11445 0.0358,-0.22891 0.0215,-0.1216 0.0429,-0.2146 l 0.62234,-3.11169 h -0.77256 q -0.093,0 -0.13592,-0.0572 -0.0429,-0.0644 -0.0429,-0.23606 0,-0.1216 0.0215,-0.31474 0.0286,-0.2003 0.0858,-0.38628 0.0572,-0.19314 0.15022,-0.32906 0.093,-0.13591 0.22176,-0.13591 h 0.7654 l 0.28614,-1.42351 q 0.0143,-0.0715 0.0644,-0.12876 0.0572,-0.0572 0.16453,-0.093 0.11445,-0.0429 0.28613,-0.0572 0.17884,-0.0215 0.44351,-0.0215 0.25752,0 0.4292,0.0215 0.17168,0.0143 0.26467,0.0572 0.093,0.0358 0.12161,0.093 0.0358,0.0572 0.0215,0.12876 l -0.28613,1.42351 h 1.38059 q 0.1216,0 0.16452,0.0787 0.0429,0.0787 0.0429,0.2289 z m 6.58106,1.33768 q 0,0.51503 -0.23606,0.92993 -0.2289,0.40774 -0.72248,0.70818 -0.48643,0.29328 -1.24468,0.45065 -0.7511,0.15738 -1.79548,0.15738 h -0.65811 q -0.0286,0.16452 -0.0429,0.32905 -0.0143,0.15737 -0.0143,0.29329 0,0.57942 0.30043,0.8727 0.30044,0.29329 0.9657,0.29329 0.47212,0 0.84409,-0.0644 0.37913,-0.0715 0.65811,-0.15022 0.28613,-0.0858 0.47212,-0.15022 0.18599,-0.0715 0.27183,-0.0715 0.0858,0 0.1216,0.0501 0.0358,0.0501 0.0358,0.15737 0,0.12161 -0.0215,0.27898 -0.0215,0.15737 -0.0644,0.31475 -0.0358,0.15022 -0.10015,0.28613 -0.0572,0.13591 -0.13591,0.20745 -0.0858,0.0858 -0.31475,0.17168 -0.2289,0.0858 -0.5508,0.15737 -0.3219,0.0715 -0.72249,0.11445 -0.40058,0.0501 -0.81548,0.0501 -0.68672,0 -1.20175,-0.14307 -0.50789,-0.14307 -0.85125,-0.43635 -0.34336,-0.29329 -0.51504,-0.74395 -0.17168,-0.45781 -0.17168,-1.08015 0,-0.47927 0.0858,-1.02292 0.093,-0.55081 0.29329,-1.08016 0.20029,-0.5365 0.51504,-1.02292 0.31474,-0.48643 0.75825,-0.85125 0.45066,-0.37197 1.03723,-0.59372 0.58657,-0.22175 1.33767,-0.22175 0.65095,0 1.11592,0.15737 0.47212,0.15022 0.77256,0.40774 0.30044,0.25036 0.4435,0.57942 0.15022,0.3219 0.15022,0.66526 z m -1.76687,0.13591 q 0,-0.28613 -0.2289,-0.47212 -0.22176,-0.19314 -0.65096,-0.19314 -0.35766,0 -0.64379,0.12876 -0.27898,0.12876 -0.49358,0.35051 -0.2146,0.2146 -0.37198,0.51504 -0.15022,0.29329 -0.24321,0.62949 h 0.60088 q 0.57227,0 0.95855,-0.0715 0.38627,-0.0787 0.62233,-0.20745 0.23606,-0.12876 0.34336,-0.30044 0.1073,-0.17883 0.1073,-0.37912 z m 9.17771,-0.11445 q 0,0.25036 -0.0358,0.50073 -0.0286,0.25036 -0.0787,0.51504 l -0.79402,3.94148 q -0.0143,0.0715 -0.0715,0.12876 -0.0501,0.0501 -0.16452,0.0858 -0.1073,0.0358 -0.28614,0.0501 -0.17168,0.0215 -0.43635,0.0215 -0.26467,0 -0.43635,-0.0215 -0.16453,-0.0143 -0.25752,-0.0501 -0.093,-0.0358 -0.12876,-0.0858 -0.0286,-0.0572 -0.0143,-0.12876 l 0.77256,-3.82703 q 0.0358,-0.17168 0.0501,-0.35051 0.0215,-0.17884 0.0215,-0.31475 0,-0.3219 -0.13592,-0.52934 -0.13591,-0.20745 -0.45781,-0.20745 -0.29329,0 -0.61519,0.18599 -0.31474,0.18598 -0.60087,0.50788 -0.27898,0.31475 -0.50074,0.74395 -0.22175,0.42204 -0.31474,0.90131 l -0.57942,2.88995 q -0.0143,0.0715 -0.0715,0.12876 -0.0501,0.0501 -0.16452,0.0858 -0.1073,0.0358 -0.28613,0.0501 -0.17884,0.0215 -0.43636,0.0215 -0.26467,0 -0.43635,-0.0215 -0.16453,-0.0143 -0.26467,-0.0501 -0.093,-0.0358 -0.12161,-0.0858 -0.0286,-0.0572 -0.0143,-0.12876 l 1.28045,-6.38792 q 0.0143,-0.0715 0.0572,-0.12161 0.0501,-0.0572 0.14306,-0.0858 0.10015,-0.0358 0.25037,-0.0501 0.15737,-0.0215 0.37197,-0.0215 0.22175,0 0.35767,0.0215 0.14306,0.0143 0.22175,0.0501 0.0787,0.0286 0.10015,0.0858 0.0286,0.0501 0.0143,0.12161 l -0.20744,1.05154 q 0.15022,-0.25037 0.40058,-0.50789 0.25037,-0.26467 0.57227,-0.47212 0.32905,-0.20744 0.70818,-0.3362 0.38628,-0.13591 0.80117,-0.13591 0.50073,0 0.83694,0.15022 0.34336,0.14306 0.5508,0.39343 0.2146,0.25036 0.3076,0.58657 0.093,0.32905 0.093,0.70103 z m 6.12324,-1.14454 q 0,0.0858 -0.0286,0.25752 -0.0215,0.16453 -0.0715,0.33621 -0.0501,0.17168 -0.1216,0.30044 -0.0644,0.12161 -0.15022,0.12161 -0.093,0 -0.22175,-0.0644 -0.12161,-0.0715 -0.30044,-0.15022 -0.17884,-0.0858 -0.42205,-0.15022 -0.23606,-0.0644 -0.55796,-0.0644 -0.25037,0 -0.45066,0.0644 -0.19314,0.0644 -0.3219,0.17883 -0.12876,0.1073 -0.20029,0.25752 -0.0644,0.15022 -0.0644,0.3219 0,0.22175 0.17883,0.37197 0.18599,0.15022 0.45782,0.28613 0.27182,0.12876 0.58657,0.27183 0.31474,0.14307 0.58657,0.35767 0.27183,0.2146 0.45066,0.52219 0.17883,0.30759 0.17883,0.77256 0,0.54365 -0.20744,1.00861 -0.20745,0.45782 -0.60804,0.79402 -0.39343,0.33621 -0.96569,0.52935 -0.56512,0.18599 -1.28045,0.18599 -0.34336,0 -0.6581,-0.0501 -0.3076,-0.0501 -0.55796,-0.1216 -0.24322,-0.0715 -0.4149,-0.16453 -0.17168,-0.093 -0.25752,-0.17168 -0.0572,-0.0572 -0.0858,-0.12161 -0.0215,-0.0644 -0.0215,-0.16452 0,-0.0644 0.007,-0.16453 0.0143,-0.10015 0.0358,-0.22175 0.0286,-0.12161 0.0572,-0.24322 0.0358,-0.1216 0.0787,-0.22175 0.0429,-0.10014 0.093,-0.15737 0.0501,-0.0644 0.1073,-0.0644 0.10015,0 0.22175,0.0858 0.12161,0.0858 0.31475,0.19314 0.19314,0.10014 0.47212,0.19314 0.28613,0.0858 0.70818,0.0858 0.29328,0 0.50788,-0.0644 0.22176,-0.0715 0.36482,-0.19314 0.14307,-0.12161 0.20745,-0.27898 0.0715,-0.15737 0.0715,-0.33621 0,-0.25036 -0.17883,-0.40774 -0.17168,-0.15737 -0.43635,-0.29328 -0.26468,-0.13592 -0.57942,-0.27898 -0.3076,-0.14307 -0.57227,-0.35051 -0.26467,-0.20745 -0.4435,-0.51504 -0.17168,-0.3076 -0.17168,-0.77256 0,-0.50789 0.19314,-0.94424 0.19314,-0.43635 0.56511,-0.75825 0.37197,-0.32906 0.90132,-0.50789 0.52934,-0.18598 1.20175,-0.18598 0.30044,0 0.57942,0.0429 0.28614,0.0358 0.50789,0.10014 0.22891,0.0644 0.39343,0.14307 0.17168,0.0787 0.24321,0.15737 0.0787,0.0715 0.0787,0.24321 z m 4.15608,-2.42497 q -0.0501,0.26467 -0.13591,0.45066 -0.0858,0.17883 -0.22891,0.29328 -0.14307,0.1073 -0.35051,0.15738 -0.20745,0.0429 -0.51504,0.0429 -0.30044,0 -0.49358,-0.0429 -0.18599,-0.0501 -0.28613,-0.15738 -0.093,-0.11445 -0.1073,-0.29328 -0.0143,-0.18599 0.0429,-0.45066 0.0501,-0.25752 0.13591,-0.43635 0.0858,-0.17884 0.22891,-0.29329 0.14306,-0.11445 0.35051,-0.16453 0.20744,-0.0501 0.51504,-0.0501 0.30044,0 0.48642,0.0501 0.19314,0.0501 0.28614,0.16453 0.10014,0.11445 0.1073,0.29329 0.0143,0.17883 -0.0358,0.43635 z m -1.84556,8.52676 q -0.0143,0.0715 -0.0715,0.12876 -0.0501,0.0501 -0.16453,0.0858 -0.1073,0.0358 -0.28613,0.0501 -0.17883,0.0215 -0.43635,0.0215 -0.26468,0 -0.43636,-0.0215 -0.16452,-0.0143 -0.26467,-0.0501 -0.093,-0.0358 -0.1216,-0.0858 -0.0286,-0.0572 -0.0143,-0.12876 l 1.26614,-6.36646 q 0.0143,-0.0715 0.0644,-0.12161 0.0572,-0.0572 0.16452,-0.093 0.11446,-0.0429 0.28614,-0.0644 0.17883,-0.0215 0.4435,-0.0215 0.26467,0 0.4292,0.0215 0.17168,0.0215 0.26467,0.0644 0.10015,0.0358 0.12876,0.093 0.0286,0.0501 0.0143,0.12161 z m 8.84151,-4.23477 q 0,0.51504 -0.10015,1.05869 -0.093,0.54365 -0.30044,1.06585 -0.20744,0.51504 -0.5365,0.97285 -0.3219,0.45066 -0.77971,0.80117 -0.45066,0.34336 -1.03723,0.54365 -0.58657,0.2003 -1.32337,0.2003 -0.72248,0 -1.25183,-0.16453 -0.52219,-0.17168 -0.8727,-0.49358 -0.35051,-0.32905 -0.52219,-0.80117 -0.17168,-0.47927 -0.17168,-1.09446 0,-0.51504 0.093,-1.05869 0.10015,-0.54365 0.30759,-1.05869 0.20745,-0.51504 0.52935,-0.97285 0.32905,-0.46497 0.77971,-0.80833 0.45781,-0.34336 1.04438,-0.54365 0.58658,-0.20029 1.32337,-0.20029 0.72248,0 1.24468,0.17168 0.52934,0.16452 0.87986,0.49357 0.35051,0.3219 0.52219,0.80118 0.17168,0.47212 0.17168,1.0873 z m -1.85987,0.12161 q 0,-0.30044 -0.0644,-0.52935 -0.0572,-0.23606 -0.20029,-0.39343 -0.13591,-0.16453 -0.35766,-0.25037 -0.2146,-0.0858 -0.52935,-0.0858 -0.35767,0 -0.6438,0.14307 -0.28613,0.13591 -0.51504,0.37197 -0.22175,0.23606 -0.38628,0.55081 -0.16452,0.30759 -0.27182,0.65095 -0.1073,0.34336 -0.15738,0.70102 -0.0501,0.35052 -0.0501,0.67242 0,0.30044 0.0572,0.5365 0.0644,0.23606 0.20029,0.40058 0.14307,0.15737 0.35767,0.24321 0.22175,0.0858 0.53649,0.0858 0.35767,0 0.6438,-0.13591 0.28614,-0.14306 0.50789,-0.37912 0.22891,-0.24322 0.39343,-0.55081 0.16453,-0.31475 0.27183,-0.65811 0.1073,-0.35051 0.15737,-0.70102 0.0501,-0.35051 0.0501,-0.67241 z m 9.40662,-0.84409 q 0,0.25036 -0.0358,0.50073 -0.0286,0.25036 -0.0787,0.51504 l -0.79402,3.94148 q -0.0143,0.0715 -0.0715,0.12876 -0.0501,0.0501 -0.16453,0.0858 -0.1073,0.0358 -0.28613,0.0501 -0.17168,0.0215 -0.43636,0.0215 -0.26467,0 -0.43635,-0.0215 -0.16453,-0.0143 -0.25752,-0.0501 -0.093,-0.0358 -0.12876,-0.0858 -0.0286,-0.0572 -0.0143,-0.12876 l 0.77255,-3.82703 q 0.0358,-0.17168 0.0501,-0.35051 0.0215,-0.17884 0.0215,-0.31475 0,-0.3219 -0.13592,-0.52934 -0.13591,-0.20745 -0.45781,-0.20745 -0.29328,0 -0.61518,0.18599 -0.31475,0.18598 -0.60088,0.50788 -0.27898,0.31475 -0.50074,0.74395 -0.22175,0.42204 -0.31474,0.90131 l -0.57942,2.88995 q -0.0143,0.0715 -0.0715,0.12876 -0.0501,0.0501 -0.16453,0.0858 -0.1073,0.0358 -0.28613,0.0501 -0.17884,0.0215 -0.43636,0.0215 -0.26467,0 -0.43635,-0.0215 -0.16452,-0.0143 -0.26467,-0.0501 -0.093,-0.0358 -0.12161,-0.0858 -0.0286,-0.0572 -0.0143,-0.12876 l 1.28044,-6.38792 q 0.0143,-0.0715 0.0572,-0.12161 0.0501,-0.0572 0.14306,-0.0858 0.10015,-0.0358 0.25037,-0.0501 0.15737,-0.0215 0.37197,-0.0215 0.22176,0 0.35767,0.0215 0.14306,0.0143 0.22175,0.0501 0.0787,0.0286 0.10015,0.0858 0.0286,0.0501 0.0143,0.12161 l -0.20744,1.05154 q 0.15022,-0.25037 0.40058,-0.50789 0.25037,-0.26467 0.57227,-0.47212 0.32905,-0.20744 0.70818,-0.3362 0.38628,-0.13591 0.80117,-0.13591 0.50073,0 0.83694,0.15022 0.34336,0.14306 0.5508,0.39343 0.2146,0.25036 0.3076,0.58657 0.093,0.32905 0.093,0.70103 z"
       id="text1064"
       aria-label="Another extension" /><path
       style="opacity:1;fill:#0097a7;fill-opacity:1;stroke:#ffffff;stroke-width:1.5;stroke-linecap:round;stroke-linejoin:round;stroke-dasharray:none;stroke-opacity:1;marker-end:url(#ArrowWideRounded)"
       d="M 244.6897,428.64429 H 351.82157"
       id="path1064" /><path
       id="rect1064"
       style="opacity:1;fill:#474747;stroke-width:1.81497;stroke-linecap:round;stroke-linejoin:round"
       d="m 351.82159,495.28912 h 138.59293 v 23.68809 H 351.82159 Z" /><path
       d="m 362.23461,512.5968 v -2.05421 h 2.05421 v 2.05421 z m 8.56382,0 v -2.05421 h 2.05421 v 2.05421 z m 8.56383,0 v -2.05421 h 2.05421 v 2.05421 z"
       id="text1065"
       style="font-size:14.2129px;line-height:1.25;font-family:'Lucida Console';-inkscape-font-specification:'Lucida Console';letter-spacing:0px;word-spacing:0px;fill:#dfdfdf;stroke-width:0.355321"
       aria-label="..." /><path
       id="rect1065"
       style="opacity:1;fill:#0097a7;stroke-width:0.363962;stroke-linecap:round;stroke-linejoin:round"
       transform="scale(-1,1)"
       d="m -493.06281,416.80023 h 2.64833 v 49.85104 h -2.64833 z" /><path
       id="rect1066"
       style="opacity:1;fill:#d0004d;stroke-width:0.363962;stroke-linecap:round;stroke-linejoin:round"
       transform="scale(-1,1)"
       d="m -351.82159,469.12616 h 2.64832 v 49.85104 h -2.64832 z" /><path
       style="opacity:1;fill:none;fill-opacity:1;stroke:#d0004d;stroke-width:1.5;stroke-linecap:round;stroke-linejoin:round;stroke-dasharray:none;stroke-opacity:1;marker-end:url(#marker1044)"
       d="m 348.59331,456.55369 c -23.302,0 -22.52167,27.7981 -2.52167,27.7981 h 1.73422"
       id="path1066" /><path
       id="rect1067"
       style="opacity:1;fill:#d0004d;stroke-width:0.363962;stroke-linecap:round;stroke-linejoin:round"
       transform="scale(-1,1)"
       d="m -124.8403,469.12616 h 2.64832 v 49.85104 h -2.64832 z" /><path
       style="opacity:1;fill:none;fill-opacity:1;stroke:#d0004d;stroke-width:1.5;stroke-linecap:round;stroke-linejoin:round;stroke-dasharray:none;stroke-opacity:1;marker-end:url(#marker1044)"
       d="m 121.61203,456.55369 c -23.301997,0 -22.521667,27.7981 -2.52167,27.7981 h 1.73422"
       id="path1067" /></g></svg>
