<?xml version="1.0" encoding="UTF-8" standalone="no"?>
<!-- Created with Inkscape (http://www.inkscape.org/) -->

<svg
   version="1.1"
   id="svg761"
   width="744.16431"
   height="188.25833"
   viewBox="0 0 744.1643 188.25834"
   xml:space="preserve"
   xmlns="http://www.w3.org/2000/svg"
   xmlns:svg="http://www.w3.org/2000/svg"><defs
     id="defs765"><marker
       style="overflow:visible"
       id="marker1044"
       refX="0"
       refY="0"
       orient="auto-start-reverse"
       markerWidth="1"
       markerHeight="1"
       viewBox="0 0 1 1"
       preserveAspectRatio="xMidYMid"><path
         style="fill:none;stroke:context-stroke;stroke-width:1;stroke-linecap:round"
         d="M 3,-3 0,0 3,3"
         transform="rotate(180,0.125,0)"
         id="path1044" /></marker><marker
       style="overflow:visible"
       id="ArrowWideRounded"
       refX="0"
       refY="0"
       orient="auto-start-reverse"
       markerWidth="1"
       markerHeight="1"
       viewBox="0 0 1 1"
       preserveAspectRatio="xMidYMid"><path
         style="fill:none;stroke:context-stroke;stroke-width:1;stroke-linecap:round"
         d="M 3,-3 0,0 3,3"
         transform="rotate(180,0.125,0)"
         id="path2" /></marker></defs><g
     id="layer2"
     transform="translate(111.70191,34.960139)"><path
       id="rect1018"
       style="opacity:1;fill:#cdcdcd;stroke-width:1.69858;stroke-linecap:round;stroke-linejoin:round"
       d="M -105.96261,-15.869351 H 32.630318 V 148.87003 H -105.96261 Z" /><path
       id="rect1022"
       style="opacity:1;fill:#e2e2e2;stroke-width:1.81497;stroke-linecap:round;stroke-linejoin:round"
       d="M -105.96261,-8.66961 H 32.630318 V 15.018474 H -105.96261 Z" /><path
       d="M -97.603791,8.5496807 V 1.0129573 h 1.367159 v 1.4157381 q 0.943825,-1.58229554 2.56776,-1.58229554 2.144427,0 2.144427,2.54694064 v 5.1563402 h -1.367159 v -4.781586 q 0,-0.8813664 -0.277596,-1.2491807 -0.270656,-0.3747542 -0.916066,-0.3747542 -1.027104,0 -2.151366,1.4781971 v 4.9273238 z m 14.920769,-0.2984154 q -1.422678,0.4719127 -2.6094,0.4719127 -1.94317,0 -2.991094,-0.9993445 -1.040983,-0.9993446 -1.040983,-2.8592358 0,-1.7557928 0.999344,-2.8869953 1.006285,-1.13120254 2.553881,-1.13120254 1.561475,0 2.297104,0.93688554 0.742569,0.9368855 0.742569,2.9147549 v 0.4372132 h -5.135521 q 0.152678,2.5608204 2.762077,2.5608204 1.103443,0 2.422023,-0.5274318 z m -5.142461,-4.1431159 h 3.636504 v -0.194317 q 0,-2.0403284 -1.700274,-2.0403284 -0.818907,0 -1.332459,0.5898908 -0.506612,0.5898909 -0.603771,1.6447546 z m 6.731696,4.4415313 2.803717,-3.8100011 -2.789837,-3.7267223 h 1.714154 l 2.081967,2.7828969 1.908471,-2.7828969 h 1.353279 l -2.560821,3.7197824 2.852296,3.816941 h -1.707213 l -2.158307,-2.8800554 -2.116667,2.8800554 z m 15.566179,-0.00694 q -1.027104,0.1804372 -1.984809,0.1804372 -1.672514,0 -2.276285,-0.5968307 -0.60377,-0.6037707 -0.60377,-2.2762848 V 2.2135587 h -1.880711 V 1.1864546 h 1.880711 v -1.62393488 h 1.374098 V 1.1864546 h 3.338089 v 1.0271041 h -3.338089 V 6.072139 q 0,0.64541 0.07634,0.8883063 0.08328,0.2428962 0.346995,0.4233334 0.471913,0.3122952 1.374099,0.3122952 0.853606,0 1.693333,-0.194317 z m 2.116668,0.00694 V 7.5225766 h 2.394263 V 0.67290254 h -2.394263 v -1.02710411 h 6.162624 v 1.02710411 h -2.394263 V 7.5225766 h 2.394263 v 1.0271041 z m 8.626286,0 V 1.0129573 h 1.367159 v 1.4157381 q 0.943825,-1.58229554 2.56776,-1.58229554 2.144427,0 2.144427,2.54694064 v 5.1563402 h -1.367159 v -4.781586 q 0,-0.8813664 -0.277595,-1.2491807 -0.270656,-0.3747542 -0.916066,-0.3747542 -1.027104,0 -2.151367,1.4781971 V 8.5496807 Z M -39.468311,8.272085 q -1.374098,0.4927324 -2.58858,0.4927324 -2.123607,0 -3.421367,-1.2700004 -1.29776,-1.2769402 -1.29776,-3.3519681 0,-2.1027875 1.29082,-3.40748732 1.29082,-1.30469982 3.372788,-1.30469982 1.179782,0 2.526121,0.40251377 V 1.0892961 q -1.374099,-0.63153023 -2.56776,-0.63153023 -1.381039,0 -2.276285,1.01322433 -0.888306,1.0132243 -0.888306,2.5816401 0,1.5822955 1.006284,2.5885799 1.006285,1.0062845 2.58858,1.0062845 0.957705,0 2.255465,-0.4996723 z m 1.811312,0.2775957 V -2.4084098 h 1.367159 v 3.4213671 1.4157381 q 0.943826,-1.58229554 2.56776,-1.58229554 2.144427,0 2.144427,2.54694064 v 5.1563402 h -1.367159 v -4.781586 q 0,-0.8813664 -0.277595,-1.2491807 -0.270656,-0.3747542 -0.916066,-0.3747542 -1.027104,0 -2.151367,1.4781971 v 4.9273238 z m 13.095578,-0.9091259 q -1.242241,1.0409839 -2.477542,1.0409839 -1.034044,0 -1.707214,-0.5898909 -0.666229,-0.5898909 -0.666229,-1.4920769 0,-1.1728419 1.040984,-1.8876508 1.040984,-0.714809 2.748197,-0.714809 h 0.846667 v -0.64541 q 0,-0.7980876 -0.353935,-1.1381424 -0.353934,-0.3400547 -1.172841,-0.3400547 -1.186722,0 -2.456722,0.6662297 V 1.3668918 q 1.457377,-0.52049194 2.734317,-0.52049194 1.436558,0 2.026449,0.56907124 0.596831,0.5690712 0.596831,1.9639896 v 3.1576511 q 0,0.6801095 0.145737,0.9299457 0.145738,0.2428962 0.548252,0.2428962 0.131858,0 0.430273,-0.069399 l 0.124918,0.8189073 q -0.687049,0.2220766 -1.040983,0.2220766 -1.013225,0 -1.367159,-1.0409838 z M -24.776558,6.7522485 V 4.8507179 h -0.409454 q -2.810656,0 -2.810656,1.5198365 0,0.5482515 0.360874,0.8813664 0.360875,0.3331148 0.957705,0.3331148 0.895247,0 1.901531,-0.8327871 z m 6.926013,1.7974322 V 2.0400614 h -2.741258 V 1.0129573 h 4.108417 v 7.5367234 z m -0.173497,-9.24393701 V -2.4084098 h 1.714153 v 1.71415349 z m 6.058526,9.24393701 V 1.0129573 h 1.367159 v 1.4157381 q 0.9438251,-1.58229554 2.5677599,-1.58229554 2.1444269,0 2.1444269,2.54694064 v 5.1563402 h -1.3671589 v -4.781586 q 0,-0.8813664 -0.2775957,-1.2491807 -0.2706558,-0.3747542 -0.9160658,-0.3747542 -1.0271041,0 -2.1513664,1.4781971 v 4.9273238 z"
       id="text1019"
       style="font-size:14.2129px;line-height:1.25;font-family:'Lucida Console';-inkscape-font-specification:'Lucida Console';letter-spacing:0px;word-spacing:0px;stroke-width:0.355321"
       aria-label="nextInChain" /><g
       id="g1021"
       transform="translate(-72.042447,-59.398064)"><path
         id="rect1021"
         style="opacity:1;fill:#ffffff;stroke:#000000;stroke-width:1.5;stroke-linecap:round;stroke-linejoin:round"
         d="M 76.560066,53.203331 H 95.298395 V 71.94166 H 76.560066 Z" /><path
         id="path1021"
         style="opacity:1;stroke-width:1.5122;stroke-linecap:round;stroke-linejoin:round"
         d="m 89.17923,62.572495 a 3.25,3.25 0 0 1 -3.25,3.25 3.25,3.25 0 0 1 -3.25,-3.25 3.25,3.25 0 0 1 3.25,-3.25 3.25,3.25 0 0 1 3.25,3.25 z" /></g><path
       id="rect1023"
       style="opacity:1;fill:#e2e2e2;stroke-width:1.81497;stroke-linecap:round;stroke-linejoin:round"
       d="M -105.96261,17.493338 H 32.630318 V 41.181421 H -105.96261 Z" /><path
       d="m -94.695981,34.801018 v -9.930987 h -2.907815 v -1.027104 h 4.281914 v 10.958091 z m 10.250221,-0.909126 q -1.24224,1.040984 -2.477541,1.040984 -1.034044,0 -1.707214,-0.589891 -0.66623,-0.589891 -0.66623,-1.492077 0,-1.172842 1.040984,-1.887651 1.040984,-0.714809 2.748198,-0.714809 h 0.846667 v -0.64541 q 0,-0.798087 -0.353935,-1.138142 -0.353934,-0.340055 -1.172842,-0.340055 -1.186721,0 -2.456722,0.66623 v -1.172842 q 1.457378,-0.520492 2.734318,-0.520492 1.436558,0 2.026449,0.569071 0.59683,0.569071 0.59683,1.96399 v 3.157651 q 0,0.680109 0.145738,0.929946 0.145738,0.242896 0.548252,0.242896 0.131858,0 0.430273,-0.0694 l 0.124918,0.818907 q -0.687049,0.222077 -1.040984,0.222077 -1.013224,0 -1.367159,-1.040983 z m -0.215136,-0.888306 v -1.901531 h -0.409454 q -2.810657,0 -2.810657,1.519836 0,0.548252 0.360875,0.881367 0.360874,0.333115 0.957705,0.333115 0.895246,0 1.901531,-0.832787 z m 4.184755,1.88071 V 23.842927 h 1.367159 v 4.837105 q 0.992404,-1.582295 2.463662,-1.582295 1.28388,0 2.019508,0.992405 0.742569,0.985464 0.742569,2.692678 0,1.873771 -0.874427,3.032733 -0.874426,1.158962 -2.290164,1.158962 -1.214481,0 -2.061148,-1.027104 l -0.340055,0.936885 z m 1.367159,-1.963989 q 0.950765,1.027104 1.873771,1.027104 0.902186,0 1.394918,-0.791148 0.499672,-0.798087 0.499672,-2.227705 0,-2.664919 -1.589235,-2.664919 -1.158962,0 -2.179126,1.443498 z m 13.616069,1.582295 q -1.422678,0.471913 -2.6094,0.471913 -1.943169,0 -2.991093,-0.999344 -1.040984,-0.999345 -1.040984,-2.859236 0,-1.755793 0.999344,-2.886996 1.006285,-1.131202 2.553881,-1.131202 1.561476,0 2.297104,0.936885 0.742569,0.936886 0.742569,2.914755 v 0.437214 h -5.135521 q 0.152678,2.56082 2.762078,2.56082 1.103442,0 2.422022,-0.527432 z m -5.14246,-4.143116 h 3.636503 v -0.194317 q 0,-2.040328 -1.700273,-2.040328 -0.818908,0 -1.33246,0.589891 -0.506612,0.589891 -0.60377,1.644754 z m 10.194702,4.441532 v -9.930987 h -2.907815 v -1.027104 h 4.281914 v 10.958091 z"
       id="text1020"
       style="font-size:14.2129px;line-height:1.25;font-family:'Lucida Console';-inkscape-font-specification:'Lucida Console';letter-spacing:0px;word-spacing:0px;stroke-width:0.355321"
       aria-label="label" /><path
       id="rect1025"
       style="opacity:1;fill:#e2e2e2;stroke-width:1.81497;stroke-linecap:round;stroke-linejoin:round"
       d="M -105.96261,43.656296 H 32.630318 V 67.344379 H -105.96261 Z" /><path
       d="m -95.549588,60.963966 v -2.054208 h 2.054208 v 2.054208 z m 8.563828,0 v -2.054208 h 2.054208 v 2.054208 z m 8.563827,0 v -2.054208 h 2.054208 v 2.054208 z"
       id="text1025"
       style="font-size:14.2129px;line-height:1.25;font-family:'Lucida Console';-inkscape-font-specification:'Lucida Console';letter-spacing:0px;word-spacing:0px;stroke-width:0.355321"
       aria-label="..." /><path
       style="font-style:italic;font-weight:bold;font-size:14.65px;line-height:1.25;font-family:Calibri;-inkscape-font-specification:'Calibri Italic';letter-spacing:0px;word-spacing:0px;fill:#0097a7;stroke-width:1.22941"
       d="m -97.313347,-26.68575 q 0,0.4292 -0.05723,0.908472 -0.05007,0.479272 -0.178833,0.980005 -0.121606,0.493579 -0.336206,0.987158 -0.207446,0.486426 -0.522192,0.937085 -0.314746,0.443506 -0.751099,0.829785 -0.429199,0.386279 -0.994313,0.672412 -0.56511,0.27898 -1.27329,0.436353 -0.70817,0.157373 -1.68818,0.157373 h -2.35344 q -0.11446,0 -0.22175,-0.02861 -0.10015,-0.02861 -0.17168,-0.09299 -0.0644,-0.07153 -0.093,-0.185986 -0.0215,-0.114453 0.0143,-0.286133 l 1.61665,-8.068945 q 0.0572,-0.314746 0.25037,-0.450659 0.19314,-0.143066 0.45781,-0.143066 h 2.23183 q 1.10162,0 1.838404,0.214599 0.743945,0.2146 1.237524,0.636646 0.500733,0.422046 0.743946,1.051538 0.250366,0.622339 0.250366,1.44497 z m -1.974316,0.221753 q 0,-0.450659 -0.121607,-0.836938 -0.121606,-0.386279 -0.393433,-0.665259 -0.271827,-0.278979 -0.701027,-0.436352 -0.42204,-0.157374 -1.13738,-0.157374 h -0.98 l -1.26614,6.294922 h 0.98716 q 0.7511,0 1.25898,-0.178833 0.51504,-0.185986 0.90132,-0.500732 0.39344,-0.3219 0.66526,-0.736792 0.278981,-0.422046 0.45066,-0.887012 0.178834,-0.464966 0.25752,-0.951391 0.07869,-0.486426 0.07869,-0.944239 z m 9.056103,0.464966 q 0,0.515039 -0.236059,0.929932 -0.228907,0.407739 -0.722486,0.708178 -0.486425,0.293287 -1.244677,0.45066 -0.751099,0.157373 -1.795484,0.157373 h -0.658105 q -0.02861,0.164526 -0.04292,0.329052 -0.01431,0.157373 -0.01431,0.293286 0,0.579419 0.30044,0.872705 0.300439,0.293287 0.965698,0.293287 0.472119,0 0.844092,-0.06438 0.379126,-0.07153 0.658105,-0.15022 0.286133,-0.08584 0.472119,-0.15022 0.185987,-0.07153 0.271826,-0.07153 0.08584,0 0.121607,0.05007 0.03577,0.05007 0.03577,0.157373 0,0.121607 -0.02146,0.27898 -0.02146,0.157373 -0.06438,0.314746 -0.03577,0.15022 -0.100147,0.286133 -0.05723,0.135913 -0.135913,0.207446 -0.08584,0.08584 -0.314746,0.17168 -0.228906,0.08584 -0.550806,0.157373 -0.321899,0.07153 -0.722485,0.114453 -0.400586,0.05007 -0.815478,0.05007 -0.686719,0 -1.201758,-0.143066 -0.507886,-0.143067 -0.851245,-0.436353 -0.34336,-0.293286 -0.515039,-0.743945 -0.17168,-0.457813 -0.17168,-1.080151 0,-0.479273 0.08584,-1.022925 0.09299,-0.550806 0.293286,-1.080152 0.200293,-0.536499 0.515039,-1.022924 0.314746,-0.486426 0.758252,-0.851245 0.450659,-0.371973 1.037231,-0.593726 0.586573,-0.221753 1.337671,-0.221753 0.650952,0 1.115918,0.157373 0.472119,0.15022 0.772559,0.407739 0.300439,0.250367 0.443506,0.579419 0.150219,0.3219 0.150219,0.665259 z m -1.76687,0.135913 q 0,-0.286133 -0.228906,-0.472119 -0.221753,-0.19314 -0.650952,-0.19314 -0.357666,0 -0.643799,0.12876 -0.278979,0.12876 -0.493579,0.350513 -0.2146,0.214599 -0.371973,0.515039 -0.150219,0.293286 -0.243213,0.629492 h 0.600879 q 0.572266,0 0.958545,-0.07153 0.386279,-0.07869 0.622339,-0.207446 0.23606,-0.12876 0.343359,-0.30044 0.1073,-0.178833 0.1073,-0.379126 z m 7.575367,-1.258984 q 0,0.08584 -0.02861,0.257519 -0.02146,0.164527 -0.07153,0.336206 -0.05007,0.17168 -0.121606,0.30044 -0.06438,0.121606 -0.15022,0.121606 -0.09299,0 -0.221753,-0.06438 -0.121606,-0.07153 -0.300439,-0.150219 -0.178833,-0.08584 -0.422046,-0.15022 -0.23606,-0.06438 -0.557959,-0.06438 -0.250367,0 -0.450659,0.06438 -0.19314,0.06438 -0.3219,0.178833 -0.12876,0.1073 -0.200293,0.257519 -0.06438,0.15022 -0.06438,0.3219 0,0.221753 0.178833,0.371973 0.185987,0.150219 0.457813,0.286132 0.271826,0.12876 0.586572,0.271826 0.314746,0.143067 0.586572,0.357666 0.271826,0.2146 0.450659,0.522193 0.178833,0.307593 0.178833,0.772558 0,0.543653 -0.207446,1.008619 -0.207446,0.457812 -0.608032,0.794018 -0.393433,0.336206 -0.965698,0.529346 -0.565113,0.185986 -1.280445,0.185986 -0.343359,0 -0.658105,-0.05007 -0.307593,-0.05007 -0.557959,-0.121607 -0.243213,-0.07153 -0.414893,-0.164526 -0.171679,-0.09299 -0.257519,-0.17168 -0.05723,-0.05723 -0.08584,-0.121606 -0.02146,-0.06438 -0.02146,-0.164526 0,-0.06438 0.0072,-0.164527 0.01431,-0.100146 0.03577,-0.221753 0.02861,-0.121606 0.05723,-0.243213 0.03577,-0.121606 0.07869,-0.221753 0.04292,-0.100146 0.09299,-0.157373 0.05007,-0.06438 0.1073,-0.06438 0.100147,0 0.221753,0.08584 0.121606,0.08584 0.314746,0.19314 0.19314,0.100147 0.472119,0.19314 0.286133,0.08584 0.708179,0.08584 0.293286,0 0.507886,-0.06438 0.221753,-0.07153 0.364819,-0.19314 0.143066,-0.121606 0.207446,-0.278979 0.07153,-0.157374 0.07153,-0.336207 0,-0.250366 -0.178833,-0.407739 -0.171679,-0.157373 -0.436352,-0.293286 -0.264673,-0.135913 -0.579419,-0.278979 -0.307593,-0.143067 -0.572266,-0.350513 -0.264672,-0.207446 -0.443505,-0.515039 -0.17168,-0.307593 -0.17168,-0.772559 0,-0.507885 0.193139,-0.944238 0.19314,-0.436352 0.565113,-0.758252 0.371972,-0.329053 0.901318,-0.507886 0.529346,-0.185986 1.201758,-0.185986 0.300439,0 0.579419,0.04292 0.286133,0.03577 0.507886,0.100146 0.228906,0.06438 0.393432,0.143067 0.17168,0.07869 0.243213,0.157373 0.07869,0.07153 0.07869,0.243213 z m 6.366455,0.143066 q 0,0.164527 -0.04292,0.371973 -0.03577,0.207446 -0.100146,0.393432 -0.06438,0.185987 -0.164527,0.314747 -0.09299,0.121606 -0.207446,0.121606 -0.1073,0 -0.207446,-0.08584 -0.100147,-0.08584 -0.250367,-0.193139 -0.143066,-0.1073 -0.364819,-0.19314 -0.221753,-0.09299 -0.572265,-0.09299 -0.371973,0 -0.665259,0.164526 -0.293286,0.164526 -0.515039,0.429199 -0.2146,0.25752 -0.357666,0.593726 -0.143067,0.329053 -0.23606,0.672412 -0.09299,0.336206 -0.135913,0.650952 -0.03577,0.307593 -0.03577,0.536499 0,0.579419 0.250367,0.879858 0.257519,0.30044 0.801172,0.30044 0.400585,0 0.686718,-0.100147 0.286133,-0.107299 0.486426,-0.228906 0.207446,-0.12876 0.350513,-0.228906 0.150219,-0.100147 0.271826,-0.100147 0.07153,0 0.100146,0.06438 0.03577,0.06438 0.03577,0.185987 0,0.121606 -0.02861,0.307592 -0.02861,0.178833 -0.07869,0.36482 -0.04292,0.185986 -0.1073,0.350512 -0.05723,0.157373 -0.157373,0.250367 -0.09299,0.09299 -0.300439,0.214599 -0.207446,0.114453 -0.479273,0.207447 -0.271826,0.09299 -0.593725,0.150219 -0.314746,0.05723 -0.658106,0.05723 -1.223217,0 -1.83125,-0.615186 -0.608032,-0.622339 -0.608032,-1.83125 0,-0.436352 0.07869,-0.958545 0.08584,-0.522192 0.271826,-1.044384 0.185986,-0.529346 0.479272,-1.022925 0.30044,-0.493579 0.729639,-0.872705 0.429199,-0.379126 0.994312,-0.608032 0.565112,-0.228907 1.301904,-0.228907 0.286133,0 0.557959,0.04292 0.271826,0.04292 0.500732,0.121607 0.228906,0.07153 0.400586,0.171679 0.178833,0.100147 0.264673,0.185987 0.08584,0.07869 0.1073,0.143066 0.02861,0.06438 0.02861,0.157373 z m 5.472288,-0.522192 q 0,0.05007 -0.01431,0.178833 -0.01431,0.12876 -0.04292,0.300439 -0.02861,0.17168 -0.07153,0.357666 -0.04292,0.178833 -0.100146,0.336206 -0.05007,0.157373 -0.121607,0.25752 -0.06438,0.100146 -0.143066,0.100146 -0.06438,0 -0.12876,-0.02146 -0.06438,-0.02861 -0.143066,-0.05007 -0.07869,-0.02861 -0.17168,-0.05007 -0.09299,-0.02861 -0.2146,-0.02861 -0.243213,0 -0.522192,0.185986 -0.271826,0.185986 -0.522192,0.493579 -0.250367,0.300439 -0.45066,0.708179 -0.193139,0.400586 -0.278979,0.844092 l -0.572266,2.868481 q -0.01431,0.07153 -0.07153,0.12876 -0.05007,0.05007 -0.164526,0.08584 -0.1073,0.03577 -0.286133,0.05007 -0.178833,0.02146 -0.436353,0.02146 -0.264672,0 -0.436352,-0.02146 -0.164527,-0.01431 -0.264673,-0.05007 -0.09299,-0.03577 -0.121606,-0.08584 -0.02861,-0.05723 -0.01431,-0.12876 l 1.273291,-6.387915 q 0.01431,-0.07153 0.06438,-0.121606 0.05007,-0.05723 0.143066,-0.08584 0.100147,-0.03577 0.250366,-0.05007 0.157373,-0.02146 0.371973,-0.02146 0.221753,0 0.357666,0.02146 0.143066,0.01431 0.221753,0.05007 0.07869,0.02861 0.100146,0.08584 0.02861,0.05007 0.01431,0.121606 l -0.200293,1.015771 q 0.17168,-0.307592 0.393433,-0.565112 0.228906,-0.257519 0.479272,-0.443506 0.25752,-0.193139 0.529346,-0.300439 0.271826,-0.1073 0.536499,-0.1073 0.1073,0 0.214599,0.01431 0.114454,0.01431 0.207447,0.03577 0.100146,0.02146 0.171679,0.05723 0.07869,0.02861 0.121607,0.06438 0.04292,0.04292 0.04292,0.135913 z m 3.505126,-2.04585 q -0.05007,0.264673 -0.135913,0.450659 -0.08584,0.178833 -0.228906,0.293287 -0.143067,0.107299 -0.350513,0.157373 -0.207446,0.04292 -0.515039,0.04292 -0.300439,0 -0.493579,-0.04292 -0.185986,-0.05007 -0.286133,-0.157373 -0.09299,-0.114454 -0.1073,-0.293287 -0.01431,-0.185986 0.04292,-0.450659 0.05007,-0.257519 0.135913,-0.436352 0.08584,-0.178833 0.228907,-0.293286 0.143066,-0.114453 0.350512,-0.164527 0.207446,-0.05007 0.515039,-0.05007 0.30044,0 0.486426,0.05007 0.19314,0.05007 0.286133,0.164527 0.100146,0.114453 0.1073,0.293286 0.01431,0.178833 -0.03577,0.436352 z m -1.845557,8.526758 q -0.01431,0.07153 -0.07153,0.12876 -0.05007,0.05007 -0.164526,0.08584 -0.1073,0.03577 -0.286133,0.05007 -0.178833,0.02146 -0.436352,0.02146 -0.264673,0 -0.436353,-0.02146 -0.164526,-0.01431 -0.264673,-0.05007 -0.09299,-0.03577 -0.121606,-0.08584 -0.02861,-0.05723 -0.01431,-0.12876 l 1.266138,-6.366455 q 0.01431,-0.07153 0.06438,-0.121606 0.05723,-0.05723 0.164526,-0.09299 0.114453,-0.04292 0.286133,-0.06438 0.178833,-0.02146 0.443506,-0.02146 0.264672,0 0.429199,0.02146 0.17168,0.02146 0.264673,0.06438 0.100146,0.03577 0.128759,0.09299 0.02861,0.05007 0.01431,0.121606 z m 8.841506,-4.356372 q 0,0.464966 -0.08584,1.001465 -0.08584,0.536499 -0.264673,1.065844 -0.178833,0.529346 -0.457812,1.022925 -0.27898,0.486426 -0.672413,0.858399 -0.386279,0.371972 -0.894165,0.593725 -0.500732,0.221753 -1.130224,0.221753 -0.286133,0 -0.536499,-0.05723 -0.250366,-0.05723 -0.464966,-0.157373 -0.207446,-0.1073 -0.379126,-0.243213 -0.17168,-0.143067 -0.300439,-0.30044 l -0.565113,2.882788 q -0.01431,0.07153 -0.07153,0.12876 -0.05007,0.05723 -0.164526,0.09299 -0.1073,0.04292 -0.286133,0.06438 -0.178833,0.02146 -0.443506,0.02146 -0.264673,0 -0.429199,-0.02146 -0.164526,-0.02146 -0.25752,-0.06438 -0.100146,-0.03577 -0.128759,-0.09299 -0.02861,-0.05723 -0.01431,-0.12876 l 1.78833,-8.92019 q 0.02861,-0.15022 0.221753,-0.2146 0.19314,-0.06438 0.636645,-0.06438 0.221753,0 0.357666,0.02146 0.143067,0.01431 0.221753,0.05007 0.08584,0.02861 0.114453,0.08584 0.02861,0.05007 0.01431,0.121606 l -0.200293,1.037231 q 0.1073,-0.236059 0.336206,-0.486425 0.23606,-0.25752 0.557959,-0.464966 0.329053,-0.2146 0.715332,-0.350513 0.393433,-0.135913 0.808325,-0.135913 0.550806,0 0.922779,0.19314 0.379126,0.185986 0.608032,0.515039 0.236059,0.329052 0.336206,0.772558 0.1073,0.443506 0.1073,0.951392 z m -1.85271,0.157373 q 0,-0.243213 -0.04292,-0.443506 -0.03577,-0.200293 -0.12876,-0.336206 -0.08584,-0.143066 -0.228906,-0.2146 -0.135913,-0.07153 -0.336206,-0.07153 -0.3219,0 -0.650952,0.19314 -0.3219,0.185986 -0.608033,0.515039 -0.286132,0.321899 -0.507885,0.758252 -0.221753,0.429199 -0.314746,0.922778 l -0.200293,0.972852 q 0.250366,0.393432 0.550805,0.593725 0.307593,0.19314 0.708179,0.19314 0.293286,0 0.536499,-0.143066 0.250366,-0.143067 0.443506,-0.379126 0.200293,-0.243213 0.343359,-0.557959 0.15022,-0.314746 0.243213,-0.658106 0.100147,-0.343359 0.143067,-0.686719 0.05007,-0.350512 0.05007,-0.658105 z m 7.503831,-2.117383 q 0,0.07153 -0.01431,0.185987 -0.01431,0.107299 -0.04292,0.236059 -0.02146,0.12876 -0.06438,0.25752 -0.04292,0.128759 -0.100146,0.236059 -0.05007,0.100147 -0.121607,0.17168 -0.06438,0.06438 -0.143066,0.06438 h -1.394898 l -0.600879,2.997241 q -0.02146,0.1073 -0.04292,0.257519 -0.01431,0.143067 -0.01431,0.23606 0,0.286133 0.135913,0.422046 0.135913,0.12876 0.429199,0.12876 0.17168,0 0.293286,-0.02146 0.121607,-0.02861 0.207447,-0.05723 0.09299,-0.03577 0.157373,-0.05723 0.06438,-0.02861 0.121606,-0.02861 0.05723,0 0.09299,0.05723 0.04292,0.05007 0.04292,0.171679 0,0.135914 -0.02861,0.307593 -0.02861,0.17168 -0.07869,0.336206 -0.04292,0.157373 -0.100146,0.293286 -0.05723,0.12876 -0.121607,0.19314 -0.06438,0.06438 -0.193139,0.121607 -0.12876,0.05723 -0.307593,0.100146 -0.17168,0.04292 -0.371973,0.06438 -0.200293,0.02861 -0.400586,0.02861 -0.429199,0 -0.758251,-0.09299 -0.3219,-0.08584 -0.543653,-0.278979 -0.221753,-0.19314 -0.336206,-0.49358 -0.1073,-0.300439 -0.1073,-0.729638 0,-0.07869 0.0072,-0.178833 0.0072,-0.1073 0.02146,-0.221753 0.02146,-0.114453 0.03577,-0.228906 0.02146,-0.121607 0.04292,-0.2146 l 0.622339,-3.111694 h -0.772559 q -0.09299,0 -0.135913,-0.05723 -0.04292,-0.06438 -0.04292,-0.236059 0,-0.121607 0.02146,-0.314746 0.02861,-0.200293 0.08584,-0.38628 0.05723,-0.193139 0.15022,-0.329052 0.09299,-0.135914 0.221753,-0.135914 h 0.765405 l 0.286133,-1.42351 q 0.01431,-0.07153 0.06438,-0.12876 0.05723,-0.05723 0.164526,-0.09299 0.114453,-0.04292 0.286133,-0.05723 0.178833,-0.02146 0.443506,-0.02146 0.257519,0 0.429199,0.02146 0.17168,0.01431 0.264673,0.05723 0.09299,0.03577 0.121606,0.09299 0.03577,0.05723 0.02146,0.12876 l -0.286133,1.42351 h 1.380591 q 0.121607,0 0.164527,0.07869 0.04292,0.07869 0.04292,0.228906 z m 6.945875,2.081616 q 0,0.515039 -0.100146,1.058692 -0.09299,0.543652 -0.30044,1.065844 -0.207446,0.515039 -0.536499,0.972852 -0.321899,0.450659 -0.779712,0.801172 -0.450659,0.343359 -1.037231,0.543652 -0.586572,0.200293 -1.323364,0.200293 -0.722486,0 -1.251831,-0.164526 -0.522193,-0.17168 -0.872706,-0.493579 -0.350512,-0.329053 -0.522192,-0.801172 -0.17168,-0.479273 -0.17168,-1.094458 0,-0.515039 0.09299,-1.058692 0.100146,-0.543652 0.307592,-1.058691 0.207447,-0.515039 0.529346,-0.972851 0.329053,-0.464966 0.779712,-0.808326 0.457812,-0.343359 1.044385,-0.543652 0.586572,-0.200293 1.323364,-0.200293 0.722485,0 1.244678,0.17168 0.529345,0.164526 0.879858,0.493579 0.350513,0.321899 0.522192,0.801172 0.17168,0.472119 0.17168,1.087304 z m -1.859863,0.121607 q 0,-0.30044 -0.06438,-0.529346 -0.05723,-0.236059 -0.200293,-0.393432 -0.135913,-0.164527 -0.357666,-0.250367 -0.2146,-0.08584 -0.529346,-0.08584 -0.357666,0 -0.643799,0.143067 -0.286132,0.135913 -0.515039,0.371973 -0.221753,0.236059 -0.386279,0.550805 -0.164526,0.307593 -0.271826,0.650952 -0.1073,0.34336 -0.157373,0.701026 -0.05007,0.350512 -0.05007,0.672412 0,0.300439 0.05723,0.536499 0.06438,0.236059 0.200293,0.400586 0.143067,0.157373 0.357666,0.243213 0.221753,0.08584 0.536499,0.08584 0.357666,0 0.643799,-0.135913 0.286133,-0.143066 0.507886,-0.379126 0.228906,-0.243213 0.393432,-0.550805 0.164527,-0.314746 0.271827,-0.658106 0.107299,-0.350512 0.157373,-0.701025 0.05007,-0.350513 0.05007,-0.672412 z m 7.840039,-2.367749 q 0,0.05007 -0.01431,0.178833 -0.01431,0.12876 -0.04292,0.300439 -0.02861,0.17168 -0.07153,0.357666 -0.04292,0.178833 -0.100146,0.336206 -0.05007,0.157373 -0.121607,0.25752 -0.06438,0.100146 -0.143066,0.100146 -0.06438,0 -0.12876,-0.02146 -0.06438,-0.02861 -0.143066,-0.05007 -0.07869,-0.02861 -0.17168,-0.05007 -0.09299,-0.02861 -0.2146,-0.02861 -0.243213,0 -0.522192,0.185986 -0.271826,0.185986 -0.522192,0.493579 -0.250367,0.300439 -0.45066,0.708179 -0.193139,0.400586 -0.278979,0.844092 l -0.572266,2.868481 q -0.01431,0.07153 -0.07153,0.12876 -0.05007,0.05007 -0.164526,0.08584 -0.1073,0.03577 -0.286133,0.05007 -0.178833,0.02146 -0.436353,0.02146 -0.264672,0 -0.436352,-0.02146 -0.164526,-0.01431 -0.264673,-0.05007 -0.09299,-0.03577 -0.121606,-0.08584 -0.02861,-0.05723 -0.01431,-0.12876 l 1.273291,-6.387915 q 0.01431,-0.07153 0.06438,-0.121606 0.05007,-0.05723 0.143066,-0.08584 0.100147,-0.03577 0.250366,-0.05007 0.157373,-0.02146 0.371973,-0.02146 0.221753,0 0.357666,0.02146 0.143066,0.01431 0.221753,0.05007 0.07869,0.02861 0.100146,0.08584 0.02861,0.05007 0.01431,0.121606 l -0.200293,1.015771 q 0.17168,-0.307592 0.393433,-0.565112 0.228906,-0.257519 0.479272,-0.443506 0.25752,-0.193139 0.529346,-0.300439 0.271826,-0.1073 0.536499,-0.1073 0.1073,0 0.2146,0.01431 0.114453,0.01431 0.207446,0.03577 0.100146,0.02146 0.171679,0.05723 0.07869,0.02861 0.121607,0.06438 0.04292,0.04292 0.04292,0.135913 z"
       id="text1026"
       aria-label="Descriptor" /><path
       id="rect1026"
       style="opacity:1;fill:#cdcdcd;stroke-width:1.43293;stroke-linecap:round;stroke-linejoin:round"
       d="M 121.01866,-15.869351 H 259.61159 V 101.37003 H 121.01866 Z" /><path
       id="rect1027"
       style="opacity:1;fill:#e2e2e2;stroke-width:1.81497;stroke-linecap:round;stroke-linejoin:round"
       d="M 121.01866,-8.66961 H 259.61159 V 15.018474 H 121.01866 Z" /><path
       d="M 129.37749,8.5496807 V 1.0129573 h 1.36715 v 1.4157381 q 0.94383,-1.58229554 2.56777,-1.58229554 2.14442,0 2.14442,2.54694064 v 5.1563402 h -1.36716 v -4.781586 q 0,-0.8813664 -0.27759,-1.2491807 -0.27066,-0.3747542 -0.91607,-0.3747542 -1.0271,0 -2.15137,1.4781971 v 4.9273238 z m 14.92077,-0.2984154 q -1.42268,0.4719127 -2.6094,0.4719127 -1.94317,0 -2.9911,-0.9993445 -1.04098,-0.9993446 -1.04098,-2.8592358 0,-1.7557928 0.99934,-2.8869953 1.00629,-1.13120254 2.55388,-1.13120254 1.56148,0 2.29711,0.93688554 0.74257,0.9368855 0.74257,2.9147549 v 0.4372132 h -5.13552 q 0.15267,2.5608204 2.76207,2.5608204 1.10345,0 2.42203,-0.5274318 z m -5.14247,-4.1431159 h 3.63651 v -0.194317 q 0,-2.0403284 -1.70028,-2.0403284 -0.8189,0 -1.33245,0.5898908 -0.50662,0.5898909 -0.60378,1.6447546 z m 6.7317,4.4415313 2.80372,-3.8100011 -2.78984,-3.7267223 h 1.71415 l 2.08197,2.7828969 1.90847,-2.7828969 h 1.35328 l -2.56082,3.7197824 2.8523,3.816941 h -1.70722 l -2.1583,-2.8800554 -2.11667,2.8800554 z m 15.56618,-0.00694 q -1.0271,0.1804372 -1.98481,0.1804372 -1.67251,0 -2.27628,-0.5968307 -0.60377,-0.6037707 -0.60377,-2.2762848 V 2.2135587 h -1.88072 V 1.1864546 h 1.88072 v -1.62393488 h 1.37409 V 1.1864546 h 3.33809 V 2.2135587 H 157.9629 V 6.072139 q 0,0.64541 0.0763,0.8883063 0.0833,0.2428962 0.347,0.4233334 0.47191,0.3122952 1.3741,0.3122952 0.8536,0 1.69333,-0.194317 z"
       id="text1027"
       style="font-size:14.2129px;line-height:1.25;font-family:'Lucida Console';-inkscape-font-specification:'Lucida Console';letter-spacing:0px;word-spacing:0px;stroke-width:0.355321"
       aria-label="next" /><g
       id="g1028"
       transform="translate(154.93883,-59.398064)"><path
         id="rect1028"
         style="opacity:1;fill:#ffffff;stroke:#000000;stroke-width:1.5;stroke-linecap:round;stroke-linejoin:round"
         d="M 76.560066,53.203331 H 95.298395 V 71.94166 H 76.560066 Z" /><path
         id="circle1028"
         style="opacity:1;stroke-width:1.5122;stroke-linecap:round;stroke-linejoin:round"
         d="m 89.17923,62.572495 a 3.25,3.25 0 0 1 -3.25,3.25 3.25,3.25 0 0 1 -3.25,-3.25 3.25,3.25 0 0 1 3.25,-3.25 3.25,3.25 0 0 1 3.25,3.25 z" /></g><path
       id="rect1029"
       style="opacity:1;fill:#e2e2e2;stroke-width:1.81497;stroke-linecap:round;stroke-linejoin:round"
       d="M 121.01866,17.493338 H 259.61159 V 41.181421 H 121.01866 Z" /><path
       d="m 129.47464,34.495662 v -1.2353 q 1.58924,0.687049 2.7482,0.687049 0.83278,0 1.3741,-0.333115 0.54825,-0.340055 0.54825,-0.853607 0,-0.659289 -1.29776,-1.075683 l -1.46432,-0.478853 q -1.71415,-0.555191 -1.71415,-1.957049 0,-1.027104 0.77032,-1.589236 0.77727,-0.562131 2.19301,-0.562131 1.0618,0 2.46366,0.326175 v 1.110383 q -1.35328,-0.409454 -2.4706,-0.409454 -0.74951,0 -1.2006,0.270656 -0.44415,0.270656 -0.44415,0.728689 0,0.562131 1.02016,0.916065 l 1.72803,0.603771 q 0.94383,0.333115 1.35328,0.798088 0.4164,0.458033 0.4164,1.193661 0,1.068744 -0.88137,1.707214 -0.88137,0.63153 -2.3665,0.63153 -1.29776,0 -2.77596,-0.478853 z m 10.86093,0.305356 V 26.92424 h -3.42137 v -1.027105 h 8.21684 v 1.027105 h -3.42137 v 7.876778 z m 5.95443,2.741257 v -1.027104 h 0.55519 q 0.77727,0 1.1312,-0.249836 0.35394,-0.249836 0.74257,-1.075683 l 0.34006,-0.721749 -3.16459,-7.203609 h 1.41573 l 2.46367,5.642133 2.48448,-5.642133 h 1.22836 l -3.79612,8.501369 q -0.44416,0.992404 -1.06181,1.381038 -0.61765,0.395574 -1.75579,0.395574 z m 8.8206,0 V 27.264294 h 1.36716 v 1.415738 q 0.99241,-1.582295 2.46366,-1.582295 1.28388,0 2.01951,0.992405 0.74257,0.985464 0.74257,2.692678 0,1.873771 -0.87443,3.032733 -0.87442,1.158962 -2.29016,1.158962 -1.21448,0 -2.06115,-1.027104 v 3.594864 z m 1.36716,-4.621968 q 0.95077,1.027104 1.87377,1.027104 0.90219,0 1.39492,-0.791148 0.49967,-0.798087 0.49967,-2.227705 0,-2.664919 -1.58923,-2.664919 -1.15896,0 -2.17913,1.443498 z m 13.57443,1.582295 q -1.42268,0.471913 -2.6094,0.471913 -1.94317,0 -2.99109,-0.999344 -1.04099,-0.999345 -1.04099,-2.859236 0,-1.755793 0.99935,-2.886996 1.00628,-1.131202 2.55388,-1.131202 1.56148,0 2.2971,0.936885 0.74257,0.936886 0.74257,2.914755 v 0.437214 h -5.13552 q 0.15268,2.56082 2.76208,2.56082 1.10344,0 2.42202,-0.527432 z m -5.14246,-4.143116 h 3.63651 v -0.194317 q 0,-2.040328 -1.70028,-2.040328 -0.81891,0 -1.33246,0.589891 -0.50661,0.589891 -0.60377,1.644754 z"
       id="text1029"
       style="font-size:14.2129px;line-height:1.25;font-family:'Lucida Console';-inkscape-font-specification:'Lucida Console';letter-spacing:0px;word-spacing:0px;stroke-width:0.355321"
       aria-label="sType" /><path
       id="rect1030"
       style="opacity:1;fill:#e2e2e2;stroke-width:1.81497;stroke-linecap:round;stroke-linejoin:round"
       d="M 121.01866,43.656296 H 259.61159 V 67.344379 H 121.01866 Z" /><path
       d="m 135.83158,60.72107 q -1.21448,0.416394 -2.42202,0.416394 -1.97093,0 -3.03967,-1.027104 -1.06181,-1.027105 -1.06181,-2.914755 0,-1.852952 1.04793,-2.893936 1.05486,-1.040983 2.92863,-1.040983 1.19366,0 2.40814,0.360874 v 1.145082 q -1.3394,-0.478852 -2.28322,-0.478852 -1.2353,0 -1.94317,0.777268 -0.70093,0.777268 -0.70093,2.130547 0,1.367159 0.74951,2.144426 0.75645,0.770329 2.08197,0.770329 0.9924,0 2.23464,-0.464973 z m 5.19104,0.416394 q -1.65863,0 -2.6094,-1.047924 -0.94382,-1.054864 -0.94382,-2.893935 0,-1.832132 0.95076,-2.880056 0.95077,-1.054863 2.60246,-1.054863 1.65864,0 2.60246,1.054863 0.95077,1.047924 0.95077,2.880056 0,1.839071 -0.95077,2.893935 -0.94382,1.047924 -2.60246,1.047924 z m 0,-1.027104 q 0.98547,0 1.54066,-0.770329 0.55519,-0.770328 0.55519,-2.144426 0,-1.367159 -0.55519,-2.137487 -0.55519,-0.770328 -1.54066,-0.770328 -0.98546,0 -1.54066,0.770328 -0.55519,0.770328 -0.55519,2.137487 0,1.374098 0.55519,2.144426 0.5552,0.770329 1.54066,0.770329 z m 10.38902,0.853606 v -1.415738 q -0.99934,1.589236 -2.4706,1.589236 -1.27694,0 -2.01951,-0.992405 -0.73563,-0.992405 -0.73563,-2.699618 0,-1.873771 0.87443,-3.025793 0.87442,-1.158962 2.29016,-1.158962 1.21448,0 2.06115,1.027104 v -4.281914 h 1.36716 v 10.95809 z m 0,-5.649072 q -0.9577,-1.027104 -1.87377,-1.027104 -0.90219,0 -1.40186,0.791147 -0.49273,0.791148 -0.49273,2.227706 0,2.657979 1.58923,2.657979 1.15897,0 2.17913,-1.443498 z m 10.07672,5.350657 q -1.42267,0.471913 -2.6094,0.471913 -1.94317,0 -2.99109,-0.999345 -1.04098,-0.999344 -1.04098,-2.859236 0,-1.755792 0.99934,-2.886995 1.00629,-1.131202 2.55388,-1.131202 1.56148,0 2.29711,0.936885 0.74257,0.936886 0.74257,2.914755 v 0.437213 h -5.13553 q 0.15268,2.560821 2.76208,2.560821 1.10344,0 2.42202,-0.527432 z m -5.14246,-4.143116 h 3.63651 v -0.194317 q 0,-2.040328 -1.70028,-2.040328 -0.8189,0 -1.33246,0.589891 -0.50661,0.58989 -0.60377,1.644754 z"
       id="text1030"
       style="font-size:14.2129px;line-height:1.25;font-family:'Lucida Console';-inkscape-font-specification:'Lucida Console';letter-spacing:0px;word-spacing:0px;stroke-width:0.355321"
       aria-label="code" /><path
       style="font-style:italic;font-weight:bold;font-size:14.65px;line-height:1.25;font-family:Calibri;-inkscape-font-specification:'Calibri Italic';letter-spacing:0px;word-spacing:0px;fill:#0097a7;stroke-width:1.22941"
       d="m 128.13109,-29.761677 q 0,0.04292 -0.0143,0.150219 -0.007,0.1073 -0.0286,0.243213 -0.0215,0.12876 -0.0572,0.271826 -0.0358,0.143067 -0.093,0.264673 -0.0501,0.114453 -0.12876,0.19314 -0.0715,0.07869 -0.15737,0.07869 h -3.30483 l -0.45782,2.26045 h 2.80411 q 0.10014,0 0.14306,0.07153 0.0429,0.07153 0.0429,0.200293 0,0.05007 -0.0143,0.157373 -0.007,0.100146 -0.0286,0.236059 -0.0215,0.12876 -0.0572,0.264673 -0.0358,0.135913 -0.093,0.250366 -0.0501,0.114454 -0.1216,0.185987 -0.0715,0.07153 -0.15738,0.07153 h -2.79695 l -0.52934,2.610962 h 3.34775 q 0.0858,0 0.12876,0.07869 0.0429,0.07153 0.0429,0.2146 0,0.05007 -0.007,0.157373 -0.007,0.1073 -0.0358,0.243213 -0.0215,0.12876 -0.0572,0.264673 -0.0358,0.135913 -0.093,0.257519 -0.0501,0.114453 -0.1216,0.185987 -0.0715,0.07153 -0.16453,0.07153 h -4.64966 q -0.11445,0 -0.20744,-0.02861 -0.093,-0.03577 -0.15738,-0.107299 -0.0572,-0.07869 -0.0787,-0.185987 -0.0215,-0.114453 0.007,-0.271826 l 1.61665,-8.068945 q 0.0644,-0.314746 0.25752,-0.450659 0.19314,-0.143066 0.4292,-0.143066 h 4.60674 q 0.18598,0 0.18598,0.271826 z m 4.31345,5.436523 1.14454,3.176074 q 0.0358,0.121607 0.0143,0.200293 -0.0215,0.07869 -0.13591,0.12876 -0.1073,0.05007 -0.31475,0.06438 -0.20744,0.02146 -0.5365,0.02146 -0.30044,0 -0.47211,-0.01431 -0.17168,-0.01431 -0.26468,-0.04292 -0.093,-0.02861 -0.12876,-0.07869 -0.0286,-0.05007 -0.0429,-0.114454 l -0.77256,-2.253295 -1.61665,2.260449 q -0.0429,0.06438 -0.10014,0.114453 -0.0501,0.04292 -0.17884,0.07153 -0.1216,0.02861 -0.32905,0.04292 -0.20029,0.01431 -0.54365,0.01431 -0.30759,0 -0.49358,-0.02146 -0.18599,-0.01431 -0.27183,-0.05723 -0.0858,-0.05007 -0.0715,-0.121606 0.007,-0.07869 0.0858,-0.200293 l 2.42498,-3.176074 -1.06585,-2.947168 q -0.0429,-0.12876 -0.0286,-0.207447 0.0143,-0.08584 0.1073,-0.135913 0.10014,-0.05007 0.30044,-0.06438 0.20744,-0.02146 0.54365,-0.02146 0.29329,0 0.45781,0.01431 0.17168,0.0072 0.25752,0.02861 0.093,0.02146 0.12161,0.07153 0.0358,0.04292 0.0572,0.114453 l 0.74395,2.131689 1.53796,-2.131689 q 0.0429,-0.05723 0.093,-0.100147 0.0501,-0.04292 0.15737,-0.07153 0.1073,-0.02861 0.27898,-0.04292 0.17168,-0.01431 0.46497,-0.01431 0.32905,0 0.52219,0.01431 0.20029,0.01431 0.29328,0.05723 0.093,0.04292 0.0787,0.121606 -0.007,0.07153 -0.10015,0.200293 z m 7.3107,-3.011548 q 0,0.07153 -0.0143,0.185987 -0.0143,0.107299 -0.0429,0.236059 -0.0215,0.12876 -0.0644,0.25752 -0.0429,0.128759 -0.10014,0.236059 -0.0501,0.100147 -0.12161,0.17168 -0.0644,0.06438 -0.14307,0.06438 h -1.39489 l -0.60088,2.997241 q -0.0215,0.1073 -0.0429,0.257519 -0.0143,0.143067 -0.0143,0.23606 0,0.286133 0.13591,0.422046 0.13592,0.12876 0.4292,0.12876 0.17168,0 0.29329,-0.02146 0.1216,-0.02861 0.20744,-0.05723 0.093,-0.03577 0.15738,-0.05723 0.0644,-0.02861 0.1216,-0.02861 0.0572,0 0.093,0.05723 0.0429,0.05007 0.0429,0.171679 0,0.135914 -0.0286,0.307593 -0.0286,0.17168 -0.0787,0.336206 -0.0429,0.157373 -0.10015,0.293286 -0.0572,0.12876 -0.12161,0.19314 -0.0644,0.06438 -0.19314,0.121607 -0.12876,0.05723 -0.30759,0.100146 -0.17168,0.04292 -0.37197,0.06438 -0.20029,0.02861 -0.40059,0.02861 -0.4292,0 -0.75825,-0.09299 -0.3219,-0.08584 -0.54365,-0.278979 -0.22175,-0.19314 -0.33621,-0.49358 -0.1073,-0.300439 -0.1073,-0.729638 0,-0.07869 0.007,-0.178833 0.007,-0.1073 0.0215,-0.221753 0.0215,-0.114453 0.0358,-0.228906 0.0215,-0.121607 0.0429,-0.2146 l 0.62234,-3.111694 h -0.77256 q -0.093,0 -0.13591,-0.05723 -0.0429,-0.06438 -0.0429,-0.236059 0,-0.121607 0.0215,-0.314746 0.0286,-0.200293 0.0858,-0.38628 0.0572,-0.193139 0.15022,-0.329052 0.093,-0.135914 0.22175,-0.135914 h 0.76541 l 0.28613,-1.42351 q 0.0143,-0.07153 0.0644,-0.12876 0.0572,-0.05723 0.16453,-0.09299 0.11445,-0.04292 0.28613,-0.05723 0.17883,-0.02146 0.44351,-0.02146 0.25752,0 0.42919,0.02146 0.17168,0.01431 0.26468,0.05723 0.093,0.03577 0.1216,0.09299 0.0358,0.05723 0.0215,0.12876 l -0.28613,1.42351 h 1.38059 q 0.12161,0 0.16453,0.07869 0.0429,0.07869 0.0429,0.228906 z m 6.58105,1.337671 q 0,0.515039 -0.23606,0.929932 -0.2289,0.407739 -0.72248,0.708178 -0.48643,0.293287 -1.24468,0.45066 -0.7511,0.157373 -1.79548,0.157373 h -0.65811 q -0.0286,0.164526 -0.0429,0.329052 -0.0143,0.157373 -0.0143,0.293286 0,0.579419 0.30044,0.872705 0.30044,0.293287 0.9657,0.293287 0.47212,0 0.84409,-0.06438 0.37913,-0.07153 0.65811,-0.15022 0.28613,-0.08584 0.47212,-0.15022 0.18598,-0.07153 0.27182,-0.07153 0.0858,0 0.12161,0.05007 0.0358,0.05007 0.0358,0.157373 0,0.121607 -0.0215,0.27898 -0.0215,0.157373 -0.0644,0.314746 -0.0358,0.15022 -0.10015,0.286133 -0.0572,0.135913 -0.13591,0.207446 -0.0858,0.08584 -0.31475,0.17168 -0.22891,0.08584 -0.5508,0.157373 -0.3219,0.07153 -0.72249,0.114453 -0.40059,0.05007 -0.81548,0.05007 -0.68672,0 -1.20176,-0.143066 -0.50788,-0.143067 -0.85124,-0.436353 -0.34336,-0.293286 -0.51504,-0.743945 -0.17168,-0.457813 -0.17168,-1.080151 0,-0.479273 0.0858,-1.022925 0.093,-0.550806 0.29329,-1.080152 0.20029,-0.536499 0.51504,-1.022924 0.31474,-0.486426 0.75825,-0.851245 0.45066,-0.371973 1.03723,-0.593726 0.58657,-0.221753 1.33767,-0.221753 0.65095,0 1.11592,0.157373 0.47212,0.15022 0.77256,0.407739 0.30044,0.250367 0.4435,0.579419 0.15022,0.3219 0.15022,0.665259 z m -1.76687,0.135913 q 0,-0.286133 -0.2289,-0.472119 -0.22176,-0.19314 -0.65096,-0.19314 -0.35766,0 -0.6438,0.12876 -0.27898,0.12876 -0.49358,0.350513 -0.21459,0.214599 -0.37197,0.515039 -0.15022,0.293286 -0.24321,0.629492 h 0.60088 q 0.57226,0 0.95854,-0.07153 0.38628,-0.07869 0.62234,-0.207446 0.23606,-0.12876 0.34336,-0.30044 0.1073,-0.178833 0.1073,-0.379126 z m 9.17771,-0.114453 q 0,0.250366 -0.0358,0.500732 -0.0286,0.250367 -0.0787,0.515039 l -0.79402,3.94148 q -0.0143,0.07153 -0.0715,0.12876 -0.0501,0.05007 -0.16453,0.08584 -0.1073,0.03577 -0.28613,0.05007 -0.17168,0.02146 -0.43635,0.02146 -0.26468,0 -0.43636,-0.02146 -0.16452,-0.01431 -0.25752,-0.05007 -0.093,-0.03577 -0.12876,-0.08584 -0.0286,-0.05723 -0.0143,-0.12876 l 0.77256,-3.827026 q 0.0358,-0.17168 0.0501,-0.350513 0.0215,-0.178833 0.0215,-0.314746 0,-0.3219 -0.13591,-0.529346 -0.13592,-0.207446 -0.45782,-0.207446 -0.29328,0 -0.61518,0.185986 -0.31475,0.185987 -0.60088,0.507886 -0.27898,0.314746 -0.50073,0.743945 -0.22176,0.422046 -0.31475,0.901319 l -0.57942,2.889941 q -0.0143,0.07153 -0.0715,0.12876 -0.0501,0.05007 -0.16453,0.08584 -0.1073,0.03577 -0.28613,0.05007 -0.17883,0.02146 -0.43635,0.02146 -0.26468,0 -0.43636,-0.02146 -0.16452,-0.01431 -0.26467,-0.05007 -0.093,-0.03577 -0.12161,-0.08584 -0.0286,-0.05723 -0.0143,-0.12876 l 1.28044,-6.387915 q 0.0143,-0.07153 0.0572,-0.121606 0.0501,-0.05723 0.14307,-0.08584 0.10014,-0.03577 0.25036,-0.05007 0.15737,-0.02146 0.37197,-0.02146 0.22176,0 0.35767,0.02146 0.14307,0.01431 0.22175,0.05007 0.0787,0.02861 0.10015,0.08584 0.0286,0.05007 0.0143,0.121606 l -0.20745,1.051538 q 0.15022,-0.250366 0.40059,-0.507886 0.25036,-0.264673 0.57226,-0.472119 0.32905,-0.207446 0.70818,-0.336206 0.38628,-0.135913 0.80117,-0.135913 0.50073,0 0.83694,0.15022 0.34336,0.143066 0.55081,0.393432 0.2146,0.250367 0.30759,0.586573 0.093,0.329052 0.093,0.701025 z m 6.12324,-1.144531 q 0,0.08584 -0.0286,0.257519 -0.0215,0.164527 -0.0715,0.336206 -0.0501,0.17168 -0.12161,0.30044 -0.0644,0.121606 -0.15022,0.121606 -0.093,0 -0.22175,-0.06438 -0.12161,-0.07153 -0.30044,-0.150219 -0.17884,-0.08584 -0.42205,-0.15022 -0.23606,-0.06438 -0.55796,-0.06438 -0.25036,0 -0.45066,0.06438 -0.19314,0.06438 -0.3219,0.178833 -0.12876,0.1073 -0.20029,0.257519 -0.0644,0.15022 -0.0644,0.3219 0,0.221753 0.17883,0.371973 0.18599,0.150219 0.45782,0.286132 0.27182,0.12876 0.58657,0.271826 0.31475,0.143067 0.58657,0.357666 0.27183,0.2146 0.45066,0.522193 0.17883,0.307593 0.17883,0.772558 0,0.543653 -0.20744,1.008619 -0.20745,0.457812 -0.60803,0.794018 -0.39344,0.336206 -0.9657,0.529346 -0.56512,0.185986 -1.28045,0.185986 -0.34336,0 -0.6581,-0.05007 -0.3076,-0.05007 -0.55796,-0.121607 -0.24321,-0.07153 -0.41489,-0.164526 -0.17168,-0.09299 -0.25752,-0.17168 -0.0572,-0.05723 -0.0858,-0.121606 -0.0215,-0.06438 -0.0215,-0.164526 0,-0.06438 0.007,-0.164527 0.0143,-0.100146 0.0358,-0.221753 0.0286,-0.121606 0.0572,-0.243213 0.0358,-0.121606 0.0787,-0.221753 0.0429,-0.100146 0.093,-0.157373 0.0501,-0.06438 0.1073,-0.06438 0.10015,0 0.22176,0.08584 0.1216,0.08584 0.31474,0.19314 0.19314,0.100147 0.47212,0.19314 0.28613,0.08584 0.70818,0.08584 0.29329,0 0.50788,-0.06438 0.22176,-0.07153 0.36482,-0.19314 0.14307,-0.121606 0.20745,-0.278979 0.0715,-0.157374 0.0715,-0.336207 0,-0.250366 -0.17883,-0.407739 -0.17168,-0.157373 -0.43635,-0.293286 -0.26467,-0.135913 -0.57942,-0.278979 -0.30759,-0.143067 -0.57227,-0.350513 -0.26467,-0.207446 -0.4435,-0.515039 -0.17168,-0.307593 -0.17168,-0.772559 0,-0.507885 0.19314,-0.944238 0.19314,-0.436352 0.56511,-0.758252 0.37197,-0.329053 0.90132,-0.507886 0.52934,-0.185986 1.20176,-0.185986 0.30044,0 0.57941,0.04292 0.28614,0.03577 0.50789,0.100146 0.22891,0.06438 0.39343,0.143067 0.17168,0.07869 0.24322,0.157373 0.0787,0.07153 0.0787,0.243213 z m 4.15608,-2.424976 q -0.0501,0.264673 -0.13591,0.450659 -0.0858,0.178833 -0.22891,0.293287 -0.14306,0.107299 -0.35051,0.157373 -0.20744,0.04292 -0.51504,0.04292 -0.30044,0 -0.49358,-0.04292 -0.18598,-0.05007 -0.28613,-0.157373 -0.093,-0.114454 -0.1073,-0.293287 -0.0143,-0.185986 0.0429,-0.450659 0.0501,-0.257519 0.13591,-0.436352 0.0858,-0.178833 0.22891,-0.293286 0.14307,-0.114453 0.35051,-0.164527 0.20745,-0.05007 0.51504,-0.05007 0.30044,0 0.48643,0.05007 0.19314,0.05007 0.28613,0.164527 0.10015,0.114453 0.1073,0.293286 0.0143,0.178833 -0.0358,0.436352 z m -1.84555,8.526758 q -0.0143,0.07153 -0.0715,0.12876 -0.0501,0.05007 -0.16452,0.08584 -0.1073,0.03577 -0.28613,0.05007 -0.17884,0.02146 -0.43636,0.02146 -0.26467,0 -0.43635,-0.02146 -0.16453,-0.01431 -0.26467,-0.05007 -0.093,-0.03577 -0.12161,-0.08584 -0.0286,-0.05723 -0.0143,-0.12876 l 1.26614,-6.366455 q 0.0143,-0.07153 0.0644,-0.121606 0.0572,-0.05723 0.16453,-0.09299 0.11445,-0.04292 0.28613,-0.06438 0.17883,-0.02146 0.44351,-0.02146 0.26467,0 0.4292,0.02146 0.17168,0.02146 0.26467,0.06438 0.10015,0.03577 0.12876,0.09299 0.0286,0.05007 0.0143,0.121606 z m 8.8415,-4.234766 q 0,0.515039 -0.10015,1.058692 -0.093,0.543652 -0.30044,1.065844 -0.20744,0.515039 -0.5365,0.972852 -0.3219,0.450659 -0.77971,0.801172 -0.45066,0.343359 -1.03723,0.543652 -0.58657,0.200293 -1.32336,0.200293 -0.72249,0 -1.25183,-0.164526 -0.5222,-0.17168 -0.87271,-0.493579 -0.35051,-0.329053 -0.52219,-0.801172 -0.17168,-0.479273 -0.17168,-1.094458 0,-0.515039 0.093,-1.058692 0.10015,-0.543652 0.30759,-1.058691 0.20745,-0.515039 0.52935,-0.972851 0.32905,-0.464966 0.77971,-0.808326 0.45781,-0.343359 1.04439,-0.543652 0.58657,-0.200293 1.32336,-0.200293 0.72249,0 1.24468,0.17168 0.52934,0.164526 0.87986,0.493579 0.35051,0.321899 0.52219,0.801172 0.17168,0.472119 0.17168,1.087304 z m -1.85986,0.121607 q 0,-0.30044 -0.0644,-0.529346 -0.0572,-0.236059 -0.2003,-0.393432 -0.13591,-0.164527 -0.35766,-0.250367 -0.2146,-0.08584 -0.52935,-0.08584 -0.35766,0 -0.6438,0.143067 -0.28613,0.135913 -0.51504,0.371973 -0.22175,0.236059 -0.38628,0.550805 -0.16452,0.307593 -0.27182,0.650952 -0.1073,0.34336 -0.15738,0.701026 -0.0501,0.350512 -0.0501,0.672412 0,0.300439 0.0572,0.536499 0.0644,0.236059 0.20029,0.400586 0.14307,0.157373 0.35767,0.243213 0.22175,0.08584 0.5365,0.08584 0.35766,0 0.64379,-0.135913 0.28614,-0.143066 0.50789,-0.379126 0.22891,-0.243213 0.39343,-0.550805 0.16453,-0.314746 0.27183,-0.658106 0.1073,-0.350512 0.15737,-0.701025 0.0501,-0.350513 0.0501,-0.672412 z m 9.40661,-0.844092 q 0,0.250366 -0.0358,0.500732 -0.0286,0.250367 -0.0787,0.515039 l -0.79402,3.94148 q -0.0143,0.07153 -0.0715,0.12876 -0.0501,0.05007 -0.16453,0.08584 -0.1073,0.03577 -0.28613,0.05007 -0.17168,0.02146 -0.43635,0.02146 -0.26468,0 -0.43636,-0.02146 -0.16452,-0.01431 -0.25752,-0.05007 -0.093,-0.03577 -0.12876,-0.08584 -0.0286,-0.05723 -0.0143,-0.12876 l 0.77256,-3.827026 q 0.0358,-0.17168 0.0501,-0.350513 0.0215,-0.178833 0.0215,-0.314746 0,-0.3219 -0.13591,-0.529346 -0.13592,-0.207446 -0.45782,-0.207446 -0.29328,0 -0.61518,0.185986 -0.31475,0.185987 -0.60088,0.507886 -0.27898,0.314746 -0.50073,0.743945 -0.22176,0.422046 -0.31475,0.901319 l -0.57942,2.889941 q -0.0143,0.07153 -0.0715,0.12876 -0.0501,0.05007 -0.16453,0.08584 -0.1073,0.03577 -0.28613,0.05007 -0.17883,0.02146 -0.43635,0.02146 -0.26468,0 -0.43636,-0.02146 -0.16452,-0.01431 -0.26467,-0.05007 -0.093,-0.03577 -0.12161,-0.08584 -0.0286,-0.05723 -0.0143,-0.12876 l 1.28044,-6.387915 q 0.0143,-0.07153 0.0572,-0.121606 0.0501,-0.05723 0.14307,-0.08584 0.10014,-0.03577 0.25036,-0.05007 0.15737,-0.02146 0.37197,-0.02146 0.22176,0 0.35767,0.02146 0.14307,0.01431 0.22175,0.05007 0.0787,0.02861 0.10015,0.08584 0.0286,0.05007 0.0143,0.121606 l -0.20745,1.051538 q 0.15022,-0.250366 0.40059,-0.507886 0.25036,-0.264673 0.57226,-0.472119 0.32905,-0.207446 0.70818,-0.336206 0.38628,-0.135913 0.80117,-0.135913 0.50073,0 0.83694,0.15022 0.34336,0.143066 0.55081,0.393432 0.2146,0.250367 0.30759,0.586573 0.093,0.329052 0.093,0.701025 z"
       id="text1031"
       aria-label="Extension" /><path
       d="m 495.47375,19.242678 -1.20632,-8.103135 h 1.06105 l 0.98526,6.732612 h 0.019 l 1.16842,-5.021038 h 1.2 l 1.14947,4.945249 h 0.0126 l 1.0421,-6.656823 h 0.94737 l -1.33263,8.103135 h -1.35158 l -1.11789,-4.755776 h -0.0126 l -1.12421,4.755776 z m 13.51575,-7.932609 v 1.143154 q -1.25053,-0.574735 -2.33684,-0.574735 -1.25684,0 -2.07157,0.922103 -0.80842,0.922102 -0.80842,2.349467 0,1.43368 0.91579,2.355783 0.91578,0.915786 2.33683,0.915786 0.32211,0 0.82105,-0.07579 v -2.141046 h -1.5221 v -0.934735 h 2.76631 v 3.7642 q -1.26947,0.40421 -2.40631,0.40421 -1.8821,0 -3.06315,-1.168418 -1.17473,-1.168418 -1.17473,-3.037886 0,-1.913679 1.17473,-3.101044 1.17474,-1.187365 3.06947,-1.187365 1.07368,0 2.29894,0.366315 z m 2.2042,7.932609 v -8.103135 h 2.63368 q 1.40842,0 2.00841,0.252631 1.22526,0.530525 1.22526,2.04631 0,1.275786 -0.99157,2.002099 -0.98526,0.726314 -2.7221,0.726314 h -0.90947 v 3.075781 z m 1.24421,-4.010515 h 0.77684 q 2.52631,0 2.52631,-1.768416 0,-0.745261 -0.48,-1.067366 -0.47368,-0.322104 -1.58526,-0.322104 h -1.23789 z m 6.07577,-4.09262 h 1.24421 v 4.919986 q 0,1.288417 0.40421,1.869468 0.41052,0.574735 1.31999,0.574735 0.96,0 1.38316,-0.574735 0.42315,-0.581051 0.42315,-1.901047 v -4.888407 h 1.08632 v 4.70525 q 0,1.522101 -0.36,2.185257 -0.76421,1.408417 -2.52,1.408417 -1.5221,0 -2.25473,-0.833682 -0.72631,-0.833682 -0.72631,-2.564203 z m 14.12207,7.850504 q -1.25053,0.44842 -2.35579,0.44842 -1.93262,0 -3.11367,-1.155787 -1.18105,-1.162102 -1.18105,-3.050517 0,-1.913679 1.17473,-3.101044 1.17474,-1.187365 3.06947,-1.187365 1.07368,0 2.29894,0.366315 v 1.143154 q -1.25052,-0.574735 -2.33684,-0.574735 -1.25684,0 -2.07157,0.922103 -0.80842,0.922102 -0.80842,2.349467 0,1.439996 0.91579,2.355783 0.91578,0.915786 2.35578,0.915786 0.87158,0 2.05263,-0.454735 z m 1.64841,0.252631 V 9.2700745 h 1.24421 v 3.1136755 1.288417 q 0.85895,-1.439996 2.33684,-1.439996 1.95157,0 1.95157,2.317888 v 4.692619 h -1.24421 v -4.351567 q 0,-0.802103 -0.25263,-1.136839 -0.24631,-0.341051 -0.83368,-0.341051 -0.93473,0 -1.95789,1.345259 v 4.484198 z m 11.91786,-0.827366 q -1.13052,0.947365 -2.25473,0.947365 -0.94105,0 -1.55368,-0.53684 -0.60631,-0.536841 -0.60631,-1.357891 0,-1.067365 0.94736,-1.71789 0.94737,-0.650524 2.50105,-0.650524 h 0.77052 v -0.587367 q 0,-0.726314 -0.3221,-1.035787 -0.32211,-0.309472 -1.06737,-0.309472 -1.07999,0 -2.23578,0.606314 v -1.067366 q 1.32631,-0.473683 2.48841,-0.473683 1.30737,0 1.84421,0.517894 0.54316,0.517893 0.54316,1.787363 v 2.873676 q 0,0.618946 0.13263,0.846313 0.13263,0.221052 0.49894,0.221052 0.12,0 0.39158,-0.06316 l 0.11368,0.745261 q -0.62526,0.202104 -0.94736,0.202104 -0.9221,0 -1.24421,-0.947365 z m -0.19579,-0.808419 v -1.730522 h -0.37263 q -2.55789,0 -2.55789,1.383154 0,0.498946 0.32842,0.802103 0.32842,0.303157 0.87158,0.303157 0.81474,0 1.73052,-0.757892 z m 6.30314,1.635785 v -5.924194 h -2.49473 V 12.38375 h 3.73894 v 6.858928 z M 552.15148,10.83007 V 9.2700745 h 1.55999 V 10.83007 Z m 5.51367,8.412608 V 12.38375 h 1.24421 v 1.288417 q 0.85894,-1.439996 2.33683,-1.439996 1.95157,0 1.95157,2.317888 v 4.692619 h -1.2442 v -4.351567 q 0,-0.802103 -0.25263,-1.136839 -0.24632,-0.341051 -0.83369,-0.341051 -0.93473,0 -1.95788,1.345259 v 4.484198 z M 571.24406,18.9711 q -1.29473,0.429472 -2.37473,0.429472 -1.76842,0 -2.7221,-0.909471 -0.94736,-0.909471 -0.94736,-2.602098 0,-1.59789 0.90947,-2.627361 0.91578,-1.029471 2.3242,-1.029471 1.42105,0 2.09052,0.852629 0.67579,0.85263 0.67579,2.652625 v 0.397893 h -4.67367 q 0.13894,2.33052 2.51367,2.33052 1.00421,0 2.20421,-0.479999 z m -4.67999,-3.770516 h 3.30947 v -0.176842 q 0,-1.856836 -1.54737,-1.856836 -0.74526,0 -1.21263,0.53684 -0.46105,0.536841 -0.54947,1.496838 z m 11.09681,4.042094 V 17.95426 q -0.90947,1.446312 -2.24841,1.446312 -1.1621,0 -1.83789,-0.903155 -0.66947,-0.903156 -0.66947,-2.456835 0,-1.705259 0.79578,-2.753677 0.79579,-1.054734 2.08421,-1.054734 1.10526,0 1.87578,0.934735 V 9.2700745 h 1.24421 v 9.9726035 z m 0,-5.141038 q -0.87157,-0.934734 -1.70525,-0.934734 -0.82106,0 -1.27579,0.719997 -0.44842,0.719998 -0.44842,2.027363 0,2.418941 1.44631,2.418941 1.05473,0 1.98315,-1.313681 z m 8.61472,-2.772624 v 1.079997 q -1.37053,-0.530525 -2.43789,-0.530525 -1.68631,0 -1.68631,1.136839 0,0.461051 0.31579,0.745261 0.31579,0.277894 1.16841,0.574735 l 0.79579,0.277894 0.75789,0.258947 q 1.7621,0.618945 1.7621,2.096836 0,1.124207 -0.90315,1.799995 -0.89684,0.669472 -2.40631,0.669472 -1.04842,0 -2.70947,-0.44842 v -1.231576 q 1.65474,0.745261 2.74736,0.745261 0.92211,0 1.47158,-0.359999 0.54947,-0.366314 0.54947,-0.978944 0,-0.467367 -0.32842,-0.738945 -0.3221,-0.271579 -1.33894,-0.644209 l -0.83368,-0.303157 q -1.24421,-0.461051 -1.73053,-0.947366 -0.47999,-0.486314 -0.47999,-1.294733 0,-1.092628 0.73894,-1.692627 0.74526,-0.599998 2.09052,-0.599998 1.09263,0 2.45684,0.385262 z m 8.3747,7.907346 q -0.93473,0.16421 -1.80631,0.16421 -1.5221,0 -2.07157,-0.543156 -0.54947,-0.549472 -0.54947,-2.071573 v -3.309465 h -1.71158 v -0.934734 h 1.71158 v -1.47789 h 1.25052 v 1.47789 h 3.03789 v 0.934734 h -3.03789 v 3.511569 q 0,0.587367 0.0695,0.808419 0.0758,0.221052 0.31579,0.385262 0.42947,0.28421 1.25052,0.28421 0.77684,0 1.54105,-0.176842 z m 2.77894,0.0063 V 12.38375 h 1.24421 v 1.288417 q 0.94737,-1.439996 2.54526,-1.439996 0.5621,0 1.27578,0.157895 v 1.945257 h -0.93473 v -0.953681 q -0.2779,-0.06316 -0.50526,-0.06316 -0.71369,0 -1.25684,0.334736 -0.53684,0.32842 -1.12421,1.124207 v 4.465251 z m 12.4926,-6.858928 v 6.858928 h -1.24421 V 17.95426 q -0.85894,1.446312 -2.34315,1.446312 -1.94526,0 -1.94526,-2.324204 V 12.38375 h 1.24421 v 4.351566 q 0,0.808419 0.24632,1.149471 0.24631,0.334736 0.83999,0.334736 0.93474,0 1.95789,-1.351575 V 12.38375 Z m 8.11577,6.637876 q -1.10526,0.378946 -2.20421,0.378946 -1.79368,0 -2.7663,-0.934734 -0.96632,-0.934734 -0.96632,-2.652624 0,-1.686311 0.95368,-2.633677 0.96,-0.947366 2.66526,-0.947366 1.08631,0 2.19157,0.32842 v 1.042103 q -1.21894,-0.435788 -2.07789,-0.435788 -1.1242,0 -1.76841,0.707366 -0.6379,0.707366 -0.6379,1.938942 0,1.244207 0.68211,1.951573 0.68842,0.701051 1.89473,0.701051 0.90315,0 2.03368,-0.423157 z m 7.78735,0.214736 q -0.93474,0.16421 -1.80632,0.16421 -1.5221,0 -2.07157,-0.543156 -0.54947,-0.549472 -0.54947,-2.071573 v -3.309465 h -1.71157 v -0.934734 h 1.71157 v -1.47789 h 1.25052 v 1.47789 h 3.03789 v 0.934734 h -3.03789 v 3.511569 q 0,0.587367 0.0695,0.808419 0.0758,0.221052 0.31578,0.385262 0.42948,0.28421 1.25053,0.28421 0.77684,0 1.54105,-0.176842 z"
       id="text1032"
       style="font-size:12.9347px;line-height:1.25;font-family:'Lucida Console';-inkscape-font-specification:'Lucida Console';letter-spacing:0px;word-spacing:0px;fill:#0097a7;stroke-width:0.323367"
       aria-label="WGPUChainedStruct" /><path
       style="opacity:1;fill:#0097a7;fill-opacity:1;stroke:#000000;stroke-width:1.5;stroke-linecap:round;stroke-linejoin:round;stroke-dasharray:none;stroke-opacity:1;marker-end:url(#ArrowWideRounded)"
       d="M 13.886787,3.1744322 H 121.01866"
       id="path1032" /><path
       id="rect1033"
       style="opacity:1;fill:#e2e2e2;stroke-width:1.81497;stroke-linecap:round;stroke-linejoin:round"
       d="M 121.01866,69.819252 H 259.61159 V 93.507336 H 121.01866 Z" /><path
       d="m 131.43169,87.126915 v -2.054208 h 2.05421 v 2.054208 z m 8.56383,0 v -2.054208 h 2.05421 v 2.054208 z m 8.56382,0 v -2.054208 h 2.05421 v 2.054208 z"
       id="text1033"
       style="font-size:14.2129px;line-height:1.25;font-family:'Lucida Console';-inkscape-font-specification:'Lucida Console';letter-spacing:0px;word-spacing:0px;stroke-width:0.355321"
       aria-label="..." /><path
       id="rect1034"
       style="opacity:1;fill:#0097a7;stroke-width:0.363962;stroke-linecap:round;stroke-linejoin:round"
       transform="scale(-1,1)"
       d="m -262.25992,-8.66961 h 2.64832 v 49.85104 h -2.64832 z" /><path
       id="rect1035"
       style="opacity:1;fill:#cdcdcd;stroke-width:1.43293;stroke-linecap:round;stroke-linejoin:round"
       d="M 347.99994,-15.869351 H 486.59286 V 101.37003 H 347.99994 Z" /><path
       id="rect1036"
       style="opacity:1;fill:#e2e2e2;stroke-width:1.81497;stroke-linecap:round;stroke-linejoin:round"
       d="M 347.99994,-8.66961 H 486.59286 V 15.018474 H 347.99994 Z" /><path
       d="M 356.35876,8.5496807 V 1.0129573 h 1.36716 v 1.4157381 q 0.94383,-1.58229554 2.56776,-1.58229554 2.14443,0 2.14443,2.54694064 v 5.1563402 h -1.36716 v -4.781586 q 0,-0.8813664 -0.2776,-1.2491807 -0.27065,-0.3747542 -0.91606,-0.3747542 -1.0271,0 -2.15137,1.4781971 v 4.9273238 z m 14.92077,-0.2984154 q -1.42268,0.4719127 -2.6094,0.4719127 -1.94317,0 -2.99109,-0.9993445 -1.04098,-0.9993446 -1.04098,-2.8592358 0,-1.7557928 0.99934,-2.8869953 1.00628,-1.13120254 2.55388,-1.13120254 1.56148,0 2.29711,0.93688554 0.74256,0.9368855 0.74256,2.9147549 v 0.4372132 h -5.13552 q 0.15268,2.5608204 2.76208,2.5608204 1.10344,0 2.42202,-0.5274318 z m -5.14246,-4.1431159 h 3.63651 v -0.194317 q 0,-2.0403284 -1.70028,-2.0403284 -0.8189,0 -1.33246,0.5898908 -0.50661,0.5898909 -0.60377,1.6447546 z m 6.7317,4.4415313 2.80371,-3.8100011 -2.78983,-3.7267223 h 1.71415 l 2.08197,2.7828969 1.90847,-2.7828969 h 1.35328 l -2.56082,3.7197824 2.85229,3.816941 h -1.70721 l -2.15831,-2.8800554 -2.11666,2.8800554 z m 15.56618,-0.00694 q -1.02711,0.1804372 -1.98481,0.1804372 -1.67252,0 -2.27629,-0.5968307 -0.60377,-0.6037707 -0.60377,-2.2762848 V 2.2135587 h -1.88071 V 1.1864546 h 1.88071 v -1.62393488 h 1.3741 V 1.1864546 h 3.33809 v 1.0271041 h -3.33809 V 6.072139 q 0,0.64541 0.0763,0.8883063 0.0833,0.2428962 0.34699,0.4233334 0.47192,0.3122952 1.3741,0.3122952 0.85361,0 1.69334,-0.194317 z"
       id="text1036"
       style="font-size:14.2129px;line-height:1.25;font-family:'Lucida Console';-inkscape-font-specification:'Lucida Console';letter-spacing:0px;word-spacing:0px;stroke-width:0.355321"
       aria-label="next" /><g
       id="g1037"
       transform="translate(381.9201,-59.398064)"><path
         id="rect1037"
         style="opacity:1;fill:#ffffff;stroke:#000000;stroke-width:1.5;stroke-linecap:round;stroke-linejoin:round"
         d="M 76.560066,53.203331 H 95.298395 V 71.94166 H 76.560066 Z" /><path
         id="circle1037"
         style="opacity:1;stroke-width:1.5122;stroke-linecap:round;stroke-linejoin:round"
         d="m 89.17923,62.572495 a 3.25,3.25 0 0 1 -3.25,3.25 3.25,3.25 0 0 1 -3.25,-3.25 3.25,3.25 0 0 1 3.25,-3.25 3.25,3.25 0 0 1 3.25,3.25 z" /></g><path
       id="rect1038"
       style="opacity:1;fill:#e2e2e2;stroke-width:1.81497;stroke-linecap:round;stroke-linejoin:round"
       d="M 347.99994,17.493338 H 486.59286 V 41.181421 H 347.99994 Z" /><path
       d="m 356.4559,34.495662 v -1.2353 q 1.58924,0.687049 2.7482,0.687049 0.83279,0 1.3741,-0.333115 0.54825,-0.340055 0.54825,-0.853607 0,-0.659289 -1.29776,-1.075683 l -1.46432,-0.478853 q -1.71415,-0.555191 -1.71415,-1.957049 0,-1.027104 0.77033,-1.589236 0.77727,-0.562131 2.193,-0.562131 1.06181,0 2.46367,0.326175 v 1.110383 q -1.35328,-0.409454 -2.47061,-0.409454 -0.74951,0 -1.2006,0.270656 -0.44415,0.270656 -0.44415,0.728689 0,0.562131 1.02016,0.916065 l 1.72804,0.603771 q 0.94382,0.333115 1.35328,0.798088 0.41639,0.458033 0.41639,1.193661 0,1.068744 -0.88137,1.707214 -0.88136,0.63153 -2.3665,0.63153 -1.29776,0 -2.77596,-0.478853 z m 10.86093,0.305356 V 26.92424 h -3.42136 v -1.027105 h 8.21683 v 1.027105 h -3.42137 v 7.876778 z m 5.95443,2.741257 v -1.027104 h 0.55519 q 0.77727,0 1.13121,-0.249836 0.35393,-0.249836 0.74256,-1.075683 l 0.34006,-0.721749 -3.16459,-7.203609 h 1.41574 l 2.46366,5.642133 2.48448,-5.642133 h 1.22836 l -3.79612,8.501369 q -0.44415,0.992404 -1.0618,1.381038 -0.61765,0.395574 -1.7558,0.395574 z m 8.82061,0 V 27.264294 h 1.36715 v 1.415738 q 0.99241,-1.582295 2.46367,-1.582295 1.28388,0 2.0195,0.992405 0.74257,0.985464 0.74257,2.692678 0,1.873771 -0.87442,3.032733 -0.87443,1.158962 -2.29017,1.158962 -1.21448,0 -2.06115,-1.027104 v 3.594864 z m 1.36715,-4.621968 q 0.95077,1.027104 1.87378,1.027104 0.90218,0 1.39491,-0.791148 0.49968,-0.798087 0.49968,-2.227705 0,-2.664919 -1.58924,-2.664919 -1.15896,0 -2.17913,1.443498 z m 13.57443,1.582295 q -1.42267,0.471913 -2.6094,0.471913 -1.94317,0 -2.99109,-0.999344 -1.04098,-0.999345 -1.04098,-2.859236 0,-1.755793 0.99934,-2.886996 1.00629,-1.131202 2.55388,-1.131202 1.56148,0 2.29711,0.936885 0.74257,0.936886 0.74257,2.914755 v 0.437214 h -5.13553 q 0.15268,2.56082 2.76208,2.56082 1.10344,0 2.42202,-0.527432 z m -5.14246,-4.143116 h 3.63651 v -0.194317 q 0,-2.040328 -1.70028,-2.040328 -0.8189,0 -1.33246,0.589891 -0.50661,0.589891 -0.60377,1.644754 z"
       id="text1038"
       style="font-size:14.2129px;line-height:1.25;font-family:'Lucida Console';-inkscape-font-specification:'Lucida Console';letter-spacing:0px;word-spacing:0px;stroke-width:0.355321"
       aria-label="sType" /><path
       id="rect1039"
       style="opacity:1;fill:#e2e2e2;stroke-width:1.81497;stroke-linecap:round;stroke-linejoin:round"
       d="M 347.99994,43.656296 H 486.59286 V 67.344379 H 347.99994 Z" /><path
       d="M 356.4559,60.658611 V 59.42331 q 1.58924,0.68705 2.7482,0.68705 0.83279,0 1.3741,-0.333115 0.54825,-0.340055 0.54825,-0.853607 0,-0.65929 -1.29776,-1.075683 l -1.46432,-0.478853 q -1.71415,-0.555191 -1.71415,-1.95705 0,-1.027104 0.77033,-1.589235 0.77727,-0.562131 2.193,-0.562131 1.06181,0 2.46367,0.326174 v 1.110383 q -1.35328,-0.409453 -2.47061,-0.409453 -0.74951,0 -1.2006,0.270655 -0.44415,0.270656 -0.44415,0.728689 0,0.562131 1.02016,0.916066 l 1.72804,0.603771 q 0.94382,0.333115 1.35328,0.798087 0.41639,0.458033 0.41639,1.193662 0,1.068743 -0.88137,1.707213 -0.88136,0.631531 -2.3665,0.631531 -1.29776,0 -2.77596,-0.478853 z m 11.54798,0.478853 q -1.65863,0 -2.6094,-1.047924 -0.94382,-1.054864 -0.94382,-2.893935 0,-1.832132 0.95076,-2.880056 0.95077,-1.054863 2.60246,-1.054863 1.65864,0 2.60246,1.054863 0.95077,1.047924 0.95077,2.880056 0,1.839071 -0.95077,2.893935 -0.94382,1.047924 -2.60246,1.047924 z m 0,-1.027104 q 0.98547,0 1.54066,-0.770329 0.55519,-0.770328 0.55519,-2.144426 0,-1.367159 -0.55519,-2.137487 -0.55519,-0.770328 -1.54066,-0.770328 -0.98546,0 -1.54065,0.770328 -0.55519,0.770328 -0.55519,2.137487 0,1.374098 0.55519,2.144426 0.55519,0.770329 1.54065,0.770329 z m 4.92733,0.853606 v -7.536723 h 1.2006 v 1.415738 q 0.88136,-1.582295 1.67945,-1.582295 1.02017,0 1.31164,1.582295 h 0.0486 q 0.72175,-1.582295 1.69334,-1.582295 0.70786,0 1.0271,0.520491 0.31923,0.513553 0.31923,1.665575 v 5.517214 h -1.2006 v -5.461695 q 0,-0.617651 -0.0902,-0.839727 -0.0902,-0.222077 -0.34005,-0.222077 -0.65235,0 -1.4088,1.658635 v 4.864864 h -1.2006 v -5.211859 q 0,-0.777268 -0.0902,-1.034044 -0.0902,-0.263716 -0.36087,-0.263716 -0.29148,0 -0.69399,0.478853 -0.39558,0.471912 -0.69399,1.179781 v 4.850985 z m 15.53842,-0.298415 q -1.42268,0.471913 -2.6094,0.471913 -1.94317,0 -2.9911,-0.999345 -1.04098,-0.999344 -1.04098,-2.859236 0,-1.755792 0.99934,-2.886995 1.00629,-1.131202 2.55388,-1.131202 1.56148,0 2.29711,0.936885 0.74257,0.936886 0.74257,2.914755 v 0.437213 h -5.13552 q 0.15267,2.560821 2.76207,2.560821 1.10345,0 2.42203,-0.527432 z m -5.14246,-4.143116 h 3.6365 v -0.194317 q 0,-2.040328 -1.70027,-2.040328 -0.81891,0 -1.33246,0.589891 -0.50662,0.58989 -0.60377,1.644754 z m 13.73404,4.434591 q -1.0271,0.180438 -1.98481,0.180438 -1.67251,0 -2.27628,-0.596831 -0.60377,-0.603771 -0.60377,-2.276285 v -3.636504 h -1.88071 V 53.60074 h 1.88071 v -1.623935 h 1.3741 v 1.623935 h 3.33809 v 1.027104 h -3.33809 v 3.858581 q 0,0.64541 0.0763,0.888306 0.0833,0.242896 0.34699,0.423333 0.47191,0.312296 1.3741,0.312296 0.85361,0 1.69333,-0.194317 z m 2.17913,0.0069 v -10.95809 h 1.36716 v 3.421367 1.415738 q 0.94382,-1.582295 2.56776,-1.582295 2.14443,0 2.14443,2.54694 v 5.15634 h -1.36716 V 56.18238 q 0,-0.881366 -0.2776,-1.24918 -0.27065,-0.374755 -0.91606,-0.374755 -1.02711,0 -2.15137,1.478198 v 4.927323 z m 11.24263,0 v -6.509619 h -2.74126 v -1.027104 h 4.10842 v 7.536723 z m -0.1735,-9.243937 v -1.714153 h 1.71415 v 1.714153 z m 6.05853,9.243937 v -7.536723 h 1.36715 v 1.415738 q 0.94383,-1.582295 2.56776,-1.582295 2.14443,0 2.14443,2.54694 v 5.15634 h -1.36716 V 56.18238 q 0,-0.881366 -0.27759,-1.24918 -0.27066,-0.374755 -0.91607,-0.374755 -1.0271,0 -2.15137,1.478198 v 4.927323 z m 8.77202,2.519181 0.14574,-1.152022 q 1.22836,0.520492 2.28322,0.520492 2.19301,0 2.19301,-2.088908 l 0.0625,-1.360218 q -0.86055,1.561475 -2.49142,1.561475 -1.29082,0 -2.05421,-0.978524 -0.75645,-0.985465 -0.75645,-2.651039 0,-1.811312 0.88137,-2.942515 0.88136,-1.138142 2.29016,-1.138142 1.10344,0 2.17219,1.034044 v -0.860547 h 1.28388 v 6.030767 q 0,1.464317 -0.19432,2.199946 -0.19432,0.742568 -0.72869,1.311639 -0.85361,0.909126 -2.67186,0.909126 -1.06874,0 -2.41508,-0.395574 z m 4.64279,-5.191039 v -2.963334 q -0.92301,-1.040984 -1.90847,-1.040984 -0.89525,0 -1.39492,0.777268 -0.49967,0.777268 -0.49967,2.179126 0,1.186722 0.43721,1.859891 0.43721,0.66623 1.22142,0.66623 1.21448,0 2.14443,-1.478197 z"
       id="text1039"
       style="font-size:14.2129px;line-height:1.25;font-family:'Lucida Console';-inkscape-font-specification:'Lucida Console';letter-spacing:0px;word-spacing:0px;stroke-width:0.355321"
       aria-label="something" /><path
       style="font-style:italic;font-weight:bold;font-size:14.65px;line-height:1.25;font-family:Calibri;-inkscape-font-specification:'Calibri Italic';letter-spacing:0px;word-spacing:0px;fill:#0097a7;stroke-width:1.22941"
       d="m 356.48423,-21.478133 q 0.0358,0.25752 0.0286,0.40774 0,0.150219 -0.10015,0.228906 -0.093,0.07153 -0.31474,0.08584 -0.22176,0.02146 -0.60804,0.02146 -0.27182,0 -0.4435,-0.01431 -0.17168,-0.0072 -0.26468,-0.03577 -0.093,-0.02861 -0.12876,-0.08584 -0.0358,-0.05723 -0.0429,-0.157373 l -0.25036,-1.859864 h -3.47652 l -0.95854,1.816944 q -0.0501,0.100146 -0.11445,0.171679 -0.0644,0.06438 -0.18599,0.100147 -0.12161,0.03577 -0.32905,0.05007 -0.2003,0.01431 -0.50789,0.01431 -0.32905,0 -0.50788,-0.02146 -0.18599,-0.02146 -0.24322,-0.100147 -0.0644,-0.08584 -0.0143,-0.236059 0.0429,-0.15022 0.17883,-0.400586 l 4.49228,-8.212012 q 0.0715,-0.121606 0.14307,-0.193139 0.0715,-0.07869 0.20029,-0.114454 0.13592,-0.04292 0.35767,-0.05007 0.22891,-0.01431 0.59373,-0.01431 0.42204,0 0.66525,0.01431 0.25037,0.0072 0.38628,0.05007 0.13592,0.03577 0.17884,0.114454 0.0429,0.07869 0.0572,0.214599 z m -2.81125,-6.7885 h -0.007 l -2.06731,3.934326 h 2.60381 z m 10.78005,2.289062 q 0,0.250366 -0.0358,0.500732 -0.0286,0.250367 -0.0787,0.515039 l -0.79402,3.94148 q -0.0143,0.07153 -0.0715,0.12876 -0.0501,0.05007 -0.16453,0.08584 -0.1073,0.03577 -0.28613,0.05007 -0.17168,0.02146 -0.43635,0.02146 -0.26468,0 -0.43636,-0.02146 -0.16452,-0.01431 -0.25752,-0.05007 -0.093,-0.03577 -0.12875,-0.08584 -0.0286,-0.05723 -0.0143,-0.12876 l 0.77256,-3.827026 q 0.0358,-0.17168 0.0501,-0.350513 0.0215,-0.178833 0.0215,-0.314746 0,-0.3219 -0.13591,-0.529346 -0.13592,-0.207446 -0.45782,-0.207446 -0.29328,0 -0.61518,0.185986 -0.31475,0.185987 -0.60088,0.507886 -0.27898,0.314746 -0.50073,0.743945 -0.22176,0.422046 -0.31475,0.901319 l -0.57942,2.889941 q -0.0143,0.07153 -0.0715,0.12876 -0.0501,0.05007 -0.16453,0.08584 -0.1073,0.03577 -0.28613,0.05007 -0.17883,0.02146 -0.43635,0.02146 -0.26467,0 -0.43635,-0.02146 -0.16453,-0.01431 -0.26468,-0.05007 -0.093,-0.03577 -0.1216,-0.08584 -0.0286,-0.05723 -0.0143,-0.12876 l 1.28044,-6.387915 q 0.0143,-0.07153 0.0572,-0.121606 0.0501,-0.05723 0.14307,-0.08584 0.10014,-0.03577 0.25036,-0.05007 0.15738,-0.02146 0.37198,-0.02146 0.22175,0 0.35766,0.02146 0.14307,0.01431 0.22175,0.05007 0.0787,0.02861 0.10015,0.08584 0.0286,0.05007 0.0143,0.121606 l -0.20745,1.051538 q 0.15022,-0.250366 0.40059,-0.507886 0.25036,-0.264673 0.57226,-0.472119 0.32906,-0.207446 0.70818,-0.336206 0.38628,-0.135913 0.80117,-0.135913 0.50074,0 0.83694,0.15022 0.34336,0.143066 0.55081,0.393432 0.2146,0.250367 0.30759,0.586573 0.093,0.329052 0.093,0.701025 z m 7.90442,0.722485 q 0,0.515039 -0.10015,1.058692 -0.093,0.543652 -0.30043,1.065844 -0.20745,0.515039 -0.5365,0.972852 -0.3219,0.450659 -0.77972,0.801172 -0.45065,0.343359 -1.03723,0.543652 -0.58657,0.200293 -1.32336,0.200293 -0.72249,0 -1.25183,-0.164526 -0.52219,-0.17168 -0.87271,-0.493579 -0.35051,-0.329053 -0.52219,-0.801172 -0.17168,-0.479273 -0.17168,-1.094458 0,-0.515039 0.093,-1.058692 0.10015,-0.543652 0.3076,-1.058691 0.20744,-0.515039 0.52934,-0.972851 0.32906,-0.464966 0.77971,-0.808326 0.45782,-0.343359 1.04439,-0.543652 0.58657,-0.200293 1.32336,-0.200293 0.72249,0 1.24468,0.17168 0.52935,0.164526 0.87986,0.493579 0.35051,0.321899 0.52219,0.801172 0.17168,0.472119 0.17168,1.087304 z m -1.85986,0.121607 q 0,-0.30044 -0.0644,-0.529346 -0.0572,-0.236059 -0.20029,-0.393432 -0.13592,-0.164527 -0.35767,-0.250367 -0.2146,-0.08584 -0.52935,-0.08584 -0.35766,0 -0.6438,0.143067 -0.28613,0.135913 -0.51503,0.371973 -0.22176,0.236059 -0.38628,0.550805 -0.16453,0.307593 -0.27183,0.650952 -0.1073,0.34336 -0.15737,0.701026 -0.0501,0.350512 -0.0501,0.672412 0,0.300439 0.0572,0.536499 0.0644,0.236059 0.20029,0.400586 0.14307,0.157373 0.35767,0.243213 0.22175,0.08584 0.5365,0.08584 0.35766,0 0.6438,-0.135913 0.28613,-0.143066 0.50788,-0.379126 0.22891,-0.243213 0.39344,-0.550805 0.16452,-0.314746 0.27182,-0.658106 0.1073,-0.350512 0.15737,-0.701025 0.0501,-0.350513 0.0501,-0.672412 z m 7.56106,-2.203223 q 0,0.07153 -0.0143,0.185987 -0.0143,0.107299 -0.0429,0.236059 -0.0215,0.12876 -0.0644,0.25752 -0.0429,0.128759 -0.10015,0.236059 -0.0501,0.100147 -0.1216,0.17168 -0.0644,0.06438 -0.14307,0.06438 h -1.3949 l -0.60087,2.997241 q -0.0215,0.1073 -0.0429,0.257519 -0.0143,0.143067 -0.0143,0.23606 0,0.286133 0.13591,0.422046 0.13592,0.12876 0.4292,0.12876 0.17168,0 0.29329,-0.02146 0.1216,-0.02861 0.20744,-0.05723 0.093,-0.03577 0.15738,-0.05723 0.0644,-0.02861 0.1216,-0.02861 0.0572,0 0.093,0.05723 0.0429,0.05007 0.0429,0.171679 0,0.135914 -0.0286,0.307593 -0.0286,0.17168 -0.0787,0.336206 -0.0429,0.157373 -0.10015,0.293286 -0.0572,0.12876 -0.12161,0.19314 -0.0644,0.06438 -0.19314,0.121607 -0.12876,0.05723 -0.30759,0.100146 -0.17168,0.04292 -0.37197,0.06438 -0.20029,0.02861 -0.40059,0.02861 -0.4292,0 -0.75825,-0.09299 -0.3219,-0.08584 -0.54365,-0.278979 -0.22175,-0.19314 -0.33621,-0.49358 -0.1073,-0.300439 -0.1073,-0.729638 0,-0.07869 0.007,-0.178833 0.007,-0.1073 0.0215,-0.221753 0.0215,-0.114453 0.0358,-0.228906 0.0215,-0.121607 0.0429,-0.2146 l 0.62234,-3.111694 h -0.77256 q -0.093,0 -0.13591,-0.05723 -0.0429,-0.06438 -0.0429,-0.236059 0,-0.121607 0.0215,-0.314746 0.0286,-0.200293 0.0858,-0.38628 0.0572,-0.193139 0.15022,-0.329052 0.093,-0.135914 0.22175,-0.135914 h 0.76541 l 0.28613,-1.42351 q 0.0143,-0.07153 0.0644,-0.12876 0.0572,-0.05723 0.16453,-0.09299 0.11445,-0.04292 0.28613,-0.05723 0.17883,-0.02146 0.44351,-0.02146 0.25751,0 0.42919,0.02146 0.17168,0.01431 0.26468,0.05723 0.093,0.03577 0.1216,0.09299 0.0358,0.05723 0.0215,0.12876 l -0.28613,1.42351 h 1.38059 q 0.12161,0 0.16453,0.07869 0.0429,0.07869 0.0429,0.228906 z m 6.02309,6.316382 q -0.0143,0.07153 -0.0715,0.12876 -0.0501,0.05007 -0.16453,0.08584 -0.1073,0.03577 -0.28613,0.05007 -0.17168,0.02146 -0.4435,0.02146 -0.25752,0 -0.4292,-0.02146 -0.16453,-0.01431 -0.25752,-0.05007 -0.093,-0.03577 -0.12876,-0.08584 -0.0286,-0.05723 -0.0143,-0.12876 l 0.76541,-3.827026 q 0.0286,-0.15022 0.0501,-0.336206 0.0215,-0.19314 0.0215,-0.34336 0,-0.157373 -0.0358,-0.286133 -0.0286,-0.135913 -0.10014,-0.228906 -0.0715,-0.100146 -0.18599,-0.15022 -0.11445,-0.05723 -0.27183,-0.05723 -0.29328,0 -0.61518,0.185986 -0.31475,0.185987 -0.60088,0.507886 -0.27898,0.321899 -0.50073,0.751099 -0.22176,0.429199 -0.31475,0.908471 l -0.57942,2.875635 q -0.0143,0.07153 -0.0715,0.12876 -0.0501,0.05007 -0.16453,0.08584 -0.1073,0.03577 -0.28613,0.05007 -0.17883,0.02146 -0.43635,0.02146 -0.26468,0 -0.43636,-0.02146 -0.16452,-0.01431 -0.26467,-0.05007 -0.093,-0.03577 -0.12161,-0.08584 -0.0286,-0.05723 -0.0143,-0.12876 l 1.88132,-9.406616 q 0.0143,-0.07153 0.0644,-0.12876 0.0501,-0.05723 0.16453,-0.09299 0.11445,-0.04292 0.28613,-0.06438 0.17883,-0.02146 0.44351,-0.02146 0.26467,0 0.4292,0.02146 0.17167,0.02146 0.26467,0.06438 0.093,0.03577 0.1216,0.09299 0.0286,0.05723 0.0143,0.12876 l -0.50788,2.589502 q -0.0358,0.157373 -0.0787,0.336206 -0.0429,0.178833 -0.10015,0.357666 -0.0501,0.17168 -0.1073,0.336206 -0.0501,0.164526 -0.10014,0.293286 0.13591,-0.228906 0.37197,-0.457812 0.23606,-0.228907 0.5365,-0.414893 0.30759,-0.185986 0.6581,-0.300439 0.35767,-0.121607 0.72964,-0.121607 0.48643,0 0.82263,0.135913 0.33621,0.135913 0.55081,0.379126 0.2146,0.243213 0.30759,0.579419 0.10015,0.336206 0.10015,0.736792 0,0.25752 -0.0286,0.515039 -0.0286,0.250366 -0.0787,0.500732 z m 8.41231,-4.978711 q 0,0.515039 -0.23606,0.929932 -0.22891,0.407739 -0.72249,0.708178 -0.48642,0.293287 -1.24467,0.45066 -0.7511,0.157373 -1.79549,0.157373 h -0.6581 q -0.0286,0.164526 -0.0429,0.329052 -0.0143,0.157373 -0.0143,0.293286 0,0.579419 0.30044,0.872705 0.30044,0.293287 0.9657,0.293287 0.47212,0 0.84409,-0.06438 0.37913,-0.07153 0.65811,-0.15022 0.28613,-0.08584 0.47211,-0.15022 0.18599,-0.07153 0.27183,-0.07153 0.0858,0 0.12161,0.05007 0.0358,0.05007 0.0358,0.157373 0,0.121607 -0.0215,0.27898 -0.0215,0.157373 -0.0644,0.314746 -0.0358,0.15022 -0.10014,0.286133 -0.0572,0.135913 -0.13592,0.207446 -0.0858,0.08584 -0.31474,0.17168 -0.22891,0.08584 -0.55081,0.157373 -0.3219,0.07153 -0.72248,0.114453 -0.40059,0.05007 -0.81548,0.05007 -0.68672,0 -1.20176,-0.143066 -0.50789,-0.143067 -0.85124,-0.436353 -0.34336,-0.293286 -0.51504,-0.743945 -0.17168,-0.457813 -0.17168,-1.080151 0,-0.479273 0.0858,-1.022925 0.093,-0.550806 0.29328,-1.080152 0.2003,-0.536499 0.51504,-1.022924 0.31475,-0.486426 0.75825,-0.851245 0.45066,-0.371973 1.03724,-0.593726 0.58657,-0.221753 1.33767,-0.221753 0.65095,0 1.11591,0.157373 0.47212,0.15022 0.77256,0.407739 0.30044,0.250367 0.44351,0.579419 0.15022,0.3219 0.15022,0.665259 z m -1.76687,0.135913 q 0,-0.286133 -0.22891,-0.472119 -0.22175,-0.19314 -0.65095,-0.19314 -0.35767,0 -0.6438,0.12876 -0.27898,0.12876 -0.49358,0.350513 -0.2146,0.214599 -0.37197,0.515039 -0.15022,0.293286 -0.24321,0.629492 h 0.60088 q 0.57226,0 0.95854,-0.07153 0.38628,-0.07869 0.62234,-0.207446 0.23606,-0.12876 0.34336,-0.30044 0.1073,-0.178833 0.1073,-0.379126 z m 7.61113,-1.63811 q 0,0.05007 -0.0143,0.178833 -0.0143,0.12876 -0.0429,0.300439 -0.0286,0.17168 -0.0715,0.357666 -0.0429,0.178833 -0.10015,0.336206 -0.0501,0.157373 -0.1216,0.25752 -0.0644,0.100146 -0.14307,0.100146 -0.0644,0 -0.12876,-0.02146 -0.0644,-0.02861 -0.14307,-0.05007 -0.0787,-0.02861 -0.17167,-0.05007 -0.093,-0.02861 -0.2146,-0.02861 -0.24322,0 -0.5222,0.185986 -0.27182,0.185986 -0.52219,0.493579 -0.25037,0.300439 -0.45066,0.708179 -0.19314,0.400586 -0.27898,0.844092 l -0.57226,2.868481 q -0.0143,0.07153 -0.0715,0.12876 -0.0501,0.05007 -0.16452,0.08584 -0.1073,0.03577 -0.28614,0.05007 -0.17883,0.02146 -0.43635,0.02146 -0.26467,0 -0.43635,-0.02146 -0.16453,-0.01431 -0.26467,-0.05007 -0.093,-0.03577 -0.12161,-0.08584 -0.0286,-0.05723 -0.0143,-0.12876 l 1.27329,-6.387915 q 0.0143,-0.07153 0.0644,-0.121606 0.0501,-0.05723 0.14307,-0.08584 0.10015,-0.03577 0.25037,-0.05007 0.15737,-0.02146 0.37197,-0.02146 0.22175,0 0.35767,0.02146 0.14306,0.01431 0.22175,0.05007 0.0787,0.02861 0.10014,0.08584 0.0286,0.05007 0.0143,0.121606 l -0.20029,1.015771 q 0.17168,-0.307592 0.39343,-0.565112 0.22891,-0.257519 0.47927,-0.443506 0.25752,-0.193139 0.52935,-0.300439 0.27183,-0.1073 0.5365,-0.1073 0.1073,0 0.2146,0.01431 0.11445,0.01431 0.20744,0.03577 0.10015,0.02146 0.17168,0.05723 0.0787,0.02861 0.12161,0.06438 0.0429,0.04292 0.0429,0.135913 z m 9.82151,1.502197 q 0,0.515039 -0.23606,0.929932 -0.22891,0.407739 -0.72249,0.708178 -0.48642,0.293287 -1.24467,0.45066 -0.7511,0.157373 -1.79549,0.157373 h -0.6581 q -0.0286,0.164526 -0.0429,0.329052 -0.0143,0.157373 -0.0143,0.293286 0,0.579419 0.30044,0.872705 0.30044,0.293287 0.9657,0.293287 0.47212,0 0.84409,-0.06438 0.37913,-0.07153 0.65811,-0.15022 0.28613,-0.08584 0.47212,-0.15022 0.18598,-0.07153 0.27182,-0.07153 0.0858,0 0.12161,0.05007 0.0358,0.05007 0.0358,0.157373 0,0.121607 -0.0215,0.27898 -0.0215,0.157373 -0.0644,0.314746 -0.0358,0.15022 -0.10015,0.286133 -0.0572,0.135913 -0.13591,0.207446 -0.0858,0.08584 -0.31475,0.17168 -0.22891,0.08584 -0.55081,0.157373 -0.3219,0.07153 -0.72248,0.114453 -0.40059,0.05007 -0.81548,0.05007 -0.68672,0 -1.20176,-0.143066 -0.50788,-0.143067 -0.85124,-0.436353 -0.34336,-0.293286 -0.51504,-0.743945 -0.17168,-0.457813 -0.17168,-1.080151 0,-0.479273 0.0858,-1.022925 0.093,-0.550806 0.29328,-1.080152 0.2003,-0.536499 0.51504,-1.022924 0.31475,-0.486426 0.75826,-0.851245 0.45065,-0.371973 1.03723,-0.593726 0.58657,-0.221753 1.33767,-0.221753 0.65095,0 1.11592,0.157373 0.47211,0.15022 0.77255,0.407739 0.30044,0.250367 0.44351,0.579419 0.15022,0.3219 0.15022,0.665259 z m -1.76687,0.135913 q 0,-0.286133 -0.22891,-0.472119 -0.22175,-0.19314 -0.65095,-0.19314 -0.35766,0 -0.6438,0.12876 -0.27898,0.12876 -0.49358,0.350513 -0.2146,0.214599 -0.37197,0.515039 -0.15022,0.293286 -0.24321,0.629492 h 0.60088 q 0.57226,0 0.95854,-0.07153 0.38628,-0.07869 0.62234,-0.207446 0.23606,-0.12876 0.34336,-0.30044 0.1073,-0.178833 0.1073,-0.379126 z m 6.41653,1.537964 1.14453,3.176074 q 0.0358,0.121607 0.0143,0.200293 -0.0215,0.07869 -0.13592,0.12876 -0.1073,0.05007 -0.31474,0.06438 -0.20745,0.02146 -0.5365,0.02146 -0.30044,0 -0.47212,-0.01431 -0.17168,-0.01431 -0.26467,-0.04292 -0.093,-0.02861 -0.12876,-0.07869 -0.0286,-0.05007 -0.0429,-0.114454 l -0.77256,-2.253295 -1.61665,2.260449 q -0.0429,0.06438 -0.10015,0.114453 -0.0501,0.04292 -0.17883,0.07153 -0.12161,0.02861 -0.32905,0.04292 -0.2003,0.01431 -0.54366,0.01431 -0.30759,0 -0.49358,-0.02146 -0.18598,-0.01431 -0.27182,-0.05723 -0.0858,-0.05007 -0.0715,-0.121606 0.007,-0.07869 0.0858,-0.200293 l 2.42498,-3.176074 -1.06584,-2.947168 q -0.0429,-0.12876 -0.0286,-0.207447 0.0143,-0.08584 0.1073,-0.135913 0.10015,-0.05007 0.30044,-0.06438 0.20745,-0.02146 0.54365,-0.02146 0.29329,0 0.45782,0.01431 0.17168,0.0072 0.25752,0.02861 0.093,0.02146 0.1216,0.07153 0.0358,0.04292 0.0572,0.114453 l 0.74394,2.131689 1.53797,-2.131689 q 0.0429,-0.05723 0.093,-0.100147 0.0501,-0.04292 0.15737,-0.07153 0.1073,-0.02861 0.27898,-0.04292 0.17168,-0.01431 0.46497,-0.01431 0.32905,0 0.52219,0.01431 0.20029,0.01431 0.29329,0.05723 0.093,0.04292 0.0787,0.121606 -0.007,0.07153 -0.10014,0.200293 z m 7.31069,-3.011548 q 0,0.07153 -0.0143,0.185987 -0.0143,0.107299 -0.0429,0.236059 -0.0215,0.12876 -0.0644,0.25752 -0.0429,0.128759 -0.10015,0.236059 -0.0501,0.100147 -0.1216,0.17168 -0.0644,0.06438 -0.14307,0.06438 h -1.3949 l -0.60087,2.997241 q -0.0215,0.1073 -0.0429,0.257519 -0.0143,0.143067 -0.0143,0.23606 0,0.286133 0.13591,0.422046 0.13591,0.12876 0.4292,0.12876 0.17168,0 0.29329,-0.02146 0.1216,-0.02861 0.20744,-0.05723 0.093,-0.03577 0.15738,-0.05723 0.0644,-0.02861 0.1216,-0.02861 0.0572,0 0.093,0.05723 0.0429,0.05007 0.0429,0.171679 0,0.135914 -0.0286,0.307593 -0.0286,0.17168 -0.0787,0.336206 -0.0429,0.157373 -0.10015,0.293286 -0.0572,0.12876 -0.12161,0.19314 -0.0644,0.06438 -0.19314,0.121607 -0.12876,0.05723 -0.30759,0.100146 -0.17168,0.04292 -0.37197,0.06438 -0.20029,0.02861 -0.40059,0.02861 -0.4292,0 -0.75825,-0.09299 -0.3219,-0.08584 -0.54365,-0.278979 -0.22175,-0.19314 -0.33621,-0.49358 -0.1073,-0.300439 -0.1073,-0.729638 0,-0.07869 0.007,-0.178833 0.007,-0.1073 0.0215,-0.221753 0.0215,-0.114453 0.0358,-0.228906 0.0215,-0.121607 0.0429,-0.2146 l 0.62234,-3.111694 h -0.77256 q -0.093,0 -0.13591,-0.05723 -0.0429,-0.06438 -0.0429,-0.236059 0,-0.121607 0.0215,-0.314746 0.0286,-0.200293 0.0858,-0.38628 0.0572,-0.193139 0.15022,-0.329052 0.093,-0.135914 0.22175,-0.135914 h 0.76541 l 0.28613,-1.42351 q 0.0143,-0.07153 0.0644,-0.12876 0.0572,-0.05723 0.16453,-0.09299 0.11445,-0.04292 0.28613,-0.05723 0.17883,-0.02146 0.4435,-0.02146 0.25752,0 0.4292,0.02146 0.17168,0.01431 0.26468,0.05723 0.093,0.03577 0.1216,0.09299 0.0358,0.05723 0.0215,0.12876 l -0.28613,1.42351 h 1.38059 q 0.12161,0 0.16453,0.07869 0.0429,0.07869 0.0429,0.228906 z m 6.58106,1.337671 q 0,0.515039 -0.23606,0.929932 -0.22891,0.407739 -0.72249,0.708178 -0.48642,0.293287 -1.24467,0.45066 -0.7511,0.157373 -1.79549,0.157373 h -0.6581 q -0.0286,0.164526 -0.0429,0.329052 -0.0143,0.157373 -0.0143,0.293286 0,0.579419 0.30044,0.872705 0.30044,0.293287 0.9657,0.293287 0.47212,0 0.84409,-0.06438 0.37913,-0.07153 0.65811,-0.15022 0.28613,-0.08584 0.47211,-0.15022 0.18599,-0.07153 0.27183,-0.07153 0.0858,0 0.12161,0.05007 0.0358,0.05007 0.0358,0.157373 0,0.121607 -0.0215,0.27898 -0.0215,0.157373 -0.0644,0.314746 -0.0358,0.15022 -0.10014,0.286133 -0.0572,0.135913 -0.13592,0.207446 -0.0858,0.08584 -0.31474,0.17168 -0.22891,0.08584 -0.55081,0.157373 -0.3219,0.07153 -0.72248,0.114453 -0.40059,0.05007 -0.81548,0.05007 -0.68672,0 -1.20176,-0.143066 -0.50789,-0.143067 -0.85124,-0.436353 -0.34336,-0.293286 -0.51504,-0.743945 -0.17168,-0.457813 -0.17168,-1.080151 0,-0.479273 0.0858,-1.022925 0.093,-0.550806 0.29328,-1.080152 0.2003,-0.536499 0.51504,-1.022924 0.31475,-0.486426 0.75825,-0.851245 0.45066,-0.371973 1.03724,-0.593726 0.58657,-0.221753 1.33767,-0.221753 0.65095,0 1.11591,0.157373 0.47212,0.15022 0.77256,0.407739 0.30044,0.250367 0.44351,0.579419 0.15022,0.3219 0.15022,0.665259 z m -1.76687,0.135913 q 0,-0.286133 -0.22891,-0.472119 -0.22175,-0.19314 -0.65095,-0.19314 -0.35767,0 -0.6438,0.12876 -0.27898,0.12876 -0.49358,0.350513 -0.2146,0.214599 -0.37197,0.515039 -0.15022,0.293286 -0.24321,0.629492 h 0.60088 q 0.57226,0 0.95854,-0.07153 0.38628,-0.07869 0.62234,-0.207446 0.23606,-0.12876 0.34336,-0.30044 0.1073,-0.178833 0.1073,-0.379126 z m 9.1777,-0.114453 q 0,0.250366 -0.0358,0.500732 -0.0286,0.250367 -0.0787,0.515039 l -0.79402,3.94148 q -0.0143,0.07153 -0.0715,0.12876 -0.0501,0.05007 -0.16453,0.08584 -0.1073,0.03577 -0.28613,0.05007 -0.17168,0.02146 -0.43635,0.02146 -0.26468,0 -0.43636,-0.02146 -0.16452,-0.01431 -0.25752,-0.05007 -0.093,-0.03577 -0.12875,-0.08584 -0.0286,-0.05723 -0.0143,-0.12876 l 0.77256,-3.827026 q 0.0358,-0.17168 0.0501,-0.350513 0.0215,-0.178833 0.0215,-0.314746 0,-0.3219 -0.13591,-0.529346 -0.13592,-0.207446 -0.45782,-0.207446 -0.29328,0 -0.61518,0.185986 -0.31475,0.185987 -0.60088,0.507886 -0.27898,0.314746 -0.50073,0.743945 -0.22176,0.422046 -0.31475,0.901319 l -0.57942,2.889941 q -0.0143,0.07153 -0.0715,0.12876 -0.0501,0.05007 -0.16453,0.08584 -0.1073,0.03577 -0.28613,0.05007 -0.17883,0.02146 -0.43635,0.02146 -0.26467,0 -0.43635,-0.02146 -0.16453,-0.01431 -0.26468,-0.05007 -0.093,-0.03577 -0.1216,-0.08584 -0.0286,-0.05723 -0.0143,-0.12876 l 1.28044,-6.387915 q 0.0143,-0.07153 0.0572,-0.121606 0.0501,-0.05723 0.14307,-0.08584 0.10014,-0.03577 0.25036,-0.05007 0.15738,-0.02146 0.37198,-0.02146 0.22175,0 0.35766,0.02146 0.14307,0.01431 0.22175,0.05007 0.0787,0.02861 0.10015,0.08584 0.0286,0.05007 0.0143,0.121606 l -0.20745,1.051538 q 0.15022,-0.250366 0.40059,-0.507886 0.25036,-0.264673 0.57226,-0.472119 0.32906,-0.207446 0.70818,-0.336206 0.38628,-0.135913 0.80117,-0.135913 0.50074,0 0.83694,0.15022 0.34336,0.143066 0.55081,0.393432 0.2146,0.250367 0.30759,0.586573 0.093,0.329052 0.093,0.701025 z m 6.12325,-1.144531 q 0,0.08584 -0.0286,0.257519 -0.0215,0.164527 -0.0715,0.336206 -0.0501,0.17168 -0.12161,0.30044 -0.0644,0.121606 -0.15022,0.121606 -0.093,0 -0.22175,-0.06438 -0.12161,-0.07153 -0.30044,-0.150219 -0.17883,-0.08584 -0.42205,-0.15022 -0.23605,-0.06438 -0.55795,-0.06438 -0.25037,0 -0.45066,0.06438 -0.19314,0.06438 -0.3219,0.178833 -0.12876,0.1073 -0.2003,0.257519 -0.0644,0.15022 -0.0644,0.3219 0,0.221753 0.17884,0.371973 0.18598,0.150219 0.45781,0.286132 0.27183,0.12876 0.58657,0.271826 0.31475,0.143067 0.58657,0.357666 0.27183,0.2146 0.45066,0.522193 0.17884,0.307593 0.17884,0.772558 0,0.543653 -0.20745,1.008619 -0.20745,0.457812 -0.60803,0.794018 -0.39343,0.336206 -0.9657,0.529346 -0.56511,0.185986 -1.28044,0.185986 -0.34336,0 -0.65811,-0.05007 -0.30759,-0.05007 -0.55796,-0.121607 -0.24321,-0.07153 -0.41489,-0.164526 -0.17168,-0.09299 -0.25752,-0.17168 -0.0572,-0.05723 -0.0858,-0.121606 -0.0215,-0.06438 -0.0215,-0.164526 0,-0.06438 0.007,-0.164527 0.0143,-0.100146 0.0358,-0.221753 0.0286,-0.121606 0.0572,-0.243213 0.0358,-0.121606 0.0787,-0.221753 0.0429,-0.100146 0.093,-0.157373 0.0501,-0.06438 0.1073,-0.06438 0.10014,0 0.22175,0.08584 0.1216,0.08584 0.31474,0.19314 0.19314,0.100147 0.47212,0.19314 0.28614,0.08584 0.70818,0.08584 0.29329,0 0.50789,-0.06438 0.22175,-0.07153 0.36482,-0.19314 0.14306,-0.121606 0.20744,-0.278979 0.0715,-0.157374 0.0715,-0.336207 0,-0.250366 -0.17884,-0.407739 -0.17168,-0.157373 -0.43635,-0.293286 -0.26467,-0.135913 -0.57942,-0.278979 -0.30759,-0.143067 -0.57226,-0.350513 -0.26468,-0.207446 -0.44351,-0.515039 -0.17168,-0.307593 -0.17168,-0.772559 0,-0.507885 0.19314,-0.944238 0.19314,-0.436352 0.56511,-0.758252 0.37198,-0.329053 0.90132,-0.507886 0.52935,-0.185986 1.20176,-0.185986 0.30044,0 0.57942,0.04292 0.28613,0.03577 0.50788,0.100146 0.22891,0.06438 0.39344,0.143067 0.17168,0.07869 0.24321,0.157373 0.0787,0.07153 0.0787,0.243213 z m 4.15607,-2.424976 q -0.0501,0.264673 -0.13591,0.450659 -0.0858,0.178833 -0.22891,0.293287 -0.14306,0.107299 -0.35051,0.157373 -0.20745,0.04292 -0.51504,0.04292 -0.30044,0 -0.49358,-0.04292 -0.18598,-0.05007 -0.28613,-0.157373 -0.093,-0.114454 -0.1073,-0.293287 -0.0143,-0.185986 0.0429,-0.450659 0.0501,-0.257519 0.13591,-0.436352 0.0858,-0.178833 0.22891,-0.293286 0.14307,-0.114453 0.35051,-0.164527 0.20745,-0.05007 0.51504,-0.05007 0.30044,0 0.48643,0.05007 0.19314,0.05007 0.28613,0.164527 0.10015,0.114453 0.1073,0.293286 0.0143,0.178833 -0.0358,0.436352 z m -1.84555,8.526758 q -0.0143,0.07153 -0.0715,0.12876 -0.0501,0.05007 -0.16452,0.08584 -0.1073,0.03577 -0.28614,0.05007 -0.17883,0.02146 -0.43635,0.02146 -0.26467,0 -0.43635,-0.02146 -0.16453,-0.01431 -0.26467,-0.05007 -0.093,-0.03577 -0.12161,-0.08584 -0.0286,-0.05723 -0.0143,-0.12876 l 1.26614,-6.366455 q 0.0143,-0.07153 0.0644,-0.121606 0.0572,-0.05723 0.16453,-0.09299 0.11445,-0.04292 0.28613,-0.06438 0.17883,-0.02146 0.44351,-0.02146 0.26467,0 0.4292,0.02146 0.17167,0.02146 0.26467,0.06438 0.10014,0.03577 0.12876,0.09299 0.0286,0.05007 0.0143,0.121606 z m 8.8415,-4.234766 q 0,0.515039 -0.10014,1.058692 -0.093,0.543652 -0.30044,1.065844 -0.20745,0.515039 -0.5365,0.972852 -0.3219,0.450659 -0.77971,0.801172 -0.45066,0.343359 -1.03724,0.543652 -0.58657,0.200293 -1.32336,0.200293 -0.72249,0 -1.25183,-0.164526 -0.52219,-0.17168 -0.87271,-0.493579 -0.35051,-0.329053 -0.52219,-0.801172 -0.17168,-0.479273 -0.17168,-1.094458 0,-0.515039 0.093,-1.058692 0.10015,-0.543652 0.3076,-1.058691 0.20744,-0.515039 0.52934,-0.972851 0.32906,-0.464966 0.77971,-0.808326 0.45782,-0.343359 1.04439,-0.543652 0.58657,-0.200293 1.32336,-0.200293 0.72249,0 1.24468,0.17168 0.52935,0.164526 0.87986,0.493579 0.35051,0.321899 0.52219,0.801172 0.17168,0.472119 0.17168,1.087304 z m -1.85986,0.121607 q 0,-0.30044 -0.0644,-0.529346 -0.0572,-0.236059 -0.20029,-0.393432 -0.13592,-0.164527 -0.35767,-0.250367 -0.2146,-0.08584 -0.52935,-0.08584 -0.35766,0 -0.64379,0.143067 -0.28614,0.135913 -0.51504,0.371973 -0.22176,0.236059 -0.38628,0.550805 -0.16453,0.307593 -0.27183,0.650952 -0.1073,0.34336 -0.15737,0.701026 -0.0501,0.350512 -0.0501,0.672412 0,0.300439 0.0572,0.536499 0.0644,0.236059 0.20029,0.400586 0.14307,0.157373 0.35767,0.243213 0.22175,0.08584 0.5365,0.08584 0.35767,0 0.6438,-0.135913 0.28613,-0.143066 0.50788,-0.379126 0.22891,-0.243213 0.39344,-0.550805 0.16452,-0.314746 0.27182,-0.658106 0.1073,-0.350512 0.15738,-0.701025 0.0501,-0.350513 0.0501,-0.672412 z m 9.40661,-0.844092 q 0,0.250366 -0.0358,0.500732 -0.0286,0.250367 -0.0787,0.515039 l -0.79402,3.94148 q -0.0143,0.07153 -0.0715,0.12876 -0.0501,0.05007 -0.16453,0.08584 -0.1073,0.03577 -0.28613,0.05007 -0.17168,0.02146 -0.43635,0.02146 -0.26467,0 -0.43635,-0.02146 -0.16453,-0.01431 -0.25752,-0.05007 -0.093,-0.03577 -0.12876,-0.08584 -0.0286,-0.05723 -0.0143,-0.12876 l 0.77256,-3.827026 q 0.0358,-0.17168 0.0501,-0.350513 0.0215,-0.178833 0.0215,-0.314746 0,-0.3219 -0.13591,-0.529346 -0.13591,-0.207446 -0.45781,-0.207446 -0.29329,0 -0.61519,0.185986 -0.31475,0.185987 -0.60088,0.507886 -0.27898,0.314746 -0.50073,0.743945 -0.22175,0.422046 -0.31475,0.901319 l -0.57942,2.889941 q -0.0143,0.07153 -0.0715,0.12876 -0.0501,0.05007 -0.16453,0.08584 -0.1073,0.03577 -0.28613,0.05007 -0.17883,0.02146 -0.43635,0.02146 -0.26467,0 -0.43635,-0.02146 -0.16453,-0.01431 -0.26468,-0.05007 -0.093,-0.03577 -0.1216,-0.08584 -0.0286,-0.05723 -0.0143,-0.12876 l 1.28045,-6.387915 q 0.0143,-0.07153 0.0572,-0.121606 0.0501,-0.05723 0.14307,-0.08584 0.10014,-0.03577 0.25036,-0.05007 0.15738,-0.02146 0.37198,-0.02146 0.22175,0 0.35766,0.02146 0.14307,0.01431 0.22176,0.05007 0.0787,0.02861 0.10014,0.08584 0.0286,0.05007 0.0143,0.121606 l -0.20745,1.051538 q 0.15022,-0.250366 0.40059,-0.507886 0.25036,-0.264673 0.57226,-0.472119 0.32906,-0.207446 0.70818,-0.336206 0.38628,-0.135913 0.80117,-0.135913 0.50074,0 0.83694,0.15022 0.34336,0.143066 0.55081,0.393432 0.2146,0.250367 0.30759,0.586573 0.093,0.329052 0.093,0.701025 z"
       id="text1040"
       aria-label="Another extension" /><path
       style="opacity:1;fill:#0097a7;fill-opacity:1;stroke:#000000;stroke-width:1.5;stroke-linecap:round;stroke-linejoin:round;stroke-dasharray:none;stroke-opacity:1;marker-end:url(#ArrowWideRounded)"
       d="M 240.86806,3.1744312 H 347.99993"
       id="path1041" /><path
       id="rect1041"
       style="opacity:1;fill:#e2e2e2;stroke-width:1.81497;stroke-linecap:round;stroke-linejoin:round"
       d="M 347.99994,69.819252 H 486.59286 V 93.507336 H 347.99994 Z" /><path
       d="m 358.41295,87.126915 v -2.054208 h 2.05421 v 2.054208 z m 8.56383,0 v -2.054208 h 2.05421 v 2.054208 z m 8.56383,0 v -2.054208 h 2.05421 v 2.054208 z"
       id="text1042"
       style="font-size:14.2129px;line-height:1.25;font-family:'Lucida Console';-inkscape-font-specification:'Lucida Console';letter-spacing:0px;word-spacing:0px;stroke-width:0.355321"
       aria-label="..." /><path
       id="rect1042"
       style="opacity:1;fill:#0097a7;stroke-width:0.363962;stroke-linecap:round;stroke-linejoin:round"
       transform="scale(-1,1)"
       d="m -489.24115,-8.66961 h 2.64832 v 49.85104 h -2.64832 z" /><path
       id="rect1043"
       style="opacity:1;fill:#d0004d;stroke-width:0.363962;stroke-linecap:round;stroke-linejoin:round"
       transform="scale(-1,1)"
       d="m -347.99994,43.656296 h 2.64832 v 49.85104 h -2.64832 z" /><path
       style="opacity:1;fill:none;fill-opacity:1;stroke:#d0004d;stroke-width:1.5;stroke-linecap:round;stroke-linejoin:round;stroke-dasharray:none;stroke-opacity:1;marker-end:url(#marker1044)"
       d="m 344.77167,31.083832 c -23.302,0 -22.52167,27.798097 -2.52167,27.798097 h 1.73422"
       id="path1043" /><path
       id="rect1044"
       style="opacity:1;fill:#d0004d;stroke-width:0.363962;stroke-linecap:round;stroke-linejoin:round"
       transform="scale(-1,1)"
       d="m -121.01866,43.656296 h 2.64832 v 49.85104 h -2.64832 z" /><path
       style="opacity:1;fill:none;fill-opacity:1;stroke:#d0004d;stroke-width:1.5;stroke-linecap:round;stroke-linejoin:round;stroke-dasharray:none;stroke-opacity:1;marker-end:url(#marker1044)"
       d="m 117.79039,31.083832 c -23.301997,0 -22.521667,27.798097 -2.52167,27.798097 h 1.73422"
       id="path1045" /></g></svg>
