<?xml version="1.0" encoding="UTF-8" standalone="no"?>
<!-- Created with Inkscape (http://www.inkscape.org/) -->

<svg
   version="1.1"
   id="svg761"
   width="827.95837"
   height="116.55286"
   viewBox="0 0 827.95837 116.55286"
   sodipodi:docname="pipelines.svg"
   inkscape:version="1.4 (86a8ad7, 2024-10-11)"
   xml:space="preserve"
   inkscape:export-batch-path="."
   inkscape:export-batch-name="queue"
   xmlns:inkscape="http://www.inkscape.org/namespaces/inkscape"
   xmlns:sodipodi="http://sodipodi.sourceforge.net/DTD/sodipodi-0.dtd"
   xmlns="http://www.w3.org/2000/svg"
   xmlns:svg="http://www.w3.org/2000/svg"><defs
     id="defs765" /><sodipodi:namedview
     id="namedview763"
     pagecolor="#ffffff"
     bordercolor="#666666"
     borderopacity="1.0"
     inkscape:showpageshadow="2"
     inkscape:pageopacity="0.0"
     inkscape:pagecheckerboard="0"
     inkscape:deskcolor="#d1d1d1"
     showgrid="false"
     inkscape:zoom="0.41463477"
     inkscape:cx="514.91099"
     inkscape:cy="399.14646"
     inkscape:window-width="1920"
     inkscape:window-height="1017"
     inkscape:window-x="-8"
     inkscape:window-y="-8"
     inkscape:window-maximized="1"
     inkscape:current-layer="layer2"><inkscape:page
       x="0"
       y="0"
       width="827.95837"
       height="116.55286"
       id="page1025"
       inkscape:label="light"
       margin="0"
       bleed="0" /><inkscape:page
       x="1.2058786"
       y="259.66376"
       width="827.96002"
       height="116.55"
       id="page1027"
       inkscape:label="dark"
       margin="0"
       bleed="0" /></sodipodi:namedview><g
     inkscape:groupmode="layer"
     id="layer1"
     inkscape:label="Background"
     style="display:none"
     transform="translate(111.70191,34.960139)"
     sodipodi:insensitive="true"><rect
       style="fill:#131416;fill-opacity:1;stroke:none;stroke-width:1.71213;stroke-linejoin:round"
       id="rect1081"
       width="765.71228"
       height="319.75735"
       x="-192.70709"
       y="358.27536"
       inkscape:label="dark-background" /></g><g
     inkscape:groupmode="layer"
     id="layer2"
     inkscape:label="Foreground"
     transform="translate(111.70191,34.960139)"><rect
       style="fill:#bdbdbd;fill-opacity:1;stroke:none;stroke-width:1.88976;stroke-linecap:round;stroke-linejoin:round;stroke-dasharray:none;stroke-opacity:1"
       id="rect2"
       width="95.264565"
       height="60.294025"
       x="-104.33916"
       y="-32.96014"
       rx="8.5713692"
       ry="8.5713692" /><g
       id="g3"
       transform="matrix(0.84108155,0,0,0.84108155,-209.13183,-32.451978)"><rect
         style="fill:#ffffff;fill-opacity:1;stroke:#141414;stroke-width:1.88976;stroke-linecap:round;stroke-linejoin:round;stroke-dasharray:none;stroke-opacity:1"
         id="rect3"
         width="18.238935"
         height="18.238939"
         x="135.80508"
         y="11.767735"
         rx="0"
         ry="0" /><path
         style="fill:#141414;fill-opacity:1;stroke:none;stroke-width:0.909267;stroke-linecap:round;stroke-linejoin:round;stroke-dasharray:none;stroke-opacity:1"
         id="path3"
         d="m 138.33799,18.773644 c -0.0845,1.280698 0.28679,2.535705 0.64582,3.750159 0.41995,1.184386 0.81404,2.383303 1.35636,3.518841 0.39237,0.805098 0.61319,1.140008 1.92856,1.141853 0.34389,4.81e-4 0.59346,-0.349903 0.87076,-0.553304 0.62277,-0.456828 1.05728,-0.950364 1.60246,-1.504182 0.30643,-0.35631 0.61857,-0.707794 0.91931,-1.068931 0.90914,-1.09174 1.1284,-1.46299 2.13061,-2.531318 0.48037,-0.51206 0.99291,-0.992979 1.4871,-1.491708 1.83361,-1.850424 1.41967,-1.434281 3.21845,-3.315151 0.50968,-0.52599 1.01441,-1.056834 1.52907,-1.577968 0.479,-0.485038 0.96154,-0.966708 1.45177,-1.440402 1.50494,-1.454185 1.08739,-0.996325 2.54316,-2.349202 0.7689,-0.71456 0.95781,-0.916361 1.64621,-1.6090152 0.15459,-0.145529 -1.9035,-2.3318222 -2.05809,-2.1862932 v 0 c -0.34326,0.1605204 -0.69434,0.3053031 -1.02979,0.4815616 -1.05603,0.5548733 -1.76037,1.0213906 -2.74379,1.7347894 -1.7718,1.2853154 -3.4251,2.7225514 -4.97447,4.2681434 -0.55425,0.59617 -1.13437,1.169296 -1.66274,1.78851 -1.25238,1.467681 -1.66685,2.149226 -2.6944,3.733362 -0.24968,0.384918 -1.48894,2.339916 -1.77481,2.813544 -0.23263,0.385403 -0.45156,0.778905 -0.67733,1.168358 -0.16465,0.324291 -0.33579,0.645364 -0.49394,0.972873 -0.10435,0.216099 -0.25932,0.419906 -0.29331,0.65746 -0.0107,0.07454 0.11375,0.100515 0.17963,0.13698 0.39921,0.220965 0.78484,0.476793 1.21321,0.633956 0.17532,0.06432 -0.40607,-0.818297 -0.0996,-0.551315 -0.26193,-1.186435 -0.6055,-2.352751 -0.87096,-3.538509 -0.0815,-0.274521 -0.15467,-0.551644 -0.24446,-0.823562 -0.17378,-0.526292 -0.36475,-1.003934 -0.59671,-1.505682 -0.12278,-0.265589 -0.32284,-0.669979 -0.50263,-0.92518 -0.0376,-0.05332 -0.0899,-0.09446 -0.13491,-0.141696 -0.0221,-0.132265 -1.89265,0.180763 -1.87051,0.313028 z" /></g><g
       id="g4"
       transform="matrix(0.84108155,0,0,0.84108155,-209.13183,-8.150418)"><rect
         style="fill:#ffffff;fill-opacity:1;stroke:#141414;stroke-width:1.88976;stroke-linecap:round;stroke-linejoin:round;stroke-dasharray:none;stroke-opacity:1"
         id="rect4"
         width="18.238935"
         height="18.238939"
         x="135.80508"
         y="11.767735"
         rx="0"
         ry="0" /><path
         style="fill:#141414;fill-opacity:1;stroke:none;stroke-width:0.909267;stroke-linecap:round;stroke-linejoin:round;stroke-dasharray:none;stroke-opacity:1"
         id="path4"
         d="m 138.33799,18.773644 c -0.0845,1.280698 0.28679,2.535705 0.64582,3.750159 0.41995,1.184386 0.81404,2.383303 1.35636,3.518841 0.39237,0.805098 0.61319,1.140008 1.92856,1.141853 0.34389,4.81e-4 0.59346,-0.349903 0.87076,-0.553304 0.62277,-0.456828 1.05728,-0.950364 1.60246,-1.504182 0.30643,-0.35631 0.61857,-0.707794 0.91931,-1.068931 0.90914,-1.09174 1.1284,-1.46299 2.13061,-2.531318 0.48037,-0.51206 0.99291,-0.992979 1.4871,-1.491708 1.83361,-1.850424 1.41967,-1.434281 3.21845,-3.315151 0.50968,-0.52599 1.01441,-1.056834 1.52907,-1.577968 0.479,-0.485038 0.96154,-0.966708 1.45177,-1.440402 1.50494,-1.454185 1.08739,-0.996325 2.54316,-2.349202 0.7689,-0.71456 0.95781,-0.916361 1.64621,-1.6090152 0.15459,-0.145529 -1.9035,-2.3318222 -2.05809,-2.1862932 v 0 c -0.34326,0.1605204 -0.69434,0.3053031 -1.02979,0.4815616 -1.05603,0.5548733 -1.76037,1.0213906 -2.74379,1.7347894 -1.7718,1.2853154 -3.4251,2.7225514 -4.97447,4.2681434 -0.55425,0.59617 -1.13437,1.169296 -1.66274,1.78851 -1.25238,1.467681 -1.66685,2.149226 -2.6944,3.733362 -0.24968,0.384918 -1.48894,2.339916 -1.77481,2.813544 -0.23263,0.385403 -0.45156,0.778905 -0.67733,1.168358 -0.16465,0.324291 -0.33579,0.645364 -0.49394,0.972873 -0.10435,0.216099 -0.25932,0.419906 -0.29331,0.65746 -0.0107,0.07454 0.11375,0.100515 0.17963,0.13698 0.39921,0.220965 0.78484,0.476793 1.21321,0.633956 0.17532,0.06432 -0.40607,-0.818297 -0.0996,-0.551315 -0.26193,-1.186435 -0.6055,-2.352751 -0.87096,-3.538509 -0.0815,-0.274521 -0.15467,-0.551644 -0.24446,-0.823562 -0.17378,-0.526292 -0.36475,-1.003934 -0.59671,-1.505682 -0.12278,-0.265589 -0.32284,-0.669979 -0.50263,-0.92518 -0.0376,-0.05332 -0.0899,-0.09446 -0.13491,-0.141696 -0.0221,-0.132265 -1.89265,0.180763 -1.87051,0.313028 z" /></g><rect
       style="fill:#00d584;fill-opacity:1;stroke:none;stroke-width:1.88976;stroke-linecap:round;stroke-linejoin:round;stroke-dasharray:none;stroke-opacity:1"
       id="rect5"
       width="95.264565"
       height="60.294025"
       x="74.998177"
       y="-32.96014"
       rx="8.5713692"
       ry="8.5713692" /><g
       id="g6"
       transform="matrix(1.2305796,0,0,1.2305796,-975.83374,-276.59858)"
       style="fill:#404040;fill-opacity:1;stroke-width:0.812625"><rect
         style="fill:#404040;fill-opacity:1;stroke:none;stroke-width:1.27062"
         id="rect6"
         width="18.496925"
         height="18.101717"
         x="804.22711"
         y="213.43411" /><path
         id="path6"
         style="fill:#404040;fill-opacity:1;stroke:none;stroke-width:1.27108"
         d="m 817.46351,204.81714 v 35.33565 l 17.85474,-17.85474 -17.48092,-17.48091 z" /></g><g
       id="g19"
       transform="translate(-235.82016,-25.685058)"><rect
         style="fill:#272727;fill-opacity:1;stroke:none;stroke-width:1.88976;stroke-linecap:round;stroke-linejoin:round;stroke-dasharray:none;stroke-opacity:1"
         id="rect7"
         width="50.143063"
         height="31.27499"
         x="333.37909"
         y="7.234437" /><g
         id="g18"
         transform="matrix(1,0,0,0.59613645,0,5.2737829)"><rect
           style="fill:#b4610a;fill-opacity:1;stroke:none;stroke-width:1.88976;stroke-linecap:round;stroke-linejoin:round;stroke-dasharray:none;stroke-opacity:1"
           id="rect8"
           width="23.129116"
           height="3.9436741"
           x="337.99109"
           y="13.058329" /><rect
           style="fill:#b4610a;fill-opacity:1;stroke:none;stroke-width:1.45084;stroke-linecap:round;stroke-linejoin:round;stroke-dasharray:none;stroke-opacity:1"
           id="rect9"
           width="13.632807"
           height="3.9436741"
           x="337.99109"
           y="29.694033" /><rect
           style="fill:#b4610a;fill-opacity:1;stroke:none;stroke-width:1.73904;stroke-linecap:round;stroke-linejoin:round;stroke-dasharray:none;stroke-opacity:1"
           id="rect10"
           width="19.586842"
           height="3.9436741"
           x="337.99109"
           y="35.239265" /><rect
           style="fill:#0ab492;fill-opacity:1;stroke:none;stroke-width:1.73904;stroke-linecap:round;stroke-linejoin:round;stroke-dasharray:none;stroke-opacity:1"
           id="rect11"
           width="19.586842"
           height="3.9436741"
           x="337.99109"
           y="18.603563" /><rect
           style="fill:#b40a9f;fill-opacity:1;stroke:none;stroke-width:1.5098;stroke-linecap:round;stroke-linejoin:round;stroke-dasharray:none;stroke-opacity:1"
           id="rect12"
           width="14.763319"
           height="3.9436741"
           x="359.1795"
           y="18.603563" /><rect
           style="fill:#b40a9f;fill-opacity:1;stroke:none;stroke-width:1.37676;stroke-linecap:round;stroke-linejoin:round;stroke-dasharray:none;stroke-opacity:1"
           id="rect13"
           width="12.276191"
           height="3.9436741"
           x="337.99109"
           y="24.148798" /><rect
           style="fill:#0ab492;fill-opacity:1;stroke:none;stroke-width:1.52895;stroke-linecap:round;stroke-linejoin:round;stroke-dasharray:none;stroke-opacity:1"
           id="rect14"
           width="15.140157"
           height="3.9436741"
           x="353.22546"
           y="29.694033" /><rect
           style="fill:#0ab492;fill-opacity:1;stroke:none;stroke-width:1.18114;stroke-linecap:round;stroke-linejoin:round;stroke-dasharray:none;stroke-opacity:1"
           id="rect15"
           width="9.035387"
           height="3.9436741"
           x="337.99109"
           y="40.784496" /><rect
           style="fill:#b40a9f;fill-opacity:1;stroke:none;stroke-width:1.44682;stroke-linecap:round;stroke-linejoin:round;stroke-dasharray:none;stroke-opacity:1"
           id="rect16"
           width="13.557439"
           height="3.9436741"
           x="348.62805"
           y="40.784496" /></g></g><text
       xml:space="preserve"
       style="font-style:normal;font-variant:normal;font-weight:normal;font-stretch:normal;font-size:17.998px;line-height:1.25;font-family:Calibri;-inkscape-font-specification:Calibri;letter-spacing:0px;word-spacing:0px;fill:#0097a7;fill-opacity:1;stroke:none;stroke-width:1.51038"
       x="-56.79475"
       y="53.962345"
       id="text26"><tspan
         sodipodi:role="line"
         style="font-style:normal;font-variant:normal;font-weight:bold;font-stretch:normal;font-family:Calibri;-inkscape-font-specification:'Calibri Bold';text-align:center;text-anchor:middle;fill:#0097a7;fill-opacity:1;stroke-width:1.51038"
         x="-56.79475"
         y="53.962345"
         id="tspan26">Fixed-function</tspan><tspan
         sodipodi:role="line"
         style="font-style:normal;font-variant:normal;font-weight:bold;font-stretch:normal;font-family:Calibri;-inkscape-font-specification:'Calibri Bold';text-align:center;text-anchor:middle;fill:#0097a7;fill-opacity:1;stroke-width:1.51038"
         x="-56.79475"
         y="76.459846"
         id="tspan21">stage</tspan></text><text
       xml:space="preserve"
       style="font-style:normal;font-variant:normal;font-weight:normal;font-stretch:normal;font-size:17.998px;line-height:1.25;font-family:Calibri;-inkscape-font-specification:Calibri;letter-spacing:0px;word-spacing:0px;fill:#00a667;fill-opacity:1;stroke:none;stroke-width:1.51038"
       x="122.36682"
       y="53.962345"
       id="text19"><tspan
         sodipodi:role="line"
         style="font-style:normal;font-variant:normal;font-weight:bold;font-stretch:normal;font-family:Calibri;-inkscape-font-specification:'Calibri Bold';text-align:center;text-anchor:middle;fill:#00a667;fill-opacity:1;stroke-width:1.51038"
         x="122.36682"
         y="53.962345"
         id="tspan19">Programmable</tspan><tspan
         sodipodi:role="line"
         style="font-style:normal;font-variant:normal;font-weight:bold;font-stretch:normal;font-family:Calibri;-inkscape-font-specification:'Calibri Bold';text-align:center;text-anchor:middle;fill:#00a667;fill-opacity:1;stroke-width:1.51038"
         x="122.36682"
         y="76.459846"
         id="tspan20">stage</tspan></text><g
       id="g23"
       transform="matrix(1.2305796,0,0,1.2305796,-796.49641,-276.59858)"
       style="fill:#404040;fill-opacity:1;stroke-width:0.812625"><rect
         style="fill:#404040;fill-opacity:1;stroke:none;stroke-width:1.27062"
         id="rect23"
         width="18.496925"
         height="18.101717"
         x="804.22711"
         y="213.43411" /><path
         id="path23"
         style="fill:#404040;fill-opacity:1;stroke:none;stroke-width:1.27108"
         d="m 817.46351,204.81714 v 35.33565 l 17.85474,-17.85474 -17.48092,-17.48091 z" /></g><rect
       style="fill:#bdbdbd;fill-opacity:1;stroke:none;stroke-width:1.88976;stroke-linecap:round;stroke-linejoin:round;stroke-dasharray:none;stroke-opacity:1"
       id="rect24"
       width="95.264565"
       height="60.294025"
       x="254.33551"
       y="-32.96014"
       rx="8.5713692"
       ry="8.5713692" /><g
       id="g25"
       transform="matrix(0.84108155,0,0,0.84108155,149.54281,-32.451978)"><rect
         style="fill:#ffffff;fill-opacity:1;stroke:#141414;stroke-width:1.88976;stroke-linecap:round;stroke-linejoin:round;stroke-dasharray:none;stroke-opacity:1"
         id="rect25"
         width="18.238935"
         height="18.238939"
         x="135.80508"
         y="11.767735"
         rx="0"
         ry="0" /><path
         style="fill:#141414;fill-opacity:1;stroke:none;stroke-width:0.909267;stroke-linecap:round;stroke-linejoin:round;stroke-dasharray:none;stroke-opacity:1"
         id="path25"
         d="m 138.33799,18.773644 c -0.0845,1.280698 0.28679,2.535705 0.64582,3.750159 0.41995,1.184386 0.81404,2.383303 1.35636,3.518841 0.39237,0.805098 0.61319,1.140008 1.92856,1.141853 0.34389,4.81e-4 0.59346,-0.349903 0.87076,-0.553304 0.62277,-0.456828 1.05728,-0.950364 1.60246,-1.504182 0.30643,-0.35631 0.61857,-0.707794 0.91931,-1.068931 0.90914,-1.09174 1.1284,-1.46299 2.13061,-2.531318 0.48037,-0.51206 0.99291,-0.992979 1.4871,-1.491708 1.83361,-1.850424 1.41967,-1.434281 3.21845,-3.315151 0.50968,-0.52599 1.01441,-1.056834 1.52907,-1.577968 0.479,-0.485038 0.96154,-0.966708 1.45177,-1.440402 1.50494,-1.454185 1.08739,-0.996325 2.54316,-2.349202 0.7689,-0.71456 0.95781,-0.916361 1.64621,-1.6090152 0.15459,-0.145529 -1.9035,-2.3318222 -2.05809,-2.1862932 v 0 c -0.34326,0.1605204 -0.69434,0.3053031 -1.02979,0.4815616 -1.05603,0.5548733 -1.76037,1.0213906 -2.74379,1.7347894 -1.7718,1.2853154 -3.4251,2.7225514 -4.97447,4.2681434 -0.55425,0.59617 -1.13437,1.169296 -1.66274,1.78851 -1.25238,1.467681 -1.66685,2.149226 -2.6944,3.733362 -0.24968,0.384918 -1.48894,2.339916 -1.77481,2.813544 -0.23263,0.385403 -0.45156,0.778905 -0.67733,1.168358 -0.16465,0.324291 -0.33579,0.645364 -0.49394,0.972873 -0.10435,0.216099 -0.25932,0.419906 -0.29331,0.65746 -0.0107,0.07454 0.11375,0.100515 0.17963,0.13698 0.39921,0.220965 0.78484,0.476793 1.21321,0.633956 0.17532,0.06432 -0.40607,-0.818297 -0.0996,-0.551315 -0.26193,-1.186435 -0.6055,-2.352751 -0.87096,-3.538509 -0.0815,-0.274521 -0.15467,-0.551644 -0.24446,-0.823562 -0.17378,-0.526292 -0.36475,-1.003934 -0.59671,-1.505682 -0.12278,-0.265589 -0.32284,-0.669979 -0.50263,-0.92518 -0.0376,-0.05332 -0.0899,-0.09446 -0.13491,-0.141696 -0.0221,-0.132265 -1.89265,0.180763 -1.87051,0.313028 z" /></g><g
       id="g26"
       transform="matrix(0.84108155,0,0,0.84108155,149.54281,-8.150418)"><rect
         style="fill:#ffffff;fill-opacity:1;stroke:#141414;stroke-width:1.88976;stroke-linecap:round;stroke-linejoin:round;stroke-dasharray:none;stroke-opacity:1"
         id="rect26"
         width="18.238935"
         height="18.238939"
         x="135.80508"
         y="11.767735"
         rx="0"
         ry="0" /><path
         style="fill:#141414;fill-opacity:1;stroke:none;stroke-width:0.909267;stroke-linecap:round;stroke-linejoin:round;stroke-dasharray:none;stroke-opacity:1"
         id="path26"
         d="m 138.33799,18.773644 c -0.0845,1.280698 0.28679,2.535705 0.64582,3.750159 0.41995,1.184386 0.81404,2.383303 1.35636,3.518841 0.39237,0.805098 0.61319,1.140008 1.92856,1.141853 0.34389,4.81e-4 0.59346,-0.349903 0.87076,-0.553304 0.62277,-0.456828 1.05728,-0.950364 1.60246,-1.504182 0.30643,-0.35631 0.61857,-0.707794 0.91931,-1.068931 0.90914,-1.09174 1.1284,-1.46299 2.13061,-2.531318 0.48037,-0.51206 0.99291,-0.992979 1.4871,-1.491708 1.83361,-1.850424 1.41967,-1.434281 3.21845,-3.315151 0.50968,-0.52599 1.01441,-1.056834 1.52907,-1.577968 0.479,-0.485038 0.96154,-0.966708 1.45177,-1.440402 1.50494,-1.454185 1.08739,-0.996325 2.54316,-2.349202 0.7689,-0.71456 0.95781,-0.916361 1.64621,-1.6090152 0.15459,-0.145529 -1.9035,-2.3318222 -2.05809,-2.1862932 v 0 c -0.34326,0.1605204 -0.69434,0.3053031 -1.02979,0.4815616 -1.05603,0.5548733 -1.76037,1.0213906 -2.74379,1.7347894 -1.7718,1.2853154 -3.4251,2.7225514 -4.97447,4.2681434 -0.55425,0.59617 -1.13437,1.169296 -1.66274,1.78851 -1.25238,1.467681 -1.66685,2.149226 -2.6944,3.733362 -0.24968,0.384918 -1.48894,2.339916 -1.77481,2.813544 -0.23263,0.385403 -0.45156,0.778905 -0.67733,1.168358 -0.16465,0.324291 -0.33579,0.645364 -0.49394,0.972873 -0.10435,0.216099 -0.25932,0.419906 -0.29331,0.65746 -0.0107,0.07454 0.11375,0.100515 0.17963,0.13698 0.39921,0.220965 0.78484,0.476793 1.21321,0.633956 0.17532,0.06432 -0.40607,-0.818297 -0.0996,-0.551315 -0.26193,-1.186435 -0.6055,-2.352751 -0.87096,-3.538509 -0.0815,-0.274521 -0.15467,-0.551644 -0.24446,-0.823562 -0.17378,-0.526292 -0.36475,-1.003934 -0.59671,-1.505682 -0.12278,-0.265589 -0.32284,-0.669979 -0.50263,-0.92518 -0.0376,-0.05332 -0.0899,-0.09446 -0.13491,-0.141696 -0.0221,-0.132265 -1.89265,0.180763 -1.87051,0.313028 z" /></g><rect
       style="fill:#00d584;fill-opacity:1;stroke:none;stroke-width:1.88976;stroke-linecap:round;stroke-linejoin:round;stroke-dasharray:none;stroke-opacity:1"
       id="rect27"
       width="95.264565"
       height="60.294025"
       x="433.67285"
       y="-32.96014"
       rx="8.5713692"
       ry="8.5713692" /><g
       id="g28"
       transform="matrix(1.2305796,0,0,1.2305796,-617.1591,-276.59858)"
       style="fill:#404040;fill-opacity:1;stroke-width:0.812625"><rect
         style="fill:#404040;fill-opacity:1;stroke:none;stroke-width:1.27062"
         id="rect28"
         width="18.496925"
         height="18.101717"
         x="804.22711"
         y="213.43411" /><path
         id="path28"
         style="fill:#404040;fill-opacity:1;stroke:none;stroke-width:1.27108"
         d="m 817.46351,204.81714 v 35.33565 l 17.85474,-17.85474 -17.48092,-17.48091 z" /></g><g
       id="g39"
       transform="translate(122.85448,-25.685058)"><rect
         style="fill:#272727;fill-opacity:1;stroke:none;stroke-width:1.88976;stroke-linecap:round;stroke-linejoin:round;stroke-dasharray:none;stroke-opacity:1"
         id="rect29"
         width="50.143063"
         height="31.27499"
         x="333.37909"
         y="7.234437" /><g
         id="g38"
         transform="matrix(1,0,0,0.59613645,0,5.2737829)"><rect
           style="fill:#b4610a;fill-opacity:1;stroke:none;stroke-width:1.88976;stroke-linecap:round;stroke-linejoin:round;stroke-dasharray:none;stroke-opacity:1"
           id="rect30"
           width="23.129116"
           height="3.9436741"
           x="337.99109"
           y="13.058329" /><rect
           style="fill:#b4610a;fill-opacity:1;stroke:none;stroke-width:1.45084;stroke-linecap:round;stroke-linejoin:round;stroke-dasharray:none;stroke-opacity:1"
           id="rect31"
           width="13.632807"
           height="3.9436741"
           x="337.99109"
           y="29.694033" /><rect
           style="fill:#b4610a;fill-opacity:1;stroke:none;stroke-width:1.73904;stroke-linecap:round;stroke-linejoin:round;stroke-dasharray:none;stroke-opacity:1"
           id="rect32"
           width="19.586842"
           height="3.9436741"
           x="337.99109"
           y="35.239265" /><rect
           style="fill:#0ab492;fill-opacity:1;stroke:none;stroke-width:1.73904;stroke-linecap:round;stroke-linejoin:round;stroke-dasharray:none;stroke-opacity:1"
           id="rect33"
           width="19.586842"
           height="3.9436741"
           x="337.99109"
           y="18.603563" /><rect
           style="fill:#b40a9f;fill-opacity:1;stroke:none;stroke-width:1.5098;stroke-linecap:round;stroke-linejoin:round;stroke-dasharray:none;stroke-opacity:1"
           id="rect34"
           width="14.763319"
           height="3.9436741"
           x="359.1795"
           y="18.603563" /><rect
           style="fill:#b40a9f;fill-opacity:1;stroke:none;stroke-width:1.37676;stroke-linecap:round;stroke-linejoin:round;stroke-dasharray:none;stroke-opacity:1"
           id="rect35"
           width="12.276191"
           height="3.9436741"
           x="337.99109"
           y="24.148798" /><rect
           style="fill:#0ab492;fill-opacity:1;stroke:none;stroke-width:1.52895;stroke-linecap:round;stroke-linejoin:round;stroke-dasharray:none;stroke-opacity:1"
           id="rect36"
           width="15.140157"
           height="3.9436741"
           x="353.22546"
           y="29.694033" /><rect
           style="fill:#0ab492;fill-opacity:1;stroke:none;stroke-width:1.18114;stroke-linecap:round;stroke-linejoin:round;stroke-dasharray:none;stroke-opacity:1"
           id="rect37"
           width="9.035387"
           height="3.9436741"
           x="337.99109"
           y="40.784496" /><rect
           style="fill:#b40a9f;fill-opacity:1;stroke:none;stroke-width:1.44682;stroke-linecap:round;stroke-linejoin:round;stroke-dasharray:none;stroke-opacity:1"
           id="rect38"
           width="13.557439"
           height="3.9436741"
           x="348.62805"
           y="40.784496" /></g></g><text
       xml:space="preserve"
       style="font-style:normal;font-variant:normal;font-weight:normal;font-stretch:normal;font-size:17.998px;line-height:1.25;font-family:Calibri;-inkscape-font-specification:Calibri;letter-spacing:0px;word-spacing:0px;fill:#0097a7;fill-opacity:1;stroke:none;stroke-width:1.51038"
       x="301.87991"
       y="53.962345"
       id="text40"><tspan
         sodipodi:role="line"
         style="font-style:normal;font-variant:normal;font-weight:bold;font-stretch:normal;font-family:Calibri;-inkscape-font-specification:'Calibri Bold';text-align:center;text-anchor:middle;fill:#0097a7;fill-opacity:1;stroke-width:1.51038"
         x="301.87991"
         y="53.962345"
         id="tspan39">Fixed-function</tspan><tspan
         sodipodi:role="line"
         style="font-style:normal;font-variant:normal;font-weight:bold;font-stretch:normal;font-family:Calibri;-inkscape-font-specification:'Calibri Bold';text-align:center;text-anchor:middle;fill:#0097a7;fill-opacity:1;stroke-width:1.51038"
         x="301.87991"
         y="76.459846"
         id="tspan40">stage</tspan></text><text
       xml:space="preserve"
       style="font-style:normal;font-variant:normal;font-weight:normal;font-stretch:normal;font-size:17.998px;line-height:1.25;font-family:Calibri;-inkscape-font-specification:Calibri;letter-spacing:0px;word-spacing:0px;fill:#00a667;fill-opacity:1;stroke:none;stroke-width:1.51038"
       x="481.0415"
       y="53.962345"
       id="text42"><tspan
         sodipodi:role="line"
         style="font-style:normal;font-variant:normal;font-weight:bold;font-stretch:normal;font-family:Calibri;-inkscape-font-specification:'Calibri Bold';text-align:center;text-anchor:middle;fill:#00a667;fill-opacity:1;stroke-width:1.51038"
         x="481.0415"
         y="53.962345"
         id="tspan41">Programmable</tspan><tspan
         sodipodi:role="line"
         style="font-style:normal;font-variant:normal;font-weight:bold;font-stretch:normal;font-family:Calibri;-inkscape-font-specification:'Calibri Bold';text-align:center;text-anchor:middle;fill:#00a667;fill-opacity:1;stroke-width:1.51038"
         x="481.0415"
         y="76.459846"
         id="tspan42">stage</tspan></text><g
       id="g43"
       transform="matrix(1.2305796,0,0,1.2305796,-437.82176,-276.59858)"
       style="fill:#404040;fill-opacity:1;stroke-width:0.812625"><rect
         style="fill:#404040;fill-opacity:1;stroke:none;stroke-width:1.27062"
         id="rect43"
         width="18.496925"
         height="18.101717"
         x="804.22711"
         y="213.43411" /><path
         id="path43"
         style="fill:#404040;fill-opacity:1;stroke:none;stroke-width:1.27108"
         d="m 817.46351,204.81714 v 35.33565 l 17.85474,-17.85474 -17.48092,-17.48091 z" /></g><rect
       style="fill:#bdbdbd;fill-opacity:1;stroke:none;stroke-width:1.88976;stroke-linecap:round;stroke-linejoin:round;stroke-dasharray:none;stroke-opacity:1"
       id="rect44"
       width="95.264565"
       height="60.294025"
       x="613.01007"
       y="-32.96014"
       rx="8.5713692"
       ry="8.5713692" /><g
       id="g45"
       transform="matrix(0.84108155,0,0,0.84108155,508.21746,-32.451978)"><rect
         style="fill:#ffffff;fill-opacity:1;stroke:#141414;stroke-width:1.88976;stroke-linecap:round;stroke-linejoin:round;stroke-dasharray:none;stroke-opacity:1"
         id="rect45"
         width="18.238935"
         height="18.238939"
         x="135.80508"
         y="11.767735"
         rx="0"
         ry="0" /><path
         style="fill:#141414;fill-opacity:1;stroke:none;stroke-width:0.909267;stroke-linecap:round;stroke-linejoin:round;stroke-dasharray:none;stroke-opacity:1"
         id="path45"
         d="m 138.33799,18.773644 c -0.0845,1.280698 0.28679,2.535705 0.64582,3.750159 0.41995,1.184386 0.81404,2.383303 1.35636,3.518841 0.39237,0.805098 0.61319,1.140008 1.92856,1.141853 0.34389,4.81e-4 0.59346,-0.349903 0.87076,-0.553304 0.62277,-0.456828 1.05728,-0.950364 1.60246,-1.504182 0.30643,-0.35631 0.61857,-0.707794 0.91931,-1.068931 0.90914,-1.09174 1.1284,-1.46299 2.13061,-2.531318 0.48037,-0.51206 0.99291,-0.992979 1.4871,-1.491708 1.83361,-1.850424 1.41967,-1.434281 3.21845,-3.315151 0.50968,-0.52599 1.01441,-1.056834 1.52907,-1.577968 0.479,-0.485038 0.96154,-0.966708 1.45177,-1.440402 1.50494,-1.454185 1.08739,-0.996325 2.54316,-2.349202 0.7689,-0.71456 0.95781,-0.916361 1.64621,-1.6090152 0.15459,-0.145529 -1.9035,-2.3318222 -2.05809,-2.1862932 v 0 c -0.34326,0.1605204 -0.69434,0.3053031 -1.02979,0.4815616 -1.05603,0.5548733 -1.76037,1.0213906 -2.74379,1.7347894 -1.7718,1.2853154 -3.4251,2.7225514 -4.97447,4.2681434 -0.55425,0.59617 -1.13437,1.169296 -1.66274,1.78851 -1.25238,1.467681 -1.66685,2.149226 -2.6944,3.733362 -0.24968,0.384918 -1.48894,2.339916 -1.77481,2.813544 -0.23263,0.385403 -0.45156,0.778905 -0.67733,1.168358 -0.16465,0.324291 -0.33579,0.645364 -0.49394,0.972873 -0.10435,0.216099 -0.25932,0.419906 -0.29331,0.65746 -0.0107,0.07454 0.11375,0.100515 0.17963,0.13698 0.39921,0.220965 0.78484,0.476793 1.21321,0.633956 0.17532,0.06432 -0.40607,-0.818297 -0.0996,-0.551315 -0.26193,-1.186435 -0.6055,-2.352751 -0.87096,-3.538509 -0.0815,-0.274521 -0.15467,-0.551644 -0.24446,-0.823562 -0.17378,-0.526292 -0.36475,-1.003934 -0.59671,-1.505682 -0.12278,-0.265589 -0.32284,-0.669979 -0.50263,-0.92518 -0.0376,-0.05332 -0.0899,-0.09446 -0.13491,-0.141696 -0.0221,-0.132265 -1.89265,0.180763 -1.87051,0.313028 z" /></g><g
       id="g46"
       transform="matrix(0.84108155,0,0,0.84108155,508.21746,-8.150418)"><rect
         style="fill:#ffffff;fill-opacity:1;stroke:#141414;stroke-width:1.88976;stroke-linecap:round;stroke-linejoin:round;stroke-dasharray:none;stroke-opacity:1"
         id="rect46"
         width="18.238935"
         height="18.238939"
         x="135.80508"
         y="11.767735"
         rx="0"
         ry="0" /><path
         style="fill:#141414;fill-opacity:1;stroke:none;stroke-width:0.909267;stroke-linecap:round;stroke-linejoin:round;stroke-dasharray:none;stroke-opacity:1"
         id="path46"
         d="m 138.33799,18.773644 c -0.0845,1.280698 0.28679,2.535705 0.64582,3.750159 0.41995,1.184386 0.81404,2.383303 1.35636,3.518841 0.39237,0.805098 0.61319,1.140008 1.92856,1.141853 0.34389,4.81e-4 0.59346,-0.349903 0.87076,-0.553304 0.62277,-0.456828 1.05728,-0.950364 1.60246,-1.504182 0.30643,-0.35631 0.61857,-0.707794 0.91931,-1.068931 0.90914,-1.09174 1.1284,-1.46299 2.13061,-2.531318 0.48037,-0.51206 0.99291,-0.992979 1.4871,-1.491708 1.83361,-1.850424 1.41967,-1.434281 3.21845,-3.315151 0.50968,-0.52599 1.01441,-1.056834 1.52907,-1.577968 0.479,-0.485038 0.96154,-0.966708 1.45177,-1.440402 1.50494,-1.454185 1.08739,-0.996325 2.54316,-2.349202 0.7689,-0.71456 0.95781,-0.916361 1.64621,-1.6090152 0.15459,-0.145529 -1.9035,-2.3318222 -2.05809,-2.1862932 v 0 c -0.34326,0.1605204 -0.69434,0.3053031 -1.02979,0.4815616 -1.05603,0.5548733 -1.76037,1.0213906 -2.74379,1.7347894 -1.7718,1.2853154 -3.4251,2.7225514 -4.97447,4.2681434 -0.55425,0.59617 -1.13437,1.169296 -1.66274,1.78851 -1.25238,1.467681 -1.66685,2.149226 -2.6944,3.733362 -0.24968,0.384918 -1.48894,2.339916 -1.77481,2.813544 -0.23263,0.385403 -0.45156,0.778905 -0.67733,1.168358 -0.16465,0.324291 -0.33579,0.645364 -0.49394,0.972873 -0.10435,0.216099 -0.25932,0.419906 -0.29331,0.65746 -0.0107,0.07454 0.11375,0.100515 0.17963,0.13698 0.39921,0.220965 0.78484,0.476793 1.21321,0.633956 0.17532,0.06432 -0.40607,-0.818297 -0.0996,-0.551315 -0.26193,-1.186435 -0.6055,-2.352751 -0.87096,-3.538509 -0.0815,-0.274521 -0.15467,-0.551644 -0.24446,-0.823562 -0.17378,-0.526292 -0.36475,-1.003934 -0.59671,-1.505682 -0.12278,-0.265589 -0.32284,-0.669979 -0.50263,-0.92518 -0.0376,-0.05332 -0.0899,-0.09446 -0.13491,-0.141696 -0.0221,-0.132265 -1.89265,0.180763 -1.87051,0.313028 z" /></g><text
       xml:space="preserve"
       style="font-style:normal;font-variant:normal;font-weight:normal;font-stretch:normal;font-size:17.998px;line-height:1.25;font-family:Calibri;-inkscape-font-specification:Calibri;letter-spacing:0px;word-spacing:0px;fill:#0097a7;fill-opacity:1;stroke:none;stroke-width:1.51038"
       x="660.5545"
       y="53.962345"
       id="text47"><tspan
         sodipodi:role="line"
         style="font-style:normal;font-variant:normal;font-weight:bold;font-stretch:normal;font-family:Calibri;-inkscape-font-specification:'Calibri Bold';text-align:center;text-anchor:middle;fill:#0097a7;fill-opacity:1;stroke-width:1.51038"
         x="660.5545"
         y="53.962345"
         id="tspan46">Fixed-function</tspan><tspan
         sodipodi:role="line"
         style="font-style:normal;font-variant:normal;font-weight:bold;font-stretch:normal;font-family:Calibri;-inkscape-font-specification:'Calibri Bold';text-align:center;text-anchor:middle;fill:#0097a7;fill-opacity:1;stroke-width:1.51038"
         x="660.5545"
         y="76.459846"
         id="tspan47">stage</tspan></text><rect
       style="fill:#131416;fill-opacity:1;stroke:none;stroke-width:2.94113;stroke-linecap:round;stroke-linejoin:round;stroke-dasharray:none;stroke-opacity:1"
       id="rect47"
       width="993.74463"
       height="235.21822"
       x="-193.38834"
       y="165.36951" /><rect
       style="fill:#c0c0c0;fill-opacity:1;stroke:none;stroke-width:1.88976;stroke-linecap:round;stroke-linejoin:round;stroke-dasharray:none;stroke-opacity:1"
       id="rect48"
       width="95.264565"
       height="60.294025"
       x="-103.13328"
       y="226.70074"
       rx="8.5713692"
       ry="8.5713692" /><g
       id="g49"
       transform="matrix(0.84108155,0,0,0.84108155,-207.92595,227.20891)"><rect
         style="fill:#ffffff;fill-opacity:1;stroke:#141414;stroke-width:1.88976;stroke-linecap:round;stroke-linejoin:round;stroke-dasharray:none;stroke-opacity:1"
         id="rect49"
         width="18.238935"
         height="18.238939"
         x="135.80508"
         y="11.767735"
         rx="0"
         ry="0" /><path
         style="fill:#141414;fill-opacity:1;stroke:none;stroke-width:0.909267;stroke-linecap:round;stroke-linejoin:round;stroke-dasharray:none;stroke-opacity:1"
         id="path49"
         d="m 138.33799,18.773644 c -0.0845,1.280698 0.28679,2.535705 0.64582,3.750159 0.41995,1.184386 0.81404,2.383303 1.35636,3.518841 0.39237,0.805098 0.61319,1.140008 1.92856,1.141853 0.34389,4.81e-4 0.59346,-0.349903 0.87076,-0.553304 0.62277,-0.456828 1.05728,-0.950364 1.60246,-1.504182 0.30643,-0.35631 0.61857,-0.707794 0.91931,-1.068931 0.90914,-1.09174 1.1284,-1.46299 2.13061,-2.531318 0.48037,-0.51206 0.99291,-0.992979 1.4871,-1.491708 1.83361,-1.850424 1.41967,-1.434281 3.21845,-3.315151 0.50968,-0.52599 1.01441,-1.056834 1.52907,-1.577968 0.479,-0.485038 0.96154,-0.966708 1.45177,-1.440402 1.50494,-1.454185 1.08739,-0.996325 2.54316,-2.349202 0.7689,-0.71456 0.95781,-0.916361 1.64621,-1.6090152 0.15459,-0.145529 -1.9035,-2.3318222 -2.05809,-2.1862932 v 0 c -0.34326,0.1605204 -0.69434,0.3053031 -1.02979,0.4815616 -1.05603,0.5548733 -1.76037,1.0213906 -2.74379,1.7347894 -1.7718,1.2853154 -3.4251,2.7225514 -4.97447,4.2681434 -0.55425,0.59617 -1.13437,1.169296 -1.66274,1.78851 -1.25238,1.467681 -1.66685,2.149226 -2.6944,3.733362 -0.24968,0.384918 -1.48894,2.339916 -1.77481,2.813544 -0.23263,0.385403 -0.45156,0.778905 -0.67733,1.168358 -0.16465,0.324291 -0.33579,0.645364 -0.49394,0.972873 -0.10435,0.216099 -0.25932,0.419906 -0.29331,0.65746 -0.0107,0.07454 0.11375,0.100515 0.17963,0.13698 0.39921,0.220965 0.78484,0.476793 1.21321,0.633956 0.17532,0.06432 -0.40607,-0.818297 -0.0996,-0.551315 -0.26193,-1.186435 -0.6055,-2.352751 -0.87096,-3.538509 -0.0815,-0.274521 -0.15467,-0.551644 -0.24446,-0.823562 -0.17378,-0.526292 -0.36475,-1.003934 -0.59671,-1.505682 -0.12278,-0.265589 -0.32284,-0.669979 -0.50263,-0.92518 -0.0376,-0.05332 -0.0899,-0.09446 -0.13491,-0.141696 -0.0221,-0.132265 -1.89265,0.180763 -1.87051,0.313028 z" /></g><g
       id="g50"
       transform="matrix(0.84108155,0,0,0.84108155,-207.92595,251.51047)"><rect
         style="fill:#ffffff;fill-opacity:1;stroke:#141414;stroke-width:1.88976;stroke-linecap:round;stroke-linejoin:round;stroke-dasharray:none;stroke-opacity:1"
         id="rect50"
         width="18.238935"
         height="18.238939"
         x="135.80508"
         y="11.767735"
         rx="0"
         ry="0" /><path
         style="fill:#141414;fill-opacity:1;stroke:none;stroke-width:0.909267;stroke-linecap:round;stroke-linejoin:round;stroke-dasharray:none;stroke-opacity:1"
         id="path50"
         d="m 138.33799,18.773644 c -0.0845,1.280698 0.28679,2.535705 0.64582,3.750159 0.41995,1.184386 0.81404,2.383303 1.35636,3.518841 0.39237,0.805098 0.61319,1.140008 1.92856,1.141853 0.34389,4.81e-4 0.59346,-0.349903 0.87076,-0.553304 0.62277,-0.456828 1.05728,-0.950364 1.60246,-1.504182 0.30643,-0.35631 0.61857,-0.707794 0.91931,-1.068931 0.90914,-1.09174 1.1284,-1.46299 2.13061,-2.531318 0.48037,-0.51206 0.99291,-0.992979 1.4871,-1.491708 1.83361,-1.850424 1.41967,-1.434281 3.21845,-3.315151 0.50968,-0.52599 1.01441,-1.056834 1.52907,-1.577968 0.479,-0.485038 0.96154,-0.966708 1.45177,-1.440402 1.50494,-1.454185 1.08739,-0.996325 2.54316,-2.349202 0.7689,-0.71456 0.95781,-0.916361 1.64621,-1.6090152 0.15459,-0.145529 -1.9035,-2.3318222 -2.05809,-2.1862932 v 0 c -0.34326,0.1605204 -0.69434,0.3053031 -1.02979,0.4815616 -1.05603,0.5548733 -1.76037,1.0213906 -2.74379,1.7347894 -1.7718,1.2853154 -3.4251,2.7225514 -4.97447,4.2681434 -0.55425,0.59617 -1.13437,1.169296 -1.66274,1.78851 -1.25238,1.467681 -1.66685,2.149226 -2.6944,3.733362 -0.24968,0.384918 -1.48894,2.339916 -1.77481,2.813544 -0.23263,0.385403 -0.45156,0.778905 -0.67733,1.168358 -0.16465,0.324291 -0.33579,0.645364 -0.49394,0.972873 -0.10435,0.216099 -0.25932,0.419906 -0.29331,0.65746 -0.0107,0.07454 0.11375,0.100515 0.17963,0.13698 0.39921,0.220965 0.78484,0.476793 1.21321,0.633956 0.17532,0.06432 -0.40607,-0.818297 -0.0996,-0.551315 -0.26193,-1.186435 -0.6055,-2.352751 -0.87096,-3.538509 -0.0815,-0.274521 -0.15467,-0.551644 -0.24446,-0.823562 -0.17378,-0.526292 -0.36475,-1.003934 -0.59671,-1.505682 -0.12278,-0.265589 -0.32284,-0.669979 -0.50263,-0.92518 -0.0376,-0.05332 -0.0899,-0.09446 -0.13491,-0.141696 -0.0221,-0.132265 -1.89265,0.180763 -1.87051,0.313028 z" /></g><rect
       style="fill:#00d584;fill-opacity:1;stroke:none;stroke-width:1.88976;stroke-linecap:round;stroke-linejoin:round;stroke-dasharray:none;stroke-opacity:1"
       id="rect51"
       width="95.264565"
       height="60.294025"
       x="76.204056"
       y="226.70074"
       rx="8.5713692"
       ry="8.5713692" /><g
       id="g52"
       transform="matrix(1.2305796,0,0,1.2305796,-974.62786,-16.93769)"
       style="fill:#676767;fill-opacity:1;stroke-width:0.812625"><rect
         style="fill:#676767;fill-opacity:1;stroke:none;stroke-width:1.27062"
         id="rect52"
         width="18.496925"
         height="18.101717"
         x="804.22711"
         y="213.43411" /><path
         id="path52"
         style="fill:#676767;fill-opacity:1;stroke:none;stroke-width:1.27108"
         d="m 817.46351,204.81714 v 35.33565 l 17.85474,-17.85474 -17.48092,-17.48091 z" /></g><g
       id="g63"
       transform="translate(-234.61428,233.97583)"><rect
         style="fill:#272727;fill-opacity:1;stroke:none;stroke-width:1.88976;stroke-linecap:round;stroke-linejoin:round;stroke-dasharray:none;stroke-opacity:1"
         id="rect53"
         width="50.143063"
         height="31.27499"
         x="333.37909"
         y="7.234437" /><g
         id="g62"
         transform="matrix(1,0,0,0.59613645,0,5.2737829)"><rect
           style="fill:#b4610a;fill-opacity:1;stroke:none;stroke-width:1.88976;stroke-linecap:round;stroke-linejoin:round;stroke-dasharray:none;stroke-opacity:1"
           id="rect54"
           width="23.129116"
           height="3.9436741"
           x="337.99109"
           y="13.058329" /><rect
           style="fill:#b4610a;fill-opacity:1;stroke:none;stroke-width:1.45084;stroke-linecap:round;stroke-linejoin:round;stroke-dasharray:none;stroke-opacity:1"
           id="rect55"
           width="13.632807"
           height="3.9436741"
           x="337.99109"
           y="29.694033" /><rect
           style="fill:#b4610a;fill-opacity:1;stroke:none;stroke-width:1.73904;stroke-linecap:round;stroke-linejoin:round;stroke-dasharray:none;stroke-opacity:1"
           id="rect56"
           width="19.586842"
           height="3.9436741"
           x="337.99109"
           y="35.239265" /><rect
           style="fill:#0ab492;fill-opacity:1;stroke:none;stroke-width:1.73904;stroke-linecap:round;stroke-linejoin:round;stroke-dasharray:none;stroke-opacity:1"
           id="rect57"
           width="19.586842"
           height="3.9436741"
           x="337.99109"
           y="18.603563" /><rect
           style="fill:#b40a9f;fill-opacity:1;stroke:none;stroke-width:1.5098;stroke-linecap:round;stroke-linejoin:round;stroke-dasharray:none;stroke-opacity:1"
           id="rect58"
           width="14.763319"
           height="3.9436741"
           x="359.1795"
           y="18.603563" /><rect
           style="fill:#b40a9f;fill-opacity:1;stroke:none;stroke-width:1.37676;stroke-linecap:round;stroke-linejoin:round;stroke-dasharray:none;stroke-opacity:1"
           id="rect59"
           width="12.276191"
           height="3.9436741"
           x="337.99109"
           y="24.148798" /><rect
           style="fill:#0ab492;fill-opacity:1;stroke:none;stroke-width:1.52895;stroke-linecap:round;stroke-linejoin:round;stroke-dasharray:none;stroke-opacity:1"
           id="rect60"
           width="15.140157"
           height="3.9436741"
           x="353.22546"
           y="29.694033" /><rect
           style="fill:#0ab492;fill-opacity:1;stroke:none;stroke-width:1.18114;stroke-linecap:round;stroke-linejoin:round;stroke-dasharray:none;stroke-opacity:1"
           id="rect61"
           width="9.035387"
           height="3.9436741"
           x="337.99109"
           y="40.784496" /><rect
           style="fill:#b40a9f;fill-opacity:1;stroke:none;stroke-width:1.44682;stroke-linecap:round;stroke-linejoin:round;stroke-dasharray:none;stroke-opacity:1"
           id="rect62"
           width="13.557439"
           height="3.9436741"
           x="348.62805"
           y="40.784496" /></g></g><text
       xml:space="preserve"
       style="font-style:normal;font-variant:normal;font-weight:normal;font-stretch:normal;font-size:17.998px;line-height:1.25;font-family:Calibri;-inkscape-font-specification:Calibri;letter-spacing:0px;word-spacing:0px;fill:#ffffff;fill-opacity:1;stroke:none;stroke-width:1.51038"
       x="-55.588871"
       y="313.62323"
       id="text64"><tspan
         sodipodi:role="line"
         style="font-style:normal;font-variant:normal;font-weight:bold;font-stretch:normal;font-family:Calibri;-inkscape-font-specification:'Calibri Bold';text-align:center;text-anchor:middle;fill:#ffffff;fill-opacity:1;stroke-width:1.51038"
         x="-55.588871"
         y="313.62323"
         id="tspan63">Fixed-function</tspan><tspan
         sodipodi:role="line"
         style="font-style:normal;font-variant:normal;font-weight:bold;font-stretch:normal;font-family:Calibri;-inkscape-font-specification:'Calibri Bold';text-align:center;text-anchor:middle;fill:#ffffff;fill-opacity:1;stroke-width:1.51038"
         x="-55.588871"
         y="336.12073"
         id="tspan64">stage</tspan></text><text
       xml:space="preserve"
       style="font-style:normal;font-variant:normal;font-weight:normal;font-stretch:normal;font-size:17.998px;line-height:1.25;font-family:Calibri;-inkscape-font-specification:Calibri;letter-spacing:0px;word-spacing:0px;fill:#00a667;fill-opacity:1;stroke:none;stroke-width:1.51038"
       x="123.5727"
       y="313.62323"
       id="text66"><tspan
         sodipodi:role="line"
         style="font-style:normal;font-variant:normal;font-weight:bold;font-stretch:normal;font-family:Calibri;-inkscape-font-specification:'Calibri Bold';text-align:center;text-anchor:middle;fill:#00a667;fill-opacity:1;stroke-width:1.51038"
         x="123.5727"
         y="313.62323"
         id="tspan65">Programmable</tspan><tspan
         sodipodi:role="line"
         style="font-style:normal;font-variant:normal;font-weight:bold;font-stretch:normal;font-family:Calibri;-inkscape-font-specification:'Calibri Bold';text-align:center;text-anchor:middle;fill:#00a667;fill-opacity:1;stroke-width:1.51038"
         x="123.5727"
         y="336.12073"
         id="tspan66">stage</tspan></text><g
       id="g66"
       transform="matrix(1.2305796,0,0,1.2305796,-795.29053,-16.93769)"
       style="fill:#676767;fill-opacity:1;stroke-width:0.812625"><rect
         style="fill:#676767;fill-opacity:1;stroke:none;stroke-width:1.27062"
         id="rect66"
         width="18.496925"
         height="18.101717"
         x="804.22711"
         y="213.43411" /><path
         id="path66"
         style="fill:#676767;fill-opacity:1;stroke:none;stroke-width:1.27108"
         d="m 817.46351,204.81714 v 35.33565 l 17.85474,-17.85474 -17.48092,-17.48091 z" /></g><rect
       style="fill:#c0c0c0;fill-opacity:1;stroke:none;stroke-width:1.88976;stroke-linecap:round;stroke-linejoin:round;stroke-dasharray:none;stroke-opacity:1"
       id="rect67"
       width="95.264565"
       height="60.294025"
       x="255.5414"
       y="226.70074"
       rx="8.5713692"
       ry="8.5713692" /><g
       id="g68"
       transform="matrix(0.84108155,0,0,0.84108155,150.74869,227.20891)"><rect
         style="fill:#ffffff;fill-opacity:1;stroke:#141414;stroke-width:1.88976;stroke-linecap:round;stroke-linejoin:round;stroke-dasharray:none;stroke-opacity:1"
         id="rect68"
         width="18.238935"
         height="18.238939"
         x="135.80508"
         y="11.767735"
         rx="0"
         ry="0" /><path
         style="fill:#141414;fill-opacity:1;stroke:none;stroke-width:0.909267;stroke-linecap:round;stroke-linejoin:round;stroke-dasharray:none;stroke-opacity:1"
         id="path68"
         d="m 138.33799,18.773644 c -0.0845,1.280698 0.28679,2.535705 0.64582,3.750159 0.41995,1.184386 0.81404,2.383303 1.35636,3.518841 0.39237,0.805098 0.61319,1.140008 1.92856,1.141853 0.34389,4.81e-4 0.59346,-0.349903 0.87076,-0.553304 0.62277,-0.456828 1.05728,-0.950364 1.60246,-1.504182 0.30643,-0.35631 0.61857,-0.707794 0.91931,-1.068931 0.90914,-1.09174 1.1284,-1.46299 2.13061,-2.531318 0.48037,-0.51206 0.99291,-0.992979 1.4871,-1.491708 1.83361,-1.850424 1.41967,-1.434281 3.21845,-3.315151 0.50968,-0.52599 1.01441,-1.056834 1.52907,-1.577968 0.479,-0.485038 0.96154,-0.966708 1.45177,-1.440402 1.50494,-1.454185 1.08739,-0.996325 2.54316,-2.349202 0.7689,-0.71456 0.95781,-0.916361 1.64621,-1.6090152 0.15459,-0.145529 -1.9035,-2.3318222 -2.05809,-2.1862932 v 0 c -0.34326,0.1605204 -0.69434,0.3053031 -1.02979,0.4815616 -1.05603,0.5548733 -1.76037,1.0213906 -2.74379,1.7347894 -1.7718,1.2853154 -3.4251,2.7225514 -4.97447,4.2681434 -0.55425,0.59617 -1.13437,1.169296 -1.66274,1.78851 -1.25238,1.467681 -1.66685,2.149226 -2.6944,3.733362 -0.24968,0.384918 -1.48894,2.339916 -1.77481,2.813544 -0.23263,0.385403 -0.45156,0.778905 -0.67733,1.168358 -0.16465,0.324291 -0.33579,0.645364 -0.49394,0.972873 -0.10435,0.216099 -0.25932,0.419906 -0.29331,0.65746 -0.0107,0.07454 0.11375,0.100515 0.17963,0.13698 0.39921,0.220965 0.78484,0.476793 1.21321,0.633956 0.17532,0.06432 -0.40607,-0.818297 -0.0996,-0.551315 -0.26193,-1.186435 -0.6055,-2.352751 -0.87096,-3.538509 -0.0815,-0.274521 -0.15467,-0.551644 -0.24446,-0.823562 -0.17378,-0.526292 -0.36475,-1.003934 -0.59671,-1.505682 -0.12278,-0.265589 -0.32284,-0.669979 -0.50263,-0.92518 -0.0376,-0.05332 -0.0899,-0.09446 -0.13491,-0.141696 -0.0221,-0.132265 -1.89265,0.180763 -1.87051,0.313028 z" /></g><g
       id="g69"
       transform="matrix(0.84108155,0,0,0.84108155,150.74869,251.51047)"><rect
         style="fill:#ffffff;fill-opacity:1;stroke:#141414;stroke-width:1.88976;stroke-linecap:round;stroke-linejoin:round;stroke-dasharray:none;stroke-opacity:1"
         id="rect69"
         width="18.238935"
         height="18.238939"
         x="135.80508"
         y="11.767735"
         rx="0"
         ry="0" /><path
         style="fill:#141414;fill-opacity:1;stroke:none;stroke-width:0.909267;stroke-linecap:round;stroke-linejoin:round;stroke-dasharray:none;stroke-opacity:1"
         id="path69"
         d="m 138.33799,18.773644 c -0.0845,1.280698 0.28679,2.535705 0.64582,3.750159 0.41995,1.184386 0.81404,2.383303 1.35636,3.518841 0.39237,0.805098 0.61319,1.140008 1.92856,1.141853 0.34389,4.81e-4 0.59346,-0.349903 0.87076,-0.553304 0.62277,-0.456828 1.05728,-0.950364 1.60246,-1.504182 0.30643,-0.35631 0.61857,-0.707794 0.91931,-1.068931 0.90914,-1.09174 1.1284,-1.46299 2.13061,-2.531318 0.48037,-0.51206 0.99291,-0.992979 1.4871,-1.491708 1.83361,-1.850424 1.41967,-1.434281 3.21845,-3.315151 0.50968,-0.52599 1.01441,-1.056834 1.52907,-1.577968 0.479,-0.485038 0.96154,-0.966708 1.45177,-1.440402 1.50494,-1.454185 1.08739,-0.996325 2.54316,-2.349202 0.7689,-0.71456 0.95781,-0.916361 1.64621,-1.6090152 0.15459,-0.145529 -1.9035,-2.3318222 -2.05809,-2.1862932 v 0 c -0.34326,0.1605204 -0.69434,0.3053031 -1.02979,0.4815616 -1.05603,0.5548733 -1.76037,1.0213906 -2.74379,1.7347894 -1.7718,1.2853154 -3.4251,2.7225514 -4.97447,4.2681434 -0.55425,0.59617 -1.13437,1.169296 -1.66274,1.78851 -1.25238,1.467681 -1.66685,2.149226 -2.6944,3.733362 -0.24968,0.384918 -1.48894,2.339916 -1.77481,2.813544 -0.23263,0.385403 -0.45156,0.778905 -0.67733,1.168358 -0.16465,0.324291 -0.33579,0.645364 -0.49394,0.972873 -0.10435,0.216099 -0.25932,0.419906 -0.29331,0.65746 -0.0107,0.07454 0.11375,0.100515 0.17963,0.13698 0.39921,0.220965 0.78484,0.476793 1.21321,0.633956 0.17532,0.06432 -0.40607,-0.818297 -0.0996,-0.551315 -0.26193,-1.186435 -0.6055,-2.352751 -0.87096,-3.538509 -0.0815,-0.274521 -0.15467,-0.551644 -0.24446,-0.823562 -0.17378,-0.526292 -0.36475,-1.003934 -0.59671,-1.505682 -0.12278,-0.265589 -0.32284,-0.669979 -0.50263,-0.92518 -0.0376,-0.05332 -0.0899,-0.09446 -0.13491,-0.141696 -0.0221,-0.132265 -1.89265,0.180763 -1.87051,0.313028 z" /></g><rect
       style="fill:#00d584;fill-opacity:1;stroke:none;stroke-width:1.88976;stroke-linecap:round;stroke-linejoin:round;stroke-dasharray:none;stroke-opacity:1"
       id="rect70"
       width="95.264565"
       height="60.294025"
       x="434.87872"
       y="226.70074"
       rx="8.5713692"
       ry="8.5713692" /><g
       id="g71"
       transform="matrix(1.2305796,0,0,1.2305796,-615.95322,-16.93769)"
       style="fill:#676767;fill-opacity:1;stroke-width:0.812625"><rect
         style="fill:#676767;fill-opacity:1;stroke:none;stroke-width:1.27062"
         id="rect71"
         width="18.496925"
         height="18.101717"
         x="804.22711"
         y="213.43411" /><path
         id="path71"
         style="fill:#676767;fill-opacity:1;stroke:none;stroke-width:1.27108"
         d="m 817.46351,204.81714 v 35.33565 l 17.85474,-17.85474 -17.48092,-17.48091 z" /></g><g
       id="g82"
       transform="translate(124.06036,233.97583)"><rect
         style="fill:#272727;fill-opacity:1;stroke:none;stroke-width:1.88976;stroke-linecap:round;stroke-linejoin:round;stroke-dasharray:none;stroke-opacity:1"
         id="rect72"
         width="50.143063"
         height="31.27499"
         x="333.37909"
         y="7.234437" /><g
         id="g81"
         transform="matrix(1,0,0,0.59613645,0,5.2737829)"><rect
           style="fill:#b4610a;fill-opacity:1;stroke:none;stroke-width:1.88976;stroke-linecap:round;stroke-linejoin:round;stroke-dasharray:none;stroke-opacity:1"
           id="rect73"
           width="23.129116"
           height="3.9436741"
           x="337.99109"
           y="13.058329" /><rect
           style="fill:#b4610a;fill-opacity:1;stroke:none;stroke-width:1.45084;stroke-linecap:round;stroke-linejoin:round;stroke-dasharray:none;stroke-opacity:1"
           id="rect74"
           width="13.632807"
           height="3.9436741"
           x="337.99109"
           y="29.694033" /><rect
           style="fill:#b4610a;fill-opacity:1;stroke:none;stroke-width:1.73904;stroke-linecap:round;stroke-linejoin:round;stroke-dasharray:none;stroke-opacity:1"
           id="rect75"
           width="19.586842"
           height="3.9436741"
           x="337.99109"
           y="35.239265" /><rect
           style="fill:#0ab492;fill-opacity:1;stroke:none;stroke-width:1.73904;stroke-linecap:round;stroke-linejoin:round;stroke-dasharray:none;stroke-opacity:1"
           id="rect76"
           width="19.586842"
           height="3.9436741"
           x="337.99109"
           y="18.603563" /><rect
           style="fill:#b40a9f;fill-opacity:1;stroke:none;stroke-width:1.5098;stroke-linecap:round;stroke-linejoin:round;stroke-dasharray:none;stroke-opacity:1"
           id="rect77"
           width="14.763319"
           height="3.9436741"
           x="359.1795"
           y="18.603563" /><rect
           style="fill:#b40a9f;fill-opacity:1;stroke:none;stroke-width:1.37676;stroke-linecap:round;stroke-linejoin:round;stroke-dasharray:none;stroke-opacity:1"
           id="rect78"
           width="12.276191"
           height="3.9436741"
           x="337.99109"
           y="24.148798" /><rect
           style="fill:#0ab492;fill-opacity:1;stroke:none;stroke-width:1.52895;stroke-linecap:round;stroke-linejoin:round;stroke-dasharray:none;stroke-opacity:1"
           id="rect79"
           width="15.140157"
           height="3.9436741"
           x="353.22546"
           y="29.694033" /><rect
           style="fill:#0ab492;fill-opacity:1;stroke:none;stroke-width:1.18114;stroke-linecap:round;stroke-linejoin:round;stroke-dasharray:none;stroke-opacity:1"
           id="rect80"
           width="9.035387"
           height="3.9436741"
           x="337.99109"
           y="40.784496" /><rect
           style="fill:#b40a9f;fill-opacity:1;stroke:none;stroke-width:1.44682;stroke-linecap:round;stroke-linejoin:round;stroke-dasharray:none;stroke-opacity:1"
           id="rect81"
           width="13.557439"
           height="3.9436741"
           x="348.62805"
           y="40.784496" /></g></g><text
       xml:space="preserve"
       style="font-style:normal;font-variant:normal;font-weight:normal;font-stretch:normal;font-size:17.998px;line-height:1.25;font-family:Calibri;-inkscape-font-specification:Calibri;letter-spacing:0px;word-spacing:0px;fill:#ffffff;fill-opacity:1;stroke:none;stroke-width:1.51038"
       x="303.08578"
       y="313.62323"
       id="text83"><tspan
         sodipodi:role="line"
         style="font-style:normal;font-variant:normal;font-weight:bold;font-stretch:normal;font-family:Calibri;-inkscape-font-specification:'Calibri Bold';text-align:center;text-anchor:middle;fill:#ffffff;fill-opacity:1;stroke-width:1.51038"
         x="303.08578"
         y="313.62323"
         id="tspan82">Fixed-function</tspan><tspan
         sodipodi:role="line"
         style="font-style:normal;font-variant:normal;font-weight:bold;font-stretch:normal;font-family:Calibri;-inkscape-font-specification:'Calibri Bold';text-align:center;text-anchor:middle;fill:#ffffff;fill-opacity:1;stroke-width:1.51038"
         x="303.08578"
         y="336.12073"
         id="tspan83">stage</tspan></text><text
       xml:space="preserve"
       style="font-style:normal;font-variant:normal;font-weight:normal;font-stretch:normal;font-size:17.998px;line-height:1.25;font-family:Calibri;-inkscape-font-specification:Calibri;letter-spacing:0px;word-spacing:0px;fill:#00a667;fill-opacity:1;stroke:none;stroke-width:1.51038"
       x="482.24738"
       y="313.62323"
       id="text85"><tspan
         sodipodi:role="line"
         style="font-style:normal;font-variant:normal;font-weight:bold;font-stretch:normal;font-family:Calibri;-inkscape-font-specification:'Calibri Bold';text-align:center;text-anchor:middle;fill:#00a667;fill-opacity:1;stroke-width:1.51038"
         x="482.24738"
         y="313.62323"
         id="tspan84">Programmable</tspan><tspan
         sodipodi:role="line"
         style="font-style:normal;font-variant:normal;font-weight:bold;font-stretch:normal;font-family:Calibri;-inkscape-font-specification:'Calibri Bold';text-align:center;text-anchor:middle;fill:#00a667;fill-opacity:1;stroke-width:1.51038"
         x="482.24738"
         y="336.12073"
         id="tspan85">stage</tspan></text><g
       id="g85"
       transform="matrix(1.2305796,0,0,1.2305796,-436.61588,-16.93769)"
       style="fill:#676767;fill-opacity:1;stroke-width:0.812625"><rect
         style="fill:#676767;fill-opacity:1;stroke:none;stroke-width:1.27062"
         id="rect85"
         width="18.496925"
         height="18.101717"
         x="804.22711"
         y="213.43411" /><path
         id="path85"
         style="fill:#676767;fill-opacity:1;stroke:none;stroke-width:1.27108"
         d="m 817.46351,204.81714 v 35.33565 l 17.85474,-17.85474 -17.48092,-17.48091 z" /></g><rect
       style="fill:#c0c0c0;fill-opacity:1;stroke:none;stroke-width:1.88976;stroke-linecap:round;stroke-linejoin:round;stroke-dasharray:none;stroke-opacity:1"
       id="rect86"
       width="95.264565"
       height="60.294025"
       x="614.21594"
       y="226.70074"
       rx="8.5713692"
       ry="8.5713692" /><g
       id="g87"
       transform="matrix(0.84108155,0,0,0.84108155,509.42334,227.20891)"><rect
         style="fill:#ffffff;fill-opacity:1;stroke:#141414;stroke-width:1.88976;stroke-linecap:round;stroke-linejoin:round;stroke-dasharray:none;stroke-opacity:1"
         id="rect87"
         width="18.238935"
         height="18.238939"
         x="135.80508"
         y="11.767735"
         rx="0"
         ry="0" /><path
         style="fill:#141414;fill-opacity:1;stroke:none;stroke-width:0.909267;stroke-linecap:round;stroke-linejoin:round;stroke-dasharray:none;stroke-opacity:1"
         id="path87"
         d="m 138.33799,18.773644 c -0.0845,1.280698 0.28679,2.535705 0.64582,3.750159 0.41995,1.184386 0.81404,2.383303 1.35636,3.518841 0.39237,0.805098 0.61319,1.140008 1.92856,1.141853 0.34389,4.81e-4 0.59346,-0.349903 0.87076,-0.553304 0.62277,-0.456828 1.05728,-0.950364 1.60246,-1.504182 0.30643,-0.35631 0.61857,-0.707794 0.91931,-1.068931 0.90914,-1.09174 1.1284,-1.46299 2.13061,-2.531318 0.48037,-0.51206 0.99291,-0.992979 1.4871,-1.491708 1.83361,-1.850424 1.41967,-1.434281 3.21845,-3.315151 0.50968,-0.52599 1.01441,-1.056834 1.52907,-1.577968 0.479,-0.485038 0.96154,-0.966708 1.45177,-1.440402 1.50494,-1.454185 1.08739,-0.996325 2.54316,-2.349202 0.7689,-0.71456 0.95781,-0.916361 1.64621,-1.6090152 0.15459,-0.145529 -1.9035,-2.3318222 -2.05809,-2.1862932 v 0 c -0.34326,0.1605204 -0.69434,0.3053031 -1.02979,0.4815616 -1.05603,0.5548733 -1.76037,1.0213906 -2.74379,1.7347894 -1.7718,1.2853154 -3.4251,2.7225514 -4.97447,4.2681434 -0.55425,0.59617 -1.13437,1.169296 -1.66274,1.78851 -1.25238,1.467681 -1.66685,2.149226 -2.6944,3.733362 -0.24968,0.384918 -1.48894,2.339916 -1.77481,2.813544 -0.23263,0.385403 -0.45156,0.778905 -0.67733,1.168358 -0.16465,0.324291 -0.33579,0.645364 -0.49394,0.972873 -0.10435,0.216099 -0.25932,0.419906 -0.29331,0.65746 -0.0107,0.07454 0.11375,0.100515 0.17963,0.13698 0.39921,0.220965 0.78484,0.476793 1.21321,0.633956 0.17532,0.06432 -0.40607,-0.818297 -0.0996,-0.551315 -0.26193,-1.186435 -0.6055,-2.352751 -0.87096,-3.538509 -0.0815,-0.274521 -0.15467,-0.551644 -0.24446,-0.823562 -0.17378,-0.526292 -0.36475,-1.003934 -0.59671,-1.505682 -0.12278,-0.265589 -0.32284,-0.669979 -0.50263,-0.92518 -0.0376,-0.05332 -0.0899,-0.09446 -0.13491,-0.141696 -0.0221,-0.132265 -1.89265,0.180763 -1.87051,0.313028 z" /></g><g
       id="g88"
       transform="matrix(0.84108155,0,0,0.84108155,509.42334,251.51047)"><rect
         style="fill:#ffffff;fill-opacity:1;stroke:#141414;stroke-width:1.88976;stroke-linecap:round;stroke-linejoin:round;stroke-dasharray:none;stroke-opacity:1"
         id="rect88"
         width="18.238935"
         height="18.238939"
         x="135.80508"
         y="11.767735"
         rx="0"
         ry="0" /><path
         style="fill:#141414;fill-opacity:1;stroke:none;stroke-width:0.909267;stroke-linecap:round;stroke-linejoin:round;stroke-dasharray:none;stroke-opacity:1"
         id="path88"
         d="m 138.33799,18.773644 c -0.0845,1.280698 0.28679,2.535705 0.64582,3.750159 0.41995,1.184386 0.81404,2.383303 1.35636,3.518841 0.39237,0.805098 0.61319,1.140008 1.92856,1.141853 0.34389,4.81e-4 0.59346,-0.349903 0.87076,-0.553304 0.62277,-0.456828 1.05728,-0.950364 1.60246,-1.504182 0.30643,-0.35631 0.61857,-0.707794 0.91931,-1.068931 0.90914,-1.09174 1.1284,-1.46299 2.13061,-2.531318 0.48037,-0.51206 0.99291,-0.992979 1.4871,-1.491708 1.83361,-1.850424 1.41967,-1.434281 3.21845,-3.315151 0.50968,-0.52599 1.01441,-1.056834 1.52907,-1.577968 0.479,-0.485038 0.96154,-0.966708 1.45177,-1.440402 1.50494,-1.454185 1.08739,-0.996325 2.54316,-2.349202 0.7689,-0.71456 0.95781,-0.916361 1.64621,-1.6090152 0.15459,-0.145529 -1.9035,-2.3318222 -2.05809,-2.1862932 v 0 c -0.34326,0.1605204 -0.69434,0.3053031 -1.02979,0.4815616 -1.05603,0.5548733 -1.76037,1.0213906 -2.74379,1.7347894 -1.7718,1.2853154 -3.4251,2.7225514 -4.97447,4.2681434 -0.55425,0.59617 -1.13437,1.169296 -1.66274,1.78851 -1.25238,1.467681 -1.66685,2.149226 -2.6944,3.733362 -0.24968,0.384918 -1.48894,2.339916 -1.77481,2.813544 -0.23263,0.385403 -0.45156,0.778905 -0.67733,1.168358 -0.16465,0.324291 -0.33579,0.645364 -0.49394,0.972873 -0.10435,0.216099 -0.25932,0.419906 -0.29331,0.65746 -0.0107,0.07454 0.11375,0.100515 0.17963,0.13698 0.39921,0.220965 0.78484,0.476793 1.21321,0.633956 0.17532,0.06432 -0.40607,-0.818297 -0.0996,-0.551315 -0.26193,-1.186435 -0.6055,-2.352751 -0.87096,-3.538509 -0.0815,-0.274521 -0.15467,-0.551644 -0.24446,-0.823562 -0.17378,-0.526292 -0.36475,-1.003934 -0.59671,-1.505682 -0.12278,-0.265589 -0.32284,-0.669979 -0.50263,-0.92518 -0.0376,-0.05332 -0.0899,-0.09446 -0.13491,-0.141696 -0.0221,-0.132265 -1.89265,0.180763 -1.87051,0.313028 z" /></g><text
       xml:space="preserve"
       style="font-style:normal;font-variant:normal;font-weight:normal;font-stretch:normal;font-size:17.998px;line-height:1.25;font-family:Calibri;-inkscape-font-specification:Calibri;letter-spacing:0px;word-spacing:0px;fill:#ffffff;fill-opacity:1;stroke:none;stroke-width:1.51038"
       x="661.76038"
       y="313.62323"
       id="text89"><tspan
         sodipodi:role="line"
         style="font-style:normal;font-variant:normal;font-weight:bold;font-stretch:normal;font-family:Calibri;-inkscape-font-specification:'Calibri Bold';text-align:center;text-anchor:middle;fill:#ffffff;fill-opacity:1;stroke-width:1.51038"
         x="661.76038"
         y="313.62323"
         id="tspan88">Fixed-function</tspan><tspan
         sodipodi:role="line"
         style="font-style:normal;font-variant:normal;font-weight:bold;font-stretch:normal;font-family:Calibri;-inkscape-font-specification:'Calibri Bold';text-align:center;text-anchor:middle;fill:#ffffff;fill-opacity:1;stroke-width:1.51038"
         x="661.76038"
         y="336.12073"
         id="tspan89">stage</tspan></text></g></svg>
