<?xml version="1.0" encoding="UTF-8" standalone="no"?>
<!-- Created with Inkscape (http://www.inkscape.org/) -->

<svg
   width="200mm"
   height="21mm"
   viewBox="0 0 150.00004 15.750004"
   version="1.1"
   id="svg45051"
   inkscape:version="1.2 (dc2aedaf03, 2022-05-15)"
   sodipodi:docname="interleaved-attributes-light.svg"
   xml:space="preserve"
   xmlns:inkscape="http://www.inkscape.org/namespaces/inkscape"
   xmlns:sodipodi="http://sodipodi.sourceforge.net/DTD/sodipodi-0.dtd"
   xmlns="http://www.w3.org/2000/svg"
   xmlns:svg="http://www.w3.org/2000/svg"><sodipodi:namedview
     id="namedview45053"
     pagecolor="#ffffff"
     bordercolor="#666666"
     borderopacity="1.0"
     inkscape:showpageshadow="2"
     inkscape:pageopacity="0"
     inkscape:pagecheckerboard="0"
     inkscape:deskcolor="#d1d1d1"
     inkscape:document-units="mm"
     showgrid="false"
     inkscape:zoom="1.087256"
     inkscape:cx="349.96358"
     inkscape:cy="63.462515"
     inkscape:window-width="1920"
     inkscape:window-height="1017"
     inkscape:window-x="-8"
     inkscape:window-y="-8"
     inkscape:window-maximized="1"
     inkscape:current-layer="layer1" /><defs
     id="defs45048"><clipPath
       clipPathUnits="userSpaceOnUse"
       id="clipPath36213"><path
         style="fill:#c8c8c8;fill-opacity:1;stroke:none;stroke-width:0.266075;stroke-linejoin:round;stroke-dasharray:none;stroke-opacity:1"
         d="m 1.6927527,1.5520898 v 4.7923118 l 5.3217695,2.779e-4 V 1.3011809 Z"
         id="path36215" /></clipPath><g
       id="id-33d38a86-213f-4216-83fe-e5d3aaf5a9a0-7">
      <g
   id="id-63081c7e-d8f8-4499-af6a-5584df8cef2c-8" />
      <g
   id="id-89c9330e-e3e8-40ee-a9c4-adcd40504994-4">
        <path
   d="m 2.578125,-6.8125 c 0,0 0,-0.109375 -0.140625,-0.109375 -0.21875,0 -0.953125,0.078125 -1.21875,0.109375 -0.078125,0 -0.1875,0.015625 -0.1875,0.203125 0,0.109375 0.109375,0.109375 0.25,0.109375 0.484375,0 0.5,0.09375 0.5,0.171875 L 1.75,-6.125 0.484375,-1.140625 C 0.453125,-1.03125 0.4375,-0.96875 0.4375,-0.8125 c 0,0.578125 0.4375,0.921875 0.90625,0.921875 0.328125,0 0.578125,-0.203125 0.75,-0.5625 0.171875,-0.375 0.296875,-0.953125 0.296875,-0.96875 0,-0.109375 -0.09375,-0.109375 -0.125,-0.109375 -0.09375,0 -0.109375,0.046875 -0.125,0.1875 C 1.96875,-0.703125 1.78125,-0.109375 1.375,-0.109375 c -0.296875,0 -0.296875,-0.3125 -0.296875,-0.453125 0,-0.25 0.015625,-0.296875 0.0625,-0.484375 z m 0,0"
   id="id-afb6c5ea-f609-4038-81a3-b442c04c5ccb-0" />
      </g>
    </g><g
       id="id-55b47f2a-5c53-4407-8cc8-4ebd0b246e83-4">
      <g
   id="id-22311807-f4f7-4eb3-8e47-32da44d9ab5c-0" />
      <g
   id="id-e0a4b2e1-1d49-41ac-8a2b-695fdf429c38-1">
        <path
   d="m 4.75,-2.359375 c 0,-1.5625 -0.921875,-2.046875 -1.65625,-2.046875 -1.375,0 -2.6875,1.421875 -2.6875,2.828125 0,0.9375 0.59375,1.6875 1.625,1.6875 0.625,0 1.34375,-0.234375 2.09375,-0.84375 0.125,0.53125 0.453125,0.84375 0.90625,0.84375 0.53125,0 0.84375,-0.546875 0.84375,-0.703125 0,-0.078125 -0.0625,-0.109375 -0.125,-0.109375 -0.0625,0 -0.09375,0.03125 -0.125,0.109375 -0.1875,0.484375 -0.546875,0.484375 -0.5625,0.484375 -0.3125,0 -0.3125,-0.78125 -0.3125,-1.015625 0,-0.203125 0,-0.234375 0.109375,-0.34375 C 5.796875,-2.65625 6,-3.8125 6,-3.8125 6,-3.84375 5.984375,-3.921875 5.875,-3.921875 c -0.09375,0 -0.09375,0.03125 -0.140625,0.21875 -0.1875,0.625 -0.515625,1.375 -0.984375,1.96875 z m -0.65625,1.375 c -0.890625,0.765625 -1.65625,0.875 -2.046875,0.875 -0.59375,0 -0.90625,-0.453125 -0.90625,-1.09375 0,-0.484375 0.265625,-1.5625 0.578125,-2.0625 C 2.1875,-4 2.734375,-4.1875 3.078125,-4.1875 c 0.984375,0 0.984375,1.3125 0.984375,2.078125 0,0.375 0,0.953125 0.03125,1.125 z m 0,0"
   id="id-91dcec1b-b5af-4567-bde2-8eff75e689b9-5" />
      </g>
    </g></defs><g
     inkscape:label="Layer 1"
     inkscape:groupmode="layer"
     id="layer1"><g
       aria-label="buffer"
       transform="scale(1.0000531,0.9999469)"
       id="text2075"
       style="font-size:4.52664px;line-height:1.25;font-family:'Lucida Console';-inkscape-font-specification:'Lucida Console';letter-spacing:0px;word-spacing:0px;fill:#090909;fill-opacity:1;stroke-width:0.255208"><path
         d="m 10.898475,5.2069735 q 0,0.1502986 -0.03094,0.3227 -0.03094,0.170191 -0.09946,0.3403821 -0.06852,0.1679807 -0.174612,0.3249102 -0.106093,0.1569294 -0.256392,0.2762841 -0.148088,0.1193548 -0.3448023,0.1922938 -0.1945041,0.070729 -0.4420547,0.070729 -0.1016726,0 -0.2099759,-0.015472 Q 9.2319287,6.7055389 9.1280458,6.6790156 9.024163,6.6524924 8.9291212,6.6149177 8.8340794,6.5773431 8.7567199,6.528717 L 9.4374841,3.3282412 H 9.8043895 L 9.5767313,4.4112751 Q 9.5524183,4.5195785 9.525895,4.6389333 9.501582,4.758288 9.477269,4.8511195 h 0.00442 q 0.070729,-0.1127239 0.1502985,-0.2033451 0.07957,-0.090621 0.1701911,-0.1547192 0.092832,-0.064098 0.1967143,-0.097252 0.1060931,-0.035364 0.2298681,-0.035364 0.3227,0 0.495101,0.2210274 0.174612,0.2210273 0.174613,0.6255069 z m -0.371326,0.00884 q 0,-0.1259855 -0.02431,-0.2276581 -0.0221,-0.1016726 -0.07294,-0.1724013 -0.04863,-0.070729 -0.125986,-0.1083034 -0.07736,-0.037575 -0.187873,-0.037575 -0.1392472,0 -0.2674431,0.08178 Q 9.7203991,4.8334373 9.614306,4.968264 9.5082128,5.1030907 9.4308533,5.2732817 9.3534937,5.4434728 9.3181293,5.6202947 L 9.170041,6.3253719 q 0.075149,0.041995 0.1878732,0.070729 0.1149343,0.028734 0.2364993,0.028734 0.1569294,0 0.2873355,-0.050836 0.130406,-0.053047 0.234289,-0.1436678 0.103883,-0.090621 0.181242,-0.2099759 0.07736,-0.1193548 0.128196,-0.2519712 0.05084,-0.1348267 0.07515,-0.2762842 0.02652,-0.1436678 0.02652,-0.2762842 z"
         style="font-style:italic;font-family:'Segoe UI';-inkscape-font-specification:'Segoe UI Italic';fill:#090909;fill-opacity:1"
         id="path5004" /><path
         d="m 13.12643,6.0358261 q -0.01989,0.086201 -0.03757,0.1790321 -0.01547,0.092831 -0.03094,0.1790322 -0.01547,0.086201 -0.02652,0.1613499 -0.01105,0.075149 -0.01768,0.1237753 h -0.353643 q 0.01105,-0.086201 0.02431,-0.1790321 0.01547,-0.095042 0.02873,-0.1746116 0.01547,-0.092831 0.02873,-0.1812424 h -0.0088 q -0.07736,0.121565 -0.172402,0.2298684 -0.09283,0.1060931 -0.203345,0.1878732 -0.108303,0.07957 -0.232078,0.1259856 -0.121566,0.046416 -0.254182,0.046416 -0.145878,0 -0.256392,-0.046416 -0.108303,-0.044205 -0.181242,-0.1259856 -0.07294,-0.08178 -0.110514,-0.1967143 -0.03536,-0.1149342 -0.03536,-0.2563917 0,-0.028734 0.0088,-0.086201 0.0088,-0.057467 0.01989,-0.1237753 0.01105,-0.066308 0.02431,-0.1304061 0.01547,-0.066308 0.02431,-0.112724 l 0.263023,-1.2399633 h 0.366905 l -0.280704,1.326164 q -0.0088,0.035364 -0.01768,0.08178 -0.0088,0.046416 -0.01768,0.092832 -0.0066,0.046416 -0.01105,0.086201 -0.0044,0.037575 -0.0044,0.059677 0,0.1657705 0.07957,0.2652328 0.08178,0.097252 0.24313,0.097252 0.09725,0 0.194504,-0.039785 0.09725,-0.039785 0.187874,-0.1060932 0.09283,-0.068518 0.174611,-0.1569294 0.08178,-0.090621 0.148089,-0.1900835 0.06631,-0.1016726 0.112723,-0.2077657 0.04642,-0.1060931 0.06852,-0.2033451 l 0.236499,-1.1051367 h 0.364695 z"
         style="font-style:italic;font-family:'Segoe UI';-inkscape-font-specification:'Segoe UI Italic';fill:#090909;fill-opacity:1"
         id="path5006" /><path
         d="m 15.416274,3.6421 q -0.0221,-0.011051 -0.05305,-0.019893 -0.03094,-0.011051 -0.06631,-0.019892 -0.03537,-0.00884 -0.07515,-0.013262 -0.03757,-0.00663 -0.07294,-0.00663 -0.181242,0 -0.280704,0.1193548 -0.09725,0.1171444 -0.148089,0.3514334 l -0.08178,0.3624849 h 0.534886 l -0.07294,0.307228 H 14.565311 L 13.98622,7.430509 h -0.366906 l 0.583512,-2.7075849 h -0.389008 l 0.06852,-0.307228 h 0.389008 l 0.09062,-0.419952 q 0.042,-0.194504 0.117145,-0.331541 0.07515,-0.1370369 0.179032,-0.2232376 0.103883,-0.086201 0.234289,-0.1259856 0.132616,-0.039785 0.289546,-0.039785 0.08178,0 0.159139,0.013262 0.07957,0.013262 0.134827,0.030944 z"
         style="font-style:italic;font-family:'Segoe UI';-inkscape-font-specification:'Segoe UI Italic';fill:#090909;fill-opacity:1"
         id="path5008" /><path
         d="M 16.8419,3.6421 Q 16.8198,3.631049 16.78885,3.622207 16.75791,3.611156 16.72254,3.602315 16.68718,3.593475 16.64739,3.589053 q -0.03758,-0.00663 -0.07294,-0.00663 -0.181243,0 -0.280705,0.1193548 -0.09725,0.1171444 -0.148088,0.3514334 l -0.08178,0.3624849 h 0.534886 l -0.07294,0.307228 H 15.990945 L 15.411853,7.4305086 H 15.044948 L 15.62846,4.7229237 h -0.389008 l 0.06852,-0.307228 h 0.389008 l 0.09062,-0.419952 q 0.042,-0.194504 0.117145,-0.331541 0.07515,-0.1370369 0.179032,-0.2232376 0.103883,-0.086201 0.234289,-0.1259856 0.132616,-0.039785 0.289546,-0.039785 0.08178,0 0.15914,0.013262 0.07957,0.013262 0.134826,0.030944 z"
         style="font-style:italic;font-family:'Segoe UI';-inkscape-font-specification:'Segoe UI Italic';fill:#090909;fill-opacity:1"
         id="path5010" /><path
         d="m 18.475292,4.9461613 q 0,0.1790321 -0.07957,0.3271204 -0.07957,0.1458781 -0.263022,0.2519712 -0.183453,0.1038829 -0.48405,0.16135 -0.300597,0.057467 -0.742652,0.059677 -0.0044,0.024313 -0.0044,0.050836 0,0.024313 0,0.044206 0,0.1193548 0.03315,0.2254479 0.03316,0.1060931 0.101673,0.185663 0.07073,0.07957 0.179032,0.1259856 0.110514,0.046416 0.260812,0.046416 0.152509,0 0.333752,-0.057467 0.183452,-0.059677 0.349223,-0.1679808 l -0.06852,0.3580643 q -0.121565,0.070729 -0.289545,0.1237753 -0.167981,0.053047 -0.375747,0.053047 -0.249761,0 -0.422162,-0.07736 -0.170191,-0.07736 -0.276284,-0.2055554 -0.103883,-0.1304062 -0.150299,-0.2983869 -0.04642,-0.1701911 -0.04642,-0.3558541 0,-0.1989246 0.04421,-0.3823773 0.04421,-0.1856629 0.123775,-0.3448026 0.08178,-0.1591397 0.194504,-0.2895458 0.112724,-0.1326164 0.249761,-0.2254479 0.137037,-0.092831 0.293966,-0.1436678 0.15693,-0.050836 0.324911,-0.050836 0.174611,0 0.307228,0.046416 0.134826,0.046416 0.223237,0.1281958 0.09062,0.07957 0.137037,0.185663 0.04642,0.1060931 0.04642,0.2254479 z m -0.369116,0.017682 q 0,-0.1392473 -0.103883,-0.2166068 -0.101672,-0.07736 -0.271863,-0.07736 -0.134827,0 -0.260812,0.059677 -0.125986,0.057467 -0.232079,0.1613499 -0.106093,0.1016726 -0.183453,0.2453404 -0.07736,0.1414575 -0.112724,0.307228 0.316069,0 0.537097,-0.030944 0.221027,-0.033154 0.360274,-0.095042 0.139247,-0.061888 0.203345,-0.1502986 0.0641,-0.090621 0.0641,-0.2033451 z"
         style="font-style:italic;font-family:'Segoe UI';-inkscape-font-specification:'Segoe UI Italic';fill:#090909;fill-opacity:1"
         id="path5012" /><path
         d="m 20.254562,4.8002832 h -0.0088 q -0.0442,-0.026523 -0.117144,-0.050836 -0.07073,-0.026523 -0.141458,-0.026523 -0.128196,0 -0.24534,0.08399 -0.117145,0.08178 -0.214397,0.218817 -0.09504,0.1348267 -0.16798,0.3094383 -0.07073,0.1746116 -0.110514,0.3580643 l -0.212186,0.9857819 h -0.362485 l 0.318279,-1.5029859 q 0.01989,-0.092831 0.03979,-0.194504 0.01989,-0.1016726 0.03536,-0.2033452 0.01768,-0.1016726 0.03094,-0.1945041 0.01326,-0.092831 0.01989,-0.1679807 h 0.358064 q -0.0066,0.066308 -0.01547,0.1414575 -0.0088,0.072939 -0.01768,0.1436677 -0.0088,0.068518 -0.01768,0.1259856 -0.0088,0.055257 -0.01326,0.086201 h 0.0088 q 0.07073,-0.1259856 0.143668,-0.2276582 0.07294,-0.1016726 0.152509,-0.1724013 0.08178,-0.072939 0.172401,-0.1127239 0.09062,-0.039785 0.196715,-0.039785 0.06189,0 0.121565,0.013262 0.06189,0.011051 0.110513,0.024313 z"
         style="font-style:italic;font-family:'Segoe UI';-inkscape-font-specification:'Segoe UI Italic';fill:#090909;fill-opacity:1"
         id="path5014" /></g><rect
       style="opacity:1;fill:#ffc26d;fill-opacity:1;stroke-width:0.3;stroke-linejoin:round"
       id="rect732"
       width="6.3922672"
       height="6.3922672"
       x="25.059534"
       y="2.1120875"
       rx="0"
       ry="0" /><rect
       style="opacity:1;fill:#ff9b54;fill-opacity:1;stroke-width:0.3;stroke-linejoin:round"
       id="rect2317"
       width="6.3922672"
       height="6.3922672"
       x="32.087635"
       y="2.1120875"
       rx="0"
       ry="0" /><rect
       style="opacity:1;fill:#ce4257;fill-opacity:1;stroke-width:0.3;stroke-linejoin:round"
       id="rect2321"
       width="6.3922672"
       height="6.3922672"
       x="39.115738"
       y="2.1120875"
       rx="0"
       ry="0" /><rect
       style="opacity:1;fill:#720026;fill-opacity:1;stroke-width:0.3;stroke-linejoin:round"
       id="rect2323"
       width="6.3922672"
       height="6.3922672"
       x="46.143841"
       y="2.1120875"
       rx="0"
       ry="0" /><rect
       style="opacity:1;fill:#4f000b;fill-opacity:1;stroke-width:0.3;stroke-linejoin:round"
       id="rect2325"
       width="6.3922672"
       height="6.3922672"
       x="53.171944"
       y="2.1120875"
       rx="0"
       ry="0" /><rect
       style="opacity:1;fill:#ffc26d;fill-opacity:1;stroke-width:0.3;stroke-linejoin:round"
       id="rect3224"
       width="6.3922672"
       height="6.3922672"
       x="60.200047"
       y="2.1120875"
       rx="0"
       ry="0" /><rect
       style="opacity:1;fill:#ff9b54;fill-opacity:1;stroke-width:0.3;stroke-linejoin:round"
       id="rect3226"
       width="6.3922672"
       height="6.3922672"
       x="67.228149"
       y="2.1120875"
       rx="0"
       ry="0" /><rect
       style="opacity:1;fill:#ce4257;fill-opacity:1;stroke-width:0.3;stroke-linejoin:round"
       id="rect3230"
       width="6.3922672"
       height="6.3922672"
       x="74.256256"
       y="2.1120875"
       rx="0"
       ry="0" /><rect
       style="opacity:1;fill:#720026;fill-opacity:1;stroke-width:0.3;stroke-linejoin:round"
       id="rect3232"
       width="6.3922672"
       height="6.3922672"
       x="81.284355"
       y="2.1120875"
       rx="0"
       ry="0" /><rect
       style="opacity:1;fill:#4f000b;fill-opacity:1;stroke-width:0.3;stroke-linejoin:round"
       id="rect3234"
       width="6.3922672"
       height="6.3922672"
       x="88.312462"
       y="2.1120875"
       rx="0"
       ry="0" /><g
       id="g2047"
       transform="translate(5.6578801,-19.23968)"
       style="stroke:#000000;stroke-opacity:1"><path
         style="opacity:1;fill:none;fill-opacity:1;stroke:#000000;stroke-width:0.45;stroke-linejoin:round;stroke-dasharray:none;stroke-opacity:1"
         d="M 126.57225,28.471916 H 18.673774 l -1e-6,-7.848028 H 126.57225"
         id="path1936"
         sodipodi:nodetypes="cccc" /><path
         style="opacity:1;fill:none;fill-opacity:1;stroke:#000000;stroke-width:0.45;stroke-linejoin:round;stroke-dasharray:none;stroke-opacity:1"
         d="m 130.83255,28.471916 h -2.2983 m 0,-7.848028 h 2.2983"
         id="path2036"
         sodipodi:nodetypes="cccc" /><path
         style="opacity:1;fill:none;fill-opacity:1;stroke:#000000;stroke-width:0.45;stroke-linejoin:round;stroke-dasharray:none;stroke-opacity:1"
         d="m 135.09286,28.471916 h -2.2983 m 0,-7.848028 h 2.2983"
         id="path2042"
         sodipodi:nodetypes="cccc" /></g><g
       aria-label="x"
       transform="scale(1.0000531,0.9999469)"
       id="text3460"
       style="font-size:4.52664px;line-height:1.25;font-family:'Lucida Console';-inkscape-font-specification:'Lucida Console';letter-spacing:0px;word-spacing:0px;fill:#090909;stroke-width:0.255208"><path
         d="m 29.478622,4.4439162 q 0,0.1584324 -0.221805,0.2580185 l -0.194646,-0.176539 q -0.303284,0.08148 -0.606569,0.7740554 0.131272,0.4662439 0.199172,0.629203 0.104113,0.2625451 0.303285,0.2625451 0.108639,0 0.248965,-0.045266 V 6.286259 q -0.344025,0.1312726 -0.516037,0.1312726 -0.239912,0 -0.348551,-0.289705 -0.05885,-0.1539057 -0.167486,-0.6201496 -0.239912,0.4934037 -0.443611,0.7061558 -0.199172,0.2127521 -0.420977,0.2127521 -0.126746,0 -0.203699,-0.0679 -0.07695,-0.0679 -0.07695,-0.176539 0,-0.1901189 0.221805,-0.2308586 l 0.208226,0.1946455 Q 27.812819,5.9558139 28.088944,5.2994511 27.912405,4.6702482 27.744919,4.5118158 L 27.369208,4.4620227 V 4.3533834 L 27.826399,4.194951 q 0.02263,-0.00453 0.05885,-0.00453 0.167486,0 0.262545,0.2036988 0.04074,0.090533 0.0679,0.1810656 0.02716,0.090533 0.140326,0.5296169 0.44361,-0.905328 0.864588,-0.905328 0.108639,0 0.181065,0.072426 0.07695,0.0679 0.07695,0.1720123 z"
         style="font-style:italic;font-family:'Charter ITC TT';-inkscape-font-specification:'Charter ITC TT Italic'"
         id="path5017" /></g><g
       aria-label="y"
       transform="scale(1.0000531,0.9999469)"
       id="text3841"
       style="font-size:4.52664px;line-height:1.25;font-family:'Lucida Console';-inkscape-font-specification:'Lucida Console';letter-spacing:0px;word-spacing:0px;fill:#090909;stroke-width:0.255208"><path
         d="m 36.461085,4.4167563 -0.230859,0.1357992 q -0.212752,0.2489652 -0.516037,0.9143813 -0.398344,0.8645882 -0.692576,1.2719858 -0.45719,0.629203 -0.887221,0.629203 -0.153906,0 -0.262545,-0.090533 -0.113166,-0.086006 -0.113166,-0.2082255 0,-0.1991721 0.244438,-0.2489652 l 0.267072,0.2670718 q 0.380238,-0.02716 0.778582,-0.7740554 L 34.768122,4.9373199 Q 34.709275,4.6385617 34.587056,4.4665494 l -0.384764,-0.031687 v -0.099586 l 0.44361,-0.1448525 q 0.02263,-0.00453 0.05885,-0.00453 0.176539,0 0.262545,0.1901189 0.04527,0.095059 0.0679,0.1946455 0.03169,0.1312726 0.12222,0.5884632 l 0.149379,0.7650021 Q 35.641763,5.086699 36.017474,4.2040043 h 0.08601 l 0.357605,0.1176926 z"
         style="font-style:italic;font-family:'Charter ITC TT';-inkscape-font-specification:'Charter ITC TT Italic'"
         id="path5020" /></g><g
       aria-label="r"
       transform="matrix(1.0000531,0,0,0.9999469,-7.0281029,0)"
       id="text3849"
       style="font-size:4.52664px;line-height:1.25;font-family:'Lucida Console';-inkscape-font-specification:'Lucida Console';letter-spacing:0px;word-spacing:0px;fill:#ffffff;stroke-width:0.255208"><path
         d="m 50.145362,4.4439162 q 0,0.1312725 -0.08601,0.2127521 -0.08601,0.076953 -0.226332,0.076953 H 49.81039 L 49.692698,4.4891826 Q 49.38036,4.6159285 49.235508,4.7969941 49.090655,4.9780597 49.031809,5.3220843 L 48.846217,6.3858447 H 48.465979 L 48.84169,4.534449 48.470506,4.466549 V 4.353383 l 0.669942,-0.1493791 h 0.09053 l -0.144852,0.6201496 q 0.461717,-0.6246763 0.819321,-0.6246763 0.104113,0 0.172013,0.072426 0.0679,0.0679 0.0679,0.1720123 z"
         style="font-style:italic;font-family:'Charter ITC TT';-inkscape-font-specification:'Charter ITC TT Italic'"
         id="path5026" /></g><g
       aria-label="g"
       transform="matrix(1.0000531,0,0,0.9999469,-7.0281029,0)"
       id="text3853"
       style="font-size:4.52664px;line-height:1.25;font-family:'Lucida Console';-inkscape-font-specification:'Lucida Console';letter-spacing:0px;word-spacing:0px;fill:#ffffff;stroke-width:0.255208"><path
         d="m 57.517116,4.5072891 h -0.466244 q 0.05885,0.1629591 0.05885,0.3078115 0,0.2670718 -0.144852,0.4752972 -0.144853,0.2082255 -0.393818,0.3032849 -0.172012,0.063373 -0.434557,0.063373 -0.05885,0.1041127 -0.05885,0.2670717 l 0.719735,0.3259181 q 0.353078,0.1584324 0.353078,0.4390841 0,0.276125 -0.325918,0.4798238 -0.325918,0.2036988 -0.769529,0.2036988 -0.389291,0 -0.620149,-0.162959 -0.230859,-0.1629591 -0.230859,-0.4390841 0,-0.3983443 0.602043,-0.6292029 -0.0045,-0.036213 -0.0045,-0.076953 0,-0.2082255 0.181066,-0.4390841 -0.416451,-0.176539 -0.416451,-0.5613034 0,-0.3576045 0.258019,-0.6110963 0.258018,-0.2534919 0.620149,-0.2534919 0.190119,0 0.425504,0.113166 h 0.64731 z m -0.765002,0.2761251 q 0,-0.4164509 -0.307812,-0.4164509 -0.208225,0 -0.366657,0.2308586 -0.153906,0.226332 -0.153906,0.5205636 0,0.3892911 0.298758,0.3892911 0.212752,0 0.371184,-0.2172788 0.158433,-0.2172787 0.158433,-0.5069836 z m 0.05432,2.0053015 q 0,-0.1720124 -0.258019,-0.289705 L 55.973532,6.2319389 q -0.411924,0.1086394 -0.411924,0.4481374 0,0.226332 0.172012,0.3621312 0.172012,0.1403258 0.448137,0.1403258 0.262545,0 0.443611,-0.113166 0.181066,-0.113166 0.181066,-0.2806516 z"
         style="font-style:italic;font-family:'Charter ITC TT';-inkscape-font-specification:'Charter ITC TT Italic'"
         id="path5029" /></g><g
       aria-label="b"
       transform="matrix(1.0000531,0,0,0.9999469,-7.0281029,0)"
       id="text3857"
       style="font-size:4.52664px;line-height:1.25;font-family:'Lucida Console';-inkscape-font-specification:'Lucida Console';letter-spacing:0px;word-spacing:0px;fill:#ffffff;stroke-width:0.255208"><path
         d="m 64.427152,4.9825863 q 0,0.6065698 -0.366657,1.0275473 -0.362132,0.4164509 -0.891749,0.4164509 -0.325918,0 -0.674469,-0.1991722 l 0.529617,-2.8517832 -0.393818,-0.0679 V 3.1900369 l 0.68805,-0.1357992 h 0.149379 q -0.0679,0.2172787 -0.104113,0.4164509 L 63.168746,4.534449 q 0.411925,-0.3349714 0.67447,-0.3349714 0.262545,0 0.420977,0.2172787 0.162959,0.2172788 0.162959,0.56583 z m -0.371184,0.036213 q 0,-0.2534918 -0.104113,-0.3983443 -0.09959,-0.1448524 -0.276125,-0.1448524 -0.190119,0 -0.53867,0.2353852 l -0.258018,1.3489387 q 0.194645,0.1810656 0.398344,0.1810656 0.303285,0 0.53867,-0.3711844 0.239912,-0.3711845 0.239912,-0.8510084 z"
         style="font-style:italic;font-family:'Charter ITC TT';-inkscape-font-specification:'Charter ITC TT Italic'"
         id="path5032" /></g><g
       aria-label="x"
       transform="matrix(1.0000531,0,0,0.9999469,-7.0281029,0)"
       id="text3863"
       style="font-size:4.52664px;line-height:1.25;font-family:'Lucida Console';-inkscape-font-specification:'Lucida Console';letter-spacing:0px;word-spacing:0px;fill:#090909;stroke-width:0.255208"><path
         d="m 71.645004,4.4439162 q 0,0.1584324 -0.221805,0.2580185 l -0.194646,-0.176539 q -0.303285,0.08148 -0.60657,0.7740554 0.131273,0.4662439 0.199173,0.629203 0.104112,0.2625451 0.303285,0.2625451 0.108639,0 0.248965,-0.045266 V 6.286259 q -0.344025,0.1312726 -0.516037,0.1312726 -0.239912,0 -0.348552,-0.289705 -0.05885,-0.1539057 -0.167485,-0.6201496 -0.239912,0.4934037 -0.443611,0.7061558 -0.199172,0.2127521 -0.420977,0.2127521 -0.126746,0 -0.203699,-0.0679 -0.07695,-0.0679 -0.07695,-0.176539 0,-0.1901189 0.221805,-0.2308586 l 0.208226,0.1946455 Q 69.979201,5.9558139 70.255326,5.2994511 70.078787,4.6702482 69.911301,4.5118158 L 69.53559,4.4620227 V 4.3533834 L 69.992781,4.194951 q 0.02263,-0.00453 0.05885,-0.00453 0.167486,0 0.262545,0.2036988 0.04074,0.090533 0.0679,0.1810656 0.02716,0.090533 0.140325,0.5296169 0.443611,-0.905328 0.864589,-0.905328 0.108639,0 0.181065,0.072426 0.07695,0.0679 0.07695,0.1720123 z"
         style="font-style:italic;font-family:'Charter ITC TT';-inkscape-font-specification:'Charter ITC TT Italic'"
         id="path5035" /></g><g
       aria-label="y"
       transform="matrix(1.0000531,0,0,0.9999469,-7.0281029,0)"
       id="text3867"
       style="font-size:4.52664px;line-height:1.25;font-family:'Lucida Console';-inkscape-font-specification:'Lucida Console';letter-spacing:0px;word-spacing:0px;fill:#090909;stroke-width:0.255208"><path
         d="m 78.627463,4.4167563 -0.230859,0.1357992 q -0.212752,0.2489652 -0.516037,0.9143813 -0.398344,0.8645882 -0.692576,1.2719858 -0.45719,0.629203 -0.887221,0.629203 -0.153906,0 -0.262545,-0.090533 -0.113166,-0.086006 -0.113166,-0.2082255 0,-0.1991721 0.244438,-0.2489652 l 0.267072,0.2670718 q 0.380238,-0.02716 0.778582,-0.7740554 L 76.9345,4.9373199 Q 76.875653,4.6385617 76.753434,4.4665494 L 76.36867,4.4348629 v -0.099586 l 0.44361,-0.1448525 q 0.02263,-0.00453 0.05885,-0.00453 0.176539,0 0.262545,0.1901189 0.04527,0.095059 0.0679,0.1946455 0.03169,0.1312726 0.12222,0.5884632 L 77.47317,5.9241274 Q 77.808141,5.086699 78.183852,4.2040043 h 0.08601 l 0.357605,0.1176926 z"
         style="font-style:italic;font-family:'Charter ITC TT';-inkscape-font-specification:'Charter ITC TT Italic'"
         id="path5038" /></g><g
       aria-label="r"
       transform="matrix(1.0000531,0,0,0.9999469,-14.056206,0)"
       id="text3875"
       style="font-size:4.52664px;line-height:1.25;font-family:'Lucida Console';-inkscape-font-specification:'Lucida Console';letter-spacing:0px;word-spacing:0px;fill:#ffffff;stroke-width:0.255208"><path
         d="m 92.311737,4.4439162 q 0,0.1312725 -0.08601,0.2127521 -0.08601,0.076953 -0.226332,0.076953 h -0.02263 L 91.859073,4.4891826 Q 91.546734,4.6159285 91.401882,4.7969941 91.257029,4.9780597 91.198183,5.3220843 L 91.012591,6.3858447 H 90.632353 L 91.008064,4.534449 90.63688,4.466549 V 4.353383 l 0.669942,-0.1493791 h 0.09053 L 91.2525,4.8241535 q 0.461717,-0.6246763 0.819322,-0.6246763 0.104112,0 0.172012,0.072426 0.0679,0.0679 0.0679,0.1720123 z"
         style="font-style:italic;font-family:'Charter ITC TT';-inkscape-font-specification:'Charter ITC TT Italic'"
         id="path5044" /></g><g
       aria-label="g"
       transform="matrix(1.0000531,0,0,0.9999469,-14.056206,0)"
       id="text3879"
       style="font-size:4.52664px;line-height:1.25;font-family:'Lucida Console';-inkscape-font-specification:'Lucida Console';letter-spacing:0px;word-spacing:0px;fill:#ffffff;stroke-width:0.255208"><path
         d="M 99.683494,4.5072891 H 99.21725 q 0.05885,0.1629591 0.05885,0.3078115 0,0.2670718 -0.144852,0.4752972 -0.144853,0.2082255 -0.393818,0.3032849 -0.172012,0.063373 -0.434557,0.063373 -0.05885,0.1041127 -0.05885,0.2670717 l 0.719735,0.3259181 q 0.353078,0.1584324 0.353078,0.4390841 0,0.276125 -0.325918,0.4798238 -0.325918,0.2036988 -0.769529,0.2036988 -0.389291,0 -0.620149,-0.162959 -0.230859,-0.1629591 -0.230859,-0.4390841 0,-0.3983443 0.602043,-0.6292029 -0.0045,-0.036213 -0.0045,-0.076953 0,-0.2082255 0.181066,-0.4390841 -0.416451,-0.176539 -0.416451,-0.5613034 0,-0.3576045 0.258019,-0.6110963 0.258018,-0.2534919 0.620149,-0.2534919 0.190119,0 0.425505,0.113166 h 0.647309 z m -0.765002,0.2761251 q 0,-0.4164509 -0.307812,-0.4164509 -0.208225,0 -0.366657,0.2308586 -0.153906,0.226332 -0.153906,0.5205636 0,0.3892911 0.298758,0.3892911 0.212752,0 0.371184,-0.2172788 0.158433,-0.2172787 0.158433,-0.5069836 z m 0.05432,2.0053015 q 0,-0.1720124 -0.258019,-0.289705 L 98.13991,6.2319389 q -0.411924,0.1086394 -0.411924,0.4481374 0,0.226332 0.172012,0.3621312 0.172012,0.1403258 0.448137,0.1403258 0.262545,0 0.443611,-0.113166 0.181066,-0.113166 0.181066,-0.2806516 z"
         style="font-style:italic;font-family:'Charter ITC TT';-inkscape-font-specification:'Charter ITC TT Italic'"
         id="path5047" /></g><g
       aria-label="b"
       transform="matrix(1.0000531,0,0,0.9999469,-14.056206,0)"
       id="text3883"
       style="font-size:4.52664px;line-height:1.25;font-family:'Lucida Console';-inkscape-font-specification:'Lucida Console';letter-spacing:0px;word-spacing:0px;fill:#ffffff;stroke-width:0.255208"><path
         d="m 106.59353,4.9825863 q 0,0.6065698 -0.36665,1.0275473 -0.36213,0.4164509 -0.89175,0.4164509 -0.32592,0 -0.67447,-0.1991722 l 0.52962,-2.8517832 -0.39382,-0.0679 V 3.1900369 l 0.68805,-0.1357992 h 0.14938 q -0.0679,0.2172787 -0.10412,0.4164509 l -0.19464,1.0637604 q 0.41192,-0.3349714 0.67447,-0.3349714 0.26254,0 0.42098,0.2172787 0.16295,0.2172788 0.16295,0.56583 z m -0.37118,0.036213 q 0,-0.2534918 -0.10411,-0.3983443 -0.0996,-0.1448524 -0.27613,-0.1448524 -0.19012,0 -0.53867,0.2353852 l -0.25802,1.3489387 q 0.19465,0.1810656 0.39835,0.1810656 0.30328,0 0.53867,-0.3711844 0.23991,-0.3711845 0.23991,-0.8510084 z"
         style="font-style:italic;font-family:'Charter ITC TT';-inkscape-font-specification:'Charter ITC TT Italic'"
         id="path5050" /></g><text
       xml:space="preserve"
       style="font-style:normal;font-variant:normal;font-weight:normal;font-stretch:normal;font-size:4.52664px;line-height:1.25;font-family:'Lucida Console';-inkscape-font-specification:'Lucida Console';letter-spacing:0px;word-spacing:0px;fill:#090909;fill-opacity:1;stroke:none;stroke-width:0.255208"
       x="8.6174726"
       y="-7.8314795"
       id="text4998"
       transform="scale(1.0000531,0.9999469)"><tspan
         sodipodi:role="line"
         id="tspan4996"
         x="8.6174726"
         y="-7.8314795"
         style="font-style:italic;font-variant:normal;font-weight:normal;font-stretch:normal;font-family:'Segoe UI';-inkscape-font-specification:'Segoe UI Italic';fill:#090909;fill-opacity:1;stroke-width:0.255208">buffer</tspan></text><text
       xml:space="preserve"
       style="font-style:normal;font-variant:normal;font-weight:normal;font-stretch:normal;font-size:4.52664px;line-height:1.25;font-family:'Lucida Console';-inkscape-font-specification:'Lucida Console';letter-spacing:0px;word-spacing:0px;fill:#090909;fill-opacity:1;stroke:none;stroke-width:0.255208"
       x="27.242462"
       y="-8.124651"
       id="text5002"
       transform="scale(1.0000531,0.9999469)"><tspan
         sodipodi:role="line"
         id="tspan5000"
         x="27.242462"
         y="-8.124651"
         style="font-style:italic;font-variant:normal;font-weight:normal;font-stretch:normal;font-family:'Charter ITC TT';-inkscape-font-specification:'Charter ITC TT Italic';fill:#090909;fill-opacity:1;stroke-width:0.255208">x</tspan></text><path
       style="fill:none;stroke:#000000;stroke-width:0.3;stroke-linejoin:round;stroke-dasharray:none;stroke-opacity:1"
       d="m 28.223007,11.202989 v 1.586423 l 35.295067,0 v -1.586423"
       id="path1632"
       sodipodi:nodetypes="cccc" /><g
       aria-label="stride"
       transform="scale(1.0000531,0.9999469)"
       id="text1636"
       style="font-size:2.96942px;line-height:1.25;font-family:'Lucida Console';-inkscape-font-specification:'Lucida Console';text-align:end;letter-spacing:0px;word-spacing:0px;text-anchor:end;fill:#090909;stroke-width:0.255208;fill-opacity:1"><path
         d="m 65.67247,12.989162 v -0.255185 q 0.194288,0.143542 0.427724,0.143542 0.313181,0 0.313181,-0.208788 0,-0.05945 -0.02755,-0.100044 -0.0261,-0.04205 -0.0725,-0.07395 -0.04495,-0.0319 -0.107293,-0.05655 -0.0609,-0.0261 -0.131942,-0.05365 -0.09859,-0.03915 -0.17399,-0.0783 -0.07394,-0.0406 -0.124692,-0.08989 -0.0493,-0.05075 -0.0754,-0.114543 -0.02465,-0.0638 -0.02465,-0.149341 0,-0.104394 0.04785,-0.184139 0.04785,-0.08119 0.127592,-0.134842 0.07975,-0.0551 0.181239,-0.08265 0.102944,-0.02755 0.211688,-0.02755 0.192838,0 0.345079,0.0667 v 0.240685 q -0.16384,-0.107293 -0.376977,-0.107293 -0.0667,0 -0.120343,0.01595 -0.05365,0.0145 -0.09279,0.04205 -0.0377,0.02755 -0.05945,0.0667 -0.0203,0.0377 -0.0203,0.08409 0,0.058 0.0203,0.09714 0.02175,0.03915 0.06235,0.0696 0.0406,0.03045 0.09859,0.0551 0.058,0.02465 0.131942,0.05365 0.09859,0.0377 0.17689,0.0783 0.07829,0.03915 0.133391,0.0899 0.0551,0.0493 0.0841,0.114543 0.03045,0.06525 0.03045,0.155141 0,0.110193 -0.0493,0.191388 -0.04785,0.08119 -0.129043,0.134842 -0.0812,0.05365 -0.187038,0.07975 -0.105844,0.0261 -0.221837,0.0261 -0.229086,0 -0.397276,-0.08844 z"
         style="font-family:'Segoe UI';-inkscape-font-specification:'Segoe UI';fill:#090909;fill-opacity:1"
         id="path6561" /><path
         d="m 67.711047,13.028309 q -0.08409,0.0464 -0.221837,0.0464 -0.390026,0 -0.390026,-0.434974 v -0.878647 h -0.255185 v -0.202987 h 0.255185 v -0.362478 l 0.237785,-0.07685 v 0.439324 h 0.374078 v 0.202987 h -0.374078 v 0.8366 q 0,0.14934 0.05075,0.213137 0.05075,0.0638 0.16819,0.0638 0.0899,0 0.155141,-0.0493 z"
         style="font-family:'Segoe UI';-inkscape-font-specification:'Segoe UI';fill:#090909;fill-opacity:1"
         id="path6563" /><path
         d="m 68.80283,11.798784 q -0.06235,-0.04785 -0.179789,-0.04785 -0.152241,0 -0.255184,0.143541 -0.101494,0.143541 -0.101494,0.391476 v 0.756855 h -0.237786 v -1.48471 h 0.237786 v 0.305931 h 0.0058 q 0.05075,-0.156591 0.155141,-0.243585 0.104394,-0.08845 0.233436,-0.08845 0.09279,0 0.142091,0.0203 z"
         style="font-family:'Segoe UI';-inkscape-font-specification:'Segoe UI';fill:#090909;fill-opacity:1"
         id="path6565" /><path
         d="m 69.182708,11.181121 q -0.0638,0 -0.108744,-0.0435 -0.04495,-0.0435 -0.04495,-0.110193 0,-0.0667 0.04495,-0.110194 0.04495,-0.04495 0.108744,-0.04495 0.06525,0 0.110193,0.04495 0.0464,0.0435 0.0464,0.110194 0,0.0638 -0.0464,0.108743 -0.04495,0.04495 -0.110193,0.04495 z m 0.115992,1.861688 h -0.237785 v -1.48471 H 69.2987 Z"
         style="font-family:'Segoe UI';-inkscape-font-specification:'Segoe UI';fill:#090909;fill-opacity:1"
         id="path6567" /><path
         d="m 71.047294,13.042809 h -0.237785 v -0.252285 h -0.0058 q -0.16529,0.287082 -0.510369,0.287082 -0.279833,0 -0.448023,-0.198638 -0.16674,-0.200087 -0.16674,-0.543717 0,-0.368277 0.185589,-0.590114 0.185589,-0.221836 0.49442,-0.221836 0.305932,0 0.445123,0.240685 h 0.0058 v -0.919244 h 0.237785 z m -0.237785,-0.67131 v -0.218936 q 0,-0.17979 -0.118893,-0.304482 -0.118893,-0.124692 -0.301582,-0.124692 -0.217487,0 -0.342179,0.15949 -0.124692,0.15949 -0.124692,0.440773 0,0.256635 0.118892,0.405976 0.120343,0.147891 0.321881,0.147891 0.198638,0 0.32188,-0.143542 0.124693,-0.143541 0.124693,-0.362478 z"
         style="font-family:'Segoe UI';-inkscape-font-specification:'Segoe UI';fill:#090909;fill-opacity:1"
         id="path6569" /><path
         d="m 72.721943,12.3599 h -1.048287 q 0.0058,0.247935 0.133392,0.382777 0.127592,0.134842 0.350879,0.134842 0.250835,0 0.461072,-0.16529 v 0.223286 q -0.195738,0.142091 -0.517619,0.142091 -0.314631,0 -0.49442,-0.201537 -0.179789,-0.202988 -0.179789,-0.569816 0,-0.346529 0.195738,-0.564016 0.197188,-0.218936 0.488621,-0.218936 0.291432,0 0.450922,0.188488 0.159491,0.188489 0.159491,0.523418 z m -0.243586,-0.201538 q -0.0015,-0.205887 -0.100044,-0.32043 -0.09714,-0.114543 -0.271133,-0.114543 -0.16819,0 -0.285633,0.120342 -0.117443,0.120343 -0.144991,0.314631 z"
         style="font-family:'Segoe UI';-inkscape-font-specification:'Segoe UI';fill:#090909;fill-opacity:1"
         id="path6571" /></g><text
       xml:space="preserve"
       style="font-style:normal;font-variant:normal;font-weight:normal;font-stretch:normal;font-size:2.96942px;line-height:1.25;font-family:'Lucida Console';-inkscape-font-specification:'Lucida Console';text-align:end;letter-spacing:0px;word-spacing:0px;text-anchor:end;fill:#090909;fill-opacity:1;stroke:none;stroke-width:0.255208"
       x="86.061989"
       y="-5.2195368"
       id="text2812"
       transform="scale(1.0000531,0.9999469)"><tspan
         sodipodi:role="line"
         id="tspan2810"
         x="86.061989"
         y="-5.2195368"
         style="font-style:normal;font-variant:normal;font-weight:normal;font-stretch:normal;font-family:'Segoe UI';-inkscape-font-specification:'Segoe UI';text-align:end;text-anchor:end;fill:#090909;fill-opacity:1;stroke-width:0.255208">byte stride</tspan></text></g></svg>
