<?xml version="1.0" encoding="UTF-8" standalone="no"?>
<!-- Created with Inkscape (http://www.inkscape.org/) -->

<svg
   width="200mm"
   height="30mm"
   viewBox="0 0 150.00004 22.500006"
   version="1.1"
   id="svg45051"
   inkscape:version="1.2 (dc2aedaf03, 2022-05-15)"
   sodipodi:docname="multiple-buffers.svg"
   xml:space="preserve"
   xmlns:inkscape="http://www.inkscape.org/namespaces/inkscape"
   xmlns:sodipodi="http://sodipodi.sourceforge.net/DTD/sodipodi-0.dtd"
   xmlns="http://www.w3.org/2000/svg"
   xmlns:svg="http://www.w3.org/2000/svg"><sodipodi:namedview
     id="namedview45053"
     pagecolor="#ffffff"
     bordercolor="#666666"
     borderopacity="1.0"
     inkscape:showpageshadow="2"
     inkscape:pageopacity="0"
     inkscape:pagecheckerboard="0"
     inkscape:deskcolor="#d1d1d1"
     inkscape:document-units="mm"
     showgrid="false"
     inkscape:zoom="1.087256"
     inkscape:cx="399.62989"
     inkscape:cy="145.31996"
     inkscape:window-width="1920"
     inkscape:window-height="1017"
     inkscape:window-x="-8"
     inkscape:window-y="-8"
     inkscape:window-maximized="1"
     inkscape:current-layer="layer1" /><defs
     id="defs45048"><clipPath
       clipPathUnits="userSpaceOnUse"
       id="clipPath36213"><path
         style="fill:#c8c8c8;fill-opacity:1;stroke:none;stroke-width:0.266075;stroke-linejoin:round;stroke-dasharray:none;stroke-opacity:1"
         d="m 1.6927527,1.5520898 v 4.7923118 l 5.3217695,2.779e-4 V 1.3011809 Z"
         id="path36215" /></clipPath><g
       id="id-33d38a86-213f-4216-83fe-e5d3aaf5a9a0-7">
      <g
   id="id-63081c7e-d8f8-4499-af6a-5584df8cef2c-8" />
      <g
   id="id-89c9330e-e3e8-40ee-a9c4-adcd40504994-4">
        <path
   d="m 2.578125,-6.8125 c 0,0 0,-0.109375 -0.140625,-0.109375 -0.21875,0 -0.953125,0.078125 -1.21875,0.109375 -0.078125,0 -0.1875,0.015625 -0.1875,0.203125 0,0.109375 0.109375,0.109375 0.25,0.109375 0.484375,0 0.5,0.09375 0.5,0.171875 L 1.75,-6.125 0.484375,-1.140625 C 0.453125,-1.03125 0.4375,-0.96875 0.4375,-0.8125 c 0,0.578125 0.4375,0.921875 0.90625,0.921875 0.328125,0 0.578125,-0.203125 0.75,-0.5625 0.171875,-0.375 0.296875,-0.953125 0.296875,-0.96875 0,-0.109375 -0.09375,-0.109375 -0.125,-0.109375 -0.09375,0 -0.109375,0.046875 -0.125,0.1875 C 1.96875,-0.703125 1.78125,-0.109375 1.375,-0.109375 c -0.296875,0 -0.296875,-0.3125 -0.296875,-0.453125 0,-0.25 0.015625,-0.296875 0.0625,-0.484375 z m 0,0"
   id="id-afb6c5ea-f609-4038-81a3-b442c04c5ccb-0" />
      </g>
    </g><g
       id="id-55b47f2a-5c53-4407-8cc8-4ebd0b246e83-4">
      <g
   id="id-22311807-f4f7-4eb3-8e47-32da44d9ab5c-0" />
      <g
   id="id-e0a4b2e1-1d49-41ac-8a2b-695fdf429c38-1">
        <path
   d="m 4.75,-2.359375 c 0,-1.5625 -0.921875,-2.046875 -1.65625,-2.046875 -1.375,0 -2.6875,1.421875 -2.6875,2.828125 0,0.9375 0.59375,1.6875 1.625,1.6875 0.625,0 1.34375,-0.234375 2.09375,-0.84375 0.125,0.53125 0.453125,0.84375 0.90625,0.84375 0.53125,0 0.84375,-0.546875 0.84375,-0.703125 0,-0.078125 -0.0625,-0.109375 -0.125,-0.109375 -0.0625,0 -0.09375,0.03125 -0.125,0.109375 -0.1875,0.484375 -0.546875,0.484375 -0.5625,0.484375 -0.3125,0 -0.3125,-0.78125 -0.3125,-1.015625 0,-0.203125 0,-0.234375 0.109375,-0.34375 C 5.796875,-2.65625 6,-3.8125 6,-3.8125 6,-3.84375 5.984375,-3.921875 5.875,-3.921875 c -0.09375,0 -0.09375,0.03125 -0.140625,0.21875 -0.1875,0.625 -0.515625,1.375 -0.984375,1.96875 z m -0.65625,1.375 c -0.890625,0.765625 -1.65625,0.875 -2.046875,0.875 -0.59375,0 -0.90625,-0.453125 -0.90625,-1.09375 0,-0.484375 0.265625,-1.5625 0.578125,-2.0625 C 2.1875,-4 2.734375,-4.1875 3.078125,-4.1875 c 0.984375,0 0.984375,1.3125 0.984375,2.078125 0,0.375 0,0.953125 0.03125,1.125 z m 0,0"
   id="id-91dcec1b-b5af-4567-bde2-8eff75e689b9-5" />
      </g>
    </g></defs><g
     inkscape:label="Layer 1"
     inkscape:groupmode="layer"
     id="layer1"><g
       aria-label="positionBuffer"
       transform="scale(1.0000531,0.9999469)"
       id="text8945"
       style="font-size:4.52664px;line-height:1.25;font-family:'Lucida Console';-inkscape-font-specification:'Lucida Console';text-align:end;letter-spacing:0px;word-spacing:0px;text-anchor:end;fill:#090909;stroke-width:0.255208;fill-opacity:1"><path
         d="m 3.5946265,5.252604 q 0,0.1635602 -0.035364,0.3403821 Q 3.5238977,5.7675977 3.4509587,5.9377888 3.3780197,6.1079798 3.267506,6.2604887 3.1592026,6.4129975 3.0111143,6.530142 2.863026,6.6450762 2.6751528,6.7135947 q -0.1878733,0.066308 -0.4155314,0.066308 -0.1304062,0 -0.258602,-0.024313 Q 1.8750338,6.7312769 1.779992,6.6981228 L 1.5545441,7.774526 H 1.1876388 L 1.7402071,5.1575622 q 0.015472,-0.070729 0.028734,-0.170191 0.013262,-0.099462 0.022103,-0.1989246 0.011051,-0.1016726 0.017682,-0.1900835 0.00663,-0.088411 0.00663,-0.137037 h 0.3713259 q 0,0.037575 -0.00663,0.1016726 -0.00442,0.064098 -0.013262,0.1348267 -0.00884,0.068518 -0.017682,0.1348267 -0.00884,0.064098 -0.015472,0.1038828 h 0.00884 Q 2.2994063,4.6690918 2.4961206,4.5386857 2.6928349,4.4060693 2.9249137,4.4060693 q 0.1547191,0 0.2784944,0.053046 0.1237753,0.053047 0.209976,0.1591397 0.088411,0.1060932 0.1348267,0.2652328 0.046416,0.1591397 0.046416,0.3691157 z m -0.3713259,0.015472 q 0,-0.1193547 -0.022103,-0.2210273 Q 3.1813054,4.945376 3.1326794,4.872437 3.0840533,4.799498 3.0066938,4.7575028 q -0.075149,-0.041995 -0.185663,-0.041995 -0.1149342,0 -0.2166068,0.048626 Q 2.5049617,4.8105493 2.418761,4.8901192 2.3325604,4.969689 2.2618316,5.0757821 2.1911029,5.179665 2.135846,5.2923889 2.0805892,5.4051129 2.0408043,5.5200471 2.0032296,5.632771 1.9833372,5.7322333 L 1.84409,6.3886845 q 0.039785,0.017682 0.095042,0.033154 0.055257,0.013262 0.1149342,0.024313 0.059677,0.011051 0.1215651,0.017682 0.061888,0.00663 0.1149342,0.00663 0.1525089,0 0.2807047,-0.050836 Q 2.701676,6.3687921 2.8033486,6.2825914 2.9072315,6.1941805 2.984591,6.077036 3.0641609,5.9576812 3.1172074,5.8250648 3.170254,5.6902381 3.1967773,5.5487806 3.2233006,5.4051129 3.2233006,5.2680759 Z"
         style="font-style:italic;font-family:'Segoe UI';-inkscape-font-specification:'Segoe UI Italic';fill:#090909;fill-opacity:1"
         id="path10046" /><path
         d="m 6.0170861,5.2990197 q 0,0.3005972 -0.086201,0.5702506 Q 5.8468951,6.1389236 5.6855451,6.3422688 5.5264054,6.5434037 5.296537,6.6627584 5.0688788,6.7799029 4.7815433,6.7799029 q -0.1945041,0 -0.3514335,-0.061888 Q 4.2753907,6.6561276 4.164877,6.5411934 4.0565736,6.4240489 3.9968962,6.2604887 3.9394291,6.0947182 3.9394291,5.8869525 q 0,-0.3116486 0.088411,-0.5813019 0.090621,-0.2718637 0.2519711,-0.4707883 0.1635603,-0.2011349 0.3890082,-0.3138588 0.2276581,-0.1149342 0.501732,-0.1149342 0.1922938,0 0.347013,0.061888 0.1569294,0.061888 0.267443,0.1790322 0.1105137,0.1149342 0.1701911,0.2807047 0.061888,0.1635602 0.061888,0.3713259 z m -0.3713259,0.017682 q 0,-0.1436677 -0.035364,-0.2541814 -0.035364,-0.112724 -0.099462,-0.1878733 -0.064098,-0.07736 -0.1547191,-0.1171444 -0.090621,-0.041995 -0.2033452,-0.041995 -0.194504,0 -0.3514334,0.099462 -0.1569294,0.099462 -0.2652328,0.2630225 -0.1083034,0.16135 -0.1679808,0.3691157 -0.057467,0.2055554 -0.057467,0.4221622 0,0.1370369 0.033154,0.2497609 0.035364,0.1105136 0.097252,0.1900835 0.064098,0.07736 0.1547191,0.1193548 0.092831,0.041995 0.2077657,0.041995 0.1967144,0 0.3536438,-0.097252 Q 5.3142192,6.2737503 5.4225226,6.1124004 5.530826,5.9488401 5.5882931,5.7410744 5.6457602,5.5333087 5.6457602,5.3167019 Z"
         style="font-style:italic;font-family:'Segoe UI';-inkscape-font-specification:'Segoe UI Italic';fill:#090909;fill-opacity:1"
         id="path10048" /><path
         d="M 7.7919356,4.8591753 Q 7.6924733,4.7950774 7.568698,4.7552925 7.4449227,4.7155076 7.3211474,4.7155076 q -0.2077657,0 -0.3226999,0.095042 -0.112724,0.095042 -0.112724,0.2519712 0,0.064098 0.019893,0.1171445 0.022103,0.053046 0.061888,0.1016726 0.041995,0.046416 0.1038828,0.090621 0.064098,0.044205 0.145878,0.095042 0.2475507,0.1436678 0.3558541,0.2961767 0.1105136,0.1502986 0.1105136,0.3403821 0,0.1281958 -0.048626,0.2519711 -0.046416,0.1215651 -0.1502986,0.2166068 -0.1038828,0.092831 -0.2696533,0.1502986 -0.1635603,0.057467 -0.4000595,0.057467 -0.066308,0 -0.1458781,-0.00884 -0.07957,-0.00884 -0.1613499,-0.026523 -0.07957,-0.017682 -0.1547192,-0.041995 -0.072939,-0.026523 -0.1281958,-0.059677 l 0.072939,-0.3448027 q 0.044206,0.030944 0.1083034,0.061888 0.066308,0.030944 0.1414575,0.055257 0.07736,0.024313 0.1591397,0.039785 0.08399,0.015472 0.1657705,0.015472 0.2210273,0 0.3293307,-0.088411 0.1105137,-0.088411 0.1105137,-0.2453403 0,-0.057467 -0.017682,-0.1060932 Q 7.2791522,5.9819942 7.237157,5.9333682 7.1951618,5.8847422 7.1266433,5.8361162 7.0581249,5.7852799 6.954242,5.7233922 6.7287941,5.5863553 6.6204907,5.438267 6.5143976,5.2879684 6.5143976,5.1000951 q 0,-0.1370369 0.050836,-0.2608122 0.050836,-0.1259856 0.1502986,-0.2210274 0.1016726,-0.097252 0.2541814,-0.1547191 0.1525089,-0.057467 0.355854,-0.057467 0.1591397,0 0.3005972,0.030944 0.1436678,0.030944 0.2431301,0.07957 z"
         style="font-style:italic;font-family:'Segoe UI';-inkscape-font-specification:'Segoe UI Italic';fill:#090909;fill-opacity:1"
         id="path10050" /><path
         d="m 8.8970724,6.715805 q -0.055257,0.017682 -0.1259856,0.028734 -0.068519,0.011051 -0.137037,0.011051 -0.2232376,0 -0.3337513,-0.1105137 -0.1105136,-0.1127239 -0.1105136,-0.3005971 0,-0.055257 0.011051,-0.1304062 0.011051,-0.075149 0.035364,-0.1856629 L 8.5655314,4.4613261 h 0.3669053 l -0.331541,1.575925 q -0.019892,0.092831 -0.028734,0.1436677 -0.00663,0.050836 -0.00663,0.086201 0,0.090621 0.048626,0.1392472 0.050836,0.046416 0.1591397,0.046416 0.057467,0 0.099462,-0.00663 0.044205,-0.00663 0.08178,-0.019892 z m 0.258602,-3.0612287 q 0,0.099462 -0.068518,0.1701911 -0.066308,0.070729 -0.1657705,0.070729 -0.097252,0 -0.1701911,-0.068518 -0.070729,-0.070729 -0.070729,-0.1724014 0,-0.1016725 0.070729,-0.1657705 0.072939,-0.064098 0.1701911,-0.064098 0.097252,0 0.1657705,0.066308 0.068518,0.064098 0.068518,0.1635602 z"
         style="font-style:italic;font-family:'Segoe UI';-inkscape-font-specification:'Segoe UI Italic';fill:#090909;fill-opacity:1"
         id="path10052" /><path
         d="m 10.674132,4.7685541 h -0.57025 L 9.8497002,5.9687326 q -0.013262,0.068518 -0.026523,0.1480883 -0.013262,0.07957 -0.013262,0.1281959 0,0.1127239 0.048626,0.1635602 0.050836,0.048626 0.1591397,0.048626 0.02652,0 0.06852,-0.00884 0.042,-0.00884 0.0862,-0.022103 0.04421,-0.013262 0.0862,-0.028734 0.0442,-0.017682 0.07736,-0.030944 l -0.06852,0.3182794 q -0.07736,0.033154 -0.176822,0.055257 -0.097252,0.024313 -0.185663,0.024313 -0.1259856,0 -0.2143965,-0.033154 -0.088411,-0.030944 -0.145878,-0.090621 -0.055257,-0.059677 -0.08178,-0.1436678 -0.024313,-0.086201 -0.024313,-0.1922938 0,-0.064098 0.011051,-0.1480883 0.013262,-0.086201 0.030944,-0.1569294 L 9.7413968,4.7685541 H 9.3656503 l 0.068518,-0.307228 H 9.8054947 L 9.9226392,3.9087578 q 0.00884,-0.00442 0.066308,-0.019893 0.059678,-0.017682 0.1281956,-0.037575 0.07073,-0.022103 0.128196,-0.039785 0.05968,-0.017682 0.06631,-0.019892 L 10.1724,4.4613261 h 0.570251 z"
         style="font-style:italic;font-family:'Segoe UI';-inkscape-font-specification:'Segoe UI Italic';fill:#090909;fill-opacity:1"
         id="path10054" /><path
         d="m 11.531718,6.715805 q -0.05526,0.017682 -0.125985,0.028734 -0.06852,0.011051 -0.137037,0.011051 -0.223238,0 -0.333752,-0.1105137 -0.110513,-0.1127239 -0.110513,-0.3005971 0,-0.055257 0.01105,-0.1304062 0.01105,-0.075149 0.03536,-0.1856629 l 0.32933,-1.5670839 h 0.366906 l -0.331541,1.575925 q -0.01989,0.092831 -0.02873,0.1436677 -0.0066,0.050836 -0.0066,0.086201 0,0.090621 0.04863,0.1392472 0.05084,0.046416 0.15914,0.046416 0.05747,0 0.09946,-0.00663 0.04421,-0.00663 0.08178,-0.019892 z M 11.79032,3.6545763 q 0,0.099462 -0.06852,0.1701911 -0.06631,0.070729 -0.165771,0.070729 -0.09725,0 -0.170191,-0.068518 -0.07073,-0.070729 -0.07073,-0.1724014 0,-0.1016725 0.07073,-0.1657705 0.07294,-0.064098 0.170191,-0.064098 0.09725,0 0.165771,0.066308 0.06852,0.064098 0.06852,0.1635602 z"
         style="font-style:italic;font-family:'Segoe UI';-inkscape-font-specification:'Segoe UI Italic';fill:#090909;fill-opacity:1"
         id="path10056" /><path
         d="m 14.033748,5.2990197 q 0,0.3005972 -0.0862,0.5702506 -0.08399,0.2696533 -0.24534,0.4729985 -0.15914,0.2011349 -0.389008,0.3204896 -0.227659,0.1171445 -0.514994,0.1171445 -0.194504,0 -0.351434,-0.061888 -0.154719,-0.061888 -0.265232,-0.1768219 -0.108304,-0.1171445 -0.167981,-0.2807047 -0.05747,-0.1657705 -0.05747,-0.3735362 0,-0.3116486 0.08841,-0.5813019 0.09062,-0.2718637 0.251971,-0.4707883 0.16356,-0.2011349 0.389008,-0.3138588 0.227658,-0.1149342 0.501732,-0.1149342 0.192294,0 0.347013,0.061888 0.156929,0.061888 0.267443,0.1790322 0.110514,0.1149342 0.170191,0.2807047 0.06189,0.1635602 0.06189,0.3713259 z m -0.371326,0.017682 q 0,-0.1436677 -0.03536,-0.2541814 -0.03536,-0.112724 -0.09946,-0.1878733 -0.0641,-0.07736 -0.154719,-0.1171444 -0.09062,-0.041995 -0.203345,-0.041995 -0.194504,0 -0.351434,0.099462 -0.156929,0.099462 -0.265232,0.2630225 -0.108304,0.16135 -0.167981,0.3691157 -0.05747,0.2055554 -0.05747,0.4221622 0,0.1370369 0.03315,0.2497609 0.03536,0.1105136 0.09725,0.1900835 0.0641,0.07736 0.154719,0.1193548 0.09283,0.041995 0.207766,0.041995 0.196714,0 0.353643,-0.097252 0.15693,-0.099462 0.265233,-0.2608122 0.108304,-0.1635603 0.165771,-0.371326 0.05747,-0.2077657 0.05747,-0.4243725 z"
         style="font-style:italic;font-family:'Segoe UI';-inkscape-font-specification:'Segoe UI Italic';fill:#090909;fill-opacity:1"
         id="path10058" /><path
         d="m 16.518095,5.0271561 q 0,0.033154 -0.0088,0.090621 -0.0066,0.057467 -0.01989,0.1237753 -0.01105,0.066308 -0.02431,0.1326164 -0.01105,0.064098 -0.0221,0.1105137 L 16.179923,6.7246461 H 15.813018 L 16.089302,5.398482 q 0.0088,-0.035364 0.01768,-0.08178 0.0088,-0.046416 0.01547,-0.092831 0.0066,-0.046416 0.01105,-0.08399 0.0044,-0.039785 0.0044,-0.061888 0,-0.1679808 -0.08178,-0.2652328 -0.07957,-0.097252 -0.23871,-0.097252 -0.145878,0 -0.289545,0.086201 -0.143668,0.086201 -0.265233,0.2188171 -0.121565,0.1326164 -0.209976,0.2917561 -0.0862,0.1591397 -0.117145,0.307228 L 14.69904,6.7246461 h -0.366905 l 0.349223,-1.6157099 q 0.01768,-0.086201 0.03536,-0.1790321 0.01768,-0.095042 0.03315,-0.1812424 0.01547,-0.088411 0.02652,-0.1635603 0.01105,-0.075149 0.01768,-0.1237753 h 0.353644 q -0.01105,0.086201 -0.02652,0.1812424 -0.01547,0.092831 -0.02652,0.1724014 -0.01326,0.092831 -0.02873,0.1812424 h 0.0088 q 0.07736,-0.1215651 0.170191,-0.2276582 0.09504,-0.1083034 0.203345,-0.1878732 0.110513,-0.08178 0.232078,-0.1281959 0.123776,-0.046416 0.258602,-0.046416 0.150299,0 0.258602,0.046416 0.108304,0.044205 0.179033,0.1259856 0.07294,0.08178 0.106093,0.1967143 0.03536,0.1149343 0.03536,0.2519712 z"
         style="font-style:italic;font-family:'Segoe UI';-inkscape-font-specification:'Segoe UI Italic';fill:#090909;fill-opacity:1"
         id="path10060" /><path
         d="m 19.238941,4.2402988 q 0,0.1480883 -0.042,0.2851253 -0.042,0.1348266 -0.130406,0.2453403 -0.0862,0.1105137 -0.223238,0.1922938 -0.134826,0.07957 -0.322699,0.1149342 v 0.00884 q 0.137036,0.022103 0.238709,0.08178 0.103883,0.057467 0.172401,0.1414575 0.06852,0.08399 0.101673,0.1900835 0.03536,0.1038829 0.03536,0.2232376 0,0.2453404 -0.09062,0.4332136 -0.08841,0.185663 -0.247551,0.3116486 -0.159139,0.1259856 -0.377956,0.1922938 -0.216607,0.064098 -0.470788,0.064098 h -0.9681 L 17.583447,3.555114 h 0.873058 q 0.190083,0 0.335961,0.053047 0.145878,0.053046 0.245341,0.145878 0.09946,0.092831 0.150298,0.2188171 0.05084,0.1237753 0.05084,0.2674431 z m -0.389008,0.070729 q 0,-0.08399 -0.02652,-0.1591397 -0.02652,-0.075149 -0.0862,-0.1326164 -0.05747,-0.059677 -0.152509,-0.092831 -0.09283,-0.035364 -0.227658,-0.035364 h -0.461947 l -0.221027,1.0233566 h 0.415531 q 0.190084,0 0.331541,-0.044206 0.143668,-0.044206 0.236499,-0.1237753 0.09504,-0.07957 0.141458,-0.1900835 0.04642,-0.1105137 0.04642,-0.2453404 z m -0.172401,1.4366777 q 0,-0.2320787 -0.16135,-0.3646951 -0.16135,-0.1348266 -0.495101,-0.1348266 h -0.419952 l -0.234289,1.140501 h 0.510573 q 0.207766,0 0.358064,-0.044205 0.150299,-0.046416 0.247551,-0.1304062 0.09946,-0.08399 0.145878,-0.2011348 0.04863,-0.1193548 0.04863,-0.2652329 z"
         style="font-style:italic;font-family:'Segoe UI';-inkscape-font-specification:'Segoe UI Italic';fill:#090909;fill-opacity:1"
         id="path10062" /><path
         d="m 21.400589,6.0814565 q -0.01989,0.086201 -0.03758,0.1790322 -0.01547,0.092831 -0.03094,0.1790321 -0.01547,0.086201 -0.02652,0.16135 -0.01105,0.075149 -0.01768,0.1237753 h -0.353644 q 0.01105,-0.086201 0.02431,-0.1790322 0.01547,-0.095042 0.02873,-0.1746116 0.01547,-0.092831 0.02873,-0.1812424 h -0.0088 q -0.07736,0.1215651 -0.172401,0.2298685 -0.09283,0.1060931 -0.203345,0.1878732 -0.108304,0.07957 -0.232079,0.1259856 -0.121565,0.046416 -0.254181,0.046416 -0.145879,0 -0.256392,-0.046416 -0.108304,-0.044205 -0.181243,-0.1259856 -0.07294,-0.08178 -0.110513,-0.1967143 -0.03536,-0.1149342 -0.03536,-0.2563917 0,-0.028734 0.0088,-0.086201 0.0088,-0.057467 0.01989,-0.1237753 0.01105,-0.066308 0.02431,-0.1304062 0.01547,-0.066308 0.02431,-0.1127239 l 0.263022,-1.2399634 h 0.366906 l -0.280705,1.3261641 q -0.0088,0.035364 -0.01768,0.08178 -0.0088,0.046416 -0.01768,0.092831 -0.0066,0.046416 -0.01105,0.086201 -0.0044,0.037575 -0.0044,0.059677 0,0.1657705 0.07957,0.2652328 0.08178,0.097252 0.24313,0.097252 0.09725,0 0.194504,-0.039785 0.09725,-0.039785 0.187873,-0.1060931 0.09283,-0.068518 0.174612,-0.1569294 0.08178,-0.090621 0.148088,-0.1900835 0.06631,-0.1016726 0.112724,-0.2077657 0.04642,-0.1060931 0.06852,-0.2033452 l 0.2365,-1.1051367 h 0.364695 z"
         style="font-style:italic;font-family:'Segoe UI';-inkscape-font-specification:'Segoe UI Italic';fill:#090909;fill-opacity:1"
         id="path10064" /><path
         d="m 23.690432,3.6877304 q -0.0221,-0.011051 -0.05305,-0.019892 -0.03094,-0.011051 -0.06631,-0.019893 -0.03536,-0.00884 -0.07515,-0.013262 -0.03758,-0.00663 -0.07294,-0.00663 -0.181243,0 -0.280705,0.1193548 -0.09725,0.1171445 -0.148088,0.3514335 l -0.08178,0.3624848 h 0.534886 l -0.07294,0.307228 H 22.839477 L 22.260385,7.476139 H 21.89348 l 0.583512,-2.7075849 h -0.389008 l 0.06852,-0.307228 h 0.389008 l 0.09062,-0.4199519 q 0.042,-0.1945041 0.117144,-0.331541 0.07515,-0.137037 0.179032,-0.2232377 0.103883,-0.086201 0.234289,-0.1259855 0.132617,-0.039785 0.289546,-0.039785 0.08178,0 0.15914,0.013262 0.07957,0.013262 0.134826,0.030944 z"
         style="font-style:italic;font-family:'Segoe UI';-inkscape-font-specification:'Segoe UI Italic';fill:#090909;fill-opacity:1"
         id="path10066" /><path
         d="m 25.116059,3.6877304 q -0.0221,-0.011051 -0.05305,-0.019892 -0.03094,-0.011051 -0.06631,-0.019893 -0.03536,-0.00884 -0.07515,-0.013262 -0.03758,-0.00663 -0.07294,-0.00663 -0.181243,0 -0.280705,0.1193548 -0.09725,0.1171445 -0.148088,0.3514335 l -0.08178,0.3624848 h 0.534887 l -0.07294,0.307228 H 24.265103 L 23.686012,7.476139 H 23.319106 L 23.902619,4.7685541 H 23.51361 l 0.06852,-0.307228 h 0.389008 l 0.09062,-0.4199519 q 0.042,-0.1945041 0.117145,-0.331541 0.07515,-0.137037 0.179032,-0.2232377 0.103883,-0.086201 0.234289,-0.1259855 0.132616,-0.039785 0.289546,-0.039785 0.08178,0 0.159139,0.013262 0.07957,0.013262 0.134827,0.030944 z"
         style="font-style:italic;font-family:'Segoe UI';-inkscape-font-specification:'Segoe UI Italic';fill:#090909;fill-opacity:1"
         id="path10068" /><path
         d="m 26.74945,4.9917917 q 0,0.1790322 -0.07957,0.3271205 -0.07957,0.145878 -0.263023,0.2519712 -0.183453,0.1038828 -0.48405,0.1613499 -0.300597,0.057467 -0.742652,0.059677 -0.0044,0.024313 -0.0044,0.050836 0,0.024313 0,0.044205 0,0.1193547 0.03315,0.2254479 0.03315,0.1060931 0.101672,0.1856629 0.07073,0.07957 0.179033,0.1259856 0.110513,0.046416 0.260812,0.046416 0.152509,0 0.333751,-0.057467 0.183453,-0.059677 0.349223,-0.1679807 l -0.06852,0.3580643 q -0.121565,0.070729 -0.289546,0.1237753 -0.167981,0.053046 -0.375746,0.053046 -0.249761,0 -0.422163,-0.07736 Q 25.107217,6.6251838 25.001124,6.4969879 24.897241,6.3665818 24.850826,6.198601 24.80441,6.02841 24.80441,5.842747 q 0,-0.1989246 0.0442,-0.3823773 0.04421,-0.185663 0.123776,-0.3448026 0.08178,-0.1591397 0.194504,-0.2895459 0.112724,-0.1326164 0.249761,-0.2254479 0.137037,-0.092831 0.293966,-0.1436677 0.156929,-0.050836 0.32491,-0.050836 0.174612,0 0.307228,0.046416 0.134827,0.046416 0.223238,0.1281959 0.09062,0.07957 0.137037,0.185663 0.04641,0.1060931 0.04641,0.2254478 z m -0.369115,0.017682 q 0,-0.1392472 -0.103883,-0.2166068 -0.101673,-0.07736 -0.271864,-0.07736 -0.134826,0 -0.260812,0.059677 -0.125986,0.057467 -0.232079,0.16135 -0.106093,0.1016726 -0.183452,0.2453404 -0.07736,0.1414575 -0.112724,0.307228 0.316069,0 0.537096,-0.030944 0.221027,-0.033154 0.360275,-0.095042 0.139247,-0.061888 0.203345,-0.1502986 0.0641,-0.090621 0.0641,-0.2033452 z"
         style="font-style:italic;font-family:'Segoe UI';-inkscape-font-specification:'Segoe UI Italic';fill:#090909;fill-opacity:1"
         id="path10070" /><path
         d="m 28.52872,4.8459137 h -0.0088 q -0.04421,-0.026523 -0.117145,-0.050836 -0.07073,-0.026523 -0.141457,-0.026523 -0.128196,0 -0.245341,0.08399 -0.117144,0.08178 -0.214396,0.2188171 -0.09504,0.1348267 -0.167981,0.3094383 -0.07073,0.1746116 -0.110514,0.3580643 l -0.212186,0.9857819 h -0.362485 l 0.31828,-1.5029859 q 0.01989,-0.092831 0.03979,-0.1945041 0.01989,-0.1016726 0.03536,-0.2033451 0.01768,-0.1016726 0.03094,-0.1945041 0.01326,-0.092831 0.01989,-0.1679808 h 0.358065 q -0.0066,0.066308 -0.01547,0.1414575 -0.0088,0.072939 -0.01768,0.1436678 -0.0088,0.068519 -0.01768,0.1259856 -0.0088,0.055257 -0.01326,0.086201 h 0.0088 q 0.07073,-0.1259855 0.143668,-0.2276581 0.07294,-0.1016726 0.152508,-0.1724013 0.08178,-0.072939 0.172402,-0.112724 0.09062,-0.039785 0.196714,-0.039785 0.06189,0 0.121565,0.013262 0.06189,0.011051 0.110514,0.024313 z"
         style="font-style:italic;font-family:'Segoe UI';-inkscape-font-specification:'Segoe UI Italic';fill:#090909;fill-opacity:1"
         id="path10072" /></g><rect
       style="opacity:1;fill:#ffc26d;fill-opacity:1;stroke-width:0.3;stroke-linejoin:round"
       id="rect732"
       width="6.3922672"
       height="6.3922672"
       x="33.060986"
       y="2.1120875"
       rx="0"
       ry="0" /><rect
       style="opacity:1;fill:#ff9b54;fill-opacity:1;stroke-width:0.3;stroke-linejoin:round"
       id="rect2317"
       width="6.3922672"
       height="6.3922672"
       x="40.089085"
       y="2.1120875"
       rx="0"
       ry="0" /><rect
       style="opacity:1;fill:#ff6f3b;fill-opacity:1;stroke-width:0.3;stroke-linejoin:round"
       id="rect2319"
       width="6.3922672"
       height="6.3922672"
       x="47.117188"
       y="2.1120875"
       rx="0"
       ry="0" /><rect
       style="opacity:1;fill:#ffc26d;fill-opacity:1;stroke-width:0.3;stroke-linejoin:round"
       id="rect3224"
       width="6.3922672"
       height="6.3922672"
       x="54.14529"
       y="2.1120875"
       rx="0"
       ry="0" /><rect
       style="opacity:1;fill:#ff9b54;fill-opacity:1;stroke-width:0.3;stroke-linejoin:round"
       id="rect3226"
       width="6.3922672"
       height="6.3922672"
       x="61.173397"
       y="2.1120875"
       rx="0"
       ry="0" /><rect
       style="opacity:1;fill:#ff6f3b;fill-opacity:1;stroke-width:0.3;stroke-linejoin:round"
       id="rect3228"
       width="6.3922672"
       height="6.3922672"
       x="68.201508"
       y="2.1120875"
       rx="0"
       ry="0" /><g
       id="g2047"
       transform="translate(13.659331,-19.23968)"
       style="stroke:#090909;stroke-opacity:1"><path
         style="opacity:1;fill:none;fill-opacity:1;stroke:#090909;stroke-width:0.45;stroke-linejoin:round;stroke-dasharray:none;stroke-opacity:1"
         d="M 126.57225,28.471916 H 18.673774 l -1e-6,-7.848028 H 126.57225"
         id="path1936"
         sodipodi:nodetypes="cccc" /><path
         style="opacity:1;fill:none;fill-opacity:1;stroke:#090909;stroke-width:0.45;stroke-linejoin:round;stroke-dasharray:none;stroke-opacity:1"
         d="m 130.83255,28.471916 h -2.2983 m 0,-7.848028 h 2.2983"
         id="path2036"
         sodipodi:nodetypes="cccc" /><path
         style="opacity:1;fill:none;fill-opacity:1;stroke:#090909;stroke-width:0.45;stroke-linejoin:round;stroke-dasharray:none;stroke-opacity:1"
         d="m 135.09286,28.471916 h -2.2983 m 0,-7.848028 h 2.2983"
         id="path2042"
         sodipodi:nodetypes="cccc" /></g><g
       aria-label="x"
       transform="matrix(1.0000531,0,0,0.9999469,8.0014508,0)"
       id="text3460"
       style="font-size:4.52664px;line-height:1.25;font-family:'Lucida Console';-inkscape-font-specification:'Lucida Console';letter-spacing:0px;word-spacing:0px;fill:#090909;stroke-width:0.255208"><path
         d="m 29.478622,4.4439162 q 0,0.1584324 -0.221805,0.2580185 l -0.194646,-0.176539 q -0.303284,0.08148 -0.606569,0.7740554 0.131272,0.4662439 0.199172,0.629203 0.104113,0.2625451 0.303285,0.2625451 0.108639,0 0.248965,-0.045266 V 6.286259 q -0.344025,0.1312726 -0.516037,0.1312726 -0.239912,0 -0.348551,-0.289705 -0.05885,-0.1539057 -0.167486,-0.6201496 -0.239912,0.4934037 -0.443611,0.7061558 -0.199172,0.2127521 -0.420977,0.2127521 -0.126746,0 -0.203699,-0.0679 -0.07695,-0.0679 -0.07695,-0.176539 0,-0.1901189 0.221805,-0.2308586 l 0.208226,0.1946455 Q 27.812819,5.9558139 28.088944,5.2994511 27.912405,4.6702482 27.744919,4.5118158 L 27.369208,4.4620227 V 4.3533834 L 27.826399,4.194951 q 0.02263,-0.00453 0.05885,-0.00453 0.167486,0 0.262545,0.2036988 0.04074,0.090533 0.0679,0.1810656 0.02716,0.090533 0.140326,0.5296169 0.44361,-0.905328 0.864588,-0.905328 0.108639,0 0.181065,0.072426 0.07695,0.0679 0.07695,0.1720123 z"
         style="font-style:italic;font-family:'Charter ITC TT';-inkscape-font-specification:'Charter ITC TT Italic'"
         id="path5017" /></g><g
       aria-label="y"
       transform="matrix(1.0000531,0,0,0.9999469,8.0014508,0)"
       id="text3841"
       style="font-size:4.52664px;line-height:1.25;font-family:'Lucida Console';-inkscape-font-specification:'Lucida Console';letter-spacing:0px;word-spacing:0px;fill:#090909;stroke-width:0.255208"><path
         d="m 36.461085,4.4167563 -0.230859,0.1357992 q -0.212752,0.2489652 -0.516037,0.9143813 -0.398344,0.8645882 -0.692576,1.2719858 -0.45719,0.629203 -0.887221,0.629203 -0.153906,0 -0.262545,-0.090533 -0.113166,-0.086006 -0.113166,-0.2082255 0,-0.1991721 0.244438,-0.2489652 l 0.267072,0.2670718 q 0.380238,-0.02716 0.778582,-0.7740554 L 34.768122,4.9373199 Q 34.709275,4.6385617 34.587056,4.4665494 l -0.384764,-0.031687 v -0.099586 l 0.44361,-0.1448525 q 0.02263,-0.00453 0.05885,-0.00453 0.176539,0 0.262545,0.1901189 0.04527,0.095059 0.0679,0.1946455 0.03169,0.1312726 0.12222,0.5884632 l 0.149379,0.7650021 Q 35.641763,5.086699 36.017474,4.2040043 h 0.08601 l 0.357605,0.1176926 z"
         style="font-style:italic;font-family:'Charter ITC TT';-inkscape-font-specification:'Charter ITC TT Italic'"
         id="path5020" /></g><g
       aria-label="z"
       transform="matrix(1.0000531,0,0,0.9999469,8.0014508,0)"
       id="text3845"
       style="font-size:4.52664px;line-height:1.25;font-family:'Lucida Console';-inkscape-font-specification:'Lucida Console';letter-spacing:0px;word-spacing:0px;fill:#090909;stroke-width:0.255208"><path
         d="M 43.262486,4.3126436 41.700795,6.0554 42.139879,5.942234 q 0.348551,0.1493791 0.470771,0.1493791 0.153905,0 0.271598,-0.162959 L 42.633283,5.652529 q 0.09959,-0.162959 0.221805,-0.162959 0.09053,0 0.153906,0.076953 0.06337,0.076953 0.06337,0.1901189 0,0.2489652 -0.194646,0.4436107 -0.190118,0.1946455 -0.434557,0.1946455 -0.104113,0 -0.239912,-0.049793 -0.117693,-0.045266 -0.230859,-0.090533 -0.149379,-0.05432 -0.244438,-0.05432 -0.05432,0 -0.135799,0.04074 l -0.10864,0.1946455 -0.248965,-0.1357992 1.557164,-1.747283 -0.448137,0.099586 Q 42.08103,4.5208689 41.940704,4.5208689 q -0.162959,0 -0.280652,0.1448524 l 0.239912,0.289705 q -0.09053,0.1448525 -0.212752,0.1448525 -0.212752,0 -0.212752,-0.2625452 0,-0.2444385 0.185592,-0.439084 0.190119,-0.1991722 0.425504,-0.1991722 0.14938,0 0.411925,0.1357992 0.172012,0.090533 0.262545,0.090533 0.05432,0 0.140326,-0.036213 l 0.08601,-0.2218054 z"
         style="font-style:italic;font-family:'Charter ITC TT';-inkscape-font-specification:'Charter ITC TT Italic'"
         id="path5023" /></g><g
       aria-label="x"
       transform="matrix(1.0000531,0,0,0.9999469,-13.082855,-7.9984741e-8)"
       id="text3863"
       style="font-size:4.52664px;line-height:1.25;font-family:'Lucida Console';-inkscape-font-specification:'Lucida Console';letter-spacing:0px;word-spacing:0px;fill:#090909;stroke-width:0.255208"><path
         d="m 71.645004,4.4439162 q 0,0.1584324 -0.221805,0.2580185 l -0.194646,-0.176539 q -0.303285,0.08148 -0.60657,0.7740554 0.131273,0.4662439 0.199173,0.629203 0.104112,0.2625451 0.303285,0.2625451 0.108639,0 0.248965,-0.045266 V 6.286259 q -0.344025,0.1312726 -0.516037,0.1312726 -0.239912,0 -0.348552,-0.289705 -0.05885,-0.1539057 -0.167485,-0.6201496 -0.239912,0.4934037 -0.443611,0.7061558 -0.199172,0.2127521 -0.420977,0.2127521 -0.126746,0 -0.203699,-0.0679 -0.07695,-0.0679 -0.07695,-0.176539 0,-0.1901189 0.221805,-0.2308586 l 0.208226,0.1946455 Q 69.979201,5.9558139 70.255326,5.2994511 70.078787,4.6702482 69.911301,4.5118158 L 69.53559,4.4620227 V 4.3533834 L 69.992781,4.194951 q 0.02263,-0.00453 0.05885,-0.00453 0.167486,0 0.262545,0.2036988 0.04074,0.090533 0.0679,0.1810656 0.02716,0.090533 0.140325,0.5296169 0.443611,-0.905328 0.864589,-0.905328 0.108639,0 0.181065,0.072426 0.07695,0.0679 0.07695,0.1720123 z"
         style="font-style:italic;font-family:'Charter ITC TT';-inkscape-font-specification:'Charter ITC TT Italic'"
         id="path5035" /></g><g
       aria-label="y"
       transform="matrix(1.0000531,0,0,0.9999469,-13.082855,-7.9984741e-8)"
       id="text3867"
       style="font-size:4.52664px;line-height:1.25;font-family:'Lucida Console';-inkscape-font-specification:'Lucida Console';letter-spacing:0px;word-spacing:0px;fill:#090909;stroke-width:0.255208"><path
         d="m 78.627463,4.4167563 -0.230859,0.1357992 q -0.212752,0.2489652 -0.516037,0.9143813 -0.398344,0.8645882 -0.692576,1.2719858 -0.45719,0.629203 -0.887221,0.629203 -0.153906,0 -0.262545,-0.090533 -0.113166,-0.086006 -0.113166,-0.2082255 0,-0.1991721 0.244438,-0.2489652 l 0.267072,0.2670718 q 0.380238,-0.02716 0.778582,-0.7740554 L 76.9345,4.9373199 Q 76.875653,4.6385617 76.753434,4.4665494 L 76.36867,4.4348629 v -0.099586 l 0.44361,-0.1448525 q 0.02263,-0.00453 0.05885,-0.00453 0.176539,0 0.262545,0.1901189 0.04527,0.095059 0.0679,0.1946455 0.03169,0.1312726 0.12222,0.5884632 L 77.47317,5.9241274 Q 77.808141,5.086699 78.183852,4.2040043 h 0.08601 l 0.357605,0.1176926 z"
         style="font-style:italic;font-family:'Charter ITC TT';-inkscape-font-specification:'Charter ITC TT Italic'"
         id="path5038" /></g><g
       aria-label="z"
       transform="matrix(1.0000531,0,0,0.9999469,-13.082855,-7.9984741e-8)"
       id="text3871"
       style="font-size:4.52664px;line-height:1.25;font-family:'Lucida Console';-inkscape-font-specification:'Lucida Console';letter-spacing:0px;word-spacing:0px;fill:#090909;stroke-width:0.255208"><path
         d="M 85.428864,4.3126436 83.867173,6.0554 84.306257,5.942234 q 0.348551,0.1493791 0.470771,0.1493791 0.153905,0 0.271598,-0.162959 L 84.799661,5.652529 q 0.09959,-0.162959 0.221805,-0.162959 0.09053,0 0.153906,0.076953 0.06337,0.076953 0.06337,0.1901189 0,0.2489652 -0.194646,0.4436107 -0.190118,0.1946455 -0.434557,0.1946455 -0.104113,0 -0.239912,-0.049793 -0.117693,-0.045266 -0.230859,-0.090533 -0.149379,-0.05432 -0.244438,-0.05432 -0.05432,0 -0.135799,0.04074 l -0.10864,0.1946455 -0.248965,-0.1357992 1.557164,-1.747283 -0.448137,0.099586 q -0.262545,-0.1312725 -0.402871,-0.1312725 -0.162959,0 -0.280652,0.1448524 l 0.239912,0.289705 q -0.09053,0.1448525 -0.212752,0.1448525 -0.212752,0 -0.212752,-0.2625452 0,-0.2444385 0.185592,-0.439084 0.190119,-0.1991722 0.425504,-0.1991722 0.14938,0 0.411925,0.1357992 0.172012,0.090533 0.262545,0.090533 0.05432,0 0.140326,-0.036213 l 0.08601,-0.2218054 z"
         style="font-style:italic;font-family:'Charter ITC TT';-inkscape-font-specification:'Charter ITC TT Italic'"
         id="path5041" /></g><text
       xml:space="preserve"
       style="font-style:normal;font-variant:normal;font-weight:normal;font-stretch:normal;font-size:4.52664px;line-height:1.25;font-family:'Lucida Console';-inkscape-font-specification:'Lucida Console';letter-spacing:0px;word-spacing:0px;fill:#090909;fill-opacity:1;stroke:none;stroke-width:0.255208"
       x="27.242462"
       y="-8.124651"
       id="text5002"
       transform="scale(1.0000531,0.9999469)"><tspan
         sodipodi:role="line"
         id="tspan5000"
         x="27.242462"
         y="-8.124651"
         style="font-style:italic;font-variant:normal;font-weight:normal;font-stretch:normal;font-family:'Charter ITC TT';-inkscape-font-specification:'Charter ITC TT Italic';fill:#090909;fill-opacity:1;stroke-width:0.255208">x</tspan></text><g
       aria-label="colorBuffer"
       transform="scale(1.0000531,0.9999469)"
       id="text9890"
       style="font-size:4.52664px;line-height:1.25;font-family:'Lucida Console';-inkscape-font-specification:'Lucida Console';text-align:end;letter-spacing:0px;word-spacing:0px;text-anchor:end;fill:#090909;stroke-width:0.255208;fill-opacity:1"><path
         d="m 9.1026278,16.773939 q -0.092832,-0.08178 -0.2254479,-0.137037 -0.1304061,-0.05747 -0.2895458,-0.05747 -0.1525088,0 -0.2762842,0.05305 -0.121565,0.05305 -0.2166067,0.141458 -0.095042,0.08841 -0.1635603,0.203345 -0.068518,0.114934 -0.1127239,0.23871 -0.044205,0.123775 -0.066308,0.24755 -0.019893,0.121565 -0.019893,0.227658 0,0.31607 0.1392472,0.47963 0.1392473,0.16356 0.3801671,0.16356 0.145878,0 0.3028074,-0.05968 0.1569294,-0.06189 0.2961767,-0.15693 l -0.07736,0.362485 q -0.1436678,0.07736 -0.2873356,0.119355 -0.1414575,0.04421 -0.3005971,0.04421 -0.2077657,0 -0.3624849,-0.07073 -0.1525088,-0.07073 -0.2541814,-0.194505 -0.1016726,-0.123775 -0.1525089,-0.291756 -0.050836,-0.170191 -0.050836,-0.366905 0,-0.185663 0.037575,-0.364695 0.037575,-0.181243 0.1105136,-0.340382 0.075149,-0.16135 0.1834527,-0.298387 0.1083034,-0.137037 0.2475507,-0.234289 0.1414575,-0.09946 0.3138588,-0.154719 0.1724013,-0.05747 0.3735362,-0.05747 0.095042,0 0.1812424,0.01326 0.086201,0.01326 0.1569294,0.03536 0.070729,0.0221 0.1259856,0.04863 0.055257,0.02431 0.088411,0.04863 z"
         style="font-style:italic;font-family:'Segoe UI';-inkscape-font-specification:'Segoe UI Italic';fill:#090909;fill-opacity:1"
         id="path10075" /><path
         d="m 11.376999,17.162947 q 0,0.300597 -0.0862,0.570251 -0.08399,0.269653 -0.245341,0.472998 -0.159139,0.201135 -0.389008,0.32049 -0.227658,0.117144 -0.514994,0.117144 -0.1945037,0 -0.3514331,-0.06189 -0.1547191,-0.06189 -0.2652328,-0.176822 -0.1083034,-0.117145 -0.1679808,-0.280705 -0.057467,-0.16577 -0.057467,-0.373536 0,-0.311649 0.088411,-0.581302 0.090621,-0.271864 0.2519711,-0.470788 0.1635603,-0.201135 0.3890077,-0.313859 0.227659,-0.114934 0.501733,-0.114934 0.192293,0 0.347012,0.06189 0.15693,0.06189 0.267444,0.179032 0.110513,0.114935 0.170191,0.280705 0.06189,0.16356 0.06189,0.371326 z m -0.371326,0.01768 q 0,-0.143667 -0.03536,-0.254181 -0.03536,-0.112724 -0.09946,-0.187873 -0.0641,-0.07736 -0.15472,-0.117145 -0.09062,-0.042 -0.203345,-0.042 -0.194504,0 -0.351433,0.09946 -0.15693,0.09946 -0.265233,0.263023 -0.1083034,0.16135 -0.1679807,0.369115 -0.057467,0.205556 -0.057467,0.422163 0,0.137037 0.033154,0.249761 0.035364,0.110513 0.097252,0.190083 0.064098,0.07736 0.1547191,0.119355 0.092832,0.042 0.2077656,0.042 0.196714,0 0.353644,-0.09725 0.156929,-0.09946 0.265233,-0.260812 0.108303,-0.163561 0.16577,-0.371326 0.05747,-0.207766 0.05747,-0.424373 z"
         style="font-style:italic;font-family:'Segoe UI';-inkscape-font-specification:'Segoe UI Italic';fill:#090909;fill-opacity:1"
         id="path10077" /><path
         d="m 12.468874,18.579732 q -0.05526,0.01768 -0.125985,0.02873 -0.06852,0.01105 -0.137037,0.01105 -0.223238,0 -0.333751,-0.110513 -0.110514,-0.112724 -0.110514,-0.300598 0,-0.05526 0.01105,-0.130406 0.01105,-0.07515 0.03536,-0.185663 l 0.56583,-2.656748 h 0.366905 l -0.56804,2.665589 q -0.01989,0.09283 -0.02873,0.143668 -0.0066,0.05084 -0.0066,0.0862 0,0.09062 0.04863,0.139247 0.05084,0.04642 0.15914,0.04642 0.05747,0 0.09946,-0.0066 0.04421,-0.0066 0.08178,-0.01989 z"
         style="font-style:italic;font-family:'Segoe UI';-inkscape-font-specification:'Segoe UI Italic';fill:#090909;fill-opacity:1"
         id="path10079" /><path
         d="m 14.970904,17.162947 q 0,0.300597 -0.0862,0.570251 -0.08399,0.269653 -0.24534,0.472998 -0.15914,0.201135 -0.389008,0.32049 -0.227658,0.117144 -0.514994,0.117144 -0.194504,0 -0.351433,-0.06189 -0.154719,-0.06189 -0.265233,-0.176822 -0.108304,-0.117145 -0.167981,-0.280705 -0.05747,-0.16577 -0.05747,-0.373536 0,-0.311649 0.08841,-0.581302 0.09062,-0.271864 0.251971,-0.470788 0.16356,-0.201135 0.389008,-0.313859 0.227658,-0.114934 0.501732,-0.114934 0.192294,0 0.347013,0.06189 0.15693,0.06189 0.267443,0.179032 0.110514,0.114935 0.170191,0.280705 0.06189,0.16356 0.06189,0.371326 z m -0.371326,0.01768 q 0,-0.143667 -0.03536,-0.254181 -0.03537,-0.112724 -0.09946,-0.187873 -0.0641,-0.07736 -0.154719,-0.117145 -0.09062,-0.042 -0.203345,-0.042 -0.194504,0 -0.351433,0.09946 -0.15693,0.09946 -0.265233,0.263023 -0.108304,0.16135 -0.167981,0.369115 -0.05747,0.205556 -0.05747,0.422163 0,0.137037 0.03315,0.249761 0.03536,0.110513 0.09725,0.190083 0.0641,0.07736 0.154719,0.119355 0.09283,0.042 0.207766,0.042 0.196714,0 0.353644,-0.09725 0.156929,-0.09946 0.265232,-0.260812 0.108304,-0.163561 0.165771,-0.371326 0.05747,-0.207766 0.05747,-0.424373 z"
         style="font-style:italic;font-family:'Segoe UI';-inkscape-font-specification:'Segoe UI Italic';fill:#090909;fill-opacity:1"
         id="path10081" /><path
         d="m 16.836375,16.709841 h -0.0088 q -0.04421,-0.02652 -0.117145,-0.05084 -0.07073,-0.02652 -0.141457,-0.02652 -0.128196,0 -0.245341,0.08399 -0.117144,0.08178 -0.214396,0.218817 -0.09504,0.134827 -0.167981,0.309438 -0.07073,0.174612 -0.110514,0.358065 l -0.212186,0.985781 h -0.362485 l 0.31828,-1.502985 q 0.01989,-0.09283 0.03978,-0.194505 0.01989,-0.101672 0.03536,-0.203345 0.01768,-0.101672 0.03094,-0.194504 0.01326,-0.09283 0.01989,-0.167981 h 0.358064 q -0.0066,0.06631 -0.01547,0.141458 -0.0088,0.07294 -0.01768,0.143668 -0.0088,0.06852 -0.01768,0.125985 -0.0088,0.05526 -0.01326,0.0862 h 0.0088 q 0.07073,-0.125986 0.143667,-0.227658 0.07294,-0.101673 0.152509,-0.172401 0.08178,-0.07294 0.172402,-0.112724 0.09062,-0.03978 0.196714,-0.03978 0.06189,0 0.121565,0.01326 0.06189,0.01105 0.110514,0.02431 z"
         style="font-style:italic;font-family:'Segoe UI';-inkscape-font-specification:'Segoe UI Italic';fill:#090909;fill-opacity:1"
         id="path10083" /><path
         d="m 19.238942,16.104226 q 0,0.148088 -0.042,0.285125 -0.042,0.134827 -0.130406,0.245341 -0.0862,0.110513 -0.223238,0.192294 -0.134827,0.07957 -0.3227,0.114934 v 0.0088 q 0.137037,0.0221 0.238709,0.08178 0.103883,0.05747 0.172402,0.141457 0.06852,0.08399 0.101672,0.190084 0.03536,0.103883 0.03536,0.223238 0,0.24534 -0.09062,0.433213 -0.08841,0.185663 -0.247551,0.311649 -0.15914,0.125985 -0.377957,0.192294 -0.216607,0.0641 -0.470788,0.0641 h -0.9681 l 0.669713,-3.169532 h 0.873058 q 0.190084,0 0.335962,0.05305 0.145878,0.05305 0.24534,0.145878 0.09946,0.09283 0.150299,0.218817 0.05084,0.123775 0.05084,0.267443 z m -0.389008,0.07073 q 0,-0.08399 -0.02652,-0.15914 -0.02652,-0.07515 -0.0862,-0.132616 -0.05747,-0.05968 -0.152509,-0.09283 -0.09283,-0.03536 -0.227658,-0.03536 H 17.895096 L 17.674068,16.77836 H 18.0896 q 0.190083,0 0.331541,-0.04421 0.143667,-0.04421 0.236499,-0.123775 0.09504,-0.07957 0.141457,-0.190084 0.04642,-0.110513 0.04642,-0.24534 z m -0.172402,1.436678 q 0,-0.232079 -0.16135,-0.364696 -0.16135,-0.134826 -0.495101,-0.134826 h -0.419952 l -0.234289,1.140501 h 0.510573 q 0.207766,0 0.358065,-0.04421 0.150298,-0.04641 0.24755,-0.130406 0.09946,-0.08399 0.145878,-0.201135 0.04863,-0.119354 0.04863,-0.265232 z"
         style="font-style:italic;font-family:'Segoe UI';-inkscape-font-specification:'Segoe UI Italic';fill:#090909;fill-opacity:1"
         id="path10085" /><path
         d="m 21.400589,17.945384 q -0.01989,0.0862 -0.03757,0.179032 -0.01547,0.09283 -0.03094,0.179032 -0.01547,0.0862 -0.02652,0.16135 -0.01105,0.07515 -0.01768,0.123775 h -0.353643 q 0.01105,-0.0862 0.02431,-0.179032 0.01547,-0.09504 0.02873,-0.174611 0.01547,-0.09283 0.02873,-0.181243 h -0.0088 q -0.07736,0.121565 -0.172402,0.229869 -0.09283,0.106093 -0.203345,0.187873 -0.108303,0.07957 -0.232079,0.125986 -0.121565,0.04641 -0.254181,0.04641 -0.145878,0 -0.256392,-0.04641 -0.108303,-0.04421 -0.181242,-0.125986 -0.07294,-0.08178 -0.110514,-0.196714 -0.03536,-0.114935 -0.03536,-0.256392 0,-0.02873 0.0088,-0.0862 0.0088,-0.05747 0.01989,-0.123775 0.01105,-0.06631 0.02431,-0.130406 0.01547,-0.06631 0.02431,-0.112724 l 0.263023,-1.239964 h 0.366905 l -0.280704,1.326165 q -0.0088,0.03536 -0.01768,0.08178 -0.0088,0.04641 -0.01768,0.09283 -0.0066,0.04642 -0.01105,0.0862 -0.0044,0.03757 -0.0044,0.05968 0,0.165771 0.07957,0.265233 0.08178,0.09725 0.24313,0.09725 0.09725,0 0.194504,-0.03979 0.09725,-0.03978 0.187873,-0.106093 0.09283,-0.06852 0.174612,-0.156929 0.08178,-0.09062 0.148088,-0.190084 0.06631,-0.101673 0.112724,-0.207766 0.04642,-0.106093 0.06852,-0.203345 l 0.236499,-1.105137 h 0.364695 z"
         style="font-style:italic;font-family:'Segoe UI';-inkscape-font-specification:'Segoe UI Italic';fill:#090909;fill-opacity:1"
         id="path10087" /><path
         d="m 23.690432,15.551658 q -0.0221,-0.01105 -0.05305,-0.01989 -0.03094,-0.01105 -0.06631,-0.01989 -0.03536,-0.0088 -0.07515,-0.01326 -0.03757,-0.0066 -0.07294,-0.0066 -0.181242,0 -0.280704,0.119355 -0.09725,0.117145 -0.148089,0.351434 l -0.08178,0.362484 h 0.534886 l -0.07294,0.307228 h -0.534886 l -0.579091,2.707585 H 21.89348 l 0.583512,-2.707585 h -0.389008 l 0.06852,-0.307228 h 0.389008 l 0.09062,-0.419951 q 0.042,-0.194505 0.117144,-0.331541 0.07515,-0.137037 0.179033,-0.223238 0.103882,-0.0862 0.234289,-0.125986 0.132616,-0.03979 0.289545,-0.03979 0.08178,0 0.15914,0.01326 0.07957,0.01326 0.134827,0.03094 z"
         style="font-style:italic;font-family:'Segoe UI';-inkscape-font-specification:'Segoe UI Italic';fill:#090909;fill-opacity:1"
         id="path10089" /><path
         d="m 25.116058,15.551658 q -0.0221,-0.01105 -0.05305,-0.01989 -0.03094,-0.01105 -0.06631,-0.01989 -0.03536,-0.0088 -0.07515,-0.01326 -0.03758,-0.0066 -0.07294,-0.0066 -0.181242,0 -0.280705,0.119355 -0.09725,0.117145 -0.148088,0.351434 l -0.08178,0.362484 h 0.534886 l -0.07294,0.307228 h -0.534886 l -0.579092,2.707585 h -0.366905 l 0.583512,-2.707585 H 23.51361 l 0.06852,-0.307228 h 0.389009 l 0.09062,-0.419951 q 0.042,-0.194505 0.117144,-0.331541 0.07515,-0.137037 0.179032,-0.223238 0.103883,-0.0862 0.234289,-0.125986 0.132617,-0.03979 0.289546,-0.03979 0.08178,0 0.15914,0.01326 0.07957,0.01326 0.134827,0.03094 z"
         style="font-style:italic;font-family:'Segoe UI';-inkscape-font-specification:'Segoe UI Italic';fill:#090909;fill-opacity:1"
         id="path10091" /><path
         d="m 26.74945,16.855719 q 0,0.179032 -0.07957,0.327121 -0.07957,0.145878 -0.263022,0.251971 -0.183453,0.103883 -0.48405,0.16135 -0.300598,0.05747 -0.742652,0.05968 -0.0044,0.02431 -0.0044,0.05084 0,0.02431 0,0.04421 0,0.119355 0.03315,0.225448 0.03315,0.106093 0.101673,0.185663 0.07073,0.07957 0.179032,0.125985 0.110514,0.04642 0.260812,0.04642 0.152509,0 0.333752,-0.05747 0.183452,-0.05968 0.349223,-0.167981 l -0.06852,0.358064 q -0.121565,0.07073 -0.289545,0.123776 -0.167981,0.05305 -0.375747,0.05305 -0.249761,0 -0.422162,-0.07736 -0.170191,-0.07736 -0.276284,-0.205556 -0.103883,-0.130406 -0.150299,-0.298387 -0.04642,-0.170191 -0.04642,-0.355854 0,-0.198924 0.04421,-0.382377 0.04421,-0.185663 0.123775,-0.344803 0.08178,-0.159139 0.194504,-0.289545 0.112724,-0.132617 0.249761,-0.225448 0.137037,-0.09283 0.293966,-0.143668 0.15693,-0.05084 0.324911,-0.05084 0.174611,0 0.307228,0.04641 0.134826,0.04642 0.223237,0.128196 0.09062,0.07957 0.137037,0.185663 0.04642,0.106093 0.04642,0.225448 z m -0.369116,0.01768 q 0,-0.139247 -0.103883,-0.216607 -0.101672,-0.07736 -0.271863,-0.07736 -0.134827,0 -0.260812,0.05968 -0.125986,0.05747 -0.232079,0.16135 -0.106093,0.101673 -0.183453,0.245341 -0.07736,0.141457 -0.112724,0.307228 0.316069,0 0.537097,-0.03094 0.221027,-0.03315 0.360274,-0.09504 0.139247,-0.06189 0.203345,-0.150299 0.0641,-0.09062 0.0641,-0.203345 z"
         style="font-style:italic;font-family:'Segoe UI';-inkscape-font-specification:'Segoe UI Italic';fill:#090909;fill-opacity:1"
         id="path10093" /><path
         d="m 28.528721,16.709841 h -0.0088 q -0.04421,-0.02652 -0.117144,-0.05084 -0.07073,-0.02652 -0.141458,-0.02652 -0.128196,0 -0.24534,0.08399 -0.117145,0.08178 -0.214397,0.218817 -0.09504,0.134827 -0.167981,0.309438 -0.07073,0.174612 -0.110513,0.358065 l -0.212186,0.985781 h -0.362485 l 0.318279,-1.502985 q 0.01989,-0.09283 0.03978,-0.194505 0.01989,-0.101672 0.03536,-0.203345 0.01768,-0.101672 0.03094,-0.194504 0.01326,-0.09283 0.01989,-0.167981 h 0.358064 q -0.0066,0.06631 -0.01547,0.141458 -0.0088,0.07294 -0.01768,0.143668 -0.0088,0.06852 -0.01768,0.125985 -0.0088,0.05526 -0.01326,0.0862 h 0.0088 q 0.07073,-0.125986 0.143668,-0.227658 0.07294,-0.101673 0.152509,-0.172401 0.08178,-0.07294 0.172401,-0.112724 0.09062,-0.03978 0.196714,-0.03978 0.06189,0 0.121565,0.01326 0.06189,0.01105 0.110514,0.02431 z"
         style="font-style:italic;font-family:'Segoe UI';-inkscape-font-specification:'Segoe UI Italic';fill:#090909;fill-opacity:1"
         id="path10095" /></g><rect
       style="opacity:1;fill:#ce4257;fill-opacity:1;stroke-width:0.3;stroke-linejoin:round"
       id="rect9898"
       width="6.3922672"
       height="6.3922672"
       x="33.060986"
       y="13.975385"
       rx="0"
       ry="0" /><rect
       style="opacity:1;fill:#720026;fill-opacity:1;stroke-width:0.3;stroke-linejoin:round"
       id="rect9900"
       width="6.3922672"
       height="6.3922672"
       x="40.089088"
       y="13.975385"
       rx="0"
       ry="0" /><rect
       style="opacity:1;fill:#4f000b;fill-opacity:1;stroke-width:0.3;stroke-linejoin:round"
       id="rect9902"
       width="6.3922672"
       height="6.3922672"
       x="47.117195"
       y="13.975385"
       rx="0"
       ry="0" /><rect
       style="opacity:1;fill:#ce4257;fill-opacity:1;stroke-width:0.3;stroke-linejoin:round"
       id="rect9910"
       width="6.3922672"
       height="6.3922672"
       x="54.14529"
       y="13.975385"
       rx="0"
       ry="0" /><rect
       style="opacity:1;fill:#720026;fill-opacity:1;stroke-width:0.3;stroke-linejoin:round"
       id="rect9912"
       width="6.3922672"
       height="6.3922672"
       x="61.173389"
       y="13.975385"
       rx="0"
       ry="0" /><rect
       style="opacity:1;fill:#4f000b;fill-opacity:1;stroke-width:0.3;stroke-linejoin:round"
       id="rect9914"
       width="6.3922672"
       height="6.3922672"
       x="68.2015"
       y="13.975385"
       rx="0"
       ry="0" /><g
       id="g9922"
       transform="translate(13.659331,-7.3763829)"
       style="stroke:#090909;stroke-opacity:1"><path
         style="opacity:1;fill:none;fill-opacity:1;stroke:#090909;stroke-width:0.45;stroke-linejoin:round;stroke-dasharray:none;stroke-opacity:1"
         d="M 126.57225,28.471916 H 18.673774 l -1e-6,-7.848028 H 126.57225"
         id="path9916"
         sodipodi:nodetypes="cccc" /><path
         style="opacity:1;fill:none;fill-opacity:1;stroke:#090909;stroke-width:0.45;stroke-linejoin:round;stroke-dasharray:none;stroke-opacity:1"
         d="m 130.83255,28.471916 h -2.2983 m 0,-7.848028 h 2.2983"
         id="path9918"
         sodipodi:nodetypes="cccc" /><path
         style="opacity:1;fill:none;fill-opacity:1;stroke:#090909;stroke-width:0.45;stroke-linejoin:round;stroke-dasharray:none;stroke-opacity:1"
         d="m 135.09286,28.471916 h -2.2983 m 0,-7.848028 h 2.2983"
         id="path9920"
         sodipodi:nodetypes="cccc" /></g><g
       aria-label="r"
       transform="matrix(1.0000531,0,0,0.9999469,-13.082854,11.863297)"
       id="g9938"
       style="font-size:4.52664px;line-height:1.25;font-family:'Lucida Console';-inkscape-font-specification:'Lucida Console';letter-spacing:0px;word-spacing:0px;fill:#ffffff;stroke-width:0.255208"><path
         d="m 50.145362,4.4439162 q 0,0.1312725 -0.08601,0.2127521 -0.08601,0.076953 -0.226332,0.076953 H 49.81039 L 49.692698,4.4891826 Q 49.38036,4.6159285 49.235508,4.7969941 49.090655,4.9780597 49.031809,5.3220843 L 48.846217,6.3858447 H 48.465979 L 48.84169,4.534449 48.470506,4.466549 V 4.353383 l 0.669942,-0.1493791 h 0.09053 l -0.144852,0.6201496 q 0.461717,-0.6246763 0.819321,-0.6246763 0.104113,0 0.172013,0.072426 0.0679,0.0679 0.0679,0.1720123 z"
         style="font-style:italic;font-family:'Charter ITC TT';-inkscape-font-specification:'Charter ITC TT Italic'"
         id="path9936" /></g><g
       aria-label="g"
       transform="matrix(1.0000531,0,0,0.9999469,-13.082854,11.863297)"
       id="g9942"
       style="font-size:4.52664px;line-height:1.25;font-family:'Lucida Console';-inkscape-font-specification:'Lucida Console';letter-spacing:0px;word-spacing:0px;fill:#ffffff;stroke-width:0.255208"><path
         d="m 57.517116,4.5072891 h -0.466244 q 0.05885,0.1629591 0.05885,0.3078115 0,0.2670718 -0.144852,0.4752972 -0.144853,0.2082255 -0.393818,0.3032849 -0.172012,0.063373 -0.434557,0.063373 -0.05885,0.1041127 -0.05885,0.2670717 l 0.719735,0.3259181 q 0.353078,0.1584324 0.353078,0.4390841 0,0.276125 -0.325918,0.4798238 -0.325918,0.2036988 -0.769529,0.2036988 -0.389291,0 -0.620149,-0.162959 -0.230859,-0.1629591 -0.230859,-0.4390841 0,-0.3983443 0.602043,-0.6292029 -0.0045,-0.036213 -0.0045,-0.076953 0,-0.2082255 0.181066,-0.4390841 -0.416451,-0.176539 -0.416451,-0.5613034 0,-0.3576045 0.258019,-0.6110963 0.258018,-0.2534919 0.620149,-0.2534919 0.190119,0 0.425504,0.113166 h 0.64731 z m -0.765002,0.2761251 q 0,-0.4164509 -0.307812,-0.4164509 -0.208225,0 -0.366657,0.2308586 -0.153906,0.226332 -0.153906,0.5205636 0,0.3892911 0.298758,0.3892911 0.212752,0 0.371184,-0.2172788 0.158433,-0.2172787 0.158433,-0.5069836 z m 0.05432,2.0053015 q 0,-0.1720124 -0.258019,-0.289705 L 55.973532,6.2319389 q -0.411924,0.1086394 -0.411924,0.4481374 0,0.226332 0.172012,0.3621312 0.172012,0.1403258 0.448137,0.1403258 0.262545,0 0.443611,-0.113166 0.181066,-0.113166 0.181066,-0.2806516 z"
         style="font-style:italic;font-family:'Charter ITC TT';-inkscape-font-specification:'Charter ITC TT Italic'"
         id="path9940" /></g><g
       aria-label="b"
       transform="matrix(1.0000531,0,0,0.9999469,-13.082854,11.863297)"
       id="g9946"
       style="font-size:4.52664px;line-height:1.25;font-family:'Lucida Console';-inkscape-font-specification:'Lucida Console';letter-spacing:0px;word-spacing:0px;fill:#ffffff;stroke-width:0.255208"><path
         d="m 64.427152,4.9825863 q 0,0.6065698 -0.366657,1.0275473 -0.362132,0.4164509 -0.891749,0.4164509 -0.325918,0 -0.674469,-0.1991722 l 0.529617,-2.8517832 -0.393818,-0.0679 V 3.1900369 l 0.68805,-0.1357992 h 0.149379 q -0.0679,0.2172787 -0.104113,0.4164509 L 63.168746,4.534449 q 0.411925,-0.3349714 0.67447,-0.3349714 0.262545,0 0.420977,0.2172787 0.162959,0.2172788 0.162959,0.56583 z m -0.371184,0.036213 q 0,-0.2534918 -0.104113,-0.3983443 -0.09959,-0.1448524 -0.276125,-0.1448524 -0.190119,0 -0.53867,0.2353852 l -0.258018,1.3489387 q 0.194645,0.1810656 0.398344,0.1810656 0.303285,0 0.53867,-0.3711844 0.239912,-0.3711845 0.239912,-0.8510084 z"
         style="font-style:italic;font-family:'Charter ITC TT';-inkscape-font-specification:'Charter ITC TT Italic'"
         id="path9944" /></g><g
       aria-label="r"
       transform="matrix(1.0000531,0,0,0.9999469,-34.167171,11.863297)"
       id="g9962"
       style="font-size:4.52664px;line-height:1.25;font-family:'Lucida Console';-inkscape-font-specification:'Lucida Console';letter-spacing:0px;word-spacing:0px;fill:#ffffff;stroke-width:0.255208"><path
         d="m 92.311737,4.4439162 q 0,0.1312725 -0.08601,0.2127521 -0.08601,0.076953 -0.226332,0.076953 h -0.02263 L 91.859073,4.4891826 Q 91.546734,4.6159285 91.401882,4.7969941 91.257029,4.9780597 91.198183,5.3220843 L 91.012591,6.3858447 H 90.632353 L 91.008064,4.534449 90.63688,4.466549 V 4.353383 l 0.669942,-0.1493791 h 0.09053 L 91.2525,4.8241535 q 0.461717,-0.6246763 0.819322,-0.6246763 0.104112,0 0.172012,0.072426 0.0679,0.0679 0.0679,0.1720123 z"
         style="font-style:italic;font-family:'Charter ITC TT';-inkscape-font-specification:'Charter ITC TT Italic'"
         id="path9960" /></g><g
       aria-label="g"
       transform="matrix(1.0000531,0,0,0.9999469,-34.167171,11.863297)"
       id="g9966"
       style="font-size:4.52664px;line-height:1.25;font-family:'Lucida Console';-inkscape-font-specification:'Lucida Console';letter-spacing:0px;word-spacing:0px;fill:#ffffff;stroke-width:0.255208"><path
         d="M 99.683494,4.5072891 H 99.21725 q 0.05885,0.1629591 0.05885,0.3078115 0,0.2670718 -0.144852,0.4752972 -0.144853,0.2082255 -0.393818,0.3032849 -0.172012,0.063373 -0.434557,0.063373 -0.05885,0.1041127 -0.05885,0.2670717 l 0.719735,0.3259181 q 0.353078,0.1584324 0.353078,0.4390841 0,0.276125 -0.325918,0.4798238 -0.325918,0.2036988 -0.769529,0.2036988 -0.389291,0 -0.620149,-0.162959 -0.230859,-0.1629591 -0.230859,-0.4390841 0,-0.3983443 0.602043,-0.6292029 -0.0045,-0.036213 -0.0045,-0.076953 0,-0.2082255 0.181066,-0.4390841 -0.416451,-0.176539 -0.416451,-0.5613034 0,-0.3576045 0.258019,-0.6110963 0.258018,-0.2534919 0.620149,-0.2534919 0.190119,0 0.425505,0.113166 h 0.647309 z m -0.765002,0.2761251 q 0,-0.4164509 -0.307812,-0.4164509 -0.208225,0 -0.366657,0.2308586 -0.153906,0.226332 -0.153906,0.5205636 0,0.3892911 0.298758,0.3892911 0.212752,0 0.371184,-0.2172788 0.158433,-0.2172787 0.158433,-0.5069836 z m 0.05432,2.0053015 q 0,-0.1720124 -0.258019,-0.289705 L 98.13991,6.2319389 q -0.411924,0.1086394 -0.411924,0.4481374 0,0.226332 0.172012,0.3621312 0.172012,0.1403258 0.448137,0.1403258 0.262545,0 0.443611,-0.113166 0.181066,-0.113166 0.181066,-0.2806516 z"
         style="font-style:italic;font-family:'Charter ITC TT';-inkscape-font-specification:'Charter ITC TT Italic'"
         id="path9964" /></g><g
       aria-label="b"
       transform="matrix(1.0000531,0,0,0.9999469,-34.167171,11.863297)"
       id="g9970"
       style="font-size:4.52664px;line-height:1.25;font-family:'Lucida Console';-inkscape-font-specification:'Lucida Console';letter-spacing:0px;word-spacing:0px;fill:#ffffff;stroke-width:0.255208"><path
         d="m 106.59353,4.9825863 q 0,0.6065698 -0.36665,1.0275473 -0.36213,0.4164509 -0.89175,0.4164509 -0.32592,0 -0.67447,-0.1991722 l 0.52962,-2.8517832 -0.39382,-0.0679 V 3.1900369 l 0.68805,-0.1357992 h 0.14938 q -0.0679,0.2172787 -0.10412,0.4164509 l -0.19464,1.0637604 q 0.41192,-0.3349714 0.67447,-0.3349714 0.26254,0 0.42098,0.2172787 0.16295,0.2172788 0.16295,0.56583 z m -0.37118,0.036213 q 0,-0.2534918 -0.10411,-0.3983443 -0.0996,-0.1448524 -0.27613,-0.1448524 -0.19012,0 -0.53867,0.2353852 l -0.25802,1.3489387 q 0.19465,0.1810656 0.39835,0.1810656 0.30328,0 0.53867,-0.3711844 0.23991,-0.3711845 0.23991,-0.8510084 z"
         style="font-style:italic;font-family:'Charter ITC TT';-inkscape-font-specification:'Charter ITC TT Italic'"
         id="path9968" /></g><text
       xml:space="preserve"
       style="font-style:normal;font-variant:normal;font-weight:normal;font-stretch:normal;font-size:4.52664px;line-height:1.25;font-family:'Lucida Console';-inkscape-font-specification:'Lucida Console';text-align:end;letter-spacing:0px;word-spacing:0px;text-anchor:end;fill:#ffffff;fill-opacity:1;stroke:none;stroke-width:0.255208"
       x="28.44252"
       y="-27.99317"
       id="text10040"
       transform="scale(1.0000531,0.9999469)"><tspan
         sodipodi:role="line"
         id="tspan10038"
         x="28.442518"
         y="-27.99317"
         style="font-style:italic;font-variant:normal;font-weight:normal;font-stretch:normal;font-family:'Segoe UI';-inkscape-font-specification:'Segoe UI Italic';text-align:end;text-anchor:end;fill:#ffffff;fill-opacity:1;stroke-width:0.255208">positionBuffer</tspan></text><text
       xml:space="preserve"
       style="font-style:normal;font-variant:normal;font-weight:normal;font-stretch:normal;font-size:4.52664px;line-height:1.25;font-family:'Lucida Console';-inkscape-font-specification:'Lucida Console';text-align:end;letter-spacing:0px;word-spacing:0px;text-anchor:end;fill:#ffffff;fill-opacity:1;stroke:none;stroke-width:0.255208"
       x="28.44252"
       y="-16.129242"
       id="text10044"
       transform="scale(1.0000531,0.9999469)"><tspan
         sodipodi:role="line"
         id="tspan10042"
         x="28.44252"
         y="-16.129242"
         style="font-style:italic;font-variant:normal;font-weight:normal;font-stretch:normal;font-family:'Segoe UI';-inkscape-font-specification:'Segoe UI Italic';text-align:end;text-anchor:end;fill:#ffffff;fill-opacity:1;stroke-width:0.255208">colorBuffer</tspan></text></g></svg>
