<?xml version="1.0" encoding="UTF-8" standalone="no"?>
<!-- Created with Inkscape (http://www.inkscape.org/) -->

<svg
   version="1.1"
   id="svg761"
   width="826"
   height="342.61771"
   viewBox="0 0 826 342.61772"
   xml:space="preserve"
   xmlns:xlink="http://www.w3.org/1999/xlink"
   xmlns="http://www.w3.org/2000/svg"
   xmlns:svg="http://www.w3.org/2000/svg"><defs
     id="defs765"><linearGradient
       id="linearGradient413"><stop
         style="stop-color:#bbbbbb;stop-opacity:1;"
         offset="0"
         id="stop413" /><stop
         style="stop-color:#bbbbbb;stop-opacity:0;"
         offset="1"
         id="stop414" /></linearGradient><linearGradient
       id="linearGradient410"><stop
         style="stop-color:#ffffff;stop-opacity:1;"
         offset="0"
         id="stop410" /><stop
         style="stop-color:#ffffff;stop-opacity:0;"
         offset="1"
         id="stop411" /></linearGradient><linearGradient
       id="linearGradient408"><stop
         style="stop-color:#878787;stop-opacity:1"
         offset="0"
         id="stop408" /><stop
         style="stop-color:#878787;stop-opacity:0;"
         offset="1"
         id="stop409" /></linearGradient><linearGradient
       id="linearGradient406"><stop
         style="stop-color:#2085af;stop-opacity:1"
         offset="0"
         id="stop406" /><stop
         style="stop-color:#2085af;stop-opacity:0;"
         offset="1"
         id="stop407" /></linearGradient><linearGradient
       xlink:href="#linearGradient39228"
       id="linearGradient8885"
       x1="180.04626"
       y1="92.428894"
       x2="169.85742"
       y2="72.439629"
       gradientUnits="userSpaceOnUse" /><linearGradient
       id="linearGradient39228"><stop
         style="stop-color:#000000;stop-opacity:1"
         offset="0"
         id="stop39224" /><stop
         style="stop-color:#e6e6e6;stop-opacity:1"
         offset="1"
         id="stop39226" /></linearGradient><linearGradient
       xlink:href="#linearGradient406"
       id="linearGradient407"
       x1="167.14961"
       y1="-182.00606"
       x2="167.14961"
       y2="-81.167419"
       gradientUnits="userSpaceOnUse" /><linearGradient
       xlink:href="#linearGradient408"
       id="linearGradient409"
       x1="45.010391"
       y1="-184.47595"
       x2="45.010391"
       y2="-81.167419"
       gradientUnits="userSpaceOnUse" /><linearGradient
       xlink:href="#linearGradient410"
       id="linearGradient411"
       x1="169.82744"
       y1="-184.47595"
       x2="169.82744"
       y2="-81.167419"
       gradientUnits="userSpaceOnUse" /><linearGradient
       xlink:href="#linearGradient413"
       id="linearGradient414"
       x1="219.28416"
       y1="-135.2823"
       x2="219.28416"
       y2="-81.167419"
       gradientUnits="userSpaceOnUse"
       gradientTransform="translate(-3e-5,-45.63136)" /><linearGradient
       xlink:href="#linearGradient413"
       id="linearGradient415"
       gradientUnits="userSpaceOnUse"
       gradientTransform="translate(40.18179,-17.17398)"
       x1="219.28416"
       y1="-135.2823"
       x2="219.28416"
       y2="-81.167419" /><linearGradient
       xlink:href="#linearGradient413"
       id="linearGradient416"
       gradientUnits="userSpaceOnUse"
       gradientTransform="translate(110.86833,-46.082962)"
       x1="219.28416"
       y1="-135.2823"
       x2="219.28416"
       y2="-81.167419" /></defs><g
     id="layer2"
     transform="translate(109.99654,423.78511)"><g
       id="g2"
       transform="translate(276.95596)"
       mask="none"><path
         id="rect8439"
         style="fill:url(#linearGradient409);fill-opacity:1;stroke:none;stroke-width:1.93075;stroke-linecap:round;stroke-linejoin:miter;stroke-dasharray:none;stroke-opacity:1"
         d="m 14.820938,-413.66206 v 257.73437 h 30.189453 v -257.73437 z m 0,311.66406 V 96.093796 H 45.010391 V -101.998 Z" /><rect
         style="fill:#2085af;fill-opacity:1;stroke:none;stroke-width:0.711162;stroke-linecap:round;stroke-linejoin:round"
         id="rect1174"
         width="279.82394"
         height="53.930618"
         x="-109.99648"
         y="-357.6084"
         rx="0"
         ry="0" /><text
         xml:space="preserve"
         style="font-style:normal;font-variant:normal;font-weight:normal;font-stretch:normal;font-size:36.1916px;line-height:1.25;font-family:Calibri;-inkscape-font-specification:Calibri;text-align:center;letter-spacing:0px;word-spacing:0px;text-anchor:middle;fill:#ffffff;fill-opacity:1;stroke:none;stroke-width:0.97839"
         x="29.924316"
         y="-321.14499"
         id="text2485-2"><tspan
           id="tspan2483-2"
           x="29.924318"
           y="-321.14499"
           style="font-style:normal;font-variant:normal;font-weight:normal;font-stretch:normal;font-family:Calibri;-inkscape-font-specification:Calibri;text-align:center;text-anchor:middle;fill:#ffffff;fill-opacity:1;stroke-width:0.97839">vertex shader</tspan></text><rect
         style="fill:#ae405e;fill-opacity:1;stroke:none;stroke-width:0.711162;stroke-linecap:round;stroke-linejoin:round"
         id="rect3044"
         width="279.82397"
         height="31.053415"
         x="-109.99654"
         y="-417.20932"
         rx="0"
         ry="0" /><text
         xml:space="preserve"
         style="font-style:italic;font-variant:normal;font-weight:normal;font-stretch:normal;font-size:25.3186px;line-height:1.25;font-family:Calibri;-inkscape-font-specification:'Calibri Italic';text-align:center;letter-spacing:0px;word-spacing:0px;text-anchor:middle;fill:#fefefe;fill-opacity:1;stroke:none;stroke-width:0.97839"
         x="32.326305"
         y="-394.06424"
         id="text1836"><tspan
           id="tspan1834"
           x="32.326305"
           y="-394.06424"
           style="font-style:italic;font-variant:normal;font-weight:normal;font-stretch:normal;font-family:Calibri;-inkscape-font-specification:'Calibri Italic';text-align:center;text-anchor:middle;fill:#fefefe;fill-opacity:1;stroke-width:0.97839">vertex fetch</tspan></text><path
         style="fill:none;fill-opacity:1;stroke:url(#linearGradient414);stroke-width:1.93075;stroke-linecap:butt;stroke-linejoin:miter;stroke-dasharray:1.93075, 1.93075;stroke-dashoffset:0"
         d="m 219.28416,-181.54053 -3e-5,113.942484"
         id="path66502" /><path
         style="fill:#ffffff;fill-opacity:1;stroke:#bbbbbb;stroke-width:1.93075;stroke-linecap:butt;stroke-linejoin:miter;stroke-dasharray:1.93075, 1.93075;stroke-dashoffset:0;stroke-opacity:1"
         d="m 330.15255,-197.40335 -3e-5,15.41122"
         id="path54536" /><path
         style="fill:#ffffff;fill-opacity:1;stroke:#bbbbbb;stroke-width:1.93075;stroke-linecap:butt;stroke-linejoin:miter;stroke-dasharray:1.93075, 1.93075;stroke-dashoffset:0;stroke-opacity:1"
         d="m 219.28419,-208.72242 -3e-5,27.18189"
         id="path53867" /><path
         style="fill:#ffffff;fill-opacity:1;stroke:#bbbbbb;stroke-width:1.93075;stroke-linecap:butt;stroke-linejoin:miter;stroke-dasharray:1.93075, 1.93075;stroke-dashoffset:0;stroke-opacity:1"
         d="m 259.466,-168.5406 -2e-5,15.45745"
         id="path54528" /><g
         id="g48450"
         transform="matrix(2.4324444,0,0,2.4324444,-167.46604,-534.61225)"><rect
           style="fill:#e6e6e6;fill-opacity:1;stroke:#2b2b2b;stroke-width:0.79375;stroke-linecap:round;stroke-linejoin:miter;stroke-dasharray:none;stroke-opacity:1"
           id="rect3953"
           width="4.1297798"
           height="4.1297798"
           x="156.93164"
           y="131.91139" /><rect
           style="fill:#464646;fill-opacity:1;stroke:#2b2b2b;stroke-width:0.79375;stroke-linecap:round;stroke-linejoin:miter;stroke-dasharray:none;stroke-opacity:1"
           id="rect3955"
           width="4.1297798"
           height="4.1297798"
           x="173.45074"
           y="144.30072" /><rect
           style="fill:#000000;fill-opacity:1;stroke:#2b2b2b;stroke-width:0.79375;stroke-linecap:round;stroke-linejoin:miter;stroke-dasharray:none;stroke-opacity:1"
           id="rect3957"
           width="4.1297798"
           height="4.1297798"
           x="202.35918"
           y="136.04117" /><rect
           style="fill:#bfbfbf;fill-opacity:1;stroke:#2b2b2b;stroke-width:0.79375;stroke-linecap:round;stroke-linejoin:miter;stroke-dasharray:none;stroke-opacity:1"
           id="rect3959"
           width="4.1297798"
           height="4.1297798"
           x="161.06142"
           y="131.91139" /><rect
           style="fill:#a1a1a1;fill-opacity:1;stroke:#2b2b2b;stroke-width:0.79375;stroke-linecap:round;stroke-linejoin:miter;stroke-dasharray:none;stroke-opacity:1"
           id="rect3961"
           width="4.1297798"
           height="4.1297798"
           x="165.19119"
           y="131.91139" /><rect
           style="fill:#8a8a8a;fill-opacity:1;stroke:#2b2b2b;stroke-width:0.79375;stroke-linecap:round;stroke-linejoin:miter;stroke-dasharray:none;stroke-opacity:1"
           id="rect3963"
           width="4.1297798"
           height="4.1297798"
           x="169.32097"
           y="131.91139" /><rect
           style="fill:#7a7a7a;fill-opacity:1;stroke:#2b2b2b;stroke-width:0.79375;stroke-linecap:round;stroke-linejoin:miter;stroke-dasharray:none;stroke-opacity:1"
           id="rect3965"
           width="4.1297798"
           height="4.1297798"
           x="173.45074"
           y="136.04117" /><rect
           style="fill:#464646;fill-opacity:1;stroke:#2b2b2b;stroke-width:0.79375;stroke-linecap:round;stroke-linejoin:miter;stroke-dasharray:none;stroke-opacity:1"
           id="rect3967"
           width="4.1297798"
           height="4.1297798"
           x="181.7103"
           y="136.04117" /><rect
           style="fill:#a1a1a1;fill-opacity:1;stroke:#2b2b2b;stroke-width:0.79375;stroke-linecap:round;stroke-linejoin:miter;stroke-dasharray:none;stroke-opacity:1"
           id="rect3969"
           width="4.1297798"
           height="4.1297798"
           x="161.06142"
           y="136.04117" /><rect
           style="fill:#8a8a8a;fill-opacity:1;stroke:#2b2b2b;stroke-width:0.79375;stroke-linecap:round;stroke-linejoin:miter;stroke-dasharray:none;stroke-opacity:1"
           id="rect3971"
           width="4.1297798"
           height="4.1297798"
           x="165.19119"
           y="136.04117" /><rect
           style="fill:#7a7a7a;fill-opacity:1;stroke:#2b2b2b;stroke-width:0.79375;stroke-linecap:round;stroke-linejoin:miter;stroke-dasharray:none;stroke-opacity:1"
           id="rect3973"
           width="4.1297798"
           height="4.1297798"
           x="169.32097"
           y="140.17094" /><rect
           style="fill:#888888;fill-opacity:1;stroke:#2b2b2b;stroke-width:0.79375;stroke-linecap:round;stroke-linejoin:miter;stroke-dasharray:none;stroke-opacity:1"
           id="rect3975"
           width="4.1297798"
           height="4.1297798"
           x="169.32097"
           y="136.04117" /><rect
           style="fill:#5f5f5f;fill-opacity:1;stroke:#2b2b2b;stroke-width:0.79375;stroke-linecap:round;stroke-linejoin:miter;stroke-dasharray:none;stroke-opacity:1"
           id="rect3977"
           width="4.1297798"
           height="4.1297798"
           x="173.45074"
           y="140.17094" /><rect
           style="fill:#181818;fill-opacity:1;stroke:#2b2b2b;stroke-width:0.79375;stroke-linecap:round;stroke-linejoin:miter;stroke-dasharray:none;stroke-opacity:1"
           id="rect3979"
           width="4.1297798"
           height="4.1297798"
           x="177.58052"
           y="144.30072" /><rect
           style="fill:#353535;fill-opacity:1;stroke:#2b2b2b;stroke-width:0.79375;stroke-linecap:round;stroke-linejoin:miter;stroke-dasharray:none;stroke-opacity:1"
           id="rect3981"
           width="4.1297798"
           height="4.1297798"
           x="181.7103"
           y="140.17094" /><rect
           style="fill:#181818;fill-opacity:1;stroke:#2b2b2b;stroke-width:0.79375;stroke-linecap:round;stroke-linejoin:miter;stroke-dasharray:none;stroke-opacity:1"
           id="rect3983"
           width="4.1297798"
           height="4.1297798"
           x="185.84007"
           y="140.17094" /><rect
           style="fill:#000000;fill-opacity:1;stroke:#2b2b2b;stroke-width:0.79375;stroke-linecap:round;stroke-linejoin:miter;stroke-dasharray:none;stroke-opacity:1"
           id="rect3985"
           width="4.1297798"
           height="4.1297798"
           x="189.96985"
           y="140.17094" /><rect
           style="fill:#181818;fill-opacity:1;stroke:#2b2b2b;stroke-width:0.79375;stroke-linecap:round;stroke-linejoin:miter;stroke-dasharray:none;stroke-opacity:1"
           id="rect3987"
           width="4.1297798"
           height="4.1297798"
           x="189.96985"
           y="136.04117" /><rect
           style="fill:#181818;fill-opacity:1;stroke:#2b2b2b;stroke-width:0.79375;stroke-linecap:round;stroke-linejoin:miter;stroke-dasharray:none;stroke-opacity:1"
           id="rect3989"
           width="4.1297798"
           height="4.1297798"
           x="194.09962"
           y="136.04117" /><rect
           style="fill:#000000;fill-opacity:1;stroke:#2b2b2b;stroke-width:0.79375;stroke-linecap:round;stroke-linejoin:miter;stroke-dasharray:none;stroke-opacity:1"
           id="rect3991"
           width="4.1297798"
           height="4.1297798"
           x="198.2294"
           y="136.04117" /><rect
           style="fill:#5f5f5f;fill-opacity:1;stroke:#2b2b2b;stroke-width:0.79375;stroke-linecap:round;stroke-linejoin:miter;stroke-dasharray:none;stroke-opacity:1"
           id="rect3993"
           width="4.1297798"
           height="4.1297798"
           x="177.58052"
           y="136.04117" /><rect
           style="fill:#888888;fill-opacity:1;stroke:#2b2b2b;stroke-width:0.79375;stroke-linecap:round;stroke-linejoin:miter;stroke-dasharray:none;stroke-opacity:1"
           id="rect3995"
           width="4.1297798"
           height="4.1297798"
           x="173.45074"
           y="131.91139" /><rect
           style="fill:#353535;fill-opacity:1;stroke:#2b2b2b;stroke-width:0.79375;stroke-linecap:round;stroke-linejoin:miter;stroke-dasharray:none;stroke-opacity:1"
           id="rect3997"
           width="4.1297798"
           height="4.1297798"
           x="185.84007"
           y="136.04117" /><rect
           style="fill:#7a7a7a;fill-opacity:1;stroke:#2b2b2b;stroke-width:0.79375;stroke-linecap:round;stroke-linejoin:miter;stroke-dasharray:none;stroke-opacity:1"
           id="rect3999"
           width="4.1297798"
           height="4.1297798"
           x="177.58052"
           y="131.91139" /><rect
           style="fill:#000000;fill-opacity:1;stroke:#2b2b2b;stroke-width:0.79375;stroke-linecap:round;stroke-linejoin:miter;stroke-dasharray:none;stroke-opacity:1"
           id="rect4001"
           width="4.1297798"
           height="4.1297798"
           x="173.45074"
           y="148.4305" /><rect
           style="fill:#5f5f5f;fill-opacity:1;stroke:#2b2b2b;stroke-width:0.79375;stroke-linecap:round;stroke-linejoin:miter;stroke-dasharray:none;stroke-opacity:1"
           id="rect4003"
           width="4.1297798"
           height="4.1297798"
           x="169.32097"
           y="144.30072" /><rect
           style="fill:#888888;fill-opacity:1;stroke:#2b2b2b;stroke-width:0.79375;stroke-linecap:round;stroke-linejoin:miter;stroke-dasharray:none;stroke-opacity:1"
           id="rect4005"
           width="4.1297798"
           height="4.1297798"
           x="165.19119"
           y="140.17094" /><rect
           style="fill:#464646;fill-opacity:1;stroke:#2b2b2b;stroke-width:0.79375;stroke-linecap:round;stroke-linejoin:miter;stroke-dasharray:none;stroke-opacity:1"
           id="rect4007"
           width="4.1297798"
           height="4.1297798"
           x="177.58052"
           y="140.17094" /><rect
           style="fill:#000000;fill-opacity:1;stroke:#2b2b2b;stroke-width:0.79375;stroke-linecap:round;stroke-linejoin:miter;stroke-dasharray:none;stroke-opacity:1"
           id="rect4009"
           width="4.1297798"
           height="4.1297798"
           x="181.7103"
           y="144.30072" /></g><path
         style="fill:#ffffff;fill-opacity:1;stroke:#bbbbbb;stroke-width:1.93075;stroke-linecap:butt;stroke-linejoin:miter;stroke-dasharray:1.93075, 1.93075;stroke-dashoffset:0;stroke-opacity:1"
         d="m 219.28416,-269.65537 3e-5,60.93295"
         id="path53865" /><path
         style="fill:#ffffff;fill-opacity:1;stroke:#bbbbbb;stroke-width:1.93075;stroke-linecap:butt;stroke-linejoin:miter;stroke-dasharray:1.93075, 1.93075;stroke-dashoffset:0;stroke-opacity:1"
         d="m 259.46598,-229.47355 2e-5,60.93295"
         id="path54530" /><path
         style="fill:#ffffff;fill-opacity:1;stroke:#bbbbbb;stroke-width:1.93075;stroke-linecap:butt;stroke-linejoin:miter;stroke-dasharray:1.93075, 1.93075;stroke-dashoffset:0;stroke-opacity:1"
         d="m 330.15252,-265.8078 3e-5,68.40445"
         id="path54538" /><g
         id="g25541"
         transform="matrix(2.4324444,0,0,2.4324444,-167.46605,-459.26341)"><path
           style="fill:url(#linearGradient8885);fill-opacity:1;stroke:#2b2b2b;stroke-width:0.79375;stroke-linecap:round;stroke-linejoin:miter;stroke-dasharray:none;stroke-opacity:1"
           d="m 158.99653,77.949593 47.57484,1.581772 -31.05573,14.937339 z"
           id="path3949" /><rect
           style="fill:#e6e6e6;fill-opacity:1;stroke:#2b2b2b;stroke-width:0.79375;stroke-linecap:round;stroke-linejoin:miter;stroke-dasharray:none;stroke-opacity:1"
           id="rect3889"
           width="4.1297798"
           height="4.1297798"
           x="165.48132"
           y="-59.37373"
           transform="rotate(45)" /><rect
           style="fill:#000000;fill-opacity:1;stroke:#2b2b2b;stroke-width:0.79375;stroke-linecap:round;stroke-linejoin:miter;stroke-dasharray:none;stroke-opacity:1"
           id="rect3891"
           width="4.1297798"
           height="4.1297798"
           x="188.84286"
           y="-59.373726"
           transform="rotate(45)" /><rect
           style="fill:#000000;fill-opacity:1;stroke:#2b2b2b;stroke-width:0.79375;stroke-linecap:round;stroke-linejoin:miter;stroke-dasharray:none;stroke-opacity:1"
           id="rect3893"
           width="4.1297798"
           height="4.1297798"
           x="198.87053"
           y="-90.525978"
           transform="rotate(45)" /></g><path
         style="fill:#ffffff;fill-opacity:1;stroke:#bbbbbb;stroke-width:1.93075;stroke-linecap:butt;stroke-linejoin:miter;stroke-dasharray:1.93075, 1.93075;stroke-dashoffset:0;stroke-opacity:1"
         d="m 219.28419,-338.30824 -3e-5,68.65287"
         id="path53863" /><path
         style="fill:#ffffff;fill-opacity:1;stroke:#bbbbbb;stroke-width:1.93075;stroke-linecap:butt;stroke-linejoin:miter;stroke-dasharray:1.93075, 1.93075;stroke-dashoffset:0;stroke-opacity:1"
         d="m 330.15255,-334.46067 -3e-5,68.65287"
         id="path54540" /><path
         style="fill:#ffffff;fill-opacity:1;stroke:#bbbbbb;stroke-width:1.93075;stroke-linecap:butt;stroke-linejoin:miter;stroke-dasharray:1.93075, 1.93075;stroke-dashoffset:0;stroke-opacity:1"
         d="m 259.466,-298.12644 -2e-5,68.65289"
         id="path54532" /><g
         id="g25535"
         transform="matrix(2.4324444,0,0,2.4324444,-167.46604,-421.60186)"><rect
           style="fill:#e6e6e6;fill-opacity:1;stroke:#2b2b2b;stroke-width:0.79375;stroke-linecap:round;stroke-linejoin:miter;stroke-dasharray:none;stroke-opacity:1"
           id="rect3831"
           width="4.1297798"
           height="4.1297798"
           x="134.57593"
           y="-90.279129"
           transform="rotate(45)" /><rect
           style="fill:#000000;fill-opacity:1;stroke:#2b2b2b;stroke-width:0.79375;stroke-linecap:round;stroke-linejoin:miter;stroke-dasharray:none;stroke-opacity:1"
           id="rect3885"
           width="4.1297798"
           height="4.1297798"
           x="157.93747"
           y="-90.279129"
           transform="rotate(45)" /><rect
           style="fill:#000000;fill-opacity:1;stroke:#2b2b2b;stroke-width:0.79375;stroke-linecap:round;stroke-linejoin:miter;stroke-dasharray:none;stroke-opacity:1"
           id="rect3887"
           width="4.1297798"
           height="4.1297798"
           x="167.96513"
           y="-121.43137"
           transform="rotate(45)" /></g><path
         style="fill:#ffffff;fill-opacity:1;stroke:#bbbbbb;stroke-width:1.93075;stroke-linecap:butt;stroke-linejoin:miter;stroke-dasharray:1.93075, 1.93075;stroke-dashoffset:0;stroke-opacity:1"
         d="m 259.466,-374.26228 v 76.13584"
         id="path54534" /><path
         style="fill:#ffffff;fill-opacity:1;stroke:#bbbbbb;stroke-width:1.93075;stroke-linecap:butt;stroke-linejoin:miter;stroke-dasharray:1.93075, 1.93075;stroke-dashoffset:0;stroke-opacity:1"
         d="m 219.28419,-414.44409 v 76.13585"
         id="path53859" /><path
         style="fill:#ffffff;fill-opacity:1;stroke:#bbbbbb;stroke-width:1.93075;stroke-linecap:butt;stroke-linejoin:miter;stroke-dasharray:1.93075, 1.93075;stroke-dashoffset:0;stroke-opacity:1"
         d="m 330.15255,-410.59652 v 76.13585"
         id="path54542" /><g
         id="g25962"
         transform="matrix(2.4324444,0,0,2.4324444,-167.46605,-498.02328)"><rect
           style="fill:#898989;fill-opacity:1;stroke:#2b2b2b;stroke-width:0.79375;stroke-linecap:round;stroke-linejoin:miter;stroke-dasharray:none;stroke-opacity:1"
           id="rect25956"
           width="4.1297798"
           height="4.1297798"
           x="134.57593"
           y="-90.279129"
           transform="rotate(45)" /><rect
           style="fill:#898989;fill-opacity:1;stroke:#2b2b2b;stroke-width:0.79375;stroke-linecap:round;stroke-linejoin:miter;stroke-dasharray:none;stroke-opacity:1"
           id="rect25958"
           width="4.1297798"
           height="4.1297798"
           x="157.93747"
           y="-90.279129"
           transform="rotate(45)" /><rect
           style="fill:#898989;fill-opacity:1;stroke:#2b2b2b;stroke-width:0.79375;stroke-linecap:round;stroke-linejoin:miter;stroke-dasharray:none;stroke-opacity:1"
           id="rect25960"
           width="4.1297798"
           height="4.1297798"
           x="167.96513"
           y="-121.43137"
           transform="rotate(45)" /></g><path
         id="rect26435"
         style="fill:url(#linearGradient407);fill-opacity:1;stroke:none;stroke-width:0.711162;stroke-linecap:round;stroke-linejoin:round"
         d="M -109.99742,-155.92769 V -101.998 H 169.8268 v -53.92969 z m 26.839842,11.72266 c 0.412339,0 0.814348,0.0406 1.203125,0.12305 0.388777,0.0707 0.68833,0.15379 0.900391,0.24804 0.21206,0.0825 0.353141,0.15783 0.423828,0.22852 0.07069,0.0707 0.13061,0.16539 0.177734,0.2832 0.04712,0.10603 0.07611,0.24131 0.08789,0.40625 0.02356,0.15316 0.03516,0.34257 0.03516,0.56641 0,0.22384 -0.01159,0.4055 -0.03516,0.54687 -0.02356,0.12959 -0.05255,0.23589 -0.08789,0.31836 -0.02356,0.0825 -0.0603,0.14239 -0.107422,0.17774 -0.04712,0.0236 -0.105094,0.0351 -0.175781,0.0351 -0.08247,0 -0.188767,-0.0232 -0.318359,-0.0703 -0.117812,-0.0589 -0.26469,-0.11883 -0.441407,-0.17773 -0.176717,-0.0707 -0.389315,-0.12866 -0.636718,-0.17579 -0.235623,-0.0589 -0.511988,-0.0898 -0.830079,-0.0898 -0.435901,0 -0.806972,0.0715 -1.113281,0.21289 -0.306309,0.14137 -0.553689,0.36557 -0.742187,0.67188 -0.188498,0.29452 -0.323783,0.68299 -0.40625,1.16601 -0.08247,0.47125 -0.125,1.04912 -0.125,1.73242 v 1.73047 h 3.552734 c 0.09425,0 0.171563,0.0251 0.230469,0.0723 0.07069,0.0353 0.128657,0.1049 0.175781,0.21094 0.05891,0.0942 0.101438,0.21793 0.125,0.37109 0.03534,0.15315 0.05273,0.34256 0.05273,0.56641 0,0.42412 -0.05413,0.72947 -0.160156,0.91796 -0.10603,0.1885 -0.247111,0.28321 -0.423828,0.28321 h -3.552734 v 13.94336 c 0,0.0943 -0.02319,0.1754 -0.07031,0.24609 -0.04712,0.0589 -0.128282,0.11303 -0.246094,0.16016 -0.10603,0.0471 -0.254861,0.0819 -0.443359,0.10547 -0.188498,0.0236 -0.422331,0.0352 -0.705078,0.0352 -0.282747,0 -0.518533,-0.0116 -0.707031,-0.0352 -0.188498,-0.0236 -0.343127,-0.0584 -0.460938,-0.10547 -0.10603,-0.0471 -0.181391,-0.10125 -0.228515,-0.16016 -0.04712,-0.0707 -0.07031,-0.15184 -0.07031,-0.24609 v -13.94336 h -2.246094 c -0.188498,0 -0.329579,-0.0947 -0.423828,-0.28321 -0.09425,-0.18849 -0.140625,-0.49384 -0.140625,-0.91796 0,-0.22385 0.01159,-0.41326 0.03516,-0.56641 0.02356,-0.15316 0.05835,-0.27685 0.105469,-0.37109 0.04712,-0.10604 0.107048,-0.1756 0.177735,-0.21094 0.07069,-0.0471 0.151844,-0.0723 0.246093,-0.0723 h 2.246094 v -1.64258 c 0,-1.10742 0.09855,-2.05636 0.298828,-2.8457 0.21206,-0.80112 0.530958,-1.45435 0.955078,-1.96094 0.424121,-0.50659 0.953664,-0.87766 1.589844,-1.11328 0.647962,-0.2474 1.407494,-0.37109 2.279297,-0.37109 z m 152.914062,0.12305 c 0.294528,0 0.536112,0.0116 0.72461,0.0351 0.188498,0.0236 0.335376,0.0603 0.441406,0.10742 0.10603,0.0471 0.183344,0.1051 0.230469,0.17578 0.04712,0.0707 0.07031,0.1538 0.07031,0.24805 v 9.52539 c 0.83646,-0.88358 1.679103,-1.53877 2.527344,-1.96289 0.848241,-0.4359 1.702478,-0.6543 2.5625,-0.6543 1.060301,0 1.94932,0.18362 2.667969,0.54883 0.730429,0.35344 1.319895,0.83081 1.767578,1.43164 0.447682,0.60084 0.764627,1.3082 0.953125,2.1211 0.200279,0.80111 0.300781,1.77129 0.300781,2.91406 v 9.68555 c 0,0.0943 -0.02319,0.1754 -0.07031,0.24609 -0.04712,0.0589 -0.124439,0.11303 -0.230469,0.16016 -0.10603,0.0471 -0.252908,0.0819 -0.441406,0.10547 -0.188498,0.0236 -0.424285,0.0352 -0.707032,0.0352 -0.294528,0 -0.536111,-0.0116 -0.724609,-0.0352 -0.188498,-0.0236 -0.335376,-0.0584 -0.441406,-0.10547 -0.10603,-0.0471 -0.183345,-0.10125 -0.230469,-0.16016 -0.04712,-0.0707 -0.07031,-0.15184 -0.07031,-0.24609 v -9.31446 c 0,-0.90714 -0.06956,-1.63574 -0.210938,-2.18945 -0.141373,-0.55371 -0.348175,-1.03108 -0.619141,-1.43164 -0.270965,-0.40056 -0.624645,-0.70786 -1.060546,-0.91992 -0.424121,-0.21206 -0.918882,-0.31836 -1.484375,-0.31836 -0.73043,0 -1.460977,0.25897 -2.191407,0.77734 -0.730429,0.51837 -1.495759,1.27986 -2.296875,2.28125 v 11.11524 c 0,0.0943 -0.02319,0.1754 -0.07031,0.24609 -0.04712,0.0589 -0.124439,0.11303 -0.230469,0.16016 -0.10603,0.0471 -0.252908,0.0819 -0.441406,0.10547 -0.188498,0.0236 -0.430082,0.0352 -0.72461,0.0352 -0.282747,0 -0.518533,-0.0116 -0.707031,-0.0352 -0.188498,-0.0236 -0.341173,-0.0584 -0.458984,-0.10547 -0.10603,-0.0471 -0.183345,-0.10125 -0.230469,-0.16016 -0.03534,-0.0707 -0.05273,-0.15184 -0.05273,-0.24609 v -23.60938 c 0,-0.0942 0.01739,-0.17736 0.05273,-0.24805 0.04712,-0.0707 0.124439,-0.12865 0.230469,-0.17578 0.117811,-0.0471 0.270486,-0.0839 0.458984,-0.10742 0.188498,-0.0236 0.424284,-0.0351 0.707031,-0.0351 z m 47.041016,0.0703 c 0.29453,0 0.53611,0.0193 0.72461,0.0547 0.1885,0.0236 0.33733,0.0583 0.44336,0.10546 0.10603,0.0353 0.18139,0.0933 0.22851,0.17579 0.0589,0.0707 0.0879,0.148 0.0879,0.23046 v 23.53907 c 0,0.0943 -0.0232,0.1754 -0.0703,0.24609 -0.0353,0.0707 -0.1049,0.13061 -0.21093,0.17773 -0.0943,0.0354 -0.22374,0.0643 -0.38868,0.0879 -0.16493,0.0236 -0.36594,0.0352 -0.60156,0.0352 -0.2474,0 -0.4542,-0.0116 -0.61914,-0.0352 -0.16494,-0.0236 -0.30022,-0.0525 -0.40625,-0.0879 -0.10603,-0.0471 -0.18139,-0.10704 -0.22852,-0.17773 -0.0471,-0.0707 -0.0723,-0.15184 -0.0723,-0.24609 v -2.10352 c -0.83646,0.90715 -1.70809,1.61451 -2.61524,2.12109 -0.89536,0.50659 -1.87909,0.75977 -2.95117,0.75977 -1.16633,0 -2.16165,-0.22419 -2.98633,-0.67187 -0.82467,-0.45947 -1.4953,-1.07212 -2.01367,-1.8379 -0.50659,-0.77755 -0.87766,-1.68396 -1.11328,-2.7207 -0.23562,-1.04852 -0.35351,-2.15014 -0.35351,-3.30469 0,-1.36661 0.14687,-2.59771 0.4414,-3.69336 0.29453,-1.10742 0.73132,-2.05057 1.3086,-2.82812 0.57727,-0.77755 1.28847,-1.37282 2.13671,-1.78516 0.86003,-0.42412 1.84955,-0.63672 2.96875,-0.63672 0.93071,0 1.77915,0.20681 2.54493,0.61915 0.77755,0.40055 1.54288,0.99582 2.29687,1.78515 v -9.24219 c 0,-0.0825 0.0194,-0.15978 0.0547,-0.23046 0.0471,-0.0825 0.12828,-0.14044 0.24609,-0.17579 0.11781,-0.0471 0.26469,-0.0819 0.44141,-0.10546 0.1885,-0.0354 0.42428,-0.0547 0.70703,-0.0547 z m -80.8125,3.39453 c 0.294528,0 0.536111,0.0116 0.724609,0.0352 0.188498,0.0236 0.33733,0.0641 0.44336,0.12304 0.10603,0.0471 0.181391,0.1051 0.228515,0.17578 0.04713,0.0707 0.07031,0.148 0.07031,0.23047 v 3.78125 h 4.082031 c 0.09425,0 0.17736,0.0251 0.248047,0.0723 0.07069,0.0353 0.13061,0.1049 0.177734,0.21094 0.05891,0.0942 0.09949,0.21793 0.123047,0.37109 0.02356,0.15315 0.03516,0.34256 0.03516,0.56641 0,0.42412 -0.05217,0.72947 -0.158204,0.91796 -0.10603,0.1885 -0.249064,0.28321 -0.425781,0.28321 h -4.082031 v 8.87109 c 0,1.09564 0.160425,1.92669 0.478516,2.49219 0.329871,0.55371 0.911587,0.83008 1.748046,0.83008 0.270966,0 0.51255,-0.0232 0.72461,-0.0703 0.21206,-0.0589 0.40147,-0.11883 0.566406,-0.17773 0.164936,-0.0589 0.306017,-0.11108 0.423828,-0.1582 0.117811,-0.0589 0.224111,-0.0879 0.31836,-0.0879 0.05891,0 0.111078,0.0174 0.158203,0.0527 0.05891,0.0236 0.101437,0.0757 0.125,0.1582 0.03534,0.0825 0.06433,0.19457 0.08789,0.33594 0.02356,0.14137 0.03516,0.31919 0.03516,0.53125 0,0.34165 -0.02319,0.61222 -0.07031,0.8125 -0.04712,0.20028 -0.118642,0.34716 -0.212891,0.44141 -0.09425,0.0943 -0.23533,0.18315 -0.423828,0.26562 -0.188498,0.0825 -0.406893,0.14624 -0.654297,0.19336 -0.235622,0.0589 -0.488799,0.10724 -0.759765,0.14258 -0.270966,0.0353 -0.541534,0.0527 -0.8125,0.0527 -0.824679,0 -1.532038,-0.1063 -2.121094,-0.31836 -0.589056,-0.22384 -1.072223,-0.55433 -1.449219,-0.99023 -0.376996,-0.44768 -0.653361,-1.00621 -0.830078,-1.67773 -0.164936,-0.68331 -0.248047,-1.48537 -0.248047,-2.4043 v -9.29492 h -2.226562 c -0.176717,0 -0.317798,-0.0947 -0.423828,-0.28321 -0.10603,-0.18849 -0.158203,-0.49384 -0.158203,-0.91796 0,-0.22385 0.01159,-0.41326 0.03516,-0.56641 0.03534,-0.15316 0.07592,-0.27685 0.123047,-0.37109 0.04712,-0.10604 0.107047,-0.1756 0.177734,-0.21094 0.08247,-0.0471 0.169423,-0.0723 0.263672,-0.0723 h 2.208984 v -3.78125 c 0,-0.0825 0.01934,-0.15978 0.05469,-0.23047 0.04712,-0.0707 0.122485,-0.12865 0.228515,-0.17578 0.117812,-0.0589 0.270487,-0.0995 0.458985,-0.12304 0.188498,-0.0236 0.424284,-0.0352 0.707031,-0.0352 z m -107.001953,4.00976 c 0.153154,0 0.325174,0.0136 0.513672,0.0371 0.200279,0.0118 0.405127,0.0408 0.617187,0.0879 0.21206,0.0471 0.401471,0.0993 0.566407,0.15821 0.176716,0.0589 0.300407,0.11883 0.371093,0.17773 0.07069,0.0589 0.117063,0.11688 0.140625,0.17578 0.02356,0.0471 0.04095,0.11285 0.05273,0.19532 0.02356,0.0825 0.03711,0.20615 0.03711,0.37109 0.01178,0.15315 0.01758,0.3638 0.01758,0.63477 0,0.25918 -0.0058,0.47758 -0.01758,0.65429 -0.01178,0.17672 -0.03692,0.3178 -0.07227,0.42383 -0.03534,0.0943 -0.08172,0.17156 -0.140625,0.23047 -0.04712,0.0471 -0.118641,0.0703 -0.21289,0.0703 -0.09425,0 -0.212142,-0.0232 -0.353516,-0.0703 -0.129592,-0.0589 -0.282267,-0.11108 -0.458984,-0.1582 -0.164936,-0.0589 -0.352393,-0.11304 -0.564453,-0.16016 -0.212061,-0.0471 -0.44205,-0.0703 -0.689453,-0.0703 -0.294529,0 -0.584441,0.058 -0.867188,0.17578 -0.282747,0.11781 -0.5823,0.31302 -0.900391,0.58398 -0.306309,0.27097 -0.631003,0.63044 -0.972656,1.07813 -0.341652,0.44768 -0.71852,0.99461 -1.130859,1.64258 v 10.46289 c 0,0.0943 -0.02319,0.1754 -0.07031,0.24609 -0.04712,0.0589 -0.124438,0.11303 -0.230468,0.16016 -0.106031,0.0471 -0.252909,0.0819 -0.441407,0.10547 -0.188498,0.0236 -0.430081,0.0352 -0.724609,0.0352 -0.282747,0 -0.518533,-0.0116 -0.707031,-0.0352 -0.188498,-0.0236 -0.341174,-0.0584 -0.458985,-0.10547 -0.10603,-0.0471 -0.181391,-0.10125 -0.228515,-0.16016 -0.03534,-0.0707 -0.05469,-0.15184 -0.05469,-0.24609 v -15.9043 c 0,-0.0943 0.01934,-0.17156 0.05469,-0.23047 0.03534,-0.0707 0.104907,-0.12866 0.210937,-0.17578 0.10603,-0.0589 0.241314,-0.0956 0.40625,-0.10742 0.164936,-0.0236 0.383331,-0.0352 0.654297,-0.0352 0.259185,0 0.471783,0.0116 0.636719,0.0352 0.176717,0.0118 0.312001,0.0485 0.40625,0.10742 0.09425,0.0471 0.158016,0.10509 0.193359,0.17578 0.04712,0.0589 0.07227,0.13622 0.07227,0.23047 v 2.31445 c 0.435901,-0.63618 0.841754,-1.15413 1.21875,-1.55468 0.388777,-0.40056 0.75405,-0.71366 1.095703,-0.9375 0.341652,-0.23563 0.677941,-0.3941 1.007812,-0.47657 0.341653,-0.0943 0.681785,-0.14258 1.023438,-0.14258 z m 10.603516,0 c 1.142768,0 2.114899,0.13144 2.916015,0.39063 0.801116,0.25918 1.448552,0.64185 1.94336,1.14844 0.494807,0.4948 0.854283,1.11326 1.078125,1.85547 0.223841,0.74221 0.335937,1.60804 0.335937,2.59765 v 10.72656 c 0,0.14138 -0.04638,0.24768 -0.140625,0.31836 -0.09425,0.0707 -0.223736,0.12286 -0.388672,0.15821 -0.164936,0.0353 -0.406519,0.0527 -0.724609,0.0527 -0.306309,0 -0.55369,-0.0174 -0.742188,-0.0527 -0.176717,-0.0354 -0.306204,-0.0875 -0.388672,-0.15821 -0.08247,-0.0707 -0.125,-0.17698 -0.125,-0.31836 v -1.59179 c -0.695086,0.74221 -1.472009,1.32008 -2.332031,1.73242 -0.848241,0.41234 -1.748854,0.61914 -2.703125,0.61914 -0.836459,0 -1.597945,-0.1121 -2.28125,-0.33594 -0.671524,-0.21206 -1.247443,-0.52516 -1.730469,-0.9375 -0.471244,-0.41234 -0.842315,-0.91869 -1.113281,-1.51953 -0.259185,-0.60084 -0.388672,-1.28305 -0.388672,-2.04883 0,-0.89536 0.181661,-1.67424 0.546875,-2.33398 0.365215,-0.65974 0.888961,-1.20668 1.572266,-1.64258 0.683305,-0.4359 1.520151,-0.7606 2.509766,-0.97266 0.989614,-0.22384 2.102826,-0.33593 3.339843,-0.33593 h 2.191407 v -1.23633 c 0,-0.61262 -0.06377,-1.15376 -0.19336,-1.625 -0.129592,-0.47125 -0.342191,-0.86166 -0.636719,-1.16797 -0.282747,-0.31809 -0.653817,-0.55192 -1.113281,-0.70508 -0.459464,-0.16493 -1.025742,-0.24804 -1.697265,-0.24804 -0.718649,0 -1.366085,0.0889 -1.94336,0.26562 -0.565494,0.16494 -1.066052,0.35239 -1.501953,0.56445 -0.42412,0.20028 -0.783597,0.38969 -1.078125,0.56641 -0.282747,0.16494 -0.495345,0.24609 -0.636719,0.24609 -0.09425,0 -0.175407,-0.0232 -0.246093,-0.0703 -0.07069,-0.0471 -0.136407,-0.11669 -0.195313,-0.21094 -0.04712,-0.0942 -0.08191,-0.21214 -0.105469,-0.35351 -0.02356,-0.15316 -0.03516,-0.31938 -0.03516,-0.4961 0,-0.29452 0.01739,-0.52451 0.05273,-0.68945 0.04712,-0.17672 0.147627,-0.34099 0.300782,-0.49414 0.164935,-0.15315 0.441301,-0.32902 0.830078,-0.5293 0.388777,-0.21206 0.837162,-0.40147 1.34375,-0.5664 0.506588,-0.17672 1.059319,-0.3178 1.660156,-0.42383 0.600837,-0.11781 1.207694,-0.17774 1.820313,-0.17774 z m 36.457031,0 c 0.659742,0 1.249209,0.0773 1.767578,0.23047 0.53015,0.15316 0.993973,0.37155 1.394531,0.6543 0.400558,0.27097 0.742644,0.60146 1.025391,0.99023 0.282747,0.377 0.518533,0.80024 0.707031,1.27149 0.53015,-0.57728 1.030708,-1.06624 1.501953,-1.4668 0.483026,-0.40056 0.943005,-0.72525 1.378906,-0.97265 0.447683,-0.24741 0.876724,-0.42327 1.289063,-0.5293 0.42412,-0.11781 0.849317,-0.17774 1.273437,-0.17774 1.024958,0 1.884992,0.18362 2.580079,0.54883 0.695086,0.35344 1.2536136,0.83081 1.6777339,1.43164 0.4359014,0.60084 0.743205,1.3082 0.9199219,2.1211 0.1884979,0.80111 0.2832031,1.6476 0.2832031,2.54297 v 10.05664 c 0,0.0943 -0.023188,0.1754 -0.070312,0.24609 -0.047124,0.0589 -0.1244387,0.11303 -0.2304688,0.16016 -0.1060301,0.0471 -0.2529083,0.0819 -0.4414062,0.10547 -0.1884979,0.0236 -0.4242844,0.0352 -0.7070313,0.0352 -0.294528,0 -0.5361116,-0.0116 -0.7246096,-0.0352 -0.188498,-0.0236 -0.341173,-0.0584 -0.458985,-0.10547 -0.10603,-0.0471 -0.183344,-0.10125 -0.230468,-0.16016 -0.04712,-0.0707 -0.07031,-0.15184 -0.07031,-0.24609 v -9.66602 c 0,-0.67152 -0.05992,-1.28418 -0.177733,-1.83789 -0.117811,-0.55371 -0.305269,-1.03108 -0.564454,-1.43164 -0.259185,-0.40056 -0.589677,-0.70786 -0.990235,-0.91992 -0.400558,-0.21206 -0.87213,-0.31836 -1.414061,-0.31836 -0.671524,0 -1.347945,0.25897 -2.03125,0.77734 -0.671524,0.51837 -1.413665,1.27986 -2.226563,2.28125 v 11.11524 c 0,0.0943 -0.02514,0.1754 -0.07227,0.24609 -0.04712,0.0589 -0.128283,0.11303 -0.246094,0.16016 -0.10603,0.0471 -0.252908,0.0819 -0.441406,0.10547 -0.188498,0.0236 -0.424285,0.0352 -0.707032,0.0352 -0.270965,0 -0.506752,-0.0116 -0.707031,-0.0352 -0.188498,-0.0236 -0.341174,-0.0584 -0.458984,-0.10547 -0.106031,-0.0471 -0.183345,-0.10125 -0.230469,-0.16016 -0.03534,-0.0707 -0.05273,-0.15184 -0.05273,-0.24609 v -9.66602 c 0,-0.67152 -0.06572,-1.28418 -0.195313,-1.83789 -0.129592,-0.55371 -0.322846,-1.03108 -0.582031,-1.43164 -0.259185,-0.40056 -0.589676,-0.70786 -0.990234,-0.91992 -0.388778,-0.21206 -0.854553,-0.31836 -1.396485,-0.31836 -0.671524,0 -1.347945,0.25897 -2.03125,0.77734 -0.683305,0.51837 -1.425446,1.27986 -2.226562,2.28125 v 11.11524 c 0,0.0943 -0.02514,0.1754 -0.07227,0.24609 -0.04712,0.0589 -0.122486,0.11303 -0.228516,0.16016 -0.10603,0.0471 -0.252908,0.0819 -0.441406,0.10547 -0.188498,0.0236 -0.430082,0.0352 -0.724609,0.0352 -0.282748,0 -0.518534,-0.0116 -0.707032,-0.0352 -0.188497,-0.0236 -0.341173,-0.0584 -0.458984,-0.10547 -0.10603,-0.0471 -0.183345,-0.10125 -0.230469,-0.16016 -0.03534,-0.0707 -0.05273,-0.15184 -0.05273,-0.24609 v -15.9043 c 0,-0.0943 0.01739,-0.17156 0.05273,-0.23047 0.03534,-0.0707 0.104908,-0.12866 0.210938,-0.17578 0.10603,-0.0589 0.243267,-0.0956 0.408203,-0.10742 0.164936,-0.0236 0.381378,-0.0352 0.652344,-0.0352 0.259184,0 0.471782,0.0116 0.636718,0.0352 0.176716,0.0118 0.312001,0.0485 0.40625,0.10742 0.09425,0.0471 0.159969,0.10509 0.195313,0.17578 0.04712,0.0589 0.07031,0.13622 0.07031,0.23047 v 2.10156 c 0.895365,-1.00139 1.761196,-1.73194 2.597656,-2.1914 0.84824,-0.47125 1.702478,-0.70704 2.5625,-0.70704 z m 27.691406,0 c 1.2487987,0 2.3098377,0.20101 3.1816406,0.60157 0.883584,0.40055 1.6063813,0.94169 2.171875,1.625 0.5654938,0.67152 0.9790964,1.46779 1.2382814,2.38672 0.270966,0.90714 0.40625,1.87927 0.40625,2.91601 v 0.5293 c 0,0.45946 -0.117893,0.78995 -0.353516,0.99023 -0.223841,0.1885 -0.4828155,0.28321 -0.7773435,0.28321 H -0.82359375 c 0,0.88358 0.0869551,1.67789 0.26367188,2.38476 0.1767168,0.70687 0.47242642,1.31373 0.88476562,1.82031 0.4123392,0.50659 0.94767915,0.89505 1.60742185,1.16602 0.6597427,0.27097 1.4676043,0.40625 2.421875,0.40625 0.7539917,0 1.4246159,-0.058 2.0136719,-0.17578 0.589056,-0.12959 1.0954109,-0.27068 1.5195313,-0.42383 0.4359014,-0.15315 0.7895811,-0.28844 1.0605468,-0.40625 0.2827469,-0.12959 0.4953453,-0.19531 0.6367188,-0.19531 0.082468,0 0.1520319,0.0232 0.2109375,0.0703 0.070687,0.0353 0.1248129,0.0953 0.1601562,0.17773 0.035343,0.0825 0.058532,0.20037 0.070313,0.35352 0.02356,0.14137 0.03516,0.31724 0.03516,0.5293 0,0.15315 -0.0058,0.28844 -0.01758,0.40625 -0.01178,0.10603 -0.02917,0.20653 -0.052735,0.30078 -0.011781,0.0825 -0.040766,0.15978 -0.087891,0.23047 -0.035343,0.0707 -0.08947,0.14025 -0.1601563,0.21093 -0.058906,0.0589 -0.2463629,0.16521 -0.5644531,0.31836 -0.3180903,0.14138 -0.7316931,0.28246 -1.2382813,0.42383 -0.5065881,0.14138 -1.0941011,0.26507 -1.765625,0.3711 -0.6597427,0.11781 -1.367102,0.17773 -2.1210937,0.17773 -1.3077044,0 -2.4576516,-0.18361 -3.44726565,-0.54883 -0.97783296,-0.36521 -1.80113245,-0.90635 -2.47265625,-1.625 -0.6715238,-0.71865 -1.1778788,-1.61926 -1.5195312,-2.70312 -0.3416525,-1.08387 -0.5136719,-2.34591 -0.5136719,-3.78321 0,-1.36661 0.1778164,-2.59191 0.53125,-3.67578 0.3534336,-1.09564 0.8597885,-2.01944 1.5195312,-2.77343 0.6715239,-0.76578 1.4774323,-1.34945 2.4199219,-1.75 0.9424896,-0.41234 1.9977316,-0.61915 3.1640625,-0.61915 z m 19.439453,0 c 1.060301,0 1.949321,0.18362 2.667969,0.54883 0.730429,0.35344 1.319895,0.83081 1.767578,1.43164 0.447683,0.60084 0.764627,1.3082 0.953125,2.1211 0.200279,0.80111 0.300781,1.76549 0.300781,2.89648 v 9.70313 c 0,0.0943 -0.02319,0.1754 -0.07031,0.24609 -0.04712,0.0589 -0.124439,0.11303 -0.230469,0.16016 -0.10603,0.0471 -0.252908,0.0819 -0.441406,0.10547 -0.188498,0.0236 -0.424285,0.0352 -0.707031,0.0352 -0.294529,0 -0.536112,-0.0116 -0.72461,-0.0352 -0.188498,-0.0236 -0.335376,-0.0584 -0.441406,-0.10547 -0.10603,-0.0471 -0.183344,-0.10125 -0.230469,-0.16016 -0.04712,-0.0707 -0.07031,-0.15184 -0.07031,-0.24609 v -9.31446 c 0,-0.90714 -0.06956,-1.63574 -0.210938,-2.18945 -0.141373,-0.55371 -0.348175,-1.03108 -0.61914,-1.43164 -0.270966,-0.40056 -0.624646,-0.70786 -1.060547,-0.91992 -0.424121,-0.21206 -0.918882,-0.31836 -1.484375,-0.31836 -0.73043,0 -1.460977,0.25897 -2.191407,0.77734 -0.730429,0.51837 -1.495758,1.27986 -2.296875,2.28125 v 11.11524 c 0,0.0943 -0.02319,0.1754 -0.07031,0.24609 -0.04712,0.0589 -0.124439,0.11303 -0.230469,0.16016 -0.10603,0.0471 -0.252908,0.0819 -0.441406,0.10547 -0.188498,0.0236 -0.430081,0.0352 -0.724609,0.0352 -0.282747,0 -0.518534,-0.0116 -0.707032,-0.0352 -0.188498,-0.0236 -0.341173,-0.0584 -0.458984,-0.10547 -0.10603,-0.0471 -0.183344,-0.10125 -0.230469,-0.16016 -0.03534,-0.0707 -0.05273,-0.15184 -0.05273,-0.24609 v -15.9043 c 0,-0.0943 0.01739,-0.17156 0.05273,-0.23047 0.03534,-0.0707 0.106861,-0.12866 0.212891,-0.17578 0.10603,-0.0589 0.241314,-0.0956 0.40625,-0.10742 0.164935,-0.0236 0.383331,-0.0352 0.654297,-0.0352 0.259184,0 0.46983,0.0116 0.634765,0.0352 0.176717,0.0118 0.312001,0.0485 0.40625,0.10742 0.09425,0.0471 0.159969,0.10509 0.195313,0.17578 0.04712,0.0589 0.07031,0.13622 0.07031,0.23047 v 2.10156 c 0.895365,-1.00139 1.784385,-1.73194 2.667969,-2.1914 0.895365,-0.47125 1.797932,-0.70704 2.705078,-0.70704 z m 35.890625,0 c 0.42412,0 0.847364,0.0367 1.271485,0.10743 0.42412,0.0707 0.806785,0.15764 1.148437,0.26367 0.341652,0.10603 0.631565,0.22392 0.867188,0.35351 0.247403,0.11781 0.429063,0.22411 0.546875,0.31836 0.129592,0.0943 0.212703,0.17736 0.248046,0.24805 0.04713,0.0707 0.07611,0.1538 0.08789,0.24805 0.02356,0.0825 0.04095,0.18681 0.05273,0.3164 0.02356,0.1296 0.03516,0.29002 0.03516,0.47852 0,0.20028 -0.01159,0.37614 -0.03516,0.5293 -0.01178,0.14137 -0.04077,0.25926 -0.08789,0.35351 -0.03534,0.0942 -0.08172,0.16577 -0.140625,0.21289 -0.05891,0.0354 -0.124626,0.0527 -0.195313,0.0527 -0.10603,0 -0.258705,-0.0657 -0.458984,-0.19532 -0.200279,-0.12959 -0.459254,-0.26487 -0.777344,-0.40625 -0.31809,-0.15315 -0.694958,-0.29423 -1.130859,-0.42382 -0.424121,-0.1296 -0.913084,-0.19336 -1.466797,-0.19336 -0.494807,0 -0.931598,0.058 -1.308594,0.17578 -0.376996,0.10603 -0.688143,0.2645 -0.935547,0.47656 -0.235622,0.20028 -0.419236,0.44186 -0.548828,0.72461 -0.117811,0.28275 -0.175781,0.59005 -0.175781,0.91992 0,0.45946 0.117893,0.84793 0.353516,1.16602 0.235622,0.30631 0.540972,0.57687 0.917968,0.8125 0.376996,0.23562 0.80799,0.44822 1.291016,0.63672 0.483026,0.18849 0.97199,0.38175 1.466797,0.58203 0.506588,0.20028 1.001349,0.42447 1.484375,0.67187 0.494807,0.24741 0.929645,0.54891 1.30664,0.90235 0.376996,0.35343 0.678503,0.77667 0.902344,1.27148 0.235623,0.49481 0.353516,1.08427 0.353516,1.76758 0,0.8129 -0.154629,1.53765 -0.460938,2.17383 -0.294528,0.63618 -0.717771,1.17152 -1.271484,1.60742 -0.553713,0.4359 -1.212743,0.76639 -1.978516,0.99023 -0.765773,0.22384 -1.608416,0.33594 -2.527343,0.33594 -0.565494,0 -1.108584,-0.0483 -1.626954,-0.14258 -0.506588,-0.0825 -0.964614,-0.18681 -1.376953,-0.3164 -0.400558,-0.14138 -0.742643,-0.28441 -1.02539,-0.42579 -0.282747,-0.15315 -0.489549,-0.28843 -0.619141,-0.40625 -0.129592,-0.11781 -0.224298,-0.28208 -0.283203,-0.49414 -0.05891,-0.21206 -0.08789,-0.50002 -0.08789,-0.86523 0,-0.22384 0.01159,-0.41325 0.03516,-0.56641 0.02356,-0.15315 0.05255,-0.27684 0.08789,-0.37109 0.03534,-0.0943 0.08367,-0.15802 0.142578,-0.19336 0.07069,-0.0471 0.146048,-0.0723 0.228516,-0.0723 0.129592,0 0.319003,0.0831 0.566406,0.24805 0.259185,0.15316 0.572285,0.32322 0.9375,0.51172 0.376996,0.1885 0.817631,0.36631 1.324219,0.53125 0.506588,0.15315 1.090257,0.23047 1.75,0.23047 0.494807,0 0.943192,-0.0541 1.34375,-0.16016 0.400558,-0.10603 0.746487,-0.2587 1.041016,-0.45898 0.294528,-0.21206 0.51872,-0.47683 0.671875,-0.79492 0.164935,-0.31809 0.248046,-0.69496 0.248046,-1.13086 0,-0.44769 -0.117893,-0.82455 -0.353515,-1.13086 -0.223842,-0.30631 -0.525348,-0.57883 -0.902344,-0.81446 -0.376996,-0.23562 -0.80024,-0.44047 -1.271484,-0.61718 -0.471245,-0.1885 -0.960209,-0.38371 -1.466797,-0.58399 -0.494807,-0.20028 -0.983771,-0.42447 -1.466797,-0.67187 -0.471245,-0.25919 -0.894489,-0.57033 -1.271484,-0.93555 -0.376996,-0.36521 -0.6843,-0.802 -0.919922,-1.30859 -0.223842,-0.50659 -0.335938,-1.11345 -0.335938,-1.82032 0,-0.62439 0.117893,-1.21966 0.353516,-1.78515 0.247403,-0.57728 0.612677,-1.07783 1.095703,-1.50195 0.483026,-0.43591 1.084086,-0.78184 1.802734,-1.04102 0.73043,-0.25919 1.57887,-0.39063 2.544922,-0.39063 z m 33.964844,0 c 1.142769,0 2.114899,0.13144 2.916016,0.39063 0.801116,0.25918 1.448552,0.64185 1.943359,1.14844 0.494807,0.4948 0.854284,1.11326 1.078125,1.85547 0.223841,0.74221 0.335937,1.60804 0.335937,2.59765 v 10.72656 c 0,0.14138 -0.04638,0.24768 -0.140625,0.31836 -0.09425,0.0707 -0.223736,0.12286 -0.388671,0.15821 -0.164936,0.0353 -0.40652,0.0527 -0.72461,0.0527 -0.306309,0 -0.553689,-0.0174 -0.742187,-0.0527 -0.176717,-0.0354 -0.306204,-0.0875 -0.388672,-0.15821 -0.08247,-0.0707 -0.125,-0.17698 -0.125,-0.31836 v -1.59179 c -0.695086,0.74221 -1.47201,1.32008 -2.332031,1.73242 -0.848241,0.41234 -1.748855,0.61914 -2.703125,0.61914 -0.83646,0 -1.597946,-0.1121 -2.28125,-0.33594 -0.671524,-0.21206 -1.247443,-0.52516 -1.730469,-0.9375 -0.471245,-0.41234 -0.842316,-0.91869 -1.113281,-1.51953 -0.259185,-0.60084 -0.388672,-1.28305 -0.388672,-2.04883 0,-0.89536 0.18166,-1.67424 0.546875,-2.33398 0.365214,-0.65974 0.88896,-1.20668 1.572265,-1.64258 0.683305,-0.4359 1.520152,-0.7606 2.509766,-0.97266 0.989614,-0.22384 2.102826,-0.33593 3.339844,-0.33593 h 2.191406 v -1.23633 c 0,-0.61262 -0.06377,-1.15376 -0.193359,-1.625 -0.129593,-0.47125 -0.342191,-0.86166 -0.636719,-1.16797 -0.282747,-0.31809 -0.653818,-0.55192 -1.113281,-0.70508 -0.459464,-0.16493 -1.025742,-0.24804 -1.697266,-0.24804 -0.718648,0 -1.366085,0.0889 -1.943359,0.26562 -0.565494,0.16494 -1.066052,0.35239 -1.501954,0.56445 -0.42412,0.20028 -0.783597,0.38969 -1.078125,0.56641 -0.282747,0.16494 -0.495345,0.24609 -0.636718,0.24609 -0.09425,0 -0.175407,-0.0232 -0.246094,-0.0703 -0.07069,-0.0471 -0.136407,-0.11669 -0.195313,-0.21094 -0.04712,-0.0942 -0.08191,-0.21214 -0.105468,-0.35351 -0.02356,-0.15316 -0.03516,-0.31938 -0.03516,-0.4961 0,-0.29452 0.01739,-0.52451 0.05273,-0.68945 0.04712,-0.17672 0.147626,-0.34099 0.300781,-0.49414 0.164936,-0.15315 0.441301,-0.32902 0.830078,-0.5293 0.388777,-0.21206 0.837162,-0.40147 1.34375,-0.5664 0.506588,-0.17672 1.059319,-0.3178 1.660156,-0.42383 0.600837,-0.11781 1.207695,-0.17774 1.820313,-0.17774 z m 37.216798,0 c 1.2488,0 2.30788,0.20101 3.17969,0.60157 0.88358,0.40055 1.60833,0.94169 2.17382,1.625 0.5655,0.67152 0.9791,1.46779 1.23829,2.38672 0.27096,0.90714 0.40625,1.87927 0.40625,2.91601 v 0.5293 c 0,0.45946 -0.1179,0.78995 -0.35352,0.99023 -0.22384,0.1885 -0.48282,0.28321 -0.77734,0.28321 h -10.42578 c 0,0.88358 0.087,1.67789 0.26367,2.38476 0.17671,0.70687 0.47242,1.31373 0.88476,1.82031 0.41234,0.50659 0.94768,0.89505 1.60742,1.16602 0.65975,0.27097 1.46761,0.40625 2.42188,0.40625 0.75399,0 1.42462,-0.058 2.01367,-0.17578 0.58906,-0.12959 1.09541,-0.27068 1.51953,-0.42383 0.4359,-0.15315 0.78958,-0.28844 1.06055,-0.40625 0.28275,-0.12959 0.49534,-0.19531 0.63672,-0.19531 0.0825,0 0.15203,0.0232 0.21094,0.0703 0.0707,0.0353 0.12481,0.0953 0.16015,0.17773 0.0353,0.0825 0.0585,0.20037 0.0703,0.35352 0.0236,0.14137 0.0352,0.31724 0.0352,0.5293 0,0.15315 -0.006,0.28844 -0.0176,0.40625 -0.0118,0.10603 -0.0292,0.20653 -0.0527,0.30078 -0.0118,0.0825 -0.0408,0.15978 -0.0879,0.23047 -0.0353,0.0707 -0.0895,0.14025 -0.16016,0.21093 -0.0589,0.0589 -0.24636,0.16521 -0.56445,0.31836 -0.31809,0.14138 -0.73169,0.28246 -1.23828,0.42383 -0.50659,0.14138 -1.09606,0.26507 -1.76758,0.3711 -0.65974,0.11781 -1.36515,0.17773 -2.11914,0.17773 -1.30771,0 -2.45765,-0.18361 -3.44727,-0.54883 -0.97783,-0.36521 -1.80113,-0.90635 -2.47265,-1.625 -0.67153,-0.71865 -1.17788,-1.61926 -1.51953,-2.70312 -0.34166,-1.08387 -0.51368,-2.34591 -0.51368,-3.78321 0,-1.36661 0.17782,-2.59191 0.53125,-3.67578 0.35344,-1.09564 0.85979,-2.01944 1.51953,-2.77343 0.67153,-0.76578 1.47744,-1.34945 2.41993,-1.75 0.94249,-0.41234 1.99773,-0.61915 3.16406,-0.61915 z m 18.41406,0 c 0.15316,0 0.32322,0.0136 0.51172,0.0371 0.20028,0.0118 0.40708,0.0408 0.61914,0.0879 0.21206,0.0471 0.39952,0.0993 0.56445,0.15821 0.17672,0.0589 0.30041,0.11883 0.3711,0.17773 0.0707,0.0589 0.11901,0.11688 0.14258,0.17578 0.0236,0.0471 0.041,0.11285 0.0527,0.19532 0.0236,0.0825 0.0352,0.20615 0.0352,0.37109 0.0118,0.15315 0.0176,0.3638 0.0176,0.63477 0,0.25918 -0.006,0.47758 -0.0176,0.65429 -0.0118,0.17672 -0.035,0.3178 -0.0703,0.42383 -0.0353,0.0943 -0.0837,0.17156 -0.14257,0.23047 -0.0471,0.0471 -0.11669,0.0703 -0.21094,0.0703 -0.0942,0 -0.21214,-0.0232 -0.35352,-0.0703 -0.12959,-0.0589 -0.28227,-0.11108 -0.45898,-0.1582 -0.16494,-0.0589 -0.35435,-0.11304 -0.56641,-0.16016 -0.21206,-0.0471 -0.44205,-0.0703 -0.68945,-0.0703 -0.29453,0 -0.58249,0.058 -0.86524,0.17578 -0.28274,0.11781 -0.58425,0.31302 -0.90234,0.58398 -0.30631,0.27097 -0.62905,0.63044 -0.9707,1.07813 -0.34165,0.44768 -0.71852,0.99461 -1.13086,1.64258 v 10.46289 c 0,0.0943 -0.0232,0.1754 -0.0703,0.24609 -0.0471,0.0589 -0.12444,0.11303 -0.23047,0.16016 -0.10603,0.0471 -0.25291,0.0819 -0.44141,0.10547 -0.1885,0.0236 -0.43008,0.0352 -0.72461,0.0352 -0.28275,0 -0.51853,-0.0116 -0.70703,-0.0352 -0.1885,-0.0236 -0.34117,-0.0584 -0.45898,-0.10547 -0.10603,-0.0471 -0.18335,-0.10125 -0.23047,-0.16016 -0.0353,-0.0707 -0.0527,-0.15184 -0.0527,-0.24609 v -15.9043 c 0,-0.0943 0.0174,-0.17156 0.0527,-0.23047 0.0353,-0.0707 0.10686,-0.12866 0.21289,-0.17578 0.10603,-0.0589 0.24131,-0.0956 0.40625,-0.10742 0.16493,-0.0236 0.38138,-0.0352 0.65234,-0.0352 0.25919,0 0.47178,0.0116 0.63672,0.0352 0.17672,0.0118 0.312,0.0485 0.40625,0.10742 0.0942,0.0471 0.15997,0.10509 0.19531,0.17578 0.0471,0.0589 0.0703,0.13622 0.0703,0.23047 v 2.31445 c 0.4359,-0.63618 0.84175,-1.15413 1.21875,-1.55468 0.38877,-0.40056 0.75405,-0.71366 1.0957,-0.9375 0.34165,-0.23563 0.67794,-0.3941 1.00781,-0.47657 0.34165,-0.0943 0.68374,-0.14258 1.02539,-0.14258 z m -192.091796,0.0371 c 0.483026,0 0.931411,0.029 1.34375,0.0879 0.424121,0.0471 0.818379,0.11669 1.183594,0.21094 h 4.806641 c 0.200279,0 0.347157,0.1005 0.441406,0.30078 0.10603,0.1885 0.160156,0.48421 0.160156,0.88477 0,0.41234 -0.05992,0.71189 -0.177734,0.90039 -0.10603,0.17672 -0.247111,0.26562 -0.423828,0.26562 h -2.279297 c 0.412339,0.42412 0.700299,0.8957 0.865234,1.41407 0.164936,0.50659 0.248047,1.03613 0.248047,1.58984 0,0.91893 -0.146878,1.73063 -0.441406,2.4375 -0.294528,0.70687 -0.719725,1.30793 -1.273438,1.80274 -0.541931,0.48302 -1.189367,0.85409 -1.943359,1.11328 -0.753992,0.25918 -1.590838,0.38867 -2.509766,0.38867 -0.647961,0 -1.266412,-0.0812 -1.855468,-0.2461 -0.577275,-0.17671 -1.02566,-0.39511 -1.34375,-0.65429 -0.212061,0.21206 -0.387924,0.45364 -0.529297,0.72461 -0.129593,0.27096 -0.195313,0.58406 -0.195313,0.9375 0,0.41234 0.189411,0.75247 0.566407,1.02343 0.388776,0.27097 0.900928,0.41785 1.537109,0.44141 l 4.152344,0.17774 c 0.789335,0.0236 1.514085,0.13565 2.173828,0.33593 0.659742,0.1885 1.231818,0.46487 1.714844,0.83008 0.483025,0.35343 0.859893,0.79602 1.130859,1.32617 0.270966,0.51837 0.40625,1.12523 0.40625,1.82032 0,0.73042 -0.152675,1.42424 -0.458984,2.08398 -0.30631,0.65974 -0.777883,1.23761 -1.414063,1.73242 -0.624399,0.50659 -1.424511,0.90085 -2.402344,1.1836 -0.977833,0.29452 -2.133577,0.4414 -3.464843,0.4414 -1.284143,0 -2.379964,-0.11209 -3.28711,-0.33594 -0.895365,-0.21206 -1.631709,-0.50581 -2.208984,-0.88281 -0.577275,-0.37699 -0.994722,-0.83118 -1.253906,-1.36133 -0.259185,-0.51837 -0.388672,-1.08269 -0.388672,-1.69531 0,-0.38878 0.04638,-0.76564 0.140625,-1.13086 0.09425,-0.36521 0.23533,-0.7131 0.423828,-1.04297 0.200279,-0.32987 0.441862,-0.64297 0.724609,-0.9375 0.294528,-0.30631 0.630817,-0.60586 1.007813,-0.90039 -0.577275,-0.29453 -1.006316,-0.6656 -1.289063,-1.11328 -0.270966,-0.44768 -0.408203,-0.93085 -0.408203,-1.44922 0,-0.71865 0.148831,-1.36029 0.443359,-1.92578 0.294528,-0.56549 0.659802,-1.07185 1.095704,-1.51953 -0.365215,-0.4359 -0.655128,-0.92487 -0.867188,-1.4668 -0.21206,-0.55371 -0.318359,-1.22049 -0.318359,-1.99804 0,-0.90715 0.154628,-1.71886 0.460937,-2.4375 0.306309,-0.71865 0.729553,-1.32551 1.271485,-1.82032 0.541931,-0.4948 1.189367,-0.87167 1.943359,-1.13086 0.765773,-0.27096 1.596822,-0.40625 2.492187,-0.40625 z m -0.05273,2.22657 c -0.565494,0 -1.060255,0.0928 -1.484375,0.28125 -0.412339,0.18849 -0.760222,0.44747 -1.042969,0.77734 -0.270966,0.32987 -0.477767,0.71449 -0.61914,1.15039 -0.129593,0.42412 -0.19336,0.87055 -0.19336,1.3418 0,1.04852 0.293757,1.87377 0.882813,2.47461 0.600837,0.60083 1.437683,0.90039 2.509765,0.90039 0.577275,0 1.077833,-0.087 1.501954,-0.26367 0.42412,-0.1885 0.772002,-0.44168 1.042968,-0.75977 0.282747,-0.32987 0.489549,-0.70674 0.619141,-1.13086 0.141373,-0.42412 0.210937,-0.86671 0.210937,-1.32617 0,-1.08386 -0.299553,-1.92651 -0.90039,-2.52734 -0.589056,-0.61262 -1.4317,-0.91797 -2.527344,-0.91797 z m 47.0957031,0.0176 c -0.7186483,0 -1.3506466,0.13529 -1.8925781,0.40625 -0.5419315,0.27097 -0.99416028,0.63045 -1.359375,1.07813 -0.36521472,0.44768 -0.64933033,0.97143 -0.84960937,1.57227 -0.20027905,0.58905 -0.31042214,1.2075 -0.33398438,1.85546 H 7.7994531 c 0.035343,-1.53154 -0.3067423,-2.73366 -1.0253906,-3.60546 -0.7068672,-0.87181 -1.7601561,-1.30665 -3.1621094,-1.30665 z m 126.5117129,0 c -0.71865,0 -1.35064,0.13529 -1.89258,0.40625 -0.54193,0.27097 -0.99416,0.63045 -1.35937,1.07813 -0.36522,0.44768 -0.64933,0.97143 -0.84961,1.57227 -0.20028,0.58905 -0.31042,1.2075 -0.33398,1.85546 h 8.62304 c 0.0353,-1.53154 -0.30674,-2.73366 -1.02539,-3.60546 -0.70687,-0.87181 -1.76015,-1.30665 -3.16211,-1.30665 z m -19.36914,0.22852 c -0.74221,0 -1.37225,0.17782 -1.89062,0.53125 -0.51837,0.35343 -0.94357,0.81726 -1.27344,1.39453 -0.31809,0.57728 -0.55192,1.23246 -0.70508,1.96289 -0.14137,0.73043 -0.21289,1.47257 -0.21289,2.22656 0,0.80112 0.058,1.58384 0.17578,2.34961 0.12959,0.76578 0.34799,1.44995 0.6543,2.05079 0.30631,0.58905 0.71411,1.06642 1.2207,1.43164 0.50659,0.35343 1.14243,0.52929 1.9082,0.52929 0.38878,0 0.75985,-0.0522 1.11329,-0.1582 0.36521,-0.10603 0.73628,-0.28385 1.11328,-0.53125 0.37699,-0.2474 0.77125,-0.56435 1.18359,-0.95313 0.41234,-0.40055 0.84718,-0.88952 1.30664,-1.46679 v -6.36328 c -0.78933,-0.97784 -1.55466,-1.71998 -2.29687,-2.22657 -0.73043,-0.51837 -1.49576,-0.77734 -2.29688,-0.77734 z m -170.285151,6.94531 c -0.801116,0 -1.494928,0.0715 -2.083984,0.21289 -0.589056,0.1296 -1.07802,0.32865 -1.466797,0.59961 -0.388777,0.25919 -0.67869,0.57808 -0.867188,0.95508 -0.176717,0.36522 -0.263672,0.78846 -0.263672,1.27149 0,0.82467 0.258975,1.48566 0.777344,1.98046 0.530151,0.48303 1.266495,0.72461 2.208985,0.72461 0.765772,0 1.473132,-0.1952 2.121093,-0.58398 0.659743,-0.38878 1.347758,-0.98404 2.066407,-1.78516 v -3.375 z m 153.443359,0 c -0.801116,0 -1.494928,0.0715 -2.083984,0.21289 -0.589056,0.1296 -1.07802,0.32865 -1.466797,0.59961 -0.388777,0.25919 -0.678689,0.57808 -0.867187,0.95508 -0.176717,0.36522 -0.263672,0.78846 -0.263672,1.27149 0,0.82467 0.258974,1.48566 0.777344,1.98046 0.53015,0.48303 1.266494,0.72461 2.208984,0.72461 0.765773,0 1.473132,-0.1952 2.121094,-0.58398 0.659742,-0.38878 1.347758,-0.98404 2.066406,-1.78516 v -3.375 z m -139.728515,6.53907 c -0.376996,0.29452 -0.690097,0.57669 -0.9375,0.84765 -0.235623,0.25919 -0.42308,0.50657 -0.564453,0.74219 -0.141374,0.2474 -0.241876,0.48899 -0.300782,0.72461 -0.04712,0.23562 -0.07031,0.4772 -0.07031,0.72461 0,0.76577 0.388462,1.34364 1.166016,1.73242 0.777553,0.40056 1.86178,0.59961 3.251953,0.59961 0.883584,0 1.619928,-0.087 2.208984,-0.26367 0.600837,-0.16494 1.082051,-0.38913 1.447266,-0.67188 0.365214,-0.28275 0.626142,-0.60744 0.779297,-0.97265 0.164935,-0.36522 0.246093,-0.74788 0.246093,-1.14844 0,-0.68331 -0.282162,-1.20705 -0.847656,-1.57227 -0.553713,-0.37699 -1.307448,-0.578 -2.261719,-0.60156 z" /><text
         xml:space="preserve"
         style="font-style:normal;font-variant:normal;font-weight:normal;font-stretch:normal;font-size:36.1916px;line-height:1.25;font-family:Calibri;-inkscape-font-specification:Calibri;text-align:center;letter-spacing:0px;word-spacing:0px;text-anchor:middle;fill:url(#linearGradient411);fill-opacity:1;stroke:none;stroke-width:0.97839"
         x="29.924316"
         y="-119.46494"
         id="text26439"><tspan
           id="tspan26437"
           x="29.924316"
           y="-119.46494"
           style="font-style:normal;font-variant:normal;font-weight:normal;font-stretch:normal;font-family:Calibri;-inkscape-font-specification:Calibri;text-align:center;text-anchor:middle;fill:url(#linearGradient411);fill-opacity:1;stroke-width:0.97839">fragment shader</tspan></text><rect
         style="fill:#ae405e;fill-opacity:1;stroke:none;stroke-width:0.711162;stroke-linecap:round;stroke-linejoin:round"
         id="rect26441"
         width="279.82397"
         height="31.053415"
         x="-109.99654"
         y="-275.13028"
         rx="0"
         ry="0" /><text
         xml:space="preserve"
         style="font-style:italic;font-variant:normal;font-weight:normal;font-stretch:normal;font-size:25.3186px;line-height:1.25;font-family:Calibri;-inkscape-font-specification:'Calibri Italic';text-align:center;letter-spacing:0px;word-spacing:0px;text-anchor:middle;fill:#ffffff;fill-opacity:1;stroke:none;stroke-width:0.97839"
         x="29.867546"
         y="-251.9852"
         id="text26445"><tspan
           id="tspan26443"
           x="29.867544"
           y="-251.9852"
           style="font-style:italic;font-variant:normal;font-weight:normal;font-stretch:normal;font-family:Calibri;-inkscape-font-specification:'Calibri Italic';text-align:center;text-anchor:middle;fill:#ffffff;fill-opacity:1;stroke-width:0.97839">primitive assembly</tspan></text><rect
         style="fill:#ae405e;fill-opacity:1;stroke:none;stroke-width:0.711162;stroke-linecap:round;stroke-linejoin:round"
         id="rect28568"
         width="279.82397"
         height="31.053415"
         x="-109.99654"
         y="-215.52937"
         rx="0"
         ry="0" /><text
         xml:space="preserve"
         style="font-style:italic;font-variant:normal;font-weight:normal;font-stretch:normal;font-size:25.3186px;line-height:1.25;font-family:Calibri;-inkscape-font-specification:'Calibri Italic';text-align:center;letter-spacing:0px;word-spacing:0px;text-anchor:middle;fill:#ffffff;fill-opacity:1;stroke:none;stroke-width:0.97839"
         x="29.867546"
         y="-192.38428"
         id="text28572"><tspan
           id="tspan28570"
           x="29.867542"
           y="-192.38428"
           style="font-style:italic;font-variant:normal;font-weight:normal;font-stretch:normal;font-family:Calibri;-inkscape-font-specification:'Calibri Italic';text-align:center;text-anchor:middle;fill:#ffffff;fill-opacity:1;stroke-width:0.97839">rasterization</tspan></text><path
         style="fill:none;fill-opacity:1;stroke:url(#linearGradient415);stroke-width:1.93075;stroke-linecap:butt;stroke-linejoin:miter;stroke-dasharray:1.93075, 1.93075;stroke-dashoffset:0"
         d="m 259.46598,-153.08315 -3e-5,113.942484"
         id="path415" /><path
         style="fill:none;fill-opacity:1;stroke:url(#linearGradient416);stroke-width:1.93075;stroke-linecap:butt;stroke-linejoin:miter;stroke-dasharray:1.93075, 1.93075;stroke-dashoffset:0"
         d="m 330.15252,-181.99213 -3e-5,113.942482"
         id="path416" /></g><text
       xml:space="preserve"
       style="font-style:normal;font-variant:normal;font-weight:bold;font-stretch:normal;font-size:25.1904px;line-height:1.25;font-family:Calibri;-inkscape-font-specification:'Calibri Bold';text-align:center;letter-spacing:0px;word-spacing:0px;text-anchor:middle;stroke-width:0.629759"
       x="68.818634"
       y="-375.9707"
       id="text3"><tspan
         id="tspan3"
         x="68.818634"
         y="-375.9707"
         style="stroke-width:0.629759">We are here!</tspan></text><path
       d="m 155.92802,-346.04373 c -0.20399,0.15299 -0.0147,0.46093 -0.0441,0.61784 -0.0196,0.16672 -0.0539,0.29911 -0.10298,0.39718 -0.049,0.0981 -0.10787,0.17162 -0.17652,0.22065 -0.0686,0.0491 -0.1422,0.0834 -0.22066,0.10298 -0.22556,0.0589 -0.44131,0.0981 -0.64725,0.11768 -0.20595,0.0196 -0.43641,0.0294 -0.69139,0.0294 -0.77475,0 -1.41711,-0.12258 -1.92707,-0.36776 -0.50996,-0.24517 -0.91694,-0.60312 -1.22096,-1.07386 -0.30401,-0.46092 -0.51977,-1.04444 -0.64726,-1.75054 -0.11768,-0.70609 -0.17652,-1.61813 -0.17652,-2.73613 v -26.76309 c 0,-0.61783 -0.0392,-1.10818 -0.11768,-1.47104 -0.0785,-0.36285 -0.20105,-0.68158 -0.36776,-0.95617 -0.16672,-0.28441 -0.38248,-0.51977 -0.64726,-0.7061 -0.25498,-0.18633 -0.56881,-0.30892 -0.94147,-0.36776 -0.0981,-0.0196 -0.18143,-0.0539 -0.25008,-0.10298 -0.0686,-0.0589 -0.12748,-0.13732 -0.17652,-0.23536 -0.049,-0.10788 -0.0883,-0.25008 -0.11768,-0.4266 -0.0196,-0.17653 -0.0294,-0.39228 -0.0294,-0.64726 0,-0.26479 0.01,-0.48544 0.0294,-0.66197 0.0196,-0.18633 0.049,-0.33344 0.0883,-0.44131 0.049,-0.10788 0.10297,-0.18143 0.16181,-0.22066 0.0687,-0.0491 0.15201,-0.0834 0.25008,-0.10297 0.68648,-0.0981 1.21115,-0.43151 1.57401,-1.00031 0.36286,-0.5688 0.54429,-1.40729 0.54429,-2.51548 v -27.65146 c 0,-1.11799 0.0588,-2.02513 0.17652,-2.72142 0.12749,-0.7061 0.34324,-1.29452 0.64726,-1.76525 0.31382,-0.48054 0.72571,-0.83849 1.23567,-1.07386 0.50996,-0.24517 1.14741,-0.36776 1.91235,-0.36776 0.25498,0 0.48545,0.0147 0.69139,0.0441 0.20595,0.0196 0.4168,0.0539 0.63255,0.10297 0.0883,0.01 0.16672,0.0392 0.23537,0.0883 0.0686,0.049 0.12749,0.12255 0.17652,0.22065 0.049,0.0981 0.0834,0.23537 0.10297,0.41189 0.0294,0.16672 0.0441,0.37267 0.0441,0.61784 0,0.25498 -0.0147,0.46583 -0.0441,0.63255 -0.0294,0.16671 -0.0686,0.30401 -0.11768,0.41189 -0.049,0.10787 -0.11278,0.18633 -0.19124,0.23537 -0.0785,0.0392 -0.15691,0.0588 -0.23536,0.0588 l -0.54429,0.0147 c -0.24517,0.01 -0.45112,0.0588 -0.61783,0.1471 -0.15691,0.0784 -0.28931,0.22556 -0.39718,0.44131 -0.0981,0.20595 -0.17162,0.49035 -0.22066,0.85321 -0.0392,0.35305 -0.0588,0.90714 -0.0588,1.66227 v 27.57791 c 0,0.75513 -0.0539,1.38768 -0.16181,1.89764 -0.10788,0.50996 -0.28441,0.97089 -0.52958,1.38278 -0.23536,0.41189 -0.54428,0.76985 -0.92675,1.07386 -0.38247,0.29421 -0.85321,0.50506 -1.4122,0.63255 0.55899,0.12749 1.02973,0.33833 1.4122,0.63254 0.38247,0.29421 0.69139,0.65217 0.92675,1.07386 0.24517,0.41189 0.4217,0.87282 0.52958,1.38278 0.10787,0.50996 0.16181,1.1376 0.16181,1.88293 v 26.70425 c 0,0.74533 0.0196,1.29452 0.0588,1.64756 0.049,0.36286 0.11768,0.64727 0.20595,0.85321 0.0981,0.21576 0.21575,0.36776 0.35305,0.45602 0.1471,0.0883 0.32853,0.1373 0.54428,0.1471 h 0.54428 c 0.1373,0.01 0.25499,0.0343 0.35305,0.0736 0.0981,0.0491 0.17163,0.12262 0.22066,0.22065 0.0588,0.10788 0.0981,0.24518 0.11768,0.41189 0.0196,0.16672 0.24123,0.48838 0.0294,0.64726 z"
       id="text5"
       style="font-weight:bold;font-size:30.1269px;line-height:1.25;font-family:Calibri;-inkscape-font-specification:'Calibri Bold';text-align:center;letter-spacing:0px;word-spacing:0px;text-anchor:middle;stroke-width:0.753173"
       aria-label="{" /></g></svg>
