<?xml version="1.0" encoding="UTF-8" standalone="no"?>
<!-- Created with Inkscape (http://www.inkscape.org/) -->

<svg
   width="150mm"
   height="127.5mm"
   viewBox="0 0 100 85"
   version="1.1"
   id="svg22945"
   xml:space="preserve"
   inkscape:version="1.2 (dc2aedaf03, 2022-05-15)"
   sodipodi:docname="clip-space-light.svg"
   xmlns:inkscape="http://www.inkscape.org/namespaces/inkscape"
   xmlns:sodipodi="http://sodipodi.sourceforge.net/DTD/sodipodi-0.dtd"
   xmlns:xlink="http://www.w3.org/1999/xlink"
   xmlns="http://www.w3.org/2000/svg"
   xmlns:svg="http://www.w3.org/2000/svg"><sodipodi:namedview
     id="namedview22947"
     pagecolor="#ffffff"
     bordercolor="#666666"
     borderopacity="1.0"
     inkscape:showpageshadow="2"
     inkscape:pageopacity="0.0"
     inkscape:pagecheckerboard="0"
     inkscape:deskcolor="#d1d1d1"
     inkscape:document-units="mm"
     showgrid="false"
     inkscape:zoom="1.4142136"
     inkscape:cx="148.84597"
     inkscape:cy="256.67975"
     inkscape:window-width="1920"
     inkscape:window-height="1017"
     inkscape:window-x="-8"
     inkscape:window-y="-8"
     inkscape:window-maximized="1"
     inkscape:current-layer="layer1"
     showguides="true" /><defs
     id="defs22942"><clipPath
       clipPathUnits="userSpaceOnUse"
       id="clipPath23872"><path
         id="path23874"
         style="fill:#fe8200;stroke:none;stroke-width:0.55218;stroke-dasharray:2.20872, 2.20872"
         d="M 0,0 V 135.46667 H 169.8625 V 0 Z M 0.26458333,8.2020833 H 169.59792 V 135.20208 H 0.26458333 Z" /></clipPath><clipPath
       clipPathUnits="userSpaceOnUse"
       id="clipPath36213"><path
         style="fill:#c8c8c8;fill-opacity:1;stroke:none;stroke-width:0.266075;stroke-linejoin:round;stroke-dasharray:none;stroke-opacity:1"
         d="m 1.6927527,1.5520898 v 4.7923118 l 5.3217695,2.779e-4 V 1.3011809 Z"
         id="path36215" /></clipPath></defs><g
     inkscape:label="Layer 1"
     inkscape:groupmode="layer"
     id="layer1"><g
       id="g31958"
       style="fill:#404040;fill-opacity:1"
       transform="rotate(57.446059,42.367267,38.432271)"><path
         style="color:#000000;fill:#404040;fill-opacity:1;stroke-width:0.529167;-inkscape-stroke:none"
         d="M 50,96.593818 V 7.406182"
         id="path31950" /><path
         id="path31952"
         style="color:#000000;fill:#404040;fill-opacity:1;-inkscape-stroke:none"
         d="m 49.736391,7.4062153 1.61e-4,50.5205397 0.527252,9e-6 -1.61e-4,-50.5205403 z" /><g
         id="g31956"
         style="fill:#404040;fill-opacity:1"><path
           style="color:#000000;fill:#404040;fill-opacity:1;-inkscape-stroke:none"
           d="m 50,6.9003906 -1.775391,1.7734375 0.375,0.375 L 50,7.6484375 l 1.400391,1.4003906 0.375,-0.375 z"
           id="path31954" /></g></g><path
       style="fill:#ffffff;fill-opacity:0.344743;stroke:none;stroke-width:0.095;stroke-linejoin:round;stroke-dasharray:none;stroke-opacity:1"
       d="m 65.97634,30.418005 0.765742,1.185845 c 0,0 0.196682,-0.06143 0.309357,0.133734 0.09571,0.16577 -0.0221,0.329701 -0.0221,0.329701 l 0.45408,0.711459 16.685228,-4.94031 -8.465762,-9.775382 z"
       id="path32799"
       sodipodi:nodetypes="ccsccccc" /><g
       id="g29962"
       transform="matrix(0.34366344,0.09206479,0,0.3709419,37.838835,-2.6033981)"><path
         style="fill:none;stroke:#272725;stroke-width:0.266075;stroke-dasharray:none;stroke-opacity:1"
         d="m 0.00428182,8.2020833 0.1288,127.1324967 H 169.72672"
         id="path29960"
         sodipodi:nodetypes="ccc" /></g><path
       style="fill:#949494;fill-opacity:0.437653;stroke:none;stroke-width:0.095;stroke-linejoin:round;stroke-dasharray:none;stroke-opacity:1"
       d="m 62.558629,37.209861 33.56481,-21.156766 0.04426,47.170626 -33.600192,21.103723 z"
       id="path29902"
       sodipodi:nodetypes="ccccc" /><path
       style="fill:#c8c8c8;fill-opacity:0.464548;stroke:none;stroke-width:0.095;stroke-linejoin:round;stroke-dasharray:none;stroke-opacity:1"
       d="M 4.3295681,21.567177 37.840306,0.4394924 96.123439,16.053095 62.558629,37.209861 Z"
       id="path29904"
       sodipodi:nodetypes="ccccc" /><path
       style="fill:none;stroke:#272725;stroke-width:0.095;stroke-dasharray:none;stroke-opacity:1"
       d="M 62.567509,84.327444 96.167703,63.223723 96.12344,16.053095 37.840307,0.4394925 4.329568,21.567178"
       id="path25683"
       sodipodi:nodetypes="ccccc" /><path
       style="fill:none;stroke:#272725;stroke-width:0.095;stroke-dasharray:none;stroke-opacity:1"
       d="M 4.2843734,68.713841 37.88457,47.61012"
       id="path25685" /><g
       id="g25693"
       transform="matrix(0.34366344,0.09206479,0,0.3709419,37.838835,5.7309769)" /><path
       style="fill:none;stroke:#272725;stroke-width:0.095;stroke-dasharray:none;stroke-opacity:1"
       d="M 62.558629,37.209861 96.12344,16.053095"
       id="path25681"
       sodipodi:nodetypes="cc" /><path
       style="fill:#c8c8c8;fill-opacity:1;stroke:#272725;stroke-width:0.095;stroke-linejoin:round;stroke-dasharray:none;stroke-opacity:1"
       d="m 4.2843756,18.561724 0.429654,-0.275968 58.2831284,15.613603 -0.429651,0.275967 z"
       id="path29299"
       sodipodi:nodetypes="ccccc" /><path
       style="fill:#949494;fill-opacity:1;stroke:#272725;stroke-width:0.095;stroke-linejoin:round;stroke-dasharray:none;stroke-opacity:1"
       d="m 62.567507,84.327443 0.429649,-0.275968 V 33.899358 l -0.429649,0.275968 z"
       id="path29846" /><text
       xml:space="preserve"
       style="font-style:italic;font-variant:normal;font-weight:normal;font-stretch:normal;font-size:5.07414px;line-height:1.25;font-family:'Charter ITC TT';-inkscape-font-specification:'Charter ITC TT Italic';letter-spacing:0px;word-spacing:0px;fill:#000000;fill-opacity:1;stroke:none;stroke-width:0.264584"
       x="-11.044042"
       y="73.647057"
       id="text14882"><tspan
         sodipodi:role="line"
         id="tspan14880"
         style="font-style:italic;font-variant:normal;font-weight:normal;font-stretch:normal;font-family:'Charter ITC TT';-inkscape-font-specification:'Charter ITC TT Italic';fill:#000000;fill-opacity:1;stroke-width:0.264584"
         x="-11.044042"
         y="73.647057">y</tspan></text><g
       id="path444"
       style="fill:#404040;fill-opacity:1"
       transform="translate(-16.564609,11.011661)"><path
         style="color:#000000;fill:#404040;fill-opacity:1;stroke-width:0.529167;-inkscape-stroke:none"
         d="M 50,96.593818 V 7.406182"
         id="path14876" /><path
         style="color:#000000;fill:#404040;fill-opacity:1;-inkscape-stroke:none"
         d="m 49.736328,7.40625 v 62.246732 h 0.527344 V 7.40625 Z"
         id="path14878"
         sodipodi:nodetypes="ccccc" /><g
         id="g14868"
         style="fill:#404040;fill-opacity:1"><path
           style="color:#000000;fill:#404040;fill-opacity:1;-inkscape-stroke:none"
           d="m 50,6.9003906 -1.775391,1.7734375 0.375,0.375 L 50,7.6484375 l 1.400391,1.4003906 0.375,-0.375 z"
           id="path14870" /></g></g><g
       aria-label="z = 0"
       id="text31166"
       style="font-style:italic;font-size:4.11006px;line-height:1.25;font-family:'Charter ITC TT';-inkscape-font-specification:'Charter ITC TT Italic';letter-spacing:0px;word-spacing:0px;fill:#095ddf;stroke-width:0.214313"><path
         d="m 23.773318,58.129551 -1.417971,1.582374 0.398676,-0.102752 q 0.316474,0.135632 0.427446,0.135632 0.139742,0 0.246604,-0.147962 l -0.226054,-0.250714 q 0.09042,-0.147962 0.201393,-0.147962 0.0822,0 0.139742,0.06987 0.05754,0.06987 0.05754,0.172623 0,0.226053 -0.176732,0.402786 -0.172623,0.176732 -0.394566,0.176732 -0.09453,0 -0.217833,-0.04521 -0.106862,-0.0411 -0.209613,-0.0822 -0.135632,-0.04932 -0.221944,-0.04932 -0.04932,0 -0.123302,0.03699 l -0.09864,0.176733 -0.226053,-0.123302 1.41386,-1.586483 -0.406896,0.09042 q -0.238383,-0.119192 -0.365795,-0.119192 -0.147962,0 -0.254824,0.131522 l 0.217834,0.263044 q -0.0822,0.131522 -0.193173,0.131522 -0.193173,0 -0.193173,-0.238384 0,-0.221943 0.168512,-0.398675 0.172623,-0.180843 0.386346,-0.180843 0.135632,0 0.374016,0.123302 0.156182,0.0822 0.238383,0.0822 0.04932,0 0.127412,-0.03288 l 0.07809,-0.201393 z"
         id="path38109" /><path
         d="m 27.550464,58.524117 h -2.404386 v -0.238383 h 2.404386 z m 0,0.764471 h -2.404386 v -0.238383 h 2.404386 z"
         id="path38111" /><path
         d="m 31.117995,58.150102 q 0,0.406896 -0.135632,0.809682 -0.131522,0.402786 -0.353465,0.67816 -0.345245,0.423336 -0.809682,0.423336 -0.361685,0 -0.563078,-0.246604 -0.197283,-0.250713 -0.197283,-0.70282 0,-0.411006 0.135632,-0.822012 0.135632,-0.415116 0.361685,-0.68227 0.341135,-0.402786 0.813792,-0.402786 0.349355,0 0.546638,0.250714 0.201393,0.250713 0.201393,0.6946 z M 30.73987,58.03913 q 0,-0.641169 -0.427446,-0.641169 -0.361686,0 -0.612399,0.558968 -0.115082,0.250714 -0.189063,0.612399 -0.07398,0.361685 -0.07398,0.6535 0,0.645279 0.415116,0.645279 0.382235,0 0.632949,-0.575408 0.110972,-0.258934 0.180843,-0.608289 0.07398,-0.353466 0.07398,-0.64528 z"
         id="path38113" /></g><g
       aria-label="z = 1"
       id="text31170"
       style="font-style:italic;font-size:4.11006px;line-height:1.25;font-family:'Charter ITC TT';-inkscape-font-specification:'Charter ITC TT Italic';letter-spacing:0px;word-spacing:0px;fill:#095ddf;stroke-width:0.214313"><path
         d="m 72.840903,23.595053 -1.417971,1.582373 0.398676,-0.102751 q 0.316474,0.135632 0.427446,0.135632 0.139742,0 0.246604,-0.147962 l -0.226054,-0.250714 q 0.09042,-0.147962 0.201393,-0.147962 0.0822,0 0.139742,0.06987 0.05754,0.06987 0.05754,0.172622 0,0.226054 -0.176732,0.402786 -0.172623,0.176733 -0.394566,0.176733 -0.09453,0 -0.217833,-0.04521 -0.106862,-0.0411 -0.209613,-0.0822 -0.135632,-0.04932 -0.221944,-0.04932 -0.04932,0 -0.123302,0.03699 l -0.09864,0.176733 -0.226053,-0.123302 1.41386,-1.586484 -0.406896,0.09042 q -0.238383,-0.119192 -0.365795,-0.119192 -0.147962,0 -0.254824,0.131522 l 0.217834,0.263044 q -0.0822,0.131522 -0.193173,0.131522 -0.193173,0 -0.193173,-0.238384 0,-0.221943 0.168512,-0.398676 0.172623,-0.180842 0.386346,-0.180842 0.135632,0 0.374015,0.123302 0.156183,0.0822 0.238384,0.0822 0.04932,0 0.127412,-0.03288 l 0.07809,-0.201393 z"
         id="path38086" /><path
         d="m 76.618049,23.989619 h -2.404386 v -0.238383 h 2.404386 z m 0,0.764471 h -2.404386 v -0.238383 h 2.404386 z"
         id="path38088" /><path
         d="m 79.667713,22.67029 -0.513758,2.556457 0.0411,0.06165 0.369905,0.02055 v 0.168513 h -1.282339 v -0.176733 l 0.447997,-0.02055 0.06987,-0.07398 0.431556,-2.133121 -0.04932,-0.0411 -0.620619,0.07809 v -0.164402 l 1.002854,-0.275374 z"
         id="path38090" /></g><g
       id="g31948"
       style="fill:#404040;fill-opacity:1"
       transform="rotate(104.95306,38.966059,43.227606)"><path
         style="color:#000000;fill:#404040;fill-opacity:1;stroke-width:0.529167;-inkscape-stroke:none"
         d="M 50,96.593818 V 7.406182"
         id="path31940" /><path
         id="path31942"
         style="color:#000000;fill:#404040;fill-opacity:1"
         d="m 49.736229,80.325163 0.527477,3.33e-4 2.18e-4,-72.9192442 -0.527344,1.659e-4 z" /><g
         id="g31946"
         style="fill:#404040;fill-opacity:1"><path
           style="color:#000000;fill:#404040;fill-opacity:1;-inkscape-stroke:none"
           d="m 50,6.9003906 -1.775391,1.7734375 0.375,0.375 L 50,7.6484375 l 1.400391,1.4003906 0.375,-0.375 z"
           id="path31944" /></g></g><path
       id="rect32965-5"
       style="fill:#ffffff;fill-opacity:1;stroke:none;stroke-width:0.0933902;stroke-linejoin:round;stroke-dasharray:none;stroke-opacity:1"
       d="m 33.076017,76.260978 -0.03049,0.112655 0.734322,0.197404 0.04289,-0.160714 -0.123507,-0.03359 c -0.02451,0.08684 -0.160195,0.125981 -0.303857,0.08733 -0.130386,-0.035 -0.223156,-0.12195 -0.222726,-0.203089 z" /><path
       id="rect32965-5-9"
       style="fill:#c8c8c8;fill-opacity:1;stroke:none;stroke-width:0.0954375;stroke-linejoin:round;stroke-dasharray:none;stroke-opacity:1"
       d="m 33.072387,26.100258 -0.03081,0.116411 0.742134,0.203984 0.04335,-0.166071 -0.124821,-0.03471 c -0.02477,0.08974 -0.161899,0.13018 -0.307089,0.09024 -0.131773,-0.03617 -0.22553,-0.126015 -0.225096,-0.209859 z" /><path
       id="rect32965-6"
       style="fill:#ffffff;fill-opacity:1;stroke:none;stroke-width:0.095;stroke-linejoin:round;stroke-dasharray:none;stroke-opacity:1"
       d="m 4.3264164,45.071822 v 0.773079 h 0.169516 v -0.130224 c -0.09178,-0.0011 -0.165834,-0.124102 -0.165881,-0.275436 -1.25e-4,-0.151535 0.07398,-0.274808 0.165881,-0.275952 v -0.09147 z"
       sodipodi:nodetypes="cccccccc" /><path
       id="rect32965"
       style="fill:#949494;fill-opacity:1;stroke:none;stroke-width:0.095;stroke-linejoin:round;stroke-dasharray:none;stroke-opacity:1"
       d="m 62.615282,60.64126 v 0.773079 h 0.169516 v -0.130224 c -0.09178,-0.0011 -0.165834,-0.124102 -0.165881,-0.275436 -1.25e-4,-0.151535 0.07398,-0.274808 0.165881,-0.275952 v -0.09147 z"
       sodipodi:nodetypes="cccccccc" /><g
       aria-label="y = 1"
       id="text33168"
       style="font-style:italic;font-size:4.11006px;line-height:1.25;font-family:'Charter ITC TT';-inkscape-font-specification:'Charter ITC TT Italic';letter-spacing:0px;word-spacing:0px;fill:#28a106;stroke-width:0.214313"
       transform="translate(-43.280979,-50.242293)"><path
         d="m 74.09293,64.534153 -0.209613,0.123302 q -0.193173,0.226053 -0.468547,0.830232 -0.361686,0.785021 -0.628839,1.154927 -0.415117,0.571298 -0.805572,0.571298 -0.139742,0 -0.238384,-0.0822 -0.102751,-0.07809 -0.102751,-0.189063 0,-0.180842 0.221943,-0.226053 l 0.242494,0.242493 q 0.345245,-0.02466 0.70693,-0.70282 L 72.555767,65.00681 q -0.05343,-0.271264 -0.164402,-0.427446 l -0.349355,-0.02877 v -0.09042 l 0.402786,-0.131522 q 0.02055,-0.0041 0.05343,-0.0041 0.160293,0 0.238384,0.172622 0.0411,0.08631 0.06165,0.176733 0.02877,0.119192 0.110971,0.534308 l 0.135632,0.6946 q 0.304145,-0.760361 0.64528,-1.561823 h 0.07809 l 0.324695,0.106862 z"
         id="path38079" /><path
         d="m 77.808424,64.834187 h -2.404385 v -0.238383 h 2.404385 z m 0,0.764472 h -2.404385 v -0.238384 h 2.404385 z"
         id="path38081" /><path
         d="m 80.858089,63.514858 -0.513758,2.556457 0.0411,0.06165 0.369905,0.02055 v 0.168512 h -1.282339 v -0.176732 l 0.447997,-0.02055 0.06987,-0.07398 0.431556,-2.133121 -0.04932,-0.0411 -0.620619,0.07809 v -0.164402 l 1.002855,-0.275374 z"
         id="path38083" /></g><g
       id="g36247"
       transform="translate(0,-8.334375)"><path
         style="fill:#ffffff;fill-opacity:1;stroke:none;stroke-width:0.095;stroke-dasharray:none;stroke-opacity:1"
         d="m 4.2843758,26.896099 0.00104,3.058015 58.2732162,15.590122 0.0089,-3.034534 z"
         id="path29190"
         sodipodi:nodetypes="ccccc" /><path
         style="fill:none;stroke:#272725;stroke-width:0.095;stroke-dasharray:none;stroke-opacity:1"
         d="m 51.724416,41.077329 0.865749,0.247357"
         id="path27187" /><text
         xml:space="preserve"
         style="font-style:normal;font-variant:normal;font-weight:normal;font-stretch:normal;font-size:1.13311px;line-height:1.25;font-family:'Lucida Console';-inkscape-font-specification:'Lucida Console';letter-spacing:0px;word-spacing:0px;fill:#272725;fill-opacity:1;stroke:none;stroke-width:0.028328"
         x="7.230752"
         y="26.597477"
         id="text27199"
         transform="matrix(0.96252876,0.25785405,0,1.03893,0,0)"><tspan
           sodipodi:role="line"
           id="tspan27197"
           style="font-style:normal;font-variant:normal;font-weight:normal;font-stretch:normal;font-family:'Segoe UI';-inkscape-font-specification:'Segoe UI';fill:#272725;fill-opacity:1;stroke-width:0.028328"
           x="7.230752"
           y="26.597477">Learn WebGPU</tspan></text><path
         style="fill:none;stroke:#272725;stroke-width:0.095;stroke-dasharray:none;stroke-opacity:1"
         d="m 55.808127,41.662889 0.865749,0.247357 v 0.904956 l -0.865749,-0.247357 z"
         id="path27191"
         sodipodi:nodetypes="ccccc" /><path
         style="fill:none;stroke:#272725;stroke-width:0.095;stroke-dasharray:none;stroke-opacity:1"
         d="m 60.016098,42.806717 0.836512,1.117886"
         id="path27193" /><path
         style="fill:none;stroke:#272725;stroke-width:0.095;stroke-dasharray:none;stroke-opacity:1"
         d="m 60.845006,43.012042 -0.836515,0.684421"
         id="path27195" /><image
         width="169.8625"
         height="135.46666"
         preserveAspectRatio="none"
         xlink:href="loaded-webgpu-logo-transform-issue.png"
         id="image23443"
         x="0"
         y="0"
         clip-path="url(#clipPath36213)"
         transform="matrix(0.34366344,0.09206479,0,0.3709419,4.2386404,26.834698)" /></g><path
       style="fill:none;stroke:#272725;stroke-width:0.0946148;stroke-dasharray:none;stroke-opacity:1"
       d="M 4.3040408,21.609488 62.614171,37.230324"
       id="path23876"
       sodipodi:nodetypes="cc" /><g
       aria-label="y = -1"
       id="text33176"
       style="font-style:italic;font-size:4.11006px;line-height:1.25;font-family:'Charter ITC TT';-inkscape-font-specification:'Charter ITC TT Italic';letter-spacing:0px;word-spacing:0px;fill:#28a106;stroke-width:0.214313"
       transform="translate(22.530708,40.089178)"><path
         d="M 7.8949741,42.124813 7.685361,42.248115 q -0.1931728,0.226053 -0.4685468,0.830232 -0.3616853,0.785021 -0.6288392,1.154927 -0.4151161,0.571298 -0.8055718,0.571298 -0.1397421,0 -0.2383835,-0.0822 -0.1027515,-0.07809 -0.1027515,-0.189063 0,-0.180842 0.2219432,-0.226053 L 5.905705,44.549749 Q 6.25095,44.525088 6.6126353,43.846928 L 6.3578116,42.59747 Q 6.3043808,42.326206 6.1934092,42.170024 l -0.3493551,-0.02877 v -0.09042 L 6.24684,41.91931 q 0.02055,-0.0041 0.053431,-0.0041 0.1602923,0 0.2383834,0.172622 0.041101,0.08631 0.061651,0.176733 0.02877,0.119192 0.1109716,0.534308 l 0.135632,0.6946 Q 7.1510532,42.733102 7.4921882,41.93164 h 0.078091 l 0.3246947,0.106862 z"
         id="path38100" /><path
         d="M 11.610469,42.424847 H 9.2060833 v -0.238383 h 2.4043857 z m 0,0.764472 H 9.2060833 v -0.238384 h 2.4043857 z"
         id="path38102" /><path
         d="m 14.068284,42.786533 -0.05343,0.275374 H 13.0942 l 0.05343,-0.275374 z"
         id="path38104" /><path
         d="m 15.971242,41.105518 -0.513757,2.556458 0.0411,0.06165 0.369905,0.02055 v 0.168512 h -1.282339 v -0.176732 l 0.447997,-0.02055 0.06987,-0.07398 0.431556,-2.133121 -0.04932,-0.0411 -0.620619,0.07809 v -0.164403 l 1.002855,-0.275374 z"
         id="path38106" /></g><g
       aria-label="x = -1"
       id="text33180"
       style="font-style:italic;font-size:4.11006px;line-height:1.25;font-family:'Charter ITC TT';-inkscape-font-specification:'Charter ITC TT Italic';letter-spacing:0px;word-spacing:0px;fill:#da0e0e;stroke-width:0.214313"
       transform="translate(-22.530708,-40.213904)"><path
         d="m 30.327043,82.790823 q 0,0.143852 -0.201393,0.234274 l -0.176733,-0.160293 q -0.275374,0.07398 -0.550748,0.702821 0.119192,0.423336 0.180843,0.571298 0.09453,0.238383 0.275374,0.238383 0.09864,0 0.226053,-0.0411 v 0.127412 q -0.312365,0.119191 -0.468547,0.119191 -0.217833,0 -0.316475,-0.263043 -0.05343,-0.139742 -0.152072,-0.563079 -0.217833,0.447997 -0.402786,0.64117 -0.180842,0.193173 -0.382235,0.193173 -0.115082,0 -0.184953,-0.06165 -0.06987,-0.06165 -0.06987,-0.160293 0,-0.172622 0.201393,-0.209613 l 0.189063,0.176733 q 0.320584,-0.172623 0.571298,-0.768581 -0.160292,-0.571299 -0.312364,-0.715151 l -0.341135,-0.04521 v -0.09864 l 0.415116,-0.143852 q 0.02055,-0.0041 0.05343,-0.0041 0.152073,0 0.238384,0.184953 0.03699,0.0822 0.06165,0.164402 0.02466,0.0822 0.127412,0.480877 0.402786,-0.822012 0.785021,-0.822012 0.09864,0 0.164403,0.06576 0.06987,0.06165 0.06987,0.156182 z"
         id="path38070" /><path
         d="m 34.009652,83.066197 h -2.404385 v -0.238383 h 2.404385 z m 0,0.764471 h -2.404385 v -0.238383 h 2.404385 z"
         id="path38072" /><path
         d="m 36.467468,83.427883 -0.05343,0.275374 h -0.920654 l 0.05343,-0.275374 z"
         id="path38074" /><path
         d="m 38.370426,81.746868 -0.513757,2.556457 0.0411,0.06165 0.369906,0.02055 v 0.168512 h -1.282339 v -0.176733 l 0.447996,-0.02055 0.06987,-0.07398 0.431556,-2.133121 -0.04932,-0.0411 -0.620619,0.07809 v -0.164402 l 1.002855,-0.275374 z"
         id="path38076" /></g><path
       style="fill:none;stroke:#272725;stroke-width:0.0946148;stroke-linejoin:round;stroke-dasharray:none;stroke-opacity:1"
       d="M 62.567509,34.175327 4.2843758,18.561724 V 68.713841 L 62.567509,84.327444 Z"
       id="path24124"
       sodipodi:nodetypes="ccccc" /><g
       aria-label="x = 1"
       id="text37770"
       style="font-style:italic;font-size:4.11006px;line-height:1.25;font-family:'Charter ITC TT';-inkscape-font-specification:'Charter ITC TT Italic';letter-spacing:0px;word-spacing:0px;fill:#da0e0e;stroke-width:0.214313"
       transform="translate(43.280979,50.242293)"><path
         d="m 30.713311,14.743965 q 0,0.143852 -0.201393,0.234274 l -0.176732,-0.160293 q -0.275374,0.07398 -0.550748,0.702821 0.119191,0.423336 0.180842,0.571298 0.09453,0.238384 0.275374,0.238384 0.09864,0 0.226054,-0.0411 v 0.127412 q -0.312365,0.119192 -0.468547,0.119192 -0.217833,0 -0.316475,-0.263044 -0.05343,-0.139742 -0.152072,-0.563079 -0.217833,0.447997 -0.402786,0.64117 -0.180843,0.193173 -0.382236,0.193173 -0.115081,0 -0.184952,-0.06165 -0.06987,-0.06165 -0.06987,-0.160293 0,-0.172622 0.201393,-0.209613 l 0.189062,0.176733 q 0.320585,-0.172623 0.571299,-0.768581 -0.160293,-0.571299 -0.312365,-0.715151 l -0.341135,-0.04521 v -0.09864 l 0.415116,-0.143852 q 0.02055,-0.0041 0.05343,-0.0041 0.152072,0 0.238383,0.184953 0.03699,0.0822 0.06165,0.164402 0.02466,0.0822 0.127412,0.480877 0.402786,-0.822012 0.785022,-0.822012 0.09864,0 0.164402,0.06576 0.06987,0.06165 0.06987,0.156182 z"
         id="path38093" /><path
         d="m 34.395921,15.019339 h -2.404386 v -0.238383 h 2.404386 z m 0,0.764472 h -2.404386 v -0.238384 h 2.404386 z"
         id="path38095" /><path
         d="m 37.445585,13.70001 -0.513758,2.556457 0.0411,0.06165 0.369905,0.02055 v 0.168512 h -1.282338 v -0.176732 l 0.447996,-0.02055 0.06987,-0.07398 0.431556,-2.133121 -0.04932,-0.0411 -0.620619,0.07809 v -0.164402 l 1.002854,-0.275374 z"
         id="path38097" /></g><text
       xml:space="preserve"
       style="font-style:italic;font-variant:normal;font-weight:normal;font-stretch:normal;font-size:4.11006px;line-height:1.25;font-family:'Charter ITC TT';-inkscape-font-specification:'Charter ITC TT Italic';letter-spacing:0px;word-spacing:0px;fill:#095ddf;fill-opacity:1;stroke:none;stroke-width:0.214313"
       x="138.17162"
       y="60.011959"
       id="text38046"><tspan
         sodipodi:role="line"
         id="tspan38044"
         style="font-style:italic;font-variant:normal;font-weight:normal;font-stretch:normal;font-family:'Charter ITC TT';-inkscape-font-specification:'Charter ITC TT Italic';fill:#095ddf;fill-opacity:1;stroke-width:0.214313"
         x="138.17162"
         y="60.011959">z = 0</tspan></text><text
       xml:space="preserve"
       style="font-style:italic;font-variant:normal;font-weight:normal;font-stretch:normal;font-size:4.11006px;line-height:1.25;font-family:'Charter ITC TT';-inkscape-font-specification:'Charter ITC TT Italic';letter-spacing:0px;word-spacing:0px;fill:#095ddf;fill-opacity:1;stroke:none;stroke-width:0.214313"
       x="187.2392"
       y="25.477461"
       id="text38050"><tspan
         sodipodi:role="line"
         id="tspan38048"
         style="font-style:italic;font-variant:normal;font-weight:normal;font-stretch:normal;font-family:'Charter ITC TT';-inkscape-font-specification:'Charter ITC TT Italic';fill:#095ddf;fill-opacity:1;stroke-width:0.214313"
         x="187.2392"
         y="25.477461">z = 1</tspan></text><text
       xml:space="preserve"
       style="font-style:italic;font-variant:normal;font-weight:normal;font-stretch:normal;font-size:4.11006px;line-height:1.25;font-family:'Charter ITC TT';-inkscape-font-specification:'Charter ITC TT Italic';letter-spacing:0px;word-spacing:0px;fill:#28a106;fill-opacity:1;stroke:none;stroke-width:0.214313"
       x="188.28572"
       y="66.322029"
       id="text38054"><tspan
         sodipodi:role="line"
         id="tspan38052"
         style="font-style:italic;font-variant:normal;font-weight:normal;font-stretch:normal;font-family:'Charter ITC TT';-inkscape-font-specification:'Charter ITC TT Italic';fill:#28a106;fill-opacity:1;stroke-width:0.214313"
         x="188.28572"
         y="66.322029">y = 1</tspan></text><text
       xml:space="preserve"
       style="font-style:italic;font-variant:normal;font-weight:normal;font-stretch:normal;font-size:4.11006px;line-height:1.25;font-family:'Charter ITC TT';-inkscape-font-specification:'Charter ITC TT Italic';letter-spacing:0px;word-spacing:0px;fill:#28a106;fill-opacity:1;stroke:none;stroke-width:0.214313"
       x="122.08777"
       y="43.912689"
       id="text38058"><tspan
         sodipodi:role="line"
         id="tspan38056"
         style="font-style:italic;font-variant:normal;font-weight:normal;font-stretch:normal;font-family:'Charter ITC TT';-inkscape-font-specification:'Charter ITC TT Italic';fill:#28a106;fill-opacity:1;stroke-width:0.214313"
         x="122.08777"
         y="43.912689">y = -1</tspan></text><text
       xml:space="preserve"
       style="font-style:italic;font-variant:normal;font-weight:normal;font-stretch:normal;font-size:4.11006px;line-height:1.25;font-family:'Charter ITC TT';-inkscape-font-specification:'Charter ITC TT Italic';letter-spacing:0px;word-spacing:0px;fill:#da0e0e;fill-opacity:1;stroke:none;stroke-width:0.214313"
       x="144.47873"
       y="84.554039"
       id="text38062"><tspan
         sodipodi:role="line"
         id="tspan38060"
         style="font-style:italic;font-variant:normal;font-weight:normal;font-stretch:normal;font-family:'Charter ITC TT';-inkscape-font-specification:'Charter ITC TT Italic';fill:#da0e0e;fill-opacity:1;stroke-width:0.214313"
         x="144.47873"
         y="84.554039">x = -1</tspan></text><path
       style="fill:none;stroke:#272725;stroke-width:0.0946148;stroke-linejoin:round;stroke-dasharray:none;stroke-opacity:1"
       d="M 178.74957,34.175327 120.46644,18.561724 v 50.152117 l 58.28313,15.613603 z"
       id="path38064"
       sodipodi:nodetypes="ccccc" /><text
       xml:space="preserve"
       style="font-style:italic;font-variant:normal;font-weight:normal;font-stretch:normal;font-size:4.11006px;line-height:1.25;font-family:'Charter ITC TT';-inkscape-font-specification:'Charter ITC TT Italic';letter-spacing:0px;word-spacing:0px;fill:#da0e0e;fill-opacity:1;stroke:none;stroke-width:0.214313"
       x="144.86501"
       y="16.507181"
       id="text38068"><tspan
         sodipodi:role="line"
         id="tspan38066"
         style="font-style:italic;font-variant:normal;font-weight:normal;font-stretch:normal;font-family:'Charter ITC TT';-inkscape-font-specification:'Charter ITC TT Italic';fill:#da0e0e;fill-opacity:1;stroke-width:0.214313"
         x="144.86501"
         y="16.507181">x = 1</tspan></text></g></svg>
