<?xml version="1.0" encoding="UTF-8"?>
<!-- Created with Inkscape (http://www.inkscape.org/) -->
<svg width="93.678mm" height="96.017mm" version="1.1" viewBox="0 0 93.678 96.017" xmlns="http://www.w3.org/2000/svg">
 <g transform="translate(-36.136 -62.979)">
  <rect transform="rotate(90)" x="136.71" y="-40.959" width="3.3554" height=".77433" fill="#e53e3e" fill-opacity=".49"/>
  <path d="m59.166 140.07h-18.982" fill="none" stroke="#7f2d2d" stroke-width=".2"/>
  <path d="m59.166 136.71h-18.982" fill="none" stroke="#7f2d2d" stroke-width=".2"/>
  <rect x="54.54" y="153.63" width="3.3554" height=".77433" fill="#cfcfcf" fill-opacity=".48628"/>
  <rect transform="rotate(90)" x="105.97" y="-41.733" width="5.0019" height=".77433" fill="#3ee59f" fill-opacity=".49"/>
  <g fill="none">
   <g stroke-width=".2">
    <path d="m59.166 110.97h-18.208" stroke="#2d7f5d"/>
    <path d="m59.166 105.97h-18.208" stroke="#2d7f5d"/>
    <path d="m54.54 154.4v-51.895" stroke="#747474"/>
    <path d="m57.895 154.4v-51.895" stroke="#747474"/>
   </g>
   <path d="m39.577 72.494h82.476v76.205m0 4.4716v2.0188" stroke="#cfcfcf" stroke-opacity=".48463" stroke-width=".3"/>
  </g>
  <g fill="#fff" stroke-width=".26458" aria-label="i">
   <path d="m129.26 149.2q0 0.11163-0.0812 0.19282-0.0812 0.0761-0.19789 0.0761-0.11163 0-0.19282-0.0761-0.0761-0.0812-0.0761-0.19282 0-0.11671 0.0761-0.19789 0.0812-0.0812 0.1979-0.0812 0.11163 0 0.19281 0.0863 0.0812 0.0812 0.0812 0.19282zm-5e-3 3.151q-0.43637 0.1776-0.71545 0.1776-0.32474 0-0.32474-0.33997 0-0.10656 0.0304-0.25878l0.29938-1.5121-0.41101-0.0761v-0.12685l0.75097-0.16745h0.13193l-0.36534 1.8977q-0.0152 0.0812-0.0152 0.12685 0 0.19789 0.23341 0.19789 0.13193 0 0.38563-0.0761z"/>
  </g>
  <g fill="#fff" stroke-width=".26458" aria-label="index">
   <path d="m117.08 149.74q0 0.1016-0.072 0.17357-0.0677 0.0677-0.17356 0.0677-0.1016 0-0.17357-0.0677-0.0677-0.072-0.0677-0.17357 0-0.1016 0.072-0.17356 0.072-0.072 0.17357-0.072 0.0974 0 0.16933 0.072 0.072 0.072 0.072 0.17356zm0.20743 2.7517h-0.95673v-0.1524l0.2286-0.0212 0.072-0.0677v-1.5325h-0.30057v-0.13123l0.49107-0.1524h0.1651v1.8161l0.072 0.0677 0.2286 0.0212z"/>
   <path d="m119.7 152.49h-0.9271v-0.1524l0.2032-0.0212 0.072-0.0677v-1.1218q0-0.43179-0.40216-0.43179-0.21167 0-0.49954 0.13546v1.4182l0.072 0.0677 0.2032 0.0212v0.1524h-0.9271v-0.1524l0.2286-0.0212 0.072-0.0677v-1.5325h-0.30057v-0.13123l0.49107-0.1524h0.16086v0.23283q0.46567-0.24976 0.70274-0.24976 0.26246 0 0.4064 0.16933 0.14393 0.1651 0.14393 0.4699v1.1938l0.072 0.0677 0.2286 0.0212z"/>
   <path d="m122.03 152.49h-0.62653v-0.22014q-0.33867 0.25824-0.6477 0.25824-0.35984 0-0.59267-0.27517-0.2286-0.2794-0.2286-0.71543 0-0.49954 0.3048-0.80857 0.3048-0.31326 0.79163-0.31326 0.1524 0 0.37254 0.0381v-0.79587h-0.32597v-0.13123l0.51647-0.1524h0.16086v2.8744l0.072 0.0677 0.2032 0.0212zm-0.62653-0.37677v-1.452q-0.254-0.0593-0.37254-0.0593-0.32596 0-0.52493 0.23707-0.19897 0.23706-0.19897 0.62653 0 0.36407 0.16934 0.57997 0.17356 0.2159 0.46143 0.2159 0.2032 0 0.46567-0.14817z"/>
   <path d="m124.07 152.28q-0.39793 0.254-0.7874 0.254-0.42756 0-0.69003-0.28787t-0.26247-0.7493q0-0.47413 0.27517-0.7747 0.27517-0.30056 0.70273-0.30056 0.35137 0 0.55457 0.22013 0.20743 0.22013 0.20743 0.60113 0 0.0762-4e-3 0.1397h-1.3716q0 0.24977 0.0508 0.41487 0.1524 0.4953 0.65617 0.4953 0.28363 0 0.66886-0.24554zm-0.37676-1.0753q0-0.2667-0.0593-0.381-0.1143-0.2159-0.37253-0.2159-0.22437 0-0.3683 0.15664-0.14394 0.15663-0.1778 0.44026z"/>
   <path d="m126.39 152.49h-0.9017v-0.15664l0.1778-0.0296 0.0212-0.0339-0.3937-0.63076-0.4318 0.61383 0.0212 0.0508 0.2413 0.0296v0.15664h-0.8001v-0.15664l0.2413-0.0339 0.6096-0.81704-0.56727-0.82549-0.25823-0.0508v-0.1524h0.91016v0.1524l-0.19473 0.0296-0.0212 0.0423 0.3556 0.55457 0.38523-0.54187-0.0339-0.055-0.2032-0.0296v-0.1524h0.762v0.1524l-0.23707 0.0466-0.5588 0.74083 0.6223 0.90594 0.254 0.0339z"/>
  </g>
  <path d="m37.141 155.13h89.188" color="#000000" fill="#646464" stroke-width=".52917" style="-inkscape-stroke:none"/>
  <path d="m37.141 154.87v0.5293h89.188v-0.5293z" color="#000000" fill="#cfcfcf" style="-inkscape-stroke:none"/>
  <path d="m125.06 153.36-0.37305 0.37305 1.3984 1.4004-1.3984 1.4004 0.37305 0.375 1.7754-1.7754z" color="#000000" fill="#cfcfcf" style="-inkscape-stroke:none"/>
  <path d="m39.453 157.46v-89.188" color="#000000" fill="#646464" stroke-width=".52917" style="-inkscape-stroke:none"/>
  <path d="m39.189 68.277v89.187h0.5293v-89.187z" color="#000000" fill="#cfcfcf" style="-inkscape-stroke:none"/>
  <path d="m39.453 67.771-1.7754 1.7734 0.375 0.375 1.4004-1.4004 1.4004 1.4004 0.375-0.375z" color="#000000" fill="#cfcfcf" style="-inkscape-stroke:none"/>
  <g fill="#fff" stroke-width=".26458" aria-label="x">
   <path d="m60.706 64.788q0 0.1776-0.24863 0.28923l-0.21819-0.19789q-0.33997 0.09134-0.67994 0.86768 0.14715 0.52264 0.22326 0.70531 0.1167 0.2943 0.33997 0.2943 0.12178 0 0.27908-0.05074v0.1573q-0.38564 0.14715-0.57845 0.14715-0.26893 0-0.39071-0.32474-0.06596-0.17252-0.18774-0.69516-0.26893 0.55308-0.49727 0.79157-0.22326 0.23848-0.4719 0.23848-0.14208 0-0.22834-0.07611t-0.08626-0.19789q0-0.21311 0.24863-0.25878l0.23341 0.21819q0.39578-0.21311 0.7053-0.94886-0.19789-0.7053-0.38564-0.8829l-0.42115-0.05582v-0.12178l0.51249-0.1776q0.02537-0.0051 0.06596-0.0051 0.18774 0 0.2943 0.22834 0.04567 0.10148 0.07611 0.20297t0.1573 0.59367q0.49727-1.0148 0.96916-1.0148 0.12178 0 0.20297 0.08119 0.08626 0.07611 0.08626 0.19282z"/>
  </g>
  <g fill="#fff" stroke-width=".26458" aria-label="intensity">
   <path d="m41.756 64.214q0 0.1016-0.07197 0.17357-0.06773 0.06773-0.17357 0.06773-0.1016 0-0.17357-0.06773-0.06773-0.07197-0.06773-0.17357 0-0.1016 0.07197-0.17357 0.07197-0.07197 0.17357-0.07197 0.09737 0 0.16933 0.07197 0.07197 0.07197 0.07197 0.17357zm0.20743 2.7517h-0.95673v-0.1524l0.2286-0.02117 0.07197-0.06773v-1.5325h-0.30057v-0.13123l0.49107-0.1524h0.1651v1.8161l0.07197 0.06773 0.2286 0.02117z"/>
   <path d="m44.381 66.965h-0.9271v-0.1524l0.2032-0.02117 0.07197-0.06773v-1.1218q0-0.4318-0.40217-0.4318-0.21167 0-0.49953 0.13547v1.4182l0.07197 0.06773 0.2032 0.02117v0.1524h-0.9271v-0.1524l0.2286-0.02117 0.07197-0.06773v-1.5325h-0.30057v-0.13123l0.49107-0.1524h0.16087v0.23283q0.46567-0.24977 0.70273-0.24977 0.26247 0 0.4064 0.16933 0.14393 0.1651 0.14393 0.4699v1.1938l0.07197 0.06773 0.2286 0.02117z"/>
   <path d="m45.82 66.885q-0.30903 0.09313-0.56303 0.09313-0.2413 0-0.33867-0.09313-0.09313-0.09313-0.09313-0.33443v-1.3674h-0.2667v-0.13123l0.2794-0.12277 0.18203-0.3937h0.15663v0.44873h0.64347v0.19897h-0.64347v1.1176q0 0.2667 0.07197 0.36407 0.07197 0.09737 0.27093 0.09737 0.16087 0 0.30057-0.03387z"/>
   <path d="m47.721 66.749q-0.39793 0.254-0.7874 0.254-0.42757 0-0.69003-0.28787-0.26247-0.28787-0.26247-0.7493 0-0.47413 0.27517-0.7747 0.27517-0.30057 0.70273-0.30057 0.35137 0 0.55457 0.22013 0.20743 0.22013 0.20743 0.60113 0 0.0762-0.0042 0.1397h-1.3716q0 0.24977 0.0508 0.41487 0.1524 0.4953 0.65617 0.4953 0.28363 0 0.66887-0.24553zm-0.37677-1.0753q0-0.2667-0.05927-0.381-0.1143-0.2159-0.37253-0.2159-0.22437 0-0.3683 0.15663-0.14393 0.15663-0.1778 0.44027z"/>
   <path d="m50.236 66.965h-0.9271v-0.1524l0.2032-0.02117 0.07197-0.06773v-1.1218q0-0.4318-0.40217-0.4318-0.21167 0-0.49953 0.13547v1.4182l0.07197 0.06773 0.2032 0.02117v0.1524h-0.9271v-0.1524l0.2286-0.02117 0.07197-0.06773v-1.5325h-0.30057v-0.13123l0.49107-0.1524h0.16087v0.23283q0.46567-0.24977 0.70273-0.24977 0.26247 0 0.4064 0.16933 0.14393 0.1651 0.14393 0.4699v1.1938l0.07197 0.06773 0.2286 0.02117z"/>
   <path d="m51.828 66.368q0 0.30057-0.21167 0.4699-0.21167 0.1651-0.5842 0.1651-0.28363 0-0.5461-0.0889v-0.55033h0.2032l0.0508 0.35983q0.18203 0.09313 0.37253 0.09313 0.17357 0 0.2794-0.09313 0.10583-0.09313 0.10583-0.24553 0-0.16087-0.12277-0.254-0.07197-0.05503-0.30903-0.1651-0.32597-0.1524-0.43603-0.27093-0.11007-0.11853-0.11007-0.3175 0-0.27093 0.19897-0.42333 0.19897-0.15663 0.55033-0.15663 0.25823 0 0.4953 0.0889v0.47837h-0.20743l-0.03387-0.30057q-0.1651-0.08043-0.32173-0.08043-0.3429 0-0.3429 0.2921 0 0.127 0.08043 0.2159 0.08467 0.08467 0.30057 0.18203 0.34713 0.15663 0.45297 0.25823 0.13547 0.127 0.13547 0.3429z"/>
   <path d="m52.894 64.214q0 0.1016-0.07197 0.17357-0.06773 0.06773-0.17357 0.06773-0.1016 0-0.17357-0.06773-0.06773-0.07197-0.06773-0.17357 0-0.1016 0.07197-0.17357 0.07197-0.07197 0.17357-0.07197 0.09737 0 0.16933 0.07197 0.07197 0.07197 0.07197 0.17357zm0.20743 2.7517h-0.95673v-0.1524l0.2286-0.02117 0.07197-0.06773v-1.5325h-0.30057v-0.13123l0.49107-0.1524h0.1651v1.8161l0.07197 0.06773 0.2286 0.02117z"/>
   <path d="m54.554 66.885q-0.30903 0.09313-0.56303 0.09313-0.2413 0-0.33867-0.09313-0.09313-0.09313-0.09313-0.33443v-1.3674h-0.2667v-0.13123l0.2794-0.12277 0.18203-0.3937h0.15663v0.44873h0.64347v0.19897h-0.64347v1.1176q0 0.2667 0.07197 0.36407 0.07197 0.09737 0.27093 0.09737 0.16087 0 0.30057-0.03387z"/>
   <path d="m56.768 65.081-0.24553 0.0381-0.84667 2.0574q-0.2921 0.7112-0.67733 0.7112-0.13123 0-0.21167-0.06773-0.08043-0.0635-0.08043-0.16933 0-0.11853 0.11007-0.2286l0.4064 0.16087q0.18627-0.21167 0.3429-0.635l-0.7112-1.8373-0.25823-0.02963v-0.1524h0.91863v0.1524l-0.22437 0.02117-0.0508 0.06773 0.508 1.3166 0.52917-1.3166-0.03387-0.06773-0.2286-0.02117v-0.1524h0.75353z"/>
  </g>
  <path d="m39.462 155.09 82.591-82.591" fill="none" stroke="#e53e3e" stroke-width=".4"/>
  <rect transform="rotate(90)" x="144.45" y="-40.959" width="3.3554" height=".77433" fill="#e53e3e" fill-opacity=".49"/>
  <path d="m39.462 155.09c9.2591-52.592 32.485-74.493 82.591-82.591" fill="none" stroke="#3ee59f" stroke-width=".4"/>
  <rect x="39.149" y="154.83" width=".6079" height=".6079" fill="#b2b2b2"/>
  <rect x="121.75" y="72.19" width=".6079" height=".6079" fill="#b2b2b2"/>
  <g fill="#cfcfcf" fill-opacity=".48628">
   <rect x="70.027" y="153.63" width="3.3554" height=".77433"/>
   <rect x="73.898" y="153.63" width="3.3554" height=".77433"/>
   <rect x="77.77" y="153.63" width="3.3554" height=".77433"/>
   <rect x="62.283" y="153.63" width="3.3554" height=".77433"/>
   <rect x="66.155" y="153.63" width="3.3554" height=".77433"/>
   <rect x="58.412" y="153.63" width="3.3554" height=".77433"/>
   <rect x="46.797" y="153.63" width="3.3554" height=".77433"/>
   <rect x="50.668" y="153.63" width="3.3554" height=".77433"/>
  </g>
  <g fill="#e53e3e" fill-opacity=".49">
   <rect transform="rotate(90)" x="140.58" y="-40.959" width="3.3554" height=".77433"/>
   <rect transform="rotate(90)" x="128.97" y="-40.959" width="3.3554" height=".77433"/>
   <rect transform="rotate(90)" x="132.84" y="-40.959" width="3.3554" height=".77433"/>
   <rect transform="rotate(90)" x="121.22" y="-40.959" width="3.3554" height=".77433"/>
   <rect transform="rotate(90)" x="125.1" y="-40.959" width="3.3554" height=".77433"/>
   <rect transform="rotate(90)" x="113.48" y="-40.959" width="3.3554" height=".77433"/>
   <rect transform="rotate(90)" x="117.35" y="-40.959" width="3.3554" height=".77433"/>
  </g>
  <g fill="#3ee59f">
   <g fill-opacity=".49">
    <rect transform="rotate(90)" x="111.79" y="-41.733" width="6.2643" height=".77433"/>
    <rect transform="rotate(90)" x="119.13" y="-41.733" width="7.9154" height=".77433"/>
    <rect transform="rotate(90)" x="101.03" y="-41.733" width="4.1978" height=".77433"/>
    <rect transform="rotate(90)" x="96.919" y="-41.733" width="3.5134" height=".77433"/>
    <rect transform="rotate(90)" x="93.406" y="-41.733" width="3.0114" height=".77433"/>
    <rect transform="rotate(90)" x="90.373" y="-41.733" width="2.5919" height=".77433"/>
    <rect transform="rotate(90)" x="87.733" y="-41.733" width="2.2477" height=".77433"/>
    <rect transform="rotate(90)" x="85.425" y="-41.733" width="1.9789" height=".77433"/>
   </g>
   <g stroke-width=".26458" aria-label="sRGB">
    <path d="m73.705 82.175q0 0.30057-0.21167 0.4699-0.21167 0.1651-0.5842 0.1651-0.28363 0-0.5461-0.0889v-0.55033h0.2032l0.0508 0.35983q0.18203 0.09313 0.37253 0.09313 0.17357 0 0.2794-0.09313 0.10583-0.09313 0.10583-0.24553 0-0.16087-0.12277-0.254-0.07197-0.05503-0.30903-0.1651-0.32597-0.1524-0.43603-0.27093-0.11007-0.11853-0.11007-0.3175 0-0.27093 0.19897-0.42333 0.19897-0.15663 0.55033-0.15663 0.25823 0 0.4953 0.0889v0.47837h-0.20743l-0.03387-0.30057q-0.1651-0.08043-0.32173-0.08043-0.3429 0-0.3429 0.2921 0 0.127 0.08043 0.2159 0.08467 0.08467 0.30057 0.18203 0.34713 0.15663 0.45297 0.25823 0.13547 0.127 0.13547 0.3429z"/>
    <path d="m76.656 82.768q-0.2159 0.0381-0.33443 0.0381-0.30057 0-0.44027-0.13123-0.13547-0.13123-0.23283-0.508-0.09737-0.37677-0.2159-0.50377-0.14817-0.16087-0.4953-0.16087-0.08043 0-0.22437 0.0085v1.0075l0.07197 0.05927 0.2413 0.02117v0.17357h-1.0075v-0.17357l0.2413-0.02117 0.07197-0.05927v-2.3326l-0.07197-0.05927-0.2413-0.02117v-0.17357h1.0795q1.0202 0 1.0202 0.74083 0 0.2921-0.1651 0.46567-0.16087 0.16933-0.5207 0.25823 0.2667 0.07197 0.381 0.21167 0.11853 0.13547 0.18627 0.45297 0.0762 0.34713 0.19473 0.44873 0.12277 0.1016 0.46143 0.09737zm-0.96097-2.0489q0-0.31327-0.18627-0.45297-0.18203-0.1397-0.59267-0.1397h-0.2032v1.1811q0.14393 0.0085 0.24977 0.0085 0.73237 0 0.73237-0.5969z"/>
    <path d="m79.285 81.583-0.23283 0.02117-0.07197 0.05927v1.0118q-0.52493 0.14817-0.8763 0.14817-0.6477 0-1.0541-0.42333t-0.4064-1.071q0-0.65617 0.41487-1.0499 0.41487-0.39793 1.1049-0.39793 0.3556 0 0.8128 0.12277v0.6731h-0.23707l-0.0635-0.38523-0.05927-0.0762q-0.24977-0.11007-0.48683-0.11007-0.49107 0-0.77047 0.32597-0.2794 0.32597-0.2794 0.89323 0 0.59267 0.2921 0.93557 0.2921 0.33867 0.80433 0.33867 0.18203 0 0.42333-0.05503v-0.88053l-0.07197-0.05927-0.30057-0.02117v-0.17357h1.0583z"/>
    <path d="m81.765 81.96q0 0.38947-0.2921 0.60113-0.28787 0.21167-0.81703 0.21167h-1.1176v-0.17357l0.2413-0.02117 0.07197-0.05927v-2.3326l-0.07197-0.05927-0.2413-0.02117v-0.17357h1.0795q0.96943 0 0.96943 0.66887 0 0.25823-0.14393 0.41063-0.1397 0.1524-0.4699 0.254 0.79163 0.02963 0.79163 0.69427zm-0.5969-1.3166q0-0.52493-0.6477-0.52493-0.09313 0-0.28787 0.0127v1.088q0.11007 0.0042 0.16087 0.0042 0.7747 0 0.7747-0.57997zm0.1778 1.3293q0-0.56727-0.69003-0.56727-0.15663 0-0.42333 0.0254v1.1303q0.22013 0.0127 0.30057 0.0127 0.8128 0 0.8128-0.60113z"/>
   </g>
  </g>
  <g fill="#e53e3e" stroke-width=".26458" aria-label="Linear">
   <path d="m105.96 96.522h-2.0278v-0.17357l0.27093-0.02117 0.072-0.05927v-2.3326l-0.072-0.05927-0.27093-0.02117v-0.17357h1.0329v0.17357l-0.2413 0.02117-0.0677 0.05927v2.3918h0.9525l0.0593-0.06773 0.072-0.508h0.22013z"/>
   <path d="m106.92 93.77q0 0.1016-0.072 0.17357-0.0677 0.06773-0.17356 0.06773-0.1016 0-0.17357-0.06773-0.0677-0.07197-0.0677-0.17357 0-0.1016 0.072-0.17357 0.072-0.07197 0.17357-0.07197 0.0974 0 0.16933 0.07197 0.072 0.07197 0.072 0.17357zm0.20743 2.7517h-0.95673v-0.1524l0.2286-0.02117 0.072-0.06773v-1.5325h-0.30057v-0.13123l0.49107-0.1524h0.1651v1.8161l0.072 0.06773 0.2286 0.02117z"/>
   <path d="m109.54 96.522h-0.9271v-0.1524l0.2032-0.02117 0.072-0.06773v-1.1218q0-0.4318-0.40216-0.4318-0.21167 0-0.49954 0.13547v1.4182l0.072 0.06773 0.2032 0.02117v0.1524h-0.9271v-0.1524l0.2286-0.02117 0.072-0.06773v-1.5325h-0.30057v-0.13123l0.49107-0.1524h0.16086v0.23283q0.46567-0.24977 0.70274-0.24977 0.26246 0 0.4064 0.16933 0.14393 0.1651 0.14393 0.4699v1.1938l0.072 0.06773 0.2286 0.02117z"/>
   <path d="m111.51 96.306q-0.39793 0.254-0.7874 0.254-0.42757 0-0.69003-0.28787-0.26247-0.28787-0.26247-0.7493 0-0.47413 0.27517-0.7747 0.27516-0.30057 0.70273-0.30057 0.35137 0 0.55457 0.22013 0.20743 0.22013 0.20743 0.60113 0 0.0762-4e-3 0.1397h-1.3716q0 0.24977 0.0508 0.41487 0.1524 0.4953 0.65616 0.4953 0.28364 0 0.66887-0.24553zm-0.37677-1.0753q0-0.2667-0.0593-0.381-0.1143-0.2159-0.37254-0.2159-0.22436 0-0.3683 0.15663-0.14393 0.15663-0.1778 0.44027z"/>
   <path d="m113.75 96.522h-0.59267l-0.055-0.24553q-0.4191 0.27517-0.6985 0.27517-0.2413 0-0.38947-0.14817-0.14816-0.1524-0.14816-0.38947 0-0.3683 0.42333-0.53763 0.23707-0.09313 0.8128-0.23707v-0.13547q0-0.25823-0.0847-0.36407-0.0847-0.10583-0.29633-0.10583-0.1524 0-0.3302 0.0635v0.3556h-0.2921q-0.13123 0-0.13123-0.12277 0-0.21167 0.23706-0.34713 0.23707-0.13547 0.6096-0.13547 0.33444 0 0.48684 0.14393t0.1524 0.46143v1.2277l0.072 0.06773 0.22437 0.02117zm-0.6477-0.38947v-0.74507q-0.41487 0.12277-0.5715 0.19473-0.2921 0.1397-0.2921 0.38947 0 0.16087 0.0889 0.25823 0.0931 0.09313 0.2413 0.09313 0.19473 0 0.5334-0.1905z"/>
   <path d="m115.42 94.862h-0.13547q-0.0889-0.1016-0.21166-0.1016-0.1905 0-0.46567 0.30903v1.2107l0.072 0.06773 0.29633 0.02117v0.1524h-1.0202v-0.1524l0.2286-0.02117 0.072-0.06773v-1.5325h-0.30056v-0.13123l0.49106-0.1524h0.16087v0.39793q0.19897-0.2032 0.45297-0.41063 0.0423-0.0085 0.1016-0.0085 0.11853 0 0.25823 0.05503z"/>
  </g>
 </g>
</svg>
