<?xml version="1.0" encoding="UTF-8" standalone="no"?>
<!-- Created with Inkscape (http://www.inkscape.org/) -->

<svg
   width="182.29633mm"
   height="91.974152mm"
   viewBox="0 0 136.72228 68.980632"
   version="1.1"
   id="svg45051"
   inkscape:version="1.2 (dc2aedaf03, 2022-05-15)"
   sodipodi:docname="ibl-coords.svg"
   xml:space="preserve"
   inkscape:export-filename="ibl-coords.png"
   inkscape:export-xdpi="178.34698"
   inkscape:export-ydpi="178.34698"
   xmlns:inkscape="http://www.inkscape.org/namespaces/inkscape"
   xmlns:sodipodi="http://sodipodi.sourceforge.net/DTD/sodipodi-0.dtd"
   xmlns:xlink="http://www.w3.org/1999/xlink"
   xmlns="http://www.w3.org/2000/svg"
   xmlns:svg="http://www.w3.org/2000/svg"><sodipodi:namedview
     id="namedview45053"
     pagecolor="#ffffff"
     bordercolor="#666666"
     borderopacity="1.0"
     inkscape:showpageshadow="2"
     inkscape:pageopacity="0"
     inkscape:pagecheckerboard="0"
     inkscape:deskcolor="#d1d1d1"
     inkscape:document-units="mm"
     showgrid="false"
     inkscape:zoom="1.087256"
     inkscape:cx="341.68586"
     inkscape:cy="166.47413"
     inkscape:window-width="1920"
     inkscape:window-height="1017"
     inkscape:window-x="-8"
     inkscape:window-y="-8"
     inkscape:window-maximized="1"
     inkscape:current-layer="layer1" /><defs
     id="defs45048"><clipPath
       clipPathUnits="userSpaceOnUse"
       id="clipPath36213"><path
         style="fill:#c8c8c8;fill-opacity:1;stroke:none;stroke-width:0.266075;stroke-linejoin:round;stroke-dasharray:none;stroke-opacity:1"
         d="m 1.6927527,1.5520898 v 4.7923118 l 5.3217695,2.779e-4 V 1.3011809 Z"
         id="path36215" /></clipPath><g
       id="id-33d38a86-213f-4216-83fe-e5d3aaf5a9a0-7">
      <g
   id="id-63081c7e-d8f8-4499-af6a-5584df8cef2c-8" />
      <g
   id="id-89c9330e-e3e8-40ee-a9c4-adcd40504994-4">
        <path
   d="m 2.578125,-6.8125 c 0,0 0,-0.109375 -0.140625,-0.109375 -0.21875,0 -0.953125,0.078125 -1.21875,0.109375 -0.078125,0 -0.1875,0.015625 -0.1875,0.203125 0,0.109375 0.109375,0.109375 0.25,0.109375 0.484375,0 0.5,0.09375 0.5,0.171875 L 1.75,-6.125 0.484375,-1.140625 C 0.453125,-1.03125 0.4375,-0.96875 0.4375,-0.8125 c 0,0.578125 0.4375,0.921875 0.90625,0.921875 0.328125,0 0.578125,-0.203125 0.75,-0.5625 0.171875,-0.375 0.296875,-0.953125 0.296875,-0.96875 0,-0.109375 -0.09375,-0.109375 -0.125,-0.109375 -0.09375,0 -0.109375,0.046875 -0.125,0.1875 C 1.96875,-0.703125 1.78125,-0.109375 1.375,-0.109375 c -0.296875,0 -0.296875,-0.3125 -0.296875,-0.453125 0,-0.25 0.015625,-0.296875 0.0625,-0.484375 z m 0,0"
   id="id-afb6c5ea-f609-4038-81a3-b442c04c5ccb-0" />
      </g>
    </g><g
       id="id-55b47f2a-5c53-4407-8cc8-4ebd0b246e83-4">
      <g
   id="id-22311807-f4f7-4eb3-8e47-32da44d9ab5c-0" />
      <g
   id="id-e0a4b2e1-1d49-41ac-8a2b-695fdf429c38-1">
        <path
   d="m 4.75,-2.359375 c 0,-1.5625 -0.921875,-2.046875 -1.65625,-2.046875 -1.375,0 -2.6875,1.421875 -2.6875,2.828125 0,0.9375 0.59375,1.6875 1.625,1.6875 0.625,0 1.34375,-0.234375 2.09375,-0.84375 0.125,0.53125 0.453125,0.84375 0.90625,0.84375 0.53125,0 0.84375,-0.546875 0.84375,-0.703125 0,-0.078125 -0.0625,-0.109375 -0.125,-0.109375 -0.0625,0 -0.09375,0.03125 -0.125,0.109375 -0.1875,0.484375 -0.546875,0.484375 -0.5625,0.484375 -0.3125,0 -0.3125,-0.78125 -0.3125,-1.015625 0,-0.203125 0,-0.234375 0.109375,-0.34375 C 5.796875,-2.65625 6,-3.8125 6,-3.8125 6,-3.84375 5.984375,-3.921875 5.875,-3.921875 c -0.09375,0 -0.09375,0.03125 -0.140625,0.21875 -0.1875,0.625 -0.515625,1.375 -0.984375,1.96875 z m -0.65625,1.375 c -0.890625,0.765625 -1.65625,0.875 -2.046875,0.875 -0.59375,0 -0.90625,-0.453125 -0.90625,-1.09375 0,-0.484375 0.265625,-1.5625 0.578125,-2.0625 C 2.1875,-4 2.734375,-4.1875 3.078125,-4.1875 c 0.984375,0 0.984375,1.3125 0.984375,2.078125 0,0.375 0,0.953125 0.03125,1.125 z m 0,0"
   id="id-91dcec1b-b5af-4567-bde2-8eff75e689b9-5" />
      </g>
    </g><clipPath
       clipPathUnits="userSpaceOnUse"
       id="clipPath54209"><circle
         style="fill:#099fe7;fill-opacity:1;stroke:#f48103;stroke-width:0.18225;stroke-linejoin:round;stroke-dasharray:none;stroke-opacity:1"
         id="circle54211"
         cx="276.76535"
         cy="24.27413"
         r="124.83839" /></clipPath><clipPath
       clipPathUnits="userSpaceOnUse"
       id="clipPath54213"><circle
         style="fill:#099fe7;fill-opacity:1;stroke:#f48103;stroke-width:0.18225;stroke-linejoin:round;stroke-dasharray:none;stroke-opacity:1"
         id="circle54215"
         cx="23.438324"
         cy="24.27413"
         r="124.83839" /></clipPath></defs><g
     inkscape:label="Layer 1"
     inkscape:groupmode="layer"
     id="layer1"
     transform="translate(-2.1901472,-2.737684)"><image
       width="508.00015"
       height="285.75009"
       preserveAspectRatio="none"
       xlink:href="envmap-blender.png"
       id="image53774"
       x="-222.97299"
       y="-125.17136"
       clip-path="url(#clipPath54213)"
       transform="matrix(0.27537226,0,0,0.27537226,29.768306,29.45523)" /><image
       width="508.00015"
       height="285.75009"
       preserveAspectRatio="none"
       xlink:href="envmap-blender-coords.png"
       id="image53786"
       x="25.685461"
       y="-125.17136"
       clip-path="url(#clipPath54209)"
       transform="matrix(0.27537226,0,0,0.27537226,29.768306,29.45523)" /><g
       id="g67836"><ellipse
         style="fill:#1f1d15;fill-opacity:1;stroke:none;stroke-width:0.33225;stroke-linejoin:round;stroke-dasharray:none;stroke-opacity:1"
         id="ellipse59436"
         cx="47.545498"
         cy="12.680642"
         rx="0.55655253"
         ry="0.28230926"
         transform="rotate(27.820747)" /><path
         style="fill:none;fill-opacity:1;stroke:#e31152;stroke-width:0.33225;stroke-linejoin:round;stroke-dasharray:none;stroke-opacity:1"
         d="M 28.005077,15.809318 36.200111,33.29636 55.106766,22.197574"
         id="path54271" /><ellipse
         style="fill:#1f1d15;fill-opacity:1;stroke:none;stroke-width:0.33225;stroke-linejoin:round;stroke-dasharray:none;stroke-opacity:1"
         id="path57702"
         cx="41.28355"
         cy="27.426453"
         rx="0.55655253"
         ry="0.28230926" /><ellipse
         style="fill:#e31152;fill-opacity:1;stroke:none;stroke-width:0.33225;stroke-linejoin:round;stroke-dasharray:none;stroke-opacity:1"
         id="path57702-5"
         cx="-18.771162"
         cy="-26.112495"
         rx="0.55655253"
         ry="0.28230926"
         transform="rotate(155.15618)" /><path
         style="fill:none;fill-opacity:1;stroke:#e31152;stroke-width:0.33225;stroke-linejoin:round;stroke-dasharray:none;stroke-opacity:1"
         d="M 18.611855,17.447343 41.29781,27.295272 55.106766,22.197574"
         id="path55137"
         sodipodi:nodetypes="ccc" /><path
         id="path69391"
         style="fill:none;fill-opacity:1;stroke:#ffffff;stroke-width:0.34029;stroke-linejoin:miter;stroke-dasharray:none;stroke-opacity:1"
         d="m 49.007032,21.298875 1.827446,5.344298"
         sodipodi:nodetypes="cc" /><path
         style="fill:none;fill-opacity:1;stroke:#ffffff;stroke-width:0.34029;stroke-linejoin:miter;stroke-dasharray:none;stroke-opacity:1"
         d="M 48.711104,20.433445 48.272018,19.149353"
         id="path69393"
         sodipodi:nodetypes="cc" /><path
         style="fill:#ffffff;fill-opacity:1;stroke:#ffffff;stroke-width:0.34029;stroke-linejoin:miter;stroke-dasharray:none;stroke-opacity:1"
         d="m 50.140299,24.613074 c 0.270282,-0.463332 0.425452,-0.91691 -0.439086,-1.284091"
         id="path69395"
         sodipodi:nodetypes="cc" /><path
         style="fill:none;fill-opacity:1;stroke:#ffffff;stroke-width:0.34029;stroke-linejoin:miter;stroke-dasharray:none;stroke-opacity:1"
         d="m 50.50366,27.043706 4.603105,-4.846138 -6.606614,-1.013051"
         id="path69397"
         sodipodi:nodetypes="ccc" /><ellipse
         style="fill:#e3e3e3;fill-opacity:1;stroke:none;stroke-width:0.0601088;stroke-linejoin:round"
         id="ellipse69401"
         cx="-44.960598"
         cy="38.833397"
         rx="0.79146969"
         ry="0.79138565"
         transform="matrix(-0.94621099,0.32355024,0.32355024,0.94621099,0,0)" /><path
         style="fill:none;fill-opacity:1;stroke:#1f1d15;stroke-width:0.10725;stroke-linejoin:round;stroke-dasharray:none;stroke-opacity:1"
         d="M 41.28355,27.164092 V 26.304579"
         id="path57758" /><path
         style="fill:none;fill-opacity:1;stroke:#1f1d15;stroke-width:0.10725;stroke-linejoin:round;stroke-dasharray:none;stroke-opacity:1"
         d="m 36.254115,33.149879 0.401141,-0.760164"
         id="path59438" /><ellipse
         style="fill:#e31152;fill-opacity:1;stroke:none;stroke-width:0.33225;stroke-linejoin:round;stroke-dasharray:none;stroke-opacity:1"
         id="path57702-5-4"
         cx="7.5413842"
         cy="-24.241945"
         rx="0.55655253"
         ry="0.28230926"
         transform="rotate(115.93548)" /></g><g
       id="g67864"
       transform="translate(68.484193)"><ellipse
         style="fill:#1f1d15;fill-opacity:1;stroke:none;stroke-width:0.33225;stroke-linejoin:round;stroke-dasharray:none;stroke-opacity:1"
         id="ellipse67838"
         cx="47.545498"
         cy="12.680642"
         rx="0.55655253"
         ry="0.28230926"
         transform="rotate(27.820747)" /><path
         style="fill:none;fill-opacity:1;stroke:#e31152;stroke-width:0.33225;stroke-linejoin:round;stroke-dasharray:none;stroke-opacity:1"
         d="M 28.005077,15.809318 36.200111,33.29636 55.106766,22.197574"
         id="path67840" /><ellipse
         style="fill:#1f1d15;fill-opacity:1;stroke:none;stroke-width:0.33225;stroke-linejoin:round;stroke-dasharray:none;stroke-opacity:1"
         id="ellipse67842"
         cx="41.28355"
         cy="27.426453"
         rx="0.55655253"
         ry="0.28230926" /><ellipse
         style="fill:#e31152;fill-opacity:1;stroke:none;stroke-width:0.33225;stroke-linejoin:round;stroke-dasharray:none;stroke-opacity:1"
         id="ellipse67844"
         cx="-18.771162"
         cy="-26.112495"
         rx="0.55655253"
         ry="0.28230926"
         transform="rotate(155.15618)" /><path
         style="fill:none;fill-opacity:1;stroke:#e31152;stroke-width:0.33225;stroke-linejoin:round;stroke-dasharray:none;stroke-opacity:1"
         d="M 18.611855,17.447343 41.29781,27.295272 55.106766,22.197574"
         id="path67846"
         sodipodi:nodetypes="ccc" /><path
         id="path67848"
         style="fill:none;fill-opacity:1;stroke:#ffffff;stroke-width:0.34029;stroke-linejoin:miter;stroke-dasharray:none;stroke-opacity:1"
         d="m 49.007032,21.298875 1.827446,5.344298"
         sodipodi:nodetypes="cc" /><path
         style="fill:none;fill-opacity:1;stroke:#ffffff;stroke-width:0.34029;stroke-linejoin:miter;stroke-dasharray:none;stroke-opacity:1"
         d="M 48.711104,20.433445 48.272018,19.149353"
         id="path67850"
         sodipodi:nodetypes="cc" /><path
         style="fill:#ffffff;fill-opacity:1;stroke:#ffffff;stroke-width:0.34029;stroke-linejoin:miter;stroke-dasharray:none;stroke-opacity:1"
         d="m 50.140299,24.613074 c 0.270282,-0.463332 0.425452,-0.91691 -0.439086,-1.284091"
         id="path67852"
         sodipodi:nodetypes="cc" /><path
         style="fill:none;fill-opacity:1;stroke:#ffffff;stroke-width:0.34029;stroke-linejoin:miter;stroke-dasharray:none;stroke-opacity:1"
         d="m 50.50366,27.043706 4.603105,-4.846138 -6.606614,-1.013051"
         id="path67854"
         sodipodi:nodetypes="ccc" /><ellipse
         style="fill:#e3e3e3;fill-opacity:1;stroke:none;stroke-width:0.0601088;stroke-linejoin:round"
         id="ellipse67856"
         cx="-44.960598"
         cy="38.833397"
         rx="0.79146969"
         ry="0.79138565"
         transform="matrix(-0.94621099,0.32355024,0.32355024,0.94621099,0,0)" /><path
         style="fill:none;fill-opacity:1;stroke:#1f1d15;stroke-width:0.10725;stroke-linejoin:round;stroke-dasharray:none;stroke-opacity:1"
         d="M 41.28355,27.164092 V 26.304579"
         id="path67858" /><path
         style="fill:none;fill-opacity:1;stroke:#1f1d15;stroke-width:0.10725;stroke-linejoin:round;stroke-dasharray:none;stroke-opacity:1"
         d="m 36.254115,33.149879 0.401141,-0.760164"
         id="path67860" /><ellipse
         style="fill:#e31152;fill-opacity:1;stroke:none;stroke-width:0.33225;stroke-linejoin:round;stroke-dasharray:none;stroke-opacity:1"
         id="ellipse67862"
         cx="7.5413842"
         cy="-24.241945"
         rx="0.55655253"
         ry="0.28230926"
         transform="rotate(115.93548)" /></g><rect
       style="fill:#1f1d15;fill-opacity:1;stroke:#1f1d15;stroke-width:0.0348297;stroke-linejoin:round;stroke-dasharray:none;stroke-opacity:1"
       id="rect67926"
       width="3.0154297"
       height="1.6003265"
       x="95.143936"
       y="13.595491" /><text
       xml:space="preserve"
       style="font-style:normal;font-variant:normal;font-weight:normal;font-stretch:normal;font-size:1.47004px;line-height:1.25;font-family:'Lucida Console';-inkscape-font-specification:'Lucida Console';letter-spacing:0px;word-spacing:0px;fill:#e31152;fill-opacity:1;stroke:none;stroke-width:0.0828795"
       x="96.612343"
       y="14.791731"
       id="text67870"
       transform="scale(1.0000531,0.9999469)"><tspan
         sodipodi:role="line"
         x="96.612343"
         y="14.791731"
         style="font-style:italic;font-variant:normal;font-weight:normal;font-stretch:normal;font-family:'Segoe UI';-inkscape-font-specification:'Segoe UI Italic';text-align:center;text-anchor:middle;fill:#e31152;fill-opacity:1;stroke-width:0.0828795"
         id="tspan67868">(u,v)</tspan></text><rect
       style="fill:#1f1d15;fill-opacity:1;stroke:#1f1d15;stroke-width:0.0348297;stroke-linejoin:round;stroke-dasharray:none;stroke-opacity:1"
       id="rect68066"
       width="3.0154297"
       height="1.6003265"
       x="85.630486"
       y="14.987147" /><text
       xml:space="preserve"
       style="font-style:normal;font-variant:normal;font-weight:normal;font-stretch:normal;font-size:1.47004px;line-height:1.25;font-family:'Lucida Console';-inkscape-font-specification:'Lucida Console';letter-spacing:0px;word-spacing:0px;fill:#e31152;fill-opacity:1;stroke:none;stroke-width:0.0828795"
       x="87.099396"
       y="16.18346"
       id="text68070"
       transform="scale(1.0000531,0.9999469)"><tspan
         sodipodi:role="line"
         x="87.099396"
         y="16.18346"
         style="font-style:italic;font-variant:normal;font-weight:normal;font-stretch:normal;font-family:'Segoe UI';-inkscape-font-specification:'Segoe UI Italic';text-align:center;text-anchor:middle;fill:#e31152;fill-opacity:1;stroke-width:0.0828795"
         id="tspan68068">(u,v)</tspan></text></g></svg>
