<?xml version="1.0" encoding="UTF-8" standalone="no"?>
<!-- Created with Inkscape (http://www.inkscape.org/) -->

<svg
   width="120mm"
   height="60mm"
   viewBox="0 0 120 60"
   version="1.1"
   id="svg5"
   sodipodi:docname="matrix-dark.svg"
   inkscape:version="1.2 (dc2aedaf03, 2022-05-15)"
   inkscape:export-filename="quad-dark.plain.svg"
   inkscape:export-xdpi="491.52"
   inkscape:export-ydpi="491.52"
   xmlns:inkscape="http://www.inkscape.org/namespaces/inkscape"
   xmlns:sodipodi="http://sodipodi.sourceforge.net/DTD/sodipodi-0.dtd"
   xmlns="http://www.w3.org/2000/svg"
   xmlns:svg="http://www.w3.org/2000/svg"
   xmlns:ns31="http://www.iki.fi/pav/software/textext/">
  <sodipodi:namedview
     id="namedview7"
     pagecolor="#1e1e1e"
     bordercolor="#666666"
     borderopacity="1.0"
     inkscape:showpageshadow="2"
     inkscape:pageopacity="0"
     inkscape:pagecheckerboard="0"
     inkscape:deskcolor="#d1d1d1"
     inkscape:document-units="mm"
     showgrid="false"
     inkscape:zoom="1.5376123"
     inkscape:cx="171.3696"
     inkscape:cy="120.31642"
     inkscape:window-width="1920"
     inkscape:window-height="1017"
     inkscape:window-x="-8"
     inkscape:window-y="-8"
     inkscape:window-maximized="1"
     inkscape:current-layer="layer1" />
  <defs
     id="defs2">
    <marker
       style="overflow:visible"
       id="Arrow1"
       refX="0"
       refY="0"
       orient="auto-start-reverse"
       inkscape:stockid="Arrow1"
       markerWidth="4.0606599"
       markerHeight="6.7071066"
       viewBox="0 0 4.0606602 6.7071068"
       inkscape:isstock="true"
       inkscape:collect="always"
       preserveAspectRatio="xMidYMid">
      <path
         style="fill:none;stroke:context-stroke;stroke-width:1;stroke-linecap:butt"
         d="M 3,-3 0,0 3,3"
         id="path5057"
         transform="rotate(180,0.125,0)"
         sodipodi:nodetypes="ccc" />
    </marker>
    <g
       id="id-81ff5b74-66e7-4420-8d50-6356ff65e3ea">
      <g
         id="id-47d9cf36-da6d-480b-a9b0-059b1fc40afa" />
      <g
         id="id-2b4423e7-3140-44b8-948c-17686ddd0153">
        <path
           d="M 3.734375,17.640625 C 3.953125,17.640625 4,17.640625 4,17.5 4.03125,10.515625 4.828125,4.71875 8.328125,-0.15625 c 0.0625,-0.09375 0.0625,-0.109375 0.0625,-0.140625 0,-0.09375 -0.0625,-0.09375 -0.21875,-0.09375 -0.171875,0 -0.1875,0 -0.203125,0.015625 -0.046875,0.03125 -1.3125,1.484375 -2.3125,3.5 -1.3125,2.625 -2.140625,5.640625 -2.515625,9.28125 -0.03125,0.296875 -0.234375,2.375 -0.234375,4.734375 v 0.390625 c 0,0.109375 0.0625,0.109375 0.28125,0.109375 z m 0,0"
           id="id-278a7c66-4ea2-4022-8b69-d8f6567c16a9" />
      </g>
      <g
         id="id-188db076-2ac8-4707-a3e2-a6ffba69d680">
        <path
           d="m 3.1875,-0.5 c -0.21875,0 -0.28125,0 -0.28125,0.109375 V 0 c 0,6.09375 1.078125,9.65625 1.390625,10.671875 C 4.96875,12.875 6.078125,15.21875 7.75,17.265625 7.890625,17.453125 7.9375,17.5 7.96875,17.515625 8,17.53125 8,17.53125 8.171875,17.53125 c 0.15625,0 0.21875,0 0.21875,-0.09375 0,-0.01563 0,-0.04687 -0.0625,-0.125 C 5.015625,12.703125 4.015625,7.15625 4,-0.359375 4,-0.5 3.953125,-0.5 3.734375,-0.5 Z m 0,0"
           id="id-69e15bb4-7e2f-4ca6-91f8-d8e2a05a9b2d" />
      </g>
      <g
         id="id-ef66f37c-dc21-4ee0-ab60-f325986c69f6">
        <path
           d="M 5.8125,17.140625 C 5.8125,11.0625 4.71875,7.484375 4.421875,6.484375 3.734375,4.265625 2.625,1.9375 0.96875,-0.125 0.8125,-0.296875 0.78125,-0.34375 0.734375,-0.375 c -0.015625,0 -0.03125,-0.015625 -0.1875,-0.015625 -0.140625,0 -0.234375,0 -0.234375,0.09375 0,0.03125 0,0.046875 0.140625,0.234375 3.46875,4.84375 4.234375,10.8125 4.25,17.5625 0,0.140625 0.0625,0.140625 0.28125,0.140625 H 5.53125 c 0.203125,0 0.265625,0 0.28125,-0.109375 z m 0,0"
           id="id-ffec788b-46a0-4223-b008-63753fdf3993" />
      </g>
      <g
         id="id-f4a67ea5-2b06-407c-9db8-bd533eb8d302">
        <path
           d="M 5.8125,-0.390625 C 5.796875,-0.5 5.734375,-0.5 5.53125,-0.5 H 4.984375 c -0.21875,0 -0.28125,0 -0.28125,0.140625 0,1.03125 -0.015625,3.40625 -0.265625,5.875 C 3.890625,10.671875 2.578125,14.25 0.390625,17.3125 0.3125,17.390625 0.3125,17.421875 0.3125,17.4375 c 0,0.09375 0.09375,0.09375 0.234375,0.09375 0.15625,0 0.1875,0 0.203125,-0.01563 C 0.78125,17.48438 2.046875,16.03125 3.0625,14.03125 4.375,11.390625 5.203125,8.375 5.578125,4.75 5.609375,4.4375 5.8125,2.359375 5.8125,0 Z m 0,0"
           id="id-fd44a0df-3b26-489d-990e-9e75232e41b8" />
      </g>
      <g
         id="id-ef604a14-7db6-4b10-a660-d74250895ec9" />
      <g
         id="id-ff5fc8e2-ba22-4ec7-a983-83b28cf0227e">
        <path
           d="m 0.875,-0.59375 c -0.03125,0.15625 -0.09375,0.390625 -0.09375,0.4375 0,0.171875 0.140625,0.265625 0.296875,0.265625 0.125,0 0.296875,-0.078125 0.375,-0.28125 0,-0.015625 0.125,-0.484375 0.1875,-0.734375 l 0.21875,-0.890625 C 1.90625,-2.03125 1.96875,-2.25 2.03125,-2.46875 c 0.03125,-0.171875 0.109375,-0.46875 0.125,-0.5 0.140625,-0.3125 0.671875,-1.21875 1.625,-1.21875 0.453125,0 0.53125,0.375 0.53125,0.703125 0,0.25 -0.0625,0.53125 -0.140625,0.828125 L 3.890625,-1.5 3.6875,-0.75 c -0.03125,0.203125 -0.125,0.546875 -0.125,0.59375 0,0.171875 0.140625,0.265625 0.28125,0.265625 0.3125,0 0.375,-0.25 0.453125,-0.5625 0.140625,-0.5625 0.515625,-2.015625 0.59375,-2.40625 0.03125,-0.125 0.5625,-1.328125 1.65625,-1.328125 0.421875,0 0.53125,0.34375 0.53125,0.703125 0,0.5625 -0.421875,1.703125 -0.625,2.234375 -0.078125,0.234375 -0.125,0.34375 -0.125,0.546875 0,0.46875 0.34375,0.8125 0.8125,0.8125 0.9375,0 1.3125,-1.453125 1.3125,-1.53125 0,-0.109375 -0.09375,-0.109375 -0.125,-0.109375 -0.09375,0 -0.09375,0.03125 -0.140625,0.1875 -0.15625,0.53125 -0.46875,1.234375 -1.015625,1.234375 -0.171875,0 -0.25,-0.09375 -0.25,-0.328125 0,-0.25 0.09375,-0.484375 0.1875,-0.703125 0.1875,-0.53125 0.609375,-1.625 0.609375,-2.203125 0,-0.640625 -0.40625,-1.0625 -1.15625,-1.0625 -0.734375,0 -1.25,0.4375 -1.625,0.96875 0,-0.125 -0.03125,-0.46875 -0.3125,-0.703125 -0.25,-0.21875 -0.5625,-0.265625 -0.8125,-0.265625 -0.90625,0 -1.390625,0.640625 -1.5625,0.875 -0.046875,-0.578125 -0.46875,-0.875 -0.921875,-0.875 -0.453125,0 -0.640625,0.390625 -0.734375,0.5625 -0.171875,0.359375 -0.296875,0.9375 -0.296875,0.96875 0,0.109375 0.09375,0.109375 0.109375,0.109375 0.109375,0 0.109375,-0.015625 0.171875,-0.234375 0.171875,-0.703125 0.375,-1.1875 0.734375,-1.1875 0.15625,0 0.296875,0.078125 0.296875,0.453125 0,0.21875 -0.03125,0.328125 -0.15625,0.84375 z m 0,0"
           id="id-45ec0070-069d-4f9f-a1ce-eb1fd36fa207" />
      </g>
      <g
         id="id-2704c3de-a0be-465a-ad2a-f45f5d47f9f0" />
      <g
         id="id-e53b5e38-9414-43c0-a760-bec43131d2ee">
        <path
           d="M 1.734375,-0.734375 C 1.671875,-0.5 1.4375,-0.125 1.078125,-0.125 c -0.015625,0 -0.234375,0 -0.375,-0.09375 0.28125,-0.09375 0.3125,-0.34375 0.3125,-0.390625 0,-0.15625 -0.125,-0.25 -0.28125,-0.25 -0.203125,0 -0.40625,0.15625 -0.40625,0.421875 0,0.34375 0.390625,0.5 0.734375,0.5 0.328125,0 0.609375,-0.1875 0.78125,-0.484375 C 2.015625,-0.0625 2.390625,0.0625 2.671875,0.0625 c 0.8125,0 1.234375,-0.859375 1.234375,-1.0625 0,-0.09375 -0.09375,-0.09375 -0.109375,-0.09375 -0.109375,0 -0.109375,0.046875 -0.140625,0.125 -0.140625,0.484375 -0.5625,0.84375 -0.953125,0.84375 -0.28125,0 -0.421875,-0.1875 -0.421875,-0.453125 0,-0.1875 0.171875,-0.8125 0.359375,-1.59375 C 2.78125,-2.703125 3.09375,-2.875 3.328125,-2.875 c 0.015625,0 0.21875,0 0.375,0.09375 -0.21875,0.0625 -0.3125,0.265625 -0.3125,0.390625 0,0.140625 0.125,0.25 0.28125,0.25 0.15625,0 0.390625,-0.125 0.390625,-0.421875 0,-0.390625 -0.453125,-0.515625 -0.71875,-0.515625 -0.359375,0 -0.640625,0.234375 -0.78125,0.5 -0.125,-0.28125 -0.453125,-0.5 -0.84375,-0.5 C 0.9375,-3.078125 0.5,-2.21875 0.5,-2 c 0,0.078125 0.09375,0.078125 0.109375,0.078125 0.09375,0 0.09375,-0.015625 0.140625,-0.109375 C 0.921875,-2.578125 1.359375,-2.875 1.703125,-2.875 1.9375,-2.875 2.125,-2.75 2.125,-2.421875 2.125,-2.28125 2.03125,-1.9375 1.96875,-1.6875 Z m 0,0"
           id="id-fa6bdcd5-a29f-478a-8f9e-e4f86d9829d7" />
      </g>
      <g
         id="id-bed19b98-63f4-4b17-9e9c-af261a7fdd7e">
        <path
           d="M 3.875,-2.625 C 3.90625,-2.71875 3.90625,-2.734375 3.90625,-2.78125 3.90625,-2.921875 3.796875,-3 3.671875,-3 3.59375,-3 3.46875,-2.96875 3.390625,-2.84375 3.359375,-2.796875 3.3125,-2.578125 3.28125,-2.4375 L 3.125,-1.859375 c -0.03125,0.171875 -0.25,1.046875 -0.28125,1.125 0,0 -0.3125,0.609375 -0.84375,0.609375 -0.484375,0 -0.484375,-0.453125 -0.484375,-0.578125 0,-0.375 0.15625,-0.8125 0.375,-1.359375 C 1.96875,-2.28125 2,-2.359375 2,-2.484375 2,-2.8125 1.71875,-3.078125 1.34375,-3.078125 0.640625,-3.078125 0.328125,-2.125 0.328125,-2 c 0,0.078125 0.09375,0.078125 0.125,0.078125 0.09375,0 0.09375,-0.03125 0.125,-0.109375 C 0.75,-2.609375 1.046875,-2.875 1.328125,-2.875 1.4375,-2.875 1.5,-2.796875 1.5,-2.640625 c 0,0.171875 -0.0625,0.3125 -0.09375,0.40625 C 1.0625,-1.375 1,-1.125 1,-0.8125 1,-0.703125 1,-0.375 1.265625,-0.140625 1.484375,0.03125 1.78125,0.0625 1.96875,0.0625 2.25,0.0625 2.5,-0.03125 2.71875,-0.25 2.640625,0.140625 2.5625,0.4375 2.265625,0.78125 2.078125,1 1.796875,1.21875 1.421875,1.21875 c -0.046875,0 -0.375,0 -0.515625,-0.21875 0.375,-0.046875 0.375,-0.375 0.375,-0.390625 0,-0.21875 -0.203125,-0.265625 -0.265625,-0.265625 -0.171875,0 -0.40625,0.140625 -0.40625,0.46875 0,0.34375 0.328125,0.609375 0.828125,0.609375 C 2.140625,1.421875 3,0.875 3.21875,0 Z m 0,0"
           id="id-03fa3040-fc94-42ab-8d30-90a2f754ff65" />
      </g>
      <g
         id="id-6b7bc12a-0d56-468b-8246-b2198ab1f1f0">
        <path
           d="m 1.171875,-0.609375 c 0.1875,-0.1875 0.3125,-0.3125 0.890625,-0.796875 0.15625,-0.109375 0.671875,-0.53125 0.875,-0.71875 0.421875,-0.421875 0.6875,-0.78125 0.6875,-0.859375 0,-0.09375 -0.078125,-0.09375 -0.109375,-0.09375 -0.0625,0 -0.09375,0.015625 -0.125,0.078125 -0.21875,0.3125 -0.359375,0.421875 -0.53125,0.421875 -0.078125,0 -0.1875,0 -0.390625,-0.203125 -0.234375,-0.25 -0.390625,-0.296875 -0.546875,-0.296875 -0.5625,0 -0.9375,0.609375 -0.9375,0.8125 0,0.078125 0.0625,0.09375 0.109375,0.09375 0.09375,0 0.109375,-0.015625 0.125,-0.09375 0.109375,-0.25 0.5,-0.265625 0.609375,-0.265625 0.171875,0 0.34375,0.046875 0.4375,0.0625 0.390625,0.078125 0.4375,0.078125 0.609375,0.078125 -0.171875,0.203125 -0.296875,0.328125 -0.96875,0.84375 -0.546875,0.4375 -0.734375,0.609375 -0.859375,0.75 -0.421875,0.40625 -0.625,0.71875 -0.625,0.78125 0,0.078125 0.09375,0.078125 0.125,0.078125 0.0625,0 0.078125,0 0.109375,-0.0625 0.1875,-0.265625 0.40625,-0.421875 0.640625,-0.421875 0.09375,0 0.1875,0 0.375,0.171875 0.21875,0.21875 0.359375,0.3125 0.59375,0.3125 C 3,0.0625 3.46875,-0.78125 3.46875,-1.015625 3.46875,-1.09375 3.390625,-1.09375 3.359375,-1.09375 3.265625,-1.09375 3.25,-1.0625 3.21875,-0.984375 3.09375,-0.640625 2.6875,-0.46875 2.34375,-0.46875 2.1875,-0.46875 2,-0.515625 1.828125,-0.546875 1.515625,-0.625 1.453125,-0.625 1.328125,-0.625 c -0.015625,0 -0.109375,0 -0.15625,0.015625 z m 0,0"
           id="id-a4704a78-fa20-4979-966b-9d134dcd948b" />
      </g>
    </g>
  </defs>
  <g
     inkscape:label="Layer 1"
     inkscape:groupmode="layer"
     id="layer1"
     transform="translate(-36.135574,-62.979143)">
    <path
       style="fill:#646464;fill-opacity:1;stroke:#cfcfcf;stroke-width:0.529167;stroke-dasharray:none;stroke-opacity:1;marker-end:url(#Arrow1)"
       d="m 182.02785,93.780411 h 89.18764"
       id="path338" />
    <path
       style="fill:#646464;fill-opacity:1;stroke:#cfcfcf;stroke-width:0.529167;stroke-dasharray:none;stroke-opacity:1;marker-end:url(#Arrow1)"
       d="M 226.62166,138.8807 V 49.693065"
       id="path444" />
    <rect
       style="fill:#666666;fill-opacity:0.347518;stroke:#ffffff;stroke-width:0.529167;stroke-dasharray:none;stroke-opacity:1"
       id="rect184"
       width="44.903324"
       height="44.903324"
       x="204.17001"
       y="71.328751" />
    <path
       style="fill:#b7b7b7;fill-opacity:0.347518;stroke:#ffffff;stroke-width:0.529167;stroke-dasharray:none;stroke-opacity:1"
       d="M 204.17,116.23207 249.07333,71.328749"
       id="path1109" />
    <text
       xml:space="preserve"
       style="font-style:normal;font-variant:normal;font-weight:normal;font-stretch:normal;font-size:5.07414px;line-height:1.25;font-family:'Charter ITC TT';-inkscape-font-specification:'Charter ITC TT';letter-spacing:0px;word-spacing:0px;fill:#ffffff;fill-opacity:1;stroke:none;stroke-width:0.264584"
       x="251.37791"
       y="70.090416"
       id="text1165"><tspan
         sodipodi:role="line"
         id="tspan1163"
         style="font-style:normal;font-variant:normal;font-weight:normal;font-stretch:normal;font-family:'Charter ITC TT';-inkscape-font-specification:'Charter ITC TT';fill:#ffffff;fill-opacity:1;stroke-width:0.264584"
         x="251.37791"
         y="70.090416">0.5<tspan
   style="fill:#555555;fill-opacity:1"
   id="tspan1217">,</tspan>0.5</tspan></text>
    <text
       xml:space="preserve"
       style="font-style:normal;font-variant:normal;font-weight:normal;font-stretch:normal;font-size:5.07414px;line-height:1.25;font-family:'Charter ITC TT';-inkscape-font-specification:'Charter ITC TT';letter-spacing:0px;word-spacing:0px;fill:#ffffff;fill-opacity:1;stroke:none;stroke-width:0.264584"
       x="184.7852"
       y="70.090416"
       id="text1285"><tspan
         sodipodi:role="line"
         id="tspan1283"
         style="font-style:normal;font-variant:normal;font-weight:normal;font-stretch:normal;font-family:'Charter ITC TT';-inkscape-font-specification:'Charter ITC TT';fill:#ffffff;fill-opacity:1;stroke-width:0.264584"
         x="184.7852"
         y="70.090416">-0.5<tspan
   style="fill:#555555;fill-opacity:1"
   id="tspan1281">,</tspan>0.5</tspan></text>
    <text
       xml:space="preserve"
       style="font-style:normal;font-variant:normal;font-weight:normal;font-stretch:normal;font-size:5.07414px;line-height:1.25;font-family:'Charter ITC TT';-inkscape-font-specification:'Charter ITC TT';letter-spacing:0px;word-spacing:0px;fill:#ffffff;fill-opacity:1;stroke:none;stroke-width:0.264584"
       x="251.37791"
       y="120.93833"
       id="text1291"><tspan
         sodipodi:role="line"
         id="tspan1289"
         style="font-style:normal;font-variant:normal;font-weight:normal;font-stretch:normal;font-family:'Charter ITC TT';-inkscape-font-specification:'Charter ITC TT';fill:#ffffff;fill-opacity:1;stroke-width:0.264584"
         x="251.37791"
         y="120.93833">0.5<tspan
   style="fill:#555555;fill-opacity:1"
   id="tspan1287">,</tspan>-0.5</tspan></text>
    <text
       xml:space="preserve"
       style="font-style:normal;font-variant:normal;font-weight:normal;font-stretch:normal;font-size:5.07414px;line-height:1.25;font-family:'Charter ITC TT';-inkscape-font-specification:'Charter ITC TT';letter-spacing:0px;word-spacing:0px;fill:#ffffff;fill-opacity:1;stroke:none;stroke-width:0.264584"
       x="183.16655"
       y="120.93833"
       id="text1297"><tspan
         sodipodi:role="line"
         id="tspan1295"
         style="font-style:normal;font-variant:normal;font-weight:normal;font-stretch:normal;font-family:'Charter ITC TT';-inkscape-font-specification:'Charter ITC TT';fill:#ffffff;fill-opacity:1;stroke-width:0.264584"
         x="183.16655"
         y="120.93833">-0.5<tspan
   style="fill:#555555;fill-opacity:1"
   id="tspan1293">,</tspan>-0.5</tspan></text>
    <text
       xml:space="preserve"
       style="font-style:italic;font-variant:normal;font-weight:normal;font-stretch:normal;font-size:5.07414px;line-height:1.25;font-family:'Charter ITC TT';-inkscape-font-specification:'Charter ITC TT Italic';letter-spacing:0px;word-spacing:0px;fill:#ffffff;fill-opacity:1;stroke:none;stroke-width:0.264584"
       x="271.75665"
       y="91.337814"
       id="text1541"><tspan
         sodipodi:role="line"
         id="tspan1539"
         style="font-style:italic;font-variant:normal;font-weight:normal;font-stretch:normal;font-family:'Charter ITC TT';-inkscape-font-specification:'Charter ITC TT Italic';fill:#ffffff;fill-opacity:1;stroke-width:0.264584"
         x="271.75665"
         y="91.337814">x</tspan></text>
    <text
       xml:space="preserve"
       style="font-style:italic;font-variant:normal;font-weight:normal;font-stretch:normal;font-size:5.07414px;line-height:1.25;font-family:'Charter ITC TT';-inkscape-font-specification:'Charter ITC TT Italic';letter-spacing:0px;word-spacing:0px;fill:#ffffff;fill-opacity:1;stroke:none;stroke-width:0.264584"
       x="229.0441"
       y="47.692986"
       id="text1545"><tspan
         sodipodi:role="line"
         id="tspan1543"
         style="font-style:italic;font-variant:normal;font-weight:normal;font-stretch:normal;font-family:'Charter ITC TT';-inkscape-font-specification:'Charter ITC TT Italic';fill:#ffffff;fill-opacity:1;stroke-width:0.264584"
         x="229.0441"
         y="47.692986">y</tspan></text>
    <text
       xml:space="preserve"
       style="font-style:normal;font-variant:normal;font-weight:normal;font-stretch:normal;font-size:5.07414px;line-height:1.25;font-family:'Charter ITC TT';-inkscape-font-specification:'Charter ITC TT';letter-spacing:0px;word-spacing:0px;fill:#ed0f54;fill-opacity:1;stroke:none;stroke-width:0.264584"
       x="232.98074"
       y="105.30909"
       id="text2581"><tspan
         sodipodi:role="line"
         id="tspan2579"
         style="font-style:normal;font-variant:normal;font-weight:normal;font-stretch:normal;font-family:'Charter ITC TT';-inkscape-font-specification:'Charter ITC TT';fill:#ed0f54;fill-opacity:1;stroke-width:0.264584"
         x="232.98074"
         y="105.30909">#0</tspan></text>
    <text
       xml:space="preserve"
       style="font-style:normal;font-variant:normal;font-weight:normal;font-stretch:normal;font-size:5.07414px;line-height:1.25;font-family:'Charter ITC TT';-inkscape-font-specification:'Charter ITC TT';letter-spacing:0px;word-spacing:0px;fill:#0f9aed;fill-opacity:1;stroke:none;stroke-width:0.264584"
       x="213.77971"
       y="86.007271"
       id="text2585"><tspan
         sodipodi:role="line"
         id="tspan2583"
         style="font-style:normal;font-variant:normal;font-weight:normal;font-stretch:normal;font-family:'Charter ITC TT';-inkscape-font-specification:'Charter ITC TT';fill:#0f9aed;fill-opacity:1;stroke-width:0.264584"
         x="213.77971"
         y="86.007271">#1</tspan></text>
    <path
       style="fill:none;fill-opacity:1;stroke:#ed0f54;stroke-width:0.529167;stroke-dasharray:none;stroke-opacity:1"
       d="m 239.65628,115.16424 h 8.34922 v -8.30619"
       id="path2641"
       sodipodi:nodetypes="ccc" />
    <path
       style="fill:none;fill-opacity:1;stroke:#ed0f54;stroke-width:0.529167;stroke-dasharray:none;stroke-opacity:1"
       d="m 248.00549,80.760692 v -6.87191 l -4.81315,4.813148"
       id="path2643"
       sodipodi:nodetypes="ccc" />
    <path
       style="fill:none;fill-opacity:1;stroke:#ed0f54;stroke-width:0.529167;stroke-dasharray:none;stroke-opacity:1"
       d="m 211.57364,110.32951 -4.83471,4.83472 h 6.83736"
       id="path2645"
       sodipodi:nodetypes="ccc" />
    <path
       style="fill:none;fill-opacity:1;stroke:#0f9aed;stroke-width:0.529167;stroke-dasharray:none;stroke-opacity:1"
       d="m 213.58705,72.396579 h -8.34922 v 8.30619"
       id="path3356"
       sodipodi:nodetypes="ccc" />
    <path
       style="fill:none;fill-opacity:1;stroke:#0f9aed;stroke-width:0.529167;stroke-dasharray:none;stroke-opacity:1"
       d="m 205.23784,106.80013 v 6.87191 l 4.81315,-4.81315"
       id="path3358"
       sodipodi:nodetypes="ccc" />
    <path
       style="fill:none;fill-opacity:1;stroke:#0f9aed;stroke-width:0.529167;stroke-dasharray:none;stroke-opacity:1"
       d="m 241.66969,77.231309 4.83471,-4.83472 h -6.83736"
       id="path3360"
       sodipodi:nodetypes="ccc" />
    <g
       transform="matrix(0.833159,0,0,0.833159,41.460646,87.754091)"
       ns31:version="1.8.1"
       ns31:texconverter="pdflatex"
       ns31:pdfconverter="inkscape"
       ns31:text="\\[\n\\left(\n\\begin{array}{ccc}\nm_{xx} &amp; m_{xy} &amp; m_{xz} \\\\\nm_{yx} &amp; m_{yy} &amp; m_{yz} \\\\\nm_{zx} &amp; m_{zy} &amp; m_{zz}\n\\end{array}\n\\right)\n\\]\n"
       ns31:preamble="C:\Users\eliem\AppData\Roaming\inkscape\extensions\textext\default_packages.tex"
       ns31:scale="2.361708848119543"
       ns31:alignment="middle center"
       ns31:stroke-to-path="0"
       ns31:jacobian_sqrt="0.833159"
       id="g396"
       style="fill:#ffffff;fill-opacity:1">
      <defs
         id="id-0f47c455-958e-4957-8b91-25b6401b65d8">
        <g
           id="g4315">
          <g
             id="g4277" />
          <g
             id="g4281">
            <path
               d="M 3.734375,17.640625 C 3.953125,17.640625 4,17.640625 4,17.5 4.03125,10.515625 4.828125,4.71875 8.328125,-0.15625 c 0.0625,-0.09375 0.0625,-0.109375 0.0625,-0.140625 0,-0.09375 -0.0625,-0.09375 -0.21875,-0.09375 -0.171875,0 -0.1875,0 -0.203125,0.015625 -0.046875,0.03125 -1.3125,1.484375 -2.3125,3.5 -1.3125,2.625 -2.140625,5.640625 -2.515625,9.28125 -0.03125,0.296875 -0.234375,2.375 -0.234375,4.734375 v 0.390625 c 0,0.109375 0.0625,0.109375 0.28125,0.109375 z m 0,0"
               id="path4279" />
          </g>
          <g
             id="g4285">
            <path
               d="m 3.1875,-0.5 c -0.21875,0 -0.28125,0 -0.28125,0.109375 V 0 c 0,6.09375 1.078125,9.65625 1.390625,10.671875 C 4.96875,12.875 6.078125,15.21875 7.75,17.265625 7.890625,17.453125 7.9375,17.5 7.96875,17.515625 8,17.53125 8,17.53125 8.171875,17.53125 c 0.15625,0 0.21875,0 0.21875,-0.09375 0,-0.01563 0,-0.04687 -0.0625,-0.125 C 5.015625,12.703125 4.015625,7.15625 4,-0.359375 4,-0.5 3.953125,-0.5 3.734375,-0.5 Z m 0,0"
               id="path4283" />
          </g>
          <g
             id="g4289">
            <path
               d="M 5.8125,17.140625 C 5.8125,11.0625 4.71875,7.484375 4.421875,6.484375 3.734375,4.265625 2.625,1.9375 0.96875,-0.125 0.8125,-0.296875 0.78125,-0.34375 0.734375,-0.375 c -0.015625,0 -0.03125,-0.015625 -0.1875,-0.015625 -0.140625,0 -0.234375,0 -0.234375,0.09375 0,0.03125 0,0.046875 0.140625,0.234375 3.46875,4.84375 4.234375,10.8125 4.25,17.5625 0,0.140625 0.0625,0.140625 0.28125,0.140625 H 5.53125 c 0.203125,0 0.265625,0 0.28125,-0.109375 z m 0,0"
               id="path4287" />
          </g>
          <g
             id="g4293">
            <path
               d="M 5.8125,-0.390625 C 5.796875,-0.5 5.734375,-0.5 5.53125,-0.5 H 4.984375 c -0.21875,0 -0.28125,0 -0.28125,0.140625 0,1.03125 -0.015625,3.40625 -0.265625,5.875 C 3.890625,10.671875 2.578125,14.25 0.390625,17.3125 0.3125,17.390625 0.3125,17.421875 0.3125,17.4375 c 0,0.09375 0.09375,0.09375 0.234375,0.09375 0.15625,0 0.1875,0 0.203125,-0.01563 C 0.78125,17.48438 2.046875,16.03125 3.0625,14.03125 4.375,11.390625 5.203125,8.375 5.578125,4.75 5.609375,4.4375 5.8125,2.359375 5.8125,0 Z m 0,0"
               id="path4291" />
          </g>
          <g
             id="g4295" />
          <g
             id="g4299">
            <path
               d="m 0.875,-0.59375 c -0.03125,0.15625 -0.09375,0.390625 -0.09375,0.4375 0,0.171875 0.140625,0.265625 0.296875,0.265625 0.125,0 0.296875,-0.078125 0.375,-0.28125 0,-0.015625 0.125,-0.484375 0.1875,-0.734375 l 0.21875,-0.890625 C 1.90625,-2.03125 1.96875,-2.25 2.03125,-2.46875 c 0.03125,-0.171875 0.109375,-0.46875 0.125,-0.5 0.140625,-0.3125 0.671875,-1.21875 1.625,-1.21875 0.453125,0 0.53125,0.375 0.53125,0.703125 0,0.25 -0.0625,0.53125 -0.140625,0.828125 L 3.890625,-1.5 3.6875,-0.75 c -0.03125,0.203125 -0.125,0.546875 -0.125,0.59375 0,0.171875 0.140625,0.265625 0.28125,0.265625 0.3125,0 0.375,-0.25 0.453125,-0.5625 0.140625,-0.5625 0.515625,-2.015625 0.59375,-2.40625 0.03125,-0.125 0.5625,-1.328125 1.65625,-1.328125 0.421875,0 0.53125,0.34375 0.53125,0.703125 0,0.5625 -0.421875,1.703125 -0.625,2.234375 -0.078125,0.234375 -0.125,0.34375 -0.125,0.546875 0,0.46875 0.34375,0.8125 0.8125,0.8125 0.9375,0 1.3125,-1.453125 1.3125,-1.53125 0,-0.109375 -0.09375,-0.109375 -0.125,-0.109375 -0.09375,0 -0.09375,0.03125 -0.140625,0.1875 -0.15625,0.53125 -0.46875,1.234375 -1.015625,1.234375 -0.171875,0 -0.25,-0.09375 -0.25,-0.328125 0,-0.25 0.09375,-0.484375 0.1875,-0.703125 0.1875,-0.53125 0.609375,-1.625 0.609375,-2.203125 0,-0.640625 -0.40625,-1.0625 -1.15625,-1.0625 -0.734375,0 -1.25,0.4375 -1.625,0.96875 0,-0.125 -0.03125,-0.46875 -0.3125,-0.703125 -0.25,-0.21875 -0.5625,-0.265625 -0.8125,-0.265625 -0.90625,0 -1.390625,0.640625 -1.5625,0.875 -0.046875,-0.578125 -0.46875,-0.875 -0.921875,-0.875 -0.453125,0 -0.640625,0.390625 -0.734375,0.5625 -0.171875,0.359375 -0.296875,0.9375 -0.296875,0.96875 0,0.109375 0.09375,0.109375 0.109375,0.109375 0.109375,0 0.109375,-0.015625 0.171875,-0.234375 0.171875,-0.703125 0.375,-1.1875 0.734375,-1.1875 0.15625,0 0.296875,0.078125 0.296875,0.453125 0,0.21875 -0.03125,0.328125 -0.15625,0.84375 z m 0,0"
               id="path4297" />
          </g>
          <g
             id="g4301" />
          <g
             id="g4305">
            <path
               d="M 1.734375,-0.734375 C 1.671875,-0.5 1.4375,-0.125 1.078125,-0.125 c -0.015625,0 -0.234375,0 -0.375,-0.09375 0.28125,-0.09375 0.3125,-0.34375 0.3125,-0.390625 0,-0.15625 -0.125,-0.25 -0.28125,-0.25 -0.203125,0 -0.40625,0.15625 -0.40625,0.421875 0,0.34375 0.390625,0.5 0.734375,0.5 0.328125,0 0.609375,-0.1875 0.78125,-0.484375 C 2.015625,-0.0625 2.390625,0.0625 2.671875,0.0625 c 0.8125,0 1.234375,-0.859375 1.234375,-1.0625 0,-0.09375 -0.09375,-0.09375 -0.109375,-0.09375 -0.109375,0 -0.109375,0.046875 -0.140625,0.125 -0.140625,0.484375 -0.5625,0.84375 -0.953125,0.84375 -0.28125,0 -0.421875,-0.1875 -0.421875,-0.453125 0,-0.1875 0.171875,-0.8125 0.359375,-1.59375 C 2.78125,-2.703125 3.09375,-2.875 3.328125,-2.875 c 0.015625,0 0.21875,0 0.375,0.09375 -0.21875,0.0625 -0.3125,0.265625 -0.3125,0.390625 0,0.140625 0.125,0.25 0.28125,0.25 0.15625,0 0.390625,-0.125 0.390625,-0.421875 0,-0.390625 -0.453125,-0.515625 -0.71875,-0.515625 -0.359375,0 -0.640625,0.234375 -0.78125,0.5 -0.125,-0.28125 -0.453125,-0.5 -0.84375,-0.5 C 0.9375,-3.078125 0.5,-2.21875 0.5,-2 c 0,0.078125 0.09375,0.078125 0.109375,0.078125 0.09375,0 0.09375,-0.015625 0.140625,-0.109375 C 0.921875,-2.578125 1.359375,-2.875 1.703125,-2.875 1.9375,-2.875 2.125,-2.75 2.125,-2.421875 2.125,-2.28125 2.03125,-1.9375 1.96875,-1.6875 Z m 0,0"
               id="path4303" />
          </g>
          <g
             id="g4309">
            <path
               d="M 3.875,-2.625 C 3.90625,-2.71875 3.90625,-2.734375 3.90625,-2.78125 3.90625,-2.921875 3.796875,-3 3.671875,-3 3.59375,-3 3.46875,-2.96875 3.390625,-2.84375 3.359375,-2.796875 3.3125,-2.578125 3.28125,-2.4375 L 3.125,-1.859375 c -0.03125,0.171875 -0.25,1.046875 -0.28125,1.125 0,0 -0.3125,0.609375 -0.84375,0.609375 -0.484375,0 -0.484375,-0.453125 -0.484375,-0.578125 0,-0.375 0.15625,-0.8125 0.375,-1.359375 C 1.96875,-2.28125 2,-2.359375 2,-2.484375 2,-2.8125 1.71875,-3.078125 1.34375,-3.078125 0.640625,-3.078125 0.328125,-2.125 0.328125,-2 c 0,0.078125 0.09375,0.078125 0.125,0.078125 0.09375,0 0.09375,-0.03125 0.125,-0.109375 C 0.75,-2.609375 1.046875,-2.875 1.328125,-2.875 1.4375,-2.875 1.5,-2.796875 1.5,-2.640625 c 0,0.171875 -0.0625,0.3125 -0.09375,0.40625 C 1.0625,-1.375 1,-1.125 1,-0.8125 1,-0.703125 1,-0.375 1.265625,-0.140625 1.484375,0.03125 1.78125,0.0625 1.96875,0.0625 2.25,0.0625 2.5,-0.03125 2.71875,-0.25 2.640625,0.140625 2.5625,0.4375 2.265625,0.78125 2.078125,1 1.796875,1.21875 1.421875,1.21875 c -0.046875,0 -0.375,0 -0.515625,-0.21875 0.375,-0.046875 0.375,-0.375 0.375,-0.390625 0,-0.21875 -0.203125,-0.265625 -0.265625,-0.265625 -0.171875,0 -0.40625,0.140625 -0.40625,0.46875 0,0.34375 0.328125,0.609375 0.828125,0.609375 C 2.140625,1.421875 3,0.875 3.21875,0 Z m 0,0"
               id="path4307" />
          </g>
          <g
             id="g4313">
            <path
               d="m 1.171875,-0.609375 c 0.1875,-0.1875 0.3125,-0.3125 0.890625,-0.796875 0.15625,-0.109375 0.671875,-0.53125 0.875,-0.71875 0.421875,-0.421875 0.6875,-0.78125 0.6875,-0.859375 0,-0.09375 -0.078125,-0.09375 -0.109375,-0.09375 -0.0625,0 -0.09375,0.015625 -0.125,0.078125 -0.21875,0.3125 -0.359375,0.421875 -0.53125,0.421875 -0.078125,0 -0.1875,0 -0.390625,-0.203125 -0.234375,-0.25 -0.390625,-0.296875 -0.546875,-0.296875 -0.5625,0 -0.9375,0.609375 -0.9375,0.8125 0,0.078125 0.0625,0.09375 0.109375,0.09375 0.09375,0 0.109375,-0.015625 0.125,-0.09375 0.109375,-0.25 0.5,-0.265625 0.609375,-0.265625 0.171875,0 0.34375,0.046875 0.4375,0.0625 0.390625,0.078125 0.4375,0.078125 0.609375,0.078125 -0.171875,0.203125 -0.296875,0.328125 -0.96875,0.84375 -0.546875,0.4375 -0.734375,0.609375 -0.859375,0.75 -0.421875,0.40625 -0.625,0.71875 -0.625,0.78125 0,0.078125 0.09375,0.078125 0.125,0.078125 0.0625,0 0.078125,0 0.109375,-0.0625 0.1875,-0.265625 0.40625,-0.421875 0.640625,-0.421875 0.09375,0 0.1875,0 0.375,0.171875 0.21875,0.21875 0.359375,0.3125 0.59375,0.3125 C 3,0.0625 3.46875,-0.78125 3.46875,-1.015625 3.46875,-1.09375 3.390625,-1.09375 3.359375,-1.09375 3.265625,-1.09375 3.25,-1.0625 3.21875,-0.984375 3.09375,-0.640625 2.6875,-0.46875 2.34375,-0.46875 2.1875,-0.46875 2,-0.515625 1.828125,-0.546875 1.515625,-0.625 1.453125,-0.625 1.328125,-0.625 c -0.015625,0 -0.109375,0 -0.15625,0.015625 z m 0,0"
               id="path4311" />
          </g>
        </g>
      </defs>
      <g
         fill="#000000"
         fill-opacity="1"
         id="id-a4bc3e83-5e12-41f6-aec6-923d7a177b5b"
         transform="translate(-257.773,-135.768)"
         style="fill:#ffffff;fill-opacity:1">
        <g
           transform="translate(254.867,136.159)"
           id="g874"
           style="fill:#ffffff;fill-opacity:1">
          <path
             d="M 3.734375,17.640625 C 3.953125,17.640625 4,17.640625 4,17.5 4.03125,10.515625 4.828125,4.71875 8.328125,-0.15625 c 0.0625,-0.09375 0.0625,-0.109375 0.0625,-0.140625 0,-0.09375 -0.0625,-0.09375 -0.21875,-0.09375 -0.171875,0 -0.1875,0 -0.203125,0.015625 -0.046875,0.03125 -1.3125,1.484375 -2.3125,3.5 -1.3125,2.625 -2.140625,5.640625 -2.515625,9.28125 -0.03125,0.296875 -0.234375,2.375 -0.234375,4.734375 v 0.390625 c 0,0.109375 0.0625,0.109375 0.28125,0.109375 z m 0,0"
             id="id-30bfbb11-f633-4649-a94d-00cbcd0cebfa"
             style="fill:#ffffff;fill-opacity:1" />
        </g>
      </g>
      <g
         fill="#000000"
         fill-opacity="1"
         id="id-a1ce2d2c-7cd4-4804-9c12-f469ff0f3fef"
         transform="translate(-257.773,-135.768)"
         style="fill:#ffffff;fill-opacity:1">
        <g
           transform="translate(254.867,154.092)"
           id="g878"
           style="fill:#ffffff;fill-opacity:1">
          <path
             d="m 3.1875,-0.5 c -0.21875,0 -0.28125,0 -0.28125,0.109375 V 0 c 0,6.09375 1.078125,9.65625 1.390625,10.671875 C 4.96875,12.875 6.078125,15.21875 7.75,17.265625 7.890625,17.453125 7.9375,17.5 7.96875,17.515625 8,17.53125 8,17.53125 8.171875,17.53125 c 0.15625,0 0.21875,0 0.21875,-0.09375 0,-0.01563 0,-0.04687 -0.0625,-0.125 C 5.015625,12.703125 4.015625,7.15625 4,-0.359375 4,-0.5 3.953125,-0.5 3.734375,-0.5 Z m 0,0"
             id="id-480ee37e-92a9-4a9a-8800-d23c01eca6c6"
             style="fill:#ffffff;fill-opacity:1" />
        </g>
      </g>
      <g
         fill="#000000"
         fill-opacity="1"
         id="id-a60b1b93-35b0-4294-a02c-41103454c1e5"
         transform="translate(-257.773,-135.768)"
         style="fill:#ffffff;fill-opacity:1">
        <g
           transform="translate(268.566,144.13)"
           id="g882"
           style="fill:#ffffff;fill-opacity:1">
          <path
             d="m 0.875,-0.59375 c -0.03125,0.15625 -0.09375,0.390625 -0.09375,0.4375 0,0.171875 0.140625,0.265625 0.296875,0.265625 0.125,0 0.296875,-0.078125 0.375,-0.28125 0,-0.015625 0.125,-0.484375 0.1875,-0.734375 l 0.21875,-0.890625 C 1.90625,-2.03125 1.96875,-2.25 2.03125,-2.46875 c 0.03125,-0.171875 0.109375,-0.46875 0.125,-0.5 0.140625,-0.3125 0.671875,-1.21875 1.625,-1.21875 0.453125,0 0.53125,0.375 0.53125,0.703125 0,0.25 -0.0625,0.53125 -0.140625,0.828125 L 3.890625,-1.5 3.6875,-0.75 c -0.03125,0.203125 -0.125,0.546875 -0.125,0.59375 0,0.171875 0.140625,0.265625 0.28125,0.265625 0.3125,0 0.375,-0.25 0.453125,-0.5625 0.140625,-0.5625 0.515625,-2.015625 0.59375,-2.40625 0.03125,-0.125 0.5625,-1.328125 1.65625,-1.328125 0.421875,0 0.53125,0.34375 0.53125,0.703125 0,0.5625 -0.421875,1.703125 -0.625,2.234375 -0.078125,0.234375 -0.125,0.34375 -0.125,0.546875 0,0.46875 0.34375,0.8125 0.8125,0.8125 0.9375,0 1.3125,-1.453125 1.3125,-1.53125 0,-0.109375 -0.09375,-0.109375 -0.125,-0.109375 -0.09375,0 -0.09375,0.03125 -0.140625,0.1875 -0.15625,0.53125 -0.46875,1.234375 -1.015625,1.234375 -0.171875,0 -0.25,-0.09375 -0.25,-0.328125 0,-0.25 0.09375,-0.484375 0.1875,-0.703125 0.1875,-0.53125 0.609375,-1.625 0.609375,-2.203125 0,-0.640625 -0.40625,-1.0625 -1.15625,-1.0625 -0.734375,0 -1.25,0.4375 -1.625,0.96875 0,-0.125 -0.03125,-0.46875 -0.3125,-0.703125 -0.25,-0.21875 -0.5625,-0.265625 -0.8125,-0.265625 -0.90625,0 -1.390625,0.640625 -1.5625,0.875 -0.046875,-0.578125 -0.46875,-0.875 -0.921875,-0.875 -0.453125,0 -0.640625,0.390625 -0.734375,0.5625 -0.171875,0.359375 -0.296875,0.9375 -0.296875,0.96875 0,0.109375 0.09375,0.109375 0.109375,0.109375 0.109375,0 0.109375,-0.015625 0.171875,-0.234375 0.171875,-0.703125 0.375,-1.1875 0.734375,-1.1875 0.15625,0 0.296875,0.078125 0.296875,0.453125 0,0.21875 -0.03125,0.328125 -0.15625,0.84375 z m 0,0"
             id="id-bb8b5e2a-e2c9-453c-8106-c750940f6575"
             style="fill:#ffffff;fill-opacity:1" />
        </g>
      </g>
      <g
         fill="#000000"
         fill-opacity="1"
         id="id-f5984eef-2051-42dd-a715-ec9d081b1325"
         transform="translate(-257.773,-135.768)"
         style="fill:#ffffff;fill-opacity:1">
        <g
           transform="translate(277.313,145.624)"
           id="g886"
           style="fill:#ffffff;fill-opacity:1">
          <path
             d="M 1.734375,-0.734375 C 1.671875,-0.5 1.4375,-0.125 1.078125,-0.125 c -0.015625,0 -0.234375,0 -0.375,-0.09375 0.28125,-0.09375 0.3125,-0.34375 0.3125,-0.390625 0,-0.15625 -0.125,-0.25 -0.28125,-0.25 -0.203125,0 -0.40625,0.15625 -0.40625,0.421875 0,0.34375 0.390625,0.5 0.734375,0.5 0.328125,0 0.609375,-0.1875 0.78125,-0.484375 C 2.015625,-0.0625 2.390625,0.0625 2.671875,0.0625 c 0.8125,0 1.234375,-0.859375 1.234375,-1.0625 0,-0.09375 -0.09375,-0.09375 -0.109375,-0.09375 -0.109375,0 -0.109375,0.046875 -0.140625,0.125 -0.140625,0.484375 -0.5625,0.84375 -0.953125,0.84375 -0.28125,0 -0.421875,-0.1875 -0.421875,-0.453125 0,-0.1875 0.171875,-0.8125 0.359375,-1.59375 C 2.78125,-2.703125 3.09375,-2.875 3.328125,-2.875 c 0.015625,0 0.21875,0 0.375,0.09375 -0.21875,0.0625 -0.3125,0.265625 -0.3125,0.390625 0,0.140625 0.125,0.25 0.28125,0.25 0.15625,0 0.390625,-0.125 0.390625,-0.421875 0,-0.390625 -0.453125,-0.515625 -0.71875,-0.515625 -0.359375,0 -0.640625,0.234375 -0.78125,0.5 -0.125,-0.28125 -0.453125,-0.5 -0.84375,-0.5 C 0.9375,-3.078125 0.5,-2.21875 0.5,-2 c 0,0.078125 0.09375,0.078125 0.109375,0.078125 0.09375,0 0.09375,-0.015625 0.140625,-0.109375 C 0.921875,-2.578125 1.359375,-2.875 1.703125,-2.875 1.9375,-2.875 2.125,-2.75 2.125,-2.421875 2.125,-2.28125 2.03125,-1.9375 1.96875,-1.6875 Z m 0,0"
             id="id-d2653d24-f32f-4e87-bdbf-a4cf7c276f01"
             style="fill:#ffffff;fill-opacity:1" />
        </g>
        <g
           transform="translate(281.831,145.624)"
           id="g889"
           style="fill:#ffffff;fill-opacity:1">
          <path
             d="M 1.734375,-0.734375 C 1.671875,-0.5 1.4375,-0.125 1.078125,-0.125 c -0.015625,0 -0.234375,0 -0.375,-0.09375 0.28125,-0.09375 0.3125,-0.34375 0.3125,-0.390625 0,-0.15625 -0.125,-0.25 -0.28125,-0.25 -0.203125,0 -0.40625,0.15625 -0.40625,0.421875 0,0.34375 0.390625,0.5 0.734375,0.5 0.328125,0 0.609375,-0.1875 0.78125,-0.484375 C 2.015625,-0.0625 2.390625,0.0625 2.671875,0.0625 c 0.8125,0 1.234375,-0.859375 1.234375,-1.0625 0,-0.09375 -0.09375,-0.09375 -0.109375,-0.09375 -0.109375,0 -0.109375,0.046875 -0.140625,0.125 -0.140625,0.484375 -0.5625,0.84375 -0.953125,0.84375 -0.28125,0 -0.421875,-0.1875 -0.421875,-0.453125 0,-0.1875 0.171875,-0.8125 0.359375,-1.59375 C 2.78125,-2.703125 3.09375,-2.875 3.328125,-2.875 c 0.015625,0 0.21875,0 0.375,0.09375 -0.21875,0.0625 -0.3125,0.265625 -0.3125,0.390625 0,0.140625 0.125,0.25 0.28125,0.25 0.15625,0 0.390625,-0.125 0.390625,-0.421875 0,-0.390625 -0.453125,-0.515625 -0.71875,-0.515625 -0.359375,0 -0.640625,0.234375 -0.78125,0.5 -0.125,-0.28125 -0.453125,-0.5 -0.84375,-0.5 C 0.9375,-3.078125 0.5,-2.21875 0.5,-2 c 0,0.078125 0.09375,0.078125 0.109375,0.078125 0.09375,0 0.09375,-0.015625 0.140625,-0.109375 C 0.921875,-2.578125 1.359375,-2.875 1.703125,-2.875 1.9375,-2.875 2.125,-2.75 2.125,-2.421875 2.125,-2.28125 2.03125,-1.9375 1.96875,-1.6875 Z m 0,0"
             id="id-5bdfd7d2-d86b-439c-9b42-dbee3e666ccf"
             style="fill:#ffffff;fill-opacity:1" />
        </g>
      </g>
      <g
         fill="#000000"
         fill-opacity="1"
         id="id-83b87cf5-783b-4a78-b505-21ae9ffa7f5f"
         transform="translate(-257.773,-135.768)"
         style="fill:#ffffff;fill-opacity:1">
        <g
           transform="translate(296.81,144.13)"
           id="g893"
           style="fill:#ffffff;fill-opacity:1">
          <path
             d="m 0.875,-0.59375 c -0.03125,0.15625 -0.09375,0.390625 -0.09375,0.4375 0,0.171875 0.140625,0.265625 0.296875,0.265625 0.125,0 0.296875,-0.078125 0.375,-0.28125 0,-0.015625 0.125,-0.484375 0.1875,-0.734375 l 0.21875,-0.890625 C 1.90625,-2.03125 1.96875,-2.25 2.03125,-2.46875 c 0.03125,-0.171875 0.109375,-0.46875 0.125,-0.5 0.140625,-0.3125 0.671875,-1.21875 1.625,-1.21875 0.453125,0 0.53125,0.375 0.53125,0.703125 0,0.25 -0.0625,0.53125 -0.140625,0.828125 L 3.890625,-1.5 3.6875,-0.75 c -0.03125,0.203125 -0.125,0.546875 -0.125,0.59375 0,0.171875 0.140625,0.265625 0.28125,0.265625 0.3125,0 0.375,-0.25 0.453125,-0.5625 0.140625,-0.5625 0.515625,-2.015625 0.59375,-2.40625 0.03125,-0.125 0.5625,-1.328125 1.65625,-1.328125 0.421875,0 0.53125,0.34375 0.53125,0.703125 0,0.5625 -0.421875,1.703125 -0.625,2.234375 -0.078125,0.234375 -0.125,0.34375 -0.125,0.546875 0,0.46875 0.34375,0.8125 0.8125,0.8125 0.9375,0 1.3125,-1.453125 1.3125,-1.53125 0,-0.109375 -0.09375,-0.109375 -0.125,-0.109375 -0.09375,0 -0.09375,0.03125 -0.140625,0.1875 -0.15625,0.53125 -0.46875,1.234375 -1.015625,1.234375 -0.171875,0 -0.25,-0.09375 -0.25,-0.328125 0,-0.25 0.09375,-0.484375 0.1875,-0.703125 0.1875,-0.53125 0.609375,-1.625 0.609375,-2.203125 0,-0.640625 -0.40625,-1.0625 -1.15625,-1.0625 -0.734375,0 -1.25,0.4375 -1.625,0.96875 0,-0.125 -0.03125,-0.46875 -0.3125,-0.703125 -0.25,-0.21875 -0.5625,-0.265625 -0.8125,-0.265625 -0.90625,0 -1.390625,0.640625 -1.5625,0.875 -0.046875,-0.578125 -0.46875,-0.875 -0.921875,-0.875 -0.453125,0 -0.640625,0.390625 -0.734375,0.5625 -0.171875,0.359375 -0.296875,0.9375 -0.296875,0.96875 0,0.109375 0.09375,0.109375 0.109375,0.109375 0.109375,0 0.109375,-0.015625 0.171875,-0.234375 0.171875,-0.703125 0.375,-1.1875 0.734375,-1.1875 0.15625,0 0.296875,0.078125 0.296875,0.453125 0,0.21875 -0.03125,0.328125 -0.15625,0.84375 z m 0,0"
             id="id-21e8f349-e000-4450-9975-ec0cc1239819"
             style="fill:#ffffff;fill-opacity:1" />
        </g>
      </g>
      <g
         fill="#000000"
         fill-opacity="1"
         id="id-159b4b58-fc23-4c01-be9c-d1bcdc5e3e2a"
         transform="translate(-257.773,-135.768)"
         style="fill:#ffffff;fill-opacity:1">
        <g
           transform="translate(305.557,145.624)"
           id="g897"
           style="fill:#ffffff;fill-opacity:1">
          <path
             d="M 1.734375,-0.734375 C 1.671875,-0.5 1.4375,-0.125 1.078125,-0.125 c -0.015625,0 -0.234375,0 -0.375,-0.09375 0.28125,-0.09375 0.3125,-0.34375 0.3125,-0.390625 0,-0.15625 -0.125,-0.25 -0.28125,-0.25 -0.203125,0 -0.40625,0.15625 -0.40625,0.421875 0,0.34375 0.390625,0.5 0.734375,0.5 0.328125,0 0.609375,-0.1875 0.78125,-0.484375 C 2.015625,-0.0625 2.390625,0.0625 2.671875,0.0625 c 0.8125,0 1.234375,-0.859375 1.234375,-1.0625 0,-0.09375 -0.09375,-0.09375 -0.109375,-0.09375 -0.109375,0 -0.109375,0.046875 -0.140625,0.125 -0.140625,0.484375 -0.5625,0.84375 -0.953125,0.84375 -0.28125,0 -0.421875,-0.1875 -0.421875,-0.453125 0,-0.1875 0.171875,-0.8125 0.359375,-1.59375 C 2.78125,-2.703125 3.09375,-2.875 3.328125,-2.875 c 0.015625,0 0.21875,0 0.375,0.09375 -0.21875,0.0625 -0.3125,0.265625 -0.3125,0.390625 0,0.140625 0.125,0.25 0.28125,0.25 0.15625,0 0.390625,-0.125 0.390625,-0.421875 0,-0.390625 -0.453125,-0.515625 -0.71875,-0.515625 -0.359375,0 -0.640625,0.234375 -0.78125,0.5 -0.125,-0.28125 -0.453125,-0.5 -0.84375,-0.5 C 0.9375,-3.078125 0.5,-2.21875 0.5,-2 c 0,0.078125 0.09375,0.078125 0.109375,0.078125 0.09375,0 0.09375,-0.015625 0.140625,-0.109375 C 0.921875,-2.578125 1.359375,-2.875 1.703125,-2.875 1.9375,-2.875 2.125,-2.75 2.125,-2.421875 2.125,-2.28125 2.03125,-1.9375 1.96875,-1.6875 Z m 0,0"
             id="id-ab123e4f-9fc3-4eb2-af9c-0bbf4f130713"
             style="fill:#ffffff;fill-opacity:1" />
        </g>
        <g
           transform="translate(310.075,145.624)"
           id="g900"
           style="fill:#ffffff;fill-opacity:1">
          <path
             d="M 3.875,-2.625 C 3.90625,-2.71875 3.90625,-2.734375 3.90625,-2.78125 3.90625,-2.921875 3.796875,-3 3.671875,-3 3.59375,-3 3.46875,-2.96875 3.390625,-2.84375 3.359375,-2.796875 3.3125,-2.578125 3.28125,-2.4375 L 3.125,-1.859375 c -0.03125,0.171875 -0.25,1.046875 -0.28125,1.125 0,0 -0.3125,0.609375 -0.84375,0.609375 -0.484375,0 -0.484375,-0.453125 -0.484375,-0.578125 0,-0.375 0.15625,-0.8125 0.375,-1.359375 C 1.96875,-2.28125 2,-2.359375 2,-2.484375 2,-2.8125 1.71875,-3.078125 1.34375,-3.078125 0.640625,-3.078125 0.328125,-2.125 0.328125,-2 c 0,0.078125 0.09375,0.078125 0.125,0.078125 0.09375,0 0.09375,-0.03125 0.125,-0.109375 C 0.75,-2.609375 1.046875,-2.875 1.328125,-2.875 1.4375,-2.875 1.5,-2.796875 1.5,-2.640625 c 0,0.171875 -0.0625,0.3125 -0.09375,0.40625 C 1.0625,-1.375 1,-1.125 1,-0.8125 1,-0.703125 1,-0.375 1.265625,-0.140625 1.484375,0.03125 1.78125,0.0625 1.96875,0.0625 2.25,0.0625 2.5,-0.03125 2.71875,-0.25 2.640625,0.140625 2.5625,0.4375 2.265625,0.78125 2.078125,1 1.796875,1.21875 1.421875,1.21875 c -0.046875,0 -0.375,0 -0.515625,-0.21875 0.375,-0.046875 0.375,-0.375 0.375,-0.390625 0,-0.21875 -0.203125,-0.265625 -0.265625,-0.265625 -0.171875,0 -0.40625,0.140625 -0.40625,0.46875 0,0.34375 0.328125,0.609375 0.828125,0.609375 C 2.140625,1.421875 3,0.875 3.21875,0 Z m 0,0"
             id="id-e8ab909c-0f50-4082-a358-5c6589254d55"
             style="fill:#ffffff;fill-opacity:1" />
        </g>
      </g>
      <g
         fill="#000000"
         fill-opacity="1"
         id="id-17e7df7c-e5b0-4646-a110-840b6fa3cde0"
         transform="translate(-257.773,-135.768)"
         style="fill:#ffffff;fill-opacity:1">
        <g
           transform="translate(324.826,144.13)"
           id="g904"
           style="fill:#ffffff;fill-opacity:1">
          <path
             d="m 0.875,-0.59375 c -0.03125,0.15625 -0.09375,0.390625 -0.09375,0.4375 0,0.171875 0.140625,0.265625 0.296875,0.265625 0.125,0 0.296875,-0.078125 0.375,-0.28125 0,-0.015625 0.125,-0.484375 0.1875,-0.734375 l 0.21875,-0.890625 C 1.90625,-2.03125 1.96875,-2.25 2.03125,-2.46875 c 0.03125,-0.171875 0.109375,-0.46875 0.125,-0.5 0.140625,-0.3125 0.671875,-1.21875 1.625,-1.21875 0.453125,0 0.53125,0.375 0.53125,0.703125 0,0.25 -0.0625,0.53125 -0.140625,0.828125 L 3.890625,-1.5 3.6875,-0.75 c -0.03125,0.203125 -0.125,0.546875 -0.125,0.59375 0,0.171875 0.140625,0.265625 0.28125,0.265625 0.3125,0 0.375,-0.25 0.453125,-0.5625 0.140625,-0.5625 0.515625,-2.015625 0.59375,-2.40625 0.03125,-0.125 0.5625,-1.328125 1.65625,-1.328125 0.421875,0 0.53125,0.34375 0.53125,0.703125 0,0.5625 -0.421875,1.703125 -0.625,2.234375 -0.078125,0.234375 -0.125,0.34375 -0.125,0.546875 0,0.46875 0.34375,0.8125 0.8125,0.8125 0.9375,0 1.3125,-1.453125 1.3125,-1.53125 0,-0.109375 -0.09375,-0.109375 -0.125,-0.109375 -0.09375,0 -0.09375,0.03125 -0.140625,0.1875 -0.15625,0.53125 -0.46875,1.234375 -1.015625,1.234375 -0.171875,0 -0.25,-0.09375 -0.25,-0.328125 0,-0.25 0.09375,-0.484375 0.1875,-0.703125 0.1875,-0.53125 0.609375,-1.625 0.609375,-2.203125 0,-0.640625 -0.40625,-1.0625 -1.15625,-1.0625 -0.734375,0 -1.25,0.4375 -1.625,0.96875 0,-0.125 -0.03125,-0.46875 -0.3125,-0.703125 -0.25,-0.21875 -0.5625,-0.265625 -0.8125,-0.265625 -0.90625,0 -1.390625,0.640625 -1.5625,0.875 -0.046875,-0.578125 -0.46875,-0.875 -0.921875,-0.875 -0.453125,0 -0.640625,0.390625 -0.734375,0.5625 -0.171875,0.359375 -0.296875,0.9375 -0.296875,0.96875 0,0.109375 0.09375,0.109375 0.109375,0.109375 0.109375,0 0.109375,-0.015625 0.171875,-0.234375 0.171875,-0.703125 0.375,-1.1875 0.734375,-1.1875 0.15625,0 0.296875,0.078125 0.296875,0.453125 0,0.21875 -0.03125,0.328125 -0.15625,0.84375 z m 0,0"
             id="id-c2c9d3ca-4eca-4f1d-890c-98f30eb3ff67"
             style="fill:#ffffff;fill-opacity:1" />
        </g>
      </g>
      <g
         fill="#000000"
         fill-opacity="1"
         id="id-9e84cfdb-1e53-41be-8afb-2fa7b169808a"
         transform="translate(-257.773,-135.768)"
         style="fill:#ffffff;fill-opacity:1">
        <g
           transform="translate(333.574,145.624)"
           id="g908"
           style="fill:#ffffff;fill-opacity:1">
          <path
             d="M 1.734375,-0.734375 C 1.671875,-0.5 1.4375,-0.125 1.078125,-0.125 c -0.015625,0 -0.234375,0 -0.375,-0.09375 0.28125,-0.09375 0.3125,-0.34375 0.3125,-0.390625 0,-0.15625 -0.125,-0.25 -0.28125,-0.25 -0.203125,0 -0.40625,0.15625 -0.40625,0.421875 0,0.34375 0.390625,0.5 0.734375,0.5 0.328125,0 0.609375,-0.1875 0.78125,-0.484375 C 2.015625,-0.0625 2.390625,0.0625 2.671875,0.0625 c 0.8125,0 1.234375,-0.859375 1.234375,-1.0625 0,-0.09375 -0.09375,-0.09375 -0.109375,-0.09375 -0.109375,0 -0.109375,0.046875 -0.140625,0.125 -0.140625,0.484375 -0.5625,0.84375 -0.953125,0.84375 -0.28125,0 -0.421875,-0.1875 -0.421875,-0.453125 0,-0.1875 0.171875,-0.8125 0.359375,-1.59375 C 2.78125,-2.703125 3.09375,-2.875 3.328125,-2.875 c 0.015625,0 0.21875,0 0.375,0.09375 -0.21875,0.0625 -0.3125,0.265625 -0.3125,0.390625 0,0.140625 0.125,0.25 0.28125,0.25 0.15625,0 0.390625,-0.125 0.390625,-0.421875 0,-0.390625 -0.453125,-0.515625 -0.71875,-0.515625 -0.359375,0 -0.640625,0.234375 -0.78125,0.5 -0.125,-0.28125 -0.453125,-0.5 -0.84375,-0.5 C 0.9375,-3.078125 0.5,-2.21875 0.5,-2 c 0,0.078125 0.09375,0.078125 0.109375,0.078125 0.09375,0 0.09375,-0.015625 0.140625,-0.109375 C 0.921875,-2.578125 1.359375,-2.875 1.703125,-2.875 1.9375,-2.875 2.125,-2.75 2.125,-2.421875 2.125,-2.28125 2.03125,-1.9375 1.96875,-1.6875 Z m 0,0"
             id="id-ff5c6699-9175-4509-b0de-d170b8e12193"
             style="fill:#ffffff;fill-opacity:1" />
        </g>
        <g
           transform="translate(338.092,145.624)"
           id="g911"
           style="fill:#ffffff;fill-opacity:1">
          <path
             d="m 1.171875,-0.609375 c 0.1875,-0.1875 0.3125,-0.3125 0.890625,-0.796875 0.15625,-0.109375 0.671875,-0.53125 0.875,-0.71875 0.421875,-0.421875 0.6875,-0.78125 0.6875,-0.859375 0,-0.09375 -0.078125,-0.09375 -0.109375,-0.09375 -0.0625,0 -0.09375,0.015625 -0.125,0.078125 -0.21875,0.3125 -0.359375,0.421875 -0.53125,0.421875 -0.078125,0 -0.1875,0 -0.390625,-0.203125 -0.234375,-0.25 -0.390625,-0.296875 -0.546875,-0.296875 -0.5625,0 -0.9375,0.609375 -0.9375,0.8125 0,0.078125 0.0625,0.09375 0.109375,0.09375 0.09375,0 0.109375,-0.015625 0.125,-0.09375 0.109375,-0.25 0.5,-0.265625 0.609375,-0.265625 0.171875,0 0.34375,0.046875 0.4375,0.0625 0.390625,0.078125 0.4375,0.078125 0.609375,0.078125 -0.171875,0.203125 -0.296875,0.328125 -0.96875,0.84375 -0.546875,0.4375 -0.734375,0.609375 -0.859375,0.75 -0.421875,0.40625 -0.625,0.71875 -0.625,0.78125 0,0.078125 0.09375,0.078125 0.125,0.078125 0.0625,0 0.078125,0 0.109375,-0.0625 0.1875,-0.265625 0.40625,-0.421875 0.640625,-0.421875 0.09375,0 0.1875,0 0.375,0.171875 0.21875,0.21875 0.359375,0.3125 0.59375,0.3125 C 3,0.0625 3.46875,-0.78125 3.46875,-1.015625 3.46875,-1.09375 3.390625,-1.09375 3.359375,-1.09375 3.265625,-1.09375 3.25,-1.0625 3.21875,-0.984375 3.09375,-0.640625 2.6875,-0.46875 2.34375,-0.46875 2.1875,-0.46875 2,-0.515625 1.828125,-0.546875 1.515625,-0.625 1.453125,-0.625 1.328125,-0.625 c -0.015625,0 -0.109375,0 -0.15625,0.015625 z m 0,0"
             id="id-2b2f9313-ef9d-449c-9dd1-d53832c8e951"
             style="fill:#ffffff;fill-opacity:1" />
        </g>
      </g>
      <g
         fill="#000000"
         fill-opacity="1"
         id="id-2c16bea3-5bfd-4583-bb61-4621bcfaf853"
         transform="translate(-257.773,-135.768)"
         style="fill:#ffffff;fill-opacity:1">
        <g
           transform="translate(268.68,156.085)"
           id="g915"
           style="fill:#ffffff;fill-opacity:1">
          <path
             d="m 0.875,-0.59375 c -0.03125,0.15625 -0.09375,0.390625 -0.09375,0.4375 0,0.171875 0.140625,0.265625 0.296875,0.265625 0.125,0 0.296875,-0.078125 0.375,-0.28125 0,-0.015625 0.125,-0.484375 0.1875,-0.734375 l 0.21875,-0.890625 C 1.90625,-2.03125 1.96875,-2.25 2.03125,-2.46875 c 0.03125,-0.171875 0.109375,-0.46875 0.125,-0.5 0.140625,-0.3125 0.671875,-1.21875 1.625,-1.21875 0.453125,0 0.53125,0.375 0.53125,0.703125 0,0.25 -0.0625,0.53125 -0.140625,0.828125 L 3.890625,-1.5 3.6875,-0.75 c -0.03125,0.203125 -0.125,0.546875 -0.125,0.59375 0,0.171875 0.140625,0.265625 0.28125,0.265625 0.3125,0 0.375,-0.25 0.453125,-0.5625 0.140625,-0.5625 0.515625,-2.015625 0.59375,-2.40625 0.03125,-0.125 0.5625,-1.328125 1.65625,-1.328125 0.421875,0 0.53125,0.34375 0.53125,0.703125 0,0.5625 -0.421875,1.703125 -0.625,2.234375 -0.078125,0.234375 -0.125,0.34375 -0.125,0.546875 0,0.46875 0.34375,0.8125 0.8125,0.8125 0.9375,0 1.3125,-1.453125 1.3125,-1.53125 0,-0.109375 -0.09375,-0.109375 -0.125,-0.109375 -0.09375,0 -0.09375,0.03125 -0.140625,0.1875 -0.15625,0.53125 -0.46875,1.234375 -1.015625,1.234375 -0.171875,0 -0.25,-0.09375 -0.25,-0.328125 0,-0.25 0.09375,-0.484375 0.1875,-0.703125 0.1875,-0.53125 0.609375,-1.625 0.609375,-2.203125 0,-0.640625 -0.40625,-1.0625 -1.15625,-1.0625 -0.734375,0 -1.25,0.4375 -1.625,0.96875 0,-0.125 -0.03125,-0.46875 -0.3125,-0.703125 -0.25,-0.21875 -0.5625,-0.265625 -0.8125,-0.265625 -0.90625,0 -1.390625,0.640625 -1.5625,0.875 -0.046875,-0.578125 -0.46875,-0.875 -0.921875,-0.875 -0.453125,0 -0.640625,0.390625 -0.734375,0.5625 -0.171875,0.359375 -0.296875,0.9375 -0.296875,0.96875 0,0.109375 0.09375,0.109375 0.109375,0.109375 0.109375,0 0.109375,-0.015625 0.171875,-0.234375 0.171875,-0.703125 0.375,-1.1875 0.734375,-1.1875 0.15625,0 0.296875,0.078125 0.296875,0.453125 0,0.21875 -0.03125,0.328125 -0.15625,0.84375 z m 0,0"
             id="id-ba0bc469-6ae0-49fc-b910-ac590a6e9d64"
             style="fill:#ffffff;fill-opacity:1" />
        </g>
      </g>
      <g
         fill="#000000"
         fill-opacity="1"
         id="id-332d9242-f55b-40da-83a1-295a3a74520b"
         transform="translate(-257.773,-135.768)"
         style="fill:#ffffff;fill-opacity:1">
        <g
           transform="translate(277.427,157.579)"
           id="g919"
           style="fill:#ffffff;fill-opacity:1">
          <path
             d="M 3.875,-2.625 C 3.90625,-2.71875 3.90625,-2.734375 3.90625,-2.78125 3.90625,-2.921875 3.796875,-3 3.671875,-3 3.59375,-3 3.46875,-2.96875 3.390625,-2.84375 3.359375,-2.796875 3.3125,-2.578125 3.28125,-2.4375 L 3.125,-1.859375 c -0.03125,0.171875 -0.25,1.046875 -0.28125,1.125 0,0 -0.3125,0.609375 -0.84375,0.609375 -0.484375,0 -0.484375,-0.453125 -0.484375,-0.578125 0,-0.375 0.15625,-0.8125 0.375,-1.359375 C 1.96875,-2.28125 2,-2.359375 2,-2.484375 2,-2.8125 1.71875,-3.078125 1.34375,-3.078125 0.640625,-3.078125 0.328125,-2.125 0.328125,-2 c 0,0.078125 0.09375,0.078125 0.125,0.078125 0.09375,0 0.09375,-0.03125 0.125,-0.109375 C 0.75,-2.609375 1.046875,-2.875 1.328125,-2.875 1.4375,-2.875 1.5,-2.796875 1.5,-2.640625 c 0,0.171875 -0.0625,0.3125 -0.09375,0.40625 C 1.0625,-1.375 1,-1.125 1,-0.8125 1,-0.703125 1,-0.375 1.265625,-0.140625 1.484375,0.03125 1.78125,0.0625 1.96875,0.0625 2.25,0.0625 2.5,-0.03125 2.71875,-0.25 2.640625,0.140625 2.5625,0.4375 2.265625,0.78125 2.078125,1 1.796875,1.21875 1.421875,1.21875 c -0.046875,0 -0.375,0 -0.515625,-0.21875 0.375,-0.046875 0.375,-0.375 0.375,-0.390625 0,-0.21875 -0.203125,-0.265625 -0.265625,-0.265625 -0.171875,0 -0.40625,0.140625 -0.40625,0.46875 0,0.34375 0.328125,0.609375 0.828125,0.609375 C 2.140625,1.421875 3,0.875 3.21875,0 Z m 0,0"
             id="id-fa34e1a9-6401-47ee-8247-a9578d3d91a7"
             style="fill:#ffffff;fill-opacity:1" />
        </g>
      </g>
      <g
         fill="#000000"
         fill-opacity="1"
         id="id-f22341ff-c10a-41f7-b71b-538e74e11244"
         transform="translate(-257.773,-135.768)"
         style="fill:#ffffff;fill-opacity:1">
        <g
           transform="translate(281.719,157.579)"
           id="g923"
           style="fill:#ffffff;fill-opacity:1">
          <path
             d="M 1.734375,-0.734375 C 1.671875,-0.5 1.4375,-0.125 1.078125,-0.125 c -0.015625,0 -0.234375,0 -0.375,-0.09375 0.28125,-0.09375 0.3125,-0.34375 0.3125,-0.390625 0,-0.15625 -0.125,-0.25 -0.28125,-0.25 -0.203125,0 -0.40625,0.15625 -0.40625,0.421875 0,0.34375 0.390625,0.5 0.734375,0.5 0.328125,0 0.609375,-0.1875 0.78125,-0.484375 C 2.015625,-0.0625 2.390625,0.0625 2.671875,0.0625 c 0.8125,0 1.234375,-0.859375 1.234375,-1.0625 0,-0.09375 -0.09375,-0.09375 -0.109375,-0.09375 -0.109375,0 -0.109375,0.046875 -0.140625,0.125 -0.140625,0.484375 -0.5625,0.84375 -0.953125,0.84375 -0.28125,0 -0.421875,-0.1875 -0.421875,-0.453125 0,-0.1875 0.171875,-0.8125 0.359375,-1.59375 C 2.78125,-2.703125 3.09375,-2.875 3.328125,-2.875 c 0.015625,0 0.21875,0 0.375,0.09375 -0.21875,0.0625 -0.3125,0.265625 -0.3125,0.390625 0,0.140625 0.125,0.25 0.28125,0.25 0.15625,0 0.390625,-0.125 0.390625,-0.421875 0,-0.390625 -0.453125,-0.515625 -0.71875,-0.515625 -0.359375,0 -0.640625,0.234375 -0.78125,0.5 -0.125,-0.28125 -0.453125,-0.5 -0.84375,-0.5 C 0.9375,-3.078125 0.5,-2.21875 0.5,-2 c 0,0.078125 0.09375,0.078125 0.109375,0.078125 0.09375,0 0.09375,-0.015625 0.140625,-0.109375 C 0.921875,-2.578125 1.359375,-2.875 1.703125,-2.875 1.9375,-2.875 2.125,-2.75 2.125,-2.421875 2.125,-2.28125 2.03125,-1.9375 1.96875,-1.6875 Z m 0,0"
             id="id-ef159971-f81e-430a-bd14-153639486c50"
             style="fill:#ffffff;fill-opacity:1" />
        </g>
      </g>
      <g
         fill="#000000"
         fill-opacity="1"
         id="id-f8cea1c1-7afa-48cd-a4a8-67111bc6bd32"
         transform="translate(-257.773,-135.768)"
         style="fill:#ffffff;fill-opacity:1">
        <g
           transform="translate(296.923,156.085)"
           id="g927"
           style="fill:#ffffff;fill-opacity:1">
          <path
             d="m 0.875,-0.59375 c -0.03125,0.15625 -0.09375,0.390625 -0.09375,0.4375 0,0.171875 0.140625,0.265625 0.296875,0.265625 0.125,0 0.296875,-0.078125 0.375,-0.28125 0,-0.015625 0.125,-0.484375 0.1875,-0.734375 l 0.21875,-0.890625 C 1.90625,-2.03125 1.96875,-2.25 2.03125,-2.46875 c 0.03125,-0.171875 0.109375,-0.46875 0.125,-0.5 0.140625,-0.3125 0.671875,-1.21875 1.625,-1.21875 0.453125,0 0.53125,0.375 0.53125,0.703125 0,0.25 -0.0625,0.53125 -0.140625,0.828125 L 3.890625,-1.5 3.6875,-0.75 c -0.03125,0.203125 -0.125,0.546875 -0.125,0.59375 0,0.171875 0.140625,0.265625 0.28125,0.265625 0.3125,0 0.375,-0.25 0.453125,-0.5625 0.140625,-0.5625 0.515625,-2.015625 0.59375,-2.40625 0.03125,-0.125 0.5625,-1.328125 1.65625,-1.328125 0.421875,0 0.53125,0.34375 0.53125,0.703125 0,0.5625 -0.421875,1.703125 -0.625,2.234375 -0.078125,0.234375 -0.125,0.34375 -0.125,0.546875 0,0.46875 0.34375,0.8125 0.8125,0.8125 0.9375,0 1.3125,-1.453125 1.3125,-1.53125 0,-0.109375 -0.09375,-0.109375 -0.125,-0.109375 -0.09375,0 -0.09375,0.03125 -0.140625,0.1875 -0.15625,0.53125 -0.46875,1.234375 -1.015625,1.234375 -0.171875,0 -0.25,-0.09375 -0.25,-0.328125 0,-0.25 0.09375,-0.484375 0.1875,-0.703125 0.1875,-0.53125 0.609375,-1.625 0.609375,-2.203125 0,-0.640625 -0.40625,-1.0625 -1.15625,-1.0625 -0.734375,0 -1.25,0.4375 -1.625,0.96875 0,-0.125 -0.03125,-0.46875 -0.3125,-0.703125 -0.25,-0.21875 -0.5625,-0.265625 -0.8125,-0.265625 -0.90625,0 -1.390625,0.640625 -1.5625,0.875 -0.046875,-0.578125 -0.46875,-0.875 -0.921875,-0.875 -0.453125,0 -0.640625,0.390625 -0.734375,0.5625 -0.171875,0.359375 -0.296875,0.9375 -0.296875,0.96875 0,0.109375 0.09375,0.109375 0.109375,0.109375 0.109375,0 0.109375,-0.015625 0.171875,-0.234375 0.171875,-0.703125 0.375,-1.1875 0.734375,-1.1875 0.15625,0 0.296875,0.078125 0.296875,0.453125 0,0.21875 -0.03125,0.328125 -0.15625,0.84375 z m 0,0"
             id="id-85ffb0d2-ee69-4a20-98c3-6fc20557febf"
             style="fill:#ffffff;fill-opacity:1" />
        </g>
      </g>
      <g
         fill="#000000"
         fill-opacity="1"
         id="id-625d9fc3-de35-4934-9999-1651814e8265"
         transform="translate(-257.773,-135.768)"
         style="fill:#ffffff;fill-opacity:1">
        <g
           transform="translate(305.671,157.579)"
           id="g931"
           style="fill:#ffffff;fill-opacity:1">
          <path
             d="M 3.875,-2.625 C 3.90625,-2.71875 3.90625,-2.734375 3.90625,-2.78125 3.90625,-2.921875 3.796875,-3 3.671875,-3 3.59375,-3 3.46875,-2.96875 3.390625,-2.84375 3.359375,-2.796875 3.3125,-2.578125 3.28125,-2.4375 L 3.125,-1.859375 c -0.03125,0.171875 -0.25,1.046875 -0.28125,1.125 0,0 -0.3125,0.609375 -0.84375,0.609375 -0.484375,0 -0.484375,-0.453125 -0.484375,-0.578125 0,-0.375 0.15625,-0.8125 0.375,-1.359375 C 1.96875,-2.28125 2,-2.359375 2,-2.484375 2,-2.8125 1.71875,-3.078125 1.34375,-3.078125 0.640625,-3.078125 0.328125,-2.125 0.328125,-2 c 0,0.078125 0.09375,0.078125 0.125,0.078125 0.09375,0 0.09375,-0.03125 0.125,-0.109375 C 0.75,-2.609375 1.046875,-2.875 1.328125,-2.875 1.4375,-2.875 1.5,-2.796875 1.5,-2.640625 c 0,0.171875 -0.0625,0.3125 -0.09375,0.40625 C 1.0625,-1.375 1,-1.125 1,-0.8125 1,-0.703125 1,-0.375 1.265625,-0.140625 1.484375,0.03125 1.78125,0.0625 1.96875,0.0625 2.25,0.0625 2.5,-0.03125 2.71875,-0.25 2.640625,0.140625 2.5625,0.4375 2.265625,0.78125 2.078125,1 1.796875,1.21875 1.421875,1.21875 c -0.046875,0 -0.375,0 -0.515625,-0.21875 0.375,-0.046875 0.375,-0.375 0.375,-0.390625 0,-0.21875 -0.203125,-0.265625 -0.265625,-0.265625 -0.171875,0 -0.40625,0.140625 -0.40625,0.46875 0,0.34375 0.328125,0.609375 0.828125,0.609375 C 2.140625,1.421875 3,0.875 3.21875,0 Z m 0,0"
             id="id-31278803-a7da-47fa-b559-5e9387aea4ac"
             style="fill:#ffffff;fill-opacity:1" />
        </g>
      </g>
      <g
         fill="#000000"
         fill-opacity="1"
         id="id-89bd30ae-c2ae-4f8d-b775-41aab5d34f6c"
         transform="translate(-257.773,-135.768)"
         style="fill:#ffffff;fill-opacity:1">
        <g
           transform="translate(309.963,157.579)"
           id="g935"
           style="fill:#ffffff;fill-opacity:1">
          <path
             d="M 3.875,-2.625 C 3.90625,-2.71875 3.90625,-2.734375 3.90625,-2.78125 3.90625,-2.921875 3.796875,-3 3.671875,-3 3.59375,-3 3.46875,-2.96875 3.390625,-2.84375 3.359375,-2.796875 3.3125,-2.578125 3.28125,-2.4375 L 3.125,-1.859375 c -0.03125,0.171875 -0.25,1.046875 -0.28125,1.125 0,0 -0.3125,0.609375 -0.84375,0.609375 -0.484375,0 -0.484375,-0.453125 -0.484375,-0.578125 0,-0.375 0.15625,-0.8125 0.375,-1.359375 C 1.96875,-2.28125 2,-2.359375 2,-2.484375 2,-2.8125 1.71875,-3.078125 1.34375,-3.078125 0.640625,-3.078125 0.328125,-2.125 0.328125,-2 c 0,0.078125 0.09375,0.078125 0.125,0.078125 0.09375,0 0.09375,-0.03125 0.125,-0.109375 C 0.75,-2.609375 1.046875,-2.875 1.328125,-2.875 1.4375,-2.875 1.5,-2.796875 1.5,-2.640625 c 0,0.171875 -0.0625,0.3125 -0.09375,0.40625 C 1.0625,-1.375 1,-1.125 1,-0.8125 1,-0.703125 1,-0.375 1.265625,-0.140625 1.484375,0.03125 1.78125,0.0625 1.96875,0.0625 2.25,0.0625 2.5,-0.03125 2.71875,-0.25 2.640625,0.140625 2.5625,0.4375 2.265625,0.78125 2.078125,1 1.796875,1.21875 1.421875,1.21875 c -0.046875,0 -0.375,0 -0.515625,-0.21875 0.375,-0.046875 0.375,-0.375 0.375,-0.390625 0,-0.21875 -0.203125,-0.265625 -0.265625,-0.265625 -0.171875,0 -0.40625,0.140625 -0.40625,0.46875 0,0.34375 0.328125,0.609375 0.828125,0.609375 C 2.140625,1.421875 3,0.875 3.21875,0 Z m 0,0"
             id="id-df7665e9-76ab-4e6b-a240-4b96ad6794d6"
             style="fill:#ffffff;fill-opacity:1" />
        </g>
      </g>
      <g
         fill="#000000"
         fill-opacity="1"
         id="id-ad52d279-8936-4a6a-813f-35bee9bdb0e3"
         transform="translate(-257.773,-135.768)"
         style="fill:#ffffff;fill-opacity:1">
        <g
           transform="translate(324.94,156.085)"
           id="g939"
           style="fill:#ffffff;fill-opacity:1">
          <path
             d="m 0.875,-0.59375 c -0.03125,0.15625 -0.09375,0.390625 -0.09375,0.4375 0,0.171875 0.140625,0.265625 0.296875,0.265625 0.125,0 0.296875,-0.078125 0.375,-0.28125 0,-0.015625 0.125,-0.484375 0.1875,-0.734375 l 0.21875,-0.890625 C 1.90625,-2.03125 1.96875,-2.25 2.03125,-2.46875 c 0.03125,-0.171875 0.109375,-0.46875 0.125,-0.5 0.140625,-0.3125 0.671875,-1.21875 1.625,-1.21875 0.453125,0 0.53125,0.375 0.53125,0.703125 0,0.25 -0.0625,0.53125 -0.140625,0.828125 L 3.890625,-1.5 3.6875,-0.75 c -0.03125,0.203125 -0.125,0.546875 -0.125,0.59375 0,0.171875 0.140625,0.265625 0.28125,0.265625 0.3125,0 0.375,-0.25 0.453125,-0.5625 0.140625,-0.5625 0.515625,-2.015625 0.59375,-2.40625 0.03125,-0.125 0.5625,-1.328125 1.65625,-1.328125 0.421875,0 0.53125,0.34375 0.53125,0.703125 0,0.5625 -0.421875,1.703125 -0.625,2.234375 -0.078125,0.234375 -0.125,0.34375 -0.125,0.546875 0,0.46875 0.34375,0.8125 0.8125,0.8125 0.9375,0 1.3125,-1.453125 1.3125,-1.53125 0,-0.109375 -0.09375,-0.109375 -0.125,-0.109375 -0.09375,0 -0.09375,0.03125 -0.140625,0.1875 -0.15625,0.53125 -0.46875,1.234375 -1.015625,1.234375 -0.171875,0 -0.25,-0.09375 -0.25,-0.328125 0,-0.25 0.09375,-0.484375 0.1875,-0.703125 0.1875,-0.53125 0.609375,-1.625 0.609375,-2.203125 0,-0.640625 -0.40625,-1.0625 -1.15625,-1.0625 -0.734375,0 -1.25,0.4375 -1.625,0.96875 0,-0.125 -0.03125,-0.46875 -0.3125,-0.703125 -0.25,-0.21875 -0.5625,-0.265625 -0.8125,-0.265625 -0.90625,0 -1.390625,0.640625 -1.5625,0.875 -0.046875,-0.578125 -0.46875,-0.875 -0.921875,-0.875 -0.453125,0 -0.640625,0.390625 -0.734375,0.5625 -0.171875,0.359375 -0.296875,0.9375 -0.296875,0.96875 0,0.109375 0.09375,0.109375 0.109375,0.109375 0.109375,0 0.109375,-0.015625 0.171875,-0.234375 0.171875,-0.703125 0.375,-1.1875 0.734375,-1.1875 0.15625,0 0.296875,0.078125 0.296875,0.453125 0,0.21875 -0.03125,0.328125 -0.15625,0.84375 z m 0,0"
             id="id-f7dbdb9f-24c6-4470-92e9-d4932aa2b083"
             style="fill:#ffffff;fill-opacity:1" />
        </g>
      </g>
      <g
         fill="#000000"
         fill-opacity="1"
         id="id-f8802ba0-0f02-4a67-98c0-b3c907f11b0c"
         transform="translate(-257.773,-135.768)"
         style="fill:#ffffff;fill-opacity:1">
        <g
           transform="translate(333.687,157.579)"
           id="g943"
           style="fill:#ffffff;fill-opacity:1">
          <path
             d="M 3.875,-2.625 C 3.90625,-2.71875 3.90625,-2.734375 3.90625,-2.78125 3.90625,-2.921875 3.796875,-3 3.671875,-3 3.59375,-3 3.46875,-2.96875 3.390625,-2.84375 3.359375,-2.796875 3.3125,-2.578125 3.28125,-2.4375 L 3.125,-1.859375 c -0.03125,0.171875 -0.25,1.046875 -0.28125,1.125 0,0 -0.3125,0.609375 -0.84375,0.609375 -0.484375,0 -0.484375,-0.453125 -0.484375,-0.578125 0,-0.375 0.15625,-0.8125 0.375,-1.359375 C 1.96875,-2.28125 2,-2.359375 2,-2.484375 2,-2.8125 1.71875,-3.078125 1.34375,-3.078125 0.640625,-3.078125 0.328125,-2.125 0.328125,-2 c 0,0.078125 0.09375,0.078125 0.125,0.078125 0.09375,0 0.09375,-0.03125 0.125,-0.109375 C 0.75,-2.609375 1.046875,-2.875 1.328125,-2.875 1.4375,-2.875 1.5,-2.796875 1.5,-2.640625 c 0,0.171875 -0.0625,0.3125 -0.09375,0.40625 C 1.0625,-1.375 1,-1.125 1,-0.8125 1,-0.703125 1,-0.375 1.265625,-0.140625 1.484375,0.03125 1.78125,0.0625 1.96875,0.0625 2.25,0.0625 2.5,-0.03125 2.71875,-0.25 2.640625,0.140625 2.5625,0.4375 2.265625,0.78125 2.078125,1 1.796875,1.21875 1.421875,1.21875 c -0.046875,0 -0.375,0 -0.515625,-0.21875 0.375,-0.046875 0.375,-0.375 0.375,-0.390625 0,-0.21875 -0.203125,-0.265625 -0.265625,-0.265625 -0.171875,0 -0.40625,0.140625 -0.40625,0.46875 0,0.34375 0.328125,0.609375 0.828125,0.609375 C 2.140625,1.421875 3,0.875 3.21875,0 Z m 0,0"
             id="id-66ee3769-cb4e-45d8-b8e8-30075083ae12"
             style="fill:#ffffff;fill-opacity:1" />
        </g>
      </g>
      <g
         fill="#000000"
         fill-opacity="1"
         id="id-d3e896a9-041a-49ec-8201-de57a951072d"
         transform="translate(-257.773,-135.768)"
         style="fill:#ffffff;fill-opacity:1">
        <g
           transform="translate(337.979,157.579)"
           id="g947"
           style="fill:#ffffff;fill-opacity:1">
          <path
             d="m 1.171875,-0.609375 c 0.1875,-0.1875 0.3125,-0.3125 0.890625,-0.796875 0.15625,-0.109375 0.671875,-0.53125 0.875,-0.71875 0.421875,-0.421875 0.6875,-0.78125 0.6875,-0.859375 0,-0.09375 -0.078125,-0.09375 -0.109375,-0.09375 -0.0625,0 -0.09375,0.015625 -0.125,0.078125 -0.21875,0.3125 -0.359375,0.421875 -0.53125,0.421875 -0.078125,0 -0.1875,0 -0.390625,-0.203125 -0.234375,-0.25 -0.390625,-0.296875 -0.546875,-0.296875 -0.5625,0 -0.9375,0.609375 -0.9375,0.8125 0,0.078125 0.0625,0.09375 0.109375,0.09375 0.09375,0 0.109375,-0.015625 0.125,-0.09375 0.109375,-0.25 0.5,-0.265625 0.609375,-0.265625 0.171875,0 0.34375,0.046875 0.4375,0.0625 0.390625,0.078125 0.4375,0.078125 0.609375,0.078125 -0.171875,0.203125 -0.296875,0.328125 -0.96875,0.84375 -0.546875,0.4375 -0.734375,0.609375 -0.859375,0.75 -0.421875,0.40625 -0.625,0.71875 -0.625,0.78125 0,0.078125 0.09375,0.078125 0.125,0.078125 0.0625,0 0.078125,0 0.109375,-0.0625 0.1875,-0.265625 0.40625,-0.421875 0.640625,-0.421875 0.09375,0 0.1875,0 0.375,0.171875 0.21875,0.21875 0.359375,0.3125 0.59375,0.3125 C 3,0.0625 3.46875,-0.78125 3.46875,-1.015625 3.46875,-1.09375 3.390625,-1.09375 3.359375,-1.09375 3.265625,-1.09375 3.25,-1.0625 3.21875,-0.984375 3.09375,-0.640625 2.6875,-0.46875 2.34375,-0.46875 2.1875,-0.46875 2,-0.515625 1.828125,-0.546875 1.515625,-0.625 1.453125,-0.625 1.328125,-0.625 c -0.015625,0 -0.109375,0 -0.15625,0.015625 z m 0,0"
             id="id-a229c72a-70f4-4ad1-b42e-c87e7985fa6c"
             style="fill:#ffffff;fill-opacity:1" />
        </g>
      </g>
      <g
         fill="#000000"
         fill-opacity="1"
         id="id-4ac9731b-18ef-4509-9fff-086de4fc56b5"
         transform="translate(-257.773,-135.768)"
         style="fill:#ffffff;fill-opacity:1">
        <g
           transform="translate(268.779,168.04)"
           id="g951"
           style="fill:#ffffff;fill-opacity:1">
          <path
             d="m 0.875,-0.59375 c -0.03125,0.15625 -0.09375,0.390625 -0.09375,0.4375 0,0.171875 0.140625,0.265625 0.296875,0.265625 0.125,0 0.296875,-0.078125 0.375,-0.28125 0,-0.015625 0.125,-0.484375 0.1875,-0.734375 l 0.21875,-0.890625 C 1.90625,-2.03125 1.96875,-2.25 2.03125,-2.46875 c 0.03125,-0.171875 0.109375,-0.46875 0.125,-0.5 0.140625,-0.3125 0.671875,-1.21875 1.625,-1.21875 0.453125,0 0.53125,0.375 0.53125,0.703125 0,0.25 -0.0625,0.53125 -0.140625,0.828125 L 3.890625,-1.5 3.6875,-0.75 c -0.03125,0.203125 -0.125,0.546875 -0.125,0.59375 0,0.171875 0.140625,0.265625 0.28125,0.265625 0.3125,0 0.375,-0.25 0.453125,-0.5625 0.140625,-0.5625 0.515625,-2.015625 0.59375,-2.40625 0.03125,-0.125 0.5625,-1.328125 1.65625,-1.328125 0.421875,0 0.53125,0.34375 0.53125,0.703125 0,0.5625 -0.421875,1.703125 -0.625,2.234375 -0.078125,0.234375 -0.125,0.34375 -0.125,0.546875 0,0.46875 0.34375,0.8125 0.8125,0.8125 0.9375,0 1.3125,-1.453125 1.3125,-1.53125 0,-0.109375 -0.09375,-0.109375 -0.125,-0.109375 -0.09375,0 -0.09375,0.03125 -0.140625,0.1875 -0.15625,0.53125 -0.46875,1.234375 -1.015625,1.234375 -0.171875,0 -0.25,-0.09375 -0.25,-0.328125 0,-0.25 0.09375,-0.484375 0.1875,-0.703125 0.1875,-0.53125 0.609375,-1.625 0.609375,-2.203125 0,-0.640625 -0.40625,-1.0625 -1.15625,-1.0625 -0.734375,0 -1.25,0.4375 -1.625,0.96875 0,-0.125 -0.03125,-0.46875 -0.3125,-0.703125 -0.25,-0.21875 -0.5625,-0.265625 -0.8125,-0.265625 -0.90625,0 -1.390625,0.640625 -1.5625,0.875 -0.046875,-0.578125 -0.46875,-0.875 -0.921875,-0.875 -0.453125,0 -0.640625,0.390625 -0.734375,0.5625 -0.171875,0.359375 -0.296875,0.9375 -0.296875,0.96875 0,0.109375 0.09375,0.109375 0.109375,0.109375 0.109375,0 0.109375,-0.015625 0.171875,-0.234375 0.171875,-0.703125 0.375,-1.1875 0.734375,-1.1875 0.15625,0 0.296875,0.078125 0.296875,0.453125 0,0.21875 -0.03125,0.328125 -0.15625,0.84375 z m 0,0"
             id="id-ee9c171b-03d7-4cfe-8c43-9a3d22feb7da"
             style="fill:#ffffff;fill-opacity:1" />
        </g>
      </g>
      <g
         fill="#000000"
         fill-opacity="1"
         id="id-5807e9e7-8168-48ad-98f5-f6047b9900cf"
         transform="translate(-257.773,-135.768)"
         style="fill:#ffffff;fill-opacity:1">
        <g
           transform="translate(277.526,169.534)"
           id="g955"
           style="fill:#ffffff;fill-opacity:1">
          <path
             d="m 1.171875,-0.609375 c 0.1875,-0.1875 0.3125,-0.3125 0.890625,-0.796875 0.15625,-0.109375 0.671875,-0.53125 0.875,-0.71875 0.421875,-0.421875 0.6875,-0.78125 0.6875,-0.859375 0,-0.09375 -0.078125,-0.09375 -0.109375,-0.09375 -0.0625,0 -0.09375,0.015625 -0.125,0.078125 -0.21875,0.3125 -0.359375,0.421875 -0.53125,0.421875 -0.078125,0 -0.1875,0 -0.390625,-0.203125 -0.234375,-0.25 -0.390625,-0.296875 -0.546875,-0.296875 -0.5625,0 -0.9375,0.609375 -0.9375,0.8125 0,0.078125 0.0625,0.09375 0.109375,0.09375 0.09375,0 0.109375,-0.015625 0.125,-0.09375 0.109375,-0.25 0.5,-0.265625 0.609375,-0.265625 0.171875,0 0.34375,0.046875 0.4375,0.0625 0.390625,0.078125 0.4375,0.078125 0.609375,0.078125 -0.171875,0.203125 -0.296875,0.328125 -0.96875,0.84375 -0.546875,0.4375 -0.734375,0.609375 -0.859375,0.75 -0.421875,0.40625 -0.625,0.71875 -0.625,0.78125 0,0.078125 0.09375,0.078125 0.125,0.078125 0.0625,0 0.078125,0 0.109375,-0.0625 0.1875,-0.265625 0.40625,-0.421875 0.640625,-0.421875 0.09375,0 0.1875,0 0.375,0.171875 0.21875,0.21875 0.359375,0.3125 0.59375,0.3125 C 3,0.0625 3.46875,-0.78125 3.46875,-1.015625 3.46875,-1.09375 3.390625,-1.09375 3.359375,-1.09375 3.265625,-1.09375 3.25,-1.0625 3.21875,-0.984375 3.09375,-0.640625 2.6875,-0.46875 2.34375,-0.46875 2.1875,-0.46875 2,-0.515625 1.828125,-0.546875 1.515625,-0.625 1.453125,-0.625 1.328125,-0.625 c -0.015625,0 -0.109375,0 -0.15625,0.015625 z m 0,0"
             id="id-d56e839c-a85b-4813-8aa4-4c60dbf72b03"
             style="fill:#ffffff;fill-opacity:1" />
        </g>
      </g>
      <g
         fill="#000000"
         fill-opacity="1"
         id="id-a6e2612f-14d9-4c6b-a0e3-a50037479f13"
         transform="translate(-257.773,-135.768)"
         style="fill:#ffffff;fill-opacity:1">
        <g
           transform="translate(281.618,169.534)"
           id="g959"
           style="fill:#ffffff;fill-opacity:1">
          <path
             d="M 1.734375,-0.734375 C 1.671875,-0.5 1.4375,-0.125 1.078125,-0.125 c -0.015625,0 -0.234375,0 -0.375,-0.09375 0.28125,-0.09375 0.3125,-0.34375 0.3125,-0.390625 0,-0.15625 -0.125,-0.25 -0.28125,-0.25 -0.203125,0 -0.40625,0.15625 -0.40625,0.421875 0,0.34375 0.390625,0.5 0.734375,0.5 0.328125,0 0.609375,-0.1875 0.78125,-0.484375 C 2.015625,-0.0625 2.390625,0.0625 2.671875,0.0625 c 0.8125,0 1.234375,-0.859375 1.234375,-1.0625 0,-0.09375 -0.09375,-0.09375 -0.109375,-0.09375 -0.109375,0 -0.109375,0.046875 -0.140625,0.125 -0.140625,0.484375 -0.5625,0.84375 -0.953125,0.84375 -0.28125,0 -0.421875,-0.1875 -0.421875,-0.453125 0,-0.1875 0.171875,-0.8125 0.359375,-1.59375 C 2.78125,-2.703125 3.09375,-2.875 3.328125,-2.875 c 0.015625,0 0.21875,0 0.375,0.09375 -0.21875,0.0625 -0.3125,0.265625 -0.3125,0.390625 0,0.140625 0.125,0.25 0.28125,0.25 0.15625,0 0.390625,-0.125 0.390625,-0.421875 0,-0.390625 -0.453125,-0.515625 -0.71875,-0.515625 -0.359375,0 -0.640625,0.234375 -0.78125,0.5 -0.125,-0.28125 -0.453125,-0.5 -0.84375,-0.5 C 0.9375,-3.078125 0.5,-2.21875 0.5,-2 c 0,0.078125 0.09375,0.078125 0.109375,0.078125 0.09375,0 0.09375,-0.015625 0.140625,-0.109375 C 0.921875,-2.578125 1.359375,-2.875 1.703125,-2.875 1.9375,-2.875 2.125,-2.75 2.125,-2.421875 2.125,-2.28125 2.03125,-1.9375 1.96875,-1.6875 Z m 0,0"
             id="id-190665d4-60fd-4bf0-be65-dd9b535d2bbe"
             style="fill:#ffffff;fill-opacity:1" />
        </g>
      </g>
      <g
         fill="#000000"
         fill-opacity="1"
         id="id-87b11844-d045-4ca9-a997-474f35b7f373"
         transform="translate(-257.773,-135.768)"
         style="fill:#ffffff;fill-opacity:1">
        <g
           transform="translate(297.022,168.04)"
           id="g963"
           style="fill:#ffffff;fill-opacity:1">
          <path
             d="m 0.875,-0.59375 c -0.03125,0.15625 -0.09375,0.390625 -0.09375,0.4375 0,0.171875 0.140625,0.265625 0.296875,0.265625 0.125,0 0.296875,-0.078125 0.375,-0.28125 0,-0.015625 0.125,-0.484375 0.1875,-0.734375 l 0.21875,-0.890625 C 1.90625,-2.03125 1.96875,-2.25 2.03125,-2.46875 c 0.03125,-0.171875 0.109375,-0.46875 0.125,-0.5 0.140625,-0.3125 0.671875,-1.21875 1.625,-1.21875 0.453125,0 0.53125,0.375 0.53125,0.703125 0,0.25 -0.0625,0.53125 -0.140625,0.828125 L 3.890625,-1.5 3.6875,-0.75 c -0.03125,0.203125 -0.125,0.546875 -0.125,0.59375 0,0.171875 0.140625,0.265625 0.28125,0.265625 0.3125,0 0.375,-0.25 0.453125,-0.5625 0.140625,-0.5625 0.515625,-2.015625 0.59375,-2.40625 0.03125,-0.125 0.5625,-1.328125 1.65625,-1.328125 0.421875,0 0.53125,0.34375 0.53125,0.703125 0,0.5625 -0.421875,1.703125 -0.625,2.234375 -0.078125,0.234375 -0.125,0.34375 -0.125,0.546875 0,0.46875 0.34375,0.8125 0.8125,0.8125 0.9375,0 1.3125,-1.453125 1.3125,-1.53125 0,-0.109375 -0.09375,-0.109375 -0.125,-0.109375 -0.09375,0 -0.09375,0.03125 -0.140625,0.1875 -0.15625,0.53125 -0.46875,1.234375 -1.015625,1.234375 -0.171875,0 -0.25,-0.09375 -0.25,-0.328125 0,-0.25 0.09375,-0.484375 0.1875,-0.703125 0.1875,-0.53125 0.609375,-1.625 0.609375,-2.203125 0,-0.640625 -0.40625,-1.0625 -1.15625,-1.0625 -0.734375,0 -1.25,0.4375 -1.625,0.96875 0,-0.125 -0.03125,-0.46875 -0.3125,-0.703125 -0.25,-0.21875 -0.5625,-0.265625 -0.8125,-0.265625 -0.90625,0 -1.390625,0.640625 -1.5625,0.875 -0.046875,-0.578125 -0.46875,-0.875 -0.921875,-0.875 -0.453125,0 -0.640625,0.390625 -0.734375,0.5625 -0.171875,0.359375 -0.296875,0.9375 -0.296875,0.96875 0,0.109375 0.09375,0.109375 0.109375,0.109375 0.109375,0 0.109375,-0.015625 0.171875,-0.234375 0.171875,-0.703125 0.375,-1.1875 0.734375,-1.1875 0.15625,0 0.296875,0.078125 0.296875,0.453125 0,0.21875 -0.03125,0.328125 -0.15625,0.84375 z m 0,0"
             id="id-b522b7db-5ed8-4cc5-b18d-76ec7fba9405"
             style="fill:#ffffff;fill-opacity:1" />
        </g>
      </g>
      <g
         fill="#000000"
         fill-opacity="1"
         id="id-808b7607-8a65-4d7e-b693-2b6ac924af7d"
         transform="translate(-257.773,-135.768)"
         style="fill:#ffffff;fill-opacity:1">
        <g
           transform="translate(305.77,169.534)"
           id="g967"
           style="fill:#ffffff;fill-opacity:1">
          <path
             d="m 1.171875,-0.609375 c 0.1875,-0.1875 0.3125,-0.3125 0.890625,-0.796875 0.15625,-0.109375 0.671875,-0.53125 0.875,-0.71875 0.421875,-0.421875 0.6875,-0.78125 0.6875,-0.859375 0,-0.09375 -0.078125,-0.09375 -0.109375,-0.09375 -0.0625,0 -0.09375,0.015625 -0.125,0.078125 -0.21875,0.3125 -0.359375,0.421875 -0.53125,0.421875 -0.078125,0 -0.1875,0 -0.390625,-0.203125 -0.234375,-0.25 -0.390625,-0.296875 -0.546875,-0.296875 -0.5625,0 -0.9375,0.609375 -0.9375,0.8125 0,0.078125 0.0625,0.09375 0.109375,0.09375 0.09375,0 0.109375,-0.015625 0.125,-0.09375 0.109375,-0.25 0.5,-0.265625 0.609375,-0.265625 0.171875,0 0.34375,0.046875 0.4375,0.0625 0.390625,0.078125 0.4375,0.078125 0.609375,0.078125 -0.171875,0.203125 -0.296875,0.328125 -0.96875,0.84375 -0.546875,0.4375 -0.734375,0.609375 -0.859375,0.75 -0.421875,0.40625 -0.625,0.71875 -0.625,0.78125 0,0.078125 0.09375,0.078125 0.125,0.078125 0.0625,0 0.078125,0 0.109375,-0.0625 0.1875,-0.265625 0.40625,-0.421875 0.640625,-0.421875 0.09375,0 0.1875,0 0.375,0.171875 0.21875,0.21875 0.359375,0.3125 0.59375,0.3125 C 3,0.0625 3.46875,-0.78125 3.46875,-1.015625 3.46875,-1.09375 3.390625,-1.09375 3.359375,-1.09375 3.265625,-1.09375 3.25,-1.0625 3.21875,-0.984375 3.09375,-0.640625 2.6875,-0.46875 2.34375,-0.46875 2.1875,-0.46875 2,-0.515625 1.828125,-0.546875 1.515625,-0.625 1.453125,-0.625 1.328125,-0.625 c -0.015625,0 -0.109375,0 -0.15625,0.015625 z m 0,0"
             id="id-7d367ae3-8170-440e-9953-bbca1789e8ce"
             style="fill:#ffffff;fill-opacity:1" />
        </g>
      </g>
      <g
         fill="#000000"
         fill-opacity="1"
         id="id-6fb513d6-792e-46bd-af12-d540f9683e88"
         transform="translate(-257.773,-135.768)"
         style="fill:#ffffff;fill-opacity:1">
        <g
           transform="translate(309.862,169.534)"
           id="g971"
           style="fill:#ffffff;fill-opacity:1">
          <path
             d="M 3.875,-2.625 C 3.90625,-2.71875 3.90625,-2.734375 3.90625,-2.78125 3.90625,-2.921875 3.796875,-3 3.671875,-3 3.59375,-3 3.46875,-2.96875 3.390625,-2.84375 3.359375,-2.796875 3.3125,-2.578125 3.28125,-2.4375 L 3.125,-1.859375 c -0.03125,0.171875 -0.25,1.046875 -0.28125,1.125 0,0 -0.3125,0.609375 -0.84375,0.609375 -0.484375,0 -0.484375,-0.453125 -0.484375,-0.578125 0,-0.375 0.15625,-0.8125 0.375,-1.359375 C 1.96875,-2.28125 2,-2.359375 2,-2.484375 2,-2.8125 1.71875,-3.078125 1.34375,-3.078125 0.640625,-3.078125 0.328125,-2.125 0.328125,-2 c 0,0.078125 0.09375,0.078125 0.125,0.078125 0.09375,0 0.09375,-0.03125 0.125,-0.109375 C 0.75,-2.609375 1.046875,-2.875 1.328125,-2.875 1.4375,-2.875 1.5,-2.796875 1.5,-2.640625 c 0,0.171875 -0.0625,0.3125 -0.09375,0.40625 C 1.0625,-1.375 1,-1.125 1,-0.8125 1,-0.703125 1,-0.375 1.265625,-0.140625 1.484375,0.03125 1.78125,0.0625 1.96875,0.0625 2.25,0.0625 2.5,-0.03125 2.71875,-0.25 2.640625,0.140625 2.5625,0.4375 2.265625,0.78125 2.078125,1 1.796875,1.21875 1.421875,1.21875 c -0.046875,0 -0.375,0 -0.515625,-0.21875 0.375,-0.046875 0.375,-0.375 0.375,-0.390625 0,-0.21875 -0.203125,-0.265625 -0.265625,-0.265625 -0.171875,0 -0.40625,0.140625 -0.40625,0.46875 0,0.34375 0.328125,0.609375 0.828125,0.609375 C 2.140625,1.421875 3,0.875 3.21875,0 Z m 0,0"
             id="id-deb56956-94f0-4015-ab13-5be75eebb1c5"
             style="fill:#ffffff;fill-opacity:1" />
        </g>
      </g>
      <g
         fill="#000000"
         fill-opacity="1"
         id="id-8539318e-a78e-4b92-bf81-207527e28bc6"
         transform="translate(-257.773,-135.768)"
         style="fill:#ffffff;fill-opacity:1">
        <g
           transform="translate(325.039,168.04)"
           id="g975"
           style="fill:#ffffff;fill-opacity:1">
          <path
             d="m 0.875,-0.59375 c -0.03125,0.15625 -0.09375,0.390625 -0.09375,0.4375 0,0.171875 0.140625,0.265625 0.296875,0.265625 0.125,0 0.296875,-0.078125 0.375,-0.28125 0,-0.015625 0.125,-0.484375 0.1875,-0.734375 l 0.21875,-0.890625 C 1.90625,-2.03125 1.96875,-2.25 2.03125,-2.46875 c 0.03125,-0.171875 0.109375,-0.46875 0.125,-0.5 0.140625,-0.3125 0.671875,-1.21875 1.625,-1.21875 0.453125,0 0.53125,0.375 0.53125,0.703125 0,0.25 -0.0625,0.53125 -0.140625,0.828125 L 3.890625,-1.5 3.6875,-0.75 c -0.03125,0.203125 -0.125,0.546875 -0.125,0.59375 0,0.171875 0.140625,0.265625 0.28125,0.265625 0.3125,0 0.375,-0.25 0.453125,-0.5625 0.140625,-0.5625 0.515625,-2.015625 0.59375,-2.40625 0.03125,-0.125 0.5625,-1.328125 1.65625,-1.328125 0.421875,0 0.53125,0.34375 0.53125,0.703125 0,0.5625 -0.421875,1.703125 -0.625,2.234375 -0.078125,0.234375 -0.125,0.34375 -0.125,0.546875 0,0.46875 0.34375,0.8125 0.8125,0.8125 0.9375,0 1.3125,-1.453125 1.3125,-1.53125 0,-0.109375 -0.09375,-0.109375 -0.125,-0.109375 -0.09375,0 -0.09375,0.03125 -0.140625,0.1875 -0.15625,0.53125 -0.46875,1.234375 -1.015625,1.234375 -0.171875,0 -0.25,-0.09375 -0.25,-0.328125 0,-0.25 0.09375,-0.484375 0.1875,-0.703125 0.1875,-0.53125 0.609375,-1.625 0.609375,-2.203125 0,-0.640625 -0.40625,-1.0625 -1.15625,-1.0625 -0.734375,0 -1.25,0.4375 -1.625,0.96875 0,-0.125 -0.03125,-0.46875 -0.3125,-0.703125 -0.25,-0.21875 -0.5625,-0.265625 -0.8125,-0.265625 -0.90625,0 -1.390625,0.640625 -1.5625,0.875 -0.046875,-0.578125 -0.46875,-0.875 -0.921875,-0.875 -0.453125,0 -0.640625,0.390625 -0.734375,0.5625 -0.171875,0.359375 -0.296875,0.9375 -0.296875,0.96875 0,0.109375 0.09375,0.109375 0.109375,0.109375 0.109375,0 0.109375,-0.015625 0.171875,-0.234375 0.171875,-0.703125 0.375,-1.1875 0.734375,-1.1875 0.15625,0 0.296875,0.078125 0.296875,0.453125 0,0.21875 -0.03125,0.328125 -0.15625,0.84375 z m 0,0"
             id="id-38f88a71-0dfc-49ef-b6a4-120f9053f9fc"
             style="fill:#ffffff;fill-opacity:1" />
        </g>
      </g>
      <g
         fill="#000000"
         fill-opacity="1"
         id="id-fc1a963a-1eb7-47c0-ad48-e2348a614bd2"
         transform="translate(-257.773,-135.768)"
         style="fill:#ffffff;fill-opacity:1">
        <g
           transform="translate(333.786,169.534)"
           id="g979"
           style="fill:#ffffff;fill-opacity:1">
          <path
             d="m 1.171875,-0.609375 c 0.1875,-0.1875 0.3125,-0.3125 0.890625,-0.796875 0.15625,-0.109375 0.671875,-0.53125 0.875,-0.71875 0.421875,-0.421875 0.6875,-0.78125 0.6875,-0.859375 0,-0.09375 -0.078125,-0.09375 -0.109375,-0.09375 -0.0625,0 -0.09375,0.015625 -0.125,0.078125 -0.21875,0.3125 -0.359375,0.421875 -0.53125,0.421875 -0.078125,0 -0.1875,0 -0.390625,-0.203125 -0.234375,-0.25 -0.390625,-0.296875 -0.546875,-0.296875 -0.5625,0 -0.9375,0.609375 -0.9375,0.8125 0,0.078125 0.0625,0.09375 0.109375,0.09375 0.09375,0 0.109375,-0.015625 0.125,-0.09375 0.109375,-0.25 0.5,-0.265625 0.609375,-0.265625 0.171875,0 0.34375,0.046875 0.4375,0.0625 0.390625,0.078125 0.4375,0.078125 0.609375,0.078125 -0.171875,0.203125 -0.296875,0.328125 -0.96875,0.84375 -0.546875,0.4375 -0.734375,0.609375 -0.859375,0.75 -0.421875,0.40625 -0.625,0.71875 -0.625,0.78125 0,0.078125 0.09375,0.078125 0.125,0.078125 0.0625,0 0.078125,0 0.109375,-0.0625 0.1875,-0.265625 0.40625,-0.421875 0.640625,-0.421875 0.09375,0 0.1875,0 0.375,0.171875 0.21875,0.21875 0.359375,0.3125 0.59375,0.3125 C 3,0.0625 3.46875,-0.78125 3.46875,-1.015625 3.46875,-1.09375 3.390625,-1.09375 3.359375,-1.09375 3.265625,-1.09375 3.25,-1.0625 3.21875,-0.984375 3.09375,-0.640625 2.6875,-0.46875 2.34375,-0.46875 2.1875,-0.46875 2,-0.515625 1.828125,-0.546875 1.515625,-0.625 1.453125,-0.625 1.328125,-0.625 c -0.015625,0 -0.109375,0 -0.15625,0.015625 z m 0,0"
             id="id-6208db84-50e8-4947-a7c9-b762f59cc5b3"
             style="fill:#ffffff;fill-opacity:1" />
        </g>
      </g>
      <g
         fill="#000000"
         fill-opacity="1"
         id="id-6cc2c48f-3f30-4630-bba3-0f2bde5928d3"
         transform="translate(-257.773,-135.768)"
         style="fill:#ffffff;fill-opacity:1">
        <g
           transform="translate(337.878,169.534)"
           id="g983"
           style="fill:#ffffff;fill-opacity:1">
          <path
             d="m 1.171875,-0.609375 c 0.1875,-0.1875 0.3125,-0.3125 0.890625,-0.796875 0.15625,-0.109375 0.671875,-0.53125 0.875,-0.71875 0.421875,-0.421875 0.6875,-0.78125 0.6875,-0.859375 0,-0.09375 -0.078125,-0.09375 -0.109375,-0.09375 -0.0625,0 -0.09375,0.015625 -0.125,0.078125 -0.21875,0.3125 -0.359375,0.421875 -0.53125,0.421875 -0.078125,0 -0.1875,0 -0.390625,-0.203125 -0.234375,-0.25 -0.390625,-0.296875 -0.546875,-0.296875 -0.5625,0 -0.9375,0.609375 -0.9375,0.8125 0,0.078125 0.0625,0.09375 0.109375,0.09375 0.09375,0 0.109375,-0.015625 0.125,-0.09375 0.109375,-0.25 0.5,-0.265625 0.609375,-0.265625 0.171875,0 0.34375,0.046875 0.4375,0.0625 0.390625,0.078125 0.4375,0.078125 0.609375,0.078125 -0.171875,0.203125 -0.296875,0.328125 -0.96875,0.84375 -0.546875,0.4375 -0.734375,0.609375 -0.859375,0.75 -0.421875,0.40625 -0.625,0.71875 -0.625,0.78125 0,0.078125 0.09375,0.078125 0.125,0.078125 0.0625,0 0.078125,0 0.109375,-0.0625 0.1875,-0.265625 0.40625,-0.421875 0.640625,-0.421875 0.09375,0 0.1875,0 0.375,0.171875 0.21875,0.21875 0.359375,0.3125 0.59375,0.3125 C 3,0.0625 3.46875,-0.78125 3.46875,-1.015625 3.46875,-1.09375 3.390625,-1.09375 3.359375,-1.09375 3.265625,-1.09375 3.25,-1.0625 3.21875,-0.984375 3.09375,-0.640625 2.6875,-0.46875 2.34375,-0.46875 2.1875,-0.46875 2,-0.515625 1.828125,-0.546875 1.515625,-0.625 1.453125,-0.625 1.328125,-0.625 c -0.015625,0 -0.109375,0 -0.15625,0.015625 z m 0,0"
             id="id-3452d883-0400-45af-8b3a-38d028ff9b64"
             style="fill:#ffffff;fill-opacity:1" />
        </g>
      </g>
      <g
         fill="#000000"
         fill-opacity="1"
         id="id-a12d029e-eb7a-43f2-a75a-ce5f99549c65"
         transform="translate(-257.773,-135.768)"
         style="fill:#ffffff;fill-opacity:1">
        <g
           transform="translate(347.663,136.159)"
           id="g987"
           style="fill:#ffffff;fill-opacity:1">
          <path
             d="M 5.8125,17.140625 C 5.8125,11.0625 4.71875,7.484375 4.421875,6.484375 3.734375,4.265625 2.625,1.9375 0.96875,-0.125 0.8125,-0.296875 0.78125,-0.34375 0.734375,-0.375 c -0.015625,0 -0.03125,-0.015625 -0.1875,-0.015625 -0.140625,0 -0.234375,0 -0.234375,0.09375 0,0.03125 0,0.046875 0.140625,0.234375 3.46875,4.84375 4.234375,10.8125 4.25,17.5625 0,0.140625 0.0625,0.140625 0.28125,0.140625 H 5.53125 c 0.203125,0 0.265625,0 0.28125,-0.109375 z m 0,0"
             id="id-f2c6118a-b61e-4868-9c41-034bdfe7eafb"
             style="fill:#ffffff;fill-opacity:1" />
        </g>
      </g>
      <g
         fill="#000000"
         fill-opacity="1"
         id="id-033a6052-0fb6-4796-968f-38e2d129ae1d"
         transform="translate(-257.773,-135.768)"
         style="fill:#ffffff;fill-opacity:1">
        <g
           transform="translate(347.663,154.092)"
           id="g991"
           style="fill:#ffffff;fill-opacity:1">
          <path
             d="M 5.8125,-0.390625 C 5.796875,-0.5 5.734375,-0.5 5.53125,-0.5 H 4.984375 c -0.21875,0 -0.28125,0 -0.28125,0.140625 0,1.03125 -0.015625,3.40625 -0.265625,5.875 C 3.890625,10.671875 2.578125,14.25 0.390625,17.3125 0.3125,17.390625 0.3125,17.421875 0.3125,17.4375 c 0,0.09375 0.09375,0.09375 0.234375,0.09375 0.15625,0 0.1875,0 0.203125,-0.01563 C 0.78125,17.48438 2.046875,16.03125 3.0625,14.03125 4.375,11.390625 5.203125,8.375 5.578125,4.75 5.609375,4.4375 5.8125,2.359375 5.8125,0 Z m 0,0"
             id="id-7d696a60-2db2-46bd-a522-c96abffbc94a"
             style="fill:#ffffff;fill-opacity:1" />
        </g>
      </g>
    </g>
    <rect
       style="fill:none;fill-opacity:1;stroke:#e76815;stroke-width:0.529;stroke-opacity:1"
       id="rect1109"
       width="65.947739"
       height="10.585711"
       x="48.314022"
       y="87.840355" />
    <rect
       style="fill:none;fill-opacity:1;stroke:#e76815;stroke-width:0.529;stroke-opacity:1"
       id="rect5275"
       width="10.950727"
       height="10.585709"
       x="136.89328"
       y="87.840355" />
    <rect
       style="fill:none;fill-opacity:1;stroke:#e76815;stroke-width:0.529;stroke-opacity:1"
       id="rect5331"
       width="16.304415"
       height="32.122154"
       x="73.135681"
       y="86.380257" />
    <rect
       style="fill:none;fill-opacity:1;stroke:#e76815;stroke-width:0.529;stroke-opacity:1"
       id="rect5333"
       width="16.304413"
       height="10.342364"
       x="73.135681"
       y="68.615738" />
  </g>
</svg>
