<?xml version="1.0" encoding="UTF-8" standalone="no"?>
<!-- Created with Inkscape (http://www.inkscape.org/) -->

<svg
   width="124.56161mm"
   height="84.182274mm"
   viewBox="0 0 93.421236 63.136722"
   version="1.1"
   id="svg45051"
   inkscape:version="1.2 (dc2aedaf03, 2022-05-15)"
   sodipodi:docname="normal-light.svg"
   xml:space="preserve"
   xmlns:inkscape="http://www.inkscape.org/namespaces/inkscape"
   xmlns:sodipodi="http://sodipodi.sourceforge.net/DTD/sodipodi-0.dtd"
   xmlns="http://www.w3.org/2000/svg"
   xmlns:svg="http://www.w3.org/2000/svg"><sodipodi:namedview
     id="namedview45053"
     pagecolor="#ffffff"
     bordercolor="#666666"
     borderopacity="1.0"
     inkscape:showpageshadow="2"
     inkscape:pageopacity="0"
     inkscape:pagecheckerboard="0"
     inkscape:deskcolor="#d1d1d1"
     inkscape:document-units="mm"
     showgrid="false"
     inkscape:zoom="1.087256"
     inkscape:cx="177.97097"
     inkscape:cy="112.20908"
     inkscape:window-width="1920"
     inkscape:window-height="1017"
     inkscape:window-x="-8"
     inkscape:window-y="-8"
     inkscape:window-maximized="1"
     inkscape:current-layer="layer1" /><defs
     id="defs45048"><clipPath
       clipPathUnits="userSpaceOnUse"
       id="clipPath36213"><path
         style="fill:#c8c8c8;fill-opacity:1;stroke:none;stroke-width:0.266075;stroke-linejoin:round;stroke-dasharray:none;stroke-opacity:1"
         d="m 1.6927527,1.5520898 v 4.7923118 l 5.3217695,2.779e-4 V 1.3011809 Z"
         id="path36215" /></clipPath><g
       id="id-33d38a86-213f-4216-83fe-e5d3aaf5a9a0-7">
      <g
   id="id-63081c7e-d8f8-4499-af6a-5584df8cef2c-8" />
      <g
   id="id-89c9330e-e3e8-40ee-a9c4-adcd40504994-4">
        <path
   d="m 2.578125,-6.8125 c 0,0 0,-0.109375 -0.140625,-0.109375 -0.21875,0 -0.953125,0.078125 -1.21875,0.109375 -0.078125,0 -0.1875,0.015625 -0.1875,0.203125 0,0.109375 0.109375,0.109375 0.25,0.109375 0.484375,0 0.5,0.09375 0.5,0.171875 L 1.75,-6.125 0.484375,-1.140625 C 0.453125,-1.03125 0.4375,-0.96875 0.4375,-0.8125 c 0,0.578125 0.4375,0.921875 0.90625,0.921875 0.328125,0 0.578125,-0.203125 0.75,-0.5625 0.171875,-0.375 0.296875,-0.953125 0.296875,-0.96875 0,-0.109375 -0.09375,-0.109375 -0.125,-0.109375 -0.09375,0 -0.109375,0.046875 -0.125,0.1875 C 1.96875,-0.703125 1.78125,-0.109375 1.375,-0.109375 c -0.296875,0 -0.296875,-0.3125 -0.296875,-0.453125 0,-0.25 0.015625,-0.296875 0.0625,-0.484375 z m 0,0"
   id="id-afb6c5ea-f609-4038-81a3-b442c04c5ccb-0" />
      </g>
    </g><g
       id="id-55b47f2a-5c53-4407-8cc8-4ebd0b246e83-4">
      <g
   id="id-22311807-f4f7-4eb3-8e47-32da44d9ab5c-0" />
      <g
   id="id-e0a4b2e1-1d49-41ac-8a2b-695fdf429c38-1">
        <path
   d="m 4.75,-2.359375 c 0,-1.5625 -0.921875,-2.046875 -1.65625,-2.046875 -1.375,0 -2.6875,1.421875 -2.6875,2.828125 0,0.9375 0.59375,1.6875 1.625,1.6875 0.625,0 1.34375,-0.234375 2.09375,-0.84375 0.125,0.53125 0.453125,0.84375 0.90625,0.84375 0.53125,0 0.84375,-0.546875 0.84375,-0.703125 0,-0.078125 -0.0625,-0.109375 -0.125,-0.109375 -0.0625,0 -0.09375,0.03125 -0.125,0.109375 -0.1875,0.484375 -0.546875,0.484375 -0.5625,0.484375 -0.3125,0 -0.3125,-0.78125 -0.3125,-1.015625 0,-0.203125 0,-0.234375 0.109375,-0.34375 C 5.796875,-2.65625 6,-3.8125 6,-3.8125 6,-3.84375 5.984375,-3.921875 5.875,-3.921875 c -0.09375,0 -0.09375,0.03125 -0.140625,0.21875 -0.1875,0.625 -0.515625,1.375 -0.984375,1.96875 z m -0.65625,1.375 c -0.890625,0.765625 -1.65625,0.875 -2.046875,0.875 -0.59375,0 -0.90625,-0.453125 -0.90625,-1.09375 0,-0.484375 0.265625,-1.5625 0.578125,-2.0625 C 2.1875,-4 2.734375,-4.1875 3.078125,-4.1875 c 0.984375,0 0.984375,1.3125 0.984375,2.078125 0,0.375 0,0.953125 0.03125,1.125 z m 0,0"
   id="id-91dcec1b-b5af-4567-bde2-8eff75e689b9-5" />
      </g>
    </g></defs><g
     inkscape:label="Layer 1"
     inkscape:groupmode="layer"
     id="layer1"><path
       style="fill:#d4d4d4;fill-opacity:1;stroke:none;stroke-width:0.15;stroke-linecap:round"
       d="M 32.745023,2.1832013 1.6426104,48.127014 45.521532,60.516358 Z"
       id="path493"
       sodipodi:nodetypes="cccc" /><path
       style="fill:none;fill-opacity:1;stroke:#c43348;stroke-width:0.525;stroke-linecap:round;stroke-linejoin:round;stroke-dasharray:none;stroke-opacity:1;opacity:0.46153846"
       d="M 32.745023,2.1832013 68.622494,37.415395 45.521532,60.516358 Z"
       id="path2269"
       sodipodi:nodetypes="cccc" /><path
       style="fill:#f1f1f1;fill-opacity:1;stroke:none;stroke-width:0.15;stroke-linecap:round"
       d="M 32.745023,2.1832013 68.622494,37.415395 45.521532,60.516358 Z"
       id="path491"
       sodipodi:nodetypes="cccc" /><path
       style="fill:none;fill-opacity:1;stroke:#252525;stroke-width:0.225;stroke-linecap:square;stroke-dasharray:0.9, 0.9;stroke-dashoffset:0;stroke-opacity:1"
       d="M 46.663581,53.08089 50.852559,25.807971"
       id="path1364"
       sodipodi:nodetypes="cc" /><path
       style="fill:none;fill-opacity:1;stroke:#252525;stroke-width:0.225;stroke-linecap:butt;stroke-dasharray:none;stroke-opacity:1"
       d="m 50.302247,29.300801 2.743974,-1.456623 -0.522968,3.404854"
       id="path1594"
       sodipodi:nodetypes="ccc" /><path
       style="fill:none;fill-opacity:1;stroke:#252525;stroke-width:0.225;stroke-linecap:square;stroke-dasharray:0.9, 0.9;stroke-dashoffset:0;stroke-opacity:1"
       d="M 38.174721,11.912559 55.137125,42.307121"
       id="path1366"
       sodipodi:nodetypes="cc" /><path
       style="fill:none;fill-opacity:1;stroke:#252525;stroke-width:0.225;stroke-linecap:butt;stroke-dasharray:none;stroke-opacity:1"
       d="m 51.466717,35.729338 2.743974,-1.456623 -1.687438,-3.023683"
       id="path1604"
       sodipodi:nodetypes="ccc" /><g
       id="path1254"><path
         style="color:#000000;fill:#c43348;-inkscape-stroke:none"
         d="M 73.505859,19.927734 49.695312,32.566406 49.908203,32.964844 73.716797,20.324219 Z"
         id="path8813" /><g
         id="g8805"><path
           style="color:#000000;fill:#c43348;-inkscape-stroke:none"
           d="m 71.951172,19.298828 -0.13086,0.429688 1.609375,0.49414 -0.492187,1.611328 0.429687,0.13086 0.625,-2.041016 z"
           id="path8807" /></g></g><g
       aria-label="normal"
       transform="scale(1.0000531,0.9999469)"
       id="text1764"
       style="font-size:4.52664px;line-height:1.25;font-family:'Lucida Console';-inkscape-font-specification:'Lucida Console';letter-spacing:0px;word-spacing:0px;fill:#c43348;stroke-width:0.255208"><path
         d="m 79.695819,19.279834 q 0,0.03315 -0.0088,0.09062 -0.0066,0.05747 -0.01989,0.123775 -0.01105,0.06631 -0.02431,0.132616 -0.01105,0.0641 -0.0221,0.110514 l -0.263023,1.239964 h -0.366905 l 0.276284,-1.326165 q 0.0088,-0.03536 0.01768,-0.08178 0.0088,-0.04641 0.01547,-0.09283 0.0066,-0.04642 0.01105,-0.08399 0.0044,-0.03978 0.0044,-0.06189 0,-0.167981 -0.08178,-0.265233 -0.07957,-0.09725 -0.23871,-0.09725 -0.145878,0 -0.289546,0.0862 -0.143667,0.0862 -0.265232,0.218817 -0.121565,0.132616 -0.209976,0.291756 -0.0862,0.15914 -0.117145,0.307228 l -0.236499,1.105137 h -0.366905 l 0.349223,-1.61571 q 0.01768,-0.0862 0.03536,-0.179032 0.01768,-0.09504 0.03315,-0.181243 0.01547,-0.08841 0.02652,-0.16356 0.01105,-0.07515 0.01768,-0.123775 h 0.353643 q -0.01105,0.0862 -0.02652,0.181242 -0.01547,0.09283 -0.02652,0.172401 -0.01326,0.09283 -0.02873,0.181243 h 0.0088 q 0.07736,-0.121565 0.170191,-0.227658 0.09504,-0.108304 0.203346,-0.187874 0.110513,-0.08178 0.232078,-0.128196 0.123776,-0.04641 0.258602,-0.04641 0.150299,0 0.258602,0.04641 0.108304,0.04421 0.179032,0.125986 0.07294,0.08178 0.106094,0.196714 0.03536,0.114935 0.03536,0.251972 z"
         style="font-style:italic;font-family:'Segoe UI';-inkscape-font-specification:'Segoe UI Italic'"
         id="path8815" /><path
         d="m 82.177956,19.551697 q 0,0.300597 -0.0862,0.570251 -0.08399,0.269653 -0.24534,0.472998 -0.15914,0.201135 -0.389008,0.32049 -0.227658,0.117144 -0.514994,0.117144 -0.194504,0 -0.351433,-0.06189 -0.154719,-0.06189 -0.265233,-0.176822 -0.108303,-0.117145 -0.167981,-0.280705 -0.05747,-0.16577 -0.05747,-0.373536 0,-0.311649 0.08841,-0.581302 0.09062,-0.271864 0.251971,-0.470788 0.16356,-0.201135 0.389008,-0.313859 0.227658,-0.114934 0.501732,-0.114934 0.192294,0 0.347013,0.06189 0.15693,0.06189 0.267443,0.179033 0.110514,0.114934 0.170191,0.280704 0.06189,0.16356 0.06189,0.371326 z m -0.371326,0.01768 q 0,-0.143667 -0.03536,-0.254181 -0.03536,-0.112724 -0.09946,-0.187873 -0.0641,-0.07736 -0.154719,-0.117145 -0.09062,-0.042 -0.203345,-0.042 -0.194504,0 -0.351433,0.09946 -0.15693,0.09946 -0.265233,0.263023 -0.108304,0.16135 -0.167981,0.369116 -0.05747,0.205555 -0.05747,0.422162 0,0.137037 0.03315,0.249761 0.03536,0.110513 0.09725,0.190083 0.0641,0.07736 0.154719,0.119355 0.09283,0.042 0.207766,0.042 0.196714,0 0.353644,-0.09725 0.156929,-0.09946 0.265232,-0.260812 0.108304,-0.16356 0.165771,-0.371326 0.05747,-0.207766 0.05747,-0.424373 z"
         style="font-style:italic;font-family:'Segoe UI';-inkscape-font-specification:'Segoe UI Italic'"
         id="path8817" /><path
         d="m 84.043426,19.098591 h -0.0088 q -0.04421,-0.02652 -0.117144,-0.05084 -0.07073,-0.02652 -0.141458,-0.02652 -0.128195,0 -0.24534,0.08399 -0.117144,0.08178 -0.214396,0.218817 -0.09504,0.134827 -0.167981,0.309438 -0.07073,0.174612 -0.110514,0.358065 l -0.212186,0.985782 h -0.362485 l 0.318279,-1.502986 q 0.01989,-0.09283 0.03978,-0.194504 0.01989,-0.101673 0.03536,-0.203346 0.01768,-0.101672 0.03094,-0.194504 0.01326,-0.09283 0.01989,-0.16798 h 0.358064 q -0.0066,0.06631 -0.01547,0.141457 -0.0088,0.07294 -0.01768,0.143668 -0.0088,0.06852 -0.01768,0.125985 -0.0088,0.05526 -0.01326,0.0862 h 0.0088 q 0.07073,-0.125986 0.143668,-0.227658 0.07294,-0.101673 0.152509,-0.172401 0.08178,-0.07294 0.172401,-0.112724 0.09062,-0.03978 0.196715,-0.03978 0.06189,0 0.121565,0.01326 0.06189,0.01105 0.110513,0.02431 z"
         style="font-style:italic;font-family:'Segoe UI';-inkscape-font-specification:'Segoe UI Italic'"
         id="path8819" /><path
         d="m 87.615228,19.284254 q 0,0.02873 -0.0088,0.08841 -0.0066,0.05747 -0.01989,0.123775 -0.01105,0.06631 -0.02431,0.132617 -0.01105,0.0641 -0.01989,0.108303 l -0.267443,1.239964 h -0.362484 l 0.276284,-1.326165 q 0.0088,-0.03757 0.01768,-0.08399 0.0088,-0.04642 0.01547,-0.09062 0.0088,-0.04642 0.01326,-0.08399 0.0044,-0.03978 0.0044,-0.06189 0,-0.174612 -0.07515,-0.267443 -0.07515,-0.09504 -0.234289,-0.09504 -0.08399,0 -0.174612,0.03979 -0.08841,0.03758 -0.174611,0.103883 -0.08399,0.06631 -0.163561,0.154719 -0.07736,0.08841 -0.143667,0.190083 -0.0641,0.09946 -0.110514,0.205556 -0.04642,0.103883 -0.06852,0.205555 l -0.236499,1.109558 h -0.366905 l 0.280704,-1.326165 q 0.0088,-0.03757 0.01768,-0.08399 0.0088,-0.04642 0.01547,-0.09062 0.0088,-0.04642 0.01326,-0.08399 0.0044,-0.03978 0.0044,-0.06189 0,-0.174612 -0.07736,-0.267443 -0.07736,-0.09504 -0.232079,-0.09504 -0.0862,0 -0.176821,0.03979 -0.09062,0.03758 -0.176822,0.106093 -0.0862,0.06631 -0.165771,0.156929 -0.07736,0.08841 -0.143668,0.190084 -0.0641,0.09946 -0.110513,0.205555 -0.04421,0.103883 -0.06631,0.205556 l -0.2365,1.105137 H 84.06995 l 0.349223,-1.61571 q 0.01768,-0.0862 0.03536,-0.179032 0.01768,-0.09504 0.03315,-0.181243 0.01547,-0.08841 0.02652,-0.16356 0.01105,-0.07515 0.01768,-0.123775 h 0.353644 q -0.01105,0.0862 -0.02652,0.181242 -0.01547,0.09283 -0.02652,0.172401 -0.01326,0.09283 -0.02873,0.181243 h 0.0088 q 0.07957,-0.128196 0.172401,-0.2365 0.09283,-0.108303 0.196714,-0.185662 0.103883,-0.07957 0.216607,-0.123776 0.112724,-0.0442 0.234289,-0.0442 0.141458,0 0.24313,0.042 0.101673,0.042 0.167981,0.119355 0.06852,0.07515 0.103883,0.183452 0.03536,0.108304 0.042,0.24092 0.08178,-0.123775 0.174612,-0.229868 0.09504,-0.108304 0.201135,-0.185663 0.108303,-0.07957 0.227658,-0.123776 0.121565,-0.04641 0.256392,-0.04641 0.282915,0 0.424372,0.16577 0.141457,0.16356 0.141457,0.459737 z"
         style="font-style:italic;font-family:'Segoe UI';-inkscape-font-specification:'Segoe UI Italic'"
         id="path8821" /><path
         d="m 89.845394,20.252354 q -0.01768,0.08399 -0.03536,0.190083 -0.01547,0.103883 -0.02873,0.207766 -0.01105,0.101673 -0.01989,0.190084 -0.0066,0.08841 -0.0066,0.137037 h -0.375747 q 0.0022,-0.04421 0.0066,-0.106094 0.0044,-0.06189 0.01105,-0.128195 0.0088,-0.06631 0.01547,-0.130407 0.0088,-0.0641 0.01768,-0.110513 h -0.0088 q -0.06852,0.108303 -0.139248,0.205555 -0.07073,0.09504 -0.156929,0.167981 -0.0862,0.07294 -0.192294,0.114934 -0.106093,0.042 -0.249761,0.042 -0.148088,0 -0.271863,-0.05305 -0.121565,-0.05305 -0.209976,-0.15693 -0.08841,-0.106093 -0.137037,-0.263022 -0.04642,-0.15914 -0.04642,-0.369116 0,-0.128196 0.02652,-0.291756 0.02652,-0.16356 0.08841,-0.333751 0.0641,-0.170191 0.167981,-0.331541 0.106093,-0.16356 0.260812,-0.291756 0.15693,-0.128196 0.369116,-0.205556 0.212186,-0.07736 0.490681,-0.07736 0.176821,0 0.364695,0.02652 0.187873,0.02652 0.373536,0.0641 z M 89.741511,19.01239 q -0.07736,-0.01768 -0.181242,-0.03094 -0.103883,-0.01326 -0.194504,-0.01326 -0.192294,0 -0.340382,0.06189 -0.145878,0.05968 -0.254182,0.159139 -0.108303,0.09725 -0.183453,0.225448 -0.07294,0.128196 -0.117144,0.263023 -0.04421,0.132616 -0.0641,0.263022 -0.01768,0.130406 -0.01768,0.2365 0,0.125985 0.0221,0.227658 0.0221,0.09946 0.06852,0.170191 0.04863,0.07073 0.121565,0.110513 0.07515,0.03758 0.176822,0.03758 0.110514,0 0.205555,-0.0442 0.09725,-0.04642 0.181243,-0.123776 0.08399,-0.07736 0.152509,-0.179032 0.06852,-0.101672 0.123775,-0.214396 0.05526,-0.114935 0.09283,-0.232079 0.03979,-0.119355 0.0641,-0.229868 z"
         style="font-style:italic;font-family:'Segoe UI';-inkscape-font-specification:'Segoe UI Italic'"
         id="path8823" /><path
         d="m 91.217974,20.968482 q -0.05526,0.01768 -0.125986,0.02873 -0.06852,0.01105 -0.137037,0.01105 -0.223237,0 -0.333751,-0.110513 -0.110514,-0.112724 -0.110514,-0.300597 0,-0.05526 0.01105,-0.130407 0.01105,-0.07515 0.03536,-0.185663 l 0.56583,-2.656748 h 0.366905 l -0.56804,2.66559 q -0.01989,0.09283 -0.02873,0.143667 -0.0066,0.05084 -0.0066,0.0862 0,0.09062 0.04863,0.139247 0.05084,0.04642 0.159139,0.04642 0.05747,0 0.09946,-0.0066 0.0442,-0.0066 0.08178,-0.01989 z"
         style="font-style:italic;font-family:'Segoe UI';-inkscape-font-specification:'Segoe UI Italic'"
         id="path8825" /></g></g></svg>
