<?xml version="1.0" encoding="UTF-8" standalone="no"?>
<!-- Created with Inkscape (http://www.inkscape.org/) -->

<svg
   width="150mm"
   height="80mm"
   viewBox="0 0 150 80"
   version="1.1"
   id="svg45051"
   inkscape:version="1.2 (dc2aedaf03, 2022-05-15)"
   sodipodi:docname="perspective2-light.svg"
   xml:space="preserve"
   xmlns:inkscape="http://www.inkscape.org/namespaces/inkscape"
   xmlns:sodipodi="http://sodipodi.sourceforge.net/DTD/sodipodi-0.dtd"
   xmlns="http://www.w3.org/2000/svg"
   xmlns:svg="http://www.w3.org/2000/svg"><sodipodi:namedview
     id="namedview45053"
     pagecolor="#ffffff"
     bordercolor="#666666"
     borderopacity="1.0"
     inkscape:showpageshadow="2"
     inkscape:pageopacity="0"
     inkscape:pagecheckerboard="0"
     inkscape:deskcolor="#d1d1d1"
     inkscape:document-units="mm"
     showgrid="false"
     inkscape:zoom="1.5376122"
     inkscape:cx="216.24438"
     inkscape:cy="267.94792"
     inkscape:window-width="1920"
     inkscape:window-height="1017"
     inkscape:window-x="-8"
     inkscape:window-y="-8"
     inkscape:window-maximized="1"
     inkscape:current-layer="layer1" /><defs
     id="defs45048"><clipPath
       clipPathUnits="userSpaceOnUse"
       id="clipPath36213"><path
         style="fill:#c8c8c8;fill-opacity:1;stroke:none;stroke-width:0.266075;stroke-linejoin:round;stroke-dasharray:none;stroke-opacity:1"
         d="m 1.6927527,1.5520898 v 4.7923118 l 5.3217695,2.779e-4 V 1.3011809 Z"
         id="path36215" /></clipPath></defs><g
     inkscape:label="Layer 1"
     inkscape:groupmode="layer"
     id="layer1"><rect
       style="fill:#ff9b54;fill-opacity:1;stroke:none;stroke-width:0.0901752;stroke-linejoin:round"
       id="rect45228"
       width="36.867466"
       height="4.3851848"
       x="-69.566261"
       y="12.862941" /><rect
       style="fill:#ff7f51;fill-opacity:1;stroke:none;stroke-width:0.0901752;stroke-linejoin:round"
       id="rect45593"
       width="36.867466"
       height="4.3851848"
       x="-69.566261"
       y="17.248127" /><rect
       style="fill:#ce4257;fill-opacity:1;stroke:none;stroke-width:0.0901752;stroke-linejoin:round"
       id="rect45595"
       width="36.867466"
       height="4.3851848"
       x="-69.566261"
       y="21.633312" /><rect
       style="fill:#720026;fill-opacity:1;stroke:none;stroke-width:0.0901752;stroke-linejoin:round"
       id="rect45597"
       width="36.867466"
       height="4.3851848"
       x="-69.566261"
       y="26.018497" /><rect
       style="fill:#4f000b;fill-opacity:1;stroke:none;stroke-width:0.0901752;stroke-linejoin:round"
       id="rect47063"
       width="36.867466"
       height="4.3851848"
       x="-69.566261"
       y="30.403683" /><path
       style="fill:none;fill-opacity:1;stroke:#ff9b54;stroke-width:0.5;stroke-linejoin:round;stroke-dasharray:none;stroke-opacity:1"
       d="M 14.316133,33.540016 142.94163,7.5828445"
       id="path49414"
       sodipodi:nodetypes="cc" /><path
       style="fill:none;fill-opacity:1;stroke:#ff7f51;stroke-width:0.5;stroke-linejoin:round;stroke-dasharray:none;stroke-opacity:1"
       d="M 14.316133,33.540016 148.99357,25.543786"
       id="path49677"
       sodipodi:nodetypes="cc" /><path
       style="fill:none;fill-opacity:1;stroke:#ce4257;stroke-width:0.5;stroke-linejoin:round;stroke-dasharray:none;stroke-opacity:1"
       d="M 14.316133,33.540016 148.21265,44.661168"
       id="path49689"
       sodipodi:nodetypes="cc" /><path
       style="fill:#e3e3e3;fill-opacity:1;stroke:#c2c2c2;stroke-width:0.499999;stroke-linejoin:miter;stroke-dasharray:2.99999, 2.99999;stroke-dashoffset:0;stroke-opacity:1"
       d="M 44.295156,50.56632 H 108.16054"
       id="path61882"
       sodipodi:nodetypes="cc" /><path
       style="fill:none;fill-opacity:1;stroke:#720026;stroke-width:0.5;stroke-linejoin:round;stroke-dasharray:none;stroke-opacity:1"
       d="M 14.316133,33.540016 141.13668,62.136627"
       id="path49691"
       sodipodi:nodetypes="cc" /><path
       style="fill:none;fill-opacity:1;stroke:#4f000b;stroke-width:0.5;stroke-linejoin:round;stroke-dasharray:none;stroke-opacity:1"
       d="M 14.316133,33.540016 130.11326,76.268327"
       id="path49693"
       sodipodi:nodetypes="cc" /><text
       xml:space="preserve"
       style="font-style:italic;font-variant:normal;font-weight:normal;font-stretch:normal;font-size:6.16509px;line-height:1.25;font-family:'Charter ITC TT';-inkscape-font-specification:'Charter ITC TT Italic';letter-spacing:0px;word-spacing:0px;fill:#000000;fill-opacity:1;stroke:none;stroke-width:0.321469"
       x="-65.938034"
       y="41.676239"
       id="text49973"><tspan
         sodipodi:role="line"
         id="tspan49971"
         style="font-style:italic;font-variant:normal;font-weight:normal;font-stretch:normal;font-family:'Segoe UI';-inkscape-font-specification:'Segoe UI Italic';fill:#000000;fill-opacity:1;stroke-width:0.321469"
         x="-65.938034"
         y="41.676239">focal point</tspan></text><g
       id="g54258"
       transform="matrix(0.70063636,0,0,0.70063636,-0.20156109,22.227089)"
       inkscape:transform-center-x="-36.660622"
       inkscape:transform-center-y="2.8530411"><rect
         style="fill:#000000;fill-opacity:0.229314;stroke:none;stroke-width:0.151797;stroke-linejoin:round"
         id="rect52501-6"
         width="1.6485965"
         height="1.7188456"
         x="74.796867"
         y="-15.285314"
         transform="matrix(0.96593956,0.25876778,0,1,0,0)" /><rect
         style="fill:#000000;fill-opacity:0.229314;stroke:none;stroke-width:0.151797;stroke-linejoin:round"
         id="rect54099-5"
         width="1.6485965"
         height="1.7188456"
         x="74.796867"
         y="-7.7478576"
         transform="matrix(0.96593956,0.25876778,0,1,0,0)" /><rect
         style="fill:#000000;fill-opacity:0.229314;stroke:none;stroke-width:0.151797;stroke-linejoin:round"
         id="rect54101-8"
         width="1.6485965"
         height="1.7188456"
         x="74.796867"
         y="-0.21040115"
         transform="matrix(0.96593956,0.25876778,0,1,0,0)" /><rect
         style="fill:#000000;fill-opacity:0.229314;stroke:none;stroke-width:0.151797;stroke-linejoin:round"
         id="rect54103-5"
         width="1.6485965"
         height="1.7188456"
         x="74.796867"
         y="7.327055"
         transform="matrix(0.96593956,0.25876778,0,1,0,0)" /><rect
         style="fill:#000000;fill-opacity:0.229314;stroke:none;stroke-width:0.151797;stroke-linejoin:round"
         id="rect54105-0"
         width="1.6485965"
         height="1.7188456"
         x="74.796867"
         y="14.867259"
         transform="matrix(0.96593956,0.25876778,0,1,0,0)" /></g><rect
       style="fill:#ff9b54;fill-opacity:1;stroke:none;stroke-width:0.506034;stroke-linejoin:round;stroke-dasharray:none;stroke-opacity:1"
       id="rect56756"
       width="1.0405236"
       height="5.3121476"
       x="50.439011"
       y="23.143972"
       inkscape:transform-center-x="-36.643139"
       inkscape:transform-center-y="-7.7399699" /><rect
       style="fill:#ff7f51;fill-opacity:1;stroke:none;stroke-width:0.506034;stroke-linejoin:round;stroke-dasharray:none;stroke-opacity:1"
       id="rect56810"
       width="1.0405236"
       height="5.3121476"
       x="50.456493"
       y="28.455004"
       inkscape:transform-center-x="-36.660622"
       inkscape:transform-center-y="-2.4289384" /><rect
       style="fill:#ce4257;fill-opacity:1;stroke:none;stroke-width:0.506034;stroke-linejoin:round;stroke-dasharray:none;stroke-opacity:1"
       id="rect56812"
       width="1.0405236"
       height="5.3121476"
       x="50.456493"
       y="33.767151"
       inkscape:transform-center-x="-36.660622"
       inkscape:transform-center-y="2.8832088" /><rect
       style="fill:#720026;fill-opacity:1;stroke:none;stroke-width:0.506034;stroke-linejoin:round;stroke-dasharray:none;stroke-opacity:1"
       id="rect56814"
       width="1.0405236"
       height="5.3121476"
       x="50.473976"
       y="39.078182"
       inkscape:transform-center-x="-36.678105"
       inkscape:transform-center-y="8.1942399" /><rect
       style="fill:#4f000b;fill-opacity:1;stroke:none;stroke-width:0.506034;stroke-linejoin:round;stroke-dasharray:none;stroke-opacity:1"
       id="rect56816"
       width="1.0405236"
       height="5.3121476"
       x="50.473976"
       y="44.390331"
       inkscape:transform-center-x="-36.678105"
       inkscape:transform-center-y="13.506389" /><g
       id="g17247"
       transform="matrix(0,0.69039329,0.69039329,0,10.325805,-7.7975306)"
       style="stroke:#525252;stroke-opacity:1"><path
         id="path17239"
         style="fill:none;fill-opacity:1;stroke:#525252;stroke-width:0.511;stroke-linejoin:miter;stroke-dasharray:none;stroke-opacity:1"
         d="M 54.099023,17.207218 H 65.650256"
         sodipodi:nodetypes="cc" /><path
         style="fill:none;fill-opacity:1;stroke:#525252;stroke-width:0.511;stroke-linejoin:miter;stroke-dasharray:none;stroke-opacity:1"
         d="m 52.228471,17.207218 h -2.77545"
         id="path17241"
         sodipodi:nodetypes="cc" /><path
         style="fill:#525252;fill-opacity:1;stroke:#525252;stroke-width:0.511;stroke-linejoin:miter;stroke-dasharray:none;stroke-opacity:1"
         d="m 61.262374,17.207218 c -0.717765,-0.829539 -1.492828,-1.429889 -2.77545,0"
         id="path17243"
         sodipodi:nodetypes="cc" /><path
         style="fill:none;fill-opacity:1;stroke:#525252;stroke-width:0.511;stroke-linejoin:miter;stroke-dasharray:none;stroke-opacity:1"
         d="M 66.206444,18.112302 59.874382,5.9991756 53.542319,18.112302"
         id="path17245"
         sodipodi:nodetypes="ccc" /></g><circle
       style="fill:#000000;fill-opacity:1;stroke:none;stroke-width:0.0623168;stroke-linejoin:round"
       id="path48551"
       cx="14.467596"
       cy="33.539341"
       r="1.1174045" /><circle
       style="fill:#000000;fill-opacity:1;stroke:none;stroke-width:0.0623168;stroke-linejoin:round"
       id="path48551-1"
       cx="107.02518"
       cy="67.755821"
       r="1.1174045" /><circle
       style="fill:#000000;fill-opacity:1;stroke:none;stroke-width:0.0623168;stroke-linejoin:round"
       id="circle59284"
       cx="60.814297"
       cy="50.604744"
       r="1.1174045" /><path
       style="fill:none;fill-opacity:1;stroke:#3c77b6;stroke-width:0.499999;stroke-linejoin:round;stroke-dasharray:none;stroke-opacity:1"
       d="M 4.5328602,75.688787 H 32.194535"
       id="path59340" /><path
       style="fill:none;fill-opacity:1;stroke:#5bbd43;stroke-width:0.499999;stroke-linejoin:round;stroke-dasharray:none;stroke-opacity:1"
       d="M 4.5328602,75.688787 V 48.027112"
       id="path59342" /><circle
       style="fill:#000000;fill-opacity:1;stroke:none;stroke-width:0.0623168;stroke-linejoin:round"
       id="path48551-4"
       cx="4.5328603"
       cy="75.688789"
       r="0.49363562" /><circle
       style="fill:#000000;fill-opacity:1;stroke:none;stroke-width:0.0623168;stroke-linejoin:round"
       id="circle59418"
       cx="90.32531"
       cy="50.59967"
       r="1.1174045" /><path
       style="fill:none;fill-opacity:1;stroke:#3c77b6;stroke-width:0.5;stroke-linejoin:miter;stroke-dasharray:none;stroke-opacity:1"
       d="m 30.925358,77.029574 1.269177,-1.340787 -1.269177,-1.340786"
       id="path59521"
       sodipodi:nodetypes="ccc" /><path
       style="fill:none;fill-opacity:1;stroke:#5bbd43;stroke-width:0.5;stroke-linejoin:miter;stroke-dasharray:none;stroke-opacity:1"
       d="m 5.8736472,49.296289 -1.340787,-1.269177 -1.340786,1.269177"
       id="path59521-5"
       sodipodi:nodetypes="ccc" /><g
       aria-label="z"
       id="text38046"
       style="font-style:italic;font-size:6.16509px;line-height:1.25;font-family:'Charter ITC TT';-inkscape-font-specification:'Charter ITC TT Italic';letter-spacing:0px;word-spacing:0px;fill:#3c77b6;stroke-width:0.321469"><path
         d="m 36.116537,71.459149 -2.126957,2.37356 0.598014,-0.154127 q 0.474712,0.203448 0.64117,0.203448 0.209613,0 0.369905,-0.221943 l -0.33908,-0.376071 q 0.135632,-0.221943 0.302089,-0.221943 0.123302,0 0.209614,0.104806 0.08631,0.104807 0.08631,0.258934 0,0.33908 -0.265099,0.604179 -0.258934,0.265099 -0.591849,0.265099 -0.141797,0 -0.32675,-0.06782 -0.160292,-0.06165 -0.314419,-0.123302 -0.203448,-0.07398 -0.332915,-0.07398 -0.07398,0 -0.184953,0.05549 l -0.147962,0.265099 -0.33908,-0.184953 2.120791,-2.379725 -0.610344,0.135632 q -0.357575,-0.178787 -0.548693,-0.178787 -0.221943,0 -0.382235,0.197282 l 0.326749,0.394566 q -0.123301,0.197283 -0.289759,0.197283 -0.289759,0 -0.289759,-0.357575 0,-0.332915 0.252769,-0.598014 0.258933,-0.271264 0.579518,-0.271264 0.203448,0 0.561023,0.184953 0.234274,0.123302 0.357576,0.123302 0.07398,0 0.191117,-0.04932 l 0.117137,-0.30209 z"
         id="path68153" /></g><g
       aria-label="y"
       id="text38058"
       style="font-style:italic;font-size:6.16509px;line-height:1.25;font-family:'Charter ITC TT';-inkscape-font-specification:'Charter ITC TT Italic';letter-spacing:0px;word-spacing:0px;fill:#5bbd43;stroke-width:0.321469"><path
         d="M 4.0394629,44.268667 3.7250433,44.45362 Q 3.435284,44.7927 3.022223,45.698968 2.4796951,46.8765 2.0789642,47.431358 q -0.6226741,0.856948 -1.20835762,0.856948 -0.20961307,0 -0.35757523,-0.123302 Q 0.3589041,48.047867 0.3589041,47.88141 q 0,-0.271264 0.33291486,-0.33908 L 1.0555593,47.90607 Q 1.5734268,47.86908 2.1159548,46.85184 L 1.7337192,44.977653 Q 1.653573,44.570757 1.4871156,44.336483 L 0.96308293,44.293328 V 44.157696 L 1.5672618,43.960413 q 0.030825,-0.0062 0.080146,-0.0062 0.2404385,0 0.3575753,0.258933 0.061651,0.129467 0.092476,0.265099 0.043156,0.178788 0.1664574,0.801462 l 0.203448,1.0419 Q 2.9235816,45.181101 3.435284,43.978908 H 3.5524208 L 4.0394629,44.1392 Z"
         id="path68156" /></g><g
       aria-label="A"
       id="text61664"
       style="font-style:italic;font-size:6.16509px;line-height:1.25;font-family:'Charter ITC TT';-inkscape-font-specification:'Charter ITC TT Italic';letter-spacing:0px;word-spacing:0px;stroke-width:0.321469"><path
         d="m 64.069174,57.635853 h -1.350155 v -0.234274 l 0.363741,-0.03083 0.04315,-0.09248 -0.191118,-1.171368 h -1.498116 l -0.659665,1.171368 0.04932,0.09248 0.37607,0.03083 v 0.234274 h -1.220688 v -0.234274 l 0.33908,-0.03083 2.274919,-3.908667 h 0.406895 l 0.659665,3.797695 0.104807,0.110972 0.302089,0.03083 z m -1.189862,-1.794041 -0.283594,-1.775546 -1.00491,1.775546 z"
         id="path68168" /></g><g
       aria-label="E"
       id="text61668"
       style="font-style:italic;font-size:6.16509px;line-height:1.25;font-family:'Charter ITC TT';-inkscape-font-specification:'Charter ITC TT Italic';letter-spacing:0px;word-spacing:0px;stroke-width:0.321469"><path
         d="m 13.693876,26.826315 -0.172623,0.900104 h -0.295924 v -0.524033 l -0.06782,-0.09248 h -1.325494 l -0.30209,1.565932 h 0.937094 l 0.110972,-0.08631 0.135632,-0.450051 h 0.265098 l -0.258933,1.350154 h -0.252769 l 0.02466,-0.443886 -0.07398,-0.08631 h -0.943259 l -0.332914,1.72006 h 1.572098 l 0.110971,-0.09864 0.209613,-0.622674 h 0.283594 l -0.197283,1.00491 h -2.983903 v -0.234274 l 0.388401,-0.03083 0.104806,-0.09248 0.659665,-3.421625 -0.06782,-0.09248 -0.394566,-0.03083 v -0.234274 z"
         id="path68159" /></g><g
       aria-label="B"
       id="text61820"
       style="font-style:italic;font-size:6.16509px;line-height:1.25;font-family:'Charter ITC TT';-inkscape-font-specification:'Charter ITC TT Italic';letter-spacing:0px;word-spacing:0px;stroke-width:0.321469"><path
         d="m 93.333583,54.27697 q 0,0.635005 -0.591848,0.967919 -0.166458,0.09248 -0.493207,0.191118 0.974084,0.05549 0.974084,0.844618 0,1.350154 -1.861857,1.350154 h -1.541273 v -0.234273 l 0.388401,-0.03083 0.104806,-0.09248 0.6535,-3.421625 -0.06165,-0.09248 -0.394566,-0.03083 V 53.494004 H 92.0944 q 0.64117,0 0.937094,0.191118 0.302089,0.184952 0.302089,0.591848 z m -0.598013,0.06165 q 0,-0.604179 -0.856948,-0.604179 -0.09864,0 -0.36374,0.0185 l -0.295924,1.602923 q 0.221943,0.0185 0.326749,0.0185 0.542528,0 0.863113,-0.283594 0.32675,-0.283594 0.32675,-0.752141 z m -0.117137,1.985159 q 0,-0.708985 -0.937094,-0.708985 -0.172622,0 -0.511702,0.03083 l -0.332915,1.713895 q 0.215778,0.0185 0.443886,0.0185 0.64117,0 0.986415,-0.271264 0.35141,-0.277429 0.35141,-0.782967 z"
         id="path68162" /></g><g
       aria-label="C"
       id="text61826"
       style="font-style:italic;font-size:6.16509px;line-height:1.25;font-family:'Charter ITC TT';-inkscape-font-specification:'Charter ITC TT Italic';letter-spacing:0px;word-spacing:0px;stroke-width:0.321469"><path
         d="m 110.50201,70.785783 -0.17263,0.949424 h -0.25893 v -0.591849 l -0.0493,-0.117137 q -0.32675,-0.154127 -0.64734,-0.154127 -0.78913,0 -1.32549,0.66583 -0.53636,0.66583 -0.53636,1.646079 0,0.66583 0.32675,1.023405 0.32675,0.357575 0.93709,0.357575 0.24044,0 0.54253,-0.08015 l 0.11713,-0.104807 0.27127,-0.708985 h 0.2651 l -0.16646,0.974084 q -0.68432,0.215778 -1.22069,0.215778 -0.77063,0 -1.22069,-0.462381 -0.45005,-0.462382 -0.45005,-1.245349 0,-1.072725 0.72132,-1.824866 0.72131,-0.752141 1.75088,-0.752141 0.48705,0 1.11589,0.209613 z"
         id="path68165" /></g><text
       xml:space="preserve"
       style="font-style:italic;font-variant:normal;font-weight:normal;font-stretch:normal;font-size:6.16509px;line-height:1.25;font-family:'Charter ITC TT';-inkscape-font-specification:'Charter ITC TT Italic';letter-spacing:0px;word-spacing:0px;fill:#3c77b6;fill-opacity:1;stroke:none;stroke-width:0.321469"
       x="33.440887"
       y="137.43398"
       id="text68131"><tspan
         sodipodi:role="line"
         id="tspan68129"
         style="font-style:italic;font-variant:normal;font-weight:normal;font-stretch:normal;font-family:'Charter ITC TT';-inkscape-font-specification:'Charter ITC TT Italic';fill:#3c77b6;fill-opacity:1;stroke-width:0.321469"
         x="33.440887"
         y="137.43398">z</tspan></text><text
       xml:space="preserve"
       style="font-style:italic;font-variant:normal;font-weight:normal;font-stretch:normal;font-size:6.16509px;line-height:1.25;font-family:'Charter ITC TT';-inkscape-font-specification:'Charter ITC TT Italic';letter-spacing:0px;word-spacing:0px;fill:#5bbd43;fill-opacity:1;stroke:none;stroke-width:0.321469"
       x="1.0555593"
       y="110.1017"
       id="text68135"><tspan
         sodipodi:role="line"
         id="tspan68133"
         style="font-style:italic;font-variant:normal;font-weight:normal;font-stretch:normal;font-family:'Charter ITC TT';-inkscape-font-specification:'Charter ITC TT Italic';fill:#5bbd43;fill-opacity:1;stroke-width:0.321469"
         x="1.0555593"
         y="110.1017">y</tspan></text><text
       xml:space="preserve"
       style="font-style:italic;font-variant:normal;font-weight:normal;font-stretch:normal;font-size:6.16509px;line-height:1.25;font-family:'Charter ITC TT';-inkscape-font-specification:'Charter ITC TT Italic';letter-spacing:0px;word-spacing:0px;fill:#000000;fill-opacity:1;stroke:none;stroke-width:0.321469"
       x="60.468761"
       y="120.78707"
       id="text68139"><tspan
         sodipodi:role="line"
         id="tspan68137"
         style="font-style:italic;font-variant:normal;font-weight:normal;font-stretch:normal;font-family:'Charter ITC TT';-inkscape-font-specification:'Charter ITC TT Italic';fill:#000000;fill-opacity:1;stroke-width:0.321469"
         x="60.468761"
         y="120.78707">A</tspan></text><text
       xml:space="preserve"
       style="font-style:italic;font-variant:normal;font-weight:normal;font-stretch:normal;font-size:6.16509px;line-height:1.25;font-family:'Charter ITC TT';-inkscape-font-specification:'Charter ITC TT Italic';letter-spacing:0px;word-spacing:0px;fill:#000000;fill-opacity:1;stroke:none;stroke-width:0.321469"
       x="10.296911"
       y="94.114311"
       id="text68143"><tspan
         sodipodi:role="line"
         id="tspan68141"
         style="font-style:italic;font-variant:normal;font-weight:normal;font-stretch:normal;font-family:'Charter ITC TT';-inkscape-font-specification:'Charter ITC TT Italic';fill:#000000;fill-opacity:1;stroke-width:0.321469"
         x="10.296911"
         y="94.114311">E</tspan></text><text
       xml:space="preserve"
       style="font-style:italic;font-variant:normal;font-weight:normal;font-stretch:normal;font-size:6.16509px;line-height:1.25;font-family:'Charter ITC TT';-inkscape-font-specification:'Charter ITC TT Italic';letter-spacing:0px;word-spacing:0px;fill:#000000;fill-opacity:1;stroke:none;stroke-width:0.321469"
       x="89.979774"
       y="120.782"
       id="text68147"><tspan
         sodipodi:role="line"
         id="tspan68145"
         style="font-style:italic;font-variant:normal;font-weight:normal;font-stretch:normal;font-family:'Charter ITC TT';-inkscape-font-specification:'Charter ITC TT Italic';fill:#000000;fill-opacity:1;stroke-width:0.321469"
         x="89.979774"
         y="120.782">B</tspan></text><text
       xml:space="preserve"
       style="font-style:italic;font-variant:normal;font-weight:normal;font-stretch:normal;font-size:6.16509px;line-height:1.25;font-family:'Charter ITC TT';-inkscape-font-specification:'Charter ITC TT Italic';letter-spacing:0px;word-spacing:0px;fill:#000000;fill-opacity:1;stroke:none;stroke-width:0.321469"
       x="106.67965"
       y="137.93814"
       id="text68151"><tspan
         sodipodi:role="line"
         id="tspan68149"
         style="font-style:italic;font-variant:normal;font-weight:normal;font-stretch:normal;font-family:'Charter ITC TT';-inkscape-font-specification:'Charter ITC TT Italic';fill:#000000;fill-opacity:1;stroke-width:0.321469"
         x="106.67965"
         y="137.93814">C</tspan></text></g></svg>
