<?xml version="1.0" encoding="UTF-8"?>
<!-- Created with Inkscape (http://www.inkscape.org/) -->
<svg width="93.678mm" height="96.017mm" version="1.1" viewBox="0 0 93.678 96.017" xmlns="http://www.w3.org/2000/svg">
 <g transform="translate(-36.136 -62.979)">
  <path d="m37.141 112.36h89.188" color="#000000" fill="#646464" stroke-width=".52917"/>
  <path d="m37.141 112.1v0.5293h89.188v-0.5293z" color="#000000" fill="#cfcfcf"/>
  <path d="m125.06 110.59-0.37305 0.375 1.4004 1.4004-1.4004 1.4004 0.37305 0.37304 1.7754-1.7734z" color="#000000" fill="#cfcfcf"/>
  <path d="m81.735 157.46v-89.188" color="#000000" fill="#646464" stroke-width=".52917" style="-inkscape-stroke:none"/>
  <path d="m81.471 68.277v89.187h0.5293v-89.187z" color="#000000" fill="#cfcfcf" style="-inkscape-stroke:none"/>
  <path d="m81.734 67.771-1.7734 1.7734 0.37305 0.375 1.4004-1.4004 1.4004 1.4004 0.375-0.375z" color="#000000" fill="#cfcfcf" style="-inkscape-stroke:none"/>
  <rect x="59.284" y="89.913" width="44.903" height="44.903" fill="#666" fill-opacity=".34752" stroke="#fff" stroke-width=".52917"/>
  <path d="m59.284 134.82 44.903-44.903" fill="#b7b7b7" fill-opacity=".34752" stroke="#fff" stroke-width=".52917"/>
  <g fill="#fff" stroke-width=".26458">
   <g aria-label="0.5,0.5">
    <path d="m109.1 86.97q0 0.82201-0.32474 1.2939-0.31967 0.4719-0.87783 0.4719-0.55815 0-0.8829-0.46682-0.31967-0.4719-0.31967-1.2888 0-0.83723 0.31967-1.3041 0.32475-0.46682 0.89813-0.46682 0.548 0 0.86767 0.47697 0.31967 0.4719 0.31967 1.2838zm-0.48204-0.0051q0-1.5121-0.73067-1.5121-0.71038 0-0.71038 1.5222 0 1.5172 0.72052 1.5172 0.72053 0 0.72053-1.5273z"/>
    <path d="m110.34 88.4q0 0.13193-0.0964 0.22834-0.0913 0.09133-0.22327 0.09133-0.13192 0-0.22833-0.09133-0.0964-0.09641-0.0964-0.22834 0-0.137 0.0964-0.22834 0.0964-0.09641 0.23341-0.09641 0.12685 0 0.21819 0.09641 0.0964 0.09641 0.0964 0.22834z"/>
    <path d="m113.2 87.578q0 0.50234-0.37549 0.83216-0.37041 0.32474-0.94379 0.32474-0.38564 0-0.64442-0.14208t-0.25878-0.35012q0-0.1167 0.0812-0.19282 0.0812-0.07611 0.20804-0.07611 0.0355 0 0.12685 0.01522l0.20297 0.43638q0.17759 0.07104 0.33996 0.07104 0.35519 0 0.57846-0.22834 0.22326-0.23341 0.22326-0.60382 0-0.75097-1.0656-0.75097-0.22834 0-0.43638 0.03044v-1.6745h1.8166v0.39578h-1.502v1.0148q0.29937-0.08119 0.54801-0.08119 0.49726 0 0.79664 0.26893 0.30445 0.26893 0.30445 0.71038z"/>
    <path d="m114.61 88.624q0 0.49219-0.41608 0.75605-0.1776 0.11163-0.44145 0.15222v-0.16745q0.57845-0.1167 0.55815-0.7256h-0.32474q-0.0812-0.09641-0.0812-0.21819 0-0.28415 0.30445-0.28415 0.18267 0 0.28923 0.13193 0.11163 0.13193 0.11163 0.35519z" fill="#555"/>
    <path d="m117.57 86.97q0 0.82201-0.32475 1.2939-0.31967 0.4719-0.87782 0.4719-0.55816 0-0.8829-0.46682-0.31967-0.4719-0.31967-1.2888 0-0.83723 0.31967-1.3041 0.32474-0.46682 0.89812-0.46682 0.54801 0 0.86768 0.47697 0.31967 0.4719 0.31967 1.2838zm-0.48205-0.0051q0-1.5121-0.73067-1.5121-0.71038 0-0.71038 1.5222 0 1.5172 0.72053 1.5172 0.72052 0 0.72052-1.5273z"/>
    <path d="m118.81 88.4q0 0.13193-0.0964 0.22834-0.0913 0.09133-0.22326 0.09133-0.13193 0-0.22834-0.09133-0.0964-0.09641-0.0964-0.22834 0-0.137 0.0964-0.22834 0.0964-0.09641 0.23341-0.09641 0.12685 0 0.21819 0.09641 0.0964 0.09641 0.0964 0.22834z"/>
    <path d="m121.67 87.578q0 0.50234-0.37549 0.83216-0.37041 0.32474-0.94379 0.32474-0.38563 0-0.64441-0.14208t-0.25878-0.35012q0-0.1167 0.0812-0.19282 0.0812-0.07611 0.20804-0.07611 0.0355 0 0.12686 0.01522l0.20296 0.43638q0.1776 0.07104 0.33997 0.07104 0.35519 0 0.57845-0.22834 0.22326-0.23341 0.22326-0.60382 0-0.75097-1.0656-0.75097-0.22833 0-0.43637 0.03044v-1.6745h1.8165v0.39578h-1.502v1.0148q0.29938-0.08119 0.54801-0.08119 0.49727 0 0.79664 0.26893 0.30445 0.26893 0.30445 0.71038z"/>
   </g>
   <g aria-label="-0.5,0.5">
    <path d="m41.279 87.624h-1.1417v-0.33997h1.1417z"/>
    <path d="m44.131 86.97q0 0.82201-0.32474 1.2939-0.31967 0.4719-0.87783 0.4719-0.55816 0-0.8829-0.46682-0.31967-0.4719-0.31967-1.2888 0-0.83723 0.31967-1.3041 0.32474-0.46682 0.89812-0.46682 0.54801 0 0.86768 0.47697 0.31967 0.4719 0.31967 1.2838zm-0.48204-0.0051q0-1.5121-0.73068-1.5121-0.71038 0-0.71038 1.5222 0 1.5172 0.72053 1.5172 0.72053 0 0.72053-1.5273z"/>
    <path d="m45.369 88.4q0 0.13193-0.09641 0.22834-0.09133 0.09133-0.22326 0.09133-0.13193 0-0.22834-0.09133-0.09641-0.09641-0.09641-0.22834 0-0.137 0.09641-0.22834 0.09641-0.09641 0.23341-0.09641 0.12685 0 0.21819 0.09641 0.09641 0.09641 0.09641 0.22834z"/>
    <path d="m48.23 87.578q0 0.50234-0.37549 0.83216-0.37041 0.32474-0.94379 0.32474-0.38564 0-0.64442-0.14208t-0.25878-0.35012q0-0.1167 0.08119-0.19282 0.08119-0.07611 0.20804-0.07611 0.03552 0 0.12685 0.01522l0.20297 0.43638q0.1776 0.07104 0.33997 0.07104 0.35519 0 0.57845-0.22834 0.22326-0.23341 0.22326-0.60382 0-0.75097-1.0656-0.75097-0.22834 0-0.43638 0.03044v-1.6745h1.8165v0.39578h-1.5019v1.0148q0.29937-0.08119 0.54801-0.08119 0.49727 0 0.79664 0.26893 0.30445 0.26893 0.30445 0.71038z"/>
    <path d="m49.631 88.624q0 0.49219-0.41608 0.75605-0.1776 0.11163-0.44145 0.15222v-0.16745q0.57845-0.1167 0.55816-0.7256h-0.32474q-0.08119-0.09641-0.08119-0.21819 0-0.28415 0.30445-0.28415 0.18267 0 0.28923 0.13193 0.11163 0.13193 0.11163 0.35519z" fill="#555"/>
    <path d="m52.599 86.97q0 0.82201-0.32474 1.2939-0.31967 0.4719-0.87783 0.4719-0.55816 0-0.8829-0.46682-0.31967-0.4719-0.31967-1.2888 0-0.83723 0.31967-1.3041 0.32474-0.46682 0.89812-0.46682 0.54801 0 0.86768 0.47697 0.31967 0.4719 0.31967 1.2838zm-0.48204-0.0051q0-1.5121-0.73068-1.5121-0.71038 0-0.71038 1.5222 0 1.5172 0.72053 1.5172t0.72053-1.5273z"/>
    <path d="m53.837 88.4q0 0.13193-0.09641 0.22834-0.09133 0.09133-0.22326 0.09133-0.13193 0-0.22834-0.09133-0.09641-0.09641-0.09641-0.22834 0-0.137 0.09641-0.22834 0.09641-0.09641 0.23341-0.09641 0.12685 0 0.21819 0.09641 0.09641 0.09641 0.09641 0.22834z"/>
    <path d="m56.699 87.578q0 0.50234-0.37549 0.83216-0.37041 0.32474-0.94379 0.32474-0.38564 0-0.64442-0.14208t-0.25878-0.35012q0-0.1167 0.08119-0.19282 0.08119-0.07611 0.20804-0.07611 0.03552 0 0.12685 0.01522l0.20296 0.43638q0.1776 0.07104 0.33997 0.07104 0.35519 0 0.57845-0.22834 0.22326-0.23341 0.22326-0.60382 0-0.75097-1.0656-0.75097-0.22834 0-0.43638 0.03044v-1.6745h1.8165v0.39578h-1.5019v1.0148q0.29937-0.08119 0.54801-0.08119 0.49727 0 0.79664 0.26893 0.30445 0.26893 0.30445 0.71038z"/>
   </g>
   <g aria-label="0.5,-0.5">
    <path d="m109.1 137.82q0 0.82201-0.32474 1.2939-0.31967 0.4719-0.87783 0.4719-0.55815 0-0.8829-0.46682-0.31967-0.4719-0.31967-1.2888 0-0.83724 0.31967-1.3041 0.32475-0.46682 0.89813-0.46682 0.548 0 0.86767 0.47697 0.31967 0.4719 0.31967 1.2838zm-0.48204-5e-3q0-1.5121-0.73067-1.5121-0.71038 0-0.71038 1.5222 0 1.5172 0.72052 1.5172 0.72053 0 0.72053-1.5273z"/>
    <path d="m110.34 139.25q0 0.13192-0.0964 0.22833-0.0913 0.0913-0.22327 0.0913-0.13192 0-0.22833-0.0913-0.0964-0.0964-0.0964-0.22833 0-0.13701 0.0964-0.22834 0.0964-0.0964 0.23341-0.0964 0.12685 0 0.21819 0.0964 0.0964 0.0964 0.0964 0.22834z"/>
    <path d="m113.2 138.43q0 0.50234-0.37549 0.83216-0.37041 0.32475-0.94379 0.32475-0.38564 0-0.64442-0.14208-0.25878-0.14207-0.25878-0.35011 0-0.11671 0.0812-0.19282 0.0812-0.0761 0.20804-0.0761 0.0355 0 0.12685 0.0152l0.20297 0.43638q0.17759 0.071 0.33996 0.071 0.35519 0 0.57846-0.22833 0.22326-0.23341 0.22326-0.60383 0-0.75097-1.0656-0.75097-0.22834 0-0.43638 0.0305v-1.6745h1.8166v0.39578h-1.502v1.0148q0.29937-0.0812 0.54801-0.0812 0.49726 0 0.79664 0.26893 0.30445 0.26892 0.30445 0.71037z"/>
    <path d="m114.61 139.47q0 0.49219-0.41608 0.75604-0.1776 0.11164-0.44145 0.15223v-0.16745q0.57845-0.1167 0.55815-0.7256h-0.32474q-0.0812-0.0964-0.0812-0.21819 0-0.28415 0.30445-0.28415 0.18267 0 0.28923 0.13193 0.11163 0.13193 0.11163 0.35519z" fill="#555"/>
    <path d="m116.34 138.47h-1.1417v-0.33997h1.1417z"/>
    <path d="m119.19 137.82q0 0.82201-0.32474 1.2939-0.31968 0.4719-0.87783 0.4719-0.55816 0-0.8829-0.46682-0.31967-0.4719-0.31967-1.2888 0-0.83724 0.31967-1.3041 0.32474-0.46682 0.89812-0.46682 0.54801 0 0.86768 0.47697 0.31967 0.4719 0.31967 1.2838zm-0.48204-5e-3q0-1.5121-0.73068-1.5121-0.71038 0-0.71038 1.5222 0 1.5172 0.72053 1.5172t0.72053-1.5273z"/>
    <path d="m120.43 139.25q0 0.13192-0.0964 0.22833-0.0913 0.0913-0.22326 0.0913-0.13193 0-0.22834-0.0913-0.0964-0.0964-0.0964-0.22833 0-0.13701 0.0964-0.22834 0.0964-0.0964 0.23341-0.0964 0.12686 0 0.21819 0.0964 0.0964 0.0964 0.0964 0.22834z"/>
    <path d="m123.29 138.43q0 0.50234-0.37549 0.83216-0.37041 0.32475-0.94379 0.32475-0.38563 0-0.64441-0.14208-0.25878-0.14207-0.25878-0.35011 0-0.11671 0.0812-0.19282 0.0812-0.0761 0.20804-0.0761 0.0355 0 0.12686 0.0152l0.20296 0.43638q0.1776 0.071 0.33997 0.071 0.35519 0 0.57845-0.22833 0.22326-0.23341 0.22326-0.60383 0-0.75097-1.0656-0.75097-0.22833 0-0.43637 0.0305v-1.6745h1.8165v0.39578h-1.502v1.0148q0.29938-0.0812 0.54801-0.0812 0.49727 0 0.79664 0.26893 0.30445 0.26892 0.30445 0.71037z"/>
   </g>
   <g aria-label="-0.5,-0.5">
    <path d="m39.66 138.47h-1.1417v-0.33997h1.1417z"/>
    <path d="m42.512 137.82q0 0.82201-0.32474 1.2939-0.31967 0.4719-0.87783 0.4719-0.55816 0-0.8829-0.46682-0.31967-0.4719-0.31967-1.2888 0-0.83724 0.31967-1.3041 0.32474-0.46682 0.89812-0.46682 0.54801 0 0.86768 0.47697 0.31967 0.4719 0.31967 1.2838zm-0.48204-5e-3q0-1.5121-0.73068-1.5121-0.71038 0-0.71038 1.5222 0 1.5172 0.72053 1.5172t0.72053-1.5273z"/>
    <path d="m43.75 139.25q0 0.13192-0.09641 0.22833-0.09134 0.0913-0.22326 0.0913-0.13193 0-0.22834-0.0913-0.09641-0.0964-0.09641-0.22833 0-0.13701 0.09641-0.22834 0.09641-0.0964 0.23341-0.0964 0.12685 0 0.21819 0.0964 0.09641 0.0964 0.09641 0.22834z"/>
    <path d="m46.612 138.43q0 0.50234-0.37549 0.83216-0.37041 0.32475-0.94379 0.32475-0.38563 0-0.64442-0.14208-0.25878-0.14207-0.25878-0.35011 0-0.11671 0.08119-0.19282 0.08119-0.0761 0.20804-0.0761 0.03552 0 0.12685 0.0152l0.20297 0.43638q0.1776 0.071 0.33997 0.071 0.35519 0 0.57845-0.22833 0.22326-0.23341 0.22326-0.60383 0-0.75097-1.0656-0.75097-0.22834 0-0.43638 0.0305v-1.6745h1.8165v0.39578h-1.5019v1.0148q0.29938-0.0812 0.54801-0.0812 0.49727 0 0.79664 0.26893 0.30445 0.26892 0.30445 0.71037z"/>
    <path d="m48.012 139.47q0 0.49219-0.41608 0.75604-0.1776 0.11164-0.44145 0.15223v-0.16745q0.57845-0.1167 0.55816-0.7256h-0.32474q-0.08119-0.0964-0.08119-0.21819 0-0.28415 0.30445-0.28415 0.18267 0 0.28923 0.13193 0.11163 0.13193 0.11163 0.35519z" fill="#555"/>
    <path d="m49.748 138.47h-1.1417v-0.33997h1.1417z"/>
    <path d="m52.599 137.82q0 0.82201-0.32474 1.2939-0.31967 0.4719-0.87783 0.4719-0.55816 0-0.8829-0.46682-0.31967-0.4719-0.31967-1.2888 0-0.83724 0.31967-1.3041 0.32474-0.46682 0.89812-0.46682 0.54801 0 0.86768 0.47697 0.31967 0.4719 0.31967 1.2838zm-0.48204-5e-3q0-1.5121-0.73068-1.5121-0.71038 0-0.71038 1.5222 0 1.5172 0.72053 1.5172t0.72053-1.5273z"/>
    <path d="m53.837 139.25q0 0.13192-0.09641 0.22833-0.09133 0.0913-0.22326 0.0913-0.13193 0-0.22834-0.0913-0.09641-0.0964-0.09641-0.22833 0-0.13701 0.09641-0.22834 0.09641-0.0964 0.23341-0.0964 0.12685 0 0.21819 0.0964 0.09641 0.0964 0.09641 0.22834z"/>
    <path d="m56.699 138.43q0 0.50234-0.37549 0.83216-0.37041 0.32475-0.94379 0.32475-0.38564 0-0.64442-0.14208-0.25878-0.14207-0.25878-0.35011 0-0.11671 0.08119-0.19282 0.08119-0.0761 0.20804-0.0761 0.03552 0 0.12685 0.0152l0.20296 0.43638q0.1776 0.071 0.33997 0.071 0.35519 0 0.57845-0.22833 0.22326-0.23341 0.22326-0.60383 0-0.75097-1.0656-0.75097-0.22834 0-0.43638 0.0305v-1.6745h1.8165v0.39578h-1.5019v1.0148q0.29937-0.0812 0.54801-0.0812 0.49727 0 0.79664 0.26893 0.30445 0.26892 0.30445 0.71037z"/>
   </g>
   <g aria-label="x">
    <path d="m129.38 107.75q0 0.17759-0.24863 0.28922l-0.21819-0.19789q-0.33996 0.0913-0.67993 0.86768 0.14715 0.52263 0.22326 0.7053 0.11671 0.2943 0.33997 0.2943 0.12178 0 0.27908-0.0507v0.1573q-0.38564 0.14715-0.57846 0.14715-0.26893 0-0.39071-0.32474-0.066-0.17253-0.18774-0.69516-0.26893 0.55308-0.49726 0.79156-0.22327 0.23849-0.4719 0.23849-0.14208 0-0.22834-0.0761-0.0863-0.0761-0.0863-0.19789 0-0.21312 0.24864-0.25879l0.23341 0.21819q0.39578-0.21311 0.7053-0.94886-0.19789-0.70531-0.38563-0.8829l-0.42116-0.0558v-0.12178l0.51249-0.17759q0.0254-5e-3 0.066-5e-3 0.18774 0 0.2943 0.22834 0.0457 0.10148 0.0761 0.20297 0.0304 0.10148 0.1573 0.59367 0.49726-1.0148 0.96916-1.0148 0.12178 0 0.20296 0.0812 0.0863 0.0761 0.0863 0.19282z"/>
   </g>
   <g aria-label="y">
    <path d="m86.614 64.07-0.25878 0.15222q-0.23848 0.27908-0.57845 1.025-0.44652 0.96916-0.77634 1.4258-0.51249 0.7053-0.99453 0.7053-0.17252 0-0.2943-0.10148-0.12685-0.09641-0.12685-0.23341 0-0.22326 0.274-0.27908l0.29937 0.29938q0.42623-0.03045 0.87275-0.86768l-0.3146-1.5425q-0.06596-0.33489-0.20296-0.52771l-0.4313-0.03552v-0.11163l0.49726-0.16237q0.02537-0.0051 0.06596-0.0051 0.19789 0 0.2943 0.21311 0.05074 0.10656 0.07611 0.21819 0.03552 0.14715 0.137 0.65964l0.16745 0.85753q0.37549-0.93872 0.79664-1.9282h0.09641l0.40086 0.13193z"/>
   </g>
  </g>
  <g fill="#ed0f54" stroke-width=".26458" aria-label="#0">
   <path d="m91.55 121.75h-0.78649l-0.24863 0.74082h0.82708v0.23848h-0.90827l-0.42623 1.2838-0.23848-0.0812 0.40593-1.2026h-0.77634l-0.42115 1.2838-0.23848-0.0812 0.41608-1.2026h-0.73068v-0.23848h0.80679l0.24356-0.74082h-0.80171v-0.23849h0.8829l0.42115-1.2178 0.23848 0.0913-0.40086 1.1265h0.78142l0.40593-1.2127 0.23848 0.0863-0.39578 1.1265h0.7053zm-1.0453 0h-0.7662l-0.24863 0.74082h0.75605z"/>
   <path d="m94.493 122.19q0 0.82201-0.32474 1.2939-0.31967 0.4719-0.87783 0.4719-0.55816 0-0.8829-0.46682-0.31967-0.4719-0.31967-1.2888 0-0.83723 0.31967-1.304 0.32474-0.46682 0.89812-0.46682 0.54801 0 0.86768 0.47697 0.31967 0.47189 0.31967 1.2838zm-0.48204-5e-3q0-1.5121-0.73068-1.5121-0.71038 0-0.71038 1.5222 0 1.5172 0.72053 1.5172t0.72053-1.5273z"/>
  </g>
  <g fill="#0f9aed" stroke-width=".26458" aria-label="#1">
   <path d="m72.349 102.44h-0.78649l-0.24863 0.74082h0.82708v0.23849h-0.90827l-0.42623 1.2838-0.23848-0.0812 0.40593-1.2026h-0.77634l-0.42115 1.2838-0.23848-0.0812 0.41608-1.2026h-0.73068v-0.23849h0.80679l0.24356-0.74082h-0.80171v-0.23849h0.8829l0.42115-1.2178 0.23848 0.0913-0.40086 1.1265h0.78142l0.40593-1.2127 0.23848 0.0863-0.39578 1.1265h0.7053zm-1.0453 0h-0.7662l-0.24863 0.74082h0.75605z"/>
   <path d="m75.063 104.59h-1.7658v-0.21819l0.60382-0.0254 0.06089-0.0913v-2.7248l-0.82708 0.137v-0.21311l1.1468-0.32982h0.15222v3.1561l0.06089 0.0761 0.5683 0.0254z"/>
  </g>
  <g fill="none" stroke-width=".52917">
   <g stroke="#ed0f54">
    <path d="m94.77 133.75h8.3492v-8.3062"/>
    <path d="m103.12 99.345v-6.8719l-4.8131 4.8131"/>
    <path d="m66.687 128.91-4.8347 4.8347h6.8374"/>
   </g>
   <g stroke="#0f9aed">
    <path d="m68.701 90.981h-8.3492v8.3062"/>
    <path d="m60.351 125.38v6.8719l4.8131-4.8132"/>
    <path d="m96.783 95.815 4.8347-4.8347h-6.8374"/>
   </g>
  </g>
 </g>
</svg>
