<?xml version="1.0" encoding="UTF-8" standalone="no"?>
<!-- Created with Inkscape (http://www.inkscape.org/) -->

<svg
   width="230mm"
   height="100mm"
   viewBox="0 0 230 100"
   version="1.1"
   id="svg5"
   sodipodi:docname="two-rotations-light.svg"
   inkscape:version="1.2 (dc2aedaf03, 2022-05-15)"
   inkscape:export-filename="quad-dark.plain.svg"
   inkscape:export-xdpi="491.52"
   inkscape:export-ydpi="491.52"
   xml:space="preserve"
   xmlns:inkscape="http://www.inkscape.org/namespaces/inkscape"
   xmlns:sodipodi="http://sodipodi.sourceforge.net/DTD/sodipodi-0.dtd"
   xmlns:xlink="http://www.w3.org/1999/xlink"
   xmlns="http://www.w3.org/2000/svg"
   xmlns:svg="http://www.w3.org/2000/svg"><sodipodi:namedview
     id="namedview7"
     pagecolor="#ffffff"
     bordercolor="#666666"
     borderopacity="1.0"
     inkscape:showpageshadow="2"
     inkscape:pageopacity="0"
     inkscape:pagecheckerboard="0"
     inkscape:deskcolor="#d1d1d1"
     inkscape:document-units="mm"
     showgrid="false"
     inkscape:zoom="1.0872561"
     inkscape:cx="430.90126"
     inkscape:cy="269.48574"
     inkscape:window-width="1920"
     inkscape:window-height="1017"
     inkscape:window-x="-8"
     inkscape:window-y="-8"
     inkscape:window-maximized="1"
     inkscape:current-layer="layer1"
     showguides="true" /><defs
     id="defs2"><linearGradient
       inkscape:collect="always"
       id="linearGradient2210"><stop
         style="stop-color:#00fe66;stop-opacity:1"
         offset="0"
         id="stop2206" /><stop
         style="stop-color:#008230;stop-opacity:1"
         offset="1"
         id="stop2208" /></linearGradient><marker
       style="overflow:visible"
       id="Arrow1"
       refX="0"
       refY="0"
       orient="auto-start-reverse"
       inkscape:stockid="Arrow1"
       markerWidth="4.0606599"
       markerHeight="6.7071066"
       viewBox="0 0 4.0606602 6.7071068"
       inkscape:isstock="true"
       inkscape:collect="always"
       preserveAspectRatio="xMidYMid"><path
         style="fill:none;stroke:context-stroke;stroke-width:1;stroke-linecap:butt"
         d="M 3,-3 0,0 3,3"
         id="path5057"
         transform="rotate(180,0.125,0)"
         sodipodi:nodetypes="ccc" /></marker><linearGradient
       inkscape:collect="always"
       xlink:href="#linearGradient2210"
       id="linearGradient2212"
       x1="72.759689"
       y1="128.68353"
       x2="72.759689"
       y2="85.123955"
       gradientUnits="userSpaceOnUse"
       gradientTransform="translate(78.723598,28.715254)" /><linearGradient
       inkscape:collect="always"
       xlink:href="#linearGradient4364-0"
       id="linearGradient541"
       gradientUnits="userSpaceOnUse"
       gradientTransform="rotate(180,12.324721,33.305796)"
       x1="-7.1842771"
       y1="-16.500227"
       x2="-7.1842771"
       y2="29.2715" /><linearGradient
       inkscape:collect="always"
       xlink:href="#linearGradient4364-0"
       id="linearGradient8950"
       gradientUnits="userSpaceOnUse"
       gradientTransform="rotate(180,115.22604,35.789162)"
       x1="-8.567318"
       y1="-17.53373"
       x2="-8.567318"
       y2="29.61459" /><linearGradient
       inkscape:collect="always"
       xlink:href="#linearGradient4364-0"
       id="linearGradient9416"
       gradientUnits="userSpaceOnUse"
       gradientTransform="rotate(180,115.22604,35.789162)"
       x1="-6.2504234"
       y1="-17.568518"
       x2="-6.9176464"
       y2="29.112434" /><linearGradient
       inkscape:collect="always"
       id="linearGradient4364-0"><stop
         style="stop-color:#00fe66;stop-opacity:0.30063292;"
         offset="0"
         id="stop4360-4" /><stop
         style="stop-color:#009936;stop-opacity:0.61708862;"
         offset="1"
         id="stop4362-5" /></linearGradient></defs><g
     inkscape:label="Layer 1"
     inkscape:groupmode="layer"
     id="layer1"><path
   style="color:#000000;fill:#646464;stroke-width:0.529167"
   d="M 86.280594,42.972452 H 175.46823"
   id="path14862" /><rect
   style="fill:#666666;fill-opacity:0.347518;stroke:#ffffff;stroke-width:0.529;stroke-dasharray:none;stroke-opacity:1"
   id="rect184"
   width="44.903324"
   height="44.903324"
   x="-76.992218"
   y="89.912758" /><path
   style="fill:#b7b7b7;fill-opacity:0.347518;stroke:#ffffff;stroke-width:0.529167;stroke-dasharray:none;stroke-opacity:1"
   d="M -76.992215,134.81608 -32.08889,89.912758"
   id="path1109" /><text
   xml:space="preserve"
   style="font-style:normal;font-variant:normal;font-weight:normal;font-stretch:normal;font-size:5.07414px;line-height:1.25;font-family:'Charter ITC TT';-inkscape-font-specification:'Charter ITC TT';letter-spacing:0px;word-spacing:0px;fill:#ed0f54;fill-opacity:1;stroke:none;stroke-width:0.264584"
   x="-48.181488"
   y="123.8931"
   id="text2581"><tspan
     sodipodi:role="line"
     id="tspan2579"
     style="font-style:normal;font-variant:normal;font-weight:normal;font-stretch:normal;font-family:'Charter ITC TT';-inkscape-font-specification:'Charter ITC TT';fill:#ed0f54;fill-opacity:1;stroke-width:0.264584"
     x="-48.181488"
     y="123.8931">#0</tspan></text><text
   xml:space="preserve"
   style="font-style:normal;font-variant:normal;font-weight:normal;font-stretch:normal;font-size:5.07414px;line-height:1.25;font-family:'Charter ITC TT';-inkscape-font-specification:'Charter ITC TT';letter-spacing:0px;word-spacing:0px;fill:#0f9aed;fill-opacity:1;stroke:none;stroke-width:0.264584"
   x="-67.382515"
   y="104.59128"
   id="text2585"><tspan
     sodipodi:role="line"
     id="tspan2583"
     style="font-style:normal;font-variant:normal;font-weight:normal;font-stretch:normal;font-family:'Charter ITC TT';-inkscape-font-specification:'Charter ITC TT';fill:#0f9aed;fill-opacity:1;stroke-width:0.264584"
     x="-67.382515"
     y="104.59128">#1</tspan></text><path
   style="fill:none;fill-opacity:1;stroke:#ed0f54;stroke-width:0.529167;stroke-dasharray:none;stroke-opacity:1"
   d="m -41.505936,133.74825 h 8.349216 v -8.30619"
   id="path2641"
   sodipodi:nodetypes="ccc" /><path
   style="fill:none;fill-opacity:1;stroke:#ed0f54;stroke-width:0.529167;stroke-dasharray:none;stroke-opacity:1"
   d="m -33.15673,99.344701 v -6.87191 l -4.813149,4.813148"
   id="path2643"
   sodipodi:nodetypes="ccc" /><path
   style="fill:none;fill-opacity:1;stroke:#ed0f54;stroke-width:0.529167;stroke-dasharray:none;stroke-opacity:1"
   d="m -69.588574,128.91352 -4.834713,4.83472 h 6.837361"
   id="path2645"
   sodipodi:nodetypes="ccc" /><path
   style="fill:none;fill-opacity:1;stroke:#0f9aed;stroke-width:0.529167;stroke-dasharray:none;stroke-opacity:1"
   d="m -67.575169,90.980588 h -8.349216 v 8.30619"
   id="path3356"
   sodipodi:nodetypes="ccc" /><path
   style="fill:none;fill-opacity:1;stroke:#0f9aed;stroke-width:0.529167;stroke-dasharray:none;stroke-opacity:1"
   d="m -75.924375,125.38414 v 6.87191 l 4.813149,-4.81315"
   id="path3358"
   sodipodi:nodetypes="ccc" /><path
   style="fill:none;fill-opacity:1;stroke:#0f9aed;stroke-width:0.529167;stroke-dasharray:none;stroke-opacity:1"
   d="m -39.492531,95.815318 4.834711,-4.83472 h -6.837359"
   id="path3360"
   sodipodi:nodetypes="ccc" /><circle
   style="fill:none;stroke:#ffffff;stroke-width:0.529;stroke-dasharray:none;stroke-opacity:1"
   id="path372"
   cx="44.837776"
   cy="-41.199303"
   r="30" /><rect
   style="fill:none;stroke:#ffffff;stroke-width:0.529;stroke-dasharray:none;stroke-opacity:1"
   id="rect1958"
   width="5.5594635"
   height="5.4586253"
   x="-28.258793"
   y="114.31122" /><path
   style="fill:url(#linearGradient2212);fill-opacity:1;stroke:#ffffff;stroke-width:0.529;stroke-dasharray:none;stroke-opacity:1"
   d="m 179.71227,157.4555 h -55.56958 l 27.7989,-43.66894 z"
   id="path2144"
   sodipodi:nodetypes="cccc" /><path
   style="fill:url(#linearGradient541);fill-opacity:1;stroke:#1c1c1c;stroke-width:0.529;stroke-dasharray:none;stroke-opacity:1"
   d="M 63.166672,84.611592 H 3.1666721 l 29.9999999,-48 z"
   id="triangle-1"
   sodipodi:nodetypes="cccc" /><path
   style="fill:#646464;fill-opacity:1;stroke:#cfcfcf;stroke-width:0.529167;stroke-dasharray:none;stroke-opacity:1;marker-end:url(#Arrow1)"
   d="m -116.93854,51.493528 h 89.187636"
   id="path14848" /><path
   style="fill:#646464;fill-opacity:1;stroke:#cfcfcf;stroke-width:0.529167;stroke-dasharray:none;stroke-opacity:1;marker-end:url(#Arrow1)"
   d="M -72.344726,96.593818 V 7.406182"
   id="path14850" /><text
   xml:space="preserve"
   style="font-style:italic;font-variant:normal;font-weight:normal;font-stretch:normal;font-size:5.07414px;line-height:1.25;font-family:'Charter ITC TT';-inkscape-font-specification:'Charter ITC TT Italic';letter-spacing:0px;word-spacing:0px;fill:#ffffff;fill-opacity:1;stroke:none;stroke-width:0.264584"
   x="-19.294336"
   y="49.05093"
   id="text14882"><tspan
     sodipodi:role="line"
     id="tspan14880"
     style="font-style:italic;font-variant:normal;font-weight:normal;font-stretch:normal;font-family:'Charter ITC TT';-inkscape-font-specification:'Charter ITC TT Italic';fill:#ffffff;fill-opacity:1;stroke-width:0.264584"
     x="-19.294336"
     y="49.05093">y</tspan></text><text
   xml:space="preserve"
   style="font-style:italic;font-variant:normal;font-weight:normal;font-stretch:normal;font-size:5.07414px;line-height:1.25;font-family:'Charter ITC TT';-inkscape-font-specification:'Charter ITC TT Italic';letter-spacing:0px;word-spacing:0px;fill:#ffffff;fill-opacity:1;stroke:none;stroke-width:0.264584"
   x="-62.006889"
   y="5.4061007"
   id="text14886"><tspan
     sodipodi:role="line"
     id="tspan14884"
     style="font-style:italic;font-variant:normal;font-weight:normal;font-stretch:normal;font-family:'Charter ITC TT';-inkscape-font-specification:'Charter ITC TT Italic';fill:#ffffff;fill-opacity:1;stroke-width:0.264584"
     x="-62.006889"
     y="5.4061007">z</tspan></text><g
   aria-label="R2"
   id="text14886-8"
   style="font-style:italic;font-size:5.85673px;line-height:1.25;font-family:'Charter ITC TT';-inkscape-font-specification:'Charter ITC TT Italic';letter-spacing:0px;word-spacing:0px;fill:#fe8200;stroke-width:0.305391;fill-opacity:1"
   transform="translate(-1.7034473)"><path
     d="m 101.64437,33.888144 q -0.26941,0.03514 -0.41583,0.03514 -0.46268,0 -0.64424,-0.263553 -0.10542,-0.152275 -0.24013,-0.761375 -0.10542,-0.474395 -0.24598,-0.603243 -0.158132,-0.146419 -0.491965,-0.146419 -0.175702,0 -0.333834,0.0059 l -0.275266,1.399759 0.07028,0.08785 0.380688,0.02928 v 0.222556 h -1.429042 v -0.222556 l 0.37483,-0.02928 0.09371,-0.08199 0.62667,-3.256341 -0.06442,-0.08785 -0.415828,-0.02928 v -0.222556 h 1.481757 q 1.24163,0 1.24163,0.843369 0,0.948791 -1.17135,1.229914 0.31041,0.08199 0.43926,0.269409 0.12884,0.187416 0.28112,0.773089 0.0937,0.368974 0.24012,0.486108 0.14642,0.111278 0.49783,0.105421 z m -0.85509,-2.981075 q 0,-0.673524 -0.890219,-0.673524 -0.152275,0 -0.257696,0.0059 l -0.316264,1.634028 q 0.09956,0.01171 0.222556,0.01171 0.585673,0 0.913653,-0.257696 0.32797,-0.257697 0.32797,-0.720378 z"
     id="path17815"
     style="fill:#fe8200;fill-opacity:1" /><path
     d="m 104.74257,30.766507 q 0,0.685238 -0.9195,1.493466 -0.38069,0.333834 -1.56961,1.171346 h 1.76288 l 0.19913,-0.497822 h 0.26355 l -0.18156,0.960504 h -2.71166 l 0.0703,-0.368974 q 1.18306,-0.831656 1.60474,-1.206486 0.49782,-0.439255 0.70281,-0.778945 0.20498,-0.345548 0.20498,-0.732092 0,-0.286979 -0.16984,-0.450968 -0.16985,-0.163988 -0.46268,-0.163988 -0.24013,0 -0.55639,0.140561 l -0.11714,0.62667 q -0.15227,0.08785 -0.28112,0.08785 -0.27527,0 -0.27527,-0.240126 0,-0.35726 0.4334,-0.632527 0.43926,-0.281123 0.99565,-0.281123 0.47439,0 0.73794,0.23427 0.26941,0.228412 0.26941,0.638383 z"
     id="path17817"
     style="fill:#fe8200;fill-opacity:1" /></g>

         

 

     <g
   id="g8124"><g
     id="g628"
     transform="rotate(-90,134.68666,-1.7734876)"><path
       style="color:#000000;fill:#cfcfcf"
       d="M 151.37668,21.536024 V 22.06532 H 164.6391 V 21.536024 Z"
       id="path14864"
       sodipodi:nodetypes="ccccc" /><g
       id="g14854"
       transform="translate(70.045354,-29.692492)"><path
         style="color:#000000;fill:#cfcfcf"
         d="m 93.326172,49.71875 -0.375,0.375 1.40039,1.400391 -1.40039,1.40039 0.375,0.373047 1.773437,-1.773437 z"
         id="path14856" /></g></g><g
     aria-label="y"
     id="text1541"
     style="font-style:italic;font-size:5.07414px;line-height:1.25;font-family:'Charter ITC TT';-inkscape-font-specification:'Charter ITC TT Italic';letter-spacing:0px;word-spacing:0px;fill:#45c832;fill-opacity:1;stroke-width:0.264584"
     transform="translate(77.38518,-64.045831)"><path
       d="m 97.590863,46.843679 -0.258781,0.152224 q -0.238485,0.279078 -0.578452,1.024977 -0.446524,0.96916 -0.776344,1.425833 -0.512488,0.705305 -0.994531,0.705305 -0.172521,0 -0.2943,-0.101482 -0.126854,-0.09641 -0.126854,-0.233411 0,-0.223262 0.274004,-0.279078 l 0.299374,0.299375 q 0.426228,-0.03044 0.872752,-0.867678 l -0.314596,-1.542539 q -0.06596,-0.334893 -0.202966,-0.52771 l -0.431302,-0.03552 v -0.111631 l 0.497266,-0.162373 q 0.02537,-0.0051 0.06596,-0.0051 0.197891,0 0.2943,0.213114 0.05074,0.106557 0.07611,0.218188 0.03552,0.14715 0.137002,0.659638 l 0.167446,0.85753 q 0.375487,-0.938716 0.79664,-1.928173 h 0.09641 l 0.400857,0.131927 z"
       id="path14891"
       style="fill:#45c832;fill-opacity:1" /></g><g
     aria-label="z"
     id="text1545"
     style="font-style:italic;font-size:5.07414px;line-height:1.25;font-family:'Charter ITC TT';-inkscape-font-specification:'Charter ITC TT Italic';letter-spacing:0px;word-spacing:0px;fill:#3476d0;fill-opacity:1;stroke-width:0.264584"
     transform="translate(101.95165,-38.166309)"><path
       d="M 54.624601,3.0821446 52.874023,5.0356885 53.366214,4.908835 q 0.390709,0.1674466 0.527711,0.1674466 0.172521,0 0.304448,-0.182669 L 53.919296,4.5840901 q 0.111631,-0.1826691 0.248633,-0.1826691 0.101482,0 0.17252,0.08626 0.07104,0.08626 0.07104,0.2131139 0,0.2790777 -0.218188,0.4972657 -0.213114,0.218188 -0.487117,0.218188 -0.116705,0 -0.26893,-0.055815 -0.131927,-0.050741 -0.258781,-0.1014828 -0.167446,-0.06089 -0.274003,-0.06089 -0.06089,0 -0.152225,0.045667 l -0.121779,0.218188 -0.279078,-0.1522242 1.745505,-1.9586181 -0.50234,0.1116311 q -0.2943,-0.1471501 -0.451599,-0.1471501 -0.182669,0 -0.314596,0.1623725 l 0.268929,0.324745 q -0.101485,0.162373 -0.238487,0.162373 -0.238484,0 -0.238484,-0.2943002 0,-0.2740035 0.20804,-0.4921915 0.213113,-0.2232622 0.476969,-0.2232622 0.167446,0 0.461746,0.1522242 0.192818,0.1014828 0.294301,0.1014828 0.06089,0 0.157298,-0.040593 l 0.09641,-0.2486329 z"
       id="path14888"
       style="fill:#3476d0;fill-opacity:1" /></g><g
     id="g636"
     transform="translate(6.619492,-40.528827)"><path
       style="color:#000000;fill:#cfcfcf"
       d="M 151.37668,21.536024 V 22.06532 H 164.6391 V 21.536024 Z"
       id="path630"
       sodipodi:nodetypes="ccccc" /><g
       id="g634"
       transform="translate(70.045354,-29.692492)"><path
         style="color:#000000;fill:#cfcfcf"
         d="m 93.326172,49.71875 -0.375,0.375 1.40039,1.400391 -1.40039,1.40039 0.375,0.373047 1.773437,-1.773437 z"
         id="path632" /></g></g><g
     aria-label="x"
     id="text644"
     style="font-style:italic;font-size:5.07414px;line-height:1.25;font-family:'Charter ITC TT';-inkscape-font-specification:'Charter ITC TT Italic';letter-spacing:0px;word-spacing:0px;fill:#fe3e00;fill-opacity:1;stroke-width:0.264584"
     transform="translate(3.3124275,-48.58944)"><path
       d="m 151.51998,30.065793 q 0,0.177595 -0.24864,0.289226 l -0.21818,-0.197891 q -0.33997,0.09133 -0.67994,0.867678 0.14715,0.522636 0.22326,0.705305 0.11671,0.2943 0.33997,0.2943 0.12178,0 0.27908,-0.05074 v 0.157298 q -0.38564,0.14715 -0.57845,0.14715 -0.26893,0 -0.39071,-0.324744 -0.066,-0.172521 -0.18775,-0.695158 -0.26893,0.553082 -0.49726,0.791566 -0.22326,0.238485 -0.4719,0.238485 -0.14207,0 -0.22833,-0.07611 -0.0863,-0.07611 -0.0863,-0.197892 0,-0.213114 0.24863,-0.258781 l 0.23341,0.218188 q 0.39578,-0.213114 0.70531,-0.948864 -0.1979,-0.705306 -0.38564,-0.882901 l -0.42115,-0.05582 v -0.121779 l 0.51249,-0.177595 q 0.0254,-0.0051 0.066,-0.0051 0.18774,0 0.2943,0.228336 0.0457,0.101483 0.0761,0.202965 0.0305,0.101483 0.1573,0.593675 0.49727,-1.014828 0.96916,-1.014828 0.12178,0 0.20297,0.08119 0.0863,0.07611 0.0863,0.192817 z"
       id="path748"
       style="fill:#fe3e00;fill-opacity:1" /></g><circle
     style="fill:none;stroke:#cfcfcf;stroke-width:0.511;stroke-dasharray:none;stroke-opacity:1"
     id="path803"
     cx="158.2607"
     cy="-18.727442"
     r="1.5331362" /><circle
     style="fill:#cfcfcf;fill-opacity:1;stroke:none;stroke-width:0.511;stroke-dasharray:none;stroke-opacity:1"
     id="circle1832"
     cx="158.2607"
     cy="-18.727442"
     r="0.47393817" /></g><g
   id="g17275"
   transform="translate(-30.74599,65.426456)"><g
     id="g7591"
     transform="rotate(-90,175.55427,4.5072191)"
     style="fill:#3476d0;fill-opacity:1"><path
       style="color:#000000;fill:#3476d0;fill-opacity:1"
       d="M 151.37668,21.536024 V 22.06532 H 164.6391 V 21.536024 Z"
       id="path7585"
       sodipodi:nodetypes="ccccc" /><g
       id="g7589"
       transform="translate(70.045354,-29.692492)"
       style="fill:#3476d0;fill-opacity:1"><path
         style="color:#000000;fill:#3476d0;fill-opacity:1"
         d="m 93.326172,49.71875 -0.375,0.375 1.40039,1.400391 -1.40039,1.40039 0.375,0.373047 1.773437,-1.773437 z"
         id="path7587" /></g></g><g
     aria-label="y"
     id="g7595"
     style="font-style:italic;font-size:5.07414px;line-height:1.25;font-family:'Charter ITC TT';-inkscape-font-specification:'Charter ITC TT Italic';letter-spacing:0px;word-spacing:0px;fill:#45c832;fill-opacity:1;stroke-width:0.264584"
     transform="translate(111.68311,-16.725921)"><path
       d="m 97.590863,46.843679 -0.258781,0.152224 q -0.238485,0.279078 -0.578452,1.024977 -0.446524,0.96916 -0.776344,1.425833 -0.512488,0.705305 -0.994531,0.705305 -0.172521,0 -0.2943,-0.101482 -0.126854,-0.09641 -0.126854,-0.233411 0,-0.223262 0.274004,-0.279078 l 0.299374,0.299375 q 0.426228,-0.03044 0.872752,-0.867678 l -0.314596,-1.542539 q -0.06596,-0.334893 -0.202966,-0.52771 l -0.431302,-0.03552 v -0.111631 l 0.497266,-0.162373 q 0.02537,-0.0051 0.06596,-0.0051 0.197891,0 0.2943,0.213114 0.05074,0.106557 0.07611,0.218188 0.03552,0.14715 0.137002,0.659638 l 0.167446,0.85753 q 0.375487,-0.938716 0.79664,-1.928173 h 0.09641 l 0.400857,0.131927 z"
       id="path7593"
       style="fill:#45c832;fill-opacity:1" /></g><g
     aria-label="z"
     id="g7599"
     style="font-style:italic;font-size:5.07414px;line-height:1.25;font-family:'Charter ITC TT';-inkscape-font-specification:'Charter ITC TT Italic';letter-spacing:0px;word-spacing:0px;fill:#3476d0;fill-opacity:1;stroke-width:0.264584"
     transform="translate(136.05186,10.137921)"><path
       d="M 54.624601,3.0821446 52.874023,5.0356885 53.366214,4.908835 q 0.390709,0.1674466 0.527711,0.1674466 0.172521,0 0.304448,-0.182669 L 53.919296,4.5840901 q 0.111631,-0.1826691 0.248633,-0.1826691 0.101482,0 0.17252,0.08626 0.07104,0.08626 0.07104,0.2131139 0,0.2790777 -0.218188,0.4972657 -0.213114,0.218188 -0.487117,0.218188 -0.116705,0 -0.26893,-0.055815 -0.131927,-0.050741 -0.258781,-0.1014828 -0.167446,-0.06089 -0.274003,-0.06089 -0.06089,0 -0.152225,0.045667 l -0.121779,0.218188 -0.279078,-0.1522242 1.745505,-1.9586181 -0.50234,0.1116311 q -0.2943,-0.1471501 -0.451599,-0.1471501 -0.182669,0 -0.314596,0.1623725 l 0.268929,0.324745 q -0.101485,0.162373 -0.238487,0.162373 -0.238484,0 -0.238484,-0.2943002 0,-0.2740035 0.20804,-0.4921915 0.213113,-0.2232622 0.476969,-0.2232622 0.167446,0 0.461746,0.1522242 0.192818,0.1014828 0.294301,0.1014828 0.06089,0 0.157298,-0.040593 l 0.09641,-0.2486329 z"
       id="path7597"
       style="fill:#3476d0;fill-opacity:1" /></g><g
     id="g7607"
     transform="translate(41.206398,6.619492)"
     style="fill:#45c832;fill-opacity:1"><path
       style="color:#000000;fill:#45c832;fill-opacity:1"
       d="M 151.37668,21.536024 V 22.06532 H 164.6391 V 21.536024 Z"
       id="path7601"
       sodipodi:nodetypes="ccccc" /><g
       id="g7605"
       transform="translate(70.045354,-29.692492)"
       style="fill:#45c832;fill-opacity:1"><path
         style="color:#000000;fill:#45c832;fill-opacity:1"
         d="m 93.326172,49.71875 -0.375,0.375 1.40039,1.400391 -1.40039,1.40039 0.375,0.373047 1.773437,-1.773437 z"
         id="path7603" /></g></g><g
     aria-label="x"
     id="g7611"
     style="font-style:italic;font-size:5.07414px;line-height:1.25;font-family:'Charter ITC TT';-inkscape-font-specification:'Charter ITC TT Italic';letter-spacing:0px;word-spacing:0px;fill:#fe3e00;fill-opacity:1;stroke-width:0.264584"
     transform="translate(38.906952,-0.03543669)"><path
       d="m 151.51998,30.065793 q 0,0.177595 -0.24864,0.289226 l -0.21818,-0.197891 q -0.33997,0.09133 -0.67994,0.867678 0.14715,0.522636 0.22326,0.705305 0.11671,0.2943 0.33997,0.2943 0.12178,0 0.27908,-0.05074 v 0.157298 q -0.38564,0.14715 -0.57845,0.14715 -0.26893,0 -0.39071,-0.324744 -0.066,-0.172521 -0.18775,-0.695158 -0.26893,0.553082 -0.49726,0.791566 -0.22326,0.238485 -0.4719,0.238485 -0.14207,0 -0.22833,-0.07611 -0.0863,-0.07611 -0.0863,-0.197892 0,-0.213114 0.24863,-0.258781 l 0.23341,0.218188 q 0.39578,-0.213114 0.70531,-0.948864 -0.1979,-0.705306 -0.38564,-0.882901 l -0.42115,-0.05582 v -0.121779 l 0.51249,-0.177595 q 0.0254,-0.0051 0.066,-0.0051 0.18774,0 0.2943,0.228336 0.0457,0.101483 0.0761,0.202965 0.0305,0.101483 0.1573,0.593675 0.49727,-1.014828 0.96916,-1.014828 0.12178,0 0.20297,0.08119 0.0863,0.07611 0.0863,0.192817 z"
       id="path7609"
       style="fill:#fe3e00;fill-opacity:1" /></g><circle
     style="fill:none;stroke:#fe3e00;stroke-width:0.511;stroke-dasharray:none;stroke-opacity:1"
     id="circle7613"
     cx="192.8476"
     cy="28.420877"
     r="1.5331362" /><circle
     style="fill:#fe3e00;fill-opacity:1;stroke:none;stroke-width:0.511;stroke-dasharray:none;stroke-opacity:1"
     id="circle7615"
     cx="192.8476"
     cy="28.420877"
     r="0.47393817" /></g><g
   id="g9438"
   transform="translate(-125.27838,-4.6236425)"><path
     style="fill:url(#linearGradient8950);fill-opacity:1;stroke:#1c1c1c;stroke-width:0.529;stroke-dasharray:none;stroke-opacity:1"
     d="m 268.96931,89.578323 -21.36108,2.676846 -38.63892,-2.676846 30,-48 z"
     id="path8948"
     sodipodi:nodetypes="ccccc" /><path
     style="fill:#fe3e00;fill-opacity:1;stroke:#1c1c1c;stroke-width:0.511;stroke-dasharray:none;stroke-opacity:1"
     d="m 238.96931,41.578323 8.63892,50.676844"
     id="path9061" /></g><g
   id="g9414"
   transform="rotate(-60,209.52667,105.56271)"><path
     style="fill:url(#linearGradient9416);fill-opacity:1;stroke:#1c1c1c;stroke-width:0.529;stroke-dasharray:none;stroke-opacity:1"
     d="m 268.96931,89.578323 -21.36108,2.676846 -38.63892,-2.676846 30,-48 z"
     id="path9408"
     sodipodi:nodetypes="ccccc" /><path
     style="fill:#fe3e00;fill-opacity:1;stroke:#1c1c1c;stroke-width:0.511;stroke-dasharray:none;stroke-opacity:1"
     d="m 238.96931,41.578323 8.63892,50.676844"
     id="path9410" /></g><path
   id="path18183"
   style="fill:#fe8200;fill-opacity:1;stroke:none;stroke-width:0.511;stroke-dasharray:none;stroke-opacity:1"
   sodipodi:type="inkscape:offset"
   inkscape:radius="0.19001611"
   inkscape:original="M 66.935547 35.712891 C 66.914967 35.702761 66.772392 35.993783 66.792969 36.003906 C 69.256234 36.677566 71.71086 37.416051 74.056641 38.435547 C 74.545071 38.647823 75.020367 38.889813 75.501953 39.117188 C 75.95195 39.401091 77.648657 40.169896 77.507812 40.994141 C 77.464183 41.249482 77.27965 41.474499 77.085938 41.646484 C 76.028424 42.585391 74.800884 42.839584 73.480469 43.332031 C 72.470828 43.616807 71.478299 43.974243 70.451172 44.1875 C 67.406146 44.819721 65.174535 44.903153 62.025391 44.951172 C 59.782259 44.985382 56.235353 44.891604 53.957031 44.648438 C 52.960987 44.542128 51.979246 44.33081 50.990234 44.171875 C 50.693182 44.063936 48.591142 43.727522 48.597656 42.701172 C 48.601256 42.136034 49.993375 41.340737 50.203125 41.193359 C 50.224085 41.172269 49.925252 40.875394 49.904297 40.896484 C 49.367845 41.316616 48.208204 41.952786 48.248047 42.876953 C 48.301067 44.106634 50.09053 44.404908 50.773438 44.689453 C 51.770024 44.876164 52.755896 45.122063 53.761719 45.25 C 56.271445 45.569227 59.763791 45.675532 62.228516 45.621094 C 65.335515 45.552474 67.72276 45.379709 70.722656 44.695312 C 71.755438 44.459694 72.751597 44.081825 73.765625 43.775391 C 74.785284 43.341508 77.694044 42.515144 77.855469 40.894531 C 77.953009 39.915274 76.359002 39.150175 75.759766 38.761719 C 75.275981 38.523406 74.800872 38.267106 74.308594 38.046875 C 71.95037 36.991876 69.45699 36.256602 66.935547 35.712891 z M 52.054688 39.367188 C 51.63442 39.367514 51.109714 39.456608 50.892578 39.466797 C 49.598284 39.645113 48.317743 39.897894 47.042969 40.183594 C 47.022909 40.193494 47.163531 40.476666 47.183594 40.466797 C 48.464808 40.25058 49.733694 39.983612 51.021484 39.806641 C 51.232398 39.809341 52.246933 39.594705 52.433594 39.767578 C 52.552161 39.877386 52.040588 40.908508 52.025391 40.941406 C 51.537939 41.839404 51.782724 41.394931 51.289062 42.273438 C 51.278262 42.296937 51.610294 42.449268 51.621094 42.425781 C 52.123966 41.535869 51.877181 41.990427 52.363281 41.064453 C 52.506783 40.725356 53.059541 39.814355 52.570312 39.464844 C 52.466966 39.391014 52.274826 39.367018 52.054688 39.367188 z "
   d="m 66.941406,35.523438 c -0.112181,0.01893 -0.04324,-0.008 -0.123047,0.03711 -0.01367,0.01302 -0.06575,0.07552 -0.07813,0.09375 -0.0211,0.03444 -0.0427,0.07288 -0.0625,0.113281 -0.01979,0.0404 -0.03845,0.07941 -0.05273,0.117188 -0.0071,0.01889 -0.01188,0.03674 -0.01758,0.0625 -0.0028,0.01288 -0.0068,0.02585 -0.0059,0.05664 2.33e-4,0.0077 1.18e-4,0.01641 0.002,0.02734 0.0018,0.01093 0.01155,0.04059 0.01172,0.04102 1.67e-4,4.23e-4 0.03101,0.05244 0.03125,0.05273 2.43e-4,2.93e-4 0.06218,0.04867 0.0625,0.04883 a 0.19003511,0.19003511 0 0 0 0.0332,0.01367 c 2.460164,0.672812 4.906177,1.408323 7.238281,2.421875 0.481343,0.209196 0.954447,0.450698 1.439453,0.679687 0.255073,0.158624 0.75738,0.405816 1.195312,0.71875 0.222542,0.159023 0.423274,0.332286 0.550782,0.5 0.127507,0.167715 0.178013,0.316288 0.154296,0.455079 -0.03177,0.185928 -0.184346,0.383885 -0.361328,0.541015 -1.015654,0.901742 -2.208438,1.151951 -3.544922,1.650391 -1.012626,0.286416 -1.997672,0.639143 -3.001953,0.847656 -3.030191,0.629141 -5.241514,0.711777 -8.388671,0.759766 -2.234785,0.03408 -5.784121,-0.06123 -8.046876,-0.302735 -0.982723,-0.104888 -1.961417,-0.314613 -2.957031,-0.474609 -0.111793,-0.0372 -0.261597,-0.06942 -0.480469,-0.126953 -0.23494,-0.06176 -0.517906,-0.143717 -0.787109,-0.251953 -0.269203,-0.108237 -0.524517,-0.243953 -0.699219,-0.398438 -0.174701,-0.154484 -0.266841,-0.312242 -0.265625,-0.503906 4.05e-4,-0.06356 0.05743,-0.19198 0.177735,-0.332031 0.120307,-0.140051 0.29333,-0.290407 0.474609,-0.429688 0.362558,-0.278561 0.737925,-0.496855 0.873047,-0.591797 a 0.19003511,0.19003511 0 0 0 0.02539,-0.02148 c 3.27e-4,-3.3e-4 0.04279,-0.0679 0.04297,-0.06836 1.74e-4,-4.62e-4 0.01365,-0.05996 0.01367,-0.06055 2.5e-5,-5.9e-4 -0.002,-0.03187 -0.0039,-0.04297 -0.0019,-0.0111 -0.0035,-0.0198 -0.0059,-0.02734 -0.0094,-0.03016 -0.01777,-0.0423 -0.02539,-0.05469 -0.01524,-0.02478 -0.02907,-0.04153 -0.04492,-0.06055 -0.0317,-0.03803 -0.0708,-0.07888 -0.111328,-0.119141 -0.04053,-0.04026 -0.0809,-0.07792 -0.119141,-0.109375 -0.01912,-0.01573 -0.03567,-0.02985 -0.06055,-0.04492 -0.01244,-0.0075 -0.02643,-0.01614 -0.05664,-0.02539 -0.0076,-0.0023 -0.01623,-0.006 -0.02734,-0.0078 -0.01111,-0.0018 -0.04043,-0.002 -0.04102,-0.002 -5.9e-4,2.8e-5 -0.06009,0.01349 -0.06055,0.01367 -4.61e-4,1.77e-4 -0.06803,0.04264 -0.06836,0.04297 l 0.01758,-0.01563 c -0.252553,0.197791 -0.68627,0.468337 -1.05664,0.8125 -0.370371,0.344163 -0.695294,0.782958 -0.671875,1.326172 0.01522,0.353047 0.159626,0.649429 0.36914,0.880859 0.209515,0.23143 0.480659,0.404522 0.763672,0.542969 0.566026,0.276893 1.200945,0.427965 1.509766,0.55664 a 0.19003511,0.19003511 0 0 0 0.03711,0.01172 c 0.9892,0.185327 1.979362,0.432679 3,0.5625 2.526376,0.321345 6.019995,0.42574 8.494141,0.371094 3.11189,-0.06873 5.518755,-0.241971 8.533203,-0.929688 1.049901,-0.239523 2.049079,-0.619938 3.054687,-0.923828 a 0.19003511,0.19003511 0 0 0 0.01953,-0.0059 c 0.489921,-0.20847 1.485533,-0.529644 2.380859,-1.003906 0.895326,-0.474263 1.732665,-1.114054 1.824219,-2.033204 0.05937,-0.59607 -0.379157,-1.079866 -0.859375,-1.457031 -0.480219,-0.377165 -1.039398,-0.672099 -1.322266,-0.855469 a 0.19003511,0.19003511 0 0 0 -0.01953,-0.0098 c -0.479577,-0.23624 -0.95619,-0.494688 -1.457031,-0.71875 -2.373758,-1.061948 -4.87944,-1.799992 -7.410157,-2.345703 l 0.04297,0.01563 c -3.21e-4,-1.59e-4 -0.07775,-0.01952 -0.07813,-0.01953 z m -14.886718,3.654296 c -0.447001,3.47e-4 -0.992229,0.09118 -1.171876,0.09961 a 0.19003511,0.19003511 0 0 0 -0.01562,0.002 c -1.30156,0.179317 -2.587302,0.432342 -3.865235,0.71875 a 0.19003511,0.19003511 0 0 0 -0.04297,0.01563 c -3.13e-4,1.55e-4 -0.06226,0.04854 -0.0625,0.04883 -2.36e-4,2.86e-4 -0.03109,0.05427 -0.03125,0.05469 -1.6e-4,4.12e-4 -0.01163,0.03853 -0.01172,0.03906 -8.8e-5,5.36e-4 -0.0018,0.01964 -0.002,0.02734 -7.9e-4,0.03082 0.003,0.04387 0.0059,0.05664 0.0058,0.02554 0.01242,0.04205 0.01953,0.06055 0.01422,0.037 0.03121,0.07778 0.05078,0.117188 0.01957,0.03941 0.03966,0.07568 0.06055,0.109375 0.01044,0.01685 0.0203,0.03272 0.03711,0.05273 0.0084,0.01001 0.01613,0.02111 0.04102,0.03906 0.0062,0.0045 0.02296,0.01537 0.02344,0.01563 4.8e-4,2.55e-4 0.03863,0.0155 0.03906,0.01563 4.27e-4,1.23e-4 0.06018,0.0059 0.06055,0.0059 3.71e-4,-1.3e-5 0.07781,-0.01938 0.07813,-0.01953 l -0.05273,0.01758 c 1.286222,-0.217062 2.553097,-0.484402 3.832031,-0.660156 0.08083,-0.0015 0.165991,-0.01365 0.283203,-0.0293 0.128493,-0.01715 0.278421,-0.03733 0.425781,-0.05273 0.147361,-0.01541 0.293572,-0.02518 0.402344,-0.02148 0.06673,0.0023 0.06689,0.0042 0.08984,0.0098 -0.0034,0.01568 -0.0044,0.0218 -0.0098,0.04102 -0.02757,0.0985 -0.07884,0.235077 -0.134765,0.369141 -0.05592,0.134064 -0.116567,0.26773 -0.164063,0.369141 -0.04749,0.10141 -0.07041,0.148025 -0.08594,0.18164 -0.474323,0.873897 -0.239936,0.445421 -0.730469,1.31836 a 0.19003511,0.19003511 0 0 0 -0.0059,0.01367 c -1.69e-4,3.68e-4 -0.01758,0.07965 -0.01758,0.08008 -4e-6,4.28e-4 0.0077,0.06006 0.0078,0.06055 1.56e-4,4.89e-4 0.01205,0.02739 0.01758,0.03711 0.0055,0.0097 0.01088,0.01725 0.01563,0.02344 0.01899,0.02476 0.0302,0.03443 0.04102,0.04297 0.02164,0.01708 0.03943,0.02603 0.05859,0.03711 0.03833,0.02216 0.08138,0.04354 0.126954,0.06445 0.04558,0.02091 0.09101,0.04009 0.132812,0.05469 0.0209,0.0073 0.03936,0.01427 0.06641,0.01953 0.01352,0.0026 0.02943,0.0056 0.06055,0.0039 0.0078,-4.35e-4 0.01639,1.78e-4 0.02734,-0.002 0.01096,-0.0021 0.03859,-0.01347 0.03906,-0.01367 4.73e-4,-1.99e-4 0.05241,-0.03097 0.05273,-0.03125 3.23e-4,-2.82e-4 0.04671,-0.06409 0.04687,-0.06445 l -0.0059,0.01367 c 0.502337,-0.888965 0.258448,-0.441988 0.744141,-1.367187 a 0.19003511,0.19003511 0 0 0 0.0078,-0.01367 c 0.06143,-0.145151 0.244169,-0.472494 0.347657,-0.814453 0.05174,-0.17098 0.0853,-0.349993 0.06641,-0.529297 -0.01889,-0.179304 -0.103636,-0.364462 -0.271484,-0.484375 -0.178145,-0.127266 -0.392922,-0.132993 -0.626953,-0.132813 z"
   transform="translate(-29.533873,-0.40676545)" /><path
   id="path18180"
   style="fill:#fe8200;fill-opacity:1;stroke:none;stroke-width:0.511;stroke-linejoin:miter;stroke-dasharray:none;stroke-opacity:1"
   d="m 122.58594,41.570312 c -0.005,6.52e-4 -0.0495,0.01497 -0.0664,0.02148 -2.4e-4,1.36e-4 -0.0526,0.04471 -0.0527,0.04492 -1.8e-4,2.16e-4 -0.008,0.01067 -0.006,0.0078 a 0.18450126,0.18450126 0 0 0 -0.0176,0.0293 c -0.48923,1.016371 -0.98564,2.034089 -1.44141,3.072266 a 0.18450126,0.18450126 0 0 0 -0.006,0.01367 c -0.001,0.0043 -0.0359,0.07854 -0.0742,0.162109 -0.0383,0.08357 -0.0837,0.185914 -0.125,0.292969 -0.0414,0.107055 -0.0776,0.217717 -0.0957,0.326172 -0.0181,0.108455 -0.0345,0.236105 0.0723,0.351562 0.25384,0.274606 0.65457,0.372259 1.04883,0.431641 0.39277,0.05916 0.79072,0.07 1.02929,0.09375 1.6098,0.197421 3.22009,0.118621 4.78711,0.30664 l -0.0449,-0.01172 c 3.5e-4,1.36e-4 0.0777,0.01174 0.0781,0.01172 3.7e-4,-2.1e-5 0.0581,-0.01154 0.0586,-0.01172 4.4e-4,-1.74e-4 0.0261,-0.01165 0.0352,-0.01758 0.009,-0.0059 0.0158,-0.01263 0.0215,-0.01758 0.0227,-0.01979 0.0296,-0.03214 0.0371,-0.04297 0.015,-0.02166 0.0239,-0.03798 0.0332,-0.05664 0.0186,-0.03733 0.0358,-0.07919 0.0527,-0.123047 0.0169,-0.04385 0.0336,-0.08678 0.0449,-0.126953 0.006,-0.02008 0.0102,-0.03828 0.0137,-0.06445 0.002,-0.01309 0.004,-0.02665 0,-0.05664 -8.9e-4,-0.0075 -0.001,-0.01686 -0.004,-0.02734 -0.003,-0.01049 -0.0154,-0.03668 -0.0156,-0.03711 -2.2e-4,-4.28e-4 -0.0329,-0.04854 -0.0332,-0.04883 -2.9e-4,-2.85e-4 -0.0661,-0.04283 -0.0664,-0.04297 a 0.18450126,0.18450126 0 0 0 -0.0371,-0.0098 c -1.60797,-0.256399 -3.22982,-0.169647 -4.80078,-0.34375 a 0.18450126,0.18450126 0 0 0 -0.006,0 c -0.27866,-0.02027 -0.55847,-0.04217 -0.83789,-0.0625 -0.20005,-0.0262 -0.40718,-0.0639 -0.62695,-0.08203 -0.0526,-0.0044 -0.0825,0.0027 -0.11914,0.0078 0.004,-0.01064 0.003,-0.01025 0.008,-0.02148 0.0254,-0.06165 0.057,-0.136359 0.0898,-0.208984 0.0563,-0.1244 0.1002,-0.216715 0.125,-0.269531 0.005,0.01506 0.011,0.03058 0.0156,0.03906 0.0128,0.0237 0.0241,0.0391 0.0371,0.05664 0.026,0.03509 0.0567,0.07245 0.0898,0.109375 0.0332,0.03692 0.0675,0.07195 0.0996,0.101563 0.0161,0.01481 0.0305,0.02773 0.0527,0.04297 0.0111,0.0076 0.0223,0.01685 0.0508,0.02734 0.007,0.0026 0.0167,0.0055 0.0273,0.0078 0.0106,0.0023 0.0386,0.0039 0.0391,0.0039 5.1e-4,4e-6 0.0582,-0.0096 0.0586,-0.0098 4.1e-4,-1.3e-4 0.0681,-0.0388 0.0684,-0.03906 l -0.0254,0.01953 c 0.80198,-0.499185 1.62302,-0.952888 2.49414,-1.302734 a 0.18450126,0.18450126 0 0 0 0.002,-0.002 c 1.35789,-0.553133 2.70025,-1.116414 4.12695,-1.361328 1.164,-0.199821 2.37609,-0.126729 3.55664,0.03516 0.67333,0.119243 1.18762,0.185193 1.81445,0.386719 0.64089,0.206041 1.24172,0.577463 1.88282,0.888672 L 136,44.042969 c 2.8e-4,2.21e-4 0.07,0.03506 0.0703,0.03516 3.7e-4,9.4e-5 0.0581,0.0059 0.0586,0.0059 4.5e-4,-2.8e-5 0.0385,-0.0077 0.0391,-0.0078 5.3e-4,-1.48e-4 0.0185,-0.0048 0.0254,-0.0078 0.0275,-0.01188 0.0386,-0.02144 0.0488,-0.0293 0.0204,-0.01571 0.033,-0.02871 0.0469,-0.04297 0.0277,-0.02852 0.0561,-0.06107 0.084,-0.0957 0.0279,-0.03463 0.0542,-0.07033 0.0762,-0.103516 0.011,-0.0166 0.0203,-0.03138 0.0312,-0.05469 0.005,-0.01166 0.0119,-0.02333 0.0176,-0.05273 0.001,-0.0074 0.004,-0.02679 0.004,-0.02734 3e-5,-5.5e-4 -0.002,-0.03862 -0.002,-0.03906 -7e-5,-4.44e-4 -0.0174,-0.05631 -0.0176,-0.05664 -1.7e-4,-3.35e-4 -0.0505,-0.06228 -0.0508,-0.0625 a 0.18450126,0.18450126 0 0 0 -0.0273,-0.01758 c -0.61628,-0.330815 -1.23924,-0.717191 -1.93555,-0.960937 -0.7517,-0.263135 -1.13704,-0.306601 -1.91602,-0.458985 a 0.18450126,0.18450126 0 0 0 -0.008,0 c -0.72836,-0.111478 -1.47079,-0.186797 -2.2168,-0.193359 -0.58002,-0.0051 -1.16215,0.03024 -1.73828,0.121094 -1.52408,0.240344 -2.92695,0.850893 -4.30859,1.427734 -0.89966,0.371681 -1.72561,0.861357 -2.52344,1.392578 0.4366,-0.956623 0.90417,-1.9041 1.31836,-2.882812 a 0.18450126,0.18450126 0 0 0 0.004,-0.0098 c 1.1e-4,-3.08e-4 0.01,-0.07388 0.01,-0.07422 -2e-5,-3.43e-4 -0.0116,-0.05626 -0.0117,-0.05664 -1.4e-4,-3.78e-4 -0.0173,-0.03475 -0.0176,-0.03516 -2.7e-4,-4.09e-4 -0.0126,-0.01572 -0.0176,-0.02148 -0.0201,-0.02307 -0.0324,-0.0319 -0.043,-0.03906 -0.0212,-0.01433 -0.0362,-0.02143 -0.0527,-0.0293 -0.0332,-0.01573 -0.0689,-0.02902 -0.10743,-0.04297 -0.0385,-0.01395 -0.0769,-0.02704 -0.11328,-0.03711 -0.0182,-0.005 -0.036,-0.01013 -0.0547,-0.01367 -0.0187,-0.0035 -0.0304,-0.01012 -0.0859,-0.002 z"
   transform="rotate(-10.128709,88.56602,199.15836)"
   sodipodi:type="inkscape:offset"
   inkscape:radius="0.0099999998"
   inkscape:original="M 122.58594 41.570312 C 122.58073 41.570964 122.53646 41.585286 122.51953 41.591797 C 122.51929 41.591933 122.46697 41.636502 122.4668 41.636719 C 122.46662 41.636935 122.45881 41.647388 122.46094 41.644531 A 0.18450126 0.18450126 0 0 0 122.44336 41.673828 C 121.95413 42.690199 121.45772 43.707917 121.00195 44.746094 A 0.18450126 0.18450126 0 0 0 120.99609 44.759766 C 120.99459 44.764069 120.96017 44.83831 120.92188 44.921875 C 120.88356 45.00544 120.83823 45.107789 120.79688 45.214844 C 120.75548 45.321899 120.71924 45.432561 120.70117 45.541016 C 120.6831 45.649471 120.66671 45.777121 120.77344 45.892578 C 121.02728 46.167184 121.42801 46.264837 121.82227 46.324219 C 122.21504 46.383378 122.61299 46.394216 122.85156 46.417969 C 124.46136 46.61539 126.07165 46.53659 127.63867 46.724609 L 127.59375 46.712891 C 127.5941 46.713027 127.67147 46.724631 127.67188 46.724609 C 127.67225 46.724588 127.73002 46.713064 127.73047 46.712891 C 127.73091 46.712717 127.75659 46.701241 127.76562 46.695312 C 127.7747 46.689384 127.78143 46.682682 127.78711 46.677734 C 127.80985 46.657943 127.8167 46.645593 127.82422 46.634766 C 127.83925 46.61311 127.84811 46.596788 127.85742 46.578125 C 127.87605 46.540799 127.8932 46.498932 127.91016 46.455078 C 127.92711 46.411225 127.94376 46.368293 127.95508 46.328125 C 127.96074 46.308041 127.96531 46.289845 127.96875 46.263672 C 127.97047 46.250585 127.9723 46.237021 127.96875 46.207031 C 127.96786 46.199534 127.96757 46.190174 127.96484 46.179688 C 127.96212 46.169201 127.94943 46.143007 127.94922 46.142578 C 127.949 46.14215 127.9163 46.094035 127.91602 46.09375 C 127.91573 46.093465 127.84996 46.050917 127.84961 46.050781 A 0.18450126 0.18450126 0 0 0 127.8125 46.041016 C 126.20453 45.784617 124.58268 45.871369 123.01172 45.697266 A 0.18450126 0.18450126 0 0 0 123.00586 45.697266 C 122.7272 45.676997 122.44739 45.655098 122.16797 45.634766 C 121.96792 45.608562 121.76079 45.570868 121.54102 45.552734 C 121.48837 45.548384 121.45855 45.55539 121.42188 45.560547 C 121.42597 45.549911 121.42506 45.550293 121.42969 45.539062 C 121.45509 45.477411 121.48667 45.402703 121.51953 45.330078 C 121.57583 45.205678 121.61973 45.113363 121.64453 45.060547 C 121.6498 45.075612 121.65558 45.091126 121.66016 45.099609 C 121.67294 45.123305 121.68425 45.138707 121.69727 45.15625 C 121.72329 45.191337 121.75393 45.228703 121.78711 45.265625 C 121.82028 45.302547 121.8546 45.337571 121.88672 45.367188 C 121.90278 45.381995 121.91723 45.394915 121.93945 45.410156 C 121.95056 45.417777 121.96178 45.427007 121.99023 45.4375 C 121.99735 45.440123 122.00697 45.442976 122.01758 45.445312 C 122.02819 45.447649 122.05613 45.449215 122.05664 45.449219 C 122.05715 45.449223 122.11483 45.439583 122.11523 45.439453 C 122.11564 45.439323 122.1833 45.400658 122.18359 45.400391 L 122.1582 45.419922 C 122.96018 44.920737 123.78122 44.467034 124.65234 44.117188 A 0.18450126 0.18450126 0 0 0 124.6543 44.115234 C 126.01219 43.562101 127.35455 42.99882 128.78125 42.753906 C 129.94525 42.554085 131.15734 42.627177 132.33789 42.789062 C 133.01122 42.908305 133.52551 42.974255 134.15234 43.175781 C 134.79323 43.381822 135.39406 43.753244 136.03516 44.064453 L 136 44.042969 C 136.00028 44.04319 136.06995 44.078031 136.07031 44.078125 C 136.07068 44.078219 136.12846 44.084013 136.12891 44.083984 C 136.12936 44.083956 136.16744 44.07632 136.16797 44.076172 C 136.1685 44.076024 136.18649 44.071329 136.19336 44.068359 C 136.22083 44.05648 136.23197 44.04692 136.24219 44.039062 C 136.26262 44.02335 136.27519 44.010356 136.28906 43.996094 C 136.3168 43.96757 136.34518 43.935024 136.37305 43.900391 C 136.40091 43.865757 136.4273 43.830065 136.44922 43.796875 C 136.46018 43.78028 136.46949 43.765496 136.48047 43.742188 C 136.48596 43.730531 136.49232 43.718861 136.49805 43.689453 C 136.49948 43.682101 136.50192 43.662659 136.50195 43.662109 C 136.50198 43.661559 136.50007 43.623491 136.5 43.623047 C 136.49993 43.622603 136.48259 43.566741 136.48242 43.566406 C 136.48225 43.566071 136.43192 43.504128 136.43164 43.503906 A 0.18450126 0.18450126 0 0 0 136.4043 43.486328 C 135.78802 43.155513 135.16506 42.769137 134.46875 42.525391 C 133.71705 42.262256 133.33171 42.21879 132.55273 42.066406 A 0.18450126 0.18450126 0 0 0 132.54492 42.066406 C 131.81656 41.954928 131.07413 41.879609 130.32812 41.873047 C 129.7481 41.867971 129.16597 41.903288 128.58984 41.994141 C 127.06576 42.234485 125.66289 42.845034 124.28125 43.421875 C 123.38159 43.793556 122.55564 44.283232 121.75781 44.814453 C 122.19441 43.85783 122.66198 42.910353 123.07617 41.931641 A 0.18450126 0.18450126 0 0 0 123.08008 41.921875 C 123.08019 41.921567 123.08986 41.847999 123.08984 41.847656 C 123.08982 41.847313 123.07828 41.791393 123.07812 41.791016 C 123.07798 41.790638 123.06081 41.756269 123.06055 41.755859 C 123.06028 41.75545 123.048 41.740143 123.04297 41.734375 C 123.02285 41.711304 123.0106 41.702476 123 41.695312 C 122.97881 41.680985 122.96385 41.673883 122.94727 41.666016 C 122.91409 41.650281 122.87835 41.636999 122.83984 41.623047 C 122.80134 41.609095 122.76289 41.596006 122.72656 41.585938 C 122.7084 41.580903 122.69059 41.57581 122.67188 41.572266 C 122.65313 41.568721 122.64151 41.562148 122.58594 41.570312 z " /><g
   id="g9746"
   transform="translate(-26.646782,-1.4600976)"
   style="stroke:#1c1c1c;stroke-opacity:1"><path
     style="fill:#1c1c1c;fill-opacity:1;stroke:#1c1c1c;stroke-width:0.511;stroke-linejoin:miter;stroke-dasharray:none;stroke-opacity:1"
     d="m 61.262374,17.207218 c -0.717765,-0.829539 -1.492828,-1.429889 -2.77545,0"
     id="path9682"
     sodipodi:nodetypes="cc" /><path
     id="path9569"
     style="fill:none;fill-opacity:1;stroke:#1c1c1c;stroke-width:0.511;stroke-linejoin:miter;stroke-dasharray:none;stroke-opacity:1"
     d="M 54.099023,17.207218 H 65.650256"
     sodipodi:nodetypes="cc" /><path
     style="fill:none;fill-opacity:1;stroke:#1c1c1c;stroke-width:0.511;stroke-linejoin:miter;stroke-dasharray:none;stroke-opacity:1"
     d="m 52.228471,17.207218 h -2.77545"
     id="path9680"
     sodipodi:nodetypes="cc" /><path
     style="fill:none;fill-opacity:1;stroke:#1c1c1c;stroke-width:0.511;stroke-linejoin:miter;stroke-dasharray:none;stroke-opacity:1"
     d="M 66.206444,18.112302 59.874382,5.9991756 53.542319,18.112302"
     id="path9738"
     sodipodi:nodetypes="ccc" /></g><g
   id="g9756"
   transform="translate(-96.063478)"><path
     id="path9748"
     style="fill:none;fill-opacity:1;stroke:#ffffff;stroke-width:0.511;stroke-linejoin:miter;stroke-dasharray:none;stroke-opacity:1"
     d="M 59.874382,7.2036947 54.099023,17.207218 h 11.551233 z" /><path
     style="fill:none;fill-opacity:1;stroke:#ffffff;stroke-width:0.511;stroke-linejoin:miter;stroke-dasharray:none;stroke-opacity:1"
     d="m 52.228471,17.207218 h -2.77545"
     id="path9750"
     sodipodi:nodetypes="cc" /><path
     style="fill:#ffffff;fill-opacity:1;stroke:#ffffff;stroke-width:0.511;stroke-linejoin:miter;stroke-dasharray:none;stroke-opacity:1"
     d="m 61.262374,17.207218 c -0.717765,-0.829539 -1.492828,-1.429889 -2.77545,0"
     id="path9752"
     sodipodi:nodetypes="cc" /><path
     style="fill:none;fill-opacity:1;stroke:#ffffff;stroke-width:0.511;stroke-linejoin:miter;stroke-dasharray:none;stroke-opacity:1"
     d="M 66.471027,18.62942 59.874382,7.2036947 53.277736,18.62942"
     id="path9754"
     sodipodi:nodetypes="cc" /></g><g
   id="g10504"
   transform="translate(-74.590596)"><path
     id="path10496"
     style="fill:none;fill-opacity:1;stroke:#ffffff;stroke-width:0.511;stroke-linejoin:miter;stroke-dasharray:none;stroke-opacity:1"
     d="M 53.83444,17.207218 H 65.914839"
     sodipodi:nodetypes="cc" /><path
     style="fill:none;fill-opacity:1;stroke:#ffffff;stroke-width:0.511;stroke-linejoin:miter;stroke-dasharray:none;stroke-opacity:1"
     d="M 52.228471,17.268055 H 48.175436"
     id="path10498"
     sodipodi:nodetypes="cc" /><path
     style="fill:none;fill-opacity:1;stroke:#ffffff;stroke-width:0.511;stroke-linejoin:miter;stroke-dasharray:none;stroke-opacity:1"
     d="m 62.491789,17.245484 c -1.353653,-1.564451 -2.815366,-2.696668 -5.234299,0"
     id="path10500"
     sodipodi:nodetypes="cc" /><path
     style="fill:#ffffff;fill-opacity:1;stroke:none;stroke-width:0.511;stroke-linejoin:miter;stroke-dasharray:none;stroke-opacity:1"
     d="m 61.260597,17.340247 c -0.717765,-0.829539 -1.492828,-1.429889 -2.77545,0"
     id="path9682-2"
     sodipodi:nodetypes="cc" /><path
     style="fill:none;fill-opacity:1;stroke:#ffffff;stroke-width:0.511;stroke-linejoin:miter;stroke-dasharray:none;stroke-opacity:1"
     d="M 66.471027,18.62942 59.874382,2.9878778 53.277736,18.62942"
     id="path10502"
     sodipodi:nodetypes="ccc" /></g><g
   id="g17247"
   transform="translate(54.187059,-1.4600976)"
   style="stroke:#1c1c1c;stroke-opacity:1"><path
     id="path17239"
     style="fill:none;fill-opacity:1;stroke:#1c1c1c;stroke-width:0.511;stroke-linejoin:miter;stroke-dasharray:none;stroke-opacity:1"
     d="M 54.099023,17.207218 H 65.650256"
     sodipodi:nodetypes="cc" /><path
     style="fill:none;fill-opacity:1;stroke:#1c1c1c;stroke-width:0.511;stroke-linejoin:miter;stroke-dasharray:none;stroke-opacity:1"
     d="m 52.228471,17.207218 h -2.77545"
     id="path17241"
     sodipodi:nodetypes="cc" /><path
     style="fill:#1c1c1c;fill-opacity:1;stroke:#1c1c1c;stroke-width:0.511;stroke-linejoin:miter;stroke-dasharray:none;stroke-opacity:1"
     d="m 61.262374,17.207218 c -0.717765,-0.829539 -1.492828,-1.429889 -2.77545,0"
     id="path17243"
     sodipodi:nodetypes="cc" /><path
     style="fill:none;fill-opacity:1;stroke:#1c1c1c;stroke-width:0.511;stroke-linejoin:miter;stroke-dasharray:none;stroke-opacity:1"
     d="M 66.206444,18.112302 59.874382,5.9991756 53.542319,18.112302"
     id="path17245"
     sodipodi:nodetypes="ccc" /></g><g
   id="g17257"
   transform="translate(135.0209,-1.4600976)"
   style="stroke:#1c1c1c;stroke-opacity:1"><path
     id="path17249"
     style="fill:none;fill-opacity:1;stroke:#1c1c1c;stroke-width:0.511;stroke-linejoin:miter;stroke-dasharray:none;stroke-opacity:1"
     d="M 54.099023,17.207218 H 65.650256"
     sodipodi:nodetypes="cc" /><path
     style="fill:none;fill-opacity:1;stroke:#1c1c1c;stroke-width:0.511;stroke-linejoin:miter;stroke-dasharray:none;stroke-opacity:1"
     d="m 52.228471,17.207218 h -2.77545"
     id="path17251"
     sodipodi:nodetypes="cc" /><path
     style="fill:#1c1c1c;fill-opacity:1;stroke:#1c1c1c;stroke-width:0.511;stroke-linejoin:miter;stroke-dasharray:none;stroke-opacity:1"
     d="m 61.262374,17.207218 c -0.717765,-0.829539 -1.492828,-1.429889 -2.77545,0"
     id="path17253"
     sodipodi:nodetypes="cc" /><path
     style="fill:none;fill-opacity:1;stroke:#1c1c1c;stroke-width:0.511;stroke-linejoin:miter;stroke-dasharray:none;stroke-opacity:1"
     d="M 66.206444,18.112302 59.874382,5.9991756 53.542319,18.112302"
     id="path17255"
     sodipodi:nodetypes="ccc" /></g><path
   style="fill:none;fill-opacity:1;stroke:#6e6e6e;stroke-width:0.511;stroke-linejoin:miter;stroke-dasharray:2.044, 2.044;stroke-dashoffset:0;stroke-opacity:1"
   d="M 33.16667,34.78647 V 20.219954"
   id="path17331" /><path
   style="fill:none;fill-opacity:1;stroke:#6e6e6e;stroke-width:0.511;stroke-linejoin:miter;stroke-dasharray:2.044, 2.044;stroke-dashoffset:0;stroke-opacity:1"
   d="M 33.16667,86.015774 V 97.506881"
   id="path17387"
   sodipodi:nodetypes="cc" /><circle
   style="fill:#6d6d6d;fill-opacity:1;stroke:none;stroke-width:0.511;stroke-linejoin:miter;stroke-dasharray:2.044, 2.044;stroke-dashoffset:0;stroke-opacity:1"
   id="path17463"
   cx="113.76505"
   cy="68.360359"
   r="0.42586181" /><g
   aria-label="R1"
   id="text17800"
   style="font-style:italic;font-size:5.85673px;line-height:1.25;font-family:'Charter ITC TT';-inkscape-font-specification:'Charter ITC TT Italic';letter-spacing:0px;word-spacing:0px;fill:#fe8200;stroke-width:0.305391;fill-opacity:1"><path
     d="m 47.073318,34.49652 q -0.26941,0.03514 -0.415828,0.03514 -0.462682,0 -0.64424,-0.263553 -0.105421,-0.152275 -0.240126,-0.761375 -0.105421,-0.474395 -0.245983,-0.603243 -0.158132,-0.146418 -0.491965,-0.146418 -0.175702,0 -0.333834,0.0059 l -0.275266,1.399758 0.07028,0.08785 0.380687,0.02928 v 0.222556 h -1.429042 v -0.222556 l 0.374831,-0.02928 0.09371,-0.08199 0.62667,-3.256342 -0.06442,-0.08785 -0.415827,-0.02928 v -0.222555 h 1.481752 q 1.241627,0 1.241627,0.843369 0,0.94879 -1.171346,1.229913 0.310407,0.08199 0.439255,0.26941 0.128848,0.187415 0.281123,0.773088 0.09371,0.368974 0.240126,0.486109 0.146418,0.111278 0.497822,0.105421 z m -0.855083,-2.981076 q 0,-0.673524 -0.890223,-0.673524 -0.152275,0 -0.257696,0.0059 l -0.316263,1.634028 q 0.09956,0.01171 0.222555,0.01171 0.585673,0 0.91365,-0.257696 0.327977,-0.257696 0.327977,-0.720378 z"
     id="path17810"
     style="fill:#fe8200;fill-opacity:1" /><path
     d="m 49.509715,30.50223 -0.732091,3.642886 0.05857,0.08785 0.527106,0.02928 v 0.240126 H 47.536 v -0.25184 l 0.638383,-0.02928 0.09956,-0.105422 0.614956,-3.039642 -0.07028,-0.05857 -0.884367,0.111278 v -0.234269 l 1.429043,-0.392401 z"
     id="path17812"
     style="fill:#fe8200;fill-opacity:1" /></g><text
   xml:space="preserve"
   style="font-style:italic;font-variant:normal;font-weight:normal;font-stretch:normal;font-size:5.85673px;line-height:1.25;font-family:'Charter ITC TT';-inkscape-font-specification:'Charter ITC TT Italic';letter-spacing:0px;word-spacing:0px;fill:#fe8200;fill-opacity:1;stroke:none;stroke-width:0.305391"
   x="-29.343868"
   y="33.894001"
   id="text17804"><tspan
     sodipodi:role="line"
     id="tspan17802"
     style="font-style:italic;font-variant:normal;font-weight:normal;font-stretch:normal;font-family:'Charter ITC TT';-inkscape-font-specification:'Charter ITC TT Italic';fill:#fe8200;fill-opacity:1;stroke-width:0.305391"
     x="-29.343868"
     y="33.894001">R2</tspan></text><text
   xml:space="preserve"
   style="font-style:italic;font-variant:normal;font-weight:normal;font-stretch:normal;font-size:5.85673px;line-height:1.25;font-family:'Charter ITC TT';-inkscape-font-specification:'Charter ITC TT Italic';letter-spacing:0px;word-spacing:0px;fill:#fe8200;fill-opacity:1;stroke:none;stroke-width:0.305391"
   x="-83.914917"
   y="34.502377"
   id="text17808"><tspan
     sodipodi:role="line"
     id="tspan17806"
     style="font-style:italic;font-variant:normal;font-weight:normal;font-stretch:normal;font-family:'Charter ITC TT';-inkscape-font-specification:'Charter ITC TT Italic';fill:#fe8200;fill-opacity:1;stroke-width:0.305391"
     x="-83.914917"
     y="34.502377">R1</tspan></text><path
   id="path18171"
   style="fill:#fe8200;fill-opacity:1;stroke:none;stroke-width:0.511;stroke-dasharray:none;stroke-opacity:1"
   sodipodi:type="inkscape:offset"
   inkscape:radius="0.19001611"
   inkscape:original="M 66.935547 35.712891 C 66.914967 35.702761 66.772392 35.993783 66.792969 36.003906 C 69.256234 36.677566 71.71086 37.416051 74.056641 38.435547 C 74.545071 38.647823 75.020367 38.889813 75.501953 39.117188 C 75.95195 39.401091 77.648657 40.169896 77.507812 40.994141 C 77.464183 41.249482 77.27965 41.474499 77.085938 41.646484 C 76.028424 42.585391 74.800884 42.839584 73.480469 43.332031 C 72.470828 43.616807 71.478299 43.974243 70.451172 44.1875 C 67.406146 44.819721 65.174535 44.903153 62.025391 44.951172 C 59.782259 44.985382 56.235353 44.891604 53.957031 44.648438 C 52.960987 44.542128 51.979246 44.33081 50.990234 44.171875 C 50.693182 44.063936 48.591142 43.727522 48.597656 42.701172 C 48.601256 42.136034 49.993375 41.340737 50.203125 41.193359 C 50.224085 41.172269 49.925252 40.875394 49.904297 40.896484 C 49.367845 41.316616 48.208204 41.952786 48.248047 42.876953 C 48.301067 44.106634 50.09053 44.404908 50.773438 44.689453 C 51.770024 44.876164 52.755896 45.122063 53.761719 45.25 C 56.271445 45.569227 59.763791 45.675532 62.228516 45.621094 C 65.335515 45.552474 67.72276 45.379709 70.722656 44.695312 C 71.755438 44.459694 72.751597 44.081825 73.765625 43.775391 C 74.785284 43.341508 77.694044 42.515144 77.855469 40.894531 C 77.953009 39.915274 76.359002 39.150175 75.759766 38.761719 C 75.275981 38.523406 74.800872 38.267106 74.308594 38.046875 C 71.95037 36.991876 69.45699 36.256602 66.935547 35.712891 z M 52.054688 39.367188 C 51.63442 39.367514 51.109714 39.456608 50.892578 39.466797 C 49.598284 39.645113 48.317743 39.897894 47.042969 40.183594 C 47.022909 40.193494 47.163531 40.476666 47.183594 40.466797 C 48.464808 40.25058 49.733694 39.983612 51.021484 39.806641 C 51.232398 39.809341 52.246933 39.594705 52.433594 39.767578 C 52.552161 39.877386 52.040588 40.908508 52.025391 40.941406 C 51.537939 41.839404 51.782724 41.394931 51.289062 42.273438 C 51.278262 42.296937 51.610294 42.449268 51.621094 42.425781 C 52.123966 41.535869 51.877181 41.990427 52.363281 41.064453 C 52.506783 40.725356 53.059541 39.814355 52.570312 39.464844 C 52.466966 39.391014 52.274826 39.367018 52.054688 39.367188 z "
   d="m 66.941406,35.523438 c -0.112181,0.01893 -0.04324,-0.008 -0.123047,0.03711 -0.01367,0.01302 -0.06575,0.07552 -0.07813,0.09375 -0.0211,0.03444 -0.0427,0.07288 -0.0625,0.113281 -0.01979,0.0404 -0.03845,0.07941 -0.05273,0.117188 -0.0071,0.01889 -0.01188,0.03674 -0.01758,0.0625 -0.0028,0.01288 -0.0068,0.02585 -0.0059,0.05664 2.33e-4,0.0077 1.18e-4,0.01641 0.002,0.02734 0.0018,0.01093 0.01155,0.04059 0.01172,0.04102 1.67e-4,4.23e-4 0.03101,0.05244 0.03125,0.05273 2.43e-4,2.93e-4 0.06218,0.04867 0.0625,0.04883 a 0.19003511,0.19003511 0 0 0 0.0332,0.01367 c 2.460164,0.672812 4.906177,1.408323 7.238281,2.421875 0.481343,0.209196 0.954447,0.450698 1.439453,0.679687 0.255073,0.158624 0.75738,0.405816 1.195312,0.71875 0.222542,0.159023 0.423274,0.332286 0.550782,0.5 0.127507,0.167715 0.178013,0.316288 0.154296,0.455079 -0.03177,0.185928 -0.184346,0.383885 -0.361328,0.541015 -1.015654,0.901742 -2.208438,1.151951 -3.544922,1.650391 -1.012626,0.286416 -1.997672,0.639143 -3.001953,0.847656 -3.030191,0.629141 -5.241514,0.711777 -8.388671,0.759766 -2.234785,0.03408 -5.784121,-0.06123 -8.046876,-0.302735 -0.982723,-0.104888 -1.961417,-0.314613 -2.957031,-0.474609 -0.111793,-0.0372 -0.261597,-0.06942 -0.480469,-0.126953 -0.23494,-0.06176 -0.517906,-0.143717 -0.787109,-0.251953 -0.269203,-0.108237 -0.524517,-0.243953 -0.699219,-0.398438 -0.174701,-0.154484 -0.266841,-0.312242 -0.265625,-0.503906 4.05e-4,-0.06356 0.05743,-0.19198 0.177735,-0.332031 0.120307,-0.140051 0.29333,-0.290407 0.474609,-0.429688 0.362558,-0.278561 0.737925,-0.496855 0.873047,-0.591797 a 0.19003511,0.19003511 0 0 0 0.02539,-0.02148 c 3.27e-4,-3.3e-4 0.04279,-0.0679 0.04297,-0.06836 1.74e-4,-4.62e-4 0.01365,-0.05996 0.01367,-0.06055 2.5e-5,-5.9e-4 -0.002,-0.03187 -0.0039,-0.04297 -0.0019,-0.0111 -0.0035,-0.0198 -0.0059,-0.02734 -0.0094,-0.03016 -0.01777,-0.0423 -0.02539,-0.05469 -0.01524,-0.02478 -0.02907,-0.04153 -0.04492,-0.06055 -0.0317,-0.03803 -0.0708,-0.07888 -0.111328,-0.119141 -0.04053,-0.04026 -0.0809,-0.07792 -0.119141,-0.109375 -0.01912,-0.01573 -0.03567,-0.02985 -0.06055,-0.04492 -0.01244,-0.0075 -0.02643,-0.01614 -0.05664,-0.02539 -0.0076,-0.0023 -0.01623,-0.006 -0.02734,-0.0078 -0.01111,-0.0018 -0.04043,-0.002 -0.04102,-0.002 -5.9e-4,2.8e-5 -0.06009,0.01349 -0.06055,0.01367 -4.61e-4,1.77e-4 -0.06803,0.04264 -0.06836,0.04297 l 0.01758,-0.01563 c -0.252553,0.197791 -0.68627,0.468337 -1.05664,0.8125 -0.370371,0.344163 -0.695294,0.782958 -0.671875,1.326172 0.01522,0.353047 0.159626,0.649429 0.36914,0.880859 0.209515,0.23143 0.480659,0.404522 0.763672,0.542969 0.566026,0.276893 1.200945,0.427965 1.509766,0.55664 a 0.19003511,0.19003511 0 0 0 0.03711,0.01172 c 0.9892,0.185327 1.979362,0.432679 3,0.5625 2.526376,0.321345 6.019995,0.42574 8.494141,0.371094 3.11189,-0.06873 5.518755,-0.241971 8.533203,-0.929688 1.049901,-0.239523 2.049079,-0.619938 3.054687,-0.923828 a 0.19003511,0.19003511 0 0 0 0.01953,-0.0059 c 0.489921,-0.20847 1.485533,-0.529644 2.380859,-1.003906 0.895326,-0.474263 1.732665,-1.114054 1.824219,-2.033204 0.05937,-0.59607 -0.379157,-1.079866 -0.859375,-1.457031 -0.480219,-0.377165 -1.039398,-0.672099 -1.322266,-0.855469 a 0.19003511,0.19003511 0 0 0 -0.01953,-0.0098 c -0.479577,-0.23624 -0.95619,-0.494688 -1.457031,-0.71875 -2.373758,-1.061948 -4.87944,-1.799992 -7.410157,-2.345703 l 0.04297,0.01563 c -3.21e-4,-1.59e-4 -0.07775,-0.01952 -0.07813,-0.01953 z m -14.886718,3.654296 c -0.447001,3.47e-4 -0.992229,0.09118 -1.171876,0.09961 a 0.19003511,0.19003511 0 0 0 -0.01562,0.002 c -1.30156,0.179317 -2.587302,0.432342 -3.865235,0.71875 a 0.19003511,0.19003511 0 0 0 -0.04297,0.01563 c -3.13e-4,1.55e-4 -0.06226,0.04854 -0.0625,0.04883 -2.36e-4,2.86e-4 -0.03109,0.05427 -0.03125,0.05469 -1.6e-4,4.12e-4 -0.01163,0.03853 -0.01172,0.03906 -8.8e-5,5.36e-4 -0.0018,0.01964 -0.002,0.02734 -7.9e-4,0.03082 0.003,0.04387 0.0059,0.05664 0.0058,0.02554 0.01242,0.04205 0.01953,0.06055 0.01422,0.037 0.03121,0.07778 0.05078,0.117188 0.01957,0.03941 0.03966,0.07568 0.06055,0.109375 0.01044,0.01685 0.0203,0.03272 0.03711,0.05273 0.0084,0.01001 0.01613,0.02111 0.04102,0.03906 0.0062,0.0045 0.02296,0.01537 0.02344,0.01563 4.8e-4,2.55e-4 0.03863,0.0155 0.03906,0.01563 4.27e-4,1.23e-4 0.06018,0.0059 0.06055,0.0059 3.71e-4,-1.3e-5 0.07781,-0.01938 0.07813,-0.01953 l -0.05273,0.01758 c 1.286222,-0.217062 2.553097,-0.484402 3.832031,-0.660156 0.08083,-0.0015 0.165991,-0.01365 0.283203,-0.0293 0.128493,-0.01715 0.278421,-0.03733 0.425781,-0.05273 0.147361,-0.01541 0.293572,-0.02518 0.402344,-0.02148 0.06673,0.0023 0.06689,0.0042 0.08984,0.0098 -0.0034,0.01568 -0.0044,0.0218 -0.0098,0.04102 -0.02757,0.0985 -0.07884,0.235077 -0.134765,0.369141 -0.05592,0.134064 -0.116567,0.26773 -0.164063,0.369141 -0.04749,0.10141 -0.07041,0.148025 -0.08594,0.18164 -0.474323,0.873897 -0.239936,0.445421 -0.730469,1.31836 a 0.19003511,0.19003511 0 0 0 -0.0059,0.01367 c -1.69e-4,3.68e-4 -0.01758,0.07965 -0.01758,0.08008 -4e-6,4.28e-4 0.0077,0.06006 0.0078,0.06055 1.56e-4,4.89e-4 0.01205,0.02739 0.01758,0.03711 0.0055,0.0097 0.01088,0.01725 0.01563,0.02344 0.01899,0.02476 0.0302,0.03443 0.04102,0.04297 0.02164,0.01708 0.03943,0.02603 0.05859,0.03711 0.03833,0.02216 0.08138,0.04354 0.126954,0.06445 0.04558,0.02091 0.09101,0.04009 0.132812,0.05469 0.0209,0.0073 0.03936,0.01427 0.06641,0.01953 0.01352,0.0026 0.02943,0.0056 0.06055,0.0039 0.0078,-4.35e-4 0.01639,1.78e-4 0.02734,-0.002 0.01096,-0.0021 0.03859,-0.01347 0.03906,-0.01367 4.73e-4,-1.99e-4 0.05241,-0.03097 0.05273,-0.03125 3.23e-4,-2.82e-4 0.04671,-0.06409 0.04687,-0.06445 l -0.0059,0.01367 c 0.502337,-0.888965 0.258448,-0.441988 0.744141,-1.367187 a 0.19003511,0.19003511 0 0 0 0.0078,-0.01367 c 0.06143,-0.145151 0.244169,-0.472494 0.347657,-0.814453 0.05174,-0.17098 0.0853,-0.349993 0.06641,-0.529297 -0.01889,-0.179304 -0.103636,-0.364462 -0.271484,-0.484375 -0.178145,-0.127266 -0.392922,-0.132993 -0.626953,-0.132813 z"
   transform="translate(-160.21261,-0.40676545)" /><path
   id="path18173"
   style="fill:#fe8200;fill-opacity:1;stroke:none;stroke-width:0.511;stroke-linejoin:miter;stroke-dasharray:none;stroke-opacity:1"
   sodipodi:type="inkscape:offset"
   inkscape:radius="0.18448281"
   inkscape:original="M 122.61328 41.751953 C 122.61028 41.752332 122.61038 41.752561 122.60938 41.753906 C 122.11984 42.770915 121.62367 43.786723 121.16992 44.820312 C 121.12642 44.944921 120.76429 45.611892 120.9082 45.767578 C 121.30233 46.193944 122.36835 46.183657 122.87305 46.234375 C 124.46194 46.429232 126.07252 46.350522 127.66016 46.541016 C 127.68266 46.549716 127.80576 46.231356 127.7832 46.222656 C 126.20104 45.970373 124.58335 46.057201 122.99219 45.880859 C 122.70993 45.860329 122.4268 45.838879 122.14453 45.818359 C 121.9381 45.791319 121.73288 45.753448 121.52539 45.736328 C 121.42493 45.728028 121.31713 45.777297 121.22266 45.742188 C 121.18326 45.727508 121.19598 45.658228 121.20508 45.617188 C 121.23188 45.496359 121.47283 44.994257 121.49805 44.939453 C 121.96192 43.91026 122.46615 42.899303 122.90625 41.859375 C 122.91325 41.839675 122.65195 41.746272 122.61328 41.751953 z M 130.32617 42.056641 C 129.75478 42.051641 129.18373 42.086748 128.61914 42.175781 C 127.1255 42.411324 125.73476 43.014304 124.35156 43.591797 C 123.45305 43.963003 122.62318 44.456219 121.81836 44.994141 C 121.79936 45.011261 122.04153 45.280799 122.06055 45.263672 C 122.86783 44.761189 123.69879 44.300806 124.58398 43.945312 C 125.94052 43.392728 127.29592 42.821881 128.75 42.572266 C 129.94225 42.367596 131.17327 42.442286 132.36328 42.605469 C 133.03633 42.724874 133.56274 42.792234 134.20898 43 C 134.87877 43.215333 135.48593 43.592954 136.11523 43.898438 C 136.13293 43.912618 136.33406 43.662627 136.31641 43.648438 C 135.69336 43.313986 135.07909 42.934068 134.4082 42.699219 C 133.66903 42.440472 133.30142 42.401383 132.51758 42.248047 C 131.79547 42.137526 131.0608 42.063103 130.32617 42.056641 z "
   d="m 122.58594,41.570312 c -0.005,6.52e-4 -0.0495,0.01497 -0.0664,0.02148 -2.4e-4,1.36e-4 -0.0526,0.04471 -0.0527,0.04492 -1.8e-4,2.16e-4 -0.008,0.01067 -0.006,0.0078 a 0.18450126,0.18450126 0 0 0 -0.0176,0.0293 c -0.48923,1.016371 -0.98564,2.034089 -1.44141,3.072266 a 0.18450126,0.18450126 0 0 0 -0.006,0.01367 c -0.001,0.0043 -0.0359,0.07854 -0.0742,0.162109 -0.0383,0.08357 -0.0836,0.185914 -0.125,0.292969 -0.0414,0.107055 -0.0776,0.217717 -0.0957,0.326172 -0.0181,0.108455 -0.0345,0.236105 0.0723,0.351562 0.25384,0.274606 0.65457,0.372259 1.04883,0.431641 0.39277,0.05916 0.79072,0.07 1.02929,0.09375 1.6098,0.197421 3.22009,0.118621 4.78711,0.30664 l -0.0449,-0.01172 c 3.5e-4,1.36e-4 0.0777,0.01174 0.0781,0.01172 3.9e-4,-2.1e-5 0.0581,-0.01154 0.0586,-0.01172 4.4e-4,-1.74e-4 0.0261,-0.01165 0.0352,-0.01758 0.009,-0.0059 0.0158,-0.01263 0.0215,-0.01758 0.0227,-0.01979 0.0296,-0.03214 0.0371,-0.04297 0.015,-0.02166 0.0239,-0.03798 0.0332,-0.05664 0.0186,-0.03733 0.0358,-0.07919 0.0527,-0.123047 0.0169,-0.04385 0.0336,-0.08678 0.0449,-0.126953 0.006,-0.02008 0.0102,-0.03828 0.0137,-0.06445 0.002,-0.01309 0.004,-0.02665 0,-0.05664 -8.9e-4,-0.0075 -0.001,-0.01686 -0.004,-0.02734 -0.003,-0.01049 -0.0154,-0.03668 -0.0156,-0.03711 -2.2e-4,-4.28e-4 -0.0329,-0.04854 -0.0332,-0.04883 -2.9e-4,-2.85e-4 -0.0661,-0.04283 -0.0664,-0.04297 a 0.18450126,0.18450126 0 0 0 -0.0371,-0.0098 c -1.60797,-0.256399 -3.22982,-0.169647 -4.80078,-0.34375 a 0.18450126,0.18450126 0 0 0 -0.006,0 c -0.27866,-0.02027 -0.55847,-0.04217 -0.83789,-0.0625 -0.20005,-0.0262 -0.40718,-0.0639 -0.62695,-0.08203 -0.0526,-0.0044 -0.0825,0.0027 -0.11914,0.0078 0.004,-0.01064 0.003,-0.01026 0.008,-0.02148 0.0254,-0.06165 0.057,-0.136359 0.0898,-0.208984 0.0563,-0.1244 0.1002,-0.216715 0.125,-0.269531 0.005,0.01506 0.011,0.03058 0.0156,0.03906 0.0128,0.0237 0.0241,0.0391 0.0371,0.05664 0.026,0.03509 0.0567,0.07245 0.0898,0.109375 0.0332,0.03692 0.0675,0.07195 0.0996,0.101563 0.0161,0.01481 0.0305,0.02773 0.0527,0.04297 0.0111,0.0076 0.0223,0.01685 0.0508,0.02734 0.007,0.0026 0.0167,0.0055 0.0273,0.0078 0.0106,0.0023 0.0386,0.0039 0.0391,0.0039 5.1e-4,4e-6 0.0582,-0.0096 0.0586,-0.0098 4.1e-4,-1.3e-4 0.0681,-0.0388 0.0684,-0.03906 l -0.0254,0.01953 c 0.80198,-0.499185 1.62302,-0.952888 2.49414,-1.302734 a 0.18450126,0.18450126 0 0 0 0.002,-0.002 c 1.35789,-0.553133 2.70025,-1.116414 4.12695,-1.361328 1.164,-0.199821 2.37609,-0.126729 3.55664,0.03516 0.67333,0.119243 1.18762,0.185193 1.81445,0.386719 0.64089,0.206041 1.24172,0.577463 1.88282,0.888672 L 136,44.042969 c 2.8e-4,2.21e-4 0.07,0.03506 0.0703,0.03516 3.7e-4,9.4e-5 0.0581,0.0059 0.0586,0.0059 4.5e-4,-2.8e-5 0.0385,-0.0077 0.0391,-0.0078 5.3e-4,-1.48e-4 0.0185,-0.0048 0.0254,-0.0078 0.0275,-0.01188 0.0386,-0.02144 0.0488,-0.0293 0.0204,-0.01571 0.033,-0.02871 0.0469,-0.04297 0.0277,-0.02852 0.0561,-0.06107 0.084,-0.0957 0.0279,-0.03463 0.0542,-0.07033 0.0762,-0.103516 0.011,-0.0166 0.0203,-0.03138 0.0312,-0.05469 0.005,-0.01166 0.0119,-0.02333 0.0176,-0.05273 0.001,-0.0074 0.004,-0.02679 0.004,-0.02734 3e-5,-5.5e-4 -0.002,-0.03862 -0.002,-0.03906 -7e-5,-4.44e-4 -0.0174,-0.05631 -0.0176,-0.05664 -1.7e-4,-3.35e-4 -0.0505,-0.06228 -0.0508,-0.0625 a 0.18450126,0.18450126 0 0 0 -0.0273,-0.01758 c -0.61628,-0.330815 -1.23924,-0.717191 -1.93555,-0.960937 -0.7517,-0.263135 -1.13704,-0.306601 -1.91602,-0.458985 a 0.18450126,0.18450126 0 0 0 -0.008,0 c -0.72836,-0.111478 -1.47079,-0.186797 -2.2168,-0.193359 -0.58002,-0.0051 -1.16215,0.03024 -1.73828,0.121094 -1.52408,0.240344 -2.92695,0.850893 -4.30859,1.427734 -0.89966,0.371681 -1.72561,0.861357 -2.52344,1.392578 0.4366,-0.956623 0.90417,-1.9041 1.31836,-2.882812 a 0.18450126,0.18450126 0 0 0 0.004,-0.0098 c 1.1e-4,-3.08e-4 0.01,-0.07388 0.01,-0.07422 -2e-5,-3.43e-4 -0.0116,-0.05626 -0.0117,-0.05664 -1.4e-4,-3.78e-4 -0.0173,-0.03475 -0.0176,-0.03516 -2.7e-4,-4.09e-4 -0.0126,-0.01572 -0.0176,-0.02148 -0.0201,-0.02307 -0.0324,-0.0319 -0.043,-0.03906 -0.0212,-0.01433 -0.0362,-0.02143 -0.0527,-0.0293 -0.0332,-0.01573 -0.0689,-0.02902 -0.10743,-0.04297 -0.0385,-0.01395 -0.0769,-0.02704 -0.11328,-0.03711 -0.0182,-0.005 -0.0359,-0.01013 -0.0547,-0.01367 -0.0187,-0.0035 -0.0304,-0.01012 -0.0859,-0.002 z"
   transform="rotate(-10.128709,23.713349,930.95991)" /></g></svg>
