<?xml version="1.0" encoding="UTF-8"?>
<svg id="Logo" width="770" height="840" version="1.1" viewBox="0 0 770 840" xmlns="http://www.w3.org/2000/svg">
 <defs>
  <style>.cls-1, .cls-2, .cls-3, .cls-4, .cls-5 {
        fill-rule: evenodd;
        stroke-linejoin: round;
      }

      .cls-6 {
        fill-rule: evenodd;
      }

      .cls-1 {
        fill: #005a9c;
        stroke: #005a9c;
      }

      .cls-2 {
        fill: #0066b0;
        stroke: #0066b0;
      }

      .cls-3 {
        fill: #0076cc;
        stroke: #0076cc;
      }

      .cls-4 {
        fill: #0086e8;
        stroke: #0086e8;
      }

      .cls-5 {
        fill: #0093ff;
        stroke: #0093ff;
      }
    </style>
 </defs>
 <path class="cls-4" d="m627.18 296.05-60.189-104.25h120.55z" data-name="Triangle 4"/>
 <path class="cls-5" d="m627.18 87.554-60.189 104.25h120.55z" data-name="Triangle 5"/>
 <path class="cls-3" d="m506.81 504.55-120.38-208.5 240.76-2e-3z" data-name="Triangle 3"/>
 <path class="cls-2" d="m506.81 87.552-120.38 208.5 240.76-2e-3z" data-name="Triangle 2"/>
 <path class="cls-1" d="m266.05 504.55-240.76-417h481.51z" data-name="Triangle 1"/>
 <path class="cls-6" d="m169.18 548.02-25.7 98.943-26.877-98.943h-17.137l-28.221 99.279-25.534-99.279h-16.294l32.757 117.25 16.966-0.168 28.221-94.239 27.214 94.239h17.134l33.933-117.08zm117.25 67.531a46.371 46.371 0 0 0-5.459-22.594 39.572 39.572 0 0 0-15.539-15.706 46.213 46.213 0 0 0-23.181-5.711 47.756 47.756 0 0 0-23.77 5.8 40.093 40.093 0 0 0-16.043 16.547q-5.712 10.752-5.711 25.029 0 14.277 5.879 25.114a41.6 41.6 0 0 0 16.211 16.714 46.506 46.506 0 0 0 23.434 5.88q16.461 0 27.549-8.315a39.581 39.581 0 0 0 14.783-21.586h-16.463a24.459 24.459 0 0 1-9.323 12.347q-6.637 4.621-16.546 4.619a29.643 29.643 0 0 1-20.579-7.643q-8.484-7.643-9.323-21.25h73.578a90.2 90.2 0 0 0 0.5-9.239zm-15.79-3.192h-58.123q1.174-13.1 9.323-20.494a28.334 28.334 0 0 1 19.739-7.391 32.747 32.747 0 0 1 14.7 3.275 25.141 25.141 0 0 1 10.5 9.575 28.211 28.211 0 0 1 3.864 15.035zm51.234-22.174v-49.388h-15.286v124.31h15.286v-16.966a35.4 35.4 0 0 0 13.523 13.27 40.944 40.944 0 0 0 20.914 5.208 41.878 41.878 0 0 0 37.965-23.014 52.85 52.85 0 0 0 5.711-24.862q0-14.111-5.711-24.777a41.656 41.656 0 0 0-15.625-16.547 42.963 42.963 0 0 0-22.342-5.879 40.769 40.769 0 0 0-20.662 5.207 36.153 36.153 0 0 0-13.775 13.439zm62.491 28.557a38.312 38.312 0 0 1-4.2 18.395 29.538 29.538 0 0 1-11.339 11.927 30.881 30.881 0 0 1-15.707 4.115 30.554 30.554 0 0 1-15.538-4.115 30.081 30.081 0 0 1-11.423-11.927 40.557 40.557 0 0 1 0-36.285 30.1 30.1 0 0 1 11.423-11.927 30.574 30.574 0 0 1 15.538-4.115 31.392 31.392 0 0 1 15.707 4.031 29.1 29.1 0 0 1 11.339 11.759 37.449 37.449 0 0 1 4.2 18.142zm142.79-36.791a52.873 52.873 0 0 0-20.914-26.038q-14.363-9.236-33.008-9.239a59.1 59.1 0 0 0-29.734 7.643 55.966 55.966 0 0 0-21.25 21.334 64.565 64.565 0 0 0 0 61.567 56.107 56.107 0 0 0 21.25 21.25 59.068 59.068 0 0 0 29.734 7.643 56.956 56.956 0 0 0 28.053-6.971 56.039 56.039 0 0 0 20.326-18.983 58.146 58.146 0 0 0 9.071-26.457v-11.757h-62.995v12.431h46.7q-1.851 17.477-12.933 27.717t-28.221 10.247a43.637 43.637 0 0 1-22.091-5.627 39.867 39.867 0 0 1-15.454-16.043q-5.629-10.413-5.627-24.189 0-13.776 5.627-24.274a39.775 39.775 0 0 1 15.454-16.127 43.657 43.657 0 0 1 22.091-5.627 40.519 40.519 0 0 1 21.5 5.627 36.439 36.439 0 0 1 14.11 15.873zm101.97 0.336q0-15.119-10.331-24.694t-30.153-9.575h-37.8v117.09h15.287v-48.883h22.51q20.493 0 30.489-9.659t10-24.274zm-40.484 21.334h-22.51v-43h22.51q24.858 0 24.861 21.67 0 10.248-6.047 15.79t-18.814 5.544zm59.129-55.6v73.913q0 14.615 5.8 24.61a36.383 36.383 0 0 0 15.79 14.866 54.05 54.05 0 0 0 44.852 0 36.913 36.913 0 0 0 15.875-14.866q5.871-9.993 5.871-24.611v-73.913h-15.283v74.081q0 15.623-7.644 23.182t-21.082 7.559q-13.606 0-21.25-7.559t-7.641-23.182v-74.081h-15.289z" fill="#eeeeee"/>
 <g transform="translate(38.551 80.678)">
  <rect x="91.933" y="621.7" width="230.91" height="122.68" rx="21.974" ry="21.974" fill="#0093ff"/>
  <g fill="#eeeeee" stroke-width="1.5202" aria-label="C++">
   <path d="m181.95 654.12q0 1.1795-0.39317 2.9206-0.39316 1.7412-1.0672 2.7522-0.61783 1.011-1.348 1.011-0.78633 0-1.8535-1.011-1.0672-1.0672-2.8645-2.2467-1.7973-1.2357-4.6618-2.2467-2.8083-1.0672-7.077-1.0672-4.718 0-8.5935 1.7973-3.8755 1.7412-7.0208 4.7742-3.0892 2.9768-5.4482 6.9085-2.359 3.9317-3.9317 8.2565-1.5165 4.2686-2.3028 8.6496t-0.78633 8.3126q0 4.4933 1.1233 8.0318 1.1233 3.4823 3.2576 5.8975 2.1343 2.4152 5.2235 3.6508 3.0892 1.2357 7.0208 1.2357 4.381 0 7.5263-0.95483 3.2015-1.011 5.4482-2.1905 2.3028-1.2357 3.8193-2.1905 1.5165-1.011 2.4713-1.011 0.61783 0 0.89867 0.44934 0.28083 0.44933 0.28083 1.348 0 0.28084-0.11233 0.8425-0.0562 0.5055-0.1685 1.1233-0.11234 0.61783-0.28084 1.348-0.11233 0.73016-0.337 1.4042-0.22466 0.61783-0.50549 1.1795-0.22467 0.50549-0.8425 1.0672-0.56167 0.56166-2.4713 1.685-1.8535 1.0672-4.6056 2.0782-2.696 0.95484-6.1222 1.6288-3.37 0.73017-7.1893 0.73017-5.729 0-10.335-1.685-4.6056-1.7412-7.8633-5.055-3.2015-3.37-4.9988-8.3126-1.7412-4.9988-1.7412-11.458 0-5.3358 1.1233-10.952 1.1233-5.6728 3.3138-11.009 2.1905-5.3358 5.4482-10.054 3.3138-4.718 7.6386-8.2565 4.381-3.5947 9.8291-5.6167 5.4482-2.0782 11.963-2.0782 4.1002 0 7.6386 0.95483 3.5946 0.89867 6.1222 2.3028 2.5275 1.4042 3.6508 2.5275 1.1233 1.0672 1.1233 2.5275z"/>
   <path d="m232.55 685.18q0 0.337-0.11233 0.89867-0.0562 0.56166-0.22467 1.2357-0.11233 0.674-0.39317 1.348-0.22466 0.67399-0.56166 1.2357-0.337 0.5055-0.8425 0.8425-0.44933 0.337-1.011 0.337h-18.423l-4.1563 20.445q-0.0562 0.44934-0.337 0.78633-0.28083 0.28084-0.8425 0.5055-0.50549 0.22467-1.348 0.39317-0.78633 0.11233-1.9658 0.11233-1.1233 0-1.9097-0.11233-0.78633-0.1685-1.2357-0.39317-0.39317-0.22466-0.56167-0.5055-0.1685-0.33699-0.11233-0.78633l4.1563-20.445h-18.423q-0.674 0-1.1233-0.44934-0.39317-0.50549-0.39317-1.685 0-0.337 0.0562-0.89867 0.0562-0.61783 0.1685-1.2918 0.1685-0.674 0.39316-1.2918 0.28083-0.674 0.56167-1.1795 0.337-0.56167 0.78633-0.89866 0.5055-0.337 1.0672-0.337h18.479l4.1002-20.445q0.11233-0.44933 0.39316-0.78633 0.28083-0.39317 0.78633-0.61783 0.56167-0.28084 1.4042-0.39317 0.84249-0.1685 1.9658-0.1685 1.1795 0 1.9097 0.1685 0.78634 0.11233 1.2357 0.39317 0.44933 0.22466 0.56166 0.61783 0.1685 0.337 0.0562 0.78633l-4.1002 20.445h18.479q0.73017 0 1.1233 0.56166 0.39317 0.5055 0.39317 1.5727z"/>
   <path d="m290.69 685.18q0 0.337-0.11233 0.89867-0.0562 0.56166-0.22467 1.2357-0.11233 0.674-0.39316 1.348-0.22467 0.67399-0.56167 1.2357-0.337 0.5055-0.8425 0.8425-0.44933 0.337-1.011 0.337h-18.423l-4.1563 20.445q-0.0562 0.44934-0.337 0.78633-0.28083 0.28084-0.84249 0.5055-0.5055 0.22467-1.348 0.39317-0.78633 0.11233-1.9658 0.11233-1.1233 0-1.9097-0.11233-0.78633-0.1685-1.2357-0.39317-0.39317-0.22466-0.56167-0.5055-0.1685-0.33699-0.11233-0.78633l4.1563-20.445h-18.423q-0.674 0-1.1233-0.44934-0.39317-0.50549-0.39317-1.685 0-0.337 0.0562-0.89867 0.0562-0.61783 0.1685-1.2918 0.1685-0.674 0.39316-1.2918 0.28084-0.674 0.56167-1.1795 0.337-0.56167 0.78633-0.89866 0.5055-0.337 1.0672-0.337h18.479l4.1002-20.445q0.11233-0.44933 0.39316-0.78633 0.28084-0.39317 0.78633-0.61783 0.56167-0.28084 1.4042-0.39317 0.8425-0.1685 1.9658-0.1685 1.1795 0 1.9097 0.1685 0.78633 0.11233 1.2357 0.39317 0.44933 0.22466 0.56166 0.61783 0.1685 0.337 0.0562 0.78633l-4.1002 20.445h18.479q0.73016 0 1.1233 0.56166 0.39316 0.5055 0.39316 1.5727z"/>
  </g>
  <g fill="#eeeeee" stroke-width="1.5202" aria-label="guide">
   <path d="m394.96 714.64q-0.89866 4.4933-2.9207 7.8633-1.9658 3.37-5.055 5.5605-3.0892 2.2467-7.3578 3.37-4.2125 1.1233-9.6045 1.1233-4.6618 0-8.5373-0.95483-3.8193-0.89867-6.1221-2.1905-0.8425-0.56166-1.1795-1.1233-0.28083-0.50549-0.28083-1.348 0-0.337 0-0.95483 0.0562-0.61783 0.1685-1.2357 0.1685-0.61783 0.337-1.2918 0.22466-0.67399 0.50549-1.2357 0.337-0.5055 0.78634-0.8425 0.44933-0.28083 0.95483-0.28083 0.67399 0 1.685 0.56167 1.011 0.61783 2.696 1.348 1.685 0.73017 4.1563 1.348 2.5275 0.61783 6.1783 0.61783 3.033 0 5.4482-0.61783 2.4713-0.61783 4.2686-1.8535 1.8535-1.2357 2.9768-3.1453 1.1795-1.9097 1.7412-4.5495 0.95483-5.1112 1.9097-8.4811t1.5727-5.2235q-0.89866 2.0782-2.8645 4.2125-1.9658 2.0782-4.5495 3.8755-2.5837 1.7412-5.6728 2.8645-3.0892 1.0672-6.2906 1.0672-4.2125 0-7.1332-1.4042-2.9206-1.4042-4.718-3.8193-1.7412-2.4713-2.5275-5.7852-0.78634-3.37-0.78634-7.2455 0-3.2576 0.61784-7.3016 0.61783-4.1002 1.9658-8.2003 1.348-4.1563 3.4262-8.0318 2.1343-3.9317 5.1112-6.9646 2.9768-3.0892 6.8523-4.9426 3.9316-1.8535 8.8743-1.8535 4.9988 0 8.5373 2.022 3.5947 2.022 6.403 5.5605l1.0672-5.1112q0.22466-0.89866 1.2918-1.2918 1.0672-0.39316 3.3138-0.39316 1.1233 0 1.8535 0.11233 0.78634 0.0562 1.2357 0.28083 0.44933 0.22467 0.56166 0.56167 0.11234 0.337 0.0562 0.73016zm-0.89866-41.339q-2.6398-3.8755-5.729-5.7852-3.033-1.9658-6.8523-1.9658-3.033 0-5.4482 1.4042t-4.3248 3.7632q-1.8535 2.3028-3.2577 5.3358-1.4042 3.033-2.3028 6.2345-0.84249 3.1453-1.2918 6.2906-0.39317 3.0892-0.39317 5.6166 0 2.4152 0.39317 4.4372 0.44933 2.022 1.348 3.4823 0.95483 1.4042 2.4152 2.2467 1.5165 0.8425 3.6508 0.8425 3.0892 0 6.1783-1.685 3.1453-1.7412 5.8413-4.7742 2.696-3.033 4.7742-7.1331 2.0782-4.1563 3.0892-9.0428z"/>
   <path d="m454.95 710.65q-0.0562 0.44933-0.337 0.78633-0.28083 0.337-0.78633 0.56167-0.5055 0.1685-1.348 0.28083-0.78633 0.11233-1.9658 0.11233-1.1233 0-1.9097-0.11233-0.73016-0.11233-1.1795-0.28083-0.39317-0.22467-0.56167-0.56167-0.11233-0.337 0-0.78633l1.8535-9.4921q-0.89867 1.9097-2.8645 4.044-1.9097 2.0782-4.5495 3.8755-2.5837 1.7973-5.729 2.9207-3.0892 1.1233-6.2906 1.1233-3.8193 0-6.4592-1.0672-2.5837-1.011-4.2125-2.8083-1.5727-1.8535-2.3028-4.3248-0.67399-2.5275-0.67399-5.5043 0-1.8535 0.22466-3.7632 0.28083-1.9658 0.674-3.9317l6.2345-31.678q0.11233-0.39316 0.39317-0.73016 0.28083-0.337 0.84249-0.56167 0.61784-0.22466 1.5165-0.28083 0.95483-0.11233 2.3028-0.11233 1.348 0 2.1905 0.11233 0.89866 0.0562 1.348 0.28083 0.5055 0.22467 0.61783 0.56167 0.1685 0.337 0.11233 0.73016l-6.1783 31.341q-0.337 1.4603-0.5055 3.033t-0.1685 3.2015q0 1.685 0.28083 3.0892 0.337 1.348 1.0672 2.359 0.78633 1.011 1.9658 1.5727 1.2357 0.56166 2.9768 0.56166 2.9768 0 6.066-1.685 3.1453-1.7412 5.8413-4.7742 2.696-3.033 4.7742-7.1893 2.1343-4.2125 3.1453-9.1551l4.4372-22.354q0.0562-0.39316 0.33699-0.73016 0.337-0.337 0.89867-0.56167 0.61783-0.22466 1.5165-0.28083 0.95484-0.11233 2.3028-0.11233 1.348 0 2.1905 0.11233 0.89867 0.0562 1.348 0.28083 0.5055 0.22467 0.61783 0.56167 0.1685 0.337 0.11234 0.73016z"/>
   <path d="m495.95 643.08q-0.28084 1.5727-0.78633 2.6398-0.44934 1.0672-1.2357 1.7412-0.78633 0.61783-1.9658 0.89866-1.1795 0.28083-2.8645 0.28083-1.6288 0-2.696-0.28083-1.0672-0.28083-1.5727-0.89866-0.5055-0.674-0.56167-1.7412-0.0562-1.0672 0.22467-2.6398 0.337-1.5727 0.8425-2.5837 0.5055-1.0672 1.2357-1.7412 0.78633-0.73017 1.9658-0.95483 1.1795-0.28084 2.8645-0.28084 1.6288 0 2.6398 0.28084 1.0672 0.22466 1.5727 0.95483 0.56166 0.674 0.61783 1.7412 0.0562 1.011-0.28083 2.5837zm-14.547 67.568q-0.11233 0.44933-0.39316 0.78633-0.28084 0.28084-0.8425 0.5055-0.56167 0.22467-1.5165 0.337-0.89866 0.11233-2.2467 0.11233-1.4042 0-2.3028-0.11233-0.8425-0.11233-1.348-0.337-0.44933-0.22466-0.61783-0.5055-0.11233-0.337 0-0.78633l10.054-50.55q0.0562-0.39317 0.337-0.73017 0.28084-0.33699 0.8425-0.56166 0.56167-0.22467 1.4603-0.337 0.95483-0.11233 2.359-0.11233 1.348 0 2.1905 0.11233 0.89866 0.11233 1.348 0.337 0.5055 0.22467 0.61783 0.56166 0.1685 0.337 0.11234 0.73017z"/>
   <path d="m540.55 710.65q-0.1685 0.95483-1.1795 1.348-1.011 0.39316-3.37 0.39316-1.1795 0-1.9097-0.11233-0.73017-0.11233-1.1795-0.28083-0.44933-0.22467-0.61783-0.5055-0.11233-0.337 0-0.8425l1.7973-9.436q-0.73017 1.8535-2.6398 3.9878-1.9097 2.0782-4.5495 3.8755-2.5837 1.7412-5.7852 2.9207-3.2015 1.1233-6.5153 1.1233-3.3138 0-5.7852-0.89867-2.4152-0.84249-4.1002-2.3028-1.6288-1.4603-2.696-3.37-1.011-1.9658-1.6288-3.9878-0.56167-2.0782-0.78633-4.1563-0.1685-2.0782-0.1685-3.8193 0-3.2577 0.61783-7.3016 0.61783-4.044 1.9658-8.088 1.348-4.1002 3.4262-7.9756 2.1343-3.9317 5.1112-6.9085 2.9768-3.033 6.8523-4.8865 3.9316-1.8535 8.8743-1.8535 2.4152 0 4.5495 0.56166 2.1343 0.5055 3.8755 1.4603 1.7412 0.89866 3.2015 2.1905t2.6398 2.696l5.729-28.645q0.0562-0.39317 0.337-0.73017 0.28083-0.39316 0.8425-0.56166 0.56166-0.22467 1.4603-0.337 0.89866-0.1685 2.3028-0.1685 1.348 0 2.1905 0.1685 0.89866 0.11233 1.4042 0.337 0.5055 0.1685 0.61783 0.56166 0.1685 0.337 0.0562 0.73017zm-1.7973-37.182q-2.6398-3.8755-5.729-5.8975-3.033-2.022-6.8523-2.022-2.9768 0-5.392 1.4042-2.359 1.348-4.2687 3.6508-1.9097 2.3028-3.3138 5.2796-1.348 2.9768-2.2467 6.1783-0.89867 3.1453-1.348 6.2345-0.44933 3.0892-0.44933 5.6728 0 5.4482 1.8535 8.3688 1.8535 2.8645 5.9536 2.8645 3.0892 0 6.1783-1.685 3.1453-1.685 5.8413-4.6618 2.696-2.9768 4.7742-7.077 2.0782-4.1002 3.0892-8.9866z"/>
   <path d="m605.98 670.44q0 3.8755-1.7973 6.9646t-5.6166 5.2796q-3.8193 2.1905-9.773 3.37-5.9536 1.1795-14.266 1.1795h-5.9536q-0.39317 1.8535-0.56167 3.5947-0.11233 1.7412-0.11233 3.2576 0 5.6166 2.7522 8.5935 2.8083 2.9768 9.0428 2.9768 3.5946 0 6.4591-0.5055 2.8645-0.56166 4.9427-1.1795 2.1343-0.61783 3.4823-1.1233 1.348-0.56167 1.8535-0.56167 0.5055 0 0.73017 0.39317 0.28083 0.337 0.28083 1.011 0 0.56166-0.11233 1.348t-0.337 1.6288q-0.22467 0.78633-0.61783 1.5165-0.337 0.73016-0.78633 1.2357-0.674 0.674-2.4152 1.348-1.685 0.61783-4.044 1.1795-2.359 0.5055-5.1673 0.8425-2.8083 0.337-5.6166 0.337-4.9988 0-8.762-1.1233-3.7632-1.1233-6.2906-3.4262-2.4713-2.359-3.707-5.8413-1.2357-3.4823-1.2357-8.2003 0-3.6508 0.67399-7.8072 0.73017-4.2125 2.2467-8.3126 1.5165-4.1002 3.9317-7.8633 2.4152-3.7632 5.729-6.6276 3.37-2.8645 7.751-4.6056t9.8853-1.7412q4.718 0 7.9756 1.1795 3.3138 1.1795 5.392 3.033 2.1343 1.8535 3.0892 4.1563 0.95483 2.2467 0.95483 4.4933zm-9.4921 0.84249q0-2.8645-2.2467-4.6056-2.2467-1.7973-6.403-1.7973-3.6508 0-6.4592 1.2918-2.8083 1.2357-4.9988 3.37-2.1343 2.1343-3.707 4.9988-1.5165 2.8083-2.4713 5.9536h5.729q5.8975 0 9.8291-0.73016 3.9878-0.73017 6.3468-1.9658 2.4152-1.2918 3.37-2.9768 1.011-1.685 1.011-3.5385z"/>
  </g>
 </g>
</svg>
