# Model for https://eliemichel.github.io/LearnWebGPU
o Plane
v -0.473500 -0.257600 0.416912
v -0.450000 -0.300000 0.450000
v -0.416912 -0.257600 0.473500
v -0.479059 -0.278591 0.427604
v -0.460915 -0.250810 0.440361
v -0.470459 -0.275474 0.454421
v -0.439308 -0.293589 0.470746
v -0.470746 -0.293589 0.439308
v -0.463814 -0.288347 0.463814
v -0.440361 -0.250810 0.460915
v -0.427604 -0.278591 0.479059
v -0.454421 -0.275474 0.470459
v 0.416912 -0.257600 0.473500
v 0.450000 -0.300000 0.450000
v 0.473500 -0.257600 0.416912
v 0.427604 -0.278591 0.479059
v 0.440361 -0.250810 0.460915
v 0.454421 -0.275474 0.470459
v 0.470746 -0.293589 0.439308
v 0.439308 -0.293589 0.470746
v 0.463814 -0.288347 0.463814
v 0.460915 -0.250810 0.440361
v 0.479059 -0.278591 0.427604
v 0.470459 -0.275474 0.454421
v -0.473500 -0.257600 -0.416912
v -0.416912 -0.257600 -0.473500
v -0.450000 -0.300000 -0.450000
v -0.460915 -0.250810 -0.440361
v -0.479059 -0.278591 -0.427604
v -0.470459 -0.275474 -0.454421
v -0.427604 -0.278591 -0.479059
v -0.440361 -0.250810 -0.460915
v -0.454421 -0.275474 -0.470459
v -0.470746 -0.293589 -0.439308
v -0.439308 -0.293589 -0.470746
v -0.463814 -0.288347 -0.463814
v 0.473500 -0.257600 -0.416912
v 0.450000 -0.300000 -0.450000
v 0.416912 -0.257600 -0.473500
v 0.479059 -0.278591 -0.427604
v 0.460915 -0.250810 -0.440361
v 0.470459 -0.275474 -0.454421
v 0.439308 -0.293589 -0.470746
v 0.470746 -0.293589 -0.439308
v 0.463814 -0.288347 -0.463814
v 0.440361 -0.250810 -0.460915
v 0.427604 -0.278591 -0.479059
v 0.454421 -0.275474 -0.470459
v -0.000000 0.409459 -0.056588
v -0.056588 0.409459 0.000000
v 0.000000 0.409459 0.056588
v 0.056588 0.409459 -0.000000
v -0.023449 0.416248 -0.044003
v 0.023449 0.416248 -0.044003
v -0.000000 0.434497 -0.022417
v -0.044003 0.416248 0.023449
v -0.044003 0.416248 -0.023449
v -0.022417 0.434497 0.000000
v 0.023449 0.416248 0.044003
v -0.023449 0.416248 0.044003
v 0.000000 0.434497 0.022417
v 0.044003 0.416248 -0.023449
v 0.044003 0.416248 0.023449
v 0.022417 0.434497 -0.000000
vt 0.056588 0.000000
vt 0.890412 0.000000
vt 0.056588 0.000000
vt 0.943412 1.000000
vt 0.109588 1.000000
vt 0.943412 1.000000
vt 0.050000 0.050000
vt 0.050000 0.950000
vt 0.950000 0.950000
vt 0.950000 0.050000
vt 1.000000 0.056588
vt 1.000000 0.890412
vt 1.000000 0.056588
vt 0.000000 0.109588
vt 0.000000 0.087901
vt 0.000000 0.064899
vt 0.000000 0.092726
vt 0.029254 0.060692
vt 0.036186 0.036186
vt 0.060692 0.029254
vt 0.056892 0.000000
vt 0.026258 0.000000
vt 0.000000 0.000000
vt 0.000000 0.077819
vt 0.000000 0.053366
vt 0.029541 0.045579
vt 0.045579 0.029541
vt 0.912099 0.000000
vt 0.935101 0.000000
vt 0.907274 0.000000
vt 0.939308 0.029254
vt 0.963814 0.036186
vt 0.970746 0.060692
vt 1.000000 0.056892
vt 1.000000 0.026258
vt 1.000000 0.000000
vt 0.922181 0.000000
vt 0.946634 0.000000
vt 0.954421 0.029541
vt 0.970459 0.045579
vt 0.000000 0.943412
vt 0.000000 0.973448
vt 0.000000 0.973742
vt 0.000000 0.943108
vt 0.000000 1.000000
vt 0.000000 0.994285
vt 0.087901 1.000000
vt 0.064899 1.000000
vt 0.077819 1.000000
vt 0.060692 0.970746
vt 0.036186 0.963814
vt 0.029254 0.939308
vt 0.029541 0.954421
vt 0.045579 0.970459
vt 1.000000 0.912099
vt 1.000000 0.935101
vt 1.000000 0.922181
vt 0.970746 0.939308
vt 0.963814 0.963814
vt 0.939308 0.970746
vt 0.943108 1.000000
vt 0.973742 1.000000
vt 0.973448 1.000000
vt 1.000000 1.000000
vt 0.994285 1.000000
vt 0.970459 0.954421
vt 0.954421 0.970459
vt 0.911643 1.000000
vt 0.944201 1.000000
vt 0.973447 1.000000
vt 0.000000 1.000000
vt 0.000000 0.973447
vt 0.000000 0.964263
vt 0.000000 1.000000
vt 0.000000 0.943412
vt 0.000000 0.926549
vt 0.000000 0.911643
vt 0.000000 0.944201
vt 0.073451 0.000000
vt 0.000000 0.000000
vt 0.000000 0.000000
vt 0.088357 0.000000
vt 0.051857 0.000000
vt 1.000000 0.088357
vt 1.000000 0.035737
vt 1.000000 0.000000
vt 1.000000 1.000000
vt 0.992978 1.000000
vt 0.000000 0.976858
vn -0.0000 0.5300 0.8480
vn 0.0000 0.5300 -0.8480
vn 0.0000 -1.0000 0.0000
vn 0.8480 0.5300 0.0000
vn -0.8578 0.4335 0.2761
vn -0.9146 -0.2505 0.3176
vn -0.3622 -0.8588 0.3622
vn -0.3176 -0.2505 0.9146
vn -0.2761 0.4335 0.8578
vn -0.5856 0.5605 0.5856
vn -0.6992 0.1492 0.6992
vn 0.2761 0.4335 0.8578
vn 0.3176 -0.2505 0.9146
vn 0.3622 -0.8588 0.3622
vn 0.9146 -0.2505 0.3176
vn 0.8578 0.4335 0.2761
vn 0.5856 0.5605 0.5856
vn 0.6992 0.1492 0.6992
vn -0.8578 0.4335 -0.2761
vn -0.5856 0.5605 -0.5856
vn -0.2761 0.4335 -0.8578
vn -0.3176 -0.2505 -0.9146
vn -0.3622 -0.8588 -0.3622
vn -0.9146 -0.2505 -0.3176
vn -0.6992 0.1492 -0.6992
vn 0.8578 0.4335 -0.2761
vn 0.9146 -0.2505 -0.3176
vn 0.3622 -0.8588 -0.3622
vn 0.3176 -0.2505 -0.9146
vn 0.2761 0.4335 -0.8578
vn 0.5856 0.5605 -0.5856
vn 0.6992 0.1492 -0.6992
vn 0.0000 0.8066 -0.5911
vn -0.3516 0.8676 -0.3516
vn -0.5911 0.8066 0.0000
vn -0.3516 0.8676 0.3516
vn 0.0000 0.8066 0.5911
vn 0.3516 0.8676 0.3516
vn 0.5911 0.8066 -0.0000
vn 0.3516 0.8676 -0.3516
vn 0.0000 1.0000 0.0000
vn -0.2953 -0.9554 0.0000
vn -0.8746 -0.4848 0.0000
vn -0.9667 0.2560 0.0000
vn 0.0000 -0.9554 0.2953
vn 0.0000 -0.4848 0.8746
vn 0.0000 0.2560 0.9667
vn 0.2953 -0.9554 0.0000
vn 0.8746 -0.4848 -0.0000
vn 0.9667 0.2560 -0.0000
vn 0.0000 -0.9554 -0.2953
vn -0.0000 -0.4848 -0.8746
vn 0.0000 0.2560 -0.9667
vn 0.2276 0.6144 -0.7555
vn 0.5298 0.6623 -0.5298
vn 0.7555 0.6144 -0.2276
vn 0.2276 0.6144 0.7555
vn 0.5298 0.6623 0.5298
vn 0.7555 0.6144 0.2276
vn -0.2276 0.6144 0.7555
vn -0.5298 0.6623 0.5298
vn -0.7555 0.6144 0.2276
vn -0.2276 0.6144 -0.7555
vn -0.5298 0.6623 -0.5298
vn -0.7555 0.6144 -0.2276
vn -0.8480 0.5300 -0.0000
usemtl None
s off
f 3/1/1 13/2/1 51/3/1
f 39/4/2 26/5/2 49/6/2
f 2/7/3 27/8/3 38/9/3 14/10/3
f 15/11/4 37/12/4 52/13/4
f 1/14/5 4/15/5 6/16/5 5/17/5
f 4/15/6 8/18/6 9/19/6 6/16/6
f 2/7/7 7/20/7 9/19/7 8/18/7
f 7/20/8 11/21/8 12/22/8 9/19/8
f 3/1/9 10/23/9 12/22/9 11/21/9
f 10/24/10 5/17/10 6/16/10 12/25/10
f 6/26/11 9/19/11 12/27/11
f 13/2/12 16/28/12 18/29/12 17/30/12
f 16/28/13 20/31/13 21/32/13 18/29/13
f 14/10/14 19/33/14 21/32/14 20/31/14
f 19/33/15 23/34/15 24/35/15 21/32/15
f 15/11/16 22/36/16 24/35/16 23/34/16
f 22/37/17 17/30/17 18/29/17 24/38/17
f 18/39/18 21/32/18 24/40/18
f 25/41/19 28/42/19 30/43/19 29/44/19
f 28/42/20 32/45/20 33/46/20 30/43/20
f 26/5/21 31/47/21 33/48/21 32/49/21
f 31/47/22 35/50/22 36/51/22 33/48/22
f 27/8/23 34/52/23 36/51/23 35/50/23
f 34/52/24 29/44/24 30/43/24 36/51/24
f 30/53/25 33/54/25 36/51/25
f 37/12/26 40/55/26 42/56/26 41/57/26
f 40/55/27 44/58/27 45/59/27 42/56/27
f 38/9/28 43/60/28 45/59/28 44/58/28
f 43/60/29 47/61/29 48/62/29 45/59/29
f 39/4/30 46/63/30 48/62/30 47/61/30
f 46/63/31 41/64/31 42/65/31 48/62/31
f 42/66/32 45/59/32 48/67/32
f 49/6/33 53/68/33 55/69/33 54/70/33
f 53/71/34 57/72/34 58/73/34 55/74/34
f 50/75/35 56/76/35 58/73/35 57/72/35
f 56/76/36 60/77/36 61/78/36 58/73/36
f 51/3/37 59/79/37 61/80/37 60/81/37
f 59/79/38 63/82/38 64/83/38 61/80/38
f 52/13/39 62/84/39 64/85/39 63/86/39
f 62/87/40 54/70/40 55/69/40 64/88/40
f 55/74/41 58/73/41 61/78/41 64/89/41
f 27/8/42 2/7/42 8/18/42 34/52/42
f 34/52/43 8/18/43 4/15/43 29/44/43
f 29/44/44 4/15/44 1/14/44 25/41/44
f 2/7/45 14/10/45 20/31/45 7/20/45
f 7/20/46 20/31/46 16/28/46 11/21/46
f 11/21/47 16/28/47 13/2/47 3/1/47
f 14/10/48 38/9/48 44/58/48 19/33/48
f 19/33/49 44/58/49 40/55/49 23/34/49
f 23/34/50 40/55/50 37/12/50 15/11/50
f 38/9/51 27/8/51 35/50/51 43/60/51
f 43/60/52 35/50/52 31/47/52 47/61/52
f 47/61/53 31/47/53 26/5/53 39/4/53
f 39/4/54 49/6/54 54/70/54 46/63/54
f 46/63/55 54/70/55 62/87/55 41/64/55
f 41/57/56 62/84/56 52/13/56 37/12/56
f 51/3/57 13/2/57 17/30/57 59/79/57
f 59/79/58 17/30/58 22/37/58 63/82/58
f 63/86/59 22/36/59 15/11/59 52/13/59
f 3/1/60 51/3/60 60/81/60 10/23/60
f 10/24/61 60/77/61 56/76/61 5/17/61
f 5/17/62 56/76/62 50/75/62 1/14/62
f 49/6/63 26/5/63 32/49/63 53/68/63
f 53/71/64 32/45/64 28/42/64 57/72/64
f 57/72/65 28/42/65 25/41/65 50/75/65
f 25/41/66 1/14/66 50/75/66
